<svg width="434" height="250" viewBox="0 0 434 250" fill="none" xmlns="http://www.w3.org/2000/svg">
<g filter="url(#filter0_d_644_2387)">
<rect width="300" height="200" rx="30" transform="matrix(0.866025 0.5 -0.866025 0.5 173.205 0)" fill="white"/>
</g>
<path d="M164.988 30.256L172.65 24.74L173.742 25.37L166.54 30.452L166.418 30.382L174.396 26.868L175.512 27.512L169.425 32.118L169.304 32.048L178.106 27.89L179.198 28.52L169.644 32.944L168.067 32.034L173.96 27.596L174.251 27.764L166.564 31.166L164.988 30.256ZM174.501 35.7483L180.927 32.0383L181.945 32.6263L175.519 36.3363L174.501 35.7483ZM171.918 34.2573L172.815 33.7393L178.635 37.0993L177.738 37.6173L171.918 34.2573ZM177.568 31.1353L178.465 30.6173L181.945 32.6263L181.048 33.1443L177.568 31.1353ZM181.836 31.4013L183.024 30.7153L184.091 31.3313L182.903 32.0173L181.836 31.4013ZM181.528 39.8055L188.415 35.8295C188.673 35.6802 188.803 35.5215 188.803 35.3535C188.803 35.1855 188.673 35.0269 188.415 34.8775L186.899 34.0025L187.796 33.4845L189.36 34.3875C189.95 34.7282 190.241 35.0735 190.233 35.4235C190.241 35.7735 189.95 36.1189 189.36 36.4595L182.547 40.3935L181.528 39.8055ZM178.946 38.3145L179.843 37.7965L185.662 41.1565L184.765 41.6745L178.946 38.3145ZM188.798 44.0028L195.685 40.0268C195.943 39.8775 196.073 39.7188 196.073 39.5508C196.073 39.3828 195.943 39.2241 195.685 39.0748L194.169 38.1998L195.066 37.6818L196.63 38.5848C197.22 38.9255 197.511 39.2708 197.503 39.6208C197.511 39.9708 197.22 40.3161 196.63 40.6568L189.816 44.5908L188.798 44.0028ZM186.215 42.5118L187.113 41.9938L192.932 45.3538L192.035 45.8718L186.215 42.5118ZM200.998 51.0463L202.016 50.4583L204.162 51.6973L210.734 47.9033L208.588 46.6643L209.606 46.0763L214.941 49.1563L213.922 49.7443L211.776 48.5053L205.205 52.2993L207.351 53.5383L206.332 54.1263L200.998 51.0463ZM216.204 62.0939C215.744 61.8279 215.404 61.5432 215.186 61.2399C214.968 60.9365 214.875 60.6309 214.907 60.3229C214.939 60.0149 215.097 59.7279 215.38 59.4619L216.52 60.0359C216.317 60.2645 216.253 60.4979 216.326 60.7359C216.398 60.9832 216.681 61.2492 217.174 61.5339C217.756 61.8699 218.318 62.0589 218.86 62.1009C219.409 62.1475 219.918 62.0355 220.387 61.7649L221.43 61.1629C220.937 61.2702 220.42 61.2842 219.878 61.2049C219.336 61.1255 218.855 60.9645 218.435 60.7219C217.894 60.4092 217.542 60.0522 217.38 59.6509C217.227 59.2542 217.263 58.8505 217.489 58.4399C217.724 58.0339 218.144 57.6559 218.75 57.3059C219.365 56.9512 220.019 56.7085 220.715 56.5779C221.418 56.4425 222.109 56.4169 222.788 56.5009C223.475 56.5895 224.085 56.7879 224.619 57.0959C225.071 57.3572 225.37 57.6512 225.516 57.9779C225.669 58.3092 225.641 58.6195 225.431 58.9089L226.449 58.3209L227.419 58.8809L221.43 62.3389C220.929 62.6282 220.387 62.8102 219.805 62.8849C219.215 62.9642 218.617 62.9362 218.011 62.8009C217.397 62.6702 216.794 62.4345 216.204 62.0939ZM219.454 60.1899C220.003 60.5072 220.634 60.6519 221.345 60.6239C222.064 60.5912 222.76 60.3859 223.43 60.0079C223.883 59.7559 224.19 59.4945 224.352 59.2239C224.53 58.9532 224.562 58.6872 224.449 58.4259C224.352 58.1645 224.117 57.9265 223.746 57.7119C223.18 57.3852 222.545 57.2429 221.842 57.2849C221.155 57.3269 220.48 57.5392 219.817 57.9219C219.155 58.3045 218.787 58.6989 218.714 59.1049C218.657 59.5109 218.904 59.8725 219.454 60.1899ZM224.481 64.7721C224.076 64.5388 223.785 64.2868 223.608 64.0161C223.43 63.7455 223.377 63.4818 223.45 63.2251C223.531 62.9638 223.745 62.7328 224.093 62.5321C224.642 62.2148 225.228 62.0631 225.851 62.0771C226.489 62.0911 227.229 62.2615 228.069 62.5881L230.664 63.5821C231.214 63.2648 231.496 62.9568 231.513 62.6581C231.537 62.3641 231.319 62.0841 230.858 61.8181C230.413 61.5615 229.965 61.4191 229.512 61.3911C229.068 61.3585 228.611 61.4215 228.142 61.5801L227.148 60.9081C227.875 60.6281 228.651 60.5115 229.476 60.5581C230.316 60.6048 231.1 60.8381 231.828 61.2581C232.604 61.7061 232.972 62.1891 232.931 62.7071C232.899 63.2205 232.474 63.7128 231.658 64.1841L228.991 65.7241C228.845 65.8081 228.777 65.8851 228.785 65.9551C228.793 66.0251 228.861 66.0975 228.991 66.1721L229.403 66.4101L228.506 66.9281C228.449 66.9048 228.368 66.8628 228.263 66.8021C228.15 66.7461 228.045 66.6901 227.948 66.6341C227.673 66.4755 227.483 66.3145 227.378 66.1511C227.281 65.9925 227.281 65.8291 227.378 65.6611C227.483 65.4885 227.689 65.3088 227.997 65.1221L228.191 65.2341C227.859 65.3601 227.471 65.4255 227.027 65.4301C226.598 65.4348 226.158 65.3811 225.705 65.2691C225.261 65.1525 224.852 64.9868 224.481 64.7721ZM225.475 64.3101C225.911 64.5621 226.348 64.7301 226.784 64.8141C227.229 64.8935 227.657 64.8981 228.069 64.8281C228.49 64.7535 228.878 64.6135 229.233 64.4081L229.791 64.0861L227.439 63.1761C226.922 62.9708 226.493 62.8681 226.154 62.8681C225.822 62.8635 225.523 62.9381 225.256 63.0921C224.957 63.2648 224.824 63.4585 224.856 63.6731C224.905 63.8878 225.111 64.1001 225.475 64.3101ZM232.66 69.3264L239.086 65.6164L240.104 66.2044L233.678 69.9144L232.66 69.3264ZM230.077 67.8354L230.974 67.3174L236.794 70.6774L235.897 71.1954L230.077 67.8354ZM235.727 64.7134L236.624 64.1954L240.104 66.2044L239.207 66.7224L235.727 64.7134ZM239.995 64.9794L241.183 64.2934L242.25 64.9094L241.062 65.5954L239.995 64.9794ZM237.396 72.0607L243.822 68.3507L244.755 68.8897L243.155 69.8557L243.143 69.7227C243.603 69.55 244.06 69.4543 244.513 69.4357C244.981 69.417 245.426 69.459 245.846 69.5617C246.267 69.6643 246.642 69.8113 246.974 70.0027C247.467 70.2873 247.766 70.586 247.871 70.8987C247.984 71.216 247.94 71.531 247.738 71.8437C247.544 72.1517 247.22 72.4363 246.768 72.6977L242.633 75.0847L241.615 74.4967L245.458 72.2777C246.056 71.9323 246.392 71.6033 246.465 71.2907C246.545 70.9733 246.343 70.6747 245.858 70.3947C245.527 70.2033 245.155 70.0727 244.743 70.0027C244.339 69.928 243.918 69.9233 243.482 69.9887C243.062 70.054 242.654 70.201 242.257 70.4297L238.414 72.6487L237.396 72.0607ZM251.766 80.3572L260.374 75.3872L261.853 76.2412L257.488 82.2892L264.908 78.0052L265.951 78.6072L257.343 83.5772L255.864 82.7232L260.228 76.6752L252.808 80.9592L251.766 80.3572ZM261.788 86.3115C261.181 85.9615 260.794 85.5788 260.624 85.1635C260.462 84.7528 260.511 84.3328 260.769 83.9035C261.044 83.4741 261.521 83.0635 262.2 82.6715C262.879 82.2795 263.586 82.0065 264.322 81.8525C265.065 81.7031 265.789 81.6728 266.492 81.7615C267.211 81.8501 267.866 82.0648 268.456 82.4055C269.014 82.7275 269.374 83.0891 269.535 83.4905C269.705 83.8871 269.66 84.3001 269.402 84.7295C269.143 85.1588 268.654 85.5811 267.935 85.9965L267.632 86.1715L262.952 83.4695C262.305 83.8895 261.97 84.2931 261.945 84.6805C261.929 85.0725 262.2 85.4295 262.758 85.7515C263.178 85.9941 263.618 86.1365 264.079 86.1785C264.556 86.2205 265.009 86.1785 265.437 86.0525L266.443 86.7315C265.7 86.9648 264.904 87.0511 264.055 86.9905C263.222 86.9298 262.467 86.7035 261.788 86.3115ZM263.849 82.9515L267.413 85.0095C267.987 84.6221 268.262 84.2535 268.238 83.9035C268.214 83.5535 267.963 83.2408 267.486 82.9655C266.993 82.6808 266.431 82.5338 265.801 82.5245C265.187 82.5151 264.536 82.6575 263.849 82.9515ZM270.04 90.9077C269.417 90.5484 269.098 90.1961 269.082 89.8507C269.066 89.5054 269.357 89.1601 269.955 88.8147L276.114 85.2587L277.132 85.8467L270.973 89.4027C270.674 89.5754 270.521 89.7434 270.513 89.9067C270.513 90.0654 270.654 90.2264 270.937 90.3897L272.659 91.3837L271.761 91.9017L270.04 90.9077ZM271.592 85.4197L272.489 84.9017L278.187 88.1917L277.29 88.7097L271.592 85.4197ZM274.036 93.215L281.699 87.699L282.79 88.329L275.588 93.411L275.467 93.341L283.444 89.827L284.56 90.471L278.473 95.077L278.352 95.007L287.155 90.849L288.246 91.479L278.692 95.903L277.116 94.993L283.008 90.555L283.299 90.723L275.612 94.125L274.036 93.215ZM283.488 98.8403C282.898 98.4996 282.518 98.1216 282.349 97.7063C282.187 97.2956 282.235 96.8756 282.494 96.4463C282.761 96.0123 283.234 95.5993 283.913 95.2073C284.6 94.8106 285.315 94.5376 286.059 94.3883C286.802 94.2389 287.53 94.2109 288.241 94.3043C288.96 94.4023 289.615 94.6216 290.205 94.9623C290.795 95.3029 291.171 95.6786 291.333 96.0893C291.502 96.5046 291.458 96.9269 291.199 97.3563C290.941 97.7856 290.468 98.1986 289.781 98.5953C289.102 98.9873 288.386 99.2603 287.635 99.4143C286.891 99.5636 286.16 99.5893 285.44 99.4913C284.729 99.3979 284.078 99.1809 283.488 98.8403ZM284.458 98.2803C285.048 98.6209 285.715 98.7633 286.459 98.7073C287.218 98.6513 287.97 98.4086 288.714 97.9793C289.457 97.5499 289.874 97.1183 289.963 96.6843C290.068 96.2503 289.825 95.8629 289.235 95.5223C288.645 95.1816 287.97 95.0393 287.21 95.0953C286.467 95.1513 285.723 95.3939 284.98 95.8233C284.236 96.2526 283.812 96.6843 283.706 97.1183C283.618 97.5523 283.868 97.9396 284.458 98.2803ZM290.031 102.45L296.457 98.7395L297.305 99.2295L295.778 100.224L295.705 100.154C296.335 99.8828 296.913 99.7498 297.439 99.7545C297.972 99.7638 298.465 99.8992 298.918 100.161L300.239 100.924L299.318 101.456L298.008 100.7C297.693 100.518 297.362 100.401 297.014 100.35C296.683 100.298 296.339 100.31 295.984 100.385C295.636 100.455 295.285 100.592 294.929 100.798L291.049 103.038L290.031 102.45ZM288.357 101.484L289.255 100.966L293.983 103.696L293.086 104.214L288.357 101.484ZM293.886 98.2915L294.783 97.7735L297.014 99.0615L296.117 99.5795L293.886 98.2915ZM299.119 107.697C298.497 107.337 298.178 106.985 298.161 106.64C298.145 106.294 298.436 105.949 299.034 105.604L305.193 102.048L306.212 102.636L300.053 106.192C299.754 106.364 299.6 106.532 299.592 106.696C299.592 106.854 299.733 107.015 300.016 107.179L301.738 108.173L300.841 108.691L299.119 107.697ZM300.671 102.209L301.568 101.691L307.267 104.981L306.37 105.499L300.671 102.209ZM303.018 109.948L311.627 104.978L312.645 105.566L309.044 107.645L308.947 107.561C309.384 107.402 309.812 107.314 310.232 107.295C310.653 107.276 311.057 107.318 311.445 107.421C311.841 107.519 312.205 107.664 312.536 107.855C312.997 108.121 313.28 108.406 313.385 108.709C313.506 109.012 313.462 109.318 313.251 109.626C313.057 109.934 312.722 110.226 312.245 110.501L308.111 112.888L307.092 112.3L310.936 110.081C311.558 109.722 311.906 109.39 311.978 109.087C312.059 108.788 311.873 108.508 311.421 108.247C310.903 107.948 310.329 107.799 309.699 107.799C309.077 107.804 308.466 107.979 307.868 108.324L304.037 110.536L303.018 109.948ZM314.593 113.816C315.174 113.48 315.724 113.266 316.241 113.172C316.775 113.079 317.381 113.079 318.06 113.172C318.569 113.242 318.977 113.282 319.285 113.291C319.6 113.296 319.867 113.268 320.085 113.207C320.311 113.142 320.546 113.039 320.788 112.899C321.208 112.657 321.419 112.377 321.419 112.059C321.419 111.742 321.172 111.441 320.679 111.156C320.081 110.811 319.471 110.636 318.848 110.631C318.234 110.631 317.603 110.781 316.957 111.079L315.938 110.407C316.52 110.127 317.143 109.941 317.805 109.847C318.476 109.759 319.143 109.77 319.806 109.882C320.477 109.999 321.107 110.228 321.697 110.568C322.223 110.872 322.578 111.198 322.764 111.548C322.958 111.903 322.979 112.251 322.825 112.591C322.679 112.937 322.364 113.249 321.879 113.529C321.54 113.725 321.188 113.863 320.824 113.942C320.469 114.026 320.073 114.064 319.636 114.054C319.208 114.05 318.707 114.012 318.133 113.942C317.777 113.896 317.462 113.882 317.187 113.9C316.92 113.914 316.666 113.963 316.423 114.047C316.181 114.131 315.918 114.255 315.635 114.418L314.593 113.816ZM311.925 115.09L313.404 114.236L314.908 115.104L313.429 115.958L311.925 115.09Z" fill="black"/>
<path d="M355.654 133.337L363.033 129.076L360.424 127.57L361.462 126.97L362.809 127.748C363.164 127.953 363.501 128.088 363.819 128.153C364.146 128.223 364.469 128.22 364.787 128.145C365.114 128.074 365.465 127.931 365.839 127.715L366.821 128.282L356.86 134.033L355.654 133.337ZM352.511 131.522L353.69 130.842L360.424 134.73L359.245 135.41L352.511 131.522ZM363.196 136.039L374.28 134.176L375.346 134.856L364.263 136.719L363.196 136.039ZM364.066 138.453C363.346 138.037 362.93 137.554 362.817 137.003C362.715 136.457 362.911 135.88 363.407 135.269C363.902 134.659 364.683 134.046 365.75 133.431C366.825 132.81 367.892 132.356 368.948 132.07C370.005 131.784 371.006 131.67 371.951 131.73C372.914 131.789 373.756 132.027 374.476 132.443C375.206 132.864 375.617 133.35 375.711 133.901C375.814 134.446 375.617 135.024 375.121 135.634C374.626 136.244 373.84 136.86 372.764 137.481C371.698 138.096 370.637 138.547 369.58 138.833C368.523 139.12 367.522 139.233 366.577 139.174C365.633 139.114 364.796 138.874 364.066 138.453ZM365.245 137.772C365.712 138.042 366.273 138.177 366.928 138.177C367.592 138.183 368.312 138.064 369.089 137.821C369.884 137.578 370.688 137.222 371.502 136.752C372.334 136.271 372.956 135.804 373.368 135.35C373.798 134.897 374.008 134.478 373.999 134.095C373.999 133.717 373.765 133.393 373.298 133.123C372.839 132.858 372.278 132.723 371.614 132.718C370.95 132.713 370.22 132.831 369.425 133.074C368.649 133.317 367.845 133.679 367.012 134.16C366.199 134.63 365.577 135.091 365.146 135.545C364.735 135.998 364.534 136.417 364.543 136.8C364.552 137.184 364.786 137.508 365.245 137.772ZM371.609 140.896L382.692 139.033L383.758 139.713L372.675 141.576L371.609 140.896ZM372.478 143.31C371.758 142.894 371.342 142.411 371.23 141.86C371.127 141.314 371.323 140.737 371.819 140.126C372.315 139.516 373.096 138.903 374.162 138.288C375.238 137.667 376.304 137.213 377.361 136.927C378.418 136.641 379.418 136.527 380.363 136.587C381.326 136.646 382.168 136.884 382.888 137.299C383.618 137.721 384.029 138.207 384.123 138.757C384.226 139.303 384.029 139.881 383.534 140.491C383.038 141.101 382.252 141.717 381.177 142.338C380.111 142.953 379.049 143.404 377.992 143.69C376.935 143.977 375.934 144.09 374.99 144.031C374.045 143.971 373.208 143.731 372.478 143.31ZM373.657 142.629C374.125 142.899 374.686 143.034 375.34 143.034C376.005 143.04 376.725 142.921 377.501 142.678C378.296 142.435 379.1 142.078 379.914 141.609C380.747 141.128 381.368 140.661 381.78 140.207C382.21 139.754 382.421 139.335 382.411 138.952C382.411 138.574 382.178 138.25 381.71 137.98C381.252 137.715 380.69 137.58 380.026 137.575C379.362 137.569 378.633 137.688 377.838 137.931C377.061 138.174 376.257 138.536 375.425 139.017C374.611 139.486 373.989 139.948 373.559 140.402C373.147 140.855 372.946 141.274 372.955 141.657C372.965 142.041 373.199 142.365 373.657 142.629ZM384.202 143.89C383.64 143.566 383.374 143.169 383.402 142.699C383.439 142.224 383.856 141.757 384.651 141.298C385.455 140.833 386.264 140.593 387.078 140.577C387.891 140.561 388.579 140.714 389.14 141.038C389.701 141.362 389.968 141.759 389.94 142.229C389.912 142.699 389.496 143.166 388.691 143.63C387.896 144.089 387.087 144.33 386.264 144.351C385.45 144.368 384.763 144.214 384.202 143.89ZM385.072 143.387C385.38 143.566 385.764 143.625 386.222 143.566C386.69 143.512 387.176 143.339 387.681 143.047C388.186 142.756 388.485 142.475 388.579 142.205C388.682 141.94 388.579 141.719 388.27 141.541C387.962 141.362 387.573 141.3 387.106 141.354C386.648 141.414 386.166 141.589 385.661 141.881C385.156 142.172 384.852 142.451 384.749 142.715C384.655 142.985 384.763 143.209 385.072 143.387ZM377.594 146.004L393.531 143.703L394.598 144.319L378.66 146.619L377.594 146.004ZM383.051 149.284C382.49 148.96 382.223 148.563 382.252 148.094C382.289 147.618 382.705 147.151 383.5 146.692C384.305 146.228 385.114 145.988 385.927 145.971C386.741 145.955 387.428 146.109 387.99 146.433C388.551 146.757 388.817 147.154 388.789 147.624C388.761 148.094 388.345 148.561 387.541 149.025C386.746 149.484 385.937 149.724 385.114 149.746C384.3 149.762 383.612 149.608 383.051 149.284ZM383.921 148.782C384.23 148.96 384.613 149.02 385.072 148.96C385.539 148.906 386.026 148.733 386.531 148.442C387.036 148.15 387.335 147.869 387.428 147.599C387.531 147.335 387.428 147.113 387.12 146.935C386.811 146.757 386.423 146.695 385.955 146.749C385.497 146.808 385.015 146.984 384.51 147.275C384.005 147.567 383.701 147.845 383.598 148.11C383.505 148.38 383.612 148.604 383.921 148.782Z" fill="#FF8480"/>
<path d="M335.219 139.754C334.556 139.372 334.17 138.947 334.061 138.479C333.952 138.011 334.1 137.52 334.505 137.007C334.918 136.499 335.569 135.988 336.458 135.475C337.354 134.957 338.243 134.579 339.123 134.341C340.012 134.107 340.862 134.021 341.672 134.084C342.491 134.143 343.231 134.363 343.894 134.746C344.626 135.169 345.008 135.668 345.039 136.244C345.078 136.816 344.755 137.399 344.069 137.993L342.923 137.412C343.391 136.989 343.613 136.595 343.59 136.231C343.574 135.871 343.348 135.565 342.911 135.313C342.467 135.056 341.961 134.917 341.392 134.894C340.838 134.872 340.23 134.962 339.568 135.164C338.913 135.362 338.227 135.668 337.51 136.082C336.801 136.492 336.275 136.886 335.932 137.264C335.589 137.642 335.433 137.993 335.464 138.317C335.511 138.641 335.756 138.931 336.201 139.187C336.684 139.466 337.261 139.606 337.931 139.606C338.601 139.606 339.326 139.448 340.106 139.133L341.111 139.781C340.051 140.222 338.999 140.443 337.954 140.443C336.918 140.438 336.006 140.209 335.219 139.754ZM340.054 142.33L348.355 137.538L349.337 138.105L345.865 140.11L345.771 140.029C346.192 139.876 346.605 139.79 347.011 139.772C347.416 139.754 347.806 139.795 348.18 139.894C348.562 139.988 348.912 140.128 349.232 140.312C349.676 140.569 349.949 140.843 350.05 141.136C350.167 141.428 350.124 141.723 349.922 142.02C349.735 142.317 349.411 142.598 348.951 142.864L344.965 145.165L343.982 144.598L347.689 142.459C348.289 142.112 348.624 141.793 348.694 141.5C348.772 141.212 348.593 140.942 348.156 140.69C347.657 140.402 347.104 140.258 346.496 140.258C345.896 140.263 345.307 140.431 344.731 140.764L341.036 142.897L340.054 142.33ZM348.444 147.336C348.054 147.111 347.774 146.868 347.602 146.607C347.431 146.346 347.38 146.092 347.45 145.844C347.528 145.592 347.735 145.37 348.07 145.176C348.6 144.87 349.165 144.724 349.765 144.737C350.381 144.751 351.094 144.915 351.905 145.23L354.407 146.189C354.937 145.883 355.209 145.586 355.225 145.298C355.248 145.014 355.038 144.744 354.594 144.488C354.165 144.24 353.732 144.103 353.296 144.076C352.867 144.044 352.427 144.105 351.975 144.258L351.016 143.61C351.718 143.34 352.466 143.228 353.261 143.273C354.071 143.318 354.827 143.543 355.529 143.948C356.277 144.38 356.632 144.845 356.593 145.345C356.562 145.84 356.152 146.315 355.365 146.769L352.793 148.254C352.653 148.335 352.587 148.409 352.594 148.477C352.602 148.544 352.668 148.614 352.793 148.686L353.191 148.916L352.326 149.415C352.271 149.393 352.193 149.352 352.092 149.294C351.983 149.24 351.881 149.186 351.788 149.132C351.523 148.979 351.34 148.823 351.238 148.666C351.145 148.513 351.145 148.355 351.238 148.193C351.34 148.027 351.538 147.854 351.834 147.674L352.022 147.782C351.702 147.903 351.328 147.966 350.899 147.971C350.486 147.975 350.061 147.923 349.625 147.815C349.196 147.703 348.803 147.543 348.444 147.336ZM349.403 146.891C349.824 147.134 350.244 147.296 350.665 147.377C351.094 147.453 351.507 147.458 351.905 147.39C352.31 147.318 352.684 147.183 353.027 146.985L353.565 146.675L351.297 145.797C350.798 145.599 350.385 145.5 350.057 145.5C349.738 145.496 349.449 145.568 349.192 145.716C348.904 145.883 348.775 146.069 348.806 146.276C348.853 146.483 349.052 146.688 349.403 146.891ZM353.888 150.317L360.084 146.74L360.984 147.259L359.441 148.191L359.429 148.063C359.874 147.896 360.314 147.804 360.75 147.786C361.202 147.768 361.631 147.808 362.036 147.907C362.442 148.006 362.804 148.148 363.124 148.333C363.599 148.607 363.888 148.895 363.989 149.197C364.098 149.503 364.055 149.806 363.86 150.108C363.673 150.405 363.361 150.679 362.925 150.931L358.938 153.233L357.956 152.666L361.662 150.526C362.239 150.193 362.563 149.876 362.633 149.575C362.711 149.269 362.516 148.981 362.048 148.711C361.729 148.526 361.37 148.4 360.973 148.333C360.583 148.261 360.178 148.256 359.757 148.319C359.351 148.382 358.958 148.524 358.576 148.744L354.87 150.884L353.888 150.317ZM363.447 155.998C362.87 155.665 362.5 155.298 362.336 154.898C362.172 154.497 362.215 154.09 362.464 153.676C362.722 153.257 363.178 152.859 363.832 152.481C364.487 152.103 365.173 151.842 365.89 151.698C366.607 151.554 367.312 151.529 368.006 151.624C368.708 151.714 369.347 151.925 369.924 152.258C370.383 152.524 370.707 152.81 370.894 153.116C371.089 153.417 371.143 153.728 371.058 154.047C370.972 154.367 370.742 154.684 370.368 154.999L369.269 154.445C369.588 154.153 369.717 153.863 369.655 153.575C369.608 153.287 369.386 153.028 368.988 152.798C368.419 152.47 367.765 152.33 367.024 152.38C366.299 152.429 365.578 152.661 364.861 153.075C364.144 153.489 363.739 153.908 363.645 154.331C363.567 154.754 363.813 155.129 364.382 155.458C364.779 155.687 365.239 155.818 365.761 155.849C366.291 155.885 366.837 155.795 367.398 155.579L368.357 156.214C367.811 156.43 367.246 156.567 366.662 156.626C366.085 156.68 365.52 156.655 364.966 156.551C364.413 156.448 363.906 156.263 363.447 155.998ZM370.398 160.011C369.814 159.674 369.44 159.305 369.276 158.904C369.12 158.508 369.167 158.103 369.416 157.689C369.681 157.275 370.141 156.879 370.796 156.501C371.451 156.123 372.133 155.86 372.842 155.712C373.559 155.568 374.256 155.538 374.935 155.624C375.628 155.709 376.26 155.916 376.829 156.245C377.366 156.555 377.713 156.904 377.869 157.291C378.033 157.674 377.99 158.072 377.741 158.486C377.491 158.9 377.02 159.307 376.326 159.708L376.034 159.876L371.521 157.271C370.897 157.676 370.574 158.065 370.55 158.439C370.535 158.817 370.796 159.161 371.334 159.471C371.739 159.705 372.164 159.843 372.608 159.883C373.068 159.924 373.504 159.883 373.917 159.762L374.888 160.416C374.171 160.641 373.403 160.725 372.585 160.666C371.782 160.608 371.053 160.389 370.398 160.011ZM372.386 156.771L375.823 158.756C376.377 158.382 376.642 158.027 376.618 157.689C376.595 157.352 376.353 157.05 375.893 156.785C375.418 156.51 374.876 156.369 374.268 156.36C373.676 156.351 373.048 156.488 372.386 156.771Z" fill="black"/>
<rect width="13" height="32" rx="6.5" transform="matrix(0.866025 0.5 -0.866025 0.5 343.652 113.408)" fill="#FF8480"/>
<rect width="100" height="30" rx="5" transform="matrix(0.866025 0.5 -0.866025 0.5 104.789 81.5)" fill="#FF8480"/>
<rect width="100" height="30" rx="5" transform="matrix(0.866025 0.5 -0.866025 0.5 205.248 139.5)" fill="black"/>
<path d="M123.271 112.17L126.661 110.213L129.023 105.906L130.169 106.568L128.181 109.902L133.957 108.755L135.103 109.416L127.667 110.793L124.276 112.751L123.271 112.17ZM130.737 116.643C130.153 116.306 129.778 115.937 129.615 115.536C129.459 115.14 129.506 114.735 129.755 114.321C130.02 113.907 130.48 113.511 131.135 113.133C131.789 112.755 132.471 112.492 133.181 112.343C133.898 112.199 134.595 112.17 135.273 112.256C135.967 112.341 136.598 112.548 137.167 112.877C137.705 113.187 138.052 113.536 138.208 113.923C138.372 114.305 138.329 114.704 138.079 115.118C137.83 115.532 137.358 115.939 136.665 116.339L136.372 116.508L131.859 113.903C131.236 114.308 130.912 114.697 130.889 115.07C130.873 115.448 131.135 115.793 131.672 116.103C132.078 116.337 132.502 116.474 132.947 116.515C133.407 116.555 133.843 116.515 134.256 116.393L135.227 117.048C134.509 117.273 133.742 117.356 132.923 117.298C132.121 117.239 131.392 117.021 130.737 116.643ZM132.725 113.403L136.162 115.388C136.715 115.014 136.98 114.659 136.957 114.321C136.933 113.984 136.692 113.682 136.232 113.417C135.757 113.142 135.215 113 134.607 112.991C134.015 112.982 133.387 113.12 132.725 113.403ZM137.759 120.697C137.221 120.387 136.851 120.065 136.648 119.732C136.446 119.399 136.387 119.077 136.473 118.767C136.574 118.456 136.804 118.179 137.163 117.936L138.262 118.49C137.942 118.746 137.81 119.016 137.864 119.3C137.927 119.588 138.203 119.874 138.694 120.157C139.154 120.423 139.575 120.589 139.957 120.657C140.347 120.729 140.682 120.684 140.962 120.522C141.142 120.418 141.247 120.308 141.278 120.191C141.309 120.074 141.247 119.925 141.091 119.745C140.943 119.561 140.682 119.316 140.308 119.01C139.817 118.6 139.478 118.251 139.291 117.963C139.119 117.675 139.084 117.421 139.185 117.201C139.287 116.98 139.505 116.773 139.84 116.58C140.199 116.373 140.608 116.24 141.068 116.181C141.528 116.123 142.015 116.148 142.529 116.256C143.043 116.364 143.554 116.564 144.061 116.856C144.575 117.153 144.91 117.455 145.066 117.761C145.238 118.067 145.273 118.366 145.171 118.659C145.078 118.947 144.883 119.212 144.587 119.455L143.488 118.902C143.659 118.749 143.761 118.587 143.792 118.416C143.839 118.245 143.803 118.071 143.687 117.896C143.585 117.72 143.394 117.552 143.114 117.39C142.662 117.129 142.237 116.987 141.839 116.964C141.442 116.942 141.111 117.007 140.846 117.16C140.635 117.282 140.518 117.408 140.495 117.538C140.471 117.669 140.534 117.822 140.682 117.997C140.838 118.168 141.072 118.38 141.383 118.632C141.921 119.059 142.284 119.421 142.471 119.718C142.665 120.011 142.716 120.265 142.623 120.481C142.529 120.697 142.311 120.904 141.968 121.102C141.602 121.314 141.177 121.433 140.694 121.46C140.226 121.487 139.735 121.433 139.22 121.298C138.714 121.167 138.227 120.967 137.759 120.697Z" fill="white"/>
<path d="M225.037 170.925L233.338 166.133L234.764 166.956L230.555 172.788L237.71 168.657L238.716 169.238L230.415 174.03L228.989 173.207L233.198 167.375L226.042 171.506L225.037 170.925ZM234.596 176.606C234.027 176.278 233.661 175.913 233.497 175.513C233.341 175.117 233.388 174.712 233.637 174.298C233.894 173.879 234.35 173.481 235.005 173.103C235.668 172.72 236.357 172.457 237.075 172.313C237.792 172.169 238.493 172.142 239.179 172.232C239.873 172.327 240.504 172.538 241.073 172.867C241.642 173.195 242.004 173.557 242.16 173.953C242.324 174.354 242.281 174.761 242.032 175.175C241.782 175.589 241.326 175.987 240.664 176.37C240.009 176.748 239.319 177.011 238.594 177.16C237.877 177.304 237.172 177.328 236.478 177.234C235.792 177.144 235.165 176.935 234.596 176.606ZM235.531 176.066C236.1 176.395 236.743 176.532 237.46 176.478C238.193 176.424 238.918 176.19 239.635 175.776C240.352 175.362 240.753 174.946 240.839 174.527C240.94 174.109 240.707 173.735 240.138 173.407C239.569 173.078 238.918 172.941 238.185 172.995C237.468 173.049 236.751 173.283 236.034 173.697C235.317 174.111 234.908 174.527 234.806 174.946C234.721 175.364 234.962 175.738 235.531 176.066Z" fill="white"/>
<path d="M164.988 30.256L172.65 24.74L173.742 25.37L166.54 30.452L166.418 30.382L174.396 26.868L175.512 27.512L169.425 32.118L169.304 32.048L178.106 27.89L179.198 28.52L169.644 32.944L168.067 32.034L173.96 27.596L174.251 27.764L166.564 31.166L164.988 30.256ZM174.501 35.7483L180.927 32.0383L181.945 32.6263L175.519 36.3363L174.501 35.7483ZM171.918 34.2573L172.815 33.7393L178.635 37.0993L177.738 37.6173L171.918 34.2573ZM177.568 31.1353L178.465 30.6173L181.945 32.6263L181.048 33.1443L177.568 31.1353ZM181.836 31.4013L183.024 30.7153L184.091 31.3313L182.903 32.0173L181.836 31.4013ZM181.528 39.8055L188.415 35.8295C188.673 35.6802 188.803 35.5215 188.803 35.3535C188.803 35.1855 188.673 35.0269 188.415 34.8775L186.899 34.0025L187.796 33.4845L189.36 34.3875C189.95 34.7282 190.241 35.0735 190.233 35.4235C190.241 35.7735 189.95 36.1189 189.36 36.4595L182.547 40.3935L181.528 39.8055ZM178.946 38.3145L179.843 37.7965L185.662 41.1565L184.765 41.6745L178.946 38.3145ZM188.798 44.0028L195.685 40.0268C195.943 39.8775 196.073 39.7188 196.073 39.5508C196.073 39.3828 195.943 39.2241 195.685 39.0748L194.169 38.1998L195.066 37.6818L196.63 38.5848C197.22 38.9255 197.511 39.2708 197.503 39.6208C197.511 39.9708 197.22 40.3161 196.63 40.6568L189.816 44.5908L188.798 44.0028ZM186.215 42.5118L187.113 41.9938L192.932 45.3538L192.035 45.8718L186.215 42.5118ZM200.998 51.0463L202.016 50.4583L204.162 51.6973L210.734 47.9033L208.588 46.6643L209.606 46.0763L214.941 49.1563L213.922 49.7443L211.776 48.5053L205.205 52.2993L207.351 53.5383L206.332 54.1263L200.998 51.0463ZM216.204 62.0939C215.744 61.8279 215.404 61.5432 215.186 61.2399C214.968 60.9365 214.875 60.6309 214.907 60.3229C214.939 60.0149 215.097 59.7279 215.38 59.4619L216.52 60.0359C216.317 60.2645 216.253 60.4979 216.326 60.7359C216.398 60.9832 216.681 61.2492 217.174 61.5339C217.756 61.8699 218.318 62.0589 218.86 62.1009C219.409 62.1475 219.918 62.0355 220.387 61.7649L221.43 61.1629C220.937 61.2702 220.42 61.2842 219.878 61.2049C219.336 61.1255 218.855 60.9645 218.435 60.7219C217.894 60.4092 217.542 60.0522 217.38 59.6509C217.227 59.2542 217.263 58.8505 217.489 58.4399C217.724 58.0339 218.144 57.6559 218.75 57.3059C219.365 56.9512 220.019 56.7085 220.715 56.5779C221.418 56.4425 222.109 56.4169 222.788 56.5009C223.475 56.5895 224.085 56.7879 224.619 57.0959C225.071 57.3572 225.37 57.6512 225.516 57.9779C225.669 58.3092 225.641 58.6195 225.431 58.9089L226.449 58.3209L227.419 58.8809L221.43 62.3389C220.929 62.6282 220.387 62.8102 219.805 62.8849C219.215 62.9642 218.617 62.9362 218.011 62.8009C217.397 62.6702 216.794 62.4345 216.204 62.0939ZM219.454 60.1899C220.003 60.5072 220.634 60.6519 221.345 60.6239C222.064 60.5912 222.76 60.3859 223.43 60.0079C223.883 59.7559 224.19 59.4945 224.352 59.2239C224.53 58.9532 224.562 58.6872 224.449 58.4259C224.352 58.1645 224.117 57.9265 223.746 57.7119C223.18 57.3852 222.545 57.2429 221.842 57.2849C221.155 57.3269 220.48 57.5392 219.817 57.9219C219.155 58.3045 218.787 58.6989 218.714 59.1049C218.657 59.5109 218.904 59.8725 219.454 60.1899ZM224.481 64.7721C224.076 64.5388 223.785 64.2868 223.608 64.0161C223.43 63.7455 223.377 63.4818 223.45 63.2251C223.531 62.9638 223.745 62.7328 224.093 62.5321C224.642 62.2148 225.228 62.0631 225.851 62.0771C226.489 62.0911 227.229 62.2615 228.069 62.5881L230.664 63.5821C231.214 63.2648 231.496 62.9568 231.513 62.6581C231.537 62.3641 231.319 62.0841 230.858 61.8181C230.413 61.5615 229.965 61.4191 229.512 61.3911C229.068 61.3585 228.611 61.4215 228.142 61.5801L227.148 60.9081C227.875 60.6281 228.651 60.5115 229.476 60.5581C230.316 60.6048 231.1 60.8381 231.828 61.2581C232.604 61.7061 232.972 62.1891 232.931 62.7071C232.899 63.2205 232.474 63.7128 231.658 64.1841L228.991 65.7241C228.845 65.8081 228.777 65.8851 228.785 65.9551C228.793 66.0251 228.861 66.0975 228.991 66.1721L229.403 66.4101L228.506 66.9281C228.449 66.9048 228.368 66.8628 228.263 66.8021C228.15 66.7461 228.045 66.6901 227.948 66.6341C227.673 66.4755 227.483 66.3145 227.378 66.1511C227.281 65.9925 227.281 65.8291 227.378 65.6611C227.483 65.4885 227.689 65.3088 227.997 65.1221L228.191 65.2341C227.859 65.3601 227.471 65.4255 227.027 65.4301C226.598 65.4348 226.158 65.3811 225.705 65.2691C225.261 65.1525 224.852 64.9868 224.481 64.7721ZM225.475 64.3101C225.911 64.5621 226.348 64.7301 226.784 64.8141C227.229 64.8935 227.657 64.8981 228.069 64.8281C228.49 64.7535 228.878 64.6135 229.233 64.4081L229.791 64.0861L227.439 63.1761C226.922 62.9708 226.493 62.8681 226.154 62.8681C225.822 62.8635 225.523 62.9381 225.256 63.0921C224.957 63.2648 224.824 63.4585 224.856 63.6731C224.905 63.8878 225.111 64.1001 225.475 64.3101ZM232.66 69.3264L239.086 65.6164L240.104 66.2044L233.678 69.9144L232.66 69.3264ZM230.077 67.8354L230.974 67.3174L236.794 70.6774L235.897 71.1954L230.077 67.8354ZM235.727 64.7134L236.624 64.1954L240.104 66.2044L239.207 66.7224L235.727 64.7134ZM239.995 64.9794L241.183 64.2934L242.25 64.9094L241.062 65.5954L239.995 64.9794ZM237.396 72.0607L243.822 68.3507L244.755 68.8897L243.155 69.8557L243.143 69.7227C243.603 69.55 244.06 69.4543 244.513 69.4357C244.981 69.417 245.426 69.459 245.846 69.5617C246.267 69.6643 246.642 69.8113 246.974 70.0027C247.467 70.2873 247.766 70.586 247.871 70.8987C247.984 71.216 247.94 71.531 247.738 71.8437C247.544 72.1517 247.22 72.4363 246.768 72.6977L242.633 75.0847L241.615 74.4967L245.458 72.2777C246.056 71.9323 246.392 71.6033 246.465 71.2907C246.545 70.9733 246.343 70.6747 245.858 70.3947C245.527 70.2033 245.155 70.0727 244.743 70.0027C244.339 69.928 243.918 69.9233 243.482 69.9887C243.062 70.054 242.654 70.201 242.257 70.4297L238.414 72.6487L237.396 72.0607ZM251.766 80.3572L260.374 75.3872L261.853 76.2412L257.488 82.2892L264.908 78.0052L265.951 78.6072L257.343 83.5772L255.864 82.7232L260.228 76.6752L252.808 80.9592L251.766 80.3572ZM261.788 86.3115C261.181 85.9615 260.794 85.5788 260.624 85.1635C260.462 84.7528 260.511 84.3328 260.769 83.9035C261.044 83.4741 261.521 83.0635 262.2 82.6715C262.879 82.2795 263.586 82.0065 264.322 81.8525C265.065 81.7031 265.789 81.6728 266.492 81.7615C267.211 81.8501 267.866 82.0648 268.456 82.4055C269.014 82.7275 269.374 83.0891 269.535 83.4905C269.705 83.8871 269.66 84.3001 269.402 84.7295C269.143 85.1588 268.654 85.5811 267.935 85.9965L267.632 86.1715L262.952 83.4695C262.305 83.8895 261.97 84.2931 261.945 84.6805C261.929 85.0725 262.2 85.4295 262.758 85.7515C263.178 85.9941 263.618 86.1365 264.079 86.1785C264.556 86.2205 265.009 86.1785 265.437 86.0525L266.443 86.7315C265.7 86.9648 264.904 87.0511 264.055 86.9905C263.222 86.9298 262.467 86.7035 261.788 86.3115ZM263.849 82.9515L267.413 85.0095C267.987 84.6221 268.262 84.2535 268.238 83.9035C268.214 83.5535 267.963 83.2408 267.486 82.9655C266.993 82.6808 266.431 82.5338 265.801 82.5245C265.187 82.5151 264.536 82.6575 263.849 82.9515ZM270.04 90.9077C269.417 90.5484 269.098 90.1961 269.082 89.8507C269.066 89.5054 269.357 89.1601 269.955 88.8147L276.114 85.2587L277.132 85.8467L270.973 89.4027C270.674 89.5754 270.521 89.7434 270.513 89.9067C270.513 90.0654 270.654 90.2264 270.937 90.3897L272.659 91.3837L271.761 91.9017L270.04 90.9077ZM271.592 85.4197L272.489 84.9017L278.187 88.1917L277.29 88.7097L271.592 85.4197ZM274.036 93.215L281.699 87.699L282.79 88.329L275.588 93.411L275.467 93.341L283.444 89.827L284.56 90.471L278.473 95.077L278.352 95.007L287.155 90.849L288.246 91.479L278.692 95.903L277.116 94.993L283.008 90.555L283.299 90.723L275.612 94.125L274.036 93.215ZM283.488 98.8403C282.898 98.4996 282.518 98.1216 282.349 97.7063C282.187 97.2956 282.235 96.8756 282.494 96.4463C282.761 96.0123 283.234 95.5993 283.913 95.2073C284.6 94.8106 285.315 94.5376 286.059 94.3883C286.802 94.2389 287.53 94.2109 288.241 94.3043C288.96 94.4023 289.615 94.6216 290.205 94.9623C290.795 95.3029 291.171 95.6786 291.333 96.0893C291.502 96.5046 291.458 96.9269 291.199 97.3563C290.941 97.7856 290.468 98.1986 289.781 98.5953C289.102 98.9873 288.386 99.2603 287.635 99.4143C286.891 99.5636 286.16 99.5893 285.44 99.4913C284.729 99.3979 284.078 99.1809 283.488 98.8403ZM284.458 98.2803C285.048 98.6209 285.715 98.7633 286.459 98.7073C287.218 98.6513 287.97 98.4086 288.714 97.9793C289.457 97.5499 289.874 97.1183 289.963 96.6843C290.068 96.2503 289.825 95.8629 289.235 95.5223C288.645 95.1816 287.97 95.0393 287.21 95.0953C286.467 95.1513 285.723 95.3939 284.98 95.8233C284.236 96.2526 283.812 96.6843 283.706 97.1183C283.618 97.5523 283.868 97.9396 284.458 98.2803ZM290.031 102.45L296.457 98.7395L297.305 99.2295L295.778 100.224L295.705 100.154C296.335 99.8828 296.913 99.7498 297.439 99.7545C297.972 99.7638 298.465 99.8992 298.918 100.161L300.239 100.924L299.318 101.456L298.008 100.7C297.693 100.518 297.362 100.401 297.014 100.35C296.683 100.298 296.339 100.31 295.984 100.385C295.636 100.455 295.285 100.592 294.929 100.798L291.049 103.038L290.031 102.45ZM288.357 101.484L289.255 100.966L293.983 103.696L293.086 104.214L288.357 101.484ZM293.886 98.2915L294.783 97.7735L297.014 99.0615L296.117 99.5795L293.886 98.2915ZM299.119 107.697C298.497 107.337 298.178 106.985 298.161 106.64C298.145 106.294 298.436 105.949 299.034 105.604L305.193 102.048L306.212 102.636L300.053 106.192C299.754 106.364 299.6 106.532 299.592 106.696C299.592 106.854 299.733 107.015 300.016 107.179L301.738 108.173L300.841 108.691L299.119 107.697ZM300.671 102.209L301.568 101.691L307.267 104.981L306.37 105.499L300.671 102.209ZM303.018 109.948L311.627 104.978L312.645 105.566L309.044 107.645L308.947 107.561C309.384 107.402 309.812 107.314 310.232 107.295C310.653 107.276 311.057 107.318 311.445 107.421C311.841 107.519 312.205 107.664 312.536 107.855C312.997 108.121 313.28 108.406 313.385 108.709C313.506 109.012 313.462 109.318 313.251 109.626C313.057 109.934 312.722 110.226 312.245 110.501L308.111 112.888L307.092 112.3L310.936 110.081C311.558 109.722 311.906 109.39 311.978 109.087C312.059 108.788 311.873 108.508 311.421 108.247C310.903 107.948 310.329 107.799 309.699 107.799C309.077 107.804 308.466 107.979 307.868 108.324L304.037 110.536L303.018 109.948ZM314.593 113.816C315.174 113.48 315.724 113.266 316.241 113.172C316.775 113.079 317.381 113.079 318.06 113.172C318.569 113.242 318.977 113.282 319.285 113.291C319.6 113.296 319.867 113.268 320.085 113.207C320.311 113.142 320.546 113.039 320.788 112.899C321.208 112.657 321.419 112.377 321.419 112.059C321.419 111.742 321.172 111.441 320.679 111.156C320.081 110.811 319.471 110.636 318.848 110.631C318.234 110.631 317.603 110.781 316.957 111.079L315.938 110.407C316.52 110.127 317.143 109.941 317.805 109.847C318.476 109.759 319.143 109.77 319.806 109.882C320.477 109.999 321.107 110.228 321.697 110.568C322.223 110.872 322.578 111.198 322.764 111.548C322.958 111.903 322.979 112.251 322.825 112.591C322.679 112.937 322.364 113.249 321.879 113.529C321.54 113.725 321.188 113.863 320.824 113.942C320.469 114.026 320.073 114.064 319.636 114.054C319.208 114.05 318.707 114.012 318.133 113.942C317.777 113.896 317.462 113.882 317.187 113.9C316.92 113.914 316.666 113.963 316.423 114.047C316.181 114.131 315.918 114.255 315.635 114.418L314.593 113.816ZM311.925 115.09L313.404 114.236L314.908 115.104L313.429 115.958L311.925 115.09Z" fill="black"/>
<path d="M355.654 133.337L363.033 129.076L360.424 127.57L361.462 126.97L362.809 127.748C363.164 127.953 363.501 128.088 363.819 128.153C364.146 128.223 364.469 128.22 364.787 128.145C365.114 128.074 365.465 127.931 365.839 127.715L366.821 128.282L356.86 134.033L355.654 133.337ZM352.511 131.522L353.69 130.842L360.424 134.73L359.245 135.41L352.511 131.522ZM363.196 136.039L374.28 134.176L375.346 134.856L364.263 136.719L363.196 136.039ZM364.066 138.453C363.346 138.037 362.93 137.554 362.817 137.003C362.715 136.457 362.911 135.88 363.407 135.269C363.902 134.659 364.683 134.046 365.75 133.431C366.825 132.81 367.892 132.356 368.948 132.07C370.005 131.784 371.006 131.67 371.951 131.73C372.914 131.789 373.756 132.027 374.476 132.443C375.206 132.864 375.617 133.35 375.711 133.901C375.814 134.446 375.617 135.024 375.121 135.634C374.626 136.244 373.84 136.86 372.764 137.481C371.698 138.096 370.637 138.547 369.58 138.833C368.523 139.12 367.522 139.233 366.577 139.174C365.633 139.114 364.796 138.874 364.066 138.453ZM365.245 137.772C365.712 138.042 366.273 138.177 366.928 138.177C367.592 138.183 368.312 138.064 369.089 137.821C369.884 137.578 370.688 137.222 371.502 136.752C372.334 136.271 372.956 135.804 373.368 135.35C373.798 134.897 374.008 134.478 373.999 134.095C373.999 133.717 373.765 133.393 373.298 133.123C372.839 132.858 372.278 132.723 371.614 132.718C370.95 132.713 370.22 132.831 369.425 133.074C368.649 133.317 367.845 133.679 367.012 134.16C366.199 134.63 365.577 135.091 365.146 135.545C364.735 135.998 364.534 136.417 364.543 136.8C364.552 137.184 364.786 137.508 365.245 137.772ZM371.609 140.896L382.692 139.033L383.758 139.713L372.675 141.576L371.609 140.896ZM372.478 143.31C371.758 142.894 371.342 142.411 371.23 141.86C371.127 141.314 371.323 140.737 371.819 140.126C372.315 139.516 373.096 138.903 374.162 138.288C375.238 137.667 376.304 137.213 377.361 136.927C378.418 136.641 379.418 136.527 380.363 136.587C381.326 136.646 382.168 136.884 382.888 137.299C383.618 137.721 384.029 138.207 384.123 138.757C384.226 139.303 384.029 139.881 383.534 140.491C383.038 141.101 382.252 141.717 381.177 142.338C380.111 142.953 379.049 143.404 377.992 143.69C376.935 143.977 375.934 144.09 374.99 144.031C374.045 143.971 373.208 143.731 372.478 143.31ZM373.657 142.629C374.125 142.899 374.686 143.034 375.34 143.034C376.005 143.04 376.725 142.921 377.501 142.678C378.296 142.435 379.1 142.078 379.914 141.609C380.747 141.128 381.368 140.661 381.78 140.207C382.21 139.754 382.421 139.335 382.411 138.952C382.411 138.574 382.178 138.25 381.71 137.98C381.252 137.715 380.69 137.58 380.026 137.575C379.362 137.569 378.633 137.688 377.838 137.931C377.061 138.174 376.257 138.536 375.425 139.017C374.611 139.486 373.989 139.948 373.559 140.402C373.147 140.855 372.946 141.274 372.955 141.657C372.965 142.041 373.199 142.365 373.657 142.629ZM384.202 143.89C383.64 143.566 383.374 143.169 383.402 142.699C383.439 142.224 383.856 141.757 384.651 141.298C385.455 140.833 386.264 140.593 387.078 140.577C387.891 140.561 388.579 140.714 389.14 141.038C389.701 141.362 389.968 141.759 389.94 142.229C389.912 142.699 389.496 143.166 388.691 143.63C387.896 144.089 387.087 144.33 386.264 144.351C385.45 144.368 384.763 144.214 384.202 143.89ZM385.072 143.387C385.38 143.566 385.764 143.625 386.222 143.566C386.69 143.512 387.176 143.339 387.681 143.047C388.186 142.756 388.485 142.475 388.579 142.205C388.682 141.94 388.579 141.719 388.27 141.541C387.962 141.362 387.573 141.3 387.106 141.354C386.648 141.414 386.166 141.589 385.661 141.881C385.156 142.172 384.852 142.451 384.749 142.715C384.655 142.985 384.763 143.209 385.072 143.387ZM377.594 146.004L393.531 143.703L394.598 144.319L378.66 146.619L377.594 146.004ZM383.051 149.284C382.49 148.96 382.223 148.563 382.252 148.094C382.289 147.618 382.705 147.151 383.5 146.692C384.305 146.228 385.114 145.988 385.927 145.971C386.741 145.955 387.428 146.109 387.99 146.433C388.551 146.757 388.817 147.154 388.789 147.624C388.761 148.094 388.345 148.561 387.541 149.025C386.746 149.484 385.937 149.724 385.114 149.746C384.3 149.762 383.612 149.608 383.051 149.284ZM383.921 148.782C384.23 148.96 384.613 149.02 385.072 148.96C385.539 148.906 386.026 148.733 386.531 148.442C387.036 148.15 387.335 147.869 387.428 147.599C387.531 147.335 387.428 147.113 387.12 146.935C386.811 146.757 386.423 146.695 385.955 146.749C385.497 146.808 385.015 146.984 384.51 147.275C384.005 147.567 383.701 147.845 383.598 148.11C383.505 148.38 383.612 148.604 383.921 148.782Z" fill="#FF8480"/>
<path d="M335.219 139.754C334.556 139.372 334.17 138.947 334.061 138.479C333.952 138.011 334.1 137.52 334.505 137.007C334.918 136.499 335.569 135.988 336.458 135.475C337.354 134.957 338.243 134.579 339.123 134.341C340.012 134.107 340.862 134.021 341.672 134.084C342.491 134.143 343.231 134.363 343.894 134.746C344.626 135.169 345.008 135.668 345.039 136.244C345.078 136.816 344.755 137.399 344.069 137.993L342.923 137.412C343.391 136.989 343.613 136.595 343.59 136.231C343.574 135.871 343.348 135.565 342.911 135.313C342.467 135.056 341.961 134.917 341.392 134.894C340.838 134.872 340.23 134.962 339.568 135.164C338.913 135.362 338.227 135.668 337.51 136.082C336.801 136.492 336.275 136.886 335.932 137.264C335.589 137.642 335.433 137.993 335.464 138.317C335.511 138.641 335.756 138.931 336.201 139.187C336.684 139.466 337.261 139.606 337.931 139.606C338.601 139.606 339.326 139.448 340.106 139.133L341.111 139.781C340.051 140.222 338.999 140.443 337.954 140.443C336.918 140.438 336.006 140.209 335.219 139.754ZM340.054 142.33L348.355 137.538L349.337 138.105L345.865 140.11L345.771 140.029C346.192 139.876 346.605 139.79 347.011 139.772C347.416 139.754 347.806 139.795 348.18 139.894C348.562 139.988 348.912 140.128 349.232 140.312C349.676 140.569 349.949 140.843 350.05 141.136C350.167 141.428 350.124 141.723 349.922 142.02C349.735 142.317 349.411 142.598 348.951 142.864L344.965 145.165L343.982 144.598L347.689 142.459C348.289 142.112 348.624 141.793 348.694 141.5C348.772 141.212 348.593 140.942 348.156 140.69C347.657 140.402 347.104 140.258 346.496 140.258C345.896 140.263 345.307 140.431 344.731 140.764L341.036 142.897L340.054 142.33ZM348.444 147.336C348.054 147.111 347.774 146.868 347.602 146.607C347.431 146.346 347.38 146.092 347.45 145.844C347.528 145.592 347.735 145.37 348.07 145.176C348.6 144.87 349.165 144.724 349.765 144.737C350.381 144.751 351.094 144.915 351.905 145.23L354.407 146.189C354.937 145.883 355.209 145.586 355.225 145.298C355.248 145.014 355.038 144.744 354.594 144.488C354.165 144.24 353.732 144.103 353.296 144.076C352.867 144.044 352.427 144.105 351.975 144.258L351.016 143.61C351.718 143.34 352.466 143.228 353.261 143.273C354.071 143.318 354.827 143.543 355.529 143.948C356.277 144.38 356.632 144.845 356.593 145.345C356.562 145.84 356.152 146.315 355.365 146.769L352.793 148.254C352.653 148.335 352.587 148.409 352.594 148.477C352.602 148.544 352.668 148.614 352.793 148.686L353.191 148.916L352.326 149.415C352.271 149.393 352.193 149.352 352.092 149.294C351.983 149.24 351.881 149.186 351.788 149.132C351.523 148.979 351.34 148.823 351.238 148.666C351.145 148.513 351.145 148.355 351.238 148.193C351.34 148.027 351.538 147.854 351.834 147.674L352.022 147.782C351.702 147.903 351.328 147.966 350.899 147.971C350.486 147.975 350.061 147.923 349.625 147.815C349.196 147.703 348.803 147.543 348.444 147.336ZM349.403 146.891C349.824 147.134 350.244 147.296 350.665 147.377C351.094 147.453 351.507 147.458 351.905 147.39C352.31 147.318 352.684 147.183 353.027 146.985L353.565 146.675L351.297 145.797C350.798 145.599 350.385 145.5 350.057 145.5C349.738 145.496 349.449 145.568 349.192 145.716C348.904 145.883 348.775 146.069 348.806 146.276C348.853 146.483 349.052 146.688 349.403 146.891ZM353.888 150.317L360.084 146.74L360.984 147.259L359.441 148.191L359.429 148.063C359.874 147.896 360.314 147.804 360.75 147.786C361.202 147.768 361.631 147.808 362.036 147.907C362.442 148.006 362.804 148.148 363.124 148.333C363.599 148.607 363.888 148.895 363.989 149.197C364.098 149.503 364.055 149.806 363.86 150.108C363.673 150.405 363.361 150.679 362.925 150.931L358.938 153.233L357.956 152.666L361.662 150.526C362.239 150.193 362.563 149.876 362.633 149.575C362.711 149.269 362.516 148.981 362.048 148.711C361.729 148.526 361.37 148.4 360.973 148.333C360.583 148.261 360.178 148.256 359.757 148.319C359.351 148.382 358.958 148.524 358.576 148.744L354.87 150.884L353.888 150.317ZM363.447 155.998C362.87 155.665 362.5 155.298 362.336 154.898C362.172 154.497 362.215 154.09 362.464 153.676C362.722 153.257 363.178 152.859 363.832 152.481C364.487 152.103 365.173 151.842 365.89 151.698C366.607 151.554 367.312 151.529 368.006 151.624C368.708 151.714 369.347 151.925 369.924 152.258C370.383 152.524 370.707 152.81 370.894 153.116C371.089 153.417 371.143 153.728 371.058 154.047C370.972 154.367 370.742 154.684 370.368 154.999L369.269 154.445C369.588 154.153 369.717 153.863 369.655 153.575C369.608 153.287 369.386 153.028 368.988 152.798C368.419 152.47 367.765 152.33 367.024 152.38C366.299 152.429 365.578 152.661 364.861 153.075C364.144 153.489 363.739 153.908 363.645 154.331C363.567 154.754 363.813 155.129 364.382 155.458C364.779 155.687 365.239 155.818 365.761 155.849C366.291 155.885 366.837 155.795 367.398 155.579L368.357 156.214C367.811 156.43 367.246 156.567 366.662 156.626C366.085 156.68 365.52 156.655 364.966 156.551C364.413 156.448 363.906 156.263 363.447 155.998ZM370.398 160.011C369.814 159.674 369.44 159.305 369.276 158.904C369.12 158.508 369.167 158.103 369.416 157.689C369.681 157.275 370.141 156.879 370.796 156.501C371.451 156.123 372.133 155.86 372.842 155.712C373.559 155.568 374.256 155.538 374.935 155.624C375.628 155.709 376.26 155.916 376.829 156.245C377.366 156.555 377.713 156.904 377.869 157.291C378.033 157.674 377.99 158.072 377.741 158.486C377.491 158.9 377.02 159.307 376.326 159.708L376.034 159.876L371.521 157.271C370.897 157.676 370.574 158.065 370.55 158.439C370.535 158.817 370.796 159.161 371.334 159.471C371.739 159.705 372.164 159.843 372.608 159.883C373.068 159.924 373.504 159.883 373.917 159.762L374.888 160.416C374.171 160.641 373.403 160.725 372.585 160.666C371.782 160.608 371.053 160.389 370.398 160.011ZM372.386 156.771L375.823 158.756C376.377 158.382 376.642 158.027 376.618 157.689C376.595 157.352 376.353 157.05 375.893 156.785C375.418 156.51 374.876 156.369 374.268 156.36C373.676 156.351 373.048 156.488 372.386 156.771Z" fill="black"/>
<rect width="13" height="32" rx="6.5" transform="matrix(0.866025 0.5 -0.866025 0.5 343.652 113.408)" fill="#FF8480"/>
<rect width="100" height="30" rx="5" transform="matrix(0.866025 0.5 -0.866025 0.5 104.789 81.5)" fill="#FF8480"/>
<rect width="100" height="30" rx="5" transform="matrix(0.866025 0.5 -0.866025 0.5 205.248 139.5)" fill="black"/>
<path d="M123.271 112.17L126.661 110.213L129.023 105.906L130.169 106.568L128.181 109.902L133.957 108.755L135.103 109.416L127.667 110.793L124.276 112.751L123.271 112.17ZM130.737 116.643C130.153 116.306 129.778 115.937 129.615 115.536C129.459 115.14 129.506 114.735 129.755 114.321C130.02 113.907 130.48 113.511 131.135 113.133C131.789 112.755 132.471 112.492 133.181 112.343C133.898 112.199 134.595 112.17 135.273 112.256C135.967 112.341 136.598 112.548 137.167 112.877C137.705 113.187 138.052 113.536 138.208 113.923C138.372 114.305 138.329 114.704 138.079 115.118C137.83 115.532 137.358 115.939 136.665 116.339L136.372 116.508L131.859 113.903C131.236 114.308 130.912 114.697 130.889 115.07C130.873 115.448 131.135 115.793 131.672 116.103C132.078 116.337 132.502 116.474 132.947 116.515C133.407 116.555 133.843 116.515 134.256 116.393L135.227 117.048C134.509 117.273 133.742 117.356 132.923 117.298C132.121 117.239 131.392 117.021 130.737 116.643ZM132.725 113.403L136.162 115.388C136.715 115.014 136.98 114.659 136.957 114.321C136.933 113.984 136.692 113.682 136.232 113.417C135.757 113.142 135.215 113 134.607 112.991C134.015 112.982 133.387 113.12 132.725 113.403ZM137.759 120.697C137.221 120.387 136.851 120.065 136.648 119.732C136.446 119.399 136.387 119.077 136.473 118.767C136.574 118.456 136.804 118.179 137.163 117.936L138.262 118.49C137.942 118.746 137.81 119.016 137.864 119.3C137.927 119.588 138.203 119.874 138.694 120.157C139.154 120.423 139.575 120.589 139.957 120.657C140.347 120.729 140.682 120.684 140.962 120.522C141.142 120.418 141.247 120.308 141.278 120.191C141.309 120.074 141.247 119.925 141.091 119.745C140.943 119.561 140.682 119.316 140.308 119.01C139.817 118.6 139.478 118.251 139.291 117.963C139.119 117.675 139.084 117.421 139.185 117.201C139.287 116.98 139.505 116.773 139.84 116.58C140.199 116.373 140.608 116.24 141.068 116.181C141.528 116.123 142.015 116.148 142.529 116.256C143.043 116.364 143.554 116.564 144.061 116.856C144.575 117.153 144.91 117.455 145.066 117.761C145.238 118.067 145.273 118.366 145.171 118.659C145.078 118.947 144.883 119.212 144.587 119.455L143.488 118.902C143.659 118.749 143.761 118.587 143.792 118.416C143.839 118.245 143.803 118.071 143.687 117.896C143.585 117.72 143.394 117.552 143.114 117.39C142.662 117.129 142.237 116.987 141.839 116.964C141.442 116.942 141.111 117.007 140.846 117.16C140.635 117.282 140.518 117.408 140.495 117.538C140.471 117.669 140.534 117.822 140.682 117.997C140.838 118.168 141.072 118.38 141.383 118.632C141.921 119.059 142.284 119.421 142.471 119.718C142.665 120.011 142.716 120.265 142.623 120.481C142.529 120.697 142.311 120.904 141.968 121.102C141.602 121.314 141.177 121.433 140.694 121.46C140.226 121.487 139.735 121.433 139.22 121.298C138.714 121.167 138.227 120.967 137.759 120.697Z" fill="white"/>
<path d="M225.037 170.925L233.338 166.133L234.764 166.956L230.555 172.788L237.71 168.657L238.716 169.238L230.415 174.03L228.989 173.207L233.198 167.375L226.042 171.506L225.037 170.925ZM234.596 176.606C234.027 176.278 233.661 175.913 233.497 175.513C233.341 175.117 233.388 174.712 233.637 174.298C233.894 173.879 234.35 173.481 235.005 173.103C235.668 172.72 236.357 172.457 237.075 172.313C237.792 172.169 238.493 172.142 239.179 172.232C239.873 172.327 240.504 172.538 241.073 172.867C241.642 173.195 242.004 173.557 242.16 173.953C242.324 174.354 242.281 174.761 242.032 175.175C241.782 175.589 241.326 175.987 240.664 176.37C240.009 176.748 239.319 177.011 238.594 177.16C237.877 177.304 237.172 177.328 236.478 177.234C235.792 177.144 235.165 176.935 234.596 176.606ZM235.531 176.066C236.1 176.395 236.743 176.532 237.46 176.478C238.193 176.424 238.918 176.19 239.635 175.776C240.352 175.362 240.753 174.946 240.839 174.527C240.94 174.109 240.707 173.735 240.138 173.407C239.569 173.078 238.918 172.941 238.185 172.995C237.468 173.049 236.751 173.283 236.034 173.697C235.317 174.111 234.908 174.527 234.806 174.946C234.721 175.364 234.962 175.738 235.531 176.066Z" fill="white"/>
<defs>
<filter id="filter0_d_644_2387" x="11.2188" y="8.7868" width="410.575" height="240.426" filterUnits="userSpaceOnUse" color-interpolation-filters="sRGB">
<feFlood flood-opacity="0" result="BackgroundImageFix"/>
<feColorMatrix in="SourceAlpha" type="matrix" values="0 0 0 0 0 0 0 0 0 0 0 0 0 0 0 0 0 0 127 0" result="hardAlpha"/>
<feOffset dy="4"/>
<feGaussianBlur stdDeviation="2"/>
<feComposite in2="hardAlpha" operator="out"/>
<feColorMatrix type="matrix" values="0 0 0 0 0 0 0 0 0 0 0 0 0 0 0 0 0 0 0.5 0"/>
<feBlend mode="normal" in2="BackgroundImageFix" result="effect1_dropShadow_644_2387"/>
<feBlend mode="normal" in="SourceGraphic" in2="effect1_dropShadow_644_2387" result="shape"/>
</filter>
</defs>
</svg>
