<svg width="491" height="500" viewBox="0 0 491 500" fill="none" xmlns="http://www.w3.org/2000/svg">
<path d="M490.438 299.993C481.002 346.451 458.268 390.745 422.236 426.776C324.605 524.407 166.315 524.407 68.6836 426.776C32.6519 390.745 9.91941 346.451 0.483398 299.993H20.9307C30.0811 341.273 50.7116 380.521 82.8252 412.635C172.646 502.455 318.274 502.455 408.095 412.635C440.208 380.521 460.84 341.273 469.99 299.993H490.438ZM469.987 199.993C460.835 158.718 440.205 119.475 408.095 87.3652C318.274 -2.45535 172.646 -2.45535 82.8252 87.3652C50.7151 119.475 30.0855 158.718 20.9336 199.993H0.486328C9.92402 153.541 32.6555 109.252 68.6836 73.2236C166.315 -24.4074 324.605 -24.4074 422.236 73.2236C458.265 109.252 480.997 153.54 490.435 199.993H469.987Z" fill="#FFD700" fill-opacity="0.1"/>
<circle cx="245.484" cy="250" r="50" fill="#FFD700" fill-opacity="0.1"/>
<rect x="142.484" y="237" width="25" height="100" transform="rotate(90 142.484 237)" fill="#FFD700" fill-opacity="0.1"/>
<rect x="448.484" y="237" width="25" height="100" transform="rotate(90 448.484 237)" fill="#FFD700" fill-opacity="0.1"/>
</svg>
