<svg id="Chart" xmlns="http://www.w3.org/2000/svg" viewBox="0 0 2000 250"><defs><style>.cls-1,.cls-10,.cls-100,.cls-101,.cls-102,.cls-103,.cls-104,.cls-105,.cls-106,.cls-107,.cls-108,.cls-109,.cls-11,.cls-110,.cls-111,.cls-112,.cls-113,.cls-114,.cls-115,.cls-116,.cls-117,.cls-118,.cls-119,.cls-12,.cls-120,.cls-121,.cls-122,.cls-123,.cls-124,.cls-125,.cls-126,.cls-127,.cls-128,.cls-129,.cls-13,.cls-130,.cls-131,.cls-132,.cls-133,.cls-134,.cls-135,.cls-136,.cls-137,.cls-138,.cls-139,.cls-14,.cls-140,.cls-141,.cls-142,.cls-143,.cls-144,.cls-145,.cls-146,.cls-147,.cls-148,.cls-149,.cls-15,.cls-150,.cls-151,.cls-152,.cls-153,.cls-154,.cls-155,.cls-156,.cls-157,.cls-158,.cls-159,.cls-16,.cls-160,.cls-161,.cls-162,.cls-163,.cls-164,.cls-165,.cls-166,.cls-167,.cls-168,.cls-169,.cls-17,.cls-170,.cls-171,.cls-172,.cls-173,.cls-174,.cls-175,.cls-176,.cls-177,.cls-178,.cls-179,.cls-18,.cls-180,.cls-181,.cls-182,.cls-183,.cls-184,.cls-185,.cls-186,.cls-187,.cls-188,.cls-189,.cls-19,.cls-190,.cls-191,.cls-192,.cls-193,.cls-194,.cls-195,.cls-196,.cls-197,.cls-198,.cls-199,.cls-2,.cls-20,.cls-200,.cls-201,.cls-202,.cls-203,.cls-204,.cls-205,.cls-206,.cls-207,.cls-208,.cls-209,.cls-21,.cls-210,.cls-211,.cls-212,.cls-213,.cls-214,.cls-215,.cls-216,.cls-217,.cls-218,.cls-219,.cls-22,.cls-220,.cls-221,.cls-222,.cls-223,.cls-224,.cls-225,.cls-226,.cls-227,.cls-228,.cls-229,.cls-23,.cls-230,.cls-231,.cls-232,.cls-233,.cls-234,.cls-235,.cls-236,.cls-237,.cls-238,.cls-239,.cls-24,.cls-240,.cls-241,.cls-242,.cls-243,.cls-244,.cls-245,.cls-246,.cls-247,.cls-248,.cls-249,.cls-25,.cls-250,.cls-251,.cls-252,.cls-253,.cls-254,.cls-255,.cls-256,.cls-257,.cls-258,.cls-259,.cls-26,.cls-260,.cls-261,.cls-27,.cls-28,.cls-29,.cls-3,.cls-30,.cls-31,.cls-32,.cls-33,.cls-34,.cls-35,.cls-36,.cls-37,.cls-38,.cls-39,.cls-4,.cls-40,.cls-41,.cls-42,.cls-43,.cls-44,.cls-45,.cls-46,.cls-47,.cls-48,.cls-49,.cls-5,.cls-50,.cls-51,.cls-52,.cls-53,.cls-54,.cls-55,.cls-56,.cls-57,.cls-58,.cls-59,.cls-6,.cls-60,.cls-61,.cls-62,.cls-63,.cls-64,.cls-65,.cls-66,.cls-67,.cls-68,.cls-69,.cls-7,.cls-70,.cls-71,.cls-72,.cls-73,.cls-74,.cls-75,.cls-76,.cls-77,.cls-78,.cls-79,.cls-8,.cls-80,.cls-81,.cls-82,.cls-83,.cls-84,.cls-85,.cls-86,.cls-87,.cls-88,.cls-89,.cls-9,.cls-90,.cls-91,.cls-92,.cls-93,.cls-94,.cls-95,.cls-96,.cls-97,.cls-98,.cls-99{fill:none;stroke-linecap:round;stroke-miterlimit:10;}.cls-1,.cls-10,.cls-100,.cls-101,.cls-102,.cls-103,.cls-104,.cls-105,.cls-106,.cls-107,.cls-108,.cls-109,.cls-11,.cls-110,.cls-111,.cls-112,.cls-113,.cls-114,.cls-115,.cls-116,.cls-117,.cls-118,.cls-119,.cls-12,.cls-120,.cls-121,.cls-122,.cls-123,.cls-124,.cls-125,.cls-126,.cls-127,.cls-128,.cls-129,.cls-13,.cls-130,.cls-131,.cls-132,.cls-133,.cls-134,.cls-135,.cls-136,.cls-137,.cls-138,.cls-139,.cls-14,.cls-140,.cls-141,.cls-142,.cls-143,.cls-144,.cls-145,.cls-146,.cls-147,.cls-148,.cls-149,.cls-15,.cls-150,.cls-151,.cls-152,.cls-153,.cls-154,.cls-155,.cls-156,.cls-157,.cls-158,.cls-159,.cls-16,.cls-160,.cls-161,.cls-162,.cls-163,.cls-164,.cls-165,.cls-166,.cls-167,.cls-168,.cls-169,.cls-17,.cls-170,.cls-171,.cls-172,.cls-173,.cls-174,.cls-175,.cls-176,.cls-177,.cls-178,.cls-179,.cls-18,.cls-180,.cls-181,.cls-182,.cls-183,.cls-184,.cls-185,.cls-186,.cls-187,.cls-188,.cls-189,.cls-19,.cls-190,.cls-191,.cls-192,.cls-193,.cls-194,.cls-195,.cls-196,.cls-197,.cls-198,.cls-199,.cls-2,.cls-20,.cls-200,.cls-201,.cls-202,.cls-203,.cls-204,.cls-205,.cls-206,.cls-207,.cls-208,.cls-209,.cls-21,.cls-210,.cls-211,.cls-212,.cls-213,.cls-214,.cls-215,.cls-216,.cls-217,.cls-218,.cls-219,.cls-22,.cls-220,.cls-221,.cls-222,.cls-223,.cls-224,.cls-225,.cls-226,.cls-227,.cls-228,.cls-229,.cls-23,.cls-230,.cls-231,.cls-232,.cls-233,.cls-234,.cls-235,.cls-236,.cls-237,.cls-238,.cls-239,.cls-24,.cls-240,.cls-241,.cls-242,.cls-243,.cls-244,.cls-245,.cls-246,.cls-247,.cls-248,.cls-249,.cls-25,.cls-250,.cls-251,.cls-252,.cls-253,.cls-254,.cls-255,.cls-256,.cls-257,.cls-258,.cls-259,.cls-26,.cls-260,.cls-27,.cls-28,.cls-29,.cls-3,.cls-30,.cls-31,.cls-32,.cls-33,.cls-34,.cls-35,.cls-36,.cls-37,.cls-38,.cls-39,.cls-4,.cls-40,.cls-41,.cls-42,.cls-43,.cls-44,.cls-45,.cls-46,.cls-47,.cls-48,.cls-49,.cls-5,.cls-50,.cls-51,.cls-52,.cls-53,.cls-54,.cls-55,.cls-56,.cls-57,.cls-58,.cls-59,.cls-6,.cls-60,.cls-61,.cls-62,.cls-63,.cls-64,.cls-65,.cls-66,.cls-67,.cls-68,.cls-69,.cls-7,.cls-70,.cls-71,.cls-72,.cls-73,.cls-74,.cls-75,.cls-76,.cls-77,.cls-78,.cls-79,.cls-8,.cls-80,.cls-81,.cls-82,.cls-83,.cls-84,.cls-85,.cls-86,.cls-87,.cls-88,.cls-89,.cls-9,.cls-90,.cls-91,.cls-92,.cls-93,.cls-94,.cls-95,.cls-96,.cls-97,.cls-98,.cls-99{stroke:#fff;stroke-width:1.39px;}.cls-1{opacity:0.2;}.cls-2{opacity:0.95;}.cls-3{opacity:0.64;}.cls-4{opacity:0.68;}.cls-5{opacity:1;}.cls-6{opacity:0.84;}.cls-7{opacity:0.89;}.cls-8{opacity:0.91;}.cls-9{opacity:0.81;}.cls-10{opacity:0.54;}.cls-11{opacity:0.58;}.cls-12{opacity:0.94;}.cls-13{opacity:0.99;}.cls-14{opacity:0.53;}.cls-15{opacity:0.21;}.cls-16{opacity:0.19;}.cls-17{opacity:0.22;}.cls-18{opacity:0.22;}.cls-19{opacity:0.18;}.cls-20{opacity:0.64;}.cls-21{opacity:0.55;}.cls-22{opacity:0.87;}.cls-23{opacity:0.37;}.cls-24{opacity:0.87;}.cls-25{opacity:0.8;}.cls-26{opacity:0.93;}.cls-27{opacity:0.14;}.cls-28{opacity:0.95;}.cls-29{opacity:0.51;}.cls-30{opacity:0.16;}.cls-31{opacity:0.79;}.cls-32{opacity:0.94;}.cls-33{opacity:0.8;}.cls-34{opacity:0.48;}.cls-35{opacity:0.46;}.cls-36{opacity:0.79;}.cls-37{opacity:0.94;}.cls-38{opacity:0.75;}.cls-39{opacity:0.27;}.cls-40{opacity:0.31;}.cls-41{opacity:0.16;}.cls-42{opacity:0.47;}.cls-43{opacity:0.81;}.cls-44{opacity:0.51;}.cls-45{opacity:0.96;}.cls-46{opacity:0.96;}.cls-47{opacity:0.85;}.cls-48{opacity:0.16;}.cls-49{opacity:0.45;}.cls-50{opacity:0.38;}.cls-51{opacity:0.5;}.cls-52{opacity:0.58;}.cls-53{opacity:0.91;}.cls-54{opacity:0.37;}.cls-55{opacity:0.55;}.cls-56{opacity:0.37;}.cls-57{opacity:0.81;}.cls-58{opacity:0.32;}.cls-59{opacity:0.46;}.cls-60{opacity:0.22;}.cls-61{opacity:0.61;}.cls-62{opacity:0.76;}.cls-63{opacity:0.25;}.cls-64{opacity:0.1;}.cls-65{opacity:0.29;}.cls-66{opacity:0.2;}.cls-67{opacity:0.83;}.cls-68{opacity:0.89;}.cls-69{opacity:0.76;}.cls-70{opacity:0.59;}.cls-71{opacity:0.21;}.cls-72{opacity:0.59;}.cls-73{opacity:0.42;}.cls-74{opacity:0.82;}.cls-75{opacity:0.24;}.cls-76{opacity:0.34;}.cls-77{opacity:0.63;}.cls-78{opacity:0.7;}.cls-79{opacity:0.69;}.cls-80{opacity:0.73;}.cls-81{opacity:0.26;}.cls-82{opacity:0.35;}.cls-83{opacity:0.33;}.cls-84{opacity:0.89;}.cls-85{opacity:0.76;}.cls-86{opacity:0.56;}.cls-87{opacity:0.51;}.cls-88{opacity:0.92;}.cls-89{opacity:0.21;}.cls-90{opacity:0.72;}.cls-91{opacity:0.7;}.cls-92{opacity:0.55;}.cls-93{opacity:0.53;}.cls-94{opacity:0.88;}.cls-95{opacity:0.27;}.cls-96{opacity:0.19;}.cls-97{opacity:0.13;}.cls-98{opacity:0.3;}.cls-99{opacity:0.93;}.cls-100{opacity:0.95;}.cls-101{opacity:0.77;}.cls-102{opacity:0.26;}.cls-103{opacity:0.52;}.cls-104{opacity:0.32;}.cls-105{opacity:0.75;}.cls-106{opacity:0.29;}.cls-107{opacity:0.16;}.cls-108{opacity:0.97;}.cls-109{opacity:0.4;}.cls-110{opacity:0.17;}.cls-111{opacity:0.24;}.cls-112{opacity:0.84;}.cls-113{opacity:0.6;}.cls-114{opacity:0.67;}.cls-115{opacity:0.34;}.cls-116{opacity:0.2;}.cls-117{opacity:0.9;}.cls-118{opacity:0.97;}.cls-119{opacity:0.37;}.cls-120{opacity:0.35;}.cls-121{opacity:0.63;}.cls-122{opacity:0.45;}.cls-123{opacity:0.86;}.cls-124{opacity:0.23;}.cls-125{opacity:0.95;}.cls-126{opacity:0.17;}.cls-127{opacity:0.2;}.cls-128{opacity:0.83;}.cls-129{opacity:0.65;}.cls-130{opacity:0.9;}.cls-131{opacity:0.45;}.cls-132{opacity:0.7;}.cls-133{opacity:0.94;}.cls-134{opacity:0.54;}.cls-135{opacity:0.5;}.cls-136{opacity:0.26;}.cls-137{opacity:0.85;}.cls-138{opacity:0.25;}.cls-139{opacity:0.41;}.cls-140{opacity:0.13;}.cls-141{opacity:0.64;}.cls-142{opacity:0.83;}.cls-143{opacity:0.76;}.cls-144{opacity:0.39;}.cls-145{opacity:0.41;}.cls-146{opacity:0.91;}.cls-147{opacity:0.96;}.cls-148{opacity:0.14;}.cls-149{opacity:0.94;}.cls-150{opacity:0.93;}.cls-151{opacity:0.92;}.cls-152{opacity:0.15;}.cls-153{opacity:0.5;}.cls-154{opacity:0.16;}.cls-155{opacity:0.38;}.cls-156{opacity:0.15;}.cls-157{opacity:0.52;}.cls-158{opacity:0.25;}.cls-159{opacity:0.72;}.cls-160{opacity:0.86;}.cls-161{opacity:0.95;}.cls-162{opacity:0.68;}.cls-163{opacity:0.19;}.cls-164{opacity:0.18;}.cls-165{opacity:0.66;}.cls-166{opacity:0.52;}.cls-167{opacity:0.43;}.cls-168{opacity:0.78;}.cls-169{opacity:0.95;}.cls-170{opacity:0.76;}.cls-171{opacity:0.82;}.cls-172{opacity:0.24;}.cls-173{opacity:0.58;}.cls-174{opacity:0.15;}.cls-175{opacity:0.72;}.cls-176{opacity:0.62;}.cls-177{opacity:0.99;}.cls-178{opacity:0.39;}.cls-179{opacity:0.88;}.cls-180{opacity:0.59;}.cls-181{opacity:0.6;}.cls-182{opacity:0.38;}.cls-183{opacity:0.42;}.cls-184{opacity:0.72;}.cls-185{opacity:0.64;}.cls-186{opacity:0.61;}.cls-187{opacity:0.26;}.cls-188{opacity:0.56;}.cls-189{opacity:0.26;}.cls-190{opacity:0.44;}.cls-191{opacity:0.96;}.cls-192{opacity:0.66;}.cls-193{opacity:0.77;}.cls-194{opacity:0.93;}.cls-195{opacity:0.51;}.cls-196{opacity:0.18;}.cls-197{opacity:0.96;}.cls-198{opacity:0.84;}.cls-199{opacity:0.11;}.cls-200{opacity:0.82;}.cls-201{opacity:0.36;}.cls-202{opacity:0.67;}.cls-203{opacity:0.78;}.cls-204{opacity:0.67;}.cls-205{opacity:0.19;}.cls-206{opacity:0.64;}.cls-207{opacity:0.17;}.cls-208{opacity:0.4;}.cls-209{opacity:0.9;}.cls-210{opacity:0.64;}.cls-211{opacity:0.31;}.cls-212{opacity:0.66;}.cls-213{opacity:0.25;}.cls-214{opacity:0.4;}.cls-215{opacity:0.27;}.cls-216{opacity:0.58;}.cls-217{opacity:0.38;}.cls-218{opacity:0.66;}.cls-219{opacity:0.87;}.cls-220{opacity:0.43;}.cls-221{opacity:0.23;}.cls-222{opacity:0.6;}.cls-223{opacity:0.46;}.cls-224{opacity:0.21;}.cls-225{opacity:0.97;}.cls-226{opacity:0.14;}.cls-227{opacity:0.8;}.cls-228{opacity:0.16;}.cls-229{opacity:0.72;}.cls-230{opacity:0.66;}.cls-231{opacity:0.19;}.cls-232{opacity:0.82;}.cls-233{opacity:0.76;}.cls-234{opacity:0.24;}.cls-235{opacity:0.32;}.cls-236{opacity:0.28;}.cls-237{opacity:0.46;}.cls-238{opacity:0.62;}.cls-239{opacity:0.49;}.cls-240{opacity:0.4;}.cls-241{opacity:0.66;}.cls-242{opacity:0.99;}.cls-243{opacity:0.22;}.cls-244{opacity:0.82;}.cls-245{opacity:0.36;}.cls-246{opacity:0.48;}.cls-247{opacity:0.97;}.cls-248{opacity:0.36;}.cls-249{opacity:0.5;}.cls-250{opacity:0.35;}.cls-251{opacity:0.15;}.cls-252{opacity:0.6;}.cls-253{opacity:0.84;}.cls-254{opacity:0.32;}.cls-255{opacity:0.42;}.cls-256{opacity:0.38;}.cls-257{opacity:0.95;}.cls-258{opacity:0.5;}.cls-259{opacity:0.42;}.cls-260{opacity:0.42;}.cls-261{stroke:#dd1920;stroke-width:1.67px;}</style></defs><line class="cls-1" x1="50" y1="83.79" x2="50" y2="166.21"/><line class="cls-2" x1="57.34" y1="59.02" x2="57.34" y2="190.98"/><line class="cls-3" x1="64.67" y1="72.79" x2="64.67" y2="177.21"/><line class="cls-4" x1="72.01" y1="66.84" x2="72.01" y2="183.16"/><line class="cls-5" x1="79.34" y1="116.42" x2="79.34" y2="133.58"/><line class="cls-6" x1="86.68" y1="62.59" x2="86.68" y2="187.41"/><line class="cls-7" x1="94.02" y1="90.94" x2="94.02" y2="159.06"/><line class="cls-8" x1="101.35" y1="50.24" x2="101.35" y2="199.76"/><line class="cls-9" x1="108.69" y1="102.67" x2="108.69" y2="147.33"/><line class="cls-10" x1="116.02" y1="101.27" x2="116.02" y2="148.73"/><line class="cls-11" x1="123.36" y1="53.69" x2="123.36" y2="196.31"/><line class="cls-12" x1="130.69" y1="93.24" x2="130.69" y2="156.76"/><line class="cls-13" x1="138.03" y1="71.49" x2="138.03" y2="178.51"/><line class="cls-14" x1="145.37" y1="78.38" x2="145.37" y2="171.62"/><line class="cls-15" x1="152.7" y1="77.45" x2="152.7" y2="172.55"/><line class="cls-16" x1="160.04" y1="55.6" x2="160.04" y2="194.4"/><line class="cls-17" x1="167.37" y1="81.95" x2="167.37" y2="168.05"/><line class="cls-18" x1="174.71" y1="73.98" x2="174.71" y2="176.02"/><line class="cls-19" x1="182.05" y1="70.86" x2="182.05" y2="179.14"/><line class="cls-20" x1="189.38" y1="105.51" x2="189.38" y2="144.49"/><line class="cls-21" x1="196.72" y1="51.86" x2="196.72" y2="198.14"/><line class="cls-22" x1="204.05" y1="50.32" x2="204.05" y2="199.68"/><line class="cls-23" x1="211.39" y1="84.14" x2="211.39" y2="165.86"/><line class="cls-24" x1="218.73" y1="68.25" x2="218.73" y2="181.75"/><line class="cls-25" x1="226.06" y1="79" x2="226.06" y2="171"/><line class="cls-26" x1="233.4" y1="84.43" x2="233.4" y2="165.57"/><line class="cls-27" x1="240.73" y1="100.06" x2="240.73" y2="149.94"/><line class="cls-28" x1="248.07" y1="90.09" x2="248.07" y2="159.91"/><line class="cls-29" x1="255.41" y1="105.93" x2="255.41" y2="144.07"/><line class="cls-30" x1="262.74" y1="102.26" x2="262.74" y2="147.74"/><line class="cls-31" x1="270.08" y1="75.34" x2="270.08" y2="174.66"/><line class="cls-32" x1="277.41" y1="69.79" x2="277.41" y2="180.21"/><line class="cls-33" x1="284.75" y1="110.01" x2="284.75" y2="139.99"/><line class="cls-34" x1="292.08" y1="102.49" x2="292.08" y2="147.51"/><line class="cls-35" x1="299.42" y1="96.58" x2="299.42" y2="153.42"/><line class="cls-36" x1="306.76" y1="59.58" x2="306.76" y2="190.42"/><line class="cls-37" x1="314.09" y1="59.98" x2="314.09" y2="190.02"/><line class="cls-38" x1="321.43" y1="54.21" x2="321.43" y2="195.79"/><line class="cls-39" x1="328.76" y1="69.72" x2="328.76" y2="180.28"/><line class="cls-40" x1="336.1" y1="104.65" x2="336.1" y2="145.35"/><line class="cls-41" x1="343.44" y1="103.87" x2="343.44" y2="146.13"/><line class="cls-42" x1="350.77" y1="83.5" x2="350.77" y2="166.5"/><line class="cls-43" x1="358.11" y1="58.43" x2="358.11" y2="191.57"/><line class="cls-44" x1="365.44" y1="115.73" x2="365.44" y2="134.27"/><line class="cls-45" x1="372.78" y1="115.9" x2="372.78" y2="134.1"/><line class="cls-46" x1="380.12" y1="69.41" x2="380.12" y2="180.59"/><line class="cls-47" x1="387.45" y1="92.6" x2="387.45" y2="157.4"/><line class="cls-48" x1="394.79" y1="116.83" x2="394.79" y2="133.17"/><line class="cls-49" x1="402.12" y1="59.56" x2="402.12" y2="190.44"/><line class="cls-50" x1="409.46" y1="82.16" x2="409.46" y2="167.84"/><line class="cls-51" x1="416.8" y1="115.39" x2="416.8" y2="134.61"/><line class="cls-52" x1="424.13" y1="45.5" x2="424.13" y2="204.5"/><line class="cls-53" x1="431.47" y1="57.61" x2="431.47" y2="192.39"/><line class="cls-54" x1="438.8" y1="52.44" x2="438.8" y2="197.56"/><line class="cls-55" x1="446.14" y1="42.6" x2="446.14" y2="207.4"/><line class="cls-56" x1="453.47" y1="43.92" x2="453.47" y2="206.08"/><line class="cls-57" x1="460.81" y1="80.47" x2="460.81" y2="169.53"/><line class="cls-58" x1="468.15" y1="46.53" x2="468.15" y2="203.47"/><line class="cls-59" x1="475.48" y1="59.72" x2="475.48" y2="190.28"/><line class="cls-60" x1="482.82" y1="82.55" x2="482.82" y2="167.45"/><line class="cls-61" x1="490.15" y1="96.78" x2="490.15" y2="153.22"/><line class="cls-62" x1="497.49" y1="79.89" x2="497.49" y2="170.11"/><line class="cls-63" x1="504.83" y1="34.04" x2="504.83" y2="215.96"/><line class="cls-64" x1="512.16" y1="39.65" x2="512.16" y2="210.35"/><line class="cls-65" x1="519.5" y1="62.43" x2="519.5" y2="187.57"/><line class="cls-66" x1="526.83" y1="116.79" x2="526.83" y2="133.21"/><line class="cls-67" x1="534.17" y1="98.91" x2="534.17" y2="151.09"/><line class="cls-68" x1="541.51" y1="111.17" x2="541.51" y2="138.83"/><line class="cls-69" x1="548.84" y1="109.94" x2="548.84" y2="140.06"/><line class="cls-70" x1="556.18" y1="42.26" x2="556.18" y2="207.74"/><line class="cls-71" x1="563.51" y1="58.24" x2="563.51" y2="191.76"/><line class="cls-72" x1="570.85" y1="94.35" x2="570.85" y2="155.65"/><line class="cls-73" x1="578.19" y1="48.16" x2="578.19" y2="201.84"/><line class="cls-74" x1="585.52" y1="65.38" x2="585.52" y2="184.62"/><line class="cls-75" x1="592.86" y1="65.75" x2="592.86" y2="184.25"/><line class="cls-76" x1="600.19" y1="45.96" x2="600.19" y2="204.04"/><line class="cls-77" x1="607.53" y1="96.62" x2="607.53" y2="153.38"/><line class="cls-78" x1="614.86" y1="87.42" x2="614.86" y2="162.58"/><line class="cls-79" x1="622.2" y1="60.7" x2="622.2" y2="189.3"/><line class="cls-80" x1="629.54" y1="91.31" x2="629.54" y2="158.69"/><line class="cls-81" x1="636.87" y1="78.22" x2="636.87" y2="171.78"/><line class="cls-82" x1="644.21" y1="105.74" x2="644.21" y2="144.26"/><line class="cls-83" x1="651.54" y1="94.75" x2="651.54" y2="155.25"/><line class="cls-84" x1="658.88" y1="52.2" x2="658.88" y2="197.8"/><line class="cls-85" x1="666.22" y1="73.12" x2="666.22" y2="176.88"/><line class="cls-86" x1="673.55" y1="85.33" x2="673.55" y2="164.67"/><line class="cls-87" x1="680.89" y1="54.76" x2="680.89" y2="195.24"/><line class="cls-88" x1="688.22" y1="53.47" x2="688.22" y2="196.53"/><line class="cls-89" x1="695.56" y1="87.2" x2="695.56" y2="162.8"/><line class="cls-90" x1="702.9" y1="99.84" x2="702.9" y2="150.16"/><line class="cls-91" x1="710.23" y1="67.54" x2="710.23" y2="182.46"/><line class="cls-92" x1="717.57" y1="93.66" x2="717.57" y2="156.34"/><line class="cls-93" x1="724.9" y1="66.56" x2="724.9" y2="183.44"/><line class="cls-94" x1="732.24" y1="86.02" x2="732.24" y2="163.98"/><line class="cls-95" x1="739.58" y1="73.09" x2="739.58" y2="176.91"/><line class="cls-96" x1="746.91" y1="63.09" x2="746.91" y2="186.91"/><line class="cls-97" x1="754.25" y1="115.76" x2="754.25" y2="134.24"/><line class="cls-98" x1="761.58" y1="43.7" x2="761.58" y2="206.3"/><line class="cls-99" x1="768.92" y1="76.81" x2="768.92" y2="173.19"/><line class="cls-100" x1="776.25" y1="57.99" x2="776.25" y2="192.01"/><line class="cls-101" x1="783.59" y1="110.74" x2="783.59" y2="139.26"/><line class="cls-102" x1="790.93" y1="85.93" x2="790.93" y2="164.07"/><line class="cls-103" x1="798.26" y1="78.37" x2="798.26" y2="171.63"/><line class="cls-104" x1="805.6" y1="103.44" x2="805.6" y2="146.56"/><line class="cls-105" x1="812.93" y1="75.35" x2="812.93" y2="174.65"/><line class="cls-106" x1="820.27" y1="97.41" x2="820.27" y2="152.59"/><line class="cls-107" x1="827.61" y1="76.08" x2="827.61" y2="173.92"/><line class="cls-108" x1="834.94" y1="78.45" x2="834.94" y2="171.55"/><line class="cls-109" x1="842.28" y1="96.47" x2="842.28" y2="153.53"/><line class="cls-110" x1="849.61" y1="100.25" x2="849.61" y2="149.75"/><line class="cls-111" x1="856.95" y1="63.68" x2="856.95" y2="186.32"/><line class="cls-112" x1="864.29" y1="62.04" x2="864.29" y2="187.96"/><line class="cls-113" x1="871.62" y1="97.13" x2="871.62" y2="152.87"/><line class="cls-114" x1="878.96" y1="95.58" x2="878.96" y2="154.42"/><line class="cls-115" x1="886.29" y1="51.54" x2="886.29" y2="198.46"/><line class="cls-116" x1="893.63" y1="80.17" x2="893.63" y2="169.83"/><line class="cls-117" x1="900.97" y1="53.83" x2="900.97" y2="196.17"/><line class="cls-118" x1="908.3" y1="53.92" x2="908.3" y2="196.08"/><line class="cls-119" x1="915.64" y1="48.99" x2="915.64" y2="201.01"/><line class="cls-120" x1="922.97" y1="110.31" x2="922.97" y2="139.69"/><line class="cls-121" x1="930.31" y1="73.36" x2="930.31" y2="176.64"/><line class="cls-122" x1="937.64" y1="87.81" x2="937.64" y2="162.19"/><line class="cls-123" x1="944.98" y1="98.92" x2="944.98" y2="151.08"/><line class="cls-124" x1="952.32" y1="97.39" x2="952.32" y2="152.61"/><line class="cls-125" x1="959.65" y1="108.35" x2="959.65" y2="141.65"/><line class="cls-126" x1="966.99" y1="110.15" x2="966.99" y2="139.85"/><line class="cls-127" x1="974.32" y1="57.67" x2="974.32" y2="192.33"/><line class="cls-128" x1="981.66" y1="115.02" x2="981.66" y2="134.98"/><line class="cls-129" x1="989" y1="53.84" x2="989" y2="196.16"/><line class="cls-130" x1="996.33" y1="91.61" x2="996.33" y2="158.39"/><line class="cls-131" x1="1003.67" y1="73.99" x2="1003.67" y2="176.01"/><line class="cls-132" x1="1011" y1="68.25" x2="1011" y2="181.75"/><line class="cls-133" x1="1018.34" y1="104.87" x2="1018.34" y2="145.13"/><line class="cls-134" x1="1025.68" y1="45.07" x2="1025.68" y2="204.93"/><line class="cls-135" x1="1033.01" y1="94.38" x2="1033.01" y2="155.62"/><line class="cls-136" x1="1040.35" y1="59.29" x2="1040.35" y2="190.71"/><line class="cls-137" x1="1047.68" y1="76.66" x2="1047.68" y2="173.34"/><line class="cls-138" x1="1055.02" y1="89.26" x2="1055.02" y2="160.74"/><line class="cls-139" x1="1062.36" y1="50.01" x2="1062.36" y2="199.99"/><line class="cls-140" x1="1069.69" y1="104.1" x2="1069.69" y2="145.9"/><line class="cls-141" x1="1077.03" y1="98.52" x2="1077.03" y2="151.48"/><line class="cls-142" x1="1084.36" y1="80.29" x2="1084.36" y2="169.71"/><line class="cls-143" x1="1091.7" y1="56.38" x2="1091.7" y2="193.62"/><line class="cls-144" x1="1099.03" y1="74.17" x2="1099.03" y2="175.83"/><line class="cls-145" x1="1106.37" y1="61.15" x2="1106.37" y2="188.85"/><line class="cls-146" x1="1113.71" y1="70.39" x2="1113.71" y2="179.61"/><line class="cls-147" x1="1121.04" y1="112.21" x2="1121.04" y2="137.79"/><line class="cls-148" x1="1128.38" y1="64.94" x2="1128.38" y2="185.06"/><line class="cls-149" x1="1135.71" y1="94.39" x2="1135.71" y2="155.61"/><line class="cls-150" x1="1143.05" y1="107.7" x2="1143.05" y2="142.3"/><line class="cls-151" x1="1150.39" y1="107.65" x2="1150.39" y2="142.35"/><line class="cls-152" x1="1157.72" y1="57.38" x2="1157.72" y2="192.62"/><line class="cls-153" x1="1165.06" y1="53.91" x2="1165.06" y2="196.09"/><line class="cls-154" x1="1172.39" y1="71.25" x2="1172.39" y2="178.75"/><line class="cls-155" x1="1179.73" y1="53.48" x2="1179.73" y2="196.52"/><line class="cls-156" x1="1187.07" y1="102.87" x2="1187.07" y2="147.13"/><line class="cls-157" x1="1194.4" y1="70.33" x2="1194.4" y2="179.67"/><line class="cls-158" x1="1201.74" y1="92.35" x2="1201.74" y2="157.65"/><line class="cls-159" x1="1209.07" y1="81.87" x2="1209.07" y2="168.13"/><line class="cls-160" x1="1216.41" y1="63.19" x2="1216.41" y2="186.81"/><line class="cls-161" x1="1223.75" y1="109.26" x2="1223.75" y2="140.74"/><line class="cls-162" x1="1231.08" y1="74.87" x2="1231.08" y2="175.13"/><line class="cls-163" x1="1238.42" y1="71.42" x2="1238.42" y2="178.58"/><line class="cls-164" x1="1245.75" y1="66.2" x2="1245.75" y2="183.8"/><line class="cls-165" x1="1253.09" y1="100.44" x2="1253.09" y2="149.56"/><line class="cls-166" x1="1260.42" y1="85.32" x2="1260.42" y2="164.68"/><line class="cls-167" x1="1267.76" y1="87.73" x2="1267.76" y2="162.27"/><line class="cls-168" x1="1275.1" y1="115.99" x2="1275.1" y2="134.01"/><line class="cls-169" x1="1282.43" y1="54.98" x2="1282.43" y2="195.02"/><line class="cls-170" x1="1289.77" y1="87.77" x2="1289.77" y2="162.23"/><line class="cls-171" x1="1297.1" y1="99.92" x2="1297.1" y2="150.08"/><line class="cls-172" x1="1304.44" y1="47.19" x2="1304.44" y2="202.81"/><line class="cls-173" x1="1311.78" y1="35.72" x2="1311.78" y2="214.28"/><line class="cls-174" x1="1319.11" y1="101.52" x2="1319.11" y2="148.48"/><line class="cls-175" x1="1326.45" y1="67.23" x2="1326.45" y2="182.77"/><line class="cls-176" x1="1333.78" y1="42.58" x2="1333.78" y2="207.42"/><line class="cls-177" x1="1341.12" y1="99.08" x2="1341.12" y2="150.92"/><line class="cls-178" x1="1348.46" y1="111.11" x2="1348.46" y2="138.89"/><line class="cls-179" x1="1355.79" y1="75.29" x2="1355.79" y2="174.71"/><line class="cls-180" x1="1363.13" y1="65" x2="1363.13" y2="185"/><line class="cls-181" x1="1370.46" y1="97.5" x2="1370.46" y2="152.5"/><line class="cls-182" x1="1377.8" y1="70.04" x2="1377.8" y2="179.96"/><line class="cls-183" x1="1385.14" y1="103.42" x2="1385.14" y2="146.58"/><line class="cls-184" x1="1392.47" y1="57.9" x2="1392.47" y2="192.1"/><line class="cls-185" x1="1399.81" y1="47.47" x2="1399.81" y2="202.53"/><line class="cls-186" x1="1407.14" y1="107.44" x2="1407.14" y2="142.56"/><line class="cls-187" x1="1414.48" y1="93.31" x2="1414.48" y2="156.69"/><line class="cls-188" x1="1421.81" y1="43.45" x2="1421.81" y2="206.55"/><line class="cls-189" x1="1429.15" y1="109.79" x2="1429.15" y2="140.21"/><line class="cls-190" x1="1436.49" y1="48.42" x2="1436.49" y2="201.58"/><line class="cls-191" x1="1443.82" y1="62.15" x2="1443.82" y2="187.85"/><line class="cls-192" x1="1451.16" y1="54.75" x2="1451.16" y2="195.25"/><line class="cls-193" x1="1458.49" y1="77.87" x2="1458.49" y2="172.13"/><line class="cls-194" x1="1465.83" y1="50.96" x2="1465.83" y2="199.04"/><line class="cls-195" x1="1473.17" y1="113.52" x2="1473.17" y2="136.48"/><line class="cls-196" x1="1480.5" y1="40.89" x2="1480.5" y2="209.11"/><line class="cls-197" x1="1487.84" y1="113.54" x2="1487.84" y2="136.46"/><line class="cls-198" x1="1495.17" y1="60.36" x2="1495.17" y2="189.64"/><line class="cls-199" x1="1502.51" y1="62.11" x2="1502.51" y2="187.89"/><line class="cls-200" x1="1509.85" y1="112.76" x2="1509.85" y2="137.24"/><line class="cls-201" x1="1517.18" y1="48.84" x2="1517.18" y2="201.16"/><line class="cls-202" x1="1524.52" y1="71.8" x2="1524.52" y2="178.2"/><line class="cls-203" x1="1531.85" y1="71.46" x2="1531.85" y2="178.54"/><line class="cls-204" x1="1539.19" y1="64.45" x2="1539.19" y2="185.55"/><line class="cls-205" x1="1546.53" y1="100.68" x2="1546.53" y2="149.32"/><line class="cls-206" x1="1553.86" y1="59.8" x2="1553.86" y2="190.2"/><line class="cls-207" x1="1561.2" y1="111.61" x2="1561.2" y2="138.39"/><line class="cls-208" x1="1568.53" y1="71.92" x2="1568.53" y2="178.08"/><line class="cls-209" x1="1575.87" y1="101.76" x2="1575.87" y2="148.24"/><line class="cls-210" x1="1583.2" y1="83.02" x2="1583.2" y2="166.98"/><line class="cls-211" x1="1590.54" y1="44.94" x2="1590.54" y2="205.06"/><line class="cls-212" x1="1597.88" y1="89.79" x2="1597.88" y2="160.21"/><line class="cls-213" x1="1605.21" y1="116.89" x2="1605.21" y2="133.11"/><line class="cls-214" x1="1612.55" y1="57.42" x2="1612.55" y2="192.58"/><line class="cls-215" x1="1619.88" y1="69.92" x2="1619.88" y2="180.08"/><line class="cls-216" x1="1627.22" y1="55.48" x2="1627.22" y2="194.52"/><line class="cls-217" x1="1634.56" y1="55.26" x2="1634.56" y2="194.74"/><line class="cls-218" x1="1641.89" y1="85.17" x2="1641.89" y2="164.83"/><line class="cls-219" x1="1649.23" y1="50.55" x2="1649.23" y2="199.45"/><line class="cls-220" x1="1656.56" y1="72.08" x2="1656.56" y2="177.92"/><line class="cls-221" x1="1663.9" y1="108.94" x2="1663.9" y2="141.06"/><line class="cls-222" x1="1671.24" y1="64.33" x2="1671.24" y2="185.67"/><line class="cls-223" x1="1678.57" y1="52.6" x2="1678.57" y2="197.4"/><line class="cls-224" x1="1685.91" y1="48.65" x2="1685.91" y2="201.35"/><line class="cls-225" x1="1693.24" y1="83.27" x2="1693.24" y2="166.73"/><line class="cls-226" x1="1700.58" y1="83.43" x2="1700.58" y2="166.57"/><line class="cls-227" x1="1707.92" y1="96.1" x2="1707.92" y2="153.9"/><line class="cls-228" x1="1715.25" y1="41.57" x2="1715.25" y2="208.43"/><line class="cls-229" x1="1722.59" y1="109.44" x2="1722.59" y2="140.56"/><line class="cls-230" x1="1729.92" y1="104.36" x2="1729.92" y2="145.64"/><line class="cls-231" x1="1737.26" y1="44.15" x2="1737.26" y2="205.85"/><line class="cls-232" x1="1744.59" y1="100.25" x2="1744.59" y2="149.75"/><line class="cls-233" x1="1751.93" y1="51.31" x2="1751.93" y2="198.69"/><line class="cls-234" x1="1759.27" y1="46.03" x2="1759.27" y2="203.97"/><line class="cls-235" x1="1766.6" y1="92.41" x2="1766.6" y2="157.59"/><line class="cls-236" x1="1773.94" y1="116.79" x2="1773.94" y2="133.21"/><line class="cls-237" x1="1781.27" y1="68.74" x2="1781.27" y2="181.26"/><line class="cls-238" x1="1788.61" y1="54.54" x2="1788.61" y2="195.46"/><line class="cls-239" x1="1795.95" y1="115.57" x2="1795.95" y2="134.43"/><line class="cls-240" x1="1803.28" y1="73.28" x2="1803.28" y2="176.72"/><line class="cls-241" x1="1810.62" y1="62.3" x2="1810.62" y2="187.7"/><line class="cls-242" x1="1817.95" y1="62.97" x2="1817.95" y2="187.03"/><line class="cls-243" x1="1825.29" y1="37.89" x2="1825.29" y2="212.11"/><line class="cls-244" x1="1832.63" y1="69.52" x2="1832.63" y2="180.48"/><line class="cls-245" x1="1839.96" y1="58.33" x2="1839.96" y2="191.67"/><line class="cls-246" x1="1847.3" y1="95.9" x2="1847.3" y2="154.1"/><line class="cls-247" x1="1854.63" y1="91.79" x2="1854.63" y2="158.21"/><line class="cls-248" x1="1861.97" y1="65.74" x2="1861.97" y2="184.26"/><line class="cls-249" x1="1869.31" y1="95.39" x2="1869.31" y2="154.61"/><line class="cls-250" x1="1876.64" y1="98.06" x2="1876.64" y2="151.94"/><line class="cls-251" x1="1883.98" y1="103.64" x2="1883.98" y2="146.36"/><line class="cls-252" x1="1891.31" y1="50.67" x2="1891.31" y2="199.33"/><line class="cls-253" x1="1898.65" y1="55.28" x2="1898.65" y2="194.72"/><line class="cls-254" x1="1905.98" y1="106.67" x2="1905.98" y2="143.33"/><line class="cls-255" x1="1913.32" y1="60.28" x2="1913.32" y2="189.72"/><line class="cls-256" x1="1920.66" y1="91.55" x2="1920.66" y2="158.45"/><line class="cls-257" x1="1927.99" y1="61.69" x2="1927.99" y2="188.31"/><line class="cls-258" x1="1935.33" y1="78.06" x2="1935.33" y2="171.94"/><line class="cls-259" x1="1942.66" y1="115.4" x2="1942.66" y2="134.6"/><line class="cls-260" x1="1950" y1="71.33" x2="1950" y2="178.67"/><line class="cls-261" x1="50" y1="125" x2="1950" y2="125"/></svg>