<svg id="Chart" xmlns="http://www.w3.org/2000/svg" viewBox="0 0 2000 250"><defs><style>.cls-1{fill:none;stroke:#fff;stroke-miterlimit:10;}.cls-2{fill:#dd1920;}</style></defs><polyline class="cls-1" points="1950 124.94 1928.41 177.47 1906.82 59 1885.23 155.14 1863.64 152.97 1842.05 59.56 1820.45 178.95 1798.86 122.53 1777.27 73.94 1755.68 191.34 1734.09 92.6 1712.5 99.11 1690.91 189.68 1669.32 69.51 1647.73 129.75 1626.14 174.32 1604.55 58.15 1582.95 159.37 1561.36 148.52 1539.77 60.91 1518.18 181.7 1496.59 117.72 1475 77.22 1453.41 192.02 1431.82 88.45 1410.23 103.63 1388.64 188.16 1367.05 66.91 1345.45 134.54 1323.86 170.91 1302.27 57.63 1280.68 163.42 1259.09 143.94 1237.5 62.6 1215.91 184.16 1194.32 112.95 1172.73 80.75 1151.14 192.37 1129.55 84.5 1107.95 108.25 1086.36 186.31 1064.77 64.6 1043.18 139.28 1021.59 167.27 1000 57.46 978.41 167.27 956.82 139.28 935.23 64.6 913.64 186.31 892.05 108.25 870.46 84.5 848.86 192.37 827.27 80.75 805.68 112.95 784.09 184.16 762.5 62.6 740.91 143.94 719.32 163.42 697.73 57.63 676.14 170.91 654.55 134.54 632.96 66.91 611.36 188.16 589.77 103.63 568.18 88.45 546.59 192.02 525 77.22 503.41 117.72 481.82 181.7 460.23 60.91 438.64 148.52 417.05 159.37 395.45 58.15 373.86 174.32 352.27 129.75 330.68 69.51 309.09 189.68 287.5 99.11 265.91 92.6 244.32 191.34 222.73 73.94 201.14 122.53 179.55 178.95 157.96 59.56 136.36 152.97 114.77 155.14 93.18 59 71.59 177.47 50 124.94"/><path class="cls-2" d="M697.73,50a5.84,5.84,0,0,0-5.84,5.84v3.58a5.84,5.84,0,0,0,11.68,0V55.84A5.85,5.85,0,0,0,697.73,50Z"/><path class="cls-2" d="M309.09,182.05a5.83,5.83,0,0,0-5.84,5.84v3.58a5.84,5.84,0,0,0,11.68,0v-3.58A5.83,5.83,0,0,0,309.09,182.05Z"/><path class="cls-2" d="M1151.14,184.74a5.83,5.83,0,0,0-5.84,5.84v3.58a5.84,5.84,0,1,0,11.68,0v-3.58A5.84,5.84,0,0,0,1151.14,184.74Z"/><path class="cls-2" d="M1842.05,51.92a5.85,5.85,0,0,0-5.85,5.85v3.58a5.85,5.85,0,0,0,11.69,0V57.77A5.85,5.85,0,0,0,1842.05,51.92Z"/><path class="cls-2" d="M1367.05,59.27a5.85,5.85,0,0,0-5.85,5.85V68.7a5.85,5.85,0,0,0,11.69,0V65.12A5.85,5.85,0,0,0,1367.05,59.27Z"/></svg>