<svg id="Chart" xmlns="http://www.w3.org/2000/svg" viewBox="0 0 2000 250"><defs><style>.cls-1,.cls-10,.cls-100,.cls-101,.cls-102,.cls-103,.cls-104,.cls-105,.cls-106,.cls-107,.cls-108,.cls-109,.cls-11,.cls-110,.cls-111,.cls-112,.cls-113,.cls-114,.cls-115,.cls-116,.cls-117,.cls-118,.cls-119,.cls-12,.cls-120,.cls-121,.cls-122,.cls-123,.cls-124,.cls-125,.cls-126,.cls-127,.cls-128,.cls-129,.cls-13,.cls-130,.cls-131,.cls-132,.cls-133,.cls-134,.cls-135,.cls-136,.cls-137,.cls-138,.cls-139,.cls-14,.cls-140,.cls-141,.cls-142,.cls-143,.cls-144,.cls-145,.cls-146,.cls-147,.cls-148,.cls-149,.cls-15,.cls-150,.cls-151,.cls-152,.cls-153,.cls-154,.cls-155,.cls-156,.cls-157,.cls-158,.cls-159,.cls-16,.cls-160,.cls-161,.cls-162,.cls-163,.cls-164,.cls-165,.cls-166,.cls-167,.cls-168,.cls-169,.cls-17,.cls-170,.cls-171,.cls-172,.cls-173,.cls-174,.cls-175,.cls-176,.cls-177,.cls-178,.cls-179,.cls-18,.cls-180,.cls-19,.cls-2,.cls-20,.cls-21,.cls-22,.cls-23,.cls-24,.cls-25,.cls-26,.cls-27,.cls-28,.cls-29,.cls-3,.cls-30,.cls-31,.cls-32,.cls-33,.cls-34,.cls-35,.cls-36,.cls-37,.cls-38,.cls-39,.cls-4,.cls-40,.cls-41,.cls-42,.cls-43,.cls-44,.cls-45,.cls-46,.cls-47,.cls-48,.cls-49,.cls-5,.cls-50,.cls-51,.cls-52,.cls-53,.cls-54,.cls-55,.cls-56,.cls-57,.cls-58,.cls-59,.cls-6,.cls-60,.cls-61,.cls-62,.cls-63,.cls-64,.cls-65,.cls-66,.cls-67,.cls-68,.cls-69,.cls-7,.cls-70,.cls-71,.cls-72,.cls-73,.cls-74,.cls-75,.cls-76,.cls-77,.cls-78,.cls-79,.cls-8,.cls-80,.cls-81,.cls-82,.cls-83,.cls-84,.cls-85,.cls-86,.cls-87,.cls-88,.cls-89,.cls-9,.cls-90,.cls-91,.cls-92,.cls-93,.cls-94,.cls-95,.cls-96,.cls-97,.cls-98,.cls-99{fill:#fff;}.cls-1{opacity:0.89;}.cls-2{opacity:0.6;}.cls-3{opacity:0.24;}.cls-4{opacity:0.72;}.cls-5{opacity:0.3;}.cls-6{opacity:0.99;}.cls-7{opacity:0.81;}.cls-8{opacity:0.15;}.cls-9{opacity:0.76;}.cls-10{opacity:0.48;}.cls-11{opacity:0.84;}.cls-12{opacity:0.91;}.cls-13{opacity:0.7;}.cls-14{opacity:0.29;}.cls-15{opacity:0.81;}.cls-16{opacity:0.49;}.cls-17{opacity:0.91;}.cls-18{opacity:0.5;}.cls-19{opacity:0.21;}.cls-20{opacity:0.26;}.cls-21{opacity:0.14;}.cls-22{opacity:0.3;}.cls-23{opacity:0.67;}.cls-24{opacity:0.41;}.cls-25{opacity:0.27;}.cls-26{opacity:0.51;}.cls-27{opacity:0.14;}.cls-28{opacity:0.61;}.cls-29{opacity:0.3;}.cls-30{opacity:0.48;}.cls-31{opacity:0.14;}.cls-32{opacity:0.49;}.cls-33{opacity:0.75;}.cls-34{opacity:0.84;}.cls-35{opacity:0.36;}.cls-36{opacity:0.35;}.cls-37{opacity:0.13;}.cls-38{opacity:1;}.cls-39{opacity:0.4;}.cls-40{opacity:0.21;}.cls-41{opacity:0.52;}.cls-42{opacity:0.21;}.cls-43{opacity:0.64;}.cls-44{opacity:0.63;}.cls-45{opacity:0.76;}.cls-46{opacity:0.73;}.cls-47{opacity:0.58;}.cls-48{opacity:0.85;}.cls-49{opacity:0.93;}.cls-50{opacity:0.47;}.cls-51{opacity:0.86;}.cls-52{opacity:0.62;}.cls-53{opacity:0.46;}.cls-54{opacity:0.7;}.cls-55{opacity:0.75;}.cls-56{opacity:0.65;}.cls-57{opacity:0.11;}.cls-58{opacity:0.94;}.cls-59{opacity:0.33;}.cls-60{opacity:0.88;}.cls-61{opacity:0.64;}.cls-62{opacity:0.5;}.cls-63{opacity:0.45;}.cls-64{opacity:0.96;}.cls-65{opacity:0.67;}.cls-66{opacity:0.87;}.cls-67{opacity:0.79;}.cls-68{opacity:0.65;}.cls-69{opacity:0.55;}.cls-70{opacity:0.28;}.cls-71{opacity:0.6;}.cls-72{opacity:0.24;}.cls-73{opacity:0.46;}.cls-74{opacity:0.39;}.cls-75{opacity:0.69;}.cls-76{opacity:0.98;}.cls-77{opacity:0.98;}.cls-78{opacity:0.21;}.cls-79{opacity:0.22;}.cls-80{opacity:0.92;}.cls-81{opacity:0.27;}.cls-82{opacity:0.32;}.cls-83{opacity:0.97;}.cls-84{opacity:0.61;}.cls-85{opacity:0.11;}.cls-86{opacity:0.27;}.cls-87{opacity:0.52;}.cls-88{opacity:0.53;}.cls-89{opacity:0.27;}.cls-90{opacity:0.41;}.cls-91{opacity:0.32;}.cls-92{opacity:0.76;}.cls-93{opacity:0.87;}.cls-94{opacity:0.45;}.cls-95{opacity:0.72;}.cls-96{opacity:0.71;}.cls-97{opacity:0.21;}.cls-98{opacity:0.12;}.cls-99{opacity:0.73;}.cls-100{opacity:0.75;}.cls-101{opacity:0.92;}.cls-102{opacity:0.14;}.cls-103{opacity:0.68;}.cls-104{opacity:0.35;}.cls-105{opacity:0.41;}.cls-106{opacity:0.93;}.cls-107{opacity:0.31;}.cls-108{opacity:0.78;}.cls-109{opacity:0.52;}.cls-110{opacity:0.54;}.cls-111{opacity:0.2;}.cls-112{opacity:0.82;}.cls-113{opacity:0.25;}.cls-114{opacity:0.12;}.cls-115{opacity:0.15;}.cls-116{opacity:0.38;}.cls-117{opacity:0.51;}.cls-118{opacity:0.94;}.cls-119{opacity:0.85;}.cls-120{opacity:0.9;}.cls-121{opacity:0.32;}.cls-122{opacity:0.88;}.cls-123{opacity:0.7;}.cls-124{opacity:0.23;}.cls-125{opacity:0.91;}.cls-126{opacity:0.24;}.cls-127{opacity:0.57;}.cls-128{opacity:0.38;}.cls-129{opacity:0.97;}.cls-130{opacity:0.63;}.cls-131{opacity:0.66;}.cls-132{opacity:0.6;}.cls-133{opacity:0.26;}.cls-134{opacity:0.55;}.cls-135{opacity:0.74;}.cls-136{opacity:0.16;}.cls-137{opacity:0.25;}.cls-138{opacity:0.87;}.cls-139{opacity:0.56;}.cls-140{opacity:0.76;}.cls-141{opacity:0.91;}.cls-142{opacity:0.38;}.cls-143{opacity:0.43;}.cls-144{opacity:0.42;}.cls-145{opacity:0.57;}.cls-146{opacity:0.6;}.cls-147{opacity:0.75;}.cls-148{opacity:0.55;}.cls-149{opacity:0.18;}.cls-150{opacity:0.23;}.cls-151{opacity:0.62;}.cls-152{opacity:0.62;}.cls-153{opacity:0.41;}.cls-154{opacity:0.99;}.cls-155{opacity:0.36;}.cls-156{opacity:0.4;}.cls-157{opacity:0.27;}.cls-158{opacity:0.38;}.cls-159{opacity:0.33;}.cls-160{opacity:0.69;}.cls-161{opacity:0.89;}.cls-162{opacity:0.81;}.cls-163{opacity:0.41;}.cls-164{opacity:0.5;}.cls-165{opacity:0.21;}.cls-166{opacity:0.4;}.cls-167{opacity:0.78;}.cls-168{opacity:0.45;}.cls-169{opacity:0.15;}.cls-170{opacity:0.37;}.cls-171{opacity:0.97;}.cls-172{opacity:0.34;}.cls-173{opacity:0.44;}.cls-174{opacity:0.21;}.cls-175{opacity:0.94;}.cls-176{opacity:0.62;}.cls-177{opacity:0.94;}.cls-178{opacity:0.76;}.cls-179{opacity:0.36;}.cls-180{opacity:0.91;}</style></defs><path class="cls-1" d="M61.86,197.56h-9A2.86,2.86,0,0,1,50,194.69V164.55a2.86,2.86,0,0,1,2.87-2.87h7a2.86,2.86,0,0,1,2.86,2.87v6a2.87,2.87,0,0,0,2.87,2.86h6.13a2.88,2.88,0,0,1,2.87,2.87v18.49a2.87,2.87,0,0,1-2.87,2.86H61.86Z"/><rect class="cls-2" x="82.65" y="161.68" width="24.6" height="12.73" rx="2.87"/><rect class="cls-3" x="82.65" y="184.83" width="12.73" height="12.73" rx="2.87"/><path class="cls-4" d="M124.3,186.12h-6.13a2.88,2.88,0,0,1-2.87-2.87v-7a2.88,2.88,0,0,1,2.87-2.87h7a2.88,2.88,0,0,1,2.87,2.87V182a2.86,2.86,0,0,0,2.86,2.87H137a2.86,2.86,0,0,1,2.86,2.86v7A2.86,2.86,0,0,1,137,197.6h-7a2.86,2.86,0,0,1-2.86-2.86V189A2.86,2.86,0,0,0,124.3,186.12Z"/><path class="cls-5" d="M157,186.12h-6.14a2.87,2.87,0,0,1-2.86-2.87v-18.7a2.86,2.86,0,0,1,2.86-2.87h7a2.86,2.86,0,0,1,2.87,2.87V182a2.86,2.86,0,0,0,2.87,2.87h6.13a2.86,2.86,0,0,1,2.86,2.86v7a2.86,2.86,0,0,1-2.86,2.86h-7a2.86,2.86,0,0,1-2.87-2.86V189A2.86,2.86,0,0,0,157,186.12Z"/><path class="cls-6" d="M192.47,197.56h-9a2.86,2.86,0,0,1-2.87-2.87V164.55a2.86,2.86,0,0,1,2.87-2.87h7a2.86,2.86,0,0,1,2.86,2.87v6a2.87,2.87,0,0,0,2.87,2.86h6.13a2.88,2.88,0,0,1,2.87,2.87v18.49a2.87,2.87,0,0,1-2.87,2.86h-9.87Z"/><rect class="cls-7" x="213.26" y="161.68" width="24.6" height="12.73" rx="2.87"/><rect class="cls-8" x="213.26" y="184.83" width="12.73" height="12.73" rx="2.87"/><path class="cls-9" d="M255.78,197.56h-7a2.86,2.86,0,0,1-2.86-2.87v-7a2.86,2.86,0,0,1,2.86-2.86h6.13a2.87,2.87,0,0,0,2.87-2.87v-5.71a2.87,2.87,0,0,1,2.86-2.87h7a2.87,2.87,0,0,1,2.86,2.87v7a2.87,2.87,0,0,1-2.86,2.87h-6.14a2.86,2.86,0,0,0-2.86,2.86v5.71A2.87,2.87,0,0,1,255.78,197.56Z"/><path class="cls-10" d="M306,184.87h6.13a2.87,2.87,0,0,1,2.87,2.86v7a2.87,2.87,0,0,1-2.87,2.86h-9.87v0h-9a2.86,2.86,0,0,1-2.87-2.87V164.55a2.86,2.86,0,0,1,2.87-2.87h7a2.86,2.86,0,0,1,2.86,2.87V182A2.87,2.87,0,0,0,306,184.87Z"/><path class="cls-11" d="M344.79,186.12h-6.13A2.86,2.86,0,0,0,335.8,189v5.71a2.87,2.87,0,0,1-2.87,2.87h-7a2.87,2.87,0,0,1-2.87-2.87V164.55a2.87,2.87,0,0,1,2.87-2.87h7a2.87,2.87,0,0,1,2.87,2.87v6a2.86,2.86,0,0,0,2.86,2.86h6.13a2.87,2.87,0,0,1,2.87,2.87v7A2.87,2.87,0,0,1,344.79,186.12Z"/><path class="cls-12" d="M380.31,176.25v7a2.87,2.87,0,0,1-2.86,2.87h-6.14a2.86,2.86,0,0,0-2.86,2.86v5.71a2.87,2.87,0,0,1-2.87,2.87h-7a2.86,2.86,0,0,1-2.86-2.87v-7a2.86,2.86,0,0,1,2.86-2.86h6.13a2.87,2.87,0,0,0,2.87-2.87v-5.71a2.87,2.87,0,0,1,2.86-2.87h7A2.87,2.87,0,0,1,380.31,176.25Z"/><path class="cls-13" d="M404,173.38h6.13a2.87,2.87,0,0,1,2.86,2.87v18.49a2.86,2.86,0,0,1-2.86,2.86h-7a2.86,2.86,0,0,1-2.87-2.86V189a2.86,2.86,0,0,0-2.86-2.86h-6.14a2.87,2.87,0,0,1-2.86-2.87v-18.7a2.86,2.86,0,0,1,2.86-2.87h7a2.86,2.86,0,0,1,2.87,2.87v6A2.86,2.86,0,0,0,404,173.38Z"/><path class="cls-14" d="M430,186.12h-6.13a2.87,2.87,0,0,1-2.87-2.87v-7a2.87,2.87,0,0,1,2.87-2.87h7a2.87,2.87,0,0,1,2.86,2.87V182a2.87,2.87,0,0,0,2.87,2.87h6.13a2.87,2.87,0,0,1,2.87,2.86v7a2.87,2.87,0,0,1-2.87,2.86h-7a2.87,2.87,0,0,1-2.87-2.86V189A2.86,2.86,0,0,0,430,186.12Z"/><rect class="cls-15" x="453.67" y="161.68" width="24.6" height="12.73" rx="2.87"/><rect class="cls-16" x="453.67" y="184.83" width="12.73" height="12.73" rx="2.87"/><rect class="cls-17" x="486.33" y="161.68" width="12.73" height="12.73" rx="2.87"/><path class="cls-18" d="M498.19,197.56h-9a2.86,2.86,0,0,1-2.86-2.87v-7a2.86,2.86,0,0,1,2.86-2.86h9.87v0h9a2.86,2.86,0,0,1,2.86,2.86v7a2.86,2.86,0,0,1-2.86,2.86h-9.87Z"/><path class="cls-19" d="M546.42,173.38h6.13a2.88,2.88,0,0,1,2.87,2.87v7a2.88,2.88,0,0,1-2.87,2.87h-6.13a2.87,2.87,0,0,0-2.87,2.86v5.71a2.86,2.86,0,0,1-2.86,2.87h-7a2.86,2.86,0,0,1-2.87-2.87V164.55a2.86,2.86,0,0,1,2.87-2.87h7a2.86,2.86,0,0,1,2.86,2.87v6A2.87,2.87,0,0,0,546.42,173.38Z"/><rect class="cls-20" x="563.47" y="161.68" width="24.6" height="12.73" rx="2.87"/><rect class="cls-21" x="563.47" y="184.83" width="12.73" height="12.73" rx="2.87"/><path class="cls-22" d="M617.86,197.6h-7a2.86,2.86,0,0,1-2.87-2.86V189a2.86,2.86,0,0,0-2.87-2.86H599a2.87,2.87,0,0,1-2.86-2.87v-18.7a2.86,2.86,0,0,1,2.86-2.87h7a2.86,2.86,0,0,1,2.87,2.87v6a2.86,2.86,0,0,0,2.86,2.86h6.14a2.87,2.87,0,0,1,2.86,2.87v18.49A2.86,2.86,0,0,1,617.86,197.6Z"/><path class="cls-23" d="M650.51,186.12h-6.13a2.86,2.86,0,0,0-2.87,2.86v5.71a2.86,2.86,0,0,1-2.86,2.87h-7a2.86,2.86,0,0,1-2.86-2.87V164.55a2.86,2.86,0,0,1,2.86-2.87h7a2.86,2.86,0,0,1,2.86,2.87v6a2.86,2.86,0,0,0,2.87,2.86h6.13a2.87,2.87,0,0,1,2.86,2.87v7A2.87,2.87,0,0,1,650.51,186.12Z"/><rect class="cls-24" x="661.43" y="161.68" width="24.6" height="12.73" rx="2.87"/><rect class="cls-25" x="661.43" y="184.83" width="12.73" height="12.73" rx="2.87"/><rect class="cls-26" x="694.08" y="161.68" width="12.73" height="12.73" rx="2.87"/><path class="cls-27" d="M706.82,184.87h9a2.86,2.86,0,0,1,2.87,2.86v7a2.86,2.86,0,0,1-2.87,2.86H706v0h-9a2.87,2.87,0,0,1-2.87-2.87v-7a2.87,2.87,0,0,1,2.87-2.86h9.87Z"/><rect class="cls-28" x="738.58" y="161.68" width="12.73" height="35.88" rx="2.87"/><path class="cls-29" d="M786.83,184.87H793a2.87,2.87,0,0,1,2.87,2.86v7A2.87,2.87,0,0,1,793,197.6h-7a2.87,2.87,0,0,1-2.87-2.86V189a2.86,2.86,0,0,0-2.86-2.86H774.1a2.87,2.87,0,0,1-2.87-2.87v-7a2.87,2.87,0,0,1,2.87-2.87h7a2.87,2.87,0,0,1,2.86,2.87V182A2.87,2.87,0,0,0,786.83,184.87Z"/><path class="cls-30" d="M828.48,176.25v18.49a2.86,2.86,0,0,1-2.87,2.86h-9.86v0h-9a2.87,2.87,0,0,1-2.87-2.87V176.25a2.88,2.88,0,0,1,2.87-2.87h18.86A2.87,2.87,0,0,1,828.48,176.25Z"/><rect class="cls-31" x="836.54" y="161.68" width="24.6" height="12.73" rx="2.87"/><rect class="cls-32" x="836.54" y="184.83" width="12.73" height="12.73" rx="2.87"/><rect class="cls-33" x="869.19" y="161.68" width="12.73" height="35.88" rx="2.87"/><rect class="cls-34" x="901.84" y="184.83" width="12.73" height="12.73" rx="2.87"/><path class="cls-35" d="M981.05,184.87h6.14a2.86,2.86,0,0,1,2.86,2.86v7a2.86,2.86,0,0,1-2.86,2.86h-7a2.86,2.86,0,0,1-2.86-2.86V189a2.86,2.86,0,0,0-2.87-2.86h-6.13a2.88,2.88,0,0,1-2.87-2.87v-18.7a2.87,2.87,0,0,1,2.87-2.87h7a2.87,2.87,0,0,1,2.87,2.87V182A2.86,2.86,0,0,0,981.05,184.87Z"/><rect class="cls-36" x="998.11" y="161.68" width="24.6" height="12.73" rx="2.87"/><rect class="cls-37" x="998.11" y="184.83" width="12.73" height="12.73" rx="2.87"/><path class="cls-38" d="M1055.36,187.73v7a2.87,2.87,0,0,1-2.87,2.86h-7a2.87,2.87,0,0,1-2.87-2.86V189a2.86,2.86,0,0,0-2.86-2.86h-6.14a2.87,2.87,0,0,1-2.86-2.87v-18.7a2.86,2.86,0,0,1,2.86-2.87h7a2.86,2.86,0,0,1,2.86,2.87V182a2.86,2.86,0,0,0,2.87,2.87h6.13A2.87,2.87,0,0,1,1055.36,187.73Z"/><path class="cls-39" d="M1088,187.73v7a2.86,2.86,0,0,1-2.87,2.86h-9.86v0h-9a2.86,2.86,0,0,1-2.87-2.87V164.55a2.86,2.86,0,0,1,2.87-2.87h7a2.86,2.86,0,0,1,2.86,2.87V182a2.87,2.87,0,0,0,2.87,2.87h6.13A2.86,2.86,0,0,1,1088,187.73Z"/><path class="cls-40" d="M1120.66,176.25v7a2.87,2.87,0,0,1-2.86,2.87h-6.14a2.86,2.86,0,0,0-2.86,2.86v5.71a2.87,2.87,0,0,1-2.87,2.87h-7a2.87,2.87,0,0,1-2.87-2.87v-7a2.87,2.87,0,0,1,2.87-2.86h6.13a2.87,2.87,0,0,0,2.87-2.87v-5.71a2.87,2.87,0,0,1,2.86-2.87h7A2.87,2.87,0,0,1,1120.66,176.25Z"/><path class="cls-41" d="M1153.31,176.25v18.49a2.86,2.86,0,0,1-2.86,2.86h-9.87v0h-9a2.86,2.86,0,0,1-2.86-2.87v-7a2.86,2.86,0,0,1,2.86-2.86h6.14a2.87,2.87,0,0,0,2.86-2.87v-4.68a2.87,2.87,0,0,0-2.86-2.87h-6.14a2.86,2.86,0,0,1-2.86-2.86v-7a2.86,2.86,0,0,1,2.86-2.87h7a2.86,2.86,0,0,1,2.87,2.87v6a2.86,2.86,0,0,0,2.86,2.86h6.14A2.87,2.87,0,0,1,1153.31,176.25Z"/><path class="cls-42" d="M1186,176.25v18.49a2.87,2.87,0,0,1-2.87,2.86h-9.87v0h-9a2.86,2.86,0,0,1-2.86-2.87v-7a2.86,2.86,0,0,1,2.86-2.86h6.14a2.87,2.87,0,0,0,2.86-2.87v-5.71a2.88,2.88,0,0,1,2.87-2.87h7A2.88,2.88,0,0,1,1186,176.25Z"/><path class="cls-43" d="M1209.62,184.87h6.13a2.86,2.86,0,0,1,2.87,2.86v7a2.86,2.86,0,0,1-2.87,2.86h-7a2.86,2.86,0,0,1-2.86-2.86V189a2.87,2.87,0,0,0-2.87-2.86h-6.13a2.87,2.87,0,0,1-2.87-2.87v-7a2.87,2.87,0,0,1,2.87-2.87h7a2.87,2.87,0,0,1,2.86,2.87V182A2.87,2.87,0,0,0,1209.62,184.87Z"/><path class="cls-44" d="M1235.67,186.12h-6.13a2.88,2.88,0,0,1-2.87-2.87v-18.7a2.87,2.87,0,0,1,2.87-2.87h7a2.87,2.87,0,0,1,2.87,2.87V182a2.86,2.86,0,0,0,2.86,2.87h6.14a2.86,2.86,0,0,1,2.86,2.86v7a2.86,2.86,0,0,1-2.86,2.86h-7a2.86,2.86,0,0,1-2.86-2.86V189A2.86,2.86,0,0,0,1235.67,186.12Z"/><path class="cls-45" d="M1259.33,183.25v-18.7a2.86,2.86,0,0,1,2.86-2.87h7a2.86,2.86,0,0,1,2.87,2.87V182a2.86,2.86,0,0,0,2.86,2.87h6.14a2.86,2.86,0,0,1,2.86,2.86v7a2.86,2.86,0,0,1-2.86,2.86h-7a2.86,2.86,0,0,1-2.87-2.86V189a2.86,2.86,0,0,0-2.87-2.86h-6.13A2.87,2.87,0,0,1,1259.33,183.25Z"/><path class="cls-46" d="M1316.58,176.25v7a2.88,2.88,0,0,1-2.87,2.87h-6.13a2.86,2.86,0,0,0-2.87,2.86v5.71a2.86,2.86,0,0,1-2.86,2.87h-7a2.86,2.86,0,0,1-2.86-2.87v-7a2.86,2.86,0,0,1,2.86-2.86H1301a2.87,2.87,0,0,0,2.86-2.87v-5.71a2.88,2.88,0,0,1,2.87-2.87h7A2.88,2.88,0,0,1,1316.58,176.25Z"/><rect class="cls-47" x="1336.47" y="161.68" width="12.73" height="35.88" rx="2.87"/><path class="cls-48" d="M1393.72,176.25v7a2.87,2.87,0,0,1-2.86,2.87h-6.14a2.86,2.86,0,0,0-2.86,2.86v5.71a2.86,2.86,0,0,1-2.87,2.87h-7a2.86,2.86,0,0,1-2.86-2.87v-7a2.86,2.86,0,0,1,2.86-2.86h6.14A2.87,2.87,0,0,0,1381,182v-5.71a2.87,2.87,0,0,1,2.87-2.87h7A2.87,2.87,0,0,1,1393.72,176.25Z"/><path class="cls-49" d="M1414.51,184.87h9a2.87,2.87,0,0,1,2.87,2.86v7a2.87,2.87,0,0,1-2.87,2.86h-9.87v0h-9a2.86,2.86,0,0,1-2.86-2.87v-7a2.86,2.86,0,0,1,2.86-2.86h9.87Z"/><path class="cls-50" d="M1456.16,197.6h-7a2.86,2.86,0,0,1-2.86-2.86V189a2.87,2.87,0,0,0-2.87-2.86h-6.13a2.87,2.87,0,0,1-2.87-2.87v-18.7a2.86,2.86,0,0,1,2.87-2.87h7a2.86,2.86,0,0,1,2.86,2.87v6a2.87,2.87,0,0,0,2.87,2.86h6.13a2.87,2.87,0,0,1,2.87,2.87v18.49A2.86,2.86,0,0,1,1456.16,197.6Z"/><rect class="cls-51" x="1467.08" y="161.68" width="24.6" height="12.73" rx="2.87"/><rect class="cls-52" x="1467.08" y="184.83" width="12.73" height="12.73" rx="2.87"/><path class="cls-53" d="M1524.33,187.73v7a2.86,2.86,0,0,1-2.86,2.86h-7a2.86,2.86,0,0,1-2.87-2.86V189a2.86,2.86,0,0,0-2.86-2.86h-6.14a2.87,2.87,0,0,1-2.86-2.87v-18.7a2.86,2.86,0,0,1,2.86-2.87h7a2.86,2.86,0,0,1,2.87,2.87V182a2.86,2.86,0,0,0,2.86,2.87h6.14A2.86,2.86,0,0,1,1524.33,187.73Z"/><rect class="cls-54" x="1529.88" y="159.49" width="12.73" height="12.73" rx="2.87"/><path class="cls-55" d="M1572.35,186.12h-6.13a2.87,2.87,0,0,1-2.87-2.87v-18.7a2.86,2.86,0,0,1,2.87-2.87h7a2.86,2.86,0,0,1,2.86,2.87V182a2.87,2.87,0,0,0,2.87,2.87h6.13a2.87,2.87,0,0,1,2.87,2.86v7a2.87,2.87,0,0,1-2.87,2.86h-7a2.87,2.87,0,0,1-2.87-2.86V189A2.86,2.86,0,0,0,1572.35,186.12Z"/><path class="cls-56" d="M1620.6,176.25v7a2.87,2.87,0,0,1-2.87,2.87h-6.13a2.86,2.86,0,0,0-2.86,2.86v5.71a2.87,2.87,0,0,1-2.87,2.87h-7a2.87,2.87,0,0,1-2.87-2.87v-7a2.87,2.87,0,0,1,2.87-2.86H1605a2.88,2.88,0,0,0,2.87-2.87v-5.71a2.87,2.87,0,0,1,2.86-2.87h7A2.87,2.87,0,0,1,1620.6,176.25Z"/><path class="cls-57" d="M1653.25,176.25v18.49a2.86,2.86,0,0,1-2.86,2.86h-9.87v0h-9a2.87,2.87,0,0,1-2.87-2.87v-7a2.87,2.87,0,0,1,2.87-2.86h6.13a2.87,2.87,0,0,0,2.87-2.87v-5.71a2.87,2.87,0,0,1,2.86-2.87h7A2.87,2.87,0,0,1,1653.25,176.25Z"/><rect class="cls-58" x="1673.15" y="184.83" width="12.73" height="12.73" rx="2.87"/><rect class="cls-59" x="1717.65" y="161.68" width="12.73" height="35.88" rx="2.87"/><path class="cls-60" d="M1765.9,173.38H1772a2.87,2.87,0,0,1,2.86,2.87v7a2.87,2.87,0,0,1-2.86,2.87h-6.13A2.86,2.86,0,0,0,1763,189v5.71a2.86,2.86,0,0,1-2.86,2.87h-7a2.86,2.86,0,0,1-2.86-2.87v-7a2.86,2.86,0,0,1,2.86-2.86h6.14a2.87,2.87,0,0,0,2.86-2.87v-4.68a2.87,2.87,0,0,0-2.86-2.87h-6.14a2.86,2.86,0,0,1-2.86-2.86v-7a2.86,2.86,0,0,1,2.86-2.87h7a2.86,2.86,0,0,1,2.86,2.87v6A2.86,2.86,0,0,0,1765.9,173.38Z"/><path class="cls-61" d="M1798.55,173.38h6.13a2.88,2.88,0,0,1,2.87,2.87v7a2.88,2.88,0,0,1-2.87,2.87h-6.13a2.87,2.87,0,0,0-2.87,2.86v5.71a2.86,2.86,0,0,1-2.86,2.87h-7a2.86,2.86,0,0,1-2.87-2.87V164.55a2.86,2.86,0,0,1,2.87-2.87h7a2.86,2.86,0,0,1,2.86,2.87v6A2.87,2.87,0,0,0,1798.55,173.38Z"/><path class="cls-62" d="M1830.33,173.38h7a2.87,2.87,0,0,1,2.87,2.87v7a2.87,2.87,0,0,1-2.87,2.87h-6.13a2.86,2.86,0,0,0-2.86,2.86v5.71a2.87,2.87,0,0,1-2.87,2.87h-7a2.87,2.87,0,0,1-2.87-2.87v-7a2.87,2.87,0,0,1,2.87-2.86h6.13a2.88,2.88,0,0,0,2.87-2.87v-5.71A2.87,2.87,0,0,1,1830.33,173.38Z"/><rect class="cls-63" x="1848.26" y="161.68" width="12.73" height="12.73" rx="2.87"/><path class="cls-64" d="M1861,184.87h9a2.86,2.86,0,0,1,2.86,2.86v7a2.86,2.86,0,0,1-2.86,2.86h-9.87v0h-9a2.86,2.86,0,0,1-2.86-2.87v-7a2.86,2.86,0,0,1,2.86-2.86H1861Z"/><rect class="cls-65" x="1892.75" y="161.68" width="24.6" height="12.73" rx="2.87"/><rect class="cls-66" x="1892.75" y="184.83" width="12.73" height="12.73" rx="2.87"/><path class="cls-67" d="M1934.4,186.12h-6.13a2.88,2.88,0,0,1-2.87-2.87v-18.7a2.87,2.87,0,0,1,2.87-2.87h7a2.87,2.87,0,0,1,2.87,2.87v6a2.86,2.86,0,0,0,2.86,2.86h6.13a2.87,2.87,0,0,1,2.87,2.87v18.49a2.86,2.86,0,0,1-2.87,2.86h-7a2.86,2.86,0,0,1-2.86-2.86V189A2.87,2.87,0,0,0,1934.4,186.12Z"/><path class="cls-68" d="M61.86,142.92h-9A2.86,2.86,0,0,1,50,140.05V109.9A2.86,2.86,0,0,1,52.87,107h7a2.86,2.86,0,0,1,2.86,2.86v17.46a2.87,2.87,0,0,0,2.87,2.87h6.13a2.87,2.87,0,0,1,2.87,2.86v7A2.87,2.87,0,0,1,71.73,143H61.86Z"/><path class="cls-69" d="M92.52,142.92h-7a2.87,2.87,0,0,1-2.87-2.87v-7a2.87,2.87,0,0,1,2.87-2.86h6.13a2.88,2.88,0,0,0,2.87-2.87v-5.71a2.87,2.87,0,0,1,2.86-2.87h7a2.87,2.87,0,0,1,2.87,2.87v7a2.87,2.87,0,0,1-2.87,2.87H98.25a2.86,2.86,0,0,0-2.86,2.86v5.71A2.87,2.87,0,0,1,92.52,142.92Z"/><rect class="cls-70" x="115.3" y="107.04" width="12.73" height="35.88" rx="2.87"/><rect class="cls-71" x="147.96" y="107.04" width="12.73" height="35.88" rx="2.87"/><path class="cls-72" d="M190.48,142.92h-7a2.86,2.86,0,0,1-2.87-2.87v-7a2.86,2.86,0,0,1,2.87-2.86h6.13a2.87,2.87,0,0,0,2.86-2.87v-5.71a2.88,2.88,0,0,1,2.87-2.87h7a2.88,2.88,0,0,1,2.87,2.87v7a2.88,2.88,0,0,1-2.87,2.87h-6.13a2.87,2.87,0,0,0-2.87,2.86v5.71A2.86,2.86,0,0,1,190.48,142.92Z"/><path class="cls-73" d="M225.13,142.92h-9a2.87,2.87,0,0,1-2.87-2.87v-7a2.87,2.87,0,0,1,2.87-2.86h6.13a2.88,2.88,0,0,0,2.87-2.87v-4.68a2.87,2.87,0,0,0-2.87-2.87h-6.13a2.87,2.87,0,0,1-2.87-2.86v-7a2.87,2.87,0,0,1,2.87-2.86h7A2.87,2.87,0,0,1,226,109.9v6a2.86,2.86,0,0,0,2.86,2.86H235a2.87,2.87,0,0,1,2.87,2.87V140.1A2.86,2.86,0,0,1,235,143h-9.86Z"/><path class="cls-74" d="M254.91,131.48h-6.13a2.87,2.87,0,0,1-2.86-2.87V109.9a2.86,2.86,0,0,1,2.86-2.86h7a2.87,2.87,0,0,1,2.87,2.86v6a2.86,2.86,0,0,0,2.86,2.86h6.14a2.87,2.87,0,0,1,2.86,2.87V140.1a2.86,2.86,0,0,1-2.86,2.86h-7a2.86,2.86,0,0,1-2.86-2.86v-5.76A2.86,2.86,0,0,0,254.91,131.48Z"/><path class="cls-75" d="M293.3,118.74h7a2.87,2.87,0,0,1,2.86,2.87v7a2.87,2.87,0,0,1-2.86,2.87h-6.13a2.86,2.86,0,0,0-2.87,2.86v5.71a2.86,2.86,0,0,1-2.87,2.87h-7a2.86,2.86,0,0,1-2.86-2.87v-7a2.86,2.86,0,0,1,2.86-2.86h6.14a2.87,2.87,0,0,0,2.86-2.87v-5.71A2.87,2.87,0,0,1,293.3,118.74Z"/><path class="cls-76" d="M326.82,130.23H333a2.87,2.87,0,0,1,2.87,2.86v7A2.87,2.87,0,0,1,333,143h-7a2.87,2.87,0,0,1-2.87-2.86v-5.76a2.86,2.86,0,0,0-2.86-2.86h-6.13a2.87,2.87,0,0,1-2.87-2.87V109.9a2.86,2.86,0,0,1,2.87-2.86h7A2.86,2.86,0,0,1,324,109.9v17.46A2.87,2.87,0,0,0,326.82,130.23Z"/><path class="cls-77" d="M355.74,142.92h-9a2.87,2.87,0,0,1-2.87-2.87V109.9a2.87,2.87,0,0,1,2.87-2.86h7a2.86,2.86,0,0,1,2.86,2.86v6a2.87,2.87,0,0,0,2.87,2.86h6.13a2.87,2.87,0,0,1,2.87,2.87V140.1A2.86,2.86,0,0,1,365.6,143h-9.86Z"/><rect class="cls-78" x="376.52" y="107.04" width="24.6" height="12.73" rx="2.87"/><rect class="cls-79" x="376.52" y="130.19" width="12.73" height="12.73" rx="2.87"/><path class="cls-80" d="M419,142.92h-7a2.86,2.86,0,0,1-2.86-2.87v-7a2.86,2.86,0,0,1,2.86-2.86h6.14a2.87,2.87,0,0,0,2.86-2.87v-5.71a2.87,2.87,0,0,1,2.87-2.87h7a2.87,2.87,0,0,1,2.86,2.87v7a2.87,2.87,0,0,1-2.86,2.87h-6.13a2.86,2.86,0,0,0-2.87,2.86v5.71A2.86,2.86,0,0,1,419,142.92Z"/><path class="cls-81" d="M465.54,142.92h-9a2.87,2.87,0,0,1-2.87-2.87v-7a2.87,2.87,0,0,1,2.87-2.86h9.87v0h9a2.86,2.86,0,0,1,2.87,2.86v7A2.86,2.86,0,0,1,475.4,143h-9.86Z"/><path class="cls-82" d="M496.19,142.92h-7a2.86,2.86,0,0,1-2.86-2.87v-7a2.86,2.86,0,0,1,2.86-2.86h6.13a2.87,2.87,0,0,0,2.87-2.87v-4.68a2.86,2.86,0,0,0-2.87-2.87h-6.13a2.86,2.86,0,0,1-2.86-2.86v-7a2.86,2.86,0,0,1,2.86-2.86h7a2.86,2.86,0,0,1,2.87,2.86v6a2.86,2.86,0,0,0,2.86,2.86h6.14a2.87,2.87,0,0,1,2.86,2.87v7a2.87,2.87,0,0,1-2.86,2.87h-6.14a2.86,2.86,0,0,0-2.86,2.86v5.71A2.86,2.86,0,0,1,496.19,142.92Z"/><path class="cls-83" d="M530.84,142.92h-9a2.86,2.86,0,0,1-2.86-2.87v-7a2.86,2.86,0,0,1,2.86-2.86H528a2.87,2.87,0,0,0,2.86-2.87v-4.68a2.86,2.86,0,0,0-2.86-2.87h-6.14a2.86,2.86,0,0,1-2.86-2.86v-7a2.86,2.86,0,0,1,2.86-2.86h7a2.86,2.86,0,0,1,2.87,2.86v6a2.86,2.86,0,0,0,2.87,2.86h6.13a2.87,2.87,0,0,1,2.86,2.87V140.1a2.86,2.86,0,0,1-2.86,2.86h-9.87Z"/><path class="cls-84" d="M561.5,142.92h-7a2.86,2.86,0,0,1-2.87-2.87V109.9A2.86,2.86,0,0,1,554.5,107h18.86a2.87,2.87,0,0,1,2.87,2.86v7a2.87,2.87,0,0,1-2.87,2.86h-6.13a2.87,2.87,0,0,0-2.87,2.87v17.41A2.86,2.86,0,0,1,561.5,142.92Z"/><rect class="cls-85" x="584.28" y="130.19" width="12.73" height="12.73" rx="2.87"/><rect class="cls-86" x="616.94" y="107.04" width="12.73" height="35.88" rx="2.87"/><rect class="cls-87" x="649.59" y="107.04" width="12.73" height="35.88" rx="2.87"/><path class="cls-88" d="M697.84,130.23H704a2.87,2.87,0,0,1,2.87,2.86v7A2.87,2.87,0,0,1,704,143h-7a2.87,2.87,0,0,1-2.87-2.86v-5.76a2.86,2.86,0,0,0-2.86-2.86h-6.13a2.87,2.87,0,0,1-2.87-2.87v-7a2.87,2.87,0,0,1,2.87-2.87h7a2.87,2.87,0,0,1,2.86,2.87v5.75A2.87,2.87,0,0,0,697.84,130.23Z"/><path class="cls-89" d="M730.49,130.23h6.13a2.86,2.86,0,0,1,2.87,2.86v7a2.86,2.86,0,0,1-2.87,2.86h-7a2.86,2.86,0,0,1-2.86-2.86v-5.76a2.87,2.87,0,0,0-2.87-2.86h-6.13a2.88,2.88,0,0,1-2.87-2.87V109.9a2.87,2.87,0,0,1,2.87-2.86h7a2.87,2.87,0,0,1,2.87,2.86v17.46A2.86,2.86,0,0,0,730.49,130.23Z"/><path class="cls-90" d="M771.25,142.92h-9a2.86,2.86,0,0,1-2.86-2.87v-7a2.86,2.86,0,0,1,2.86-2.86h6.14a2.87,2.87,0,0,0,2.86-2.87v-5.71a2.87,2.87,0,0,1,2.87-2.87h7a2.87,2.87,0,0,1,2.86,2.87V140.1a2.86,2.86,0,0,1-2.86,2.86h-9.87Z"/><path class="cls-91" d="M801.91,142.92h-7a2.86,2.86,0,0,1-2.87-2.87v-7a2.86,2.86,0,0,1,2.87-2.86H801a2.87,2.87,0,0,0,2.86-2.87v-4.68a2.86,2.86,0,0,0-2.86-2.87h-6.13a2.86,2.86,0,0,1-2.87-2.86v-7a2.86,2.86,0,0,1,2.87-2.86h7a2.86,2.86,0,0,1,2.86,2.86v6a2.87,2.87,0,0,0,2.87,2.86h6.13a2.88,2.88,0,0,1,2.87,2.87v7a2.88,2.88,0,0,1-2.87,2.87h-6.13a2.87,2.87,0,0,0-2.87,2.86v5.71A2.86,2.86,0,0,1,801.91,142.92Z"/><rect class="cls-92" x="824.69" y="107.04" width="12.73" height="35.88" rx="2.87"/><path class="cls-93" d="M867.21,142.92h-7a2.86,2.86,0,0,1-2.86-2.87v-7a2.86,2.86,0,0,1,2.86-2.86h6.13a2.87,2.87,0,0,0,2.87-2.87v-4.68a2.86,2.86,0,0,0-2.87-2.87h-6.13a2.86,2.86,0,0,1-2.86-2.86v-7a2.86,2.86,0,0,1,2.86-2.86h7a2.86,2.86,0,0,1,2.87,2.86v6a2.86,2.86,0,0,0,2.86,2.86h6.14a2.87,2.87,0,0,1,2.86,2.87v7a2.87,2.87,0,0,1-2.86,2.87h-6.14a2.86,2.86,0,0,0-2.86,2.86v5.71A2.86,2.86,0,0,1,867.21,142.92Z"/><path class="cls-94" d="M899.86,142.92h-7a2.86,2.86,0,0,1-2.86-2.87V109.9a2.86,2.86,0,0,1,2.86-2.86h7a2.86,2.86,0,0,1,2.87,2.86v6a2.86,2.86,0,0,0,2.87,2.86h6.13a2.87,2.87,0,0,1,2.86,2.87v7a2.87,2.87,0,0,1-2.86,2.87H905.6a2.86,2.86,0,0,0-2.87,2.86v5.71A2.86,2.86,0,0,1,899.86,142.92Z"/><path class="cls-95" d="M956.22,119.77h-6.13a2.86,2.86,0,0,0-2.86,2.87v17.41a2.87,2.87,0,0,1-2.87,2.87h-7a2.87,2.87,0,0,1-2.87-2.87V109.9a2.87,2.87,0,0,1,2.87-2.86h18.86a2.86,2.86,0,0,1,2.87,2.86v7A2.86,2.86,0,0,1,956.22,119.77Z"/><path class="cls-96" d="M991.74,121.61v7a2.87,2.87,0,0,1-2.86,2.87h-6.14a2.86,2.86,0,0,0-2.86,2.86v5.71a2.86,2.86,0,0,1-2.87,2.87h-7a2.86,2.86,0,0,1-2.86-2.87v-7a2.86,2.86,0,0,1,2.86-2.86h6.13a2.87,2.87,0,0,0,2.87-2.87v-5.71a2.87,2.87,0,0,1,2.87-2.87h7A2.87,2.87,0,0,1,991.74,121.61Z"/><rect class="cls-97" x="999.8" y="107.04" width="12.73" height="35.88" rx="2.87"/><rect class="cls-98" x="1044.29" y="107.04" width="12.73" height="35.88" rx="2.87"/><path class="cls-99" d="M1101.54,133.09v7a2.86,2.86,0,0,1-2.86,2.86h-7a2.86,2.86,0,0,1-2.87-2.86v-5.76a2.86,2.86,0,0,0-2.87-2.86h-6.13a2.87,2.87,0,0,1-2.86-2.87v-7a2.87,2.87,0,0,1,2.86-2.87h7a2.87,2.87,0,0,1,2.87,2.87v5.75a2.86,2.86,0,0,0,2.86,2.87h6.14A2.86,2.86,0,0,1,1101.54,133.09Z"/><rect class="cls-100" x="1109.6" y="118.74" width="12.73" height="24.17" rx="2.87"/><path class="cls-101" d="M1166.85,121.61v7a2.88,2.88,0,0,1-2.87,2.87h-6.13a2.87,2.87,0,0,0-2.87,2.86v5.71a2.86,2.86,0,0,1-2.86,2.87h-7a2.86,2.86,0,0,1-2.87-2.87v-7a2.86,2.86,0,0,1,2.87-2.86h6.13a2.88,2.88,0,0,0,2.87-2.87v-5.71a2.87,2.87,0,0,1,2.86-2.87h7A2.88,2.88,0,0,1,1166.85,121.61Z"/><path class="cls-102" d="M1196.63,131.48h-6.13a2.86,2.86,0,0,0-2.86,2.86v5.71a2.87,2.87,0,0,1-2.87,2.87h-7a2.87,2.87,0,0,1-2.87-2.87V109.9a2.87,2.87,0,0,1,2.87-2.86h7a2.87,2.87,0,0,1,2.87,2.86v6a2.86,2.86,0,0,0,2.86,2.86h6.13a2.87,2.87,0,0,1,2.87,2.87v7A2.87,2.87,0,0,1,1196.63,131.48Z"/><path class="cls-103" d="M1232.15,121.61v7a2.87,2.87,0,0,1-2.86,2.87h-6.14a2.86,2.86,0,0,0-2.86,2.86v5.71a2.86,2.86,0,0,1-2.87,2.87h-7a2.86,2.86,0,0,1-2.86-2.87v-7a2.86,2.86,0,0,1,2.86-2.86h6.13a2.87,2.87,0,0,0,2.87-2.87v-4.68a2.86,2.86,0,0,0-2.87-2.87h-6.13a2.86,2.86,0,0,1-2.86-2.86v-7a2.86,2.86,0,0,1,2.86-2.86h7a2.86,2.86,0,0,1,2.87,2.86v6a2.86,2.86,0,0,0,2.86,2.86h6.14A2.87,2.87,0,0,1,1232.15,121.61Z"/><path class="cls-104" d="M1295.77,133.09v7a2.87,2.87,0,0,1-2.87,2.86h-7a2.87,2.87,0,0,1-2.87-2.86v-5.76a2.86,2.86,0,0,0-2.86-2.86H1274a2.87,2.87,0,0,1-2.86-2.87v-7a2.87,2.87,0,0,1,2.86-2.87h7a2.87,2.87,0,0,1,2.86,2.87v5.75a2.86,2.86,0,0,0,2.87,2.87h6.13A2.87,2.87,0,0,1,1295.77,133.09Z"/><path class="cls-105" d="M1315.69,142.92h-9a2.86,2.86,0,0,1-2.87-2.87v-7a2.86,2.86,0,0,1,2.87-2.86h6.13a2.88,2.88,0,0,0,2.87-2.87v-4.68a2.87,2.87,0,0,0-2.87-2.87h-6.13a2.86,2.86,0,0,1-2.87-2.86v-7a2.86,2.86,0,0,1,2.87-2.86h7a2.86,2.86,0,0,1,2.86,2.86v6a2.87,2.87,0,0,0,2.87,2.86h6.13a2.87,2.87,0,0,1,2.87,2.87V140.1a2.86,2.86,0,0,1-2.87,2.86h-9.86Z"/><path class="cls-106" d="M1372.91,121.61v7a2.87,2.87,0,0,1-2.86,2.87h-6.13a2.86,2.86,0,0,0-2.87,2.86v5.71a2.86,2.86,0,0,1-2.87,2.87h-7a2.86,2.86,0,0,1-2.86-2.87V121.61a2.87,2.87,0,0,1,2.86-2.87h18.87A2.87,2.87,0,0,1,1372.91,121.61Z"/><rect class="cls-107" x="1380.97" y="130.19" width="12.73" height="12.73" rx="2.87"/><path class="cls-108" d="M1426.35,130.23h9a2.86,2.86,0,0,1,2.87,2.86v7a2.86,2.86,0,0,1-2.87,2.86h-9.86v0h-9a2.86,2.86,0,0,1-2.87-2.87v-7a2.86,2.86,0,0,1,2.87-2.86h9.86Z"/><path class="cls-109" d="M1468,142.92h-7a2.86,2.86,0,0,1-2.86-2.87V121.61a2.87,2.87,0,0,1,2.86-2.87h18.87a2.87,2.87,0,0,1,2.86,2.87v7a2.87,2.87,0,0,1-2.86,2.87h-6.13a2.86,2.86,0,0,0-2.87,2.86v5.71A2.86,2.86,0,0,1,1468,142.92Z"/><rect class="cls-110" x="1490.77" y="130.19" width="12.73" height="12.73" rx="2.87"/><rect class="cls-111" x="1523.42" y="118.74" width="12.73" height="24.17" rx="2.87"/><path class="cls-112" d="M1565.07,131.48h-6.13a2.88,2.88,0,0,1-2.87-2.87v-7a2.88,2.88,0,0,1,2.87-2.87h7a2.88,2.88,0,0,1,2.87,2.87v5.75a2.86,2.86,0,0,0,2.86,2.87h6.14a2.86,2.86,0,0,1,2.86,2.86v7a2.86,2.86,0,0,1-2.86,2.86h-7a2.86,2.86,0,0,1-2.86-2.86v-5.76A2.86,2.86,0,0,0,1565.07,131.48Z"/><path class="cls-113" d="M1597.73,131.48h-6.14a2.87,2.87,0,0,1-2.86-2.87V109.9a2.86,2.86,0,0,1,2.86-2.86h7a2.86,2.86,0,0,1,2.87,2.86v6a2.86,2.86,0,0,0,2.87,2.86h6.13a2.87,2.87,0,0,1,2.86,2.87V140.1a2.86,2.86,0,0,1-2.86,2.86h-7a2.86,2.86,0,0,1-2.87-2.86v-5.76A2.86,2.86,0,0,0,1597.73,131.48Z"/><rect class="cls-114" x="1621.38" y="130.19" width="12.73" height="12.73" rx="2.87"/><path class="cls-115" d="M1663,131.48h-6.13a2.88,2.88,0,0,1-2.87-2.87V109.9a2.87,2.87,0,0,1,2.87-2.86h7a2.86,2.86,0,0,1,2.86,2.86v17.46a2.87,2.87,0,0,0,2.87,2.87h6.13a2.86,2.86,0,0,1,2.87,2.86v7a2.86,2.86,0,0,1-2.87,2.86h-7a2.86,2.86,0,0,1-2.86-2.86v-5.76A2.87,2.87,0,0,0,1663,131.48Z"/><path class="cls-116" d="M1695.68,131.48h-6.13a2.88,2.88,0,0,1-2.87-2.87V109.9a2.87,2.87,0,0,1,2.87-2.86h7a2.87,2.87,0,0,1,2.87,2.86v17.46a2.86,2.86,0,0,0,2.86,2.87h6.14a2.86,2.86,0,0,1,2.86,2.86v7a2.86,2.86,0,0,1-2.86,2.86h-7a2.86,2.86,0,0,1-2.86-2.86v-5.76A2.86,2.86,0,0,0,1695.68,131.48Z"/><path class="cls-117" d="M1734.07,118.74h7a2.87,2.87,0,0,1,2.86,2.87v7a2.87,2.87,0,0,1-2.86,2.87h-6.13a2.86,2.86,0,0,0-2.87,2.86v5.71a2.86,2.86,0,0,1-2.87,2.87h-7a2.86,2.86,0,0,1-2.86-2.87v-7a2.86,2.86,0,0,1,2.86-2.86h6.14a2.87,2.87,0,0,0,2.86-2.87v-5.71A2.87,2.87,0,0,1,1734.07,118.74Z"/><path class="cls-118" d="M1775.7,142.92h-9a2.87,2.87,0,0,1-2.87-2.87V109.9a2.87,2.87,0,0,1,2.87-2.86h7a2.87,2.87,0,0,1,2.87,2.86v17.46a2.86,2.86,0,0,0,2.86,2.87h6.13a2.86,2.86,0,0,1,2.87,2.86v7a2.86,2.86,0,0,1-2.87,2.86h-9.86Z"/><rect class="cls-119" x="1796.49" y="107.04" width="12.73" height="35.88" rx="2.87"/><rect class="cls-120" x="1829.14" y="130.19" width="12.73" height="12.73" rx="2.87"/><path class="cls-121" d="M1870.79,131.48h-6.13a2.87,2.87,0,0,1-2.87-2.87V109.9a2.86,2.86,0,0,1,2.87-2.86h7a2.86,2.86,0,0,1,2.86,2.86v6a2.87,2.87,0,0,0,2.87,2.86h6.13a2.88,2.88,0,0,1,2.87,2.87V140.1a2.87,2.87,0,0,1-2.87,2.86h-7a2.87,2.87,0,0,1-2.87-2.86v-5.76A2.86,2.86,0,0,0,1870.79,131.48Z"/><path class="cls-122" d="M1904.31,142.92h-7a2.87,2.87,0,0,1-2.87-2.87v-7a2.87,2.87,0,0,1,2.87-2.86h6.13a2.88,2.88,0,0,0,2.87-2.87v-5.71a2.87,2.87,0,0,1,2.86-2.87h7a2.87,2.87,0,0,1,2.87,2.87v7a2.87,2.87,0,0,1-2.87,2.87H1910a2.86,2.86,0,0,0-2.86,2.86v5.71A2.87,2.87,0,0,1,1904.31,142.92Z"/><rect class="cls-123" x="1927.1" y="130.19" width="12.73" height="12.73" rx="2.87"/><path class="cls-124" d="M61.86,88.28h-9A2.86,2.86,0,0,1,50,85.41v-7a2.86,2.86,0,0,1,2.87-2.86H59a2.87,2.87,0,0,0,2.86-2.87V68A2.86,2.86,0,0,0,59,65.13H52.87A2.86,2.86,0,0,1,50,62.27v-7a2.86,2.86,0,0,1,2.87-2.86h7a2.86,2.86,0,0,1,2.86,2.86v6A2.87,2.87,0,0,0,65.6,64.1h6.13A2.88,2.88,0,0,1,74.6,67V85.45a2.87,2.87,0,0,1-2.87,2.87H61.86Z"/><path class="cls-125" d="M92.52,88.28h-7a2.87,2.87,0,0,1-2.87-2.87v-7a2.87,2.87,0,0,1,2.87-2.86h6.13a2.88,2.88,0,0,0,2.87-2.87V68a2.87,2.87,0,0,0-2.87-2.87H85.52a2.87,2.87,0,0,1-2.87-2.86v-7a2.87,2.87,0,0,1,2.87-2.86h7a2.87,2.87,0,0,1,2.87,2.86v6a2.86,2.86,0,0,0,2.86,2.86h6.13A2.87,2.87,0,0,1,107.25,67v7a2.87,2.87,0,0,1-2.87,2.87H98.25a2.86,2.86,0,0,0-2.86,2.86v5.71A2.87,2.87,0,0,1,92.52,88.28Z"/><path class="cls-126" d="M127.17,88.28h-9a2.87,2.87,0,0,1-2.87-2.87v-7a2.87,2.87,0,0,1,2.87-2.86h6.13a2.87,2.87,0,0,0,2.87-2.87V68a2.86,2.86,0,0,0-2.87-2.87h-6.13a2.87,2.87,0,0,1-2.87-2.86v-7a2.87,2.87,0,0,1,2.87-2.86h7A2.87,2.87,0,0,1,128,55.26v6a2.86,2.86,0,0,0,2.86,2.86H137A2.87,2.87,0,0,1,139.9,67V85.45A2.86,2.86,0,0,1,137,88.32h-9.87Z"/><rect class="cls-127" x="147.96" y="52.4" width="24.6" height="12.73" rx="2.87"/><rect class="cls-128" x="147.96" y="75.55" width="12.73" height="12.73" rx="2.87"/><rect class="cls-129" x="180.61" y="52.4" width="12.73" height="12.73" rx="2.87"/><path class="cls-130" d="M192.47,88.28h-9a2.86,2.86,0,0,1-2.87-2.87v-7a2.86,2.86,0,0,1,2.87-2.86h9.86v0h9a2.87,2.87,0,0,1,2.87,2.86v7a2.87,2.87,0,0,1-2.87,2.87h-9.87Z"/><rect class="cls-131" x="213.26" y="52.4" width="12.73" height="12.73" rx="2.87"/><path class="cls-132" d="M225.13,88.28h-9a2.87,2.87,0,0,1-2.87-2.87v-7a2.87,2.87,0,0,1,2.87-2.86H226v0h9a2.86,2.86,0,0,1,2.87,2.86v7A2.86,2.86,0,0,1,235,88.32h-9.86Z"/><path class="cls-133" d="M257.78,88.28h-9a2.86,2.86,0,0,1-2.86-2.87v-7a2.86,2.86,0,0,1,2.86-2.86h6.13a2.87,2.87,0,0,0,2.87-2.87V68a2.86,2.86,0,0,0-2.87-2.87h-6.13a2.86,2.86,0,0,1-2.86-2.86v-7a2.86,2.86,0,0,1,2.86-2.86h18.87a2.86,2.86,0,0,1,2.86,2.86V85.45a2.86,2.86,0,0,1-2.86,2.87h-9.87Z"/><path class="cls-134" d="M299.41,76.84h-6.13A2.87,2.87,0,0,1,290.41,74V67a2.87,2.87,0,0,1,2.87-2.87h7A2.87,2.87,0,0,1,303.14,67v5.75A2.88,2.88,0,0,0,306,75.59h6.13A2.87,2.87,0,0,1,315,78.45v7a2.87,2.87,0,0,1-2.87,2.87h-7a2.87,2.87,0,0,1-2.87-2.87V79.7A2.86,2.86,0,0,0,299.41,76.84Z"/><path class="cls-135" d="M334.93,88.28h-9a2.87,2.87,0,0,1-2.87-2.87v-7a2.87,2.87,0,0,1,2.87-2.86h6.13a2.88,2.88,0,0,0,2.87-2.87V67a2.87,2.87,0,0,1,2.86-2.87h7A2.87,2.87,0,0,1,347.66,67V85.45a2.86,2.86,0,0,1-2.87,2.87h-9.86Z"/><path class="cls-136" d="M398.54,88.28h-9a2.86,2.86,0,0,1-2.86-2.87V67a2.87,2.87,0,0,1,2.86-2.87h7A2.87,2.87,0,0,1,399.41,67v5.75a2.87,2.87,0,0,0,2.86,2.87h6.14a2.86,2.86,0,0,1,2.86,2.86v7a2.86,2.86,0,0,1-2.86,2.87h-9.87Z"/><rect class="cls-137" x="419.33" y="75.55" width="12.73" height="12.73" rx="2.87"/><path class="cls-138" d="M463.84,88.28h-9A2.86,2.86,0,0,1,452,85.41v-7a2.86,2.86,0,0,1,2.87-2.86h9.86v0h9a2.87,2.87,0,0,1,2.87,2.86v7a2.87,2.87,0,0,1-2.87,2.87h-9.87Z"/><path class="cls-139" d="M493.63,76.84H487.5A2.88,2.88,0,0,1,484.63,74V67a2.88,2.88,0,0,1,2.87-2.87h7A2.88,2.88,0,0,1,497.37,67v5.75a2.87,2.87,0,0,0,2.86,2.87h6.13a2.86,2.86,0,0,1,2.87,2.86v7a2.86,2.86,0,0,1-2.87,2.87h-7a2.86,2.86,0,0,1-2.86-2.87V79.7A2.87,2.87,0,0,0,493.63,76.84Z"/><rect class="cls-140" x="517.29" y="52.4" width="12.73" height="35.88" rx="2.87"/><path class="cls-141" d="M558.94,76.84H552.8A2.87,2.87,0,0,1,549.94,74V67a2.87,2.87,0,0,1,2.86-2.87h7A2.87,2.87,0,0,1,562.67,67v5.75a2.87,2.87,0,0,0,2.87,2.87h6.13a2.86,2.86,0,0,1,2.86,2.86v7a2.86,2.86,0,0,1-2.86,2.87h-7a2.87,2.87,0,0,1-2.87-2.87V79.7A2.86,2.86,0,0,0,558.94,76.84Z"/><path class="cls-142" d="M591.59,76.84h-6.13A2.87,2.87,0,0,1,582.59,74V55.26a2.86,2.86,0,0,1,2.87-2.86h7a2.86,2.86,0,0,1,2.86,2.86V72.72a2.88,2.88,0,0,0,2.87,2.87h6.13a2.87,2.87,0,0,1,2.87,2.86v7a2.87,2.87,0,0,1-2.87,2.87h-7a2.87,2.87,0,0,1-2.87-2.87V79.7A2.86,2.86,0,0,0,591.59,76.84Z"/><path class="cls-143" d="M624.24,76.84h-6.13A2.88,2.88,0,0,1,615.24,74V67a2.88,2.88,0,0,1,2.87-2.87h7A2.88,2.88,0,0,1,628,67v5.75a2.87,2.87,0,0,0,2.86,2.87H637a2.86,2.86,0,0,1,2.87,2.86v7A2.86,2.86,0,0,1,637,88.32h-7a2.86,2.86,0,0,1-2.86-2.87V79.7A2.87,2.87,0,0,0,624.24,76.84Z"/><path class="cls-144" d="M656.89,76.84h-6.13A2.87,2.87,0,0,1,647.9,74V55.26a2.86,2.86,0,0,1,2.86-2.86h7a2.86,2.86,0,0,1,2.87,2.86V72.72a2.87,2.87,0,0,0,2.86,2.87h6.14a2.86,2.86,0,0,1,2.86,2.86v7a2.86,2.86,0,0,1-2.86,2.87h-7a2.86,2.86,0,0,1-2.87-2.87V79.7A2.86,2.86,0,0,0,656.89,76.84Z"/><path class="cls-145" d="M704.26,88.28h-9a2.86,2.86,0,0,1-2.87-2.87v-7a2.86,2.86,0,0,1,2.87-2.86h6.13a2.88,2.88,0,0,0,2.87-2.87V68a2.87,2.87,0,0,0-2.87-2.87h-6.13a2.86,2.86,0,0,1-2.87-2.86v-7a2.86,2.86,0,0,1,2.87-2.86h7a2.86,2.86,0,0,1,2.86,2.86v6A2.87,2.87,0,0,0,708,64.1h6.13A2.88,2.88,0,0,1,717,67V85.45a2.87,2.87,0,0,1-2.87,2.87h-9.86Z"/><path class="cls-146" d="M734.91,88.28h-7A2.87,2.87,0,0,1,725,85.41v-7a2.87,2.87,0,0,1,2.87-2.86H734a2.88,2.88,0,0,0,2.87-2.87V68A2.87,2.87,0,0,0,734,65.13h-6.13A2.87,2.87,0,0,1,725,62.27v-7a2.87,2.87,0,0,1,2.87-2.86h7a2.87,2.87,0,0,1,2.87,2.86v6a2.86,2.86,0,0,0,2.86,2.86h6.13A2.87,2.87,0,0,1,749.64,67v7a2.87,2.87,0,0,1-2.87,2.87h-6.13a2.86,2.86,0,0,0-2.86,2.86v5.71A2.87,2.87,0,0,1,734.91,88.28Z"/><path class="cls-147" d="M769.56,88.28h-9a2.86,2.86,0,0,1-2.86-2.87v-7a2.86,2.86,0,0,1,2.86-2.86h6.13a2.87,2.87,0,0,0,2.87-2.87V68a2.86,2.86,0,0,0-2.87-2.87h-6.13a2.86,2.86,0,0,1-2.86-2.86v-7a2.86,2.86,0,0,1,2.86-2.86h7a2.86,2.86,0,0,1,2.87,2.86v6a2.86,2.86,0,0,0,2.86,2.86h6.14A2.87,2.87,0,0,1,782.29,67V85.45a2.86,2.86,0,0,1-2.86,2.87h-9.87Z"/><rect class="cls-148" x="821.31" y="64.1" width="12.73" height="24.17" rx="2.87"/><rect class="cls-149" x="853.96" y="52.4" width="12.73" height="35.88" rx="2.87"/><rect class="cls-150" x="886.61" y="75.55" width="12.73" height="12.73" rx="2.87"/><path class="cls-151" d="M931.13,88.28h-9a2.86,2.86,0,0,1-2.86-2.87v-7a2.86,2.86,0,0,1,2.86-2.86h6.14a2.87,2.87,0,0,0,2.86-2.87V68a2.86,2.86,0,0,0-2.86-2.87h-6.14a2.86,2.86,0,0,1-2.86-2.86v-7a2.86,2.86,0,0,1,2.86-2.86h7A2.86,2.86,0,0,1,932,55.26v6a2.86,2.86,0,0,0,2.86,2.86H941A2.87,2.87,0,0,1,943.86,67V85.45A2.86,2.86,0,0,1,941,88.32h-9.87Z"/><path class="cls-152" d="M963.78,88.28h-9a2.86,2.86,0,0,1-2.86-2.87v-7a2.86,2.86,0,0,1,2.86-2.86h6.14a2.87,2.87,0,0,0,2.86-2.87V67a2.88,2.88,0,0,1,2.87-2.87h7A2.88,2.88,0,0,1,976.52,67V85.45a2.87,2.87,0,0,1-2.87,2.87h-9.87Z"/><path class="cls-153" d="M993.57,76.84h-6.13A2.87,2.87,0,0,1,984.57,74V67a2.87,2.87,0,0,1,2.87-2.87h7A2.87,2.87,0,0,1,997.3,67v5.75a2.88,2.88,0,0,0,2.87,2.87h6.13a2.86,2.86,0,0,1,2.87,2.86v7a2.86,2.86,0,0,1-2.87,2.87h-7a2.86,2.86,0,0,1-2.86-2.87V79.7A2.87,2.87,0,0,0,993.57,76.84Z"/><path class="cls-154" d="M1026.22,76.84h-6.13a2.88,2.88,0,0,1-2.87-2.87V55.26a2.87,2.87,0,0,1,2.87-2.86h7a2.87,2.87,0,0,1,2.87,2.86v6a2.86,2.86,0,0,0,2.86,2.86H1039a2.87,2.87,0,0,1,2.86,2.87V85.45a2.86,2.86,0,0,1-2.86,2.87h-7a2.86,2.86,0,0,1-2.86-2.87V79.7A2.86,2.86,0,0,0,1026.22,76.84Z"/><rect class="cls-155" x="1061.72" y="75.55" width="12.73" height="12.73" rx="2.87"/><path class="cls-156" d="M1106.24,88.28h-9a2.87,2.87,0,0,1-2.87-2.87v-7a2.87,2.87,0,0,1,2.87-2.86h9.86v0h9a2.86,2.86,0,0,1,2.87,2.86v7a2.86,2.86,0,0,1-2.87,2.87h-9.86Z"/><path class="cls-157" d="M1169.85,88.28h-9a2.86,2.86,0,0,1-2.86-2.87v-7a2.86,2.86,0,0,1,2.86-2.86H1167a2.87,2.87,0,0,0,2.87-2.87V67a2.87,2.87,0,0,1,2.86-2.87h7a2.87,2.87,0,0,1,2.86,2.87V85.45a2.86,2.86,0,0,1-2.86,2.87h-9.87Z"/><path class="cls-158" d="M1200.5,88.28h-7a2.86,2.86,0,0,1-2.86-2.87v-7a2.86,2.86,0,0,1,2.86-2.86h6.14a2.87,2.87,0,0,0,2.86-2.87V68a2.86,2.86,0,0,0-2.86-2.87h-6.14a2.86,2.86,0,0,1-2.86-2.86v-7a2.86,2.86,0,0,1,2.86-2.86h7a2.86,2.86,0,0,1,2.87,2.86v6a2.86,2.86,0,0,0,2.87,2.86h6.13a2.87,2.87,0,0,1,2.86,2.87v7a2.87,2.87,0,0,1-2.86,2.87h-6.13a2.86,2.86,0,0,0-2.87,2.86v5.71A2.86,2.86,0,0,1,1200.5,88.28Z"/><rect class="cls-159" x="1223.29" y="52.4" width="12.73" height="35.88" rx="2.87"/><path class="cls-160" d="M1265.81,88.28h-7a2.87,2.87,0,0,1-2.87-2.87v-7a2.87,2.87,0,0,1,2.87-2.86h6.13a2.88,2.88,0,0,0,2.87-2.87V68a2.87,2.87,0,0,0-2.87-2.87h-6.13a2.87,2.87,0,0,1-2.87-2.86v-7a2.87,2.87,0,0,1,2.87-2.86h7a2.87,2.87,0,0,1,2.87,2.86v6a2.86,2.86,0,0,0,2.86,2.86h6.13a2.87,2.87,0,0,1,2.87,2.87v7a2.87,2.87,0,0,1-2.87,2.87h-6.13a2.86,2.86,0,0,0-2.86,2.86v5.71A2.87,2.87,0,0,1,1265.81,88.28Z"/><path class="cls-161" d="M1298.46,88.28h-7a2.86,2.86,0,0,1-2.86-2.87V55.26a2.86,2.86,0,0,1,2.86-2.86h7a2.87,2.87,0,0,1,2.87,2.86v6a2.86,2.86,0,0,0,2.86,2.86h6.14a2.87,2.87,0,0,1,2.86,2.87v7a2.87,2.87,0,0,1-2.86,2.87h-6.14a2.86,2.86,0,0,0-2.86,2.86v5.71A2.87,2.87,0,0,1,1298.46,88.28Z"/><path class="cls-162" d="M1361.21,76.84h-6.14a2.87,2.87,0,0,1-2.86-2.87V55.26a2.86,2.86,0,0,1,2.86-2.86h7a2.86,2.86,0,0,1,2.86,2.86V72.72a2.87,2.87,0,0,0,2.87,2.87h6.13a2.86,2.86,0,0,1,2.86,2.86v7a2.86,2.86,0,0,1-2.86,2.87h-7a2.87,2.87,0,0,1-2.87-2.87V79.7A2.86,2.86,0,0,0,1361.21,76.84Z"/><rect class="cls-163" x="1384.86" y="52.4" width="24.6" height="12.73" rx="2.87"/><rect class="cls-164" x="1384.86" y="75.55" width="12.73" height="12.73" rx="2.87"/><path class="cls-165" d="M1426.51,76.84h-6.13a2.88,2.88,0,0,1-2.87-2.87V55.26a2.87,2.87,0,0,1,2.87-2.86h7a2.87,2.87,0,0,1,2.87,2.86V72.72a2.87,2.87,0,0,0,2.86,2.87h6.13a2.86,2.86,0,0,1,2.87,2.86v7a2.86,2.86,0,0,1-2.87,2.87h-7a2.86,2.86,0,0,1-2.86-2.87V79.7A2.87,2.87,0,0,0,1426.51,76.84Z"/><path class="cls-166" d="M1462,88.28h-9a2.86,2.86,0,0,1-2.86-2.87V55.26A2.86,2.86,0,0,1,1453,52.4h7a2.86,2.86,0,0,1,2.87,2.86V72.72a2.87,2.87,0,0,0,2.86,2.87h6.14a2.86,2.86,0,0,1,2.86,2.86v7a2.86,2.86,0,0,1-2.86,2.87H1462Z"/><path class="cls-167" d="M1492.69,88.28h-7a2.86,2.86,0,0,1-2.86-2.87v-7a2.86,2.86,0,0,1,2.86-2.86h6.14a2.87,2.87,0,0,0,2.86-2.87V67a2.88,2.88,0,0,1,2.87-2.87h7a2.88,2.88,0,0,1,2.87,2.87v7a2.88,2.88,0,0,1-2.87,2.87h-6.13a2.86,2.86,0,0,0-2.87,2.86v5.71A2.86,2.86,0,0,1,1492.69,88.28Z"/><path class="cls-168" d="M1527.33,88.28h-9a2.86,2.86,0,0,1-2.87-2.87v-7a2.86,2.86,0,0,1,2.87-2.86h6.13a2.87,2.87,0,0,0,2.86-2.87V68a2.86,2.86,0,0,0-2.86-2.87h-6.13a2.86,2.86,0,0,1-2.87-2.86v-7a2.86,2.86,0,0,1,2.87-2.86h7a2.86,2.86,0,0,1,2.86,2.86v6a2.87,2.87,0,0,0,2.87,2.86h6.13a2.88,2.88,0,0,1,2.87,2.87V85.45a2.87,2.87,0,0,1-2.87,2.87h-9.87Z"/><path class="cls-169" d="M1560,88.28h-9a2.87,2.87,0,0,1-2.87-2.87v-7a2.87,2.87,0,0,1,2.87-2.86h6.13a2.88,2.88,0,0,0,2.87-2.87V67a2.87,2.87,0,0,1,2.86-2.87h7a2.87,2.87,0,0,1,2.87,2.87V85.45a2.86,2.86,0,0,1-2.87,2.87H1560Z"/><path class="cls-170" d="M1589.77,76.84h-6.13a2.87,2.87,0,0,1-2.86-2.87V67a2.87,2.87,0,0,1,2.86-2.87h7a2.87,2.87,0,0,1,2.87,2.87v5.75a2.87,2.87,0,0,0,2.86,2.87h6.14a2.86,2.86,0,0,1,2.86,2.86v7a2.86,2.86,0,0,1-2.86,2.87h-7a2.86,2.86,0,0,1-2.87-2.87V79.7A2.86,2.86,0,0,0,1589.77,76.84Z"/><path class="cls-171" d="M1622.43,76.84h-6.14a2.87,2.87,0,0,1-2.86-2.87V55.26a2.86,2.86,0,0,1,2.86-2.86h7a2.86,2.86,0,0,1,2.86,2.86V72.72a2.87,2.87,0,0,0,2.87,2.87h6.13a2.87,2.87,0,0,1,2.87,2.86v7a2.87,2.87,0,0,1-2.87,2.87h-7a2.87,2.87,0,0,1-2.87-2.87V79.7A2.86,2.86,0,0,0,1622.43,76.84Z"/><path class="cls-172" d="M1655.08,76.84H1649a2.87,2.87,0,0,1-2.87-2.87V55.26A2.86,2.86,0,0,1,1649,52.4h7a2.86,2.86,0,0,1,2.86,2.86V72.72a2.88,2.88,0,0,0,2.87,2.87h6.13a2.87,2.87,0,0,1,2.87,2.86v7a2.87,2.87,0,0,1-2.87,2.87h-7a2.87,2.87,0,0,1-2.87-2.87V79.7A2.86,2.86,0,0,0,1655.08,76.84Z"/><path class="cls-173" d="M1688.6,88.28h-7a2.87,2.87,0,0,1-2.87-2.87v-7a2.87,2.87,0,0,1,2.87-2.86h6.13a2.88,2.88,0,0,0,2.87-2.87V67a2.87,2.87,0,0,1,2.86-2.87h7a2.87,2.87,0,0,1,2.87,2.87v7a2.87,2.87,0,0,1-2.87,2.87h-6.13a2.86,2.86,0,0,0-2.86,2.86v5.71A2.87,2.87,0,0,1,1688.6,88.28Z"/><path class="cls-174" d="M1735.09,88.28h-9a2.86,2.86,0,0,1-2.86-2.87V55.26a2.86,2.86,0,0,1,2.86-2.86h7a2.86,2.86,0,0,1,2.86,2.86V72.72a2.87,2.87,0,0,0,2.87,2.87H1745a2.87,2.87,0,0,1,2.87,2.86v7a2.87,2.87,0,0,1-2.87,2.87h-9.87Z"/><path class="cls-175" d="M1765.75,88.28h-7a2.86,2.86,0,0,1-2.87-2.87v-7a2.86,2.86,0,0,1,2.87-2.86h6.13a2.88,2.88,0,0,0,2.87-2.87V68a2.87,2.87,0,0,0-2.87-2.87h-6.13a2.86,2.86,0,0,1-2.87-2.86v-7a2.86,2.86,0,0,1,2.87-2.86h7a2.86,2.86,0,0,1,2.86,2.86v6a2.87,2.87,0,0,0,2.87,2.86h6.13a2.88,2.88,0,0,1,2.87,2.87v7a2.88,2.88,0,0,1-2.87,2.87h-6.13a2.87,2.87,0,0,0-2.87,2.86v5.71A2.86,2.86,0,0,1,1765.75,88.28Z"/><path class="cls-176" d="M1797.53,76.84h-6.13a2.88,2.88,0,0,1-2.87-2.87V55.26a2.87,2.87,0,0,1,2.87-2.86h7a2.87,2.87,0,0,1,2.87,2.86v6a2.86,2.86,0,0,0,2.86,2.86h6.13a2.87,2.87,0,0,1,2.87,2.87V85.45a2.86,2.86,0,0,1-2.87,2.87h-7a2.86,2.86,0,0,1-2.86-2.87V79.7A2.87,2.87,0,0,0,1797.53,76.84Z"/><path class="cls-177" d="M1831.05,88.28h-7a2.86,2.86,0,0,1-2.86-2.87v-7a2.86,2.86,0,0,1,2.86-2.86h6.13a2.87,2.87,0,0,0,2.87-2.87V67a2.87,2.87,0,0,1,2.87-2.87h7a2.87,2.87,0,0,1,2.86,2.87v7a2.87,2.87,0,0,1-2.86,2.87h-6.14a2.86,2.86,0,0,0-2.86,2.86v5.71A2.86,2.86,0,0,1,1831.05,88.28Z"/><path class="cls-178" d="M1865.7,88.28h-9a2.86,2.86,0,0,1-2.86-2.87v-7a2.86,2.86,0,0,1,2.86-2.86h6.14a2.87,2.87,0,0,0,2.86-2.87V68a2.86,2.86,0,0,0-2.86-2.87h-6.14a2.86,2.86,0,0,1-2.86-2.86v-7a2.86,2.86,0,0,1,2.86-2.86h7a2.86,2.86,0,0,1,2.86,2.86v6a2.86,2.86,0,0,0,2.87,2.86h6.13a2.88,2.88,0,0,1,2.87,2.87V85.45a2.87,2.87,0,0,1-2.87,2.87h-9.87Z"/><path class="cls-179" d="M1895.49,76.84h-6.13a2.87,2.87,0,0,1-2.87-2.87V55.26a2.86,2.86,0,0,1,2.87-2.86h7a2.86,2.86,0,0,1,2.86,2.86v6a2.87,2.87,0,0,0,2.87,2.86h6.13a2.88,2.88,0,0,1,2.87,2.87V85.45a2.87,2.87,0,0,1-2.87,2.87h-7a2.87,2.87,0,0,1-2.87-2.87V79.7A2.86,2.86,0,0,0,1895.49,76.84Z"/><path class="cls-180" d="M1928.14,82.57h-.2a2.86,2.86,0,0,1-2.86-2.87,2.87,2.87,0,0,0-2.87-2.86h-.2a2.88,2.88,0,0,1-2.87-2.87V67A2.88,2.88,0,0,1,1922,64.1h7a2.88,2.88,0,0,1,2.87,2.87,2.87,2.87,0,0,0,2.86,2.87h.2a2.86,2.86,0,0,1,2.87,2.86v0a2.87,2.87,0,0,0,2.86,2.87h.2a2.86,2.86,0,0,1,2.87,2.86v7a2.86,2.86,0,0,1-2.87,2.87h-7a2.86,2.86,0,0,1-2.86-2.87v0A2.87,2.87,0,0,0,1928.14,82.57Z"/></svg>