<svg id="Chart" xmlns="http://www.w3.org/2000/svg" viewBox="0 0 2000 250"><defs><style>.cls-1,.cls-2{fill:none;}.cls-1{stroke:#fff;stroke-miterlimit:10;stroke-width:0.33px;}.cls-2{stroke:#dd1920;stroke-linecap:round;stroke-linejoin:round;stroke-width:9.91px;}</style></defs><path class="cls-1" d="M50,197.28v0Z"/><path class="cls-1" d="M78.87,53.31s4.4,32,9.86,71.69l9.85,71.69L88.73,125C83.27,85.33,78.87,53.31,78.87,53.31Z"/><path class="cls-1" d="M147,194.94,127.45,125,107.9,55.06,127.45,125Z"/><path class="cls-1" d="M137.25,58,166.18,125l28.92,67.05L166.18,125Z"/><path class="cls-1" d="M242.73,188.07S225.84,159.9,204.9,125L167.07,61.93,204.9,125C225.84,159.9,242.73,188.07,242.73,188.07Z"/><path class="cls-1" d="M197.5,66.93,243.63,125l46.12,58.07L243.63,125Z"/><path class="cls-1" d="M336,177.12,282.35,125,228.69,72.88,282.35,125Z"/><path class="cls-1" d="M260.74,79.68,321.08,125l60.33,45.32L321.08,125Z"/><path class="cls-1" d="M425.83,162.79,359.8,125l-66-37.79,66,37.79Z"/><path class="cls-1" d="M327.89,95.36,398.53,125l70.64,29.64L398.53,125Z"/><path class="cls-1" d="M511.36,146l-74.1-21-74.11-21,74.11,21Z"/><path class="cls-1" d="M399.61,113,476,125l76.37,12L476,125Z"/><path class="cls-1" d="M592.1,127.88,514.71,125l-77.39-2.88L514.71,125Z"/><path class="cls-1" d="M476.28,131.34,553.43,125l77.16-6.34L553.43,125Z"/><path class="cls-1" d="M667.82,109.55,592.16,125,516.5,140.45,592.16,125Z"/><path class="cls-1" d="M557.94,149.31,630.88,125l72.94-24.31L630.88,125Z"/><path class="cls-1" d="M738.64,92.23l-69,32.77-69,32.77,69-32.77Z"/><path class="cls-1" d="M644.33,165.7l64-40.7,64-40.7-64,40.7Z"/><path class="cls-1" d="M805,77l-57.94,48-57.94,48,57.94-48Z"/><path class="cls-1" d="M734.86,179.46,785.79,125C814,94.86,836.71,70.54,836.71,70.54S814,94.86,785.79,125Z"/><path class="cls-1" d="M867.6,64.93,824.51,125l-43.08,60.07L824.51,125Z"/><path class="cls-1" d="M828.69,189.69,863.24,125l34.54-64.69L863.24,125Z"/><path class="cls-1" d="M927.41,56.73S916,87.22,902,125l-25.44,68.27L902,125C916,87.22,927.41,56.73,927.41,56.73Z"/><path class="cls-1" d="M924.76,195.74s7.11-31.6,15.93-70.74,15.93-70.74,15.93-70.74S949.5,85.86,940.69,125,924.76,195.74,924.76,195.74Z"/><path class="cls-1" d="M985.57,53s-2.75,32.18-6.16,72.05-6.15,72.05-6.15,72.05S976,164.87,979.41,125,985.57,53,985.57,53Z"/><path class="cls-1" d="M1021.86,197.2s-1.66-32.25-3.72-72.2-3.72-72.2-3.72-72.2,1.66,32.25,3.72,72.2S1021.86,197.2,1021.86,197.2Z"/><path class="cls-1" d="M1043.34,53.83s6,31.79,13.53,71.17l13.52,71.17L1056.87,125C1049.38,85.62,1043.34,53.83,1043.34,53.83Z"/><path class="cls-1" d="M1118.71,194s-10.32-30.82-23.12-69l-23.12-69,23.12,69C1108.39,163.17,1118.71,194,1118.71,194Z"/><path class="cls-1" d="M1102,59.32s14.44,29.34,32.34,65.68l32.34,65.68L1134.32,125C1116.42,88.66,1102,59.32,1102,59.32Z"/><path class="cls-1" d="M1214.07,186.31s-18.32-27.39-41-61.31l-41-61.31L1173,125C1195.75,158.92,1214.07,186.31,1214.07,186.31Z"/><path class="cls-1" d="M1162.71,69.06,1211.77,125l49,55.94-49-55.94Z"/><path class="cls-1" d="M1306.78,174.66,1250.49,125l-56.28-49.66L1250.49,125Z"/><path class="cls-1" d="M1226.62,82.43l62.6,42.57,62.59,42.57L1289.22,125Z"/><path class="cls-1" d="M1395.83,159.79,1327.94,125l-67.89-34.79L1327.94,125Z"/><path class="cls-1" d="M1294.59,98.56,1366.67,125l72.08,26.44L1366.67,125Z"/><path class="cls-1" d="M1480.5,142.67,1405.4,125l-75.11-17.67L1405.4,125Z"/><path class="cls-1" d="M1367.22,116.39l76.9,8.61,76.9,8.61-76.9-8.61Z"/><path class="cls-1" d="M1560.3,124.41l-77.45.59-77.45.59,77.45-.59Z"/><path class="cls-1" d="M1444.83,134.78l76.74-9.78,76.74-9.78L1521.57,125Z"/><path class="cls-1" d="M1635.08,106.18,1560.3,125l-74.78,18.82L1560.3,125Z"/><path class="cls-1" d="M1527.42,152.54,1599,125l71.61-27.54L1599,125Z"/><path class="cls-1" d="M1705,89.18,1637.75,125l-67.27,35.82L1637.75,125Z"/><path class="cls-1" d="M1614.64,168.52,1676.47,125l61.84-43.52L1676.47,125Z"/><path class="cls-1" d="M1770.6,74.49,1715.2,125l-55.4,50.51L1715.2,125Z"/><path class="cls-1" d="M1705.86,181.68,1753.93,125,1802,68.32,1753.93,125Z"/><path class="cls-1" d="M1832.6,63.07,1792.65,125c-22.1,34.27-40,61.93-40,61.93s17.85-27.66,40-61.93Z"/><path class="cls-1" d="M1800.2,191.17s13.92-29.56,31.18-66.17l31.18-66.17L1831.38,125C1814.12,161.61,1800.2,191.17,1800.2,191.17Z"/><path class="cls-1" d="M1892,55.67,1870.1,125l-21.9,69.33L1870.1,125Z"/><path class="cls-1" d="M1896.55,196.37s5.49-31.88,12.28-71.37l12.27-71.37L1908.83,125C1902,164.49,1896.55,196.37,1896.55,196.37Z"/><path class="cls-1" d="M1950,52.75S1948.91,85,1947.55,125l-2.44,72.25,2.44-72.25C1948.91,85,1950,52.75,1950,52.75Z"/><line class="cls-2" x1="50" y1="197.28" x2="50" y2="197.28"/><line class="cls-2" x1="50" y1="52.72" x2="50" y2="52.72"/><line class="cls-2" x1="78.87" y1="53.31" x2="78.87" y2="53.31"/><line class="cls-2" x1="98.58" y1="196.69" x2="98.58" y2="196.69"/><line class="cls-2" x1="147" y1="194.94" x2="147" y2="194.94"/><line class="cls-2" x1="107.9" y1="55.06" x2="107.9" y2="55.06"/><line class="cls-2" x1="137.25" y1="57.95" x2="137.25" y2="57.95"/><line class="cls-2" x1="195.1" y1="192.05" x2="195.1" y2="192.05"/><line class="cls-2" x1="242.73" y1="188.07" x2="242.73" y2="188.07"/><line class="cls-2" x1="167.07" y1="61.93" x2="167.07" y2="61.93"/><line class="cls-2" x1="197.5" y1="66.93" x2="197.5" y2="66.93"/><line class="cls-2" x1="289.75" y1="183.07" x2="289.75" y2="183.07"/><line class="cls-2" x1="336.02" y1="177.12" x2="336.02" y2="177.12"/><line class="cls-2" x1="228.69" y1="72.88" x2="228.69" y2="72.88"/><line class="cls-2" x1="260.74" y1="79.68" x2="260.74" y2="79.68"/><line class="cls-2" x1="381.41" y1="170.32" x2="381.41" y2="170.32"/><line class="cls-2" x1="425.83" y1="162.79" x2="425.83" y2="162.79"/><line class="cls-2" x1="293.78" y1="87.21" x2="293.78" y2="87.21"/><line class="cls-2" x1="327.89" y1="95.36" x2="327.89" y2="95.36"/><line class="cls-2" x1="469.17" y1="154.64" x2="469.17" y2="154.64"/><line class="cls-2" x1="511.36" y1="146.01" x2="511.36" y2="146.01"/><line class="cls-2" x1="363.15" y1="103.99" x2="363.15" y2="103.99"/><line class="cls-2" x1="399.61" y1="112.96" x2="399.61" y2="112.96"/><line class="cls-2" x1="552.35" y1="137.04" x2="552.35" y2="137.04"/><line class="cls-2" x1="592.1" y1="127.88" x2="592.1" y2="127.88"/><line class="cls-2" x1="437.32" y1="122.12" x2="437.32" y2="122.12"/><line class="cls-2" x1="476.28" y1="131.34" x2="476.28" y2="131.34"/><line class="cls-2" x1="630.59" y1="118.66" x2="630.59" y2="118.66"/><line class="cls-2" x1="667.82" y1="109.55" x2="667.82" y2="109.55"/><line class="cls-2" x1="516.5" y1="140.45" x2="516.5" y2="140.45"/><line class="cls-2" x1="557.94" y1="149.31" x2="557.94" y2="149.31"/><line class="cls-2" x1="703.82" y1="100.69" x2="703.82" y2="100.69"/><line class="cls-2" x1="738.64" y1="92.23" x2="738.64" y2="92.23"/><line class="cls-2" x1="600.58" y1="157.77" x2="600.58" y2="157.77"/><line class="cls-2" x1="644.33" y1="165.7" x2="644.33" y2="165.7"/><line class="cls-2" x1="772.34" y1="84.3" x2="772.34" y2="84.3"/><line class="cls-2" x1="805" y1="77.03" x2="805" y2="77.03"/><line class="cls-2" x1="689.12" y1="172.97" x2="689.12" y2="172.97"/><line class="cls-2" x1="734.86" y1="179.46" x2="734.86" y2="179.46"/><line class="cls-2" x1="836.71" y1="70.54" x2="836.71" y2="70.54"/><line class="cls-2" x1="867.6" y1="64.93" x2="867.6" y2="64.93"/><line class="cls-2" x1="781.43" y1="185.07" x2="781.43" y2="185.07"/><line class="cls-2" x1="828.69" y1="189.69" x2="828.69" y2="189.69"/><line class="cls-2" x1="897.78" y1="60.31" x2="897.78" y2="60.31"/><line class="cls-2" x1="927.41" y1="56.73" x2="927.41" y2="56.73"/><line class="cls-2" x1="876.52" y1="193.27" x2="876.52" y2="193.27"/><line class="cls-2" x1="924.76" y1="195.74" x2="924.76" y2="195.74"/><line class="cls-2" x1="956.62" y1="54.26" x2="956.62" y2="54.26"/><line class="cls-2" x1="985.57" y1="52.95" x2="985.57" y2="52.95"/><line class="cls-2" x1="973.26" y1="197.05" x2="973.26" y2="197.05"/><line class="cls-2" x1="1021.86" y1="197.2" x2="1021.86" y2="197.2"/><line class="cls-2" x1="1014.42" y1="52.8" x2="1014.42" y2="52.8"/><line class="cls-2" x1="1043.34" y1="53.83" x2="1043.34" y2="53.83"/><line class="cls-2" x1="1070.39" y1="196.17" x2="1070.39" y2="196.17"/><line class="cls-2" x1="1118.71" y1="193.99" x2="1118.71" y2="193.99"/><line class="cls-2" x1="1072.47" y1="56.01" x2="1072.47" y2="56.01"/><line class="cls-2" x1="1101.98" y1="59.32" x2="1101.98" y2="59.32"/><line class="cls-2" x1="1166.66" y1="190.68" x2="1166.66" y2="190.68"/><line class="cls-2" x1="1214.07" y1="186.31" x2="1214.07" y2="186.31"/><line class="cls-2" x1="1132.01" y1="63.69" x2="1132.01" y2="63.69"/><line class="cls-2" x1="1162.71" y1="69.06" x2="1162.71" y2="69.06"/><line class="cls-2" x1="1260.82" y1="180.94" x2="1260.82" y2="180.94"/><line class="cls-2" x1="1306.78" y1="174.66" x2="1306.78" y2="174.66"/><line class="cls-2" x1="1194.21" y1="75.34" x2="1194.21" y2="75.34"/><line class="cls-2" x1="1226.62" y1="82.43" x2="1226.62" y2="82.43"/><line class="cls-2" x1="1351.81" y1="167.57" x2="1351.81" y2="167.57"/><line class="cls-2" x1="1395.84" y1="159.79" x2="1395.84" y2="159.79"/><line class="cls-2" x1="1260.05" y1="90.21" x2="1260.05" y2="90.21"/><line class="cls-2" x1="1294.59" y1="98.56" x2="1294.59" y2="98.56"/><line class="cls-2" x1="1438.75" y1="151.44" x2="1438.75" y2="151.44"/><line class="cls-2" x1="1480.5" y1="142.67" x2="1480.5" y2="142.67"/><line class="cls-2" x1="1330.29" y1="107.33" x2="1330.29" y2="107.33"/><line class="cls-2" x1="1367.22" y1="116.39" x2="1367.22" y2="116.39"/><line class="cls-2" x1="1521.02" y1="133.61" x2="1521.02" y2="133.61"/><line class="cls-2" x1="1560.3" y1="124.41" x2="1560.3" y2="124.41"/><line class="cls-2" x1="1405.4" y1="125.59" x2="1405.4" y2="125.59"/><line class="cls-2" x1="1444.83" y1="134.78" x2="1444.83" y2="134.78"/><line class="cls-2" x1="1598.31" y1="115.22" x2="1598.31" y2="115.22"/><line class="cls-2" x1="1635.08" y1="106.18" x2="1635.08" y2="106.18"/><line class="cls-2" x1="1485.52" y1="143.82" x2="1485.52" y2="143.82"/><line class="cls-2" x1="1527.42" y1="152.54" x2="1527.42" y2="152.54"/><line class="cls-2" x1="1670.63" y1="97.46" x2="1670.63" y2="97.46"/><line class="cls-2" x1="1705.02" y1="89.18" x2="1705.02" y2="89.18"/><line class="cls-2" x1="1570.48" y1="160.82" x2="1570.48" y2="160.82"/><line class="cls-2" x1="1614.64" y1="168.52" x2="1614.64" y2="168.52"/><line class="cls-2" x1="1738.31" y1="81.48" x2="1738.31" y2="81.48"/><line class="cls-2" x1="1770.6" y1="74.49" x2="1770.6" y2="74.49"/><line class="cls-2" x1="1659.8" y1="175.51" x2="1659.8" y2="175.51"/><line class="cls-2" x1="1705.86" y1="181.68" x2="1705.86" y2="181.68"/><line class="cls-2" x1="1801.99" y1="68.32" x2="1801.99" y2="68.32"/><line class="cls-2" x1="1832.6" y1="63.07" x2="1832.6" y2="63.07"/><line class="cls-2" x1="1752.7" y1="186.93" x2="1752.7" y2="186.93"/><line class="cls-2" x1="1800.2" y1="191.17" x2="1800.2" y2="191.17"/><line class="cls-2" x1="1862.56" y1="58.83" x2="1862.56" y2="58.83"/><line class="cls-2" x1="1892.01" y1="55.67" x2="1892.01" y2="55.67"/><line class="cls-2" x1="1848.2" y1="194.33" x2="1848.2" y2="194.33"/><line class="cls-2" x1="1896.55" y1="196.37" x2="1896.55" y2="196.37"/><line class="cls-2" x1="1921.1" y1="53.63" x2="1921.1" y2="53.63"/><line class="cls-2" x1="1950" y1="52.75" x2="1950" y2="52.75"/><line class="cls-2" x1="1945.11" y1="197.25" x2="1945.11" y2="197.25"/></svg>