<svg id="Chart" xmlns="http://www.w3.org/2000/svg" viewBox="0 0 2000 250"><defs><style>.cls-1,.cls-2{fill:none;stroke-miterlimit:10;stroke-width:3px;}.cls-1{stroke:#fff;}.cls-2{stroke:#dd1920;}</style></defs><path class="cls-1" d="M1950,113.82h-44.71l-22.35-22.35H1950"/><path class="cls-1" d="M1860.59,158.53H1748.82l22.36-22.35h67.06Z"/><path class="cls-1" d="M1704.12,113.82h-22.36l-22.35-22.35h67.06Z"/><path class="cls-1" d="M1637.06,158.53H1480.59l22.35-22.35h111.77Z"/><path class="cls-1" d="M1257.06,113.82H1190l-22.35-22.35h111.76Z"/><path class="cls-1" d="M1368.82,158.53h-67.06l22.36-22.35h22.35Z"/><path class="cls-2" d="M1435.88,113.82h-22.35l-22.35-22.35h67.06Z"/><path class="cls-1" d="M50,91.47H155.22l44.71,44.71h80.14l44.71-44.71h54l44.71,44.71H458.9l44.7-44.71H647l44.71,44.71h80.15l44.7-44.71h98.68l44.71,44.71h35.44l44.7-44.71h98.68l44.71,44.71h80.14l44.71-44.71h54l44.7,44.71h35.45l44.71-44.71h143.37l44.71,44.71h35.45l44.7-44.71H1854l44.71,44.71H1950"/><path class="cls-2" d="M1950,158.53h-60.51l-44.71-44.71h-80.15l-44.7,44.71h-54l-44.7-44.71H1496.4l-44.71,44.71h-54L1353,113.82h-35.45l-44.7,44.71h-98.68l-44.7-44.71h-80.15l-44.71,44.71h-54L906,113.82H825.81L781.1,158.53H682.43l-44.71-44.71H512.87l-44.71,44.71h-54l-44.7-44.71H334l-44.7,44.71H190.66L146,113.82H50"/><path class="cls-1" d="M50,136.18h89.41l22.35,22.35H50"/><path class="cls-1" d="M273.53,113.82H206.47L184.12,91.47H295.88Z"/><path class="cls-1" d="M385.29,158.53H318.24l22.35-22.35h22.35Z"/><path class="cls-1" d="M452.35,113.82H430L407.65,91.47h67.06Z"/><path class="cls-1" d="M653.53,158.53H497.06l22.35-22.35H631.18Z"/><path class="cls-2" d="M765.29,113.82h-67L675.88,91.47H787.65Z"/><path class="cls-1" d="M921.76,158.53H810l22.35-22.35h67.06Z"/><path class="cls-1" d="M988.82,113.82H966.47L944.12,91.47h67.06Z"/><path class="cls-1" d="M1145.29,158.53H1033.53l22.35-22.35h67.06Z"/></svg>