<svg id="Chart" xmlns="http://www.w3.org/2000/svg" viewBox="0 0 2000 250"><defs><style>.cls-1,.cls-10,.cls-12,.cls-13,.cls-14,.cls-15,.cls-16,.cls-17,.cls-18,.cls-19,.cls-2,.cls-20,.cls-21,.cls-22,.cls-23,.cls-24,.cls-25,.cls-26,.cls-27,.cls-28,.cls-29,.cls-3,.cls-30,.cls-31,.cls-32,.cls-33,.cls-34,.cls-35,.cls-36,.cls-37,.cls-38,.cls-39,.cls-4,.cls-40,.cls-41,.cls-42,.cls-43,.cls-44,.cls-45,.cls-46,.cls-47,.cls-48,.cls-49,.cls-5,.cls-50,.cls-51,.cls-52,.cls-53,.cls-54,.cls-55,.cls-56,.cls-57,.cls-58,.cls-59,.cls-6,.cls-60,.cls-61,.cls-62,.cls-63,.cls-64,.cls-65,.cls-66,.cls-67,.cls-68,.cls-69,.cls-7,.cls-70,.cls-71,.cls-72,.cls-73,.cls-74,.cls-75,.cls-76,.cls-77,.cls-78,.cls-79,.cls-8,.cls-80,.cls-81,.cls-82,.cls-83,.cls-84,.cls-85,.cls-86,.cls-87,.cls-9{fill:#fff;}.cls-1{opacity:0.41;}.cls-2{opacity:0.21;}.cls-3{opacity:0.39;}.cls-4{opacity:0.06;}.cls-5{opacity:0.12;}.cls-6{opacity:0.21;}.cls-7{opacity:0.25;}.cls-8{opacity:0.07;}.cls-9{opacity:0.44;}.cls-10{opacity:0.1;}.cls-11{fill:#dd1920;}.cls-12{opacity:0.24;}.cls-13{opacity:0.02;}.cls-14{opacity:0.02;}.cls-15{opacity:0.32;}.cls-16{opacity:0.43;}.cls-17{opacity:0.32;}.cls-18{opacity:0.09;}.cls-19{opacity:0.07;}.cls-20{opacity:0.18;}.cls-22{opacity:0.22;}.cls-23{opacity:0.18;}.cls-24{opacity:0.11;}.cls-25{opacity:0.12;}.cls-26{opacity:0.18;}.cls-27{opacity:0.28;}.cls-28{opacity:0.48;}.cls-29{opacity:0.29;}.cls-30{opacity:0.43;}.cls-31{opacity:0.29;}.cls-32{opacity:0.36;}.cls-33{opacity:0.05;}.cls-34{opacity:0.5;}.cls-35{opacity:0.46;}.cls-36{opacity:0.07;}.cls-37{opacity:0.34;}.cls-38{opacity:0.21;}.cls-39{opacity:0.48;}.cls-40{opacity:0.41;}.cls-41{opacity:0.21;}.cls-42{opacity:0.26;}.cls-43{opacity:0.2;}.cls-44{opacity:0.34;}.cls-45{opacity:0.04;}.cls-46{opacity:0.34;}.cls-47{opacity:0.02;}.cls-48{opacity:0.25;}.cls-49{opacity:0.19;}.cls-50{opacity:0.02;}.cls-51{opacity:0.14;}.cls-52{opacity:0.32;}.cls-53{opacity:0.37;}.cls-54{opacity:0.12;}.cls-55{opacity:0.02;}.cls-56{opacity:0.31;}.cls-57{opacity:0.42;}.cls-58{opacity:0.24;}.cls-59{opacity:0.25;}.cls-60{opacity:0.45;}.cls-61{opacity:0.42;}.cls-62{opacity:0.34;}.cls-63{opacity:0.17;}.cls-64{opacity:0.25;}.cls-65{opacity:0.42;}.cls-66{opacity:0.13;}.cls-67{opacity:0.12;}.cls-68{opacity:0.05;}.cls-69{opacity:0.03;}.cls-70{opacity:0.46;}.cls-71{opacity:0.22;}.cls-72{opacity:0.31;}.cls-73{opacity:0.28;}.cls-74{opacity:0.3;}.cls-75{opacity:0.5;}.cls-76{opacity:0.13;}.cls-77{opacity:0.49;}.cls-78{opacity:0.27;}.cls-79{opacity:0.34;}.cls-80{opacity:0.48;}.cls-81{opacity:0.36;}.cls-82{opacity:0.06;}.cls-83{opacity:0.27;}.cls-84{opacity:0.09;}.cls-85{opacity:0.21;}.cls-86{opacity:0.13;}.cls-87{opacity:0.43;}</style></defs><rect class="cls-1" x="50" y="42.39" width="41.3" height="41.3"/><rect class="cls-2" x="50" y="104.35" width="41.3" height="41.3"/><rect class="cls-3" x="50" y="166.3" width="41.3" height="41.3"/><rect class="cls-4" x="111.96" y="42.39" width="41.3" height="41.3"/><rect class="cls-5" x="111.96" y="104.35" width="41.3" height="41.3"/><rect class="cls-6" x="111.96" y="166.3" width="41.3" height="41.3"/><rect class="cls-7" x="173.91" y="42.39" width="41.3" height="41.3"/><rect class="cls-8" x="173.91" y="104.35" width="41.3" height="41.3"/><rect class="cls-9" x="173.91" y="166.3" width="41.3" height="41.3"/><rect class="cls-10" x="235.87" y="42.39" width="41.3" height="41.3"/><rect class="cls-11" x="235.87" y="104.35" width="41.3" height="41.3"/><rect class="cls-12" x="235.87" y="166.3" width="41.3" height="41.3"/><rect class="cls-13" x="297.83" y="42.39" width="41.3" height="41.3"/><rect class="cls-14" x="297.83" y="104.35" width="41.3" height="41.3"/><rect class="cls-15" x="297.83" y="166.3" width="41.3" height="41.3"/><rect class="cls-16" x="359.78" y="42.39" width="41.3" height="41.3"/><rect class="cls-17" x="359.78" y="104.35" width="41.3" height="41.3"/><rect class="cls-18" x="359.78" y="166.3" width="41.3" height="41.3"/><rect class="cls-19" x="421.74" y="42.39" width="41.3" height="41.3"/><rect class="cls-20" x="421.74" y="104.35" width="41.3" height="41.3"/><rect class="cls-21" x="421.74" y="166.3" width="41.3" height="41.3"/><rect class="cls-22" x="483.7" y="42.39" width="41.3" height="41.3"/><rect class="cls-23" x="483.7" y="104.35" width="41.3" height="41.3"/><rect class="cls-24" x="483.7" y="166.3" width="41.3" height="41.3"/><rect class="cls-25" x="545.65" y="42.39" width="41.3" height="41.3"/><rect class="cls-26" x="545.65" y="104.35" width="41.3" height="41.3"/><rect class="cls-27" x="545.65" y="166.3" width="41.3" height="41.3"/><rect class="cls-28" x="607.61" y="42.39" width="41.3" height="41.3"/><rect class="cls-29" x="607.61" y="104.35" width="41.3" height="41.3"/><rect class="cls-30" x="607.61" y="166.3" width="41.3" height="41.3"/><rect class="cls-21" x="669.57" y="42.39" width="41.3" height="41.3"/><rect class="cls-31" x="669.57" y="104.35" width="41.3" height="41.3"/><rect class="cls-32" x="669.57" y="166.3" width="41.3" height="41.3"/><rect class="cls-33" x="731.52" y="42.39" width="41.3" height="41.3"/><rect class="cls-34" x="731.52" y="104.35" width="41.3" height="41.3"/><rect class="cls-35" x="731.52" y="166.3" width="41.3" height="41.3"/><rect class="cls-36" x="793.48" y="42.39" width="41.3" height="41.3"/><rect class="cls-37" x="793.48" y="104.35" width="41.3" height="41.3"/><rect class="cls-38" x="793.48" y="166.3" width="41.3" height="41.3"/><rect class="cls-39" x="855.43" y="42.39" width="41.3" height="41.3"/><rect class="cls-40" x="855.43" y="104.35" width="41.3" height="41.3"/><rect class="cls-11" x="855.43" y="166.3" width="41.3" height="41.3"/><rect class="cls-41" x="917.39" y="42.39" width="41.3" height="41.3"/><rect class="cls-42" x="917.39" y="104.35" width="41.3" height="41.3"/><rect class="cls-43" x="917.39" y="166.3" width="41.3" height="41.3"/><rect class="cls-44" x="979.35" y="42.39" width="41.3" height="41.3"/><rect class="cls-45" x="979.35" y="104.35" width="41.3" height="41.3"/><rect class="cls-46" x="979.35" y="166.3" width="41.3" height="41.3"/><rect class="cls-47" x="1041.3" y="42.39" width="41.3" height="41.3"/><rect class="cls-21" x="1041.3" y="104.35" width="41.3" height="41.3"/><rect class="cls-48" x="1041.3" y="166.3" width="41.3" height="41.3"/><rect class="cls-49" x="1103.26" y="42.39" width="41.3" height="41.3"/><rect class="cls-50" x="1103.26" y="104.35" width="41.3" height="41.3"/><rect class="cls-51" x="1103.26" y="166.3" width="41.3" height="41.3"/><rect class="cls-52" x="1165.22" y="42.39" width="41.3" height="41.3"/><rect class="cls-53" x="1165.22" y="104.35" width="41.3" height="41.3"/><rect class="cls-54" x="1165.22" y="166.3" width="41.3" height="41.3"/><rect class="cls-55" x="1227.17" y="42.39" width="41.3" height="41.3"/><rect class="cls-56" x="1227.17" y="104.35" width="41.3" height="41.3"/><rect class="cls-57" x="1227.17" y="166.3" width="41.3" height="41.3"/><rect class="cls-58" x="1289.13" y="42.39" width="41.3" height="41.3"/><rect class="cls-59" x="1289.13" y="104.35" width="41.3" height="41.3"/><rect class="cls-60" x="1289.13" y="166.3" width="41.3" height="41.3"/><rect class="cls-61" x="1351.09" y="42.39" width="41.3" height="41.3"/><rect class="cls-62" x="1351.09" y="104.35" width="41.3" height="41.3"/><rect class="cls-63" x="1351.09" y="166.3" width="41.3" height="41.3"/><rect class="cls-64" x="1413.04" y="42.39" width="41.3" height="41.3"/><rect class="cls-65" x="1413.04" y="104.35" width="41.3" height="41.3"/><rect class="cls-21" x="1413.04" y="166.3" width="41.3" height="41.3"/><rect class="cls-66" x="1475" y="42.39" width="41.3" height="41.3"/><rect class="cls-67" x="1475" y="104.35" width="41.3" height="41.3"/><rect class="cls-68" x="1475" y="166.3" width="41.3" height="41.3"/><rect class="cls-11" x="1536.96" y="42.39" width="41.3" height="41.3"/><rect class="cls-69" x="1536.96" y="104.35" width="41.3" height="41.3"/><rect class="cls-70" x="1536.96" y="166.3" width="41.3" height="41.3"/><rect class="cls-71" x="1598.91" y="42.39" width="41.3" height="41.3"/><rect class="cls-72" x="1598.91" y="104.35" width="41.3" height="41.3"/><rect class="cls-73" x="1598.91" y="166.3" width="41.3" height="41.3"/><rect class="cls-74" x="1660.87" y="42.39" width="41.3" height="41.3"/><rect class="cls-75" x="1660.87" y="104.35" width="41.3" height="41.3"/><rect class="cls-76" x="1660.87" y="166.3" width="41.3" height="41.3"/><rect class="cls-77" x="1722.83" y="42.39" width="41.3" height="41.3"/><rect class="cls-78" x="1722.83" y="104.35" width="41.3" height="41.3"/><rect class="cls-79" x="1722.83" y="166.3" width="41.3" height="41.3"/><rect class="cls-80" x="1784.78" y="42.39" width="41.3" height="41.3"/><rect class="cls-21" x="1784.78" y="104.35" width="41.3" height="41.3"/><rect class="cls-81" x="1784.78" y="166.3" width="41.3" height="41.3"/><rect class="cls-82" x="1846.74" y="42.39" width="41.3" height="41.3"/><rect class="cls-83" x="1846.74" y="104.35" width="41.3" height="41.3"/><rect class="cls-84" x="1846.74" y="166.3" width="41.3" height="41.3"/><rect class="cls-85" x="1908.7" y="42.39" width="41.3" height="41.3"/><rect class="cls-86" x="1908.7" y="104.35" width="41.3" height="41.3"/><rect class="cls-87" x="1908.7" y="166.3" width="41.3" height="41.3"/></svg>