<svg id="Chart" xmlns="http://www.w3.org/2000/svg" viewBox="0 0 2000 250"><defs><style>.cls-1{opacity:0.3;}.cls-2{fill:none;stroke:#fff;stroke-linecap:square;stroke-linejoin:round;stroke-width:6.73px;}.cls-3{opacity:0.62;}.cls-4{opacity:0.49;}.cls-5{opacity:0.9;}.cls-6{opacity:0.66;}.cls-7{opacity:0.81;}.cls-8{opacity:0.32;}.cls-9{opacity:0.56;}</style></defs><g class="cls-1"><line class="cls-2" x1="89.58" y1="50" x2="50" y2="50"/><line class="cls-2" x1="208.33" y1="50" x2="168.75" y2="50"/><line class="cls-2" x1="406.25" y1="50" x2="287.5" y2="50"/><line class="cls-2" x1="564.58" y1="50" x2="485.42" y2="50"/><line class="cls-2" x1="762.5" y1="50" x2="643.75" y2="50"/><line class="cls-2" x1="881.25" y1="50" x2="841.67" y2="50"/><line class="cls-2" x1="1158.33" y1="50" x2="960.42" y2="50"/><line class="cls-2" x1="1277.08" y1="50" x2="1237.5" y2="50"/><line class="cls-2" x1="1514.58" y1="50" x2="1356.25" y2="50"/><line class="cls-2" x1="1633.33" y1="50" x2="1593.75" y2="50"/><line class="cls-2" x1="1791.67" y1="50" x2="1712.5" y2="50"/><line class="cls-2" x1="1950" y1="50" x2="1870.83" y2="50"/></g><g class="cls-3"><line class="cls-2" x1="1870.83" y1="178.57" x2="1950" y2="178.57"/><line class="cls-2" x1="1752.08" y1="178.57" x2="1791.67" y2="178.57"/><line class="cls-2" x1="1554.17" y1="178.57" x2="1672.92" y2="178.57"/><line class="cls-2" x1="1435.42" y1="178.57" x2="1475" y2="178.57"/><line class="cls-2" x1="1277.08" y1="178.57" x2="1356.25" y2="178.57"/><line class="cls-2" x1="1118.75" y1="178.57" x2="1197.92" y2="178.57"/><line class="cls-2" x1="841.67" y1="178.57" x2="1039.58" y2="178.57"/><line class="cls-2" x1="604.17" y1="178.57" x2="762.5" y2="178.57"/><line class="cls-2" x1="406.25" y1="178.57" x2="525" y2="178.57"/><line class="cls-2" x1="287.5" y1="178.57" x2="327.08" y2="178.57"/><line class="cls-2" x1="168.75" y1="178.57" x2="208.33" y2="178.57"/><line class="cls-2" x1="50" y1="178.57" x2="89.58" y2="178.57"/></g><g class="cls-4"><line class="cls-2" x1="1910.42" y1="92.86" x2="1950" y2="92.86"/><line class="cls-2" x1="1752.08" y1="92.86" x2="1831.25" y2="92.86"/><line class="cls-2" x1="1593.75" y1="92.86" x2="1672.92" y2="92.86"/><line class="cls-2" x1="1395.83" y1="92.86" x2="1514.58" y2="92.86"/><line class="cls-2" x1="1237.5" y1="92.86" x2="1316.67" y2="92.86"/><line class="cls-2" x1="960.42" y1="92.86" x2="1158.33" y2="92.86"/><line class="cls-2" x1="841.67" y1="92.86" x2="881.25" y2="92.86"/><line class="cls-2" x1="643.75" y1="92.86" x2="762.5" y2="92.86"/><line class="cls-2" x1="525" y1="92.86" x2="564.58" y2="92.86"/><line class="cls-2" x1="406.25" y1="92.86" x2="445.83" y2="92.86"/><line class="cls-2" x1="168.75" y1="92.86" x2="327.08" y2="92.86"/><line class="cls-2" x1="50" y1="92.86" x2="89.58" y2="92.86"/></g><g class="cls-5"><line class="cls-2" x1="89.58" y1="135.71" x2="50" y2="135.71"/><line class="cls-2" x1="327.08" y1="135.71" x2="168.75" y2="135.71"/><line class="cls-2" x1="485.42" y1="135.71" x2="406.25" y2="135.71"/><line class="cls-2" x1="604.17" y1="135.71" x2="564.58" y2="135.71"/><line class="cls-2" x1="881.25" y1="135.71" x2="683.33" y2="135.71"/><line class="cls-2" x1="1000" y1="135.71" x2="960.42" y2="135.71"/><polyline class="cls-2" points="1237.5 135.71 1197.92 135.71 1118.75 135.71 1079.17 135.71"/><line class="cls-2" x1="1435.42" y1="135.71" x2="1316.67" y2="135.71"/><line class="cls-2" x1="1633.33" y1="135.71" x2="1514.58" y2="135.71"/><line class="cls-2" x1="1791.67" y1="135.71" x2="1712.5" y2="135.71"/><line class="cls-2" x1="1950" y1="135.71" x2="1870.83" y2="135.71"/></g><g class="cls-6"><line class="cls-2" x1="168.75" y1="157.14" x2="50" y2="157.14"/><polyline class="cls-2" points="406.25 157.14 366.67 157.14 287.5 157.14 247.92 157.14"/><line class="cls-2" x1="525" y1="157.14" x2="485.42" y2="157.14"/><line class="cls-2" x1="683.33" y1="157.14" x2="604.17" y2="157.14"/><line class="cls-2" x1="802.08" y1="157.14" x2="762.5" y2="157.14"/><line class="cls-2" x1="1079.17" y1="157.14" x2="881.25" y2="157.14"/><line class="cls-2" x1="1316.67" y1="157.14" x2="1158.33" y2="157.14"/><line class="cls-2" x1="1514.58" y1="157.14" x2="1395.83" y2="157.14"/><line class="cls-2" x1="1672.92" y1="157.14" x2="1593.75" y2="157.14"/><polyline class="cls-2" points="1950 157.14 1910.42 157.14 1831.25 157.14 1752.08 157.14"/></g><g class="cls-7"><polyline class="cls-2" points="208.33 71.43 168.75 71.43 89.58 71.43 50 71.43"/><line class="cls-2" x1="327.08" y1="71.43" x2="287.5" y2="71.43"/><line class="cls-2" x1="485.42" y1="71.43" x2="406.25" y2="71.43"/><line class="cls-2" x1="604.17" y1="71.43" x2="564.58" y2="71.43"/><line class="cls-2" x1="762.5" y1="71.43" x2="683.33" y2="71.43"/><line class="cls-2" x1="1039.58" y1="71.43" x2="841.67" y2="71.43"/><line class="cls-2" x1="1277.08" y1="71.43" x2="1118.75" y2="71.43"/><line class="cls-2" x1="1435.42" y1="71.43" x2="1356.25" y2="71.43"/><line class="cls-2" x1="1554.17" y1="71.43" x2="1514.58" y2="71.43"/><line class="cls-2" x1="1752.08" y1="71.43" x2="1633.33" y2="71.43"/><line class="cls-2" x1="1950" y1="71.43" x2="1831.25" y2="71.43"/></g><g class="cls-8"><line class="cls-2" x1="1395.83" y1="200" x2="1237.5" y2="200"/><line class="cls-2" x1="1831.25" y1="200" x2="1791.67" y2="200"/><line class="cls-2" x1="1950" y1="200" x2="1910.42" y2="200"/><line class="cls-2" x1="564.58" y1="200" x2="525" y2="200"/><line class="cls-2" x1="445.83" y1="200" x2="327.08" y2="200"/><line class="cls-2" x1="247.92" y1="200" x2="208.33" y2="200"/><line class="cls-2" x1="1158.33" y1="200" x2="960.42" y2="200"/><line class="cls-2" x1="1712.5" y1="200" x2="1672.92" y2="200"/><line class="cls-2" x1="722.92" y1="200" x2="643.75" y2="200"/><line class="cls-2" x1="881.25" y1="200" x2="802.08" y2="200"/><line class="cls-2" x1="129.17" y1="200" x2="50" y2="200"/><line class="cls-2" x1="1593.75" y1="200" x2="1475" y2="200"/></g><g class="cls-9"><line class="cls-2" x1="1356.25" y1="114.29" x2="1197.92" y2="114.29"/><line class="cls-2" x1="485.42" y1="114.29" x2="445.83" y2="114.29"/><line class="cls-2" x1="683.33" y1="114.29" x2="564.58" y2="114.29"/><line class="cls-2" x1="802.08" y1="114.29" x2="762.5" y2="114.29"/><line class="cls-2" x1="1950" y1="114.29" x2="1752.08" y2="114.29"/><line class="cls-2" x1="1672.92" y1="114.29" x2="1633.33" y2="114.29"/><line class="cls-2" x1="1118.75" y1="114.29" x2="1039.58" y2="114.29"/><line class="cls-2" x1="960.42" y1="114.29" x2="881.25" y2="114.29"/><line class="cls-2" x1="129.17" y1="114.29" x2="50" y2="114.29"/><line class="cls-2" x1="1554.17" y1="114.29" x2="1435.42" y2="114.29"/><line class="cls-2" x1="247.92" y1="114.29" x2="208.33" y2="114.29"/><line class="cls-2" x1="366.67" y1="114.29" x2="327.08" y2="114.29"/></g></svg>