<svg id="Chart" xmlns="http://www.w3.org/2000/svg" viewBox="0 0 2000 250"><defs><style>.cls-1,.cls-10,.cls-100,.cls-101,.cls-102,.cls-103,.cls-104,.cls-105,.cls-106,.cls-107,.cls-108,.cls-109,.cls-11,.cls-110,.cls-111,.cls-112,.cls-113,.cls-114,.cls-115,.cls-116,.cls-117,.cls-118,.cls-119,.cls-12,.cls-120,.cls-121,.cls-122,.cls-123,.cls-124,.cls-125,.cls-126,.cls-127,.cls-128,.cls-129,.cls-13,.cls-130,.cls-131,.cls-132,.cls-133,.cls-134,.cls-135,.cls-136,.cls-137,.cls-138,.cls-139,.cls-14,.cls-140,.cls-141,.cls-142,.cls-143,.cls-144,.cls-145,.cls-146,.cls-147,.cls-148,.cls-149,.cls-15,.cls-150,.cls-151,.cls-152,.cls-153,.cls-154,.cls-155,.cls-156,.cls-157,.cls-158,.cls-159,.cls-16,.cls-160,.cls-161,.cls-162,.cls-163,.cls-164,.cls-165,.cls-166,.cls-167,.cls-168,.cls-169,.cls-17,.cls-170,.cls-171,.cls-172,.cls-173,.cls-174,.cls-175,.cls-176,.cls-177,.cls-178,.cls-179,.cls-18,.cls-180,.cls-181,.cls-182,.cls-183,.cls-184,.cls-185,.cls-186,.cls-187,.cls-188,.cls-189,.cls-19,.cls-190,.cls-191,.cls-192,.cls-193,.cls-194,.cls-195,.cls-196,.cls-197,.cls-198,.cls-199,.cls-2,.cls-20,.cls-200,.cls-201,.cls-202,.cls-203,.cls-204,.cls-205,.cls-206,.cls-207,.cls-208,.cls-209,.cls-21,.cls-210,.cls-211,.cls-212,.cls-213,.cls-214,.cls-215,.cls-216,.cls-217,.cls-218,.cls-219,.cls-22,.cls-220,.cls-221,.cls-222,.cls-223,.cls-224,.cls-225,.cls-226,.cls-227,.cls-228,.cls-229,.cls-23,.cls-230,.cls-231,.cls-232,.cls-233,.cls-234,.cls-235,.cls-236,.cls-237,.cls-238,.cls-239,.cls-24,.cls-240,.cls-241,.cls-242,.cls-243,.cls-244,.cls-245,.cls-246,.cls-247,.cls-248,.cls-249,.cls-25,.cls-250,.cls-251,.cls-252,.cls-253,.cls-254,.cls-255,.cls-256,.cls-257,.cls-258,.cls-259,.cls-26,.cls-260,.cls-261,.cls-262,.cls-263,.cls-264,.cls-265,.cls-266,.cls-267,.cls-268,.cls-269,.cls-27,.cls-270,.cls-271,.cls-272,.cls-273,.cls-274,.cls-275,.cls-276,.cls-277,.cls-278,.cls-279,.cls-28,.cls-280,.cls-281,.cls-282,.cls-283,.cls-284,.cls-285,.cls-286,.cls-287,.cls-288,.cls-289,.cls-29,.cls-290,.cls-291,.cls-292,.cls-293,.cls-294,.cls-295,.cls-296,.cls-297,.cls-298,.cls-299,.cls-3,.cls-30,.cls-300,.cls-301,.cls-302,.cls-303,.cls-304,.cls-305,.cls-306,.cls-307,.cls-308,.cls-309,.cls-31,.cls-310,.cls-311,.cls-312,.cls-313,.cls-314,.cls-315,.cls-316,.cls-317,.cls-318,.cls-319,.cls-32,.cls-320,.cls-321,.cls-322,.cls-323,.cls-324,.cls-325,.cls-326,.cls-327,.cls-328,.cls-329,.cls-33,.cls-330,.cls-331,.cls-332,.cls-333,.cls-334,.cls-335,.cls-336,.cls-337,.cls-338,.cls-339,.cls-34,.cls-340,.cls-341,.cls-342,.cls-343,.cls-344,.cls-345,.cls-346,.cls-347,.cls-348,.cls-349,.cls-35,.cls-350,.cls-351,.cls-352,.cls-353,.cls-354,.cls-355,.cls-356,.cls-357,.cls-358,.cls-359,.cls-36,.cls-360,.cls-361,.cls-362,.cls-363,.cls-364,.cls-365,.cls-366,.cls-367,.cls-368,.cls-369,.cls-37,.cls-370,.cls-371,.cls-372,.cls-373,.cls-374,.cls-375,.cls-376,.cls-377,.cls-378,.cls-379,.cls-38,.cls-380,.cls-381,.cls-382,.cls-383,.cls-384,.cls-385,.cls-386,.cls-387,.cls-388,.cls-389,.cls-39,.cls-390,.cls-391,.cls-392,.cls-393,.cls-394,.cls-395,.cls-396,.cls-397,.cls-398,.cls-399,.cls-4,.cls-40,.cls-400,.cls-401,.cls-402,.cls-403,.cls-404,.cls-405,.cls-406,.cls-407,.cls-408,.cls-409,.cls-41,.cls-410,.cls-411,.cls-412,.cls-413,.cls-414,.cls-415,.cls-416,.cls-417,.cls-418,.cls-419,.cls-42,.cls-420,.cls-421,.cls-422,.cls-423,.cls-424,.cls-425,.cls-426,.cls-427,.cls-428,.cls-429,.cls-43,.cls-430,.cls-431,.cls-432,.cls-433,.cls-434,.cls-435,.cls-436,.cls-44,.cls-45,.cls-46,.cls-47,.cls-48,.cls-49,.cls-5,.cls-50,.cls-51,.cls-52,.cls-53,.cls-54,.cls-55,.cls-56,.cls-57,.cls-58,.cls-59,.cls-6,.cls-60,.cls-61,.cls-62,.cls-65,.cls-66,.cls-67,.cls-68,.cls-69,.cls-7,.cls-70,.cls-71,.cls-72,.cls-73,.cls-74,.cls-75,.cls-76,.cls-77,.cls-78,.cls-79,.cls-8,.cls-80,.cls-81,.cls-82,.cls-83,.cls-84,.cls-85,.cls-86,.cls-87,.cls-88,.cls-89,.cls-9,.cls-90,.cls-91,.cls-92,.cls-93,.cls-94,.cls-95,.cls-96,.cls-97,.cls-98,.cls-99{fill:#fff;}.cls-1{opacity:0.48;}.cls-2{opacity:0.11;}.cls-3{opacity:0.54;}.cls-4{opacity:0.71;}.cls-5{opacity:0.82;}.cls-6{opacity:0.21;}.cls-7{opacity:0.78;}.cls-8{opacity:0.83;}.cls-9{opacity:0.89;}.cls-10{opacity:0.91;}.cls-11{opacity:0.25;}.cls-12{opacity:0.32;}.cls-13{opacity:0.84;}.cls-14{opacity:0.51;}.cls-15{opacity:0.49;}.cls-16{opacity:0.21;}.cls-17{opacity:0.72;}.cls-18{opacity:0.31;}.cls-19{opacity:0.84;}.cls-20{opacity:0.16;}.cls-21{opacity:0.45;}.cls-22{opacity:0.35;}.cls-23{opacity:0.16;}.cls-24{opacity:0.76;}.cls-25{opacity:0.72;}.cls-26{opacity:0.89;}.cls-27{opacity:0.87;}.cls-28{opacity:0.19;}.cls-29{opacity:0.51;}.cls-30{opacity:0.41;}.cls-31{opacity:0.44;}.cls-32{opacity:0.93;}.cls-33{opacity:0.65;}.cls-34{opacity:0.35;}.cls-35{opacity:1;}.cls-36{opacity:0.28;}.cls-37{opacity:0.67;}.cls-38{opacity:0.23;}.cls-39{opacity:0.6;}.cls-40{opacity:0.27;}.cls-41{opacity:0.69;}.cls-42{opacity:0.92;}.cls-43{opacity:0.3;}.cls-44{opacity:0.89;}.cls-45{opacity:0.72;}.cls-46{opacity:0.72;}.cls-47{opacity:0.45;}.cls-48{opacity:0.27;}.cls-49{opacity:0.72;}.cls-50{opacity:0.59;}.cls-51{opacity:0.43;}.cls-52{opacity:0.14;}.cls-53{opacity:0.49;}.cls-54{opacity:0.22;}.cls-55{opacity:0.51;}.cls-56{opacity:0.52;}.cls-57{opacity:0.43;}.cls-58{opacity:0.97;}.cls-59{opacity:0.23;}.cls-60{opacity:0.91;}.cls-61{opacity:0.37;}.cls-62{opacity:0.63;}.cls-63{fill:#dd1920;}.cls-64{fill:none;stroke:#fff;stroke-miterlimit:10;stroke-width:0.83px;opacity:0.25;}.cls-65{opacity:0.75;}.cls-66{opacity:0.85;}.cls-67{opacity:0.73;}.cls-68{opacity:0.79;}.cls-69{opacity:0.76;}.cls-70{opacity:0.7;}.cls-71{opacity:0.41;}.cls-72{opacity:0.26;}.cls-73{opacity:0.35;}.cls-74{opacity:0.68;}.cls-75{opacity:0.66;}.cls-76{opacity:0.78;}.cls-77{opacity:0.29;}.cls-78{opacity:0.14;}.cls-79{opacity:0.85;}.cls-80{opacity:0.43;}.cls-81{opacity:0.69;}.cls-82{opacity:0.49;}.cls-83{opacity:0.85;}.cls-84{opacity:0.73;}.cls-85{opacity:0.14;}.cls-86{opacity:0.98;}.cls-87{opacity:0.95;}.cls-88{opacity:0.72;}.cls-89{opacity:0.35;}.cls-90{opacity:0.24;}.cls-91{opacity:0.67;}.cls-92{opacity:0.45;}.cls-93{opacity:0.77;}.cls-94{opacity:0.24;}.cls-95{opacity:0.33;}.cls-96{opacity:0.32;}.cls-97{opacity:0.88;}.cls-98{opacity:0.84;}.cls-99{opacity:0.59;}.cls-100{opacity:0.36;}.cls-101{opacity:0.81;}.cls-102{opacity:0.95;}.cls-103{opacity:0.32;}.cls-104{opacity:0.98;}.cls-105{opacity:0.53;}.cls-106{opacity:0.71;}.cls-107{opacity:0.69;}.cls-108{opacity:0.15;}.cls-109{opacity:0.73;}.cls-110{opacity:0.29;}.cls-111{opacity:0.69;}.cls-112{opacity:0.17;}.cls-113{opacity:0.41;}.cls-114{opacity:0.38;}.cls-115{opacity:0.94;}.cls-116{opacity:0.73;}.cls-117{opacity:0.63;}.cls-118{opacity:0.64;}.cls-119{opacity:0.67;}.cls-120{opacity:0.6;}.cls-121{opacity:0.29;}.cls-122{opacity:0.31;}.cls-123{opacity:0.27;}.cls-124{opacity:0.64;}.cls-125{opacity:0.27;}.cls-126{opacity:0.73;}.cls-127{opacity:0.68;}.cls-128{opacity:0.35;}.cls-129{opacity:0.7;}.cls-130{opacity:0.46;}.cls-131{opacity:0.76;}.cls-132{opacity:0.43;}.cls-133{opacity:0.18;}.cls-134{opacity:0.43;}.cls-135{opacity:0.25;}.cls-136{opacity:0.18;}.cls-137{opacity:0.21;}.cls-138{opacity:0.18;}.cls-139{opacity:0.41;}.cls-140{opacity:0.17;}.cls-141{opacity:0.24;}.cls-142{opacity:0.26;}.cls-143{opacity:0.39;}.cls-144{opacity:0.49;}.cls-145{opacity:0.36;}.cls-146{opacity:0.41;}.cls-147{opacity:0.43;}.cls-148{opacity:0.98;}.cls-149{opacity:0.17;}.cls-150{opacity:0.52;}.cls-151{opacity:0.31;}.cls-152{opacity:0.25;}.cls-153{opacity:0.46;}.cls-154{opacity:0.51;}.cls-155{opacity:0.83;}.cls-156{opacity:0.61;}.cls-157{opacity:0.96;}.cls-158{opacity:0.85;}.cls-159{opacity:0.37;}.cls-160{opacity:0.53;}.cls-161{opacity:0.8;}.cls-162{opacity:0.46;}.cls-163{opacity:0.78;}.cls-164{opacity:0.51;}.cls-165{opacity:0.18;}.cls-166{opacity:0.58;}.cls-167{opacity:0.95;}.cls-168{opacity:0.34;}.cls-169{opacity:0.77;}.cls-170{opacity:0.92;}.cls-171{opacity:0.84;}.cls-172{opacity:0.92;}.cls-173{opacity:0.4;}.cls-174{opacity:0.6;}.cls-175{opacity:0.83;}.cls-176{opacity:0.57;}.cls-177{opacity:0.73;}.cls-178{opacity:0.32;}.cls-179{opacity:0.9;}.cls-180{opacity:0.36;}.cls-181{opacity:0.11;}.cls-182{opacity:0.94;}.cls-183{opacity:0.57;}.cls-184{opacity:0.9;}.cls-185{opacity:0.2;}.cls-186{opacity:0.73;}.cls-187{opacity:0.69;}.cls-188{opacity:0.91;}.cls-189{opacity:0.74;}.cls-190{opacity:0.35;}.cls-191{opacity:0.81;}.cls-192{opacity:0.35;}.cls-193{opacity:0.61;}.cls-194{opacity:0.7;}.cls-195{opacity:0.54;}.cls-196{opacity:0.83;}.cls-197{opacity:0.37;}.cls-198{opacity:0.19;}.cls-199{opacity:0.48;}.cls-200{opacity:0.82;}.cls-201{opacity:0.33;}.cls-202{opacity:0.39;}.cls-203{opacity:0.88;}.cls-204{opacity:0.57;}.cls-205{opacity:0.35;}.cls-206{opacity:0.94;}.cls-207{opacity:0.34;}.cls-208{opacity:0.83;}.cls-209{opacity:0.73;}.cls-210{opacity:0.93;}.cls-211{opacity:0.7;}.cls-212{opacity:0.43;}.cls-213{opacity:0.28;}.cls-214{opacity:0.87;}.cls-215{opacity:0.81;}.cls-216{opacity:0.43;}.cls-217{opacity:0.61;}.cls-218{opacity:0.78;}.cls-219{opacity:0.45;}.cls-220{opacity:0.23;}.cls-221{opacity:0.19;}.cls-222{opacity:0.12;}.cls-223{opacity:0.53;}.cls-224{opacity:0.64;}.cls-225{opacity:0.39;}.cls-226{opacity:0.29;}.cls-227{opacity:0.39;}.cls-228{opacity:0.34;}.cls-229{opacity:0.48;}.cls-230{opacity:0.92;}.cls-231{opacity:0.86;}.cls-232{opacity:0.34;}.cls-233{opacity:0.2;}.cls-234{opacity:0.39;}.cls-235{opacity:0.49;}.cls-236{opacity:0.27;}.cls-237{opacity:0.88;}.cls-238{opacity:0.77;}.cls-239{opacity:0.87;}.cls-240{opacity:0.32;}.cls-241{opacity:0.53;}.cls-242{opacity:0.17;}.cls-243{opacity:0.8;}.cls-244{opacity:0.45;}.cls-245{opacity:0.18;}.cls-246{opacity:0.34;}.cls-247{opacity:0.86;}.cls-248{opacity:0.96;}.cls-249{opacity:0.68;}.cls-250{opacity:0.2;}.cls-251{opacity:0.52;}.cls-252{opacity:0.98;}.cls-253{opacity:0.92;}.cls-254{opacity:0.56;}.cls-255{opacity:0.62;}.cls-256{opacity:0.4;}.cls-257{opacity:0.21;}.cls-258{opacity:0.65;}.cls-259{opacity:0.15;}.cls-260{opacity:0.23;}.cls-261{opacity:0.23;}.cls-262{opacity:0.57;}.cls-263{opacity:0.13;}.cls-264{opacity:0.37;}.cls-265{opacity:0.76;}.cls-266{opacity:0.84;}.cls-267{opacity:0.5;}.cls-268{opacity:0.41;}.cls-269{opacity:0.14;}.cls-270{opacity:0.88;}.cls-271{opacity:0.12;}.cls-272{opacity:0.23;}.cls-273{opacity:0.81;}.cls-274{opacity:0.33;}.cls-275{opacity:0.78;}.cls-276{opacity:0.32;}.cls-277{opacity:0.93;}.cls-278{opacity:0.72;}.cls-279{opacity:0.41;}.cls-280{opacity:0.69;}.cls-281{opacity:0.59;}.cls-282{opacity:0.57;}.cls-283{opacity:0.58;}.cls-284{opacity:0.34;}.cls-285{opacity:0.81;}.cls-286{opacity:0.68;}.cls-287{opacity:0.72;}.cls-288{opacity:0.8;}.cls-289{opacity:0.5;}.cls-290{opacity:0.6;}.cls-291{opacity:0.76;}.cls-292{opacity:0.51;}.cls-293{opacity:0.38;}.cls-294{opacity:0.4;}.cls-295{opacity:0.26;}.cls-296{opacity:0.84;}.cls-297{opacity:0.84;}.cls-298{opacity:0.73;}.cls-299{opacity:0.24;}.cls-300{opacity:0.5;}.cls-301{opacity:0.62;}.cls-302{opacity:0.92;}.cls-303{opacity:0.25;}.cls-304{opacity:0.44;}.cls-305{opacity:0.36;}.cls-306{opacity:0.87;}.cls-307{opacity:0.12;}.cls-308{opacity:0.8;}.cls-309{opacity:0.76;}.cls-310{opacity:0.51;}.cls-311{opacity:0.41;}.cls-312{opacity:0.74;}.cls-313{opacity:0.43;}.cls-314{opacity:0.94;}.cls-315{opacity:0.68;}.cls-316{opacity:0.97;}.cls-317{opacity:0.7;}.cls-318{opacity:0.55;}.cls-319{opacity:0.28;}.cls-320{opacity:0.77;}.cls-321{opacity:0.87;}.cls-322{opacity:0.56;}.cls-323{opacity:0.28;}.cls-324{opacity:0.59;}.cls-325{opacity:0.23;}.cls-326{opacity:0.42;}.cls-327{opacity:0.42;}.cls-328{opacity:0.51;}.cls-329{opacity:0.2;}.cls-330{opacity:0.67;}.cls-331{opacity:0.97;}.cls-332{opacity:0.16;}.cls-333{opacity:0.13;}.cls-334{opacity:0.97;}.cls-335{opacity:0.97;}.cls-336{opacity:0.59;}.cls-337{opacity:0.35;}.cls-338{opacity:0.98;}.cls-339{opacity:0.71;}.cls-340{opacity:0.87;}.cls-341{opacity:0.7;}.cls-342{opacity:0.38;}.cls-343{opacity:0.32;}.cls-344{opacity:0.99;}.cls-345{opacity:0.79;}.cls-346{opacity:0.51;}.cls-347{opacity:0.29;}.cls-348{opacity:0.57;}.cls-349{opacity:0.29;}.cls-350{opacity:0.61;}.cls-351{opacity:0.82;}.cls-352{opacity:0.65;}.cls-353{opacity:0.77;}.cls-354{opacity:0.57;}.cls-355{opacity:0.7;}.cls-356{opacity:0.38;}.cls-357{opacity:0.16;}.cls-358{opacity:0.57;}.cls-359{opacity:0.97;}.cls-360{opacity:0.34;}.cls-361{opacity:0.88;}.cls-362{opacity:0.52;}.cls-363{opacity:0.81;}.cls-364{opacity:0.69;}.cls-365{opacity:0.57;}.cls-366{opacity:0.16;}.cls-367{opacity:0.3;}.cls-368{opacity:0.66;}.cls-369{opacity:0.44;}.cls-370{opacity:0.83;}.cls-371{opacity:0.11;}.cls-372{opacity:0.22;}.cls-373{opacity:0.84;}.cls-374{opacity:0.19;}.cls-375{opacity:0.9;}.cls-376{opacity:0.78;}.cls-377{opacity:0.39;}.cls-378{opacity:0.78;}.cls-379{opacity:0.63;}.cls-380{opacity:0.58;}.cls-381{opacity:0.2;}.cls-382{opacity:0.12;}.cls-383{opacity:0.84;}.cls-384{opacity:0.72;}.cls-385{opacity:0.48;}.cls-386{opacity:0.17;}.cls-387{opacity:0.7;}.cls-388{opacity:0.64;}.cls-389{opacity:0.56;}.cls-390{opacity:0.82;}.cls-391{opacity:0.61;}.cls-392{opacity:0.37;}.cls-393{opacity:0.63;}.cls-394{opacity:0.53;}.cls-395{opacity:0.3;}.cls-396{opacity:0.68;}.cls-397{opacity:0.98;}.cls-398{opacity:0.28;}.cls-399{opacity:0.98;}.cls-400{opacity:0.98;}.cls-401{opacity:0.29;}.cls-402{opacity:0.59;}.cls-403{opacity:0.47;}.cls-404{opacity:0.27;}.cls-405{opacity:0.41;}.cls-406{opacity:0.34;}.cls-407{opacity:0.15;}.cls-408{opacity:0.75;}.cls-409{opacity:0.61;}.cls-410{opacity:0.52;}.cls-411{opacity:0.61;}.cls-412{opacity:0.66;}.cls-413{opacity:0.41;}.cls-414{opacity:0.43;}.cls-415{opacity:0.35;}.cls-416{opacity:0.43;}.cls-417{opacity:0.16;}.cls-418{opacity:0.12;}.cls-419{opacity:0.32;}.cls-420{opacity:0.54;}.cls-421{opacity:0.63;}.cls-422{opacity:0.67;}.cls-423{opacity:0.86;}.cls-424{opacity:0.45;}.cls-425{opacity:0.61;}.cls-426{opacity:0.69;}.cls-427{opacity:0.15;}.cls-428{opacity:0.34;}.cls-429{opacity:0.64;}.cls-430{opacity:0.68;}.cls-431{opacity:0.62;}.cls-432{opacity:0.4;}.cls-433{opacity:0.29;}.cls-434{opacity:0.74;}.cls-435{opacity:0.11;}.cls-436{opacity:0.87;}</style></defs><path class="cls-1" d="M128.67,205.13c-.89,0-1.77,0-2.65-.09l1.69-33.7c.52,0,1,0,1.55,0Z"/><path class="cls-2" d="M134,205.05l-1.58-33.7,1.55-.1,2.68,33.63C135.73,205,134.85,205,134,205.05Z"/><path class="cls-3" d="M120.7,204.6c-.87-.11-1.73-.22-2.59-.35l5-33.37c.53.08,1,.15,1.58.21Z"/><path class="cls-4" d="M141.93,204.28l-5-33.38c.51-.07,1-.16,1.52-.25l6.05,33.2C143.68,204,142.8,204.15,141.93,204.28Z"/><path class="cls-5" d="M112.85,203.28c-.87-.19-1.74-.4-2.6-.62L118.59,170c.49.13,1,.24,1.49.35Z"/><path class="cls-6" d="M149.74,202.73,141.53,170l1.48-.4L152.33,202C151.47,202.28,150.61,202.51,149.74,202.73Z"/><path class="cls-7" d="M105.12,201.18q-1.26-.42-2.52-.87l11.59-31.69,1.45.5Z"/><path class="cls-8" d="M157.42,200.38l-11.5-31.72,1.47-.56,12.49,31.34C159.07,199.77,158.25,200.08,157.42,200.38Z"/><path class="cls-9" d="M97.65,198.31c-.81-.36-1.61-.73-2.41-1.12l14.69-30.37,1.41.65Z"/><path class="cls-10" d="M164.77,197.29,150.2,166.86l1.34-.67,15.65,29.89C166.39,196.5,165.58,196.91,164.77,197.29Z"/><path class="cls-11" d="M90.5,194.7c-.78-.44-1.54-.9-2.31-1.37l17.73-28.71c.43.27.87.52,1.31.78Z"/><path class="cls-12" d="M171.81,193.47l-17.58-28.8c.43-.27.86-.53,1.28-.81L174.09,192C173.33,192.52,172.58,193,171.81,193.47Z"/><path class="cls-13" d="M83.83,190.44c-.75-.53-1.49-1.07-2.22-1.63L102.1,162c.38.29.77.58,1.17.86Z"/><path class="cls-14" d="M178.4,189l-20.35-26.91c.41-.31.81-.63,1.21-.95l21.25,26.21C179.81,187.88,179.11,188.43,178.4,189Z"/><path class="cls-15" d="M77.54,185.49c-.68-.59-1.35-1.19-2-1.81l23-24.68c.37.34.74.68,1.12,1Z"/><path class="cls-16" d="M184.53,183.83,161.58,159.1c.38-.35.75-.71,1.11-1.07l23.76,24C185.82,182.62,185.18,183.23,184.53,183.83Z"/><path class="cls-17" d="M71.76,179.93c-.6-.64-1.18-1.28-1.76-1.92l25.26-22.38,1.08,1.19Z"/><path class="cls-18" d="M190.07,178.18l-25.2-22.44c.33-.36.64-.74,1-1.12l26,21.48C191.27,176.8,190.68,177.49,190.07,178.18Z"/><path class="cls-19" d="M66.63,173.93c-.54-.71-1.08-1.42-1.6-2.15L92.37,152c.29.41.59.82.91,1.23Z"/><path class="cls-20" d="M195.08,171.94l-27.32-19.8c.31-.42.61-.85.9-1.28l27.94,18.92C196.1,170.51,195.6,171.23,195.08,171.94Z"/><path class="cls-21" d="M62,167.33c-.46-.76-.92-1.52-1.36-2.28l29.21-16.89c.26.45.52.89.79,1.33Z"/><path class="cls-22" d="M199.45,165.24l-29.17-17c.26-.45.52-.91.77-1.37l29.69,16Q200.11,164.1,199.45,165.24Z"/><path class="cls-23" d="M58.16,160.34c-.4-.79-.77-1.59-1.14-2.4l30.75-13.89.66,1.4Z"/><path class="cls-24" d="M203.11,158.14l-30.71-14c.2-.44.4-.88.58-1.33l31.22,12.78C203.86,156.46,203.49,157.3,203.11,158.14Z"/><path class="cls-25" d="M55,153c-.31-.84-.61-1.68-.89-2.53l32-10.7c.16.48.33,1,.5,1.44Z"/><path class="cls-26" d="M206.05,150.7l-32-10.82c.16-.48.31-1,.46-1.44l32.32,9.69C206.61,149,206.34,149.85,206.05,150.7Z"/><path class="cls-27" d="M52.58,145.36c-.23-.86-.44-1.73-.63-2.59l32.91-7.44q.17.75.36,1.5Z"/><path class="cls-28" d="M208.22,143l-32.88-7.54c.11-.5.22-1,.31-1.5l33.13,6.43C208.61,141.25,208.42,142.13,208.22,143Z"/><path class="cls-29" d="M51,137.55c-.13-.88-.26-1.76-.37-2.64l33.49-4.15q.09.77.21,1.53Z"/><path class="cls-30" d="M209.62,135.1l-33.48-4.17c.06-.53.12-1.06.17-1.59l33.59,3.17C209.82,133.38,209.73,134.24,209.62,135.1Z"/><path class="cls-31" d="M50.11,129.58c0-.88-.09-1.76-.11-2.64l33.73-.79c0,.51,0,1,.06,1.55Z"/><path class="cls-32" d="M210.22,127.15l-33.73-.84,0-1.36,33.73-.6V125C210.24,125.76,210.23,126.46,210.22,127.15Z"/><path class="cls-33" d="M83.76,123l-33.71-1.39c0-.89.08-1.77.15-2.65l33.65,2.49C83.81,122,83.78,122.51,83.76,123Z"/><path class="cls-34" d="M176.38,121.61c0-.5-.07-1-.13-1.51l33.55-3.56c.1.9.18,1.79.24,2.69Z"/><path class="cls-35" d="M84.17,118.43l-33.4-4.75c.12-.86.26-1.72.41-2.58l33.24,5.76C84.33,117.38,84.25,117.91,84.17,118.43Z"/><path class="cls-36" d="M175.83,117c-.09-.51-.18-1-.29-1.52l33-6.84c.18.87.35,1.74.5,2.62Z"/><path class="cls-37" d="M85.05,113.88l-32.78-8c.22-.87.44-1.74.68-2.6l32.48,9.14C85.3,112.89,85.17,113.38,85.05,113.88Z"/><path class="cls-38" d="M174.82,112.51c-.14-.49-.28-1-.44-1.47l32.2-10.11c.26.85.51,1.71.75,2.56Z"/><path class="cls-39" d="M86.36,109.49,54.57,98.16c.29-.82.6-1.64.92-2.45L86.91,108C86.72,108.49,86.53,109,86.36,109.49Z"/><path class="cls-40" d="M173.38,108.16c-.2-.48-.39-1-.6-1.45l31-13.28c.34.81.68,1.62,1,2.44Z"/><path class="cls-41" d="M88.15,105.14,57.59,90.85c.38-.83.79-1.65,1.21-2.46l30,15.44C88.57,104.27,88.36,104.7,88.15,105.14Z"/><path class="cls-42" d="M171.49,104c-.24-.47-.5-.94-.75-1.41L200.3,86.28c.42.76.83,1.53,1.23,2.3Z"/><path class="cls-43" d="M90.3,101.13,61.39,83.74c.46-.76.94-1.53,1.43-2.28L91.1,99.85C90.83,100.28,90.56,100.7,90.3,101.13Z"/><path class="cls-44" d="M169.18,100c-.28-.43-.56-.86-.86-1.29l27.74-19.21c.5.73,1,1.46,1.47,2.2Z"/><path class="cls-45" d="M92.88,97.31l-27-20.2c.53-.72,1.08-1.42,1.64-2.11L93.83,96.09C93.5,96.49,93.19,96.89,92.88,97.31Z"/><path class="cls-46" d="M166.47,96.17c-.31-.39-.63-.78-1-1.16l25.67-21.9c.59.69,1.16,1.39,1.72,2.09Z"/><path class="cls-47" d="M95.86,93.72,70.93,71c.6-.67,1.22-1.32,1.86-2l24.1,23.61C96.54,93,96.19,93.35,95.86,93.72Z"/><polygon class="cls-48" points="163.43 92.72 162.33 91.62 185.73 67.31 187.61 69.19 163.43 92.72"/><path class="cls-49" d="M99.16,90.44,76.58,65.37q1-.9,2-1.77l21.67,25.85C99.91,89.77,99.54,90.1,99.16,90.44Z"/><path class="cls-50" d="M160,89.55c-.4-.35-.82-.69-1.23-1l21-26.43c.68.53,1.35,1.09,2,1.65Z"/><path class="cls-51" d="M102.72,87.54,82.8,60.31c.71-.51,1.42-1,2.14-1.51L104,86.63C103.58,86.92,103.15,87.23,102.72,87.54Z"/><path class="cls-52" d="M156.34,86.72c-.43-.3-.88-.6-1.32-.88l18.25-28.38c.73.47,1.46.95,2.18,1.45Z"/><path class="cls-53" d="M106.6,85,89.45,55.93c.76-.45,1.53-.89,2.3-1.31l16.19,29.6C107.49,84.47,107,84.72,106.6,85Z"/><path class="cls-54" d="M152.41,84.29c-.45-.25-.91-.49-1.37-.72l15.25-30.1c.79.4,1.57.81,2.35,1.24Z"/><path class="cls-55" d="M110.73,82.82,96.48,52.24c.83-.39,1.66-.76,2.51-1.11l13.08,31.1C111.62,82.42,111.17,82.61,110.73,82.82Z"/><path class="cls-56" d="M148.26,82.27l-1.38-.56L158.93,50.2q1.27.48,2.52,1Z"/><path class="cls-57" d="M115,81.12l-11-31.89c.85-.29,1.7-.57,2.57-.83l9.89,32.25Z"/><path class="cls-58" d="M143.93,80.69c-.49-.16-1-.3-1.48-.43l8.93-32.54c.86.23,1.71.48,2.56.75Z"/><path class="cls-59" d="M119.43,79.84,111.6,47c.88-.21,1.76-.4,2.65-.58l6.64,33.08C120.4,79.62,119.91,79.72,119.43,79.84Z"/><path class="cls-60" d="M139.45,79.54l-1.5-.28L143.57,46c.89.14,1.76.31,2.63.49Z"/><path class="cls-61" d="M124,79l-4.46-33.44c.89-.12,1.79-.22,2.69-.31l3.26,33.58Z"/><path class="cls-62" d="M134.91,78.85c-.53,0-1.06-.1-1.6-.13l2.38-33.66c.87.06,1.73.13,2.6.22Z"/><path class="cls-63" d="M128.56,78.64l-1.1-33.73,2.35,0h.49V61.74l0,16.87C129.59,78.61,129.07,78.62,128.56,78.64Z"/><path class="cls-64" d="M130.11,89.42a35.58,35.58,0,1,0,25.17,10.42A35.36,35.36,0,0,0,130.11,89.42Z"/><path class="cls-65" d="M340,123.54q0-1.32.09-2.64l33.7,1.69c0,.51,0,1-.05,1.55Z"/><path class="cls-66" d="M340,128.84l33.71-1.58c0,.52.06,1,.1,1.55l-33.64,2.68C340.13,130.61,340.08,129.73,340,128.84Z"/><path class="cls-67" d="M340.49,115.57c.1-.86.22-1.72.34-2.58l33.38,5c-.08.52-.15,1.05-.21,1.58Z"/><path class="cls-68" d="M340.81,136.8l33.37-5c.08.51.16,1,.25,1.53l-33.19,6.05C341.08,138.55,340.94,137.68,340.81,136.8Z"/><path class="cls-69" d="M341.8,107.73c.19-.88.4-1.74.62-2.61l32.69,8.35c-.12.49-.24,1-.35,1.48Z"/><path class="cls-70" d="M342.36,144.62l32.73-8.21c.12.5.25,1,.39,1.48l-32.42,9.32C342.81,146.35,342.58,145.49,342.36,144.62Z"/><path class="cls-71" d="M343.91,100q.4-1.27.87-2.52l31.69,11.58c-.18.49-.35,1-.5,1.46Z"/><path class="cls-72" d="M344.7,152.3l31.73-11.5c.17.49.36,1,.55,1.46l-31.34,12.5C345.32,153.94,345,153.12,344.7,152.3Z"/><path class="cls-73" d="M346.78,92.53c.35-.81.73-1.61,1.11-2.41l30.38,14.69c-.23.46-.44.93-.65,1.41Z"/><path class="cls-74" d="M347.79,159.65l30.43-14.58c.22.46.45.9.68,1.35L349,162.06C348.58,161.26,348.18,160.46,347.79,159.65Z"/><path class="cls-75" d="M350.39,85.38c.44-.78.89-1.55,1.36-2.31l28.72,17.72c-.27.44-.53.87-.78,1.32Z"/><path class="cls-76" d="M351.62,166.69l28.8-17.58c.26.43.53.85.81,1.28L353.06,169C352.57,168.21,352.08,167.46,351.62,166.69Z"/><path class="cls-77" d="M354.65,78.71q.78-1.12,1.62-2.22L383.09,97c-.3.39-.59.78-.87,1.18Z"/><path class="cls-78" d="M356.12,173.28,383,152.93c.3.4.62.81.94,1.2l-26.21,21.25C357.2,174.69,356.65,174,356.12,173.28Z"/><path class="cls-79" d="M359.6,72.42q.88-1,1.8-2l24.69,23c-.35.37-.68.74-1,1.12Z"/><path class="cls-80" d="M361.25,179.41,386,156.46c.35.37.7.75,1.06,1.11L363.1,181.33C362.47,180.7,361.86,180.06,361.25,179.41Z"/><path class="cls-81" d="M365.16,66.63c.63-.59,1.27-1.18,1.92-1.75l22.37,25.26c-.4.35-.79.71-1.19,1.08Z"/><path class="cls-82" d="M366.91,185l22.43-25.21c.37.33.74.65,1.12,1l-21.48,26C368.28,186.15,367.59,185.56,366.91,185Z"/><path class="cls-83" d="M371.16,61.51c.7-.55,1.42-1.08,2.14-1.6l19.78,27.33c-.41.3-.82.6-1.22.91Z"/><path class="cls-84" d="M373.14,190l19.8-27.32,1.29.9-18.92,27.93C374.58,191,373.86,190.48,373.14,190Z"/><path class="cls-85" d="M377.76,56.91c.75-.47,1.51-.92,2.27-1.37l16.89,29.21-1.32.8Z"/><path class="cls-86" d="M379.85,194.32l17-29.16,1.37.77-16,29.68C381.37,195.2,380.61,194.77,379.85,194.32Z"/><path class="cls-87" d="M384.74,53c.8-.39,1.6-.77,2.4-1.13L401,82.65c-.47.21-.93.43-1.4.66Z"/><path class="cls-88" d="M387,198l14-30.71,1.34.58-12.79,31.22C388.62,198.73,387.78,198.37,387,198Z"/><path class="cls-89" d="M392.08,49.87c.84-.31,1.68-.61,2.53-.9l10.7,32q-.72.24-1.44.51Z"/><path class="cls-90" d="M394.39,200.92,405.21,169c.47.16,1,.31,1.43.45L397,201.74C396.09,201.48,395.24,201.21,394.39,200.92Z"/><path class="cls-91" d="M399.73,47.45c.86-.22,1.72-.43,2.59-.63l7.43,32.92c-.5.11-1,.23-1.49.36Z"/><path class="cls-92" d="M402.09,203.1l7.55-32.89c.5.12,1,.22,1.49.32l-6.42,33.12C403.83,203.48,403,203.3,402.09,203.1Z"/><path class="cls-93" d="M407.54,45.83c.87-.14,1.75-.26,2.64-.37l4.14,33.48-1.53.22Z"/><path class="cls-94" d="M410,204.5,414.16,171q.78.11,1.59.18l-3.18,33.59C411.71,204.7,410.85,204.6,410,204.5Z"/><path class="cls-95" d="M415.5,45c.88,0,1.76-.08,2.65-.1l.79,33.73q-.78,0-1.56.06Z"/><path class="cls-96" d="M417.93,205.09l.85-33.73,1.36,0,.6,33.74h-.66C419.32,205.12,418.62,205.11,417.93,205.09Z"/><path class="cls-97" d="M422.06,78.63l1.38-33.71c.89,0,1.77.09,2.65.15L423.6,78.72C423.09,78.69,422.58,78.65,422.06,78.63Z"/><path class="cls-98" d="M423.48,171.26c.5,0,1-.08,1.5-.13l3.56,33.55c-.89.1-1.79.18-2.69.24Z"/><path class="cls-99" d="M426.65,79.05l4.76-33.4c.86.12,1.72.25,2.57.4L428.23,79.3Z"/><path class="cls-100" d="M428.06,170.71c.5-.09,1-.18,1.51-.29l6.85,33c-.87.18-1.75.35-2.62.5Z"/><path class="cls-101" d="M431.21,79.92l8-32.77c.87.21,1.73.44,2.59.68l-9.14,32.48Q431.95,80.1,431.21,79.92Z"/><path class="cls-102" d="M432.57,169.7c.5-.14,1-.28,1.48-.44l10.1,32.19c-.85.27-1.7.52-2.56.76Z"/><path class="cls-103" d="M435.6,81.23l11.32-31.78c.82.29,1.64.6,2.45.91L437.08,81.79Z"/><path class="cls-104" d="M436.92,168.25l1.45-.59,13.28,31c-.8.34-1.62.67-2.44,1Z"/><path class="cls-105" d="M439.94,83l14.29-30.57c.83.39,1.65.8,2.47,1.22l-15.45,30C440.82,83.45,440.38,83.23,439.94,83Z"/><path class="cls-106" d="M441.14,166.36l1.4-.74,16.27,29.56c-.77.42-1.53.82-2.31,1.22Z"/><path class="cls-107" d="M444,85.18l17.39-28.92c.77.47,1.53.94,2.29,1.44L445.23,86Z"/><path class="cls-108" d="M445.13,164.06l1.29-.86,19.21,27.73c-.72.51-1.46,1-2.2,1.48Z"/><path class="cls-109" d="M447.78,87.76l20.2-27c.71.53,1.41,1.08,2.11,1.63L449,88.7C448.6,88.38,448.19,88.07,447.78,87.76Z"/><path class="cls-110" d="M448.92,161.34c.39-.31.77-.62,1.15-1L472,186.06c-.68.58-1.38,1.16-2.09,1.72Z"/><path class="cls-111" d="M451.37,90.73l22.74-24.92c.66.6,1.32,1.22,2,1.85L452.46,91.77C452.1,91.41,451.74,91.07,451.37,90.73Z"/><polygon class="cls-112" points="452.37 158.31 453.46 157.21 477.77 180.6 475.9 182.49 452.37 158.31"/><path class="cls-113" d="M454.65,94l25.06-22.59q.92,1,1.77,2L455.63,95.17C455.31,94.79,455,94.41,454.65,94Z"/><path class="cls-114" d="M455.54,154.91c.34-.41.68-.82,1-1.24l26.44,21c-.54.68-1.09,1.35-1.65,2Z"/><path class="cls-115" d="M457.54,97.6l27.23-19.93c.52.71,1,1.42,1.52,2.14L458.46,98.89C458.16,98.46,457.86,98,457.54,97.6Z"/><path class="cls-116" d="M458.36,151.22c.31-.44.6-.88.89-1.33l28.37,18.26c-.47.73-.95,1.46-1.44,2.17Z"/><path class="cls-117" d="M460.1,101.48l29.06-17.16c.45.76.88,1.53,1.31,2.31l-29.6,16.19C460.62,102.37,460.36,101.92,460.1,101.48Z"/><path class="cls-118" d="M460.79,147.29c.25-.45.49-.91.73-1.37l30.1,15.25c-.4.79-.82,1.57-1.24,2.35Z"/><path class="cls-119" d="M462.26,105.61l30.59-14.26q.57,1.25,1.11,2.52l-31.11,13.07C462.67,106.49,462.47,106.05,462.26,105.61Z"/><path class="cls-120" d="M462.81,143.13c.2-.45.38-.91.56-1.37l31.52,12.05q-.5,1.27-1,2.52Z"/><path class="cls-121" d="M464,109.84l31.88-11c.3.85.58,1.7.84,2.56l-32.26,9.9C464.28,110.8,464.13,110.32,464,109.84Z"/><path class="cls-122" d="M464.4,138.81c.15-.49.29-1,.43-1.48l32.54,8.93c-.24.86-.49,1.71-.75,2.56Z"/><path class="cls-123" d="M465.25,114.31l32.81-7.84c.21.88.41,1.77.59,2.66l-33.09,6.63C465.47,115.27,465.36,114.79,465.25,114.31Z"/><path class="cls-124" d="M465.54,134.33c.1-.5.19-1,.28-1.51l33.27,5.63c-.15.88-.31,1.76-.49,2.63Z"/><path class="cls-125" d="M466.07,118.83l33.44-4.47c.12.9.23,1.8.32,2.7l-33.59,3.26C466.19,119.82,466.14,119.32,466.07,118.83Z"/><path class="cls-126" d="M466.23,129.78c0-.52.1-1.06.14-1.59L500,130.57c-.07.86-.14,1.73-.23,2.59Z"/><path class="cls-63" d="M466.45,123.43l33.72-1.09c0,.78,0,1.56,0,2.35v.49H483.34l-16.87,0C466.47,124.47,466.46,124,466.45,123.43Z"/><path class="cls-64" d="M455.66,125a35.58,35.58,0,1,0-10.42,25.16A35.38,35.38,0,0,0,455.66,125Z"/><path class="cls-127" d="M765.68,182.69c-.64.61-1.29,1.22-1.94,1.81l-22.63-25c.38-.34.76-.7,1.13-1.06Z"/><path class="cls-128" d="M769.36,178.89l-25-22.71c.35-.39.7-.78,1-1.17l25.68,21.89C770.55,177.57,770,178.23,769.36,178.89Z"/><path class="cls-129" d="M759.66,188c-.68.54-1.37,1.06-2.07,1.58l-20.08-27.11,1.26-1Z"/><path class="cls-130" d="M774.45,172.71l-27.1-20.1c.31-.41.61-.83.9-1.25L776,170.55C775.5,171.28,775,172,774.45,172.71Z"/><path class="cls-131" d="M753.19,192.57c-.76.48-1.52,1-2.28,1.4l-17.22-29c.44-.25.87-.52,1.3-.8Z"/><path class="cls-132" d="M778.88,166.09l-29-17.34c.26-.44.52-.88.77-1.32l29.52,16.33C779.78,164.55,779.34,165.32,778.88,166.09Z"/><path class="cls-133" d="M746.23,196.55c-.79.4-1.59.78-2.4,1.16l-14.21-30.6c.46-.22.93-.44,1.38-.67Z"/><path class="cls-134" d="M782.65,159l-30.56-14.3c.22-.47.43-.95.64-1.43l31,13.32C783.38,157.4,783,158.2,782.65,159Z"/><path class="cls-135" d="M738.92,199.8c-.82.32-1.66.62-2.49.91l-11.09-31.87c.48-.16,1-.34,1.45-.53Z"/><path class="cls-136" d="M785.66,151.62l-31.82-11.21c.17-.48.32-.95.47-1.43l32.21,10.08C786.25,149.92,786,150.77,785.66,151.62Z"/><path class="cls-137" d="M731.31,202.3c-.86.24-1.73.46-2.6.67l-7.77-32.84c.5-.12,1-.24,1.48-.38Z"/><path class="cls-138" d="M787.94,143.93,755.14,136q.18-.74.33-1.47l33.06,6.77C788.34,142.19,788.15,143.06,787.94,143.93Z"/><path class="cls-139" d="M723.58,204c-.9.15-1.8.29-2.71.41L716.39,171l1.44-.22Z"/><path class="cls-140" d="M789.42,136.09,756,131.46q.11-.77.18-1.53l33.56,3.51C789.65,134.33,789.54,135.21,789.42,136.09Z"/><path class="cls-141" d="M715.63,205c-.89.07-1.79.11-2.69.15l-1.19-33.72,1.5-.08Z"/><path class="cls-142" d="M790.12,128.13l-33.72-1.27q0-.77,0-1.53l33.75.14C790.17,126.35,790.15,127.24,790.12,128.13Z"/><path class="cls-143" d="M707.61,205.11c-.87,0-1.73-.07-2.59-.12l2-33.68,1.6.08Z"/><path class="cls-144" d="M790,120.21l-33.69,2c0-.49-.06-1-.11-1.47l33.59-3.22C789.92,118.39,790,119.3,790,120.21Z"/><path class="cls-145" d="M699.75,204.49c-.89-.11-1.77-.24-2.65-.38l5.34-33.32c.5.08,1,.16,1.51.22Z"/><path class="cls-146" d="M789.17,112.26l-33.32,5.32c-.08-.52-.17-1-.27-1.55l33.13-6.37C788.88,110.52,789,111.39,789.17,112.26Z"/><path class="cls-147" d="M691.83,203.08c-.86-.2-1.72-.42-2.58-.65l8.71-32.6c.5.14,1,.26,1.51.38Z"/><path class="cls-148" d="M787.52,104.43l-32.62,8.63c-.14-.51-.28-1-.43-1.51l32.33-9.66C787.05,102.74,787.29,103.58,787.52,104.43Z"/><path class="cls-149" d="M684.15,200.88c-.84-.28-1.67-.58-2.5-.9l11.92-31.56,1.46.52Z"/><path class="cls-150" d="M785.09,96.82l-31.6,11.84c-.17-.46-.35-.91-.54-1.36l31.13-13C784.43,95.11,784.77,96,785.09,96.82Z"/><path class="cls-151" d="M676.72,197.93c-.81-.38-1.62-.76-2.42-1.16l15.06-30.19,1.37.66Z"/><path class="cls-152" d="M781.9,89.48l-30.25,15c-.22-.45-.45-.9-.69-1.34l29.7-16C781.09,87.88,781.5,88.68,781.9,89.48Z"/><path class="cls-153" d="M669.61,194.23c-.77-.45-1.53-.91-2.28-1.39l18-28.53c.44.28.88.54,1.32.8Z"/><path class="cls-154" d="M778,82.5,749.4,100.41c-.27-.43-.55-.85-.83-1.28l28-18.87C777,81,777.52,81.75,778,82.5Z"/><path class="cls-155" d="M662.93,189.85c-.71-.52-1.42-1-2.12-1.6l20.74-26.61c.41.32.82.63,1.24.93Z"/><path class="cls-156" d="M773.4,75.93,746.77,96.65c-.32-.42-.66-.83-1-1.24l26-21.51C772.32,74.57,772.87,75.25,773.4,75.93Z"/><path class="cls-157" d="M656.71,184.82c-.66-.59-1.31-1.18-2-1.8l23.29-24.41,1.15,1.06Z"/><path class="cls-158" d="M768.2,69.89,743.75,93.14l-1-1,23.44-24.27.47.46Z"/><path class="cls-159" d="M675.86,156.39l-24.81,22.86c-.6-.66-1.19-1.31-1.77-2l25.56-22C675.17,155.62,675.51,156,675.86,156.39Z"/><path class="cls-160" d="M740.36,89.89c-.38-.33-.77-.65-1.16-1l21.21-26.24c.7.56,1.39,1.14,2.07,1.73Z"/><path class="cls-161" d="M672.91,152.85l-27,20.25c-.52-.69-1-1.39-1.54-2.1L672,151.56Z"/><path class="cls-162" d="M736.73,87c-.42-.3-.85-.59-1.28-.87L754,58c.74.49,1.47,1,2.2,1.5Z"/><path class="cls-163" d="M670.3,149l-28.84,17.5c-.46-.76-.92-1.53-1.35-2.31l29.43-16.51C669.78,148.14,670,148.57,670.3,149Z"/><path class="cls-164" d="M732.82,84.56l-1.35-.73,15.62-29.91c.79.41,1.57.84,2.34,1.28Z"/><path class="cls-165" d="M668.13,145l-30.48,14.47c-.38-.79-.74-1.58-1.09-2.39l30.91-13.52Q667.78,144.26,668.13,145Z"/><path class="cls-166" d="M728.72,82.51l-1.44-.61,12.54-31.32q1.23.49,2.43,1Z"/><path class="cls-167" d="M666.33,140.64l-31.72,11.5c-.31-.85-.61-1.72-.89-2.59l32.14-10.29C666,139.72,666.16,140.18,666.33,140.64Z"/><path class="cls-168" d="M724.41,80.87c-.51-.17-1-.32-1.52-.47l9.4-32.4c.83.24,1.66.49,2.49.76Z"/><path class="cls-169" d="M665,136.28l-32.74,8.15c-.22-.87-.42-1.75-.6-2.63l33-7C664.78,135.3,664.89,135.79,665,136.28Z"/><path class="cls-170" d="M720,79.67q-.76-.17-1.53-.3l6-33.2c.87.16,1.74.33,2.6.52Z"/><path class="cls-171" d="M664.13,131.75l-33.4,4.83c-.12-.88-.23-1.76-.33-2.65l33.53-3.71C664,130.73,664.05,131.24,664.13,131.75Z"/><path class="cls-172" d="M715.36,78.91l-1.49-.14,2.66-33.64c.9.08,1.8.16,2.69.27Z"/><path class="cls-173" d="M663.69,127.11,630,128.66c0-.9-.07-1.8-.08-2.71l33.74-.35C663.66,126.11,663.67,126.61,663.69,127.11Z"/><polygon class="cls-174" points="710.77 78.62 709.22 78.63 708.57 44.89 711.23 44.89 710.77 78.62"/><path class="cls-175" d="M663.71,122.45,630,120.7c0-.9.11-1.8.19-2.7l33.61,3C663.78,121.45,663.74,122,663.71,122.45Z"/><path class="cls-176" d="M706.13,78.78c-.54,0-1.07.1-1.6.16l-3.86-33.52c.86-.1,1.72-.19,2.59-.26Z"/><path class="cls-177" d="M664.19,117.89l-33.35-5.17c.14-.86.28-1.72.44-2.58l33.17,6.18C664.35,116.84,664.27,117.36,664.19,117.89Z"/><path class="cls-178" d="M701.52,79.39c-.53.1-1,.2-1.57.32l-7.15-33c.85-.18,1.7-.35,2.56-.51Z"/><path class="cls-179" d="M665.11,113.34l-32.67-8.42c.22-.86.46-1.71.71-2.56l32.38,9.49C665.38,112.34,665.24,112.84,665.11,113.34Z"/><path class="cls-180" d="M697,80.45l-1.48.46L685,48.85c.84-.28,1.68-.54,2.54-.79Z"/><path class="cls-181" d="M666.51,108.89,634.8,97.34c.32-.86.65-1.71,1-2.56L667,107.53C666.85,108,666.67,108.43,666.51,108.89Z"/><path class="cls-182" d="M692.65,82l-1.36.58-13.77-30.8c.83-.38,1.67-.73,2.51-1.07Z"/><path class="cls-183" d="M668.3,104.69,638,89.94c.39-.81.79-1.61,1.22-2.41L669,103.35C668.75,103.79,668.52,104.24,668.3,104.69Z"/><path class="cls-184" d="M688.47,83.9l-1.34.74-16.7-29.32c.77-.44,1.55-.87,2.34-1.28Z"/><path class="cls-185" d="M670.55,100.63,641.8,83c.48-.77,1-1.53,1.47-2.29l28.08,18.7C671.08,99.79,670.81,100.2,670.55,100.63Z"/><path class="cls-186" d="M684.5,86.26c-.43.28-.84.57-1.26.87L663.69,59.62c.73-.52,1.47-1,2.21-1.51Z"/><path class="cls-187" d="M673.16,96.85l-26.8-20.5c.55-.71,1.11-1.42,1.68-2.12L674.1,95.67C673.78,96.06,673.47,96.45,673.16,96.85Z"/><path class="cls-188" d="M680.8,89c-.41.33-.82.68-1.23,1L657.46,64.54c.65-.57,1.32-1.13,2-1.68Z"/><path class="cls-63" d="M676.15,93.33,651.53,70.25c.54-.57,1.08-1.13,1.64-1.69l.34-.35,23.86,23.86L665.44,80.14l11.92,11.94Z"/><path class="cls-64" d="M684.88,99.85A35.59,35.59,0,1,0,710,89.43,35.41,35.41,0,0,0,684.88,99.85Z"/><path class="cls-189" d="M1001.46,44.87c.88,0,1.77.05,2.65.09l-1.69,33.7c-.52,0-1,0-1.55,0Z"/><path class="cls-190" d="M996.17,45l1.58,33.7-1.55.1-2.68-33.63C994.4,45.05,995.28,45,996.17,45Z"/><path class="cls-191" d="M1009.43,45.4c.87.11,1.73.22,2.59.35l-5,33.37c-.53-.08-1-.15-1.58-.21Z"/><path class="cls-192" d="M988.2,45.72l4.95,33.38c-.51.07-1,.16-1.52.25l-6-33.2C986.45,46,987.33,45.85,988.2,45.72Z"/><path class="cls-193" d="M1017.28,46.72c.87.19,1.74.4,2.6.62L1011.54,80c-.49-.13-1-.24-1.49-.35Z"/><path class="cls-194" d="M980.39,47.27,988.6,80l-1.48.4L977.8,48C978.66,47.72,979.52,47.49,980.39,47.27Z"/><path class="cls-195" d="M1025,48.82q1.26.42,2.52.87l-11.59,31.69-1.45-.5Z"/><path class="cls-196" d="M972.71,49.62l11.5,31.72-1.47.56L970.25,50.56C971.06,50.23,971.88,49.92,972.71,49.62Z"/><path class="cls-197" d="M1032.48,51.69c.81.36,1.61.73,2.41,1.12L1020.2,83.18l-1.41-.65Z"/><path class="cls-198" d="M965.36,52.71l14.57,30.43c-.45.22-.9.44-1.34.67L962.94,53.92C963.74,53.5,964.55,53.09,965.36,52.71Z"/><path class="cls-199" d="M1039.63,55.3c.78.44,1.54.9,2.31,1.37l-17.73,28.71c-.43-.27-.87-.52-1.31-.78Z"/><path class="cls-200" d="M958.32,56.53l17.58,28.8c-.43.27-.86.53-1.28.81L956,58C956.8,57.48,957.55,57,958.32,56.53Z"/><path class="cls-201" d="M1046.3,59.56c.75.53,1.49,1.07,2.22,1.63L1028,88c-.38-.29-.77-.58-1.17-.86Z"/><path class="cls-202" d="M951.73,61l20.35,26.91c-.41.31-.81.63-1.21,1L949.62,62.68C950.32,62.12,951,61.57,951.73,61Z"/><path class="cls-203" d="M1052.59,64.51c.68.59,1.35,1.19,2,1.81L1031.6,91l-1.12-1Z"/><path class="cls-204" d="M945.6,66.17,968.55,90.9c-.38.35-.75.71-1.11,1.07L943.68,68C944.31,67.38,945,66.77,945.6,66.17Z"/><path class="cls-205" d="M1058.37,70.07c.6.64,1.18,1.28,1.75,1.92l-25.25,22.38-1.08-1.19Z"/><path class="cls-206" d="M940.06,71.82l25.2,22.44c-.33.36-.65.74-1,1.12l-26-21.48C938.86,73.2,939.45,72.51,940.06,71.82Z"/><path class="cls-207" d="M1063.5,76.07c.54.71,1.08,1.42,1.6,2.15L1037.76,98c-.29-.41-.6-.82-.91-1.23Z"/><path class="cls-208" d="M935.05,78.06l27.32,19.8c-.31.42-.61.85-.9,1.28L933.53,80.22C934,79.49,934.53,78.77,935.05,78.06Z"/><path class="cls-209" d="M1068.1,82.67c.46.76.92,1.52,1.36,2.28l-29.21,16.89c-.26-.45-.52-.89-.8-1.33Z"/><path class="cls-210" d="M930.68,84.76l29.17,17c-.26.45-.52.91-.77,1.37l-29.69-16Q930,85.9,930.68,84.76Z"/><path class="cls-211" d="M1072,89.66c.4.79.77,1.59,1.14,2.4L1042.36,106l-.66-1.4Z"/><path class="cls-212" d="M927,91.86l30.71,14c-.2.44-.4.88-.58,1.33L925.93,94.39C926.27,93.54,926.64,92.7,927,91.86Z"/><path class="cls-213" d="M1075.14,97c.31.84.61,1.68.89,2.53l-32,10.7c-.16-.48-.33-1-.5-1.44Z"/><path class="cls-214" d="M924.08,99.3l32,10.82c-.16.48-.31,1-.46,1.44l-32.32-9.69C923.52,101,923.79,100.15,924.08,99.3Z"/><path class="cls-215" d="M1077.55,104.64c.23.86.44,1.73.63,2.59l-32.91,7.44q-.16-.75-.36-1.5Z"/><path class="cls-216" d="M921.91,107l32.88,7.54c-.11.5-.22,1-.31,1.5l-33.13-6.43C921.52,108.75,921.71,107.87,921.91,107Z"/><path class="cls-217" d="M1079.18,112.45c.13.88.26,1.76.37,2.64l-33.49,4.15q-.09-.76-.21-1.53Z"/><path class="cls-218" d="M920.51,114.9,954,119.07c-.06.53-.12,1.06-.17,1.59l-33.59-3.17C920.31,116.62,920.4,115.76,920.51,114.9Z"/><path class="cls-219" d="M1080,120.42c0,.88.09,1.76.11,2.64l-33.73.79-.06-1.55Z"/><path class="cls-220" d="M919.91,122.85l33.73.84,0,1.36-33.73.6V125C919.89,124.24,919.9,123.54,919.91,122.85Z"/><path class="cls-221" d="M1046.37,127l33.71,1.39c0,.89-.08,1.77-.15,2.65l-33.65-2.49C1046.32,128,1046.35,127.49,1046.37,127Z"/><path class="cls-222" d="M953.75,128.39c0,.5.07,1,.13,1.51l-33.55,3.56c-.1-.9-.18-1.79-.24-2.69Z"/><path class="cls-223" d="M1046,131.57l33.4,4.75c-.12.86-.26,1.72-.41,2.58l-33.24-5.76C1045.8,132.62,1045.88,132.09,1046,131.57Z"/><path class="cls-224" d="M954.3,133c.09.51.18,1,.29,1.52l-33.05,6.84c-.17-.87-.34-1.74-.49-2.62Z"/><path class="cls-225" d="M1045.08,136.12l32.78,8c-.22.87-.44,1.74-.68,2.6l-32.48-9.14C1044.83,137.11,1045,136.62,1045.08,136.12Z"/><path class="cls-226" d="M955.31,137.49c.14.49.28,1,.43,1.47l-32.19,10.11c-.26-.85-.51-1.71-.75-2.56Z"/><path class="cls-227" d="M1043.77,140.51l31.79,11.33c-.29.82-.6,1.64-.92,2.45L1043.22,142C1043.41,141.51,1043.6,141,1043.77,140.51Z"/><path class="cls-228" d="M956.75,141.84c.2.48.39,1,.6,1.45l-31,13.28c-.35-.81-.68-1.62-1-2.44Z"/><path class="cls-229" d="M1042,144.86l30.56,14.29c-.38.83-.79,1.65-1.21,2.46l-30-15.44C1041.56,145.73,1041.77,145.3,1042,144.86Z"/><path class="cls-230" d="M958.64,146.05q.36.7.75,1.41l-29.56,16.26c-.42-.76-.83-1.53-1.23-2.3Z"/><path class="cls-231" d="M1039.83,148.87l28.91,17.39c-.46.76-.94,1.53-1.43,2.28L1039,150.15C1039.3,149.72,1039.57,149.3,1039.83,148.87Z"/><path class="cls-232" d="M960.94,150.05c.29.43.57.86.87,1.29l-27.74,19.21c-.5-.73-1-1.46-1.47-2.2Z"/><path class="cls-233" d="M1037.25,152.69l27,20.2c-.53.72-1.08,1.42-1.64,2.11l-26.34-21.09C1036.63,153.51,1036.94,153.11,1037.25,152.69Z"/><path class="cls-234" d="M963.66,153.83c.31.39.63.78,1,1.16L939,176.89c-.59-.69-1.16-1.39-1.72-2.09Z"/><path class="cls-235" d="M1034.27,156.28,1059.2,179c-.61.67-1.23,1.32-1.86,2l-24.1-23.61C1033.59,157,1033.94,156.65,1034.27,156.28Z"/><polygon class="cls-236" points="966.7 157.28 967.8 158.38 944.4 182.69 942.52 180.81 966.7 157.28"/><path class="cls-237" d="M1031,159.56l22.58,25.07q-1,.9-2,1.77l-21.67-25.85C1030.22,160.23,1030.59,159.9,1031,159.56Z"/><path class="cls-238" d="M970.09,160.45c.41.35.83.69,1.24,1l-21,26.43c-.68-.53-1.36-1.09-2-1.65Z"/><path class="cls-239" d="M1027.41,162.46l19.92,27.23c-.71.51-1.42,1-2.14,1.51l-19.08-27.83C1026.55,163.08,1027,162.77,1027.41,162.46Z"/><path class="cls-240" d="M973.79,163.28c.43.3.88.6,1.32.88l-18.25,28.38c-.73-.47-1.46-.95-2.18-1.45Z"/><path class="cls-241" d="M1023.53,165l17.15,29c-.76.45-1.53.89-2.3,1.31l-16.2-29.6Z"/><path class="cls-242" d="M977.72,165.71c.45.25.91.49,1.37.72l-15.25,30.1c-.79-.4-1.57-.81-2.35-1.24Z"/><path class="cls-243" d="M1019.4,167.18l14.25,30.58c-.83.39-1.66.76-2.51,1.11l-13.08-31.1C1018.51,167.58,1019,167.39,1019.4,167.18Z"/><path class="cls-244" d="M981.87,167.73l1.38.56-12,31.51q-1.28-.48-2.52-1Z"/><path class="cls-245" d="M1015.16,168.88l11,31.89c-.85.29-1.7.57-2.57.83l-9.89-32.25Z"/><path class="cls-246" d="M986.2,169.31c.49.16,1,.3,1.48.43l-8.93,32.54c-.86-.23-1.72-.48-2.56-.75Z"/><path class="cls-247" d="M1010.7,170.16l7.83,32.82c-.88.21-1.76.4-2.65.58l-6.64-33.08C1009.73,170.38,1010.22,170.28,1010.7,170.16Z"/><path class="cls-248" d="M990.68,170.46l1.5.28L986.56,204c-.89-.14-1.76-.31-2.63-.49Z"/><path class="cls-249" d="M1006.18,171l4.46,33.44c-.89.12-1.79.22-2.69.31l-3.26-33.58Z"/><path class="cls-250" d="M995.22,171.15c.53,0,1.06.1,1.6.13l-2.38,33.66c-.87-.06-1.73-.13-2.6-.22Z"/><path class="cls-63" d="M1001.57,171.36l1.1,33.73-2.35,0h-.49V171.39C1000.54,171.39,1001.06,171.38,1001.57,171.36Z"/><path class="cls-64" d="M1000,160.58a35.58,35.58,0,1,0-25.17-10.42A35.36,35.36,0,0,0,1000,160.58Z"/><path class="cls-251" d="M1232.28,180.63c-.62-.63-1.22-1.28-1.81-1.93l25-22.64c.35.39.7.76,1.06,1.14Z"/><path class="cls-252" d="M1236.08,184.32l22.71-24.95,1.17,1-21.89,25.67C1237.4,185.5,1236.73,184.92,1236.08,184.32Z"/><path class="cls-253" d="M1227,174.62c-.54-.68-1.07-1.38-1.58-2.07l27.11-20.09c.31.43.64.85,1,1.27Z"/><path class="cls-254" d="M1242.26,189.4l20.09-27.1,1.26.91L1244.42,191C1243.69,190.45,1243,189.93,1242.26,189.4Z"/><path class="cls-255" d="M1222.4,168.14q-.72-1.12-1.41-2.28l29-17.21c.26.43.53.87.81,1.29Z"/><path class="cls-256" d="M1248.88,193.83l17.34-28.94,1.32.76-16.34,29.52C1250.42,194.74,1249.65,194.29,1248.88,193.83Z"/><path class="cls-257" d="M1218.42,161.19c-.4-.8-.79-1.6-1.16-2.4l30.6-14.22c.21.47.44.93.67,1.39Z"/><path class="cls-258" d="M1256,197.6l14.3-30.56c.47.22,1,.44,1.43.64l-13.33,31C1257.57,198.33,1256.76,198,1256,197.6Z"/><path class="cls-259" d="M1215.17,153.88c-.32-.83-.62-1.66-.91-2.5l31.86-11.09c.17.49.35,1,.54,1.46Z"/><path class="cls-260" d="M1263.35,200.62l11.21-31.83c.47.17,1,.33,1.43.48l-10.08,32.2C1265.05,201.2,1264.19,200.92,1263.35,200.62Z"/><path class="cls-261" d="M1212.67,146.27c-.24-.87-.46-1.73-.67-2.6l32.84-7.77c.11.49.24,1,.37,1.48Z"/><path class="cls-262" d="M1271,202.89,1279,170.1c.49.11,1,.23,1.47.33l-6.78,33C1272.78,203.3,1271.9,203.1,1271,202.89Z"/><path class="cls-263" d="M1211,138.54c-.16-.91-.3-1.81-.42-2.72l33.45-4.48c.06.49.13,1,.22,1.45Z"/><path class="cls-264" d="M1278.88,204.37l4.63-33.42c.51.07,1,.13,1.52.18l-3.51,33.56C1280.64,204.6,1279.76,204.49,1278.88,204.37Z"/><path class="cls-265" d="M1210,130.59c-.06-.9-.11-1.8-.14-2.7l33.72-1.19c0,.51,0,1,.08,1.51Z"/><path class="cls-266" d="M1286.84,205.07l1.26-33.72c.52,0,1,0,1.54,0l-.14,33.74C1288.61,205.13,1287.72,205.1,1286.84,205.07Z"/><path class="cls-267" d="M1209.86,122.57c0-.87.06-1.74.12-2.6l33.67,2c0,.53-.05,1.07-.07,1.6Z"/><path class="cls-268" d="M1294.75,205l-2-33.68q.73,0,1.47-.12l3.21,33.59Q1296.13,204.92,1294.75,205Z"/><path class="cls-269" d="M1210.48,114.7c.11-.88.24-1.77.38-2.65l33.31,5.35c-.08.5-.15,1-.22,1.51Z"/><path class="cls-270" d="M1302.71,204.12l-5.32-33.31,1.54-.28,6.38,33.14C1304.44,203.83,1303.58,204,1302.71,204.12Z"/><path class="cls-271" d="M1211.89,106.78c.2-.86.42-1.72.64-2.57l32.6,8.71c-.13.5-.26,1-.37,1.5Z"/><path class="cls-272" d="M1310.54,202.47l-8.63-32.62c.5-.13,1-.27,1.51-.42l9.65,32.32C1312.23,202,1311.39,202.25,1310.54,202.47Z"/><path class="cls-273" d="M1214.09,99.1c.28-.84.58-1.67.9-2.5l31.56,11.93c-.18.48-.36,1-.52,1.45Z"/><path class="cls-274" d="M1318.15,200l-11.84-31.59c.46-.18.91-.35,1.36-.54l13,31.12C1319.86,199.38,1319,199.72,1318.15,200Z"/><path class="cls-275" d="M1217,91.67c.37-.81.76-1.62,1.16-2.42l30.19,15.06q-.35.69-.66,1.38Z"/><path class="cls-276" d="M1325.48,196.86l-14.94-30.25c.45-.22.89-.45,1.34-.69l16,29.7C1327.09,196.05,1326.29,196.46,1325.48,196.86Z"/><path class="cls-277" d="M1220.74,84.56c.45-.77.91-1.52,1.38-2.28l28.53,18c-.27.43-.54.87-.79,1.31Z"/><path class="cls-278" d="M1332.47,193l-17.92-28.59c.43-.27.86-.55,1.28-.84l18.88,28C1334,192,1333.22,192.48,1332.47,193Z"/><path class="cls-279" d="M1225.11,77.89c.53-.72,1.06-1.43,1.61-2.13l26.61,20.75q-.48.6-.93,1.23Z"/><path class="cls-280" d="M1339,188.35l-20.73-26.62c.42-.33.84-.66,1.25-1l21.51,26C1340.4,187.28,1339.72,187.82,1339,188.35Z"/><path class="cls-281" d="M1230.15,71.66c.58-.66,1.18-1.31,1.79-2L1256.35,93c-.35.37-.71.75-1,1.14Z"/><path class="cls-282" d="M1345.08,183.16l-23.25-24.45,1-1,24.28,23.43-.46.47Z"/><path class="cls-283" d="M1258.58,90.82,1235.72,66c.65-.6,1.31-1.19,2-1.76l22,25.55C1259.34,90.12,1259,90.47,1258.58,90.82Z"/><path class="cls-284" d="M1325.08,155.31c.33-.38.65-.76,1-1.15l26.24,21.2c-.57.7-1.14,1.39-1.73,2.07Z"/><path class="cls-285" d="M1262.12,87.87l-20.26-27c.7-.52,1.4-1,2.11-1.53l19.44,27.58C1263,87.23,1262.54,87.55,1262.12,87.87Z"/><path class="cls-286" d="M1327.93,151.68c.29-.42.58-.84.86-1.27L1357,168.93c-.49.74-1,1.48-1.51,2.21Z"/><path class="cls-287" d="M1266,85.26l-17.5-28.84c.76-.47,1.53-.92,2.31-1.36l16.5,29.43Z"/><path class="cls-288" d="M1330.4,147.77c.26-.44.5-.89.74-1.35L1361.05,162c-.42.79-.84,1.57-1.28,2.35Z"/><path class="cls-289" d="M1270,83.08,1255.52,52.6c.79-.37,1.58-.74,2.38-1.09l13.53,30.91Z"/><path class="cls-290" d="M1332.46,143.68c.21-.48.41-1,.6-1.45l31.33,12.54c-.33.82-.67,1.63-1,2.44Z"/><path class="cls-291" d="M1274.33,81.28l-11.51-31.72c.86-.31,1.73-.6,2.6-.88l10.29,32.13Z"/><path class="cls-292" d="M1334.1,139.36c.17-.5.32-1,.47-1.52l32.4,9.4c-.24.84-.5,1.67-.76,2.5Z"/><path class="cls-293" d="M1278.69,80l-8.15-32.75c.87-.21,1.74-.41,2.62-.6l7,33C1279.66,79.73,1279.17,79.85,1278.69,80Z"/><path class="cls-294" d="M1335.3,134.91c.11-.5.21-1,.3-1.52l33.2,6c-.16.87-.33,1.74-.52,2.6Z"/><path class="cls-295" d="M1283.22,79.08l-4.83-33.39c.88-.13,1.76-.24,2.64-.34l3.72,33.54Z"/><path class="cls-296" d="M1336.05,130.31c.06-.49.11-1,.15-1.49l33.63,2.67c-.07.89-.16,1.79-.26,2.69Z"/><path class="cls-297" d="M1287.86,78.65l-1.55-33.71c.9,0,1.8-.06,2.7-.07l.35,33.73Z"/><polygon class="cls-298" points="1336.34 125.72 1336.34 124.17 1370.08 123.53 1370.08 126.19 1336.34 125.72"/><path class="cls-299" d="M1292.52,78.67l1.75-33.7c.9.05,1.8.11,2.69.19l-3,33.61C1293.51,78.73,1293,78.69,1292.52,78.67Z"/><path class="cls-300" d="M1336.19,121.08c0-.53-.1-1.06-.16-1.59l33.52-3.87c.1.86.18,1.73.26,2.59Z"/><path class="cls-301" d="M1297.08,79.14l5.16-33.34c.87.13,1.73.28,2.59.44l-6.19,33.17Z"/><path class="cls-302" d="M1335.58,116.47c-.1-.52-.21-1-.32-1.56l33-7.16c.19.85.36,1.71.52,2.56Z"/><path class="cls-303" d="M1301.63,80.07,1310,47.4c.86.22,1.72.45,2.56.7l-9.48,32.38Z"/><path class="cls-304" d="M1334.51,112c-.14-.5-.29-1-.45-1.49l32.06-10.5c.28.84.54,1.69.79,2.54Z"/><path class="cls-305" d="M1306.08,81.46l11.55-31.7c.86.31,1.71.64,2.56,1L1307.44,82C1307,81.8,1306.54,81.63,1306.08,81.46Z"/><path class="cls-306" d="M1333,107.61c-.18-.46-.37-.92-.58-1.37l30.81-13.76c.37.83.72,1.66,1.06,2.5Z"/><path class="cls-307" d="M1310.28,83.25,1325,52.91c.81.39,1.61.8,2.41,1.22l-15.82,29.81C1311.18,83.7,1310.73,83.47,1310.28,83.25Z"/><path class="cls-308" d="M1331.06,103.43c-.23-.46-.48-.9-.73-1.35l29.32-16.69c.44.77.87,1.55,1.28,2.33Z"/><path class="cls-309" d="M1314.34,85.5,1332,56.76q1.15.7,2.28,1.47l-18.7,28.08C1315.18,86,1314.76,85.76,1314.34,85.5Z"/><path class="cls-310" d="M1328.71,99.45c-.29-.42-.57-.84-.87-1.26l27.5-19.54c.52.73,1,1.46,1.52,2.2Z"/><path class="cls-311" d="M1318.12,88.12l20.49-26.81c.72.55,1.43,1.11,2.13,1.69l-21.45,26.05Q1318.72,88.57,1318.12,88.12Z"/><path class="cls-312" d="M1326,95.75c-.34-.41-.68-.82-1-1.22l25.48-22.12c.57.66,1.13,1.32,1.68,2Z"/><path class="cls-63" d="M1321.64,91.11l23.07-24.62c.57.53,1.14,1.08,1.7,1.63l.34.35L1322.9,92.32l11.92-11.93-11.94,11.92C1322.39,91.82,1322,91.46,1321.64,91.11Z"/><path class="cls-64" d="M1315.12,99.83A35.6,35.6,0,1,0,1325.54,125,35.36,35.36,0,0,0,1315.12,99.83Z"/><path class="cls-313" d="M1499.8,123.54c0-.88,0-1.76.09-2.64l33.7,1.69c0,.51,0,1-.06,1.55Z"/><path class="cls-314" d="M1499.88,128.84l33.7-1.58c0,.52.06,1,.1,1.55l-33.63,2.68C1500,130.61,1499.92,129.73,1499.88,128.84Z"/><path class="cls-315" d="M1500.33,115.57c.1-.86.22-1.72.35-2.58l33.37,5c-.08.52-.15,1.05-.21,1.58Z"/><path class="cls-316" d="M1500.65,136.8l33.37-5c.08.51.17,1,.26,1.53l-33.2,6.05C1500.92,138.55,1500.78,137.68,1500.65,136.8Z"/><path class="cls-317" d="M1501.65,107.73c.19-.88.39-1.74.61-2.61l32.7,8.35c-.13.49-.25,1-.35,1.48Z"/><path class="cls-318" d="M1502.2,144.62l32.73-8.21c.12.5.26,1,.4,1.48l-32.43,9.32C1502.65,146.35,1502.42,145.49,1502.2,144.62Z"/><path class="cls-319" d="M1503.75,100q.42-1.27.87-2.52l31.69,11.58c-.17.49-.34,1-.5,1.46Z"/><path class="cls-320" d="M1504.55,152.3l31.72-11.5c.18.49.36,1,.56,1.46l-31.34,12.5C1505.16,153.94,1504.85,153.12,1504.55,152.3Z"/><path class="cls-321" d="M1506.62,92.53c.36-.81.73-1.61,1.12-2.41l30.37,14.69c-.22.46-.44.93-.65,1.41Z"/><path class="cls-322" d="M1507.63,159.65l30.44-14.58c.21.46.44.9.67,1.35l-29.9,15.64C1508.43,161.26,1508,160.46,1507.63,159.65Z"/><path class="cls-323" d="M1510.23,85.38c.44-.78.9-1.55,1.37-2.31l28.71,17.72c-.27.44-.53.87-.78,1.32Z"/><path class="cls-324" d="M1511.46,166.69l28.8-17.58c.26.43.53.85.81,1.28L1512.91,169C1512.41,168.21,1511.93,167.46,1511.46,166.69Z"/><path class="cls-325" d="M1514.49,78.71c.53-.75,1.07-1.49,1.63-2.22L1542.93,97c-.3.39-.59.78-.87,1.18Z"/><path class="cls-326" d="M1516,173.28l26.91-20.35c.31.4.62.81,1,1.2l-26.21,21.25Q1516.77,174.35,1516,173.28Z"/><path class="cls-327" d="M1519.44,72.42c.59-.68,1.19-1.35,1.81-2l24.68,23c-.34.37-.68.74-1,1.12Z"/><path class="cls-328" d="M1521.1,179.41l24.73-22.95c.35.37.71.75,1.07,1.11l-24,23.76C1522.31,180.7,1521.7,180.06,1521.1,179.41Z"/><path class="cls-329" d="M1525,66.63c.64-.59,1.28-1.18,1.92-1.75l22.37,25.26c-.39.35-.79.71-1.18,1.08Z"/><path class="cls-330" d="M1526.75,185l22.44-25.21c.36.33.74.65,1.11,1l-21.47,26C1528.12,186.15,1527.43,185.56,1526.75,185Z"/><path class="cls-331" d="M1531,61.51c.71-.55,1.42-1.08,2.15-1.6l19.78,27.33c-.42.3-.83.6-1.23.91Z"/><path class="cls-332" d="M1533,190l19.8-27.32c.42.31.85.6,1.28.9l-18.92,27.93C1534.42,191,1533.7,190.48,1533,190Z"/><path class="cls-333" d="M1537.6,56.91c.75-.47,1.51-.92,2.28-1.37l16.89,29.21c-.45.26-.89.53-1.33.8Z"/><path class="cls-334" d="M1539.69,194.32l17-29.16,1.36.77-16,29.68C1541.22,195.2,1540.45,194.77,1539.69,194.32Z"/><path class="cls-335" d="M1544.59,53c.79-.39,1.59-.77,2.4-1.13l13.89,30.75c-.47.21-.94.43-1.4.66Z"/><path class="cls-336" d="M1546.79,198l14-30.71,1.34.58-12.79,31.22C1548.47,198.73,1547.63,198.37,1546.79,198Z"/><path class="cls-337" d="M1551.93,49.87c.84-.31,1.68-.61,2.53-.9l10.7,32q-.73.24-1.44.51Z"/><path class="cls-338" d="M1554.23,200.92,1565.05,169c.48.16,1,.31,1.44.45l-9.69,32.32C1555.94,201.48,1555.08,201.21,1554.23,200.92Z"/><path class="cls-339" d="M1559.57,47.45c.86-.22,1.72-.43,2.59-.63l7.44,32.92q-.75.17-1.5.36Z"/><path class="cls-340" d="M1561.93,203.1l7.55-32.89c.5.12,1,.22,1.5.32l-6.43,33.12C1563.67,203.48,1562.8,203.3,1561.93,203.1Z"/><path class="cls-341" d="M1567.38,45.83c.88-.14,1.76-.26,2.64-.37l4.15,33.48-1.53.22Z"/><path class="cls-342" d="M1569.83,204.5,1574,171q.8.11,1.59.18l-3.17,33.59C1571.55,204.7,1570.69,204.6,1569.83,204.5Z"/><path class="cls-343" d="M1575.34,45c.89,0,1.77-.08,2.65-.1l.79,33.73c-.52,0-1,0-1.55.06Z"/><path class="cls-344" d="M1577.77,205.09l.85-33.73,1.36,0,.6,33.74h-.66C1579.16,205.12,1578.47,205.11,1577.77,205.09Z"/><path class="cls-345" d="M1581.9,78.63l1.39-33.71c.88,0,1.77.09,2.65.15l-2.49,33.65C1582.93,78.69,1582.42,78.65,1581.9,78.63Z"/><path class="cls-346" d="M1583.32,171.26c.5,0,1-.08,1.5-.13l3.57,33.55c-.9.1-1.8.18-2.69.24Z"/><path class="cls-347" d="M1586.49,79.05l4.76-33.4c.86.12,1.72.25,2.58.4l-5.76,33.25Z"/><path class="cls-348" d="M1587.9,170.71c.51-.09,1-.18,1.52-.29l6.84,33c-.87.18-1.74.35-2.62.5Z"/><path class="cls-349" d="M1591.05,79.92l8-32.77c.87.21,1.74.44,2.59.68l-9.13,32.48C1592,80.17,1591.55,80,1591.05,79.92Z"/><path class="cls-350" d="M1592.42,169.7c.49-.14,1-.28,1.47-.44L1604,201.45c-.85.27-1.71.52-2.56.76Z"/><path class="cls-351" d="M1595.44,81.23l11.32-31.78c.83.29,1.64.6,2.46.91l-12.29,31.43Z"/><path class="cls-352" d="M1596.77,168.25l1.45-.59,13.28,31c-.81.34-1.62.67-2.44,1Z"/><path class="cls-353" d="M1599.78,83l14.3-30.57c.82.39,1.64.8,2.46,1.22l-15.45,30C1600.66,83.45,1600.23,83.23,1599.78,83Z"/><path class="cls-354" d="M1601,166.36l1.4-.74,16.27,29.56c-.76.42-1.53.82-2.3,1.22Z"/><path class="cls-355" d="M1603.79,85.18l17.39-28.92c.77.47,1.54.94,2.29,1.44L1605.08,86Z"/><path class="cls-356" d="M1605,164.06c.44-.28.87-.57,1.29-.86l19.22,27.73c-.73.51-1.46,1-2.21,1.48Z"/><path class="cls-357" d="M1607.62,87.76l20.2-27c.71.53,1.42,1.08,2.11,1.63L1608.84,88.7C1608.44,88.38,1608,88.07,1607.62,87.76Z"/><path class="cls-358" d="M1608.76,161.34c.39-.31.78-.62,1.16-1l21.9,25.67c-.69.58-1.39,1.16-2.09,1.72Z"/><path class="cls-359" d="M1611.21,90.73,1634,65.81c.67.6,1.32,1.22,2,1.85l-23.61,24.11C1612,91.41,1611.58,91.07,1611.21,90.73Z"/><polygon class="cls-360" points="1612.21 158.31 1613.31 157.21 1637.62 180.6 1635.74 182.49 1612.21 158.31"/><path class="cls-361" d="M1614.49,94l25.07-22.59q.9,1,1.77,2l-25.85,21.68C1615.15,94.79,1614.83,94.41,1614.49,94Z"/><path class="cls-362" d="M1615.38,154.91c.35-.41.69-.82,1-1.24l26.43,21c-.54.68-1.09,1.35-1.65,2Z"/><path class="cls-363" d="M1617.38,97.6l27.23-19.93c.52.71,1,1.42,1.52,2.14L1618.3,98.89C1618,98.46,1617.7,98,1617.38,97.6Z"/><path class="cls-364" d="M1618.21,151.22c.3-.44.59-.88.88-1.33l28.38,18.26c-.47.73-1,1.46-1.45,2.17Z"/><path class="cls-365" d="M1620,101.48l29-17.16c.45.76.89,1.53,1.31,2.31l-29.6,16.19C1620.46,102.37,1620.21,101.92,1620,101.48Z"/><path class="cls-366" d="M1620.64,147.29c.25-.45.49-.91.72-1.37l30.1,15.25c-.4.79-.81,1.57-1.24,2.35Z"/><path class="cls-367" d="M1622.11,105.61l30.58-14.26q.58,1.25,1.11,2.52l-31.1,13.07C1622.51,106.49,1622.31,106.05,1622.11,105.61Z"/><path class="cls-368" d="M1622.66,143.13c.19-.45.38-.91.55-1.37l31.52,12.05q-.48,1.27-1,2.52Z"/><path class="cls-369" d="M1623.81,109.84l31.89-11c.29.85.57,1.7.83,2.56l-32.26,9.9C1624.13,110.8,1624,110.32,1623.81,109.84Z"/><path class="cls-370" d="M1624.24,138.81c.15-.49.3-1,.43-1.48l32.54,8.93c-.23.86-.48,1.71-.75,2.56Z"/><path class="cls-371" d="M1625.09,114.31l32.82-7.84c.21.88.4,1.77.58,2.66l-33.08,6.63C1625.31,115.27,1625.21,114.79,1625.09,114.31Z"/><path class="cls-372" d="M1625.38,134.33c.11-.5.2-1,.28-1.51l33.27,5.63c-.15.88-.31,1.76-.49,2.63Z"/><path class="cls-373" d="M1625.91,118.83l33.45-4.47c.12.9.22,1.8.31,2.7l-33.58,3.26C1626,119.82,1626,119.32,1625.91,118.83Z"/><path class="cls-374" d="M1626.07,129.78c.06-.52.1-1.06.14-1.59l33.66,2.38c-.06.86-.14,1.73-.22,2.59Z"/><path class="cls-63" d="M1626.29,123.43l33.72-1.09c0,.78,0,1.56,0,2.35v.49h-16.87l-16.87,0C1626.32,124.47,1626.31,124,1626.29,123.43Z"/><path class="cls-64" d="M1615.51,125a35.58,35.58,0,1,0-10.42,25.16A35.38,35.38,0,0,0,1615.51,125Z"/><path class="cls-375" d="M1927.58,69.37c.61.63,1.21,1.28,1.81,1.93l-25,22.64c-.34-.39-.7-.76-1.06-1.14Z"/><path class="cls-376" d="M1923.78,65.68l-22.72,24.95c-.38-.35-.77-.69-1.16-1l21.89-25.67C1922.46,64.5,1923.12,65.08,1923.78,65.68Z"/><path class="cls-377" d="M1932.84,75.38c.54.69,1.06,1.38,1.58,2.07l-27.11,20.09c-.32-.43-.64-.85-1-1.27Z"/><path class="cls-378" d="M1917.6,60.6l-20.1,27.1c-.41-.31-.83-.61-1.26-.91l19.2-27.74C1916.17,59.55,1916.89,60.07,1917.6,60.6Z"/><path class="cls-379" d="M1937.45,81.86q.73,1.13,1.41,2.28l-29,17.21c-.26-.43-.52-.87-.8-1.29Z"/><path class="cls-380" d="M1911,56.17l-17.34,28.94-1.32-.76,16.33-29.52C1909.43,55.26,1910.21,55.71,1911,56.17Z"/><path class="cls-381" d="M1941.43,88.81c.41.8.79,1.6,1.17,2.4L1912,105.43c-.22-.47-.44-.93-.67-1.39Z"/><path class="cls-382" d="M1903.89,52.4,1889.59,83c-.47-.22-.95-.44-1.43-.64l13.32-31C1902.29,51.67,1903.09,52,1903.89,52.4Z"/><path class="cls-383" d="M1944.69,96.12c.32.83.62,1.66.91,2.5l-31.87,11.09c-.17-.49-.34-1-.53-1.46Z"/><path class="cls-384" d="M1896.51,49.38,1885.3,81.21c-.48-.17-1-.33-1.43-.48L1894,48.53C1894.81,48.8,1895.66,49.08,1896.51,49.38Z"/><path class="cls-385" d="M1947.19,103.73c.24.87.46,1.73.66,2.6L1915,114.1c-.12-.49-.24-1-.38-1.48Z"/><path class="cls-386" d="M1888.82,47.11l-7.93,32.79-1.47-.33,6.77-33C1887.08,46.7,1888,46.9,1888.82,47.11Z"/><path class="cls-387" d="M1948.9,111.46c.15.91.29,1.81.41,2.72l-33.44,4.48c-.07-.49-.14-1-.22-1.45Z"/><path class="cls-388" d="M1881,45.63l-4.63,33.42q-.76-.1-1.53-.18l3.51-33.56C1879.22,45.4,1880.1,45.51,1881,45.63Z"/><path class="cls-389" d="M1949.84,119.41c.07.9.11,1.8.15,2.7l-33.72,1.19c0-.51,0-1-.08-1.51Z"/><path class="cls-390" d="M1873,44.93l-1.27,33.72c-.51,0-1,0-1.54,0l.14-33.74C1871.24,44.87,1872.13,44.9,1873,44.93Z"/><path class="cls-391" d="M1950,127.43c0,.87-.07,1.74-.12,2.6l-33.68-2c0-.53.06-1.07.07-1.6Z"/><path class="cls-392" d="M1865.1,45l2,33.68q-.74,0-1.47.12l-3.22-33.59Q1863.74,45.09,1865.1,45Z"/><path class="cls-393" d="M1949.38,135.3c-.11.88-.24,1.77-.38,2.65l-33.32-5.35c.08-.5.16-1,.22-1.51Z"/><path class="cls-394" d="M1857.15,45.88l5.32,33.31-1.55.28-6.37-33.14C1855.41,46.17,1856.28,46,1857.15,45.88Z"/><path class="cls-395" d="M1948,143.22c-.21.86-.42,1.72-.65,2.57l-32.6-8.71c.14-.5.26-1,.38-1.5Z"/><path class="cls-396" d="M1849.32,47.53,1858,80.15c-.51.13-1,.27-1.51.42l-9.66-32.32C1847.63,48,1848.47,47.75,1849.32,47.53Z"/><path class="cls-397" d="M1945.77,150.9c-.29.84-.59,1.67-.9,2.5l-31.56-11.93c.18-.48.35-1,.52-1.45Z"/><path class="cls-398" d="M1841.71,50l11.84,31.59c-.46.18-.91.35-1.36.54l-13-31.12C1840,50.62,1840.85,50.28,1841.71,50Z"/><path class="cls-399" d="M1942.82,158.33c-.38.81-.76,1.62-1.16,2.42l-30.19-15.06c.22-.46.44-.92.65-1.38Z"/><path class="cls-400" d="M1834.37,53.14l15,30.25c-.45.22-.9.45-1.34.69l-16-29.7C1832.77,54,1833.57,53.54,1834.37,53.14Z"/><path class="cls-401" d="M1939.12,165.44c-.45.77-.92,1.52-1.39,2.28l-28.53-18c.28-.43.54-.87.8-1.31Z"/><path class="cls-402" d="M1827.39,57.05l17.91,28.59c-.43.27-.85.55-1.28.84l-18.87-28C1825.89,58,1826.63,57.52,1827.39,57.05Z"/><path class="cls-403" d="M1934.74,172.11c-.52.72-1,1.43-1.6,2.13l-26.61-20.75q.48-.6.93-1.23Z"/><path class="cls-404" d="M1820.82,61.65l20.72,26.62-1.24,1-21.51-26C1819.46,62.72,1820.13,62.18,1820.82,61.65Z"/><path class="cls-405" d="M1929.71,178.34c-.59.66-1.18,1.31-1.8,1.95L1903.5,157c.36-.37.71-.75,1.06-1.14Z"/><path class="cls-406" d="M1814.78,66.84,1838,91.29l-1,.95-24.27-23.43.46-.47C1813.78,67.81,1814.27,67.32,1814.78,66.84Z"/><path class="cls-407" d="M1901.28,159.18,1924.14,184c-.66.6-1.32,1.19-2,1.76l-22-25.55C1900.51,159.88,1900.9,159.53,1901.28,159.18Z"/><path class="cls-408" d="M1834.78,94.69c-.33.38-.65.76-1,1.15l-26.24-21.2c.56-.7,1.14-1.39,1.73-2.07Z"/><path class="cls-409" d="M1897.74,162.13l20.25,27q-1,.78-2.1,1.53l-19.44-27.58C1896.88,162.77,1897.31,162.45,1897.74,162.13Z"/><path class="cls-410" d="M1831.93,98.32c-.3.42-.59.84-.87,1.27l-28.2-18.52c.49-.74,1-1.48,1.5-2.21Z"/><path class="cls-411" d="M1893.9,164.74l17.5,28.84c-.76.47-1.54.92-2.31,1.36l-16.51-29.43Z"/><path class="cls-412" d="M1829.45,102.23c-.25.44-.5.89-.73,1.35L1798.81,88c.41-.79.84-1.57,1.28-2.35Z"/><path class="cls-413" d="M1889.87,166.92l14.47,30.48c-.79.37-1.58.74-2.39,1.09l-13.52-30.91Z"/><path class="cls-414" d="M1827.4,106.32c-.21.48-.41,1-.61,1.45l-31.32-12.54c.33-.82.67-1.63,1-2.44Z"/><path class="cls-415" d="M1885.53,168.72l11.5,31.72c-.86.31-1.72.6-2.6.88l-10.29-32.13Z"/><path class="cls-416" d="M1825.76,110.64c-.17.5-.32,1-.47,1.52l-32.41-9.4c.25-.84.5-1.67.77-2.5Z"/><path class="cls-417" d="M1881.17,170l8.15,32.75c-.87.21-1.75.41-2.63.6l-7-33C1880.19,170.27,1880.68,170.15,1881.17,170Z"/><path class="cls-418" d="M1824.56,115.09c-.11.5-.21,1-.3,1.52l-33.2-6c.16-.87.33-1.74.52-2.6Z"/><path class="cls-419" d="M1876.64,170.92l4.83,33.39c-.88.13-1.76.24-2.65.34l-3.71-33.54Z"/><path class="cls-420" d="M1823.8,119.69c0,.49-.1,1-.14,1.49L1790,118.51c.07-.89.16-1.79.27-2.69Z"/><path class="cls-421" d="M1872,171.35l1.55,33.71c-.9,0-1.8.06-2.71.07l-.35-33.73Z"/><polygon class="cls-422" points="1823.51 124.28 1823.51 125.83 1789.78 126.47 1789.78 123.81 1823.51 124.28"/><path class="cls-423" d="M1867.34,171.33l-1.75,33.7c-.9-.05-1.8-.11-2.7-.19l3-33.61C1866.34,171.27,1866.84,171.31,1867.34,171.33Z"/><path class="cls-424" d="M1823.67,128.92c0,.53.1,1.06.16,1.59l-33.52,3.87c-.1-.86-.19-1.73-.26-2.59Z"/><path class="cls-425" d="M1862.78,170.86l-5.17,33.34c-.86-.13-1.72-.28-2.58-.44l6.18-33.17C1861.73,170.69,1862.25,170.78,1862.78,170.86Z"/><path class="cls-426" d="M1824.28,133.53c.1.52.2,1,.31,1.56l-33,7.16c-.18-.85-.35-1.71-.52-2.56Z"/><path class="cls-427" d="M1858.23,169.93l-8.42,32.67c-.86-.22-1.71-.45-2.56-.7l9.48-32.38Z"/><path class="cls-428" d="M1825.34,138c.15.5.3,1,.46,1.49L1793.73,150c-.27-.84-.53-1.69-.78-2.54Z"/><path class="cls-429" d="M1853.78,168.54l-11.55,31.7c-.86-.31-1.71-.64-2.56-1L1852.42,168C1852.87,168.2,1853.32,168.37,1853.78,168.54Z"/><path class="cls-430" d="M1826.85,142.39c.19.46.38.92.58,1.37l-30.8,13.76c-.38-.83-.73-1.66-1.07-2.5Z"/><path class="cls-431" d="M1849.58,166.75l-14.75,30.34c-.81-.39-1.61-.8-2.41-1.22l15.81-29.81Z"/><path class="cls-432" d="M1828.79,146.57c.24.46.49.9.74,1.35l-29.32,16.69c-.44-.77-.87-1.55-1.28-2.33Z"/><path class="cls-433" d="M1845.52,164.5l-17.67,28.74c-.77-.47-1.53-1-2.29-1.47l18.7-28.08C1844.68,164,1845.09,164.24,1845.52,164.5Z"/><path class="cls-434" d="M1831.15,150.55q.42.63.87,1.26l-27.51,19.54c-.52-.73-1-1.46-1.51-2.2Z"/><path class="cls-435" d="M1841.74,161.88l-20.5,26.81c-.71-.55-1.42-1.11-2.12-1.69L1840.56,161C1841,161.27,1841.34,161.58,1841.74,161.88Z"/><path class="cls-436" d="M1833.88,154.25c.33.41.68.82,1,1.22l-25.48,22.12c-.57-.66-1.13-1.32-1.68-2Z"/><path class="cls-63" d="M1838.22,158.89l-23.08,24.62c-.57-.53-1.13-1.08-1.69-1.63l-.35-.35L1837,157.68,1825,169.61,1837,157.69C1837.46,158.18,1837.84,158.54,1838.22,158.89Z"/><path class="cls-64" d="M1844.74,150.17A35.57,35.57,0,1,0,1834.31,125,35.36,35.36,0,0,0,1844.74,150.17Z"/></svg>