<svg width="338" height="338" viewBox="0 0 338 338" fill="none" xmlns="http://www.w3.org/2000/svg">
<path d="M292.088 53.9732C280.397 38.6532 261.96 28.7732 241.205 28.7732C205.867 28.7732 177.22 57.4133 177.22 92.76C177.22 128.093 205.867 156.747 241.205 156.747C276.544 156.747 305.192 128.093 305.192 92.76C305.192 79.0666 300.879 66.3999 293.559 55.9865C307.375 73.2532 315.66 95.1332 315.66 118.973C315.66 174.707 270.475 219.893 214.737 219.893C159 219.893 113.816 174.707 113.816 118.973C113.816 63.2266 159 18.0532 214.737 18.0532C238.157 18.0532 259.695 26.0533 276.82 39.4266C247.531 14.8266 209.755 -6.12919e-05 168.511 -6.12919e-05C75.444 -6.12919e-05 0 75.4532 0 168.52C0 261.587 75.444 337.027 168.511 337.027C261.576 337.027 337.021 261.587 337.021 168.52C337.021 124.28 319.967 84.0399 292.088 53.9732Z" fill="white"/>
</svg>
