<svg width="434" height="250" viewBox="0 0 434 250" fill="none" xmlns="http://www.w3.org/2000/svg">
<g filter="url(#filter0_d_644_2404)">
<rect width="300" height="200" rx="30" transform="matrix(0.866025 0.5 -0.866025 0.5 173.205 0)" fill="white"/>
</g>
<path d="M164.988 30.256L172.65 24.74L173.742 25.37L166.54 30.452L166.418 30.382L174.396 26.868L175.512 27.512L169.425 32.118L169.304 32.048L178.106 27.89L179.198 28.52L169.644 32.944L168.067 32.034L173.96 27.596L174.251 27.764L166.564 31.166L164.988 30.256ZM174.501 35.7483L180.927 32.0383L181.945 32.6263L175.519 36.3363L174.501 35.7483ZM171.918 34.2573L172.815 33.7393L178.635 37.0993L177.738 37.6173L171.918 34.2573ZM177.568 31.1353L178.465 30.6173L181.945 32.6263L181.048 33.1443L177.568 31.1353ZM181.836 31.4013L183.024 30.7153L184.091 31.3313L182.903 32.0173L181.836 31.4013ZM181.528 39.8055L188.415 35.8295C188.673 35.6802 188.803 35.5215 188.803 35.3535C188.803 35.1855 188.673 35.0269 188.415 34.8775L186.899 34.0025L187.796 33.4845L189.36 34.3875C189.95 34.7282 190.241 35.0735 190.233 35.4235C190.241 35.7735 189.95 36.1189 189.36 36.4595L182.547 40.3935L181.528 39.8055ZM178.946 38.3145L179.843 37.7965L185.662 41.1565L184.765 41.6745L178.946 38.3145ZM188.798 44.0028L195.685 40.0268C195.943 39.8775 196.073 39.7188 196.073 39.5508C196.073 39.3828 195.943 39.2241 195.685 39.0748L194.169 38.1998L195.066 37.6818L196.63 38.5848C197.22 38.9255 197.511 39.2708 197.503 39.6208C197.511 39.9708 197.22 40.3161 196.63 40.6568L189.816 44.5908L188.798 44.0028ZM186.215 42.5118L187.113 41.9938L192.932 45.3538L192.035 45.8718L186.215 42.5118ZM199.882 52.5023L200.779 51.9843L201.519 52.4113C201.745 52.542 201.947 52.6167 202.125 52.6353C202.303 52.6633 202.497 52.6493 202.707 52.5933L203.544 52.3763L203.192 52.1733L207.108 47.1543L208.224 47.7983L204.817 52.0193L212.007 49.9823L213.122 50.6263L203.277 53.3003C202.808 53.431 202.372 53.473 201.968 53.4263C201.564 53.3797 201.147 53.2327 200.719 52.9853L199.882 52.5023ZM210.789 56.8676C210.199 56.5269 209.82 56.1489 209.65 55.7336C209.488 55.3229 209.537 54.9029 209.795 54.4736C210.062 54.0396 210.535 53.6266 211.214 53.2346C211.901 52.8379 212.616 52.5649 213.36 52.4156C214.103 52.2663 214.831 52.2383 215.542 52.3316C216.262 52.4296 216.916 52.6489 217.506 52.9896C218.096 53.3303 218.472 53.7059 218.634 54.1166C218.804 54.5319 218.759 54.9543 218.501 55.3836C218.242 55.8129 217.769 56.2259 217.082 56.6226C216.403 57.0146 215.688 57.2876 214.936 57.4416C214.192 57.5909 213.461 57.6166 212.741 57.5186C212.03 57.4253 211.38 57.2083 210.789 56.8676ZM211.759 56.3076C212.349 56.6483 213.016 56.7906 213.76 56.7346C214.52 56.6786 215.271 56.4359 216.015 56.0066C216.759 55.5773 217.175 55.1456 217.264 54.7116C217.369 54.2776 217.126 53.8903 216.536 53.5496C215.946 53.2089 215.271 53.0666 214.512 53.1226C213.768 53.1786 213.024 53.4213 212.281 53.8506C211.537 54.2799 211.113 54.7116 211.008 55.1456C210.919 55.5796 211.169 55.9669 211.759 56.3076ZM217.611 60.8059C216.972 60.4372 216.677 60.0195 216.726 59.5529C216.782 59.0815 217.19 58.6265 217.95 58.1879L222.085 55.8009L223.103 56.3889L219.248 58.6149C218.625 58.9742 218.274 59.3032 218.193 59.6019C218.128 59.9005 218.326 60.1829 218.787 60.4489C219.288 60.7382 219.846 60.8735 220.46 60.8549C221.082 60.8315 221.68 60.6542 222.254 60.3229L226.086 58.1109L227.104 58.6989L220.678 62.4089L219.708 61.8489L221.297 60.9319L221.369 61.0719C220.715 61.3005 220.06 61.3939 219.405 61.3519C218.759 61.3052 218.16 61.1232 217.611 60.8059ZM228.622 69.0954L229.52 68.5774L231.556 69.7534C231.872 69.9354 232.175 70.0311 232.466 70.0404C232.765 70.0544 233.108 69.9494 233.496 69.7254L239.849 66.0574L240.868 66.6454L234.442 70.3554C233.852 70.6961 233.258 70.8711 232.66 70.8804C232.053 70.8944 231.427 70.7147 230.78 70.3414L228.622 69.0954ZM236.091 64.9234L236.988 64.4054L240.431 66.3934L239.534 66.9114L236.091 64.9234ZM240.795 65.4414L241.983 64.7554L243.05 65.3714L241.862 66.0574L240.795 65.4414ZM239.869 73.6567C239.279 73.316 238.899 72.938 238.729 72.5227C238.568 72.112 238.616 71.692 238.875 71.2627C239.142 70.8287 239.614 70.4157 240.293 70.0237C240.98 69.627 241.696 69.354 242.439 69.2047C243.183 69.0553 243.91 69.0273 244.622 69.1207C245.341 69.2187 245.996 69.438 246.586 69.7787C247.176 70.1193 247.552 70.495 247.713 70.9057C247.883 71.321 247.839 71.7433 247.58 72.1727C247.321 72.602 246.849 73.015 246.162 73.4117C245.483 73.8037 244.767 74.0767 244.015 74.2307C243.272 74.38 242.54 74.4057 241.821 74.3077C241.11 74.2143 240.459 73.9973 239.869 73.6567ZM240.839 73.0967C241.429 73.4373 242.096 73.5797 242.839 73.5237C243.599 73.4677 244.351 73.225 245.095 72.7957C245.838 72.3663 246.254 71.9347 246.343 71.5007C246.448 71.0667 246.206 70.6793 245.616 70.3387C245.026 69.998 244.351 69.8557 243.591 69.9117C242.848 69.9677 242.104 70.2103 241.36 70.6397C240.617 71.069 240.192 71.5007 240.087 71.9347C239.998 72.3687 240.249 72.756 240.839 73.0967ZM247.199 77.7209L253.625 74.0109L254.644 74.5989L248.218 78.3089L247.199 77.7209ZM244.617 76.2299L245.514 75.7119L251.334 79.0719L250.437 79.5899L244.617 76.2299ZM250.267 73.1079L251.164 72.5899L254.644 74.5989L253.747 75.1169L250.267 73.1079ZM254.535 73.3739L255.723 72.6879L256.79 73.3039L255.602 73.9899L254.535 73.3739ZM251.935 80.4552L258.361 76.7452L259.295 77.2842L257.694 78.2502L257.682 78.1172C258.143 77.9445 258.6 77.8489 259.052 77.8302C259.521 77.8115 259.966 77.8535 260.386 77.9562C260.806 78.0589 261.182 78.2059 261.514 78.3972C262.007 78.6819 262.306 78.9805 262.411 79.2932C262.524 79.6105 262.479 79.9255 262.277 80.2382C262.083 80.5462 261.76 80.8309 261.307 81.0922L257.173 83.4792L256.155 82.8912L259.998 80.6722C260.596 80.3269 260.932 79.9979 261.004 79.6852C261.085 79.3679 260.883 79.0692 260.398 78.7892C260.067 78.5979 259.695 78.4672 259.283 78.3972C258.879 78.3225 258.458 78.3179 258.022 78.3832C257.601 78.4485 257.193 78.5955 256.797 78.8242L252.954 81.0432L251.935 80.4552ZM268.5 90.1867C267.861 89.8181 267.566 89.4004 267.615 88.9337C267.671 88.4624 268.08 88.0074 268.839 87.5687L272.974 85.1817L273.992 85.7697L270.137 87.9957C269.514 88.3551 269.163 88.6841 269.082 88.9827C269.017 89.2814 269.215 89.5637 269.676 89.8297C270.177 90.1191 270.735 90.2544 271.349 90.2357C271.971 90.2124 272.57 90.0351 273.144 89.7037L276.975 87.4917L277.993 88.0797L271.567 91.7897L270.597 91.2297L272.186 90.3127L272.258 90.4527C271.604 90.6814 270.949 90.7747 270.294 90.7327C269.648 90.6861 269.05 90.5041 268.5 90.1867ZM276.34 94.713C275.782 94.391 275.398 94.0573 275.188 93.712C274.978 93.3667 274.917 93.033 275.006 92.711C275.111 92.389 275.349 92.102 275.721 91.85L276.861 92.424C276.53 92.69 276.392 92.97 276.449 93.264C276.513 93.5627 276.8 93.859 277.31 94.153C277.786 94.4283 278.223 94.601 278.619 94.671C279.023 94.7457 279.371 94.699 279.662 94.531C279.848 94.4237 279.957 94.3093 279.989 94.188C280.021 94.0667 279.957 93.9127 279.795 93.726C279.641 93.5347 279.371 93.2803 278.983 92.963C278.473 92.5383 278.122 92.1767 277.928 91.878C277.75 91.5793 277.714 91.3157 277.819 91.087C277.924 90.8583 278.15 90.6437 278.498 90.443C278.87 90.2283 279.294 90.0907 279.771 90.03C280.248 89.9693 280.753 89.995 281.286 90.107C281.82 90.219 282.349 90.4267 282.875 90.73C283.408 91.038 283.756 91.3507 283.917 91.668C284.095 91.9853 284.132 92.2957 284.026 92.599C283.929 92.8977 283.727 93.173 283.42 93.425L282.281 92.851C282.458 92.6923 282.563 92.5243 282.596 92.347C282.644 92.1697 282.608 91.99 282.487 91.808C282.382 91.626 282.184 91.451 281.893 91.283C281.424 91.0123 280.983 90.8653 280.571 90.842C280.159 90.8187 279.815 90.8863 279.54 91.045C279.322 91.171 279.201 91.3017 279.177 91.437C279.152 91.5723 279.217 91.731 279.371 91.913C279.532 92.0903 279.775 92.3097 280.098 92.571C280.656 93.0143 281.032 93.39 281.226 93.698C281.428 94.0013 281.48 94.265 281.383 94.489C281.286 94.713 281.06 94.9277 280.704 95.133C280.324 95.3523 279.884 95.476 279.383 95.504C278.898 95.532 278.389 95.476 277.855 95.336C277.33 95.2007 276.825 94.993 276.34 94.713ZM285.513 97.0273C286.095 96.6913 286.645 96.4766 287.162 96.3833C287.695 96.2899 288.302 96.2899 288.981 96.3833C289.49 96.4533 289.898 96.4929 290.205 96.5023C290.52 96.5069 290.787 96.4789 291.005 96.4183C291.232 96.3529 291.466 96.2503 291.709 96.1103C292.129 95.8676 292.339 95.5876 292.339 95.2703C292.339 94.9529 292.092 94.6519 291.599 94.3673C291.001 94.0219 290.391 93.8469 289.769 93.8423C289.154 93.8423 288.524 93.9916 287.877 94.2903L286.859 93.6183C287.441 93.3383 288.063 93.1516 288.726 93.0583C289.397 92.9696 290.064 92.9813 290.726 93.0933C291.397 93.2099 292.028 93.4386 292.618 93.7793C293.143 94.0826 293.499 94.4093 293.685 94.7593C293.879 95.1139 293.899 95.4616 293.745 95.8023C293.6 96.1476 293.285 96.4603 292.8 96.7403C292.46 96.9363 292.109 97.0739 291.745 97.1533C291.389 97.2373 290.993 97.2746 290.557 97.2653C290.128 97.2606 289.627 97.2233 289.053 97.1533C288.698 97.1066 288.382 97.0926 288.108 97.1113C287.841 97.1253 287.586 97.1743 287.344 97.2583C287.101 97.3423 286.839 97.4659 286.556 97.6293L285.513 97.0273ZM282.846 98.3013L284.325 97.4473L285.828 98.3153L284.349 99.1693L282.846 98.3013Z" fill="black"/>
<path d="M358.569 135.02C359.598 134.426 360.763 133.916 362.063 133.489C363.381 133.062 364.789 132.725 366.286 132.477C367.782 132.228 369.325 132.072 370.915 132.007L365.5 128.88L366.678 128.2L373.413 132.088L372.318 132.72C370.981 132.768 369.732 132.863 368.572 133.003C367.422 133.149 366.342 133.346 365.332 133.594C364.331 133.837 363.377 134.14 362.469 134.502C361.572 134.858 360.702 135.279 359.86 135.765L358.569 135.02ZM367.402 138.467L378.486 136.604L379.552 137.285L368.469 139.148L367.402 138.467ZM368.272 140.881C367.552 140.465 367.136 139.982 367.024 139.431C366.921 138.886 367.117 138.308 367.613 137.698C368.109 137.088 368.89 136.475 369.956 135.859C371.031 135.238 372.098 134.785 373.155 134.498C374.211 134.212 375.212 134.099 376.157 134.158C377.12 134.218 377.962 134.455 378.682 134.871C379.412 135.292 379.823 135.778 379.917 136.329C380.02 136.874 379.823 137.452 379.328 138.062C378.832 138.673 378.046 139.288 376.971 139.909C375.904 140.525 374.843 140.976 373.786 141.262C372.729 141.548 371.728 141.661 370.784 141.602C369.839 141.543 369.002 141.302 368.272 140.881ZM369.451 140.201C369.918 140.471 370.48 140.606 371.134 140.606C371.798 140.611 372.519 140.492 373.295 140.249C374.09 140.006 374.894 139.65 375.708 139.18C376.54 138.7 377.162 138.232 377.574 137.779C378.004 137.325 378.215 136.907 378.205 136.523C378.205 136.145 377.971 135.821 377.504 135.551C377.045 135.287 376.484 135.152 375.82 135.146C375.156 135.141 374.427 135.26 373.632 135.503C372.855 135.746 372.051 136.108 371.218 136.588C370.405 137.058 369.783 137.52 369.353 137.973C368.941 138.427 368.74 138.845 368.749 139.229C368.759 139.612 368.992 139.936 369.451 140.201ZM379.996 141.461C379.434 141.137 379.168 140.74 379.196 140.271C379.233 139.795 379.649 139.328 380.444 138.869C381.249 138.405 382.058 138.165 382.872 138.148C383.685 138.132 384.373 138.286 384.934 138.61C385.495 138.934 385.762 139.331 385.734 139.801C385.706 140.271 385.289 140.738 384.485 141.202C383.69 141.661 382.881 141.901 382.058 141.923C381.244 141.939 380.557 141.785 379.996 141.461ZM380.865 140.959C381.174 141.137 381.557 141.197 382.016 141.137C382.483 141.083 382.97 140.91 383.475 140.619C383.98 140.327 384.279 140.046 384.373 139.776C384.476 139.512 384.373 139.29 384.064 139.112C383.755 138.934 383.367 138.872 382.9 138.926C382.441 138.985 381.96 139.161 381.455 139.452C380.95 139.744 380.646 140.022 380.543 140.287C380.449 140.557 380.557 140.781 380.865 140.959ZM373.388 143.575L389.325 141.275L390.391 141.891L374.454 144.191L373.388 143.575ZM378.845 146.856C378.284 146.532 378.017 146.135 378.045 145.665C378.083 145.19 378.499 144.723 379.294 144.264C380.098 143.799 380.907 143.559 381.721 143.543C382.535 143.527 383.222 143.681 383.784 144.005C384.345 144.329 384.611 144.726 384.583 145.195C384.555 145.665 384.139 146.132 383.335 146.597C382.54 147.056 381.731 147.296 380.907 147.318C380.094 147.334 379.406 147.18 378.845 146.856ZM379.715 146.354C380.024 146.532 380.407 146.591 380.865 146.532C381.333 146.478 381.819 146.305 382.324 146.013C382.83 145.722 383.129 145.441 383.222 145.171C383.325 144.906 383.222 144.685 382.914 144.507C382.605 144.329 382.217 144.267 381.749 144.321C381.291 144.38 380.809 144.555 380.304 144.847C379.799 145.139 379.495 145.417 379.392 145.681C379.299 145.951 379.406 146.175 379.715 146.354Z" fill="#FF8480"/>
<path d="M335.219 139.754C334.556 139.372 334.17 138.947 334.061 138.479C333.952 138.011 334.1 137.52 334.505 137.007C334.918 136.499 335.569 135.988 336.458 135.475C337.354 134.957 338.243 134.579 339.123 134.341C340.012 134.107 340.862 134.021 341.672 134.084C342.491 134.143 343.231 134.363 343.894 134.746C344.626 135.169 345.008 135.668 345.039 136.244C345.078 136.816 344.755 137.399 344.069 137.993L342.923 137.412C343.391 136.989 343.613 136.595 343.59 136.231C343.574 135.871 343.348 135.565 342.911 135.313C342.467 135.056 341.961 134.917 341.392 134.894C340.838 134.872 340.23 134.962 339.568 135.164C338.913 135.362 338.227 135.668 337.51 136.082C336.801 136.492 336.275 136.886 335.932 137.264C335.589 137.642 335.433 137.993 335.464 138.317C335.511 138.641 335.756 138.931 336.201 139.187C336.684 139.466 337.261 139.606 337.931 139.606C338.601 139.606 339.326 139.448 340.106 139.133L341.111 139.781C340.051 140.222 338.999 140.443 337.954 140.443C336.918 140.438 336.006 140.209 335.219 139.754ZM340.054 142.33L348.355 137.538L349.337 138.105L345.865 140.11L345.771 140.029C346.192 139.876 346.605 139.79 347.011 139.772C347.416 139.754 347.806 139.795 348.18 139.894C348.562 139.988 348.912 140.128 349.232 140.312C349.676 140.569 349.949 140.843 350.05 141.136C350.167 141.428 350.124 141.723 349.922 142.02C349.735 142.317 349.411 142.598 348.951 142.864L344.965 145.165L343.982 144.598L347.689 142.459C348.289 142.112 348.624 141.793 348.694 141.5C348.772 141.212 348.593 140.942 348.156 140.69C347.657 140.402 347.104 140.258 346.496 140.258C345.896 140.263 345.307 140.431 344.731 140.764L341.036 142.897L340.054 142.33ZM348.444 147.336C348.054 147.111 347.774 146.868 347.602 146.607C347.431 146.346 347.38 146.092 347.45 145.844C347.528 145.592 347.735 145.37 348.07 145.176C348.6 144.87 349.165 144.724 349.765 144.737C350.381 144.751 351.094 144.915 351.905 145.23L354.407 146.189C354.937 145.883 355.209 145.586 355.225 145.298C355.248 145.014 355.038 144.744 354.594 144.488C354.165 144.24 353.732 144.103 353.296 144.076C352.867 144.044 352.427 144.105 351.975 144.258L351.016 143.61C351.718 143.34 352.466 143.228 353.261 143.273C354.071 143.318 354.827 143.543 355.529 143.948C356.277 144.38 356.632 144.845 356.593 145.345C356.562 145.84 356.152 146.315 355.365 146.769L352.793 148.254C352.653 148.335 352.587 148.409 352.594 148.477C352.602 148.544 352.668 148.614 352.793 148.686L353.191 148.916L352.326 149.415C352.271 149.393 352.193 149.352 352.092 149.294C351.983 149.24 351.881 149.186 351.788 149.132C351.523 148.979 351.34 148.823 351.238 148.666C351.145 148.513 351.145 148.355 351.238 148.193C351.34 148.027 351.538 147.854 351.834 147.674L352.022 147.782C351.702 147.903 351.328 147.966 350.899 147.971C350.486 147.975 350.061 147.923 349.625 147.815C349.196 147.703 348.803 147.543 348.444 147.336ZM349.403 146.891C349.824 147.134 350.244 147.296 350.665 147.377C351.094 147.453 351.507 147.458 351.905 147.39C352.31 147.318 352.684 147.183 353.027 146.985L353.565 146.675L351.297 145.797C350.798 145.599 350.385 145.5 350.057 145.5C349.738 145.496 349.449 145.568 349.192 145.716C348.904 145.883 348.775 146.069 348.806 146.276C348.853 146.483 349.052 146.688 349.403 146.891ZM353.888 150.317L360.084 146.74L360.984 147.259L359.441 148.191L359.429 148.063C359.874 147.896 360.314 147.804 360.75 147.786C361.202 147.768 361.631 147.808 362.036 147.907C362.442 148.006 362.804 148.148 363.124 148.333C363.599 148.607 363.888 148.895 363.989 149.197C364.098 149.503 364.055 149.806 363.86 150.108C363.673 150.405 363.361 150.679 362.925 150.931L358.938 153.233L357.956 152.666L361.662 150.526C362.239 150.193 362.563 149.876 362.633 149.575C362.711 149.269 362.516 148.981 362.048 148.711C361.729 148.526 361.37 148.4 360.973 148.333C360.583 148.261 360.178 148.256 359.757 148.319C359.351 148.382 358.958 148.524 358.576 148.744L354.87 150.884L353.888 150.317ZM363.447 155.998C362.87 155.665 362.5 155.298 362.336 154.898C362.172 154.497 362.215 154.09 362.464 153.676C362.722 153.257 363.178 152.859 363.832 152.481C364.487 152.103 365.173 151.842 365.89 151.698C366.607 151.554 367.312 151.529 368.006 151.624C368.708 151.714 369.347 151.925 369.924 152.258C370.383 152.524 370.707 152.81 370.894 153.116C371.089 153.417 371.143 153.728 371.058 154.047C370.972 154.367 370.742 154.684 370.368 154.999L369.269 154.445C369.588 154.153 369.717 153.863 369.655 153.575C369.608 153.287 369.386 153.028 368.988 152.798C368.419 152.47 367.765 152.33 367.024 152.38C366.299 152.429 365.578 152.661 364.861 153.075C364.144 153.489 363.739 153.908 363.645 154.331C363.567 154.754 363.813 155.129 364.382 155.458C364.779 155.687 365.239 155.818 365.761 155.849C366.291 155.885 366.837 155.795 367.398 155.579L368.357 156.214C367.811 156.43 367.246 156.567 366.662 156.626C366.085 156.68 365.52 156.655 364.966 156.551C364.413 156.448 363.906 156.263 363.447 155.998ZM370.398 160.011C369.814 159.674 369.44 159.305 369.276 158.904C369.12 158.508 369.167 158.103 369.416 157.689C369.681 157.275 370.141 156.879 370.796 156.501C371.451 156.123 372.133 155.86 372.842 155.712C373.559 155.568 374.256 155.538 374.935 155.624C375.628 155.709 376.26 155.916 376.829 156.245C377.366 156.555 377.713 156.904 377.869 157.291C378.033 157.674 377.99 158.072 377.741 158.486C377.491 158.9 377.02 159.307 376.326 159.708L376.034 159.876L371.521 157.271C370.897 157.676 370.574 158.065 370.55 158.439C370.535 158.817 370.796 159.161 371.334 159.471C371.739 159.705 372.164 159.843 372.608 159.883C373.068 159.924 373.504 159.883 373.917 159.762L374.888 160.416C374.171 160.641 373.403 160.725 372.585 160.666C371.782 160.608 371.053 160.389 370.398 160.011ZM372.386 156.771L375.823 158.756C376.377 158.382 376.642 158.027 376.618 157.689C376.595 157.352 376.353 157.05 375.893 156.785C375.418 156.51 374.876 156.369 374.268 156.36C373.676 156.351 373.048 156.488 372.386 156.771Z" fill="black"/>
<rect width="13" height="32" rx="6.5" transform="matrix(0.866025 0.5 -0.866025 0.5 343.652 113.408)" fill="#FF8480"/>
<rect width="100" height="30" rx="5" transform="matrix(0.866025 0.5 -0.866025 0.5 104.789 81.5)" fill="#FF8480"/>
<rect width="100" height="30" rx="5" transform="matrix(0.866025 0.5 -0.866025 0.5 205.248 139.5)" fill="black"/>
<path d="M123.271 112.17L126.661 110.213L129.023 105.906L130.169 106.568L128.181 109.902L133.957 108.755L135.103 109.416L127.667 110.793L124.276 112.751L123.271 112.17ZM130.737 116.643C130.153 116.306 129.778 115.937 129.615 115.536C129.459 115.14 129.506 114.735 129.755 114.321C130.02 113.907 130.48 113.511 131.135 113.133C131.789 112.755 132.471 112.492 133.181 112.343C133.898 112.199 134.595 112.17 135.273 112.256C135.967 112.341 136.598 112.548 137.167 112.877C137.705 113.187 138.052 113.536 138.208 113.923C138.372 114.305 138.329 114.704 138.079 115.118C137.83 115.532 137.358 115.939 136.665 116.339L136.372 116.508L131.859 113.903C131.236 114.308 130.912 114.697 130.889 115.07C130.873 115.448 131.135 115.793 131.672 116.103C132.078 116.337 132.502 116.474 132.947 116.515C133.407 116.555 133.843 116.515 134.256 116.393L135.227 117.048C134.509 117.273 133.742 117.356 132.923 117.298C132.121 117.239 131.392 117.021 130.737 116.643ZM132.725 113.403L136.162 115.388C136.715 115.014 136.98 114.659 136.957 114.321C136.933 113.984 136.692 113.682 136.232 113.417C135.757 113.142 135.215 113 134.607 112.991C134.015 112.982 133.387 113.12 132.725 113.403ZM137.759 120.697C137.221 120.387 136.851 120.065 136.648 119.732C136.446 119.399 136.387 119.077 136.473 118.767C136.574 118.456 136.804 118.179 137.163 117.936L138.262 118.49C137.942 118.746 137.81 119.016 137.864 119.3C137.927 119.588 138.203 119.874 138.694 120.157C139.154 120.423 139.575 120.589 139.957 120.657C140.347 120.729 140.682 120.684 140.962 120.522C141.142 120.418 141.247 120.308 141.278 120.191C141.309 120.074 141.247 119.925 141.091 119.745C140.943 119.561 140.682 119.316 140.308 119.01C139.817 118.6 139.478 118.251 139.291 117.963C139.119 117.675 139.084 117.421 139.185 117.201C139.287 116.98 139.505 116.773 139.84 116.58C140.199 116.373 140.608 116.24 141.068 116.181C141.528 116.123 142.015 116.148 142.529 116.256C143.043 116.364 143.554 116.564 144.061 116.856C144.575 117.153 144.91 117.455 145.066 117.761C145.238 118.067 145.273 118.366 145.171 118.659C145.078 118.947 144.883 119.212 144.587 119.455L143.488 118.902C143.659 118.749 143.761 118.587 143.792 118.416C143.839 118.245 143.803 118.071 143.687 117.896C143.585 117.72 143.394 117.552 143.114 117.39C142.662 117.129 142.237 116.987 141.839 116.964C141.442 116.942 141.111 117.007 140.846 117.16C140.635 117.282 140.518 117.408 140.495 117.538C140.471 117.669 140.534 117.822 140.682 117.997C140.838 118.168 141.072 118.38 141.383 118.632C141.921 119.059 142.284 119.421 142.471 119.718C142.665 120.011 142.716 120.265 142.623 120.481C142.529 120.697 142.311 120.904 141.968 121.102C141.602 121.314 141.177 121.433 140.694 121.46C140.226 121.487 139.735 121.433 139.22 121.298C138.714 121.167 138.227 120.967 137.759 120.697Z" fill="white"/>
<path d="M225.037 170.925L233.338 166.133L234.764 166.956L230.555 172.788L237.71 168.657L238.716 169.238L230.415 174.03L228.989 173.207L233.198 167.375L226.042 171.506L225.037 170.925ZM234.596 176.606C234.027 176.278 233.661 175.913 233.497 175.513C233.341 175.117 233.388 174.712 233.637 174.298C233.894 173.879 234.35 173.481 235.005 173.103C235.668 172.72 236.357 172.457 237.075 172.313C237.792 172.169 238.493 172.142 239.179 172.232C239.873 172.327 240.504 172.538 241.073 172.867C241.642 173.195 242.004 173.557 242.16 173.953C242.324 174.354 242.281 174.761 242.032 175.175C241.782 175.589 241.326 175.987 240.664 176.37C240.009 176.748 239.319 177.011 238.594 177.16C237.877 177.304 237.172 177.328 236.478 177.234C235.792 177.144 235.165 176.935 234.596 176.606ZM235.531 176.066C236.1 176.395 236.743 176.532 237.46 176.478C238.193 176.424 238.918 176.19 239.635 175.776C240.352 175.362 240.753 174.946 240.839 174.527C240.94 174.109 240.707 173.735 240.138 173.407C239.569 173.078 238.918 172.941 238.185 172.995C237.468 173.049 236.751 173.283 236.034 173.697C235.317 174.111 234.908 174.527 234.806 174.946C234.721 175.364 234.962 175.738 235.531 176.066Z" fill="white"/>
<path d="M164.988 30.256L172.65 24.74L173.742 25.37L166.54 30.452L166.418 30.382L174.396 26.868L175.512 27.512L169.425 32.118L169.304 32.048L178.106 27.89L179.198 28.52L169.644 32.944L168.067 32.034L173.96 27.596L174.251 27.764L166.564 31.166L164.988 30.256ZM174.501 35.7483L180.927 32.0383L181.945 32.6263L175.519 36.3363L174.501 35.7483ZM171.918 34.2573L172.815 33.7393L178.635 37.0993L177.738 37.6173L171.918 34.2573ZM177.568 31.1353L178.465 30.6173L181.945 32.6263L181.048 33.1443L177.568 31.1353ZM181.836 31.4013L183.024 30.7153L184.091 31.3313L182.903 32.0173L181.836 31.4013ZM181.528 39.8055L188.415 35.8295C188.673 35.6802 188.803 35.5215 188.803 35.3535C188.803 35.1855 188.673 35.0269 188.415 34.8775L186.899 34.0025L187.796 33.4845L189.36 34.3875C189.95 34.7282 190.241 35.0735 190.233 35.4235C190.241 35.7735 189.95 36.1189 189.36 36.4595L182.547 40.3935L181.528 39.8055ZM178.946 38.3145L179.843 37.7965L185.662 41.1565L184.765 41.6745L178.946 38.3145ZM188.798 44.0028L195.685 40.0268C195.943 39.8775 196.073 39.7188 196.073 39.5508C196.073 39.3828 195.943 39.2241 195.685 39.0748L194.169 38.1998L195.066 37.6818L196.63 38.5848C197.22 38.9255 197.511 39.2708 197.503 39.6208C197.511 39.9708 197.22 40.3161 196.63 40.6568L189.816 44.5908L188.798 44.0028ZM186.215 42.5118L187.113 41.9938L192.932 45.3538L192.035 45.8718L186.215 42.5118Z" fill="black"/>
<path d="M335.219 139.754C334.556 139.372 334.17 138.947 334.061 138.479C333.952 138.011 334.1 137.52 334.505 137.007C334.918 136.499 335.569 135.988 336.458 135.475C337.354 134.957 338.243 134.579 339.123 134.341C340.012 134.107 340.862 134.021 341.672 134.084C342.491 134.143 343.231 134.363 343.894 134.746C344.626 135.169 345.008 135.668 345.039 136.244C345.078 136.816 344.755 137.399 344.069 137.993L342.923 137.412C343.391 136.989 343.613 136.595 343.59 136.231C343.574 135.871 343.348 135.565 342.911 135.313C342.467 135.056 341.961 134.917 341.392 134.894C340.838 134.872 340.23 134.962 339.568 135.164C338.913 135.362 338.227 135.668 337.51 136.082C336.801 136.492 336.275 136.886 335.932 137.264C335.589 137.642 335.433 137.993 335.464 138.317C335.511 138.641 335.756 138.931 336.201 139.187C336.684 139.466 337.261 139.606 337.931 139.606C338.601 139.606 339.326 139.448 340.106 139.133L341.111 139.781C340.051 140.222 338.999 140.443 337.954 140.443C336.918 140.438 336.006 140.209 335.219 139.754ZM340.054 142.33L348.355 137.538L349.337 138.105L345.865 140.11L345.771 140.029C346.192 139.876 346.605 139.79 347.011 139.772C347.416 139.754 347.806 139.795 348.18 139.894C348.562 139.988 348.912 140.128 349.232 140.312C349.676 140.569 349.949 140.843 350.05 141.136C350.167 141.428 350.124 141.723 349.922 142.02C349.735 142.317 349.411 142.598 348.951 142.864L344.965 145.165L343.982 144.598L347.689 142.459C348.289 142.112 348.624 141.793 348.694 141.5C348.772 141.212 348.593 140.942 348.156 140.69C347.657 140.402 347.104 140.258 346.496 140.258C345.896 140.263 345.307 140.431 344.731 140.764L341.036 142.897L340.054 142.33ZM348.444 147.336C348.054 147.111 347.774 146.868 347.602 146.607C347.431 146.346 347.38 146.092 347.45 145.844C347.528 145.592 347.735 145.37 348.07 145.176C348.6 144.87 349.165 144.724 349.765 144.737C350.381 144.751 351.094 144.915 351.905 145.23L354.407 146.189C354.937 145.883 355.209 145.586 355.225 145.298C355.248 145.014 355.038 144.744 354.594 144.488C354.165 144.24 353.732 144.103 353.296 144.076C352.867 144.044 352.427 144.105 351.975 144.258L351.016 143.61C351.718 143.34 352.466 143.228 353.261 143.273C354.071 143.318 354.827 143.543 355.529 143.948C356.277 144.38 356.632 144.845 356.593 145.345C356.562 145.84 356.152 146.315 355.365 146.769L352.793 148.254C352.653 148.335 352.587 148.409 352.594 148.477C352.602 148.544 352.668 148.614 352.793 148.686L353.191 148.916L352.326 149.415C352.271 149.393 352.193 149.352 352.092 149.294C351.983 149.24 351.881 149.186 351.788 149.132C351.523 148.979 351.34 148.823 351.238 148.666C351.145 148.513 351.145 148.355 351.238 148.193C351.34 148.027 351.538 147.854 351.834 147.674L352.022 147.782C351.702 147.903 351.328 147.966 350.899 147.971C350.486 147.975 350.061 147.923 349.625 147.815C349.196 147.703 348.803 147.543 348.444 147.336ZM349.403 146.891C349.824 147.134 350.244 147.296 350.665 147.377C351.094 147.453 351.507 147.458 351.905 147.39C352.31 147.318 352.684 147.183 353.027 146.985L353.565 146.675L351.297 145.797C350.798 145.599 350.385 145.5 350.057 145.5C349.738 145.496 349.449 145.568 349.192 145.716C348.904 145.883 348.775 146.069 348.806 146.276C348.853 146.483 349.052 146.688 349.403 146.891ZM353.888 150.317L360.084 146.74L360.984 147.259L359.441 148.191L359.429 148.063C359.874 147.896 360.314 147.804 360.75 147.786C361.202 147.768 361.631 147.808 362.036 147.907C362.442 148.006 362.804 148.148 363.124 148.333C363.599 148.607 363.888 148.895 363.989 149.197C364.098 149.503 364.055 149.806 363.86 150.108C363.673 150.405 363.361 150.679 362.925 150.931L358.938 153.233L357.956 152.666L361.662 150.526C362.239 150.193 362.563 149.876 362.633 149.575C362.711 149.269 362.516 148.981 362.048 148.711C361.729 148.526 361.37 148.4 360.973 148.333C360.583 148.261 360.178 148.256 359.757 148.319C359.351 148.382 358.958 148.524 358.576 148.744L354.87 150.884L353.888 150.317ZM363.447 155.998C362.87 155.665 362.5 155.298 362.336 154.898C362.172 154.497 362.215 154.09 362.464 153.676C362.722 153.257 363.178 152.859 363.832 152.481C364.487 152.103 365.173 151.842 365.89 151.698C366.607 151.554 367.312 151.529 368.006 151.624C368.708 151.714 369.347 151.925 369.924 152.258C370.383 152.524 370.707 152.81 370.894 153.116C371.089 153.417 371.143 153.728 371.058 154.047C370.972 154.367 370.742 154.684 370.368 154.999L369.269 154.445C369.588 154.153 369.717 153.863 369.655 153.575C369.608 153.287 369.386 153.028 368.988 152.798C368.419 152.47 367.765 152.33 367.024 152.38C366.299 152.429 365.578 152.661 364.861 153.075C364.144 153.489 363.739 153.908 363.645 154.331C363.567 154.754 363.813 155.129 364.382 155.458C364.779 155.687 365.239 155.818 365.761 155.849C366.291 155.885 366.837 155.795 367.398 155.579L368.357 156.214C367.811 156.43 367.246 156.567 366.662 156.626C366.085 156.68 365.52 156.655 364.966 156.551C364.413 156.448 363.906 156.263 363.447 155.998ZM370.398 160.011C369.814 159.674 369.44 159.305 369.276 158.904C369.12 158.508 369.167 158.103 369.416 157.689C369.681 157.275 370.141 156.879 370.796 156.501C371.451 156.123 372.133 155.86 372.842 155.712C373.559 155.568 374.256 155.538 374.935 155.624C375.628 155.709 376.26 155.916 376.829 156.245C377.366 156.555 377.713 156.904 377.869 157.291C378.033 157.674 377.99 158.072 377.741 158.486C377.491 158.9 377.02 159.307 376.326 159.708L376.034 159.876L371.521 157.271C370.897 157.676 370.574 158.065 370.55 158.439C370.535 158.817 370.796 159.161 371.334 159.471C371.739 159.705 372.164 159.843 372.608 159.883C373.068 159.924 373.504 159.883 373.917 159.762L374.888 160.416C374.171 160.641 373.403 160.725 372.585 160.666C371.782 160.608 371.053 160.389 370.398 160.011ZM372.386 156.771L375.823 158.756C376.377 158.382 376.642 158.027 376.618 157.689C376.595 157.352 376.353 157.05 375.893 156.785C375.418 156.51 374.876 156.369 374.268 156.36C373.676 156.351 373.048 156.488 372.386 156.771Z" fill="black"/>
<rect width="13" height="32" rx="6.5" transform="matrix(0.866025 0.5 -0.866025 0.5 343.652 113.408)" fill="#D9D9D9"/>
<rect width="13" height="24" rx="6.5" transform="matrix(0.866025 0.5 -0.866025 0.5 336.884 117.5)" fill="#FF6480"/>
<rect width="100" height="30" rx="5" transform="matrix(0.866025 0.5 -0.866025 0.5 104.789 81.5)" fill="#FF8480"/>
<rect width="100" height="30" rx="5" transform="matrix(0.866025 0.5 -0.866025 0.5 205.248 139.5)" fill="black"/>
<path d="M123.271 112.17L126.661 110.213L129.023 105.906L130.169 106.568L128.181 109.902L133.957 108.755L135.103 109.416L127.667 110.793L124.276 112.751L123.271 112.17ZM130.737 116.643C130.153 116.306 129.778 115.937 129.615 115.536C129.459 115.14 129.506 114.735 129.755 114.321C130.02 113.907 130.48 113.511 131.135 113.133C131.789 112.755 132.471 112.492 133.181 112.343C133.898 112.199 134.595 112.17 135.273 112.256C135.967 112.341 136.598 112.548 137.167 112.877C137.705 113.187 138.052 113.536 138.208 113.923C138.372 114.305 138.329 114.704 138.079 115.118C137.83 115.532 137.358 115.939 136.665 116.339L136.372 116.508L131.859 113.903C131.236 114.308 130.912 114.697 130.889 115.07C130.873 115.448 131.135 115.793 131.672 116.103C132.078 116.337 132.502 116.474 132.947 116.515C133.407 116.555 133.843 116.515 134.256 116.393L135.227 117.048C134.509 117.273 133.742 117.356 132.923 117.298C132.121 117.239 131.392 117.021 130.737 116.643ZM132.725 113.403L136.162 115.388C136.715 115.014 136.98 114.659 136.957 114.321C136.933 113.984 136.692 113.682 136.232 113.417C135.757 113.142 135.215 113 134.607 112.991C134.015 112.982 133.387 113.12 132.725 113.403ZM137.759 120.697C137.221 120.387 136.851 120.065 136.648 119.732C136.446 119.399 136.387 119.077 136.473 118.767C136.574 118.456 136.804 118.179 137.163 117.936L138.262 118.49C137.942 118.746 137.81 119.016 137.864 119.3C137.927 119.588 138.203 119.874 138.694 120.157C139.154 120.423 139.575 120.589 139.957 120.657C140.347 120.729 140.682 120.684 140.962 120.522C141.142 120.418 141.247 120.308 141.278 120.191C141.309 120.074 141.247 119.925 141.091 119.745C140.943 119.561 140.682 119.316 140.308 119.01C139.817 118.6 139.478 118.251 139.291 117.963C139.119 117.675 139.084 117.421 139.185 117.201C139.287 116.98 139.505 116.773 139.84 116.58C140.199 116.373 140.608 116.24 141.068 116.181C141.528 116.123 142.015 116.148 142.529 116.256C143.043 116.364 143.554 116.564 144.061 116.856C144.575 117.153 144.91 117.455 145.066 117.761C145.238 118.067 145.273 118.366 145.171 118.659C145.078 118.947 144.883 119.212 144.587 119.455L143.488 118.902C143.659 118.749 143.761 118.587 143.792 118.416C143.839 118.245 143.803 118.071 143.687 117.896C143.585 117.72 143.394 117.552 143.114 117.39C142.662 117.129 142.237 116.987 141.839 116.964C141.442 116.942 141.111 117.007 140.846 117.16C140.635 117.282 140.518 117.408 140.495 117.538C140.471 117.669 140.534 117.822 140.682 117.997C140.838 118.168 141.072 118.38 141.383 118.632C141.921 119.059 142.284 119.421 142.471 119.718C142.665 120.011 142.716 120.265 142.623 120.481C142.529 120.697 142.311 120.904 141.968 121.102C141.602 121.314 141.177 121.433 140.694 121.46C140.226 121.487 139.735 121.433 139.22 121.298C138.714 121.167 138.227 120.967 137.759 120.697Z" fill="white"/>
<path d="M225.037 170.925L233.338 166.133L234.764 166.956L230.555 172.788L237.71 168.657L238.716 169.238L230.415 174.03L228.989 173.207L233.198 167.375L226.042 171.506L225.037 170.925ZM234.596 176.606C234.027 176.278 233.661 175.913 233.497 175.513C233.341 175.117 233.388 174.712 233.637 174.298C233.894 173.879 234.35 173.481 235.005 173.103C235.668 172.72 236.357 172.457 237.075 172.313C237.792 172.169 238.493 172.142 239.179 172.232C239.873 172.327 240.504 172.538 241.073 172.867C241.642 173.195 242.004 173.557 242.16 173.953C242.324 174.354 242.281 174.761 242.032 175.175C241.782 175.589 241.326 175.987 240.664 176.37C240.009 176.748 239.319 177.011 238.594 177.16C237.877 177.304 237.172 177.328 236.478 177.234C235.792 177.144 235.165 176.935 234.596 176.606ZM235.531 176.066C236.1 176.395 236.743 176.532 237.46 176.478C238.193 176.424 238.918 176.19 239.635 175.776C240.352 175.362 240.753 174.946 240.839 174.527C240.94 174.109 240.707 173.735 240.138 173.407C239.569 173.078 238.918 172.941 238.185 172.995C237.468 173.049 236.751 173.283 236.034 173.697C235.317 174.111 234.908 174.527 234.806 174.946C234.721 175.364 234.962 175.738 235.531 176.066Z" fill="white"/>
<defs>
<filter id="filter0_d_644_2404" x="11.2188" y="8.7868" width="410.575" height="240.426" filterUnits="userSpaceOnUse" color-interpolation-filters="sRGB">
<feFlood flood-opacity="0" result="BackgroundImageFix"/>
<feColorMatrix in="SourceAlpha" type="matrix" values="0 0 0 0 0 0 0 0 0 0 0 0 0 0 0 0 0 0 127 0" result="hardAlpha"/>
<feOffset dy="4"/>
<feGaussianBlur stdDeviation="2"/>
<feComposite in2="hardAlpha" operator="out"/>
<feColorMatrix type="matrix" values="0 0 0 0 0 0 0 0 0 0 0 0 0 0 0 0 0 0 0.5 0"/>
<feBlend mode="normal" in2="BackgroundImageFix" result="effect1_dropShadow_644_2404"/>
<feBlend mode="normal" in="SourceGraphic" in2="effect1_dropShadow_644_2404" result="shape"/>
</filter>
</defs>
</svg>
