<svg width="324" height="340" viewBox="0 0 324 340" fill="none" xmlns="http://www.w3.org/2000/svg">
<path d="M161.853 109.227V0.000736356H0V109.227C0 153.921 36.24 190.161 80.9333 190.161C39.8 190.161 6.46667 223.494 6.46667 264.614C6.46667 305.734 39.8 339.067 80.9333 339.067C122.053 339.067 155.386 305.734 155.386 264.614C155.386 223.494 122.053 190.161 80.9333 190.161C125.613 190.161 161.853 153.921 161.853 109.227Z" fill="white"/>
<path d="M323.853 229.841V339.068H162V229.841C162 185.148 198.24 148.908 242.933 148.908C201.8 148.908 168.467 115.574 168.467 74.4543C168.467 33.3343 201.8 0.000976562 242.933 0.000976562C284.053 0.000976562 317.386 33.3343 317.386 74.4543C317.386 115.574 284.053 148.908 242.933 148.908C287.613 148.908 323.853 185.148 323.853 229.841Z" fill="white"/>
</svg>
