<svg width="338" height="338" viewBox="0 0 338 338" fill="none" xmlns="http://www.w3.org/2000/svg">
<path d="M176.373 126.08V13.4129C176.373 5.99954 170.36 -0.000396729 162.947 -0.000396729H13.4133C6.01328 -0.000396729 0 5.99954 0 13.4129V162.946C0 170.36 6.01328 176.373 13.4133 176.373H126.08C145.173 176.373 160.653 191.84 160.653 210.933V323.601C160.653 331.012 166.667 337.02 174.067 337.02H323.6C331.013 337.02 337.027 331.012 337.027 323.601V174.066C337.027 166.653 331.013 160.653 323.6 160.653H210.933C191.84 160.653 176.373 145.173 176.373 126.08Z" fill="white"/>
</svg>
