<svg width="400" height="338" viewBox="0 0 400 338" fill="none" xmlns="http://www.w3.org/2000/svg">
<path fill-rule="evenodd" clip-rule="evenodd" d="M80.6858 196.091C86.9464 196.091 92.7232 199.458 95.8081 204.906L125.21 256.83L154.755 309.006C157.764 314.319 157.764 320.82 154.755 326.133L153.582 328.204C150.497 333.652 144.72 337.02 138.46 337.02H79.8022H21.1445C14.8839 337.02 9.10723 333.652 6.02228 328.204L4.84915 326.133C1.8408 320.82 1.84077 314.319 4.84906 309.006L34.394 256.831L63.7963 204.906C66.8812 199.459 72.658 196.091 78.9187 196.091H80.6858Z" fill="white"/>
<path fill-rule="evenodd" clip-rule="evenodd" d="M321.087 196.091C327.348 196.091 333.126 199.459 336.21 204.908L365.605 256.83L395.15 309.006C398.158 314.319 398.158 320.82 395.15 326.133L393.977 328.204C390.892 333.652 385.115 337.02 378.855 337.02H320.205H261.547C255.286 337.02 249.51 333.652 246.425 328.204L245.252 326.133C242.243 320.82 242.243 314.319 245.251 309.006L274.796 256.831L304.199 204.906C307.284 199.459 313.061 196.091 319.321 196.091H321.087Z" fill="white"/>
<path fill-rule="evenodd" clip-rule="evenodd" d="M202.313 306.307C208.574 306.307 214.35 302.939 217.435 297.491L246.838 245.568L276.382 193.392C279.391 188.079 279.39 181.578 276.382 176.265L275.209 174.194C272.124 168.746 266.348 165.379 260.087 165.379H201.429H142.771C136.511 165.379 130.734 168.746 127.649 174.194L126.476 176.265C123.468 181.577 123.468 188.079 126.476 193.392L156.021 245.568L185.423 297.491C188.508 302.939 194.285 306.307 200.546 306.307H202.313Z" fill="white"/>
<path fill-rule="evenodd" clip-rule="evenodd" d="M202.336 0C208.597 0 214.374 3.36747 217.459 8.81533L246.861 60.7388L276.406 112.915C279.414 118.228 279.414 124.729 276.406 130.042L275.233 132.113C272.148 137.56 266.371 140.928 260.111 140.928H201.453H142.795C136.534 140.928 130.758 137.56 127.673 132.113L126.5 130.042C123.491 124.729 123.491 118.228 126.499 112.915L156.045 60.7388L185.447 8.81536C188.532 3.36748 194.308 0 200.569 0H202.336Z" fill="white"/>
</svg>
