<svg width="1616" height="1616" viewBox="0 0 1616 1616" fill="none" xmlns="http://www.w3.org/2000/svg">
<path d="M324.491 579H1616L1401.51 734H110L324.491 579Z" fill="white"/>
<path d="M214.491 808H1506L1291.51 963H0L214.491 808Z" fill="white"/>
<path d="M1110.5 959H1297L963.5 1207L918 1114L1110.5 959Z" fill="white"/>
<path d="M493.5 592H307L640.5 344L686 437L493.5 592Z" fill="white"/>
<path d="M1005 324.491V1616L850 1401.51V110L1005 324.491Z" fill="white"/>
<path d="M776 214.491V1506L621 1291.51V0L776 214.491Z" fill="white"/>
<path d="M625 1110.5V1297L377 963.5L470 918L625 1110.5Z" fill="white"/>
<path d="M992 493.5V307L1240 640.5L1147 686L992 493.5Z" fill="white"/>
</svg>
