<svg width="344" height="339" viewBox="0 0 344 339" fill="none" xmlns="http://www.w3.org/2000/svg">
<path d="M92.95 169.758C92.83 169.458 92.67 169.168 92.49 168.888C92.31 168.618 92.1 168.358 91.87 168.128C91.64 167.898 91.39 167.688 91.11 167.508C90.84 167.328 90.55 167.178 90.25 167.048C89.95 166.928 89.63 166.828 89.31 166.768C88.67 166.638 88 166.638 87.36 166.768C87.04 166.828 86.73 166.928 86.42 167.048C86.12 167.178 85.83 167.328 85.56 167.508C85.29 167.688 85.03 167.898 84.8 168.128C84.57 168.358 84.36 168.618 84.18 168.888C84 169.168 83.84 169.458 83.72 169.758C83.59 170.058 83.5 170.368 83.44 170.688C83.37 171.018 83.34 171.338 83.34 171.668C83.34 171.998 83.37 172.318 83.44 172.648C83.5 172.968 83.59 173.278 83.72 173.578C83.84 173.878 84 174.168 84.18 174.448C84.36 174.718 84.57 174.978 84.8 175.208C85.03 175.438 85.29 175.648 85.56 175.828C85.83 176.008 86.12 176.158 86.42 176.288C86.73 176.408 87.04 176.508 87.36 176.568C87.68 176.638 88.01 176.668 88.34 176.668C88.66 176.668 88.99 176.638 89.31 176.568C89.63 176.508 89.95 176.408 90.25 176.288C90.55 176.158 90.84 176.008 91.11 175.828C91.39 175.648 91.64 175.438 91.87 175.208C92.1 174.978 92.31 174.718 92.49 174.448C92.67 174.168 92.83 173.878 92.95 173.578C93.08 173.278 93.17 172.968 93.24 172.648C93.3 172.318 93.34 171.998 93.34 171.668C93.34 171.338 93.3 171.018 93.24 170.688C93.17 170.368 93.08 170.058 92.95 169.758Z" fill="white"/>
<path d="M91.87 251.467C91.64 251.237 91.39 251.027 91.11 250.847C90.84 250.667 90.55 250.508 90.25 250.388C89.95 250.258 89.63 250.167 89.31 250.097C88.67 249.968 88 249.968 87.36 250.097C87.04 250.167 86.73 250.258 86.42 250.388C86.12 250.508 85.83 250.667 85.56 250.847C85.29 251.027 85.03 251.237 84.8 251.467C83.87 252.397 83.34 253.687 83.34 254.997V338.328H93.34V255.018C93.34 255.008 93.34 254.998 93.34 254.988C93.34 253.688 92.8 252.397 91.87 251.467Z" fill="white"/>
<path d="M9.9 170.688C9.84 170.368 9.74 170.058 9.62 169.758C9.49 169.458 9.34 169.168 9.16 168.888C8.98 168.618 8.77 168.358 8.54 168.128C8.31 167.898 8.05 167.688 7.78 167.508C7.51 167.328 7.22 167.178 6.92 167.048C6.61 166.928 6.3 166.828 5.98 166.768C5.34 166.638 4.67 166.638 4.03 166.768C3.71 166.828 3.39 166.928 3.09 167.048C2.79 167.178 2.5 167.328 2.23 167.508C1.95 167.688 1.7 167.898 1.47 168.128C1.24 168.358 1.03 168.618 0.849998 168.888C0.659998 169.168 0.509999 169.458 0.389999 169.758C0.259999 170.058 0.159998 170.368 0.0999985 170.688C0.0299985 171.018 0 171.338 0 171.668C0 171.688 0 171.708 0 171.728V254.938C0 254.957 0 254.978 0 254.997C0 255.017 0 255.038 0 255.058V338.338H10V171.668C10 171.338 9.97 171.018 9.9 170.688Z" fill="white"/>
<path d="M343.34 88.3375C343.34 88.3175 343.34 88.3075 343.34 88.2875V5.0475C343.34 5.0275 343.34 5.0175 343.34 4.9975C343.34 3.6775 342.8 2.3975 341.87 1.4675C341.64 1.2375 341.39 1.0275 341.11 0.8475C340.84 0.6675 340.55 0.507501 340.25 0.387501C339.95 0.257501 339.63 0.1675 339.31 0.0975C338.67 -0.0325 338 -0.0325 337.36 0.0975C337.04 0.1675 336.73 0.257501 336.42 0.387501C336.12 0.507501 335.83 0.6675 335.56 0.8475C335.29 1.0275 335.03 1.2375 334.8 1.4675C334.57 1.6975 334.36 1.9475 334.18 2.2275C334 2.4975 333.85 2.7875 333.72 3.0875C333.6 3.3875 333.5 3.7075 333.44 4.0275C333.37 4.3475 333.34 4.6775 333.34 4.9975V338.328H343.34V255.018C343.34 255.008 343.34 254.997 343.34 254.988C343.34 254.967 343.34 254.957 343.34 254.937V171.707C343.34 171.687 343.34 171.678 343.34 171.658C343.34 171.648 343.34 171.637 343.34 171.628V88.3675C343.34 88.3575 343.34 88.3475 343.34 88.3375Z" fill="white"/>
<path d="M250.39 90.2475C250.51 90.5475 250.66 90.8375 250.85 91.1075C251.03 91.3875 251.24 91.6375 251.47 91.8675C252.4 92.7975 253.69 93.3375 255 93.3375C255.33 93.3375 255.66 93.2975 255.98 93.2375C256.3 93.1775 256.61 93.0775 256.91 92.9475C257.22 92.8275 257.51 92.6675 257.78 92.4875C258.05 92.3075 258.31 92.0975 258.54 91.8675C259.47 90.9375 260 89.6475 260 88.3375C260 87.0175 259.47 85.7275 258.54 84.7975C258.31 84.5675 258.05 84.3575 257.78 84.1775C257.51 83.9975 257.22 83.8475 256.91 83.7175C256.61 83.5975 256.3 83.4975 255.98 83.4375C254.35 83.1075 252.63 83.6375 251.47 84.7975C251.24 85.0275 251.03 85.2875 250.85 85.5575C250.66 85.8275 250.51 86.1175 250.39 86.4175C250.26 86.7275 250.17 87.0375 250.1 87.3575C250.04 87.6775 250 88.0075 250 88.3375C250 88.6575 250.04 88.9875 250.1 89.3075C250.17 89.6275 250.26 89.9475 250.39 90.2475Z" fill="white"/>
<path d="M175.2 84.7975C174.97 84.5675 174.72 84.3575 174.44 84.1775C174.17 83.9975 173.88 83.8375 173.58 83.7175C173.28 83.5875 172.97 83.4975 172.65 83.4275C172 83.2975 171.34 83.2975 170.69 83.4275C170.37 83.4975 170.06 83.5875 169.76 83.7175C169.46 83.8375 169.17 83.9975 168.89 84.1775C168.62 84.3575 168.36 84.5675 168.13 84.7975C167.9 85.0275 167.69 85.2875 167.51 85.5575C167.33 85.8275 167.18 86.1175 167.05 86.4175C166.93 86.7275 166.83 87.0375 166.77 87.3575C166.7 87.6775 166.67 88.0075 166.67 88.3375V338.338H176.67V88.3375C176.67 87.0175 176.14 85.7275 175.2 84.7975Z" fill="white"/>
<path d="M92.95 86.4175C92.83 86.1175 92.67 85.8275 92.49 85.5575C92.31 85.2875 92.1 85.0275 91.87 84.7975C91.64 84.5675 91.39 84.3575 91.11 84.1775C90.84 83.9975 90.55 83.8475 90.25 83.7175C89.95 83.5875 89.63 83.4975 89.31 83.4275C88.67 83.2975 88 83.2975 87.36 83.4275C87.04 83.4975 86.73 83.5875 86.42 83.7175C86.12 83.8475 85.83 83.9975 85.56 84.1775C85.29 84.3575 85.03 84.5675 84.8 84.7975C83.87 85.7275 83.34 87.0175 83.34 88.3375C83.34 89.6475 83.87 90.9375 84.8 91.8675C85.03 92.0975 85.29 92.3075 85.56 92.4875C85.83 92.6675 86.12 92.8275 86.42 92.9475C86.73 93.0775 87.04 93.1675 87.36 93.2375C87.68 93.2975 88.01 93.3375 88.34 93.3375C88.66 93.3375 88.99 93.2975 89.31 93.2375C89.63 93.1675 89.95 93.0775 90.25 92.9475C90.55 92.8275 90.84 92.6675 91.11 92.4875C91.39 92.3075 91.64 92.0975 91.87 91.8675C92.8 90.9375 93.34 89.6475 93.34 88.3375C93.34 88.0075 93.3 87.6775 93.24 87.3575C93.17 87.0375 93.08 86.7275 92.95 86.4175Z" fill="white"/>
<path d="M0.389999 90.2475C0.509999 90.5475 0.659998 90.8375 0.849998 91.1075C1.03 91.3875 1.24 91.6375 1.47 91.8675C1.7 92.0975 1.95 92.3075 2.23 92.4875C2.5 92.6675 2.79 92.8275 3.09 92.9475C3.39 93.0775 3.71 93.1775 4.03 93.2375C4.35 93.2975 4.68 93.3375 5 93.3375C5.33 93.3375 5.66 93.2975 5.98 93.2375C6.3 93.1775 6.61 93.0775 6.92 92.9475C7.22 92.8275 7.51 92.6675 7.78 92.4875C8.05 92.3075 8.31 92.0975 8.54 91.8675C8.77 91.6375 8.98 91.3875 9.16 91.1075C9.34 90.8375 9.49 90.5475 9.62 90.2475C9.74 89.9475 9.84 89.6275 9.9 89.3075C9.97 88.9875 10 88.6575 10 88.3375C10 88.0075 9.97 87.6775 9.9 87.3575C9.84 87.0375 9.74 86.7275 9.62 86.4175C9.49 86.1175 9.34 85.8275 9.16 85.5575C8.98 85.2875 8.77 85.0275 8.54 84.7975C8.31 84.5675 8.05 84.3575 7.78 84.1775C7.51 83.9975 7.22 83.8375 6.92 83.7175C6.61 83.5875 6.3 83.4975 5.98 83.4275C5.34 83.2975 4.67 83.2975 4.03 83.4275C3.71 83.4975 3.39 83.5875 3.09 83.7175C2.79 83.8375 2.5 83.9975 2.23 84.1775C1.95 84.3575 1.7 84.5675 1.47 84.7975C1.24 85.0275 1.03 85.2875 0.849998 85.5575C0.659998 85.8275 0.509999 86.1175 0.389999 86.4175C0.259999 86.7275 0.159998 87.0375 0.0999985 87.3575C0.0299985 87.6775 0 88.0075 0 88.3375C0 88.6575 0.0299985 88.9875 0.0999985 89.3075C0.159998 89.6275 0.259999 89.9475 0.389999 90.2475Z" fill="white"/>
<path d="M250.39 6.9175C250.51 7.2175 250.66 7.5075 250.85 7.7775C251.03 8.04751 251.24 8.30751 251.47 8.53751C252.4 9.46751 253.69 9.99751 255 9.99751C255.33 9.99751 255.66 9.96751 255.98 9.89751C256.3 9.83751 256.61 9.7375 256.91 9.6175C257.22 9.4875 257.51 9.3375 257.78 9.1575C258.05 8.9775 258.31 8.76751 258.54 8.53751C258.77 8.30751 258.98 8.04751 259.16 7.7775C259.34 7.5075 259.49 7.2175 259.62 6.9175C259.74 6.6075 259.84 6.2975 259.9 5.9775C259.97 5.6575 260 5.32751 260 4.99751C260 3.68751 259.47 2.39751 258.54 1.46751C258.31 1.23751 258.05 1.0275 257.78 0.847505C257.51 0.667505 257.22 0.507505 256.91 0.387505C256.61 0.257505 256.3 0.157505 255.98 0.0975045C254.35 -0.232495 252.62 0.307507 251.47 1.46751C250.54 2.39751 250 3.67751 250 4.99751C250 5.32751 250.04 5.6575 250.1 5.9775C250.17 6.2975 250.26 6.6075 250.39 6.9175Z" fill="white"/>
<path d="M176.29 3.0875C176.16 2.7875 176.01 2.4975 175.83 2.2275C175.64 1.9475 175.44 1.6975 175.2 1.4675C174.97 1.2375 174.72 1.0275 174.44 0.8475C174.17 0.6675 173.88 0.507501 173.58 0.387501C173.28 0.257501 172.97 0.1675 172.65 0.0975C172 -0.0325 171.34 -0.0325 170.69 0.0975C170.37 0.1675 170.06 0.257501 169.76 0.387501C169.46 0.507501 169.17 0.6675 168.89 0.8475C168.62 1.0275 168.36 1.2375 168.13 1.4675C167.2 2.3975 166.67 3.6875 166.67 4.9975C166.67 6.3175 167.2 7.6075 168.13 8.5375C168.36 8.7675 168.62 8.9775 168.89 9.1575C169.17 9.3375 169.46 9.4975 169.76 9.6175C170.06 9.7475 170.37 9.8375 170.69 9.9075C171.02 9.9675 171.34 9.9975 171.67 9.9975C172 9.9975 172.32 9.9675 172.65 9.9075C172.97 9.8375 173.28 9.7475 173.58 9.6175C173.88 9.4975 174.17 9.3375 174.44 9.1575C174.72 8.9775 174.97 8.7675 175.2 8.5375C176.14 7.6075 176.67 6.3175 176.67 4.9975C176.67 4.6775 176.64 4.3475 176.57 4.0275C176.51 3.7075 176.41 3.3875 176.29 3.0875Z" fill="white"/>
<path d="M91.11 0.8475C90.84 0.6675 90.55 0.507501 90.25 0.387501C89.95 0.257501 89.63 0.1575 89.31 0.0975C88.67 -0.0325 88 -0.0325 87.36 0.0975C87.04 0.1575 86.73 0.257501 86.42 0.387501C86.12 0.507501 85.83 0.6675 85.56 0.8475C85.29 1.0275 85.03 1.2375 84.8 1.4675C83.87 2.3975 83.34 3.6875 83.34 4.9975C83.34 6.3175 83.87 7.6075 84.8 8.5375C85.03 8.7675 85.29 8.9775 85.56 9.1575C85.83 9.3375 86.12 9.4975 86.42 9.6175C86.73 9.7475 87.04 9.8375 87.36 9.9075C87.68 9.9675 88.01 9.9975 88.34 9.9975C88.66 9.9975 88.99 9.9675 89.31 9.9075C89.63 9.8375 89.95 9.7475 90.25 9.6175C90.55 9.4975 90.84 9.3375 91.11 9.1575C91.39 8.9775 91.64 8.7675 91.87 8.5375C92.1 8.3075 92.31 8.0475 92.49 7.7775C92.67 7.5075 92.83 7.2175 92.95 6.9175C93.08 6.6075 93.17 6.2975 93.24 5.9775C93.3 5.6575 93.34 5.3275 93.34 4.9975C93.34 3.6875 92.8 2.3975 91.87 1.4675C91.64 1.2375 91.39 1.0275 91.11 0.8475Z" fill="white"/>
<path d="M0.389999 6.9175C0.509999 7.2175 0.659998 7.5075 0.849998 7.7775C1.03 8.0475 1.24 8.3075 1.47 8.5375C1.7 8.7675 1.95 8.9775 2.23 9.1575C2.5 9.3375 2.79 9.4875 3.09 9.6175C3.39 9.7375 3.71 9.8375 4.03 9.8975C4.35 9.9675 4.68 9.9975 5 9.9975C5.33 9.9975 5.66 9.9675 5.98 9.8975C6.3 9.8375 6.61 9.7375 6.92 9.6175C7.22 9.4875 7.51 9.3375 7.78 9.1575C8.05 8.9775 8.31 8.7675 8.54 8.5375C9.47 7.6075 10 6.3175 10 4.9975C10 4.6775 9.97 4.3475 9.9 4.0275C9.84 3.7075 9.74 3.3875 9.62 3.0875C9.49 2.7875 9.34 2.4975 9.16 2.2275C8.98 1.9475 8.77 1.6975 8.54 1.4675C8.31 1.2375 8.05 1.0275 7.78 0.8475C7.51 0.6675 7.22 0.507501 6.92 0.387501C6.61 0.257501 6.3 0.1675 5.98 0.0975C5.34 -0.0325 4.67 -0.0325 4.03 0.0975C3.71 0.1675 3.39 0.257501 3.09 0.387501C2.79 0.507501 2.5 0.6675 2.23 0.8475C1.95 1.0275 1.7 1.2375 1.47 1.4675C1.24 1.6975 1.03 1.9475 0.849998 2.2275C0.659998 2.4975 0.509999 2.7875 0.389999 3.0875C0.259999 3.3875 0.159998 3.7075 0.0999985 4.0275C0.0299985 4.3475 0 4.6775 0 4.9975C0 5.3275 0.0299985 5.6575 0.0999985 5.9775C0.159998 6.2975 0.259999 6.6075 0.389999 6.9175Z" fill="white"/>
<path d="M259.9 170.687C259.84 170.367 259.74 170.057 259.62 169.757C259.49 169.457 259.34 169.167 259.16 168.887C258.98 168.617 258.77 168.357 258.54 168.127C258.31 167.897 258.05 167.687 257.78 167.507C257.51 167.327 257.22 167.177 256.91 167.047C256.61 166.927 256.3 166.827 255.98 166.767C254.35 166.437 252.63 166.967 251.47 168.127C251.24 168.357 251.03 168.617 250.85 168.887C250.66 169.167 250.51 169.457 250.39 169.757C250.26 170.057 250.17 170.367 250.1 170.687C250.04 171.017 250 171.337 250 171.667C250 171.677 250 171.687 250 171.697V254.967C250 254.977 250 254.987 250 254.997C250 255.017 250 255.037 250 255.048V338.327H260V171.667C260 171.337 259.97 171.017 259.9 170.687Z" fill="white"/>
</svg>
