<svg width="364" height="335" viewBox="0 0 364 335" fill="none" xmlns="http://www.w3.org/2000/svg">
<path d="M182 200.062L187.023 191.361L237.816 103.384V103.383C249.483 83.1814 249.484 59.1386 237.816 38.9369C226.148 18.7332 205.323 6.70643 182 6.70642C158.677 6.70642 137.852 18.7332 126.184 38.9369C114.528 59.1388 114.528 83.1823 126.184 103.384L176.977 191.361L182 200.062ZM182 200.062H293.632C316.956 200.062 337.791 212.09 349.447 232.29L349.448 232.292C361.115 252.494 361.115 276.537 349.448 296.739C337.78 316.942 316.955 328.969 293.632 328.969C270.309 328.969 249.484 316.942 237.815 296.739L187.023 208.763L182 200.062ZM182 200.062L176.977 208.763L126.184 296.739C114.515 316.942 93.6899 328.969 70.3672 328.969C47.0431 328.969 26.2085 316.941 14.5527 296.741L14.5518 296.739L14.0127 295.789C2.88656 275.787 3.06682 252.179 14.5518 232.292C26.22 212.089 47.0446 200.062 70.3672 200.062H182Z" stroke="white" stroke-width="11.6018"/>
</svg>
