<svg width="387" height="340" viewBox="0 0 387 340" fill="none" xmlns="http://www.w3.org/2000/svg">
<path d="M59.17 252.48L50.51 247.48L0 334.97H101.03V324.97H17.32L59.17 252.48Z" fill="white"/>
<path d="M336.28 247.48L327.62 252.48L369.47 324.97H285.76V334.97H386.79L336.28 247.48Z" fill="white"/>
<path d="M193.4 0L142.88 87.49L151.54 92.49L193.4 20L235.25 92.49L243.91 87.49L193.4 0Z" fill="white"/>
<path d="M239.61 165.01V175.01H277.13L258.37 207.51L267.03 212.51L294.45 165.01H239.61Z" fill="white"/>
<path d="M119.82 212.51L128.48 207.51L109.72 175.01H147.24V165.01H92.39L119.82 212.51Z" fill="white"/>
<path d="M193.42 320L174.66 287.5L166 292.5L193.42 340L220.85 292.5L212.19 287.5L193.42 320Z" fill="white"/>
</svg>
