<svg width="348" height="341" viewBox="0 0 348 341" fill="none" xmlns="http://www.w3.org/2000/svg">
<path d="M10.61 166.66L3.54004 173.74L83.34 253.53L3.54004 333.33L10.61 340.4L97.48 253.53L10.61 166.66Z" fill="white"/>
<path d="M93.94 166.66L14.14 86.87L93.94 7.07L86.87 0L0 86.87L86.87 173.74L166.67 253.53L86.87 333.33L93.94 340.4L180.81 253.53L93.94 166.66Z" fill="white"/>
<path d="M177.28 166.66L97.48 86.87L177.28 7.07L170.2 0L83.34 86.87L170.2 173.74L250 253.53L170.2 333.33L177.28 340.4L264.14 253.53L177.28 166.66Z" fill="white"/>
<path d="M260.61 166.66L180.81 86.87L260.61 7.07L253.54 0L166.67 86.87L253.54 173.74L333.34 253.53L253.54 333.33L260.61 340.4L347.48 253.53L260.61 166.66Z" fill="white"/>
<path d="M336.87 173.74L343.94 166.66L264.14 86.87L343.94 7.07L336.87 0L250 86.87L336.87 173.74Z" fill="white"/>
</svg>
