<svg width="344" height="344" viewBox="0 0 344 344" fill="none" xmlns="http://www.w3.org/2000/svg">
<path d="M293.042 50.265C241.672 -1.10496 163.152 -14.585 97.6425 16.715L91.2625 19.765L323.542 252.055L326.592 245.675C357.892 180.155 344.402 101.635 293.042 50.265ZM320.502 234.865L108.442 22.805C168.772 -2.80496 239.282 10.655 285.972 57.335C332.652 104.025 346.112 174.535 320.502 234.865Z" fill="white"/>
<path d="M16.7126 97.635C-14.5874 163.145 -1.09744 241.675 50.2626 293.035C83.1726 325.945 127.223 343.295 171.853 343.295C196.893 343.295 222.123 337.835 245.663 326.585L252.043 323.535L19.7626 91.255L16.7126 97.635ZM234.863 320.505C214.573 329.115 193.153 333.315 171.853 333.315C129.823 333.315 88.3226 316.965 57.3426 285.975C10.6526 239.285 -2.80744 168.775 22.8026 108.445L234.863 320.505Z" fill="white"/>
<path d="M57.3322 50.2672L50.2612 57.3382L285.959 293.036L293.03 285.965L57.3322 50.2672Z" fill="white"/>
</svg>
