<svg width="344" height="344" viewBox="0 0 344 344" fill="none" xmlns="http://www.w3.org/2000/svg">
<path d="M320.345 85.8111C273.045 3.81107 167.844 -24.3889 85.8445 23.0111C59.7445 38.0111 38.0445 59.8111 23.0445 85.8111C0.144491 125.511 -5.95551 171.811 5.94449 216.011C17.8445 260.311 46.2445 297.311 85.9445 320.211C112.044 335.211 141.644 343.211 171.744 343.211C266.444 343.211 343.445 266.211 343.345 171.611C343.345 141.511 335.345 111.811 320.345 85.8111ZM171.644 333.311C143.344 333.311 115.344 325.811 90.8445 311.611C53.4445 290.011 26.7445 255.111 15.5445 213.411C4.34449 171.711 10.1445 128.111 31.7445 90.7111C45.9445 66.2111 66.3445 45.7111 90.9445 31.5111C116.344 16.8111 144.144 9.91107 171.544 9.91107C227.444 9.91107 281.945 38.9111 311.845 90.7111C326.045 115.211 333.544 143.211 333.544 171.511C333.344 260.711 260.844 333.311 171.644 333.311Z" fill="white"/>
<path d="M99.4445 99.9111C82.9445 99.9111 69.4445 113.411 69.4445 129.911C69.4445 146.411 82.9445 159.911 99.4445 159.911C115.944 159.911 129.444 146.411 129.444 129.911C129.444 113.411 116.044 99.9111 99.4445 99.9111Z" fill="white"/>
<path d="M171.645 201.611C188.145 201.611 201.645 188.111 201.645 171.611C201.645 155.111 188.145 141.611 171.645 141.611C155.145 141.611 141.645 155.111 141.645 171.611C141.645 188.111 155.145 201.611 171.645 201.611Z" fill="white"/>
<path d="M243.844 99.9111C227.344 99.9111 213.844 113.411 213.844 129.911C213.844 146.411 227.344 159.911 243.844 159.911C260.344 159.911 273.844 146.411 273.844 129.911C273.844 113.411 260.344 99.9111 243.844 99.9111Z" fill="white"/>
<path d="M171.645 224.911C155.145 224.911 141.645 238.411 141.645 254.911C141.645 271.411 155.145 284.911 171.645 284.911C188.145 284.911 201.645 271.411 201.645 254.911C201.645 238.411 188.145 224.911 171.645 224.911Z" fill="white"/>
</svg>
