<svg width="344" height="334" viewBox="0 0 344 334" fill="none" xmlns="http://www.w3.org/2000/svg">
<path d="M257.56 245.71C217.79 221.87 176.66 197.22 176.66 166.67C176.66 136.12 217.79 111.47 257.56 87.63C299.72 62.36 343.32 36.23 343.32 0.00999451H333.32C333.32 30.56 292.19 55.21 252.42 79.05C229.96 92.51 207.1 106.21 190.64 121.55C197.98 109.55 207.45 98.19 217.17 86.54C238.23 61.3 260 35.2 260 0H250C250 31.57 230.32 55.16 209.49 80.13C197.34 94.69 184.97 109.54 176.66 126.25V0H166.66V126.25C158.35 109.54 145.98 94.69 133.83 80.13C113 55.16 93.32 31.57 93.32 0H83.32C83.32 35.2 105.09 61.3 126.15 86.54C135.87 98.2 145.34 109.55 152.68 121.55C136.21 106.21 113.35 92.5 90.9 79.05C51.12 55.21 10 30.56 10 0.00999451H0C0 36.23 43.6 62.36 85.76 87.63C125.53 111.47 166.66 136.12 166.66 166.67C166.66 197.22 125.53 221.87 85.76 245.71C43.6 270.98 0 297.11 0 333.33H10C10 302.78 51.13 278.13 90.9 254.29C113.36 240.83 136.22 227.13 152.68 211.78C145.34 223.78 135.87 235.14 126.15 246.79C105.09 272.03 83.32 298.13 83.32 333.33H93.32C93.32 301.76 113 278.17 133.83 253.2C145.98 238.64 158.35 223.79 166.66 207.08V333.33H176.66V207.08C184.97 223.79 197.34 238.64 209.49 253.2C230.32 278.17 250 301.76 250 333.33H260C260 298.13 238.23 272.03 217.17 246.79C207.45 235.13 197.98 223.78 190.64 211.78C207.11 227.12 229.97 240.83 252.42 254.29C292.2 278.13 333.32 302.78 333.32 333.33H343.32C343.33 297.12 299.73 270.99 257.56 245.71Z" fill="white"/>
</svg>
