<svg width="349" height="344" viewBox="0 0 349 344" fill="none" xmlns="http://www.w3.org/2000/svg">
<path d="M8.07007 2L1.00006 9.07C44.5701 52.64 68.5701 110.58 68.5701 172.2C68.5701 233.82 44.5701 291.76 1.00006 335.33L8.07007 342.4C53.5301 296.94 78.5701 236.49 78.5701 172.2C78.5701 107.91 53.5301 47.46 8.07007 2Z" fill="white"/>
<path d="M338.33 343.4L345.4 336.33C301.83 292.76 277.83 234.82 277.83 173.2C277.83 111.58 301.83 53.64 345.4 10.07L338.33 3C292.87 48.46 267.83 108.91 267.83 173.2C267.83 237.49 292.87 297.94 338.33 343.4Z" fill="white"/>
<path d="M180.2 339.86V6.53H170.2V339.86H180.2Z" fill="white"/>
<path d="M4.5 4L344.5 340M344.5 4L4.5 340" stroke="white" stroke-width="10"/>
</svg>
