<svg width="344" height="243" viewBox="0 0 344 243" fill="none" xmlns="http://www.w3.org/2000/svg">
<path d="M128.85 78.57C117.41 90.01 111.11 105.21 111.11 121.39C111.11 137.57 117.41 152.77 128.85 164.21L135.92 157.14C126.37 147.59 121.11 134.9 121.11 121.39C121.11 107.88 126.37 95.19 135.92 85.64L128.85 78.57Z" fill="white"/>
<path d="M207.42 85.64C216.97 95.19 222.23 107.88 222.23 121.39C222.23 134.9 216.97 147.59 207.42 157.14L214.49 164.21C225.93 152.77 232.23 137.57 232.23 121.39C232.23 105.21 225.93 90.01 214.49 78.57L207.42 85.64Z" fill="white"/>
<path d="M89.5701 39.29C67.6401 61.22 55.5601 90.38 55.5601 121.39C55.5601 152.4 67.6401 181.56 89.5701 203.49L96.6401 196.42C76.6001 176.38 65.5601 149.73 65.5601 121.39C65.5601 93.05 76.6001 66.4 96.6401 46.36L89.5701 39.29Z" fill="white"/>
<path d="M253.77 39.29L246.7 46.36C266.74 66.4 277.78 93.05 277.78 121.39C277.78 149.73 266.74 176.38 246.7 196.42L253.77 203.49C275.7 181.56 287.78 152.4 287.78 121.39C287.78 90.38 275.7 61.22 253.77 39.29Z" fill="white"/>
<path d="M293.06 0L285.99 7.06999C349.02 70.1 349.02 172.67 285.99 235.7L293.06 242.77C325.48 210.35 343.34 167.24 343.34 121.38C343.34 75.52 325.48 32.43 293.06 0Z" fill="white"/>
<path d="M57.35 7.06999L50.28 0C17.86 32.43 0 75.54 0 121.39C0 167.24 17.86 210.35 50.28 242.78L57.35 235.71C-5.68001 172.67 -5.68001 70.11 57.35 7.06999Z" fill="white"/>
<path d="M176.29 119.48C176.16 119.18 176.01 118.89 175.83 118.61C175.64 118.34 175.44 118.08 175.21 117.85C174.04 116.69 172.31 116.16 170.69 116.49C170.37 116.55 170.06 116.65 169.76 116.77C169.46 116.9 169.17 117.05 168.89 117.23C168.62 117.41 168.36 117.62 168.13 117.85C167.9 118.08 167.69 118.34 167.51 118.61C167.33 118.89 167.18 119.18 167.05 119.48C166.93 119.78 166.83 120.09 166.77 120.41C166.7 120.74 166.67 121.06 166.67 121.39C166.67 121.72 166.7 122.05 166.77 122.37C166.83 122.69 166.93 123 167.05 123.3C167.18 123.6 167.33 123.9 167.51 124.17C167.69 124.44 167.9 124.7 168.13 124.93C169.07 125.86 170.36 126.39 171.67 126.39C172.98 126.39 174.27 125.86 175.21 124.93C175.44 124.7 175.64 124.44 175.83 124.17C176.01 123.9 176.16 123.6 176.29 123.3C176.41 123 176.51 122.69 176.57 122.37C176.64 122.05 176.67 121.72 176.67 121.39C176.67 121.06 176.64 120.74 176.57 120.41C176.51 120.09 176.41 119.78 176.29 119.48Z" fill="white"/>
</svg>
