<?xml version="1.0" encoding="utf-8"?>
<!-- Generator: Adobe Illustrator 23.0.0, SVG Export Plug-In . SVG Version: 6.00 Build 0)  -->
<svg version="1.1" xmlns="http://www.w3.org/2000/svg" xmlns:xlink="http://www.w3.org/1999/xlink" x="0px" y="0px"
	 viewBox="0 0 500 500" style="enable-background:new 0 0 500 500;" xml:space="preserve">
<style type="text/css">
	.st0{fill:#FFFFFF;}
</style>
<g id="BG">
	<rect width="500" height="500"/>
</g>
<g id="DESIGN">
	<g>
		<polygon class="st0" points="331.26,78.33 250,159.6 168.74,78.33 83.33,78.33 83.33,88.33 164.6,88.33 250,173.74 335.4,88.33 
			416.67,88.33 416.67,78.33 		"/>
		<polygon class="st0" points="250,242.93 168.74,161.67 83.33,161.67 83.33,171.67 164.6,171.67 242.93,250 164.6,328.33 
			83.33,328.33 83.33,338.33 168.74,338.33 250,257.07 331.26,338.33 416.67,338.33 416.67,328.33 335.4,328.33 257.07,250 
			335.4,171.67 416.67,171.67 416.67,161.67 331.26,161.67 		"/>
		<polygon class="st0" points="250,326.26 164.6,411.67 83.33,411.67 83.33,421.67 168.74,421.67 250,340.4 331.26,421.67 
			416.67,421.67 416.67,411.67 335.4,411.67 		"/>
		<rect x="83.33" y="245" class="st0" width="83.33" height="10"/>
		<rect x="333.33" y="245" class="st0" width="83.33" height="10"/>
	</g>
</g>
</svg>
