<?xml version="1.0" encoding="utf-8"?>
<!-- Generator: Adobe Illustrator 23.0.0, SVG Export Plug-In . SVG Version: 6.00 Build 0)  -->
<svg version="1.1" xmlns="http://www.w3.org/2000/svg" xmlns:xlink="http://www.w3.org/1999/xlink" x="0px" y="0px"
	 viewBox="0 0 500 500" style="enable-background:new 0 0 500 500;" xml:space="preserve">
<style type="text/css">
	.st0{fill:#FFFFFF;}
</style>
<g id="BG">
	<rect x="0" width="500" height="500"/>
</g>
<g id="DESIGN">
	<g>
		<path class="st0" d="M87.95,81.42c-0.12-0.3-0.28-0.59-0.46-0.86c-0.18-0.28-0.39-0.53-0.62-0.76s-0.49-0.44-0.76-0.62
			c-0.27-0.18-0.56-0.34-0.86-0.46c-0.31-0.13-0.62-0.22-0.94-0.29c-1.63-0.33-3.35,0.21-4.51,1.37c-0.93,0.93-1.47,2.22-1.47,3.53
			c0,0.33,0.04,0.66,0.1,0.98c0.07,0.32,0.16,0.63,0.29,0.94c0.12,0.3,0.28,0.59,0.46,0.86c0.18,0.27,0.39,0.53,0.62,0.76
			s0.48,0.44,0.76,0.62c0.27,0.18,0.56,0.34,0.86,0.46c0.3,0.13,0.62,0.22,0.94,0.29c0.32,0.06,0.65,0.09,0.97,0.09
			c1.32,0,2.61-0.53,3.54-1.46c0.93-0.93,1.46-2.22,1.46-3.54c0-0.32-0.03-0.65-0.09-0.97C88.17,82.04,88.08,81.72,87.95,81.42z"/>
		<path class="st0" d="M87.95,192.53c-0.13-0.3-0.28-0.59-0.46-0.86c-0.18-0.28-0.39-0.53-0.62-0.76c-1.16-1.16-2.89-1.7-4.51-1.37
			c-0.32,0.07-0.64,0.16-0.94,0.29c-0.3,0.12-0.59,0.28-0.86,0.46c-0.28,0.18-0.53,0.39-0.76,0.62s-0.44,0.48-0.62,0.76
			c-0.18,0.27-0.34,0.56-0.46,0.86c-0.13,0.3-0.22,0.62-0.29,0.94c-0.06,0.32-0.1,0.65-0.1,0.97c0,1.32,0.54,2.61,1.47,3.54
			c0.23,0.23,0.48,0.44,0.76,0.62c0.27,0.18,0.56,0.34,0.86,0.46c0.3,0.13,0.62,0.22,0.94,0.29c0.32,0.06,0.65,0.09,0.97,0.09
			c0.33,0,0.66-0.03,0.98-0.09c0.32-0.07,0.63-0.16,0.94-0.29c0.3-0.12,0.59-0.28,0.86-0.46c0.27-0.18,0.53-0.39,0.76-0.62
			c0.93-0.93,1.46-2.22,1.46-3.54c0-0.32-0.03-0.65-0.1-0.97C88.17,193.15,88.07,192.83,87.95,192.53z"/>
		<path class="st0" d="M143.51,136.98c-0.13-0.31-0.28-0.6-0.46-0.87c-0.19-0.27-0.39-0.53-0.63-0.76
			c-0.23-0.23-0.48-0.44-0.76-0.62c-0.27-0.18-0.56-0.33-0.86-0.46c-0.3-0.12-0.62-0.22-0.93-0.28c-0.65-0.13-1.31-0.13-1.96,0
			c-0.32,0.06-0.63,0.16-0.93,0.28c-0.31,0.13-0.6,0.28-0.87,0.46c-0.27,0.18-0.53,0.39-0.76,0.62c-0.23,0.23-0.44,0.49-0.62,0.76
			c-0.18,0.27-0.33,0.56-0.46,0.87c-0.12,0.3-0.22,0.61-0.28,0.93c-0.07,0.32-0.1,0.65-0.1,0.98c0,0.32,0.03,0.65,0.1,0.98
			c0.06,0.31,0.16,0.63,0.28,0.93c0.13,0.3,0.28,0.59,0.46,0.86c0.18,0.28,0.39,0.53,0.62,0.76c0.23,0.24,0.49,0.44,0.76,0.63
			c0.27,0.18,0.56,0.33,0.87,0.46c0.3,0.12,0.61,0.22,0.93,0.28c0.32,0.07,0.65,0.1,0.98,0.1c0.32,0,0.65-0.03,0.98-0.1
			c0.31-0.06,0.63-0.16,0.93-0.28c0.3-0.13,0.59-0.28,0.86-0.46c0.28-0.19,0.53-0.39,0.76-0.63c0.24-0.23,0.44-0.48,0.63-0.76
			c0.18-0.27,0.33-0.56,0.46-0.86c0.12-0.3,0.22-0.62,0.28-0.93c0.07-0.33,0.1-0.66,0.1-0.98c0-0.33-0.03-0.66-0.1-0.98
			C143.73,137.59,143.63,137.28,143.51,136.98z"/>
		<path class="st0" d="M191.67,87.49c0.27,0.18,0.56,0.33,0.86,0.46c0.3,0.12,0.62,0.22,0.94,0.28c0.32,0.07,0.65,0.1,0.97,0.1
			c1.32,0,2.61-0.53,3.54-1.46c0.23-0.23,0.44-0.49,0.62-0.76c0.18-0.27,0.34-0.56,0.46-0.86c0.13-0.31,0.22-0.62,0.29-0.94
			c0.06-0.32,0.09-0.65,0.09-0.98c0-0.32-0.03-0.65-0.09-0.97c-0.07-0.32-0.16-0.64-0.29-0.94c-0.12-0.3-0.28-0.59-0.46-0.86
			c-0.18-0.28-0.39-0.53-0.62-0.76c-1.16-1.16-2.89-1.7-4.51-1.37c-0.32,0.07-0.64,0.16-0.94,0.29c-0.3,0.12-0.59,0.28-0.86,0.46
			c-0.28,0.18-0.53,0.39-0.76,0.62s-0.44,0.48-0.62,0.76c-0.18,0.27-0.34,0.56-0.46,0.86c-0.13,0.3-0.22,0.62-0.29,0.94
			c-0.06,0.32-0.1,0.65-0.1,0.97c0,1.32,0.54,2.61,1.47,3.54C191.14,87.1,191.39,87.31,191.67,87.49z"/>
		<path class="st0" d="M87.95,303.64c-0.12-0.3-0.28-0.59-0.46-0.86c-0.18-0.27-0.39-0.53-0.62-0.76c-0.93-0.93-2.22-1.46-3.54-1.46
			c-1.31,0-2.6,0.53-3.53,1.46c-0.23,0.23-0.44,0.49-0.62,0.76c-0.18,0.27-0.34,0.56-0.46,0.86c-0.13,0.3-0.22,0.62-0.29,0.94
			c-0.06,0.32-0.1,0.65-0.1,0.98c0,1.31,0.54,2.6,1.47,3.53c0.23,0.23,0.48,0.44,0.76,0.62c0.27,0.18,0.56,0.34,0.86,0.46
			c0.3,0.13,0.62,0.22,0.94,0.29c0.32,0.06,0.65,0.1,0.97,0.1c0.33,0,0.66-0.04,0.98-0.1c0.32-0.07,0.63-0.16,0.94-0.29
			c0.3-0.12,0.59-0.28,0.86-0.46c0.27-0.18,0.53-0.39,0.76-0.62c0.93-0.93,1.46-2.22,1.46-3.53c0-0.33-0.03-0.66-0.09-0.98
			C88.17,304.26,88.08,303.94,87.95,303.64z"/>
		<path class="st0" d="M141.66,245.84c-0.27-0.18-0.56-0.33-0.86-0.46c-0.3-0.12-0.62-0.22-0.93-0.28c-0.65-0.13-1.31-0.13-1.96,0
			c-0.32,0.06-0.63,0.16-0.93,0.28c-0.3,0.13-0.6,0.28-0.87,0.46s-0.53,0.39-0.76,0.62c-0.93,0.94-1.46,2.23-1.46,3.54
			s0.53,2.6,1.46,3.54c0.23,0.23,0.49,0.44,0.76,0.62c0.27,0.18,0.57,0.33,0.87,0.46c0.3,0.12,0.61,0.22,0.93,0.28
			c0.32,0.07,0.65,0.1,0.98,0.1c1.31,0,2.6-0.53,3.54-1.46c0.93-0.94,1.46-2.23,1.46-3.54s-0.53-2.6-1.46-3.54
			C142.19,246.23,141.94,246.02,141.66,245.84z"/>
		<path class="st0" d="M87.95,414.75c-0.12-0.3-0.28-0.59-0.46-0.86c-0.18-0.27-0.39-0.53-0.62-0.76s-0.49-0.44-0.76-0.62
			s-0.56-0.34-0.86-0.46c-0.31-0.13-0.62-0.22-0.94-0.29c-0.65-0.13-1.31-0.13-1.95,0c-0.32,0.07-0.64,0.16-0.94,0.29
			c-0.3,0.12-0.59,0.28-0.86,0.46c-0.28,0.18-0.53,0.39-0.76,0.62s-0.44,0.49-0.62,0.76c-0.18,0.27-0.34,0.56-0.46,0.86
			c-0.13,0.31-0.22,0.62-0.29,0.94c-0.06,0.32-0.1,0.65-0.1,0.98c0,1.31,0.54,2.6,1.47,3.53c0.23,0.23,0.48,0.44,0.76,0.62
			c0.27,0.18,0.56,0.34,0.86,0.46c0.3,0.13,0.62,0.22,0.94,0.29c0.32,0.06,0.65,0.1,0.97,0.1c0.33,0,0.66-0.04,0.98-0.1
			c0.32-0.07,0.63-0.16,0.94-0.29c0.3-0.12,0.59-0.28,0.86-0.46s0.53-0.39,0.76-0.62c0.93-0.93,1.46-2.22,1.46-3.53
			c0-0.33-0.03-0.66-0.09-0.98C88.17,415.37,88.08,415.06,87.95,414.75z"/>
		<path class="st0" d="M143.51,359.2c-0.13-0.3-0.28-0.59-0.46-0.86c-0.19-0.28-0.39-0.53-0.62-0.76c-0.24-0.23-0.49-0.44-0.77-0.63
			c-0.27-0.18-0.56-0.33-0.86-0.46c-0.3-0.12-0.62-0.22-0.93-0.28c-0.65-0.13-1.31-0.13-1.96,0c-0.32,0.06-0.63,0.16-0.93,0.28
			c-0.31,0.13-0.6,0.28-0.87,0.46c-0.27,0.19-0.53,0.4-0.76,0.63c-0.23,0.23-0.44,0.48-0.62,0.76c-0.18,0.27-0.33,0.56-0.46,0.86
			c-0.12,0.3-0.22,0.62-0.28,0.93c-0.07,0.33-0.1,0.66-0.1,0.98c0,1.32,0.53,2.61,1.46,3.54c0.23,0.23,0.49,0.44,0.76,0.62
			c0.27,0.18,0.56,0.33,0.87,0.46c0.3,0.12,0.61,0.22,0.93,0.28c0.32,0.07,0.65,0.1,0.98,0.1c0.32,0,0.65-0.03,0.98-0.1
			c0.31-0.06,0.63-0.16,0.93-0.28c0.3-0.13,0.59-0.28,0.86-0.46c0.28-0.18,0.53-0.39,0.77-0.62c0.93-0.93,1.46-2.22,1.46-3.54
			c0-0.32-0.03-0.65-0.1-0.98C143.73,359.82,143.63,359.5,143.51,359.2z"/>
		<path class="st0" d="M199.06,303.64c-0.12-0.3-0.28-0.59-0.46-0.86c-0.18-0.27-0.39-0.53-0.62-0.76
			c-0.93-0.93-2.22-1.46-3.54-1.46c-1.31,0-2.6,0.53-3.53,1.46c-0.23,0.23-0.44,0.49-0.62,0.76c-0.18,0.27-0.34,0.56-0.46,0.86
			c-0.13,0.3-0.22,0.62-0.29,0.94c-0.06,0.32-0.09,0.65-0.09,0.98c0,0.32,0.03,0.65,0.09,0.97c0.07,0.32,0.16,0.64,0.29,0.94
			c0.12,0.3,0.28,0.59,0.46,0.86c0.18,0.28,0.39,0.53,0.62,0.76c0.93,0.93,2.22,1.47,3.53,1.47c1.32,0,2.61-0.54,3.54-1.47
			c0.23-0.23,0.44-0.48,0.62-0.76c0.18-0.27,0.34-0.56,0.46-0.86c0.13-0.3,0.22-0.62,0.29-0.94c0.06-0.32,0.09-0.65,0.09-0.97
			c0-0.33-0.03-0.66-0.09-0.98C199.28,304.26,199.19,303.94,199.06,303.64z"/>
		<path class="st0" d="M249.02,245.1c-0.32,0.06-0.63,0.16-0.93,0.28c-0.3,0.13-0.59,0.28-0.87,0.46c-0.27,0.18-0.53,0.39-0.76,0.62
			s-0.44,0.49-0.62,0.76c-0.18,0.28-0.33,0.57-0.46,0.87c-0.12,0.3-0.22,0.61-0.28,0.93c-0.07,0.33-0.1,0.65-0.1,0.98
			c0,1.32,0.53,2.6,1.46,3.54c0.94,0.93,2.23,1.46,3.54,1.46s2.6-0.53,3.54-1.46c0.93-0.94,1.46-2.23,1.46-3.54s-0.53-2.6-1.46-3.54
			C252.37,245.3,250.65,244.77,249.02,245.1z"/>
		<path class="st0" d="M308.33,190.29c-0.27-0.18-0.56-0.34-0.86-0.46c-0.3-0.13-0.62-0.22-0.94-0.29c-0.64-0.13-1.31-0.13-1.95,0
			c-0.32,0.07-0.64,0.16-0.94,0.29c-0.3,0.12-0.59,0.28-0.86,0.46c-0.27,0.18-0.53,0.39-0.76,0.62c-0.93,0.93-1.46,2.22-1.46,3.53
			c0,1.32,0.53,2.61,1.46,3.54c0.23,0.23,0.49,0.44,0.76,0.62c0.27,0.18,0.56,0.34,0.86,0.46c0.3,0.13,0.62,0.22,0.94,0.29
			c0.32,0.06,0.65,0.09,0.98,0.09c0.32,0,0.65-0.03,0.97-0.09c0.32-0.07,0.64-0.16,0.94-0.29c0.3-0.12,0.59-0.28,0.86-0.46
			c0.28-0.18,0.53-0.39,0.76-0.62c0.93-0.93,1.47-2.22,1.47-3.54c0-1.31-0.54-2.6-1.47-3.53
			C308.86,190.68,308.61,190.47,308.33,190.29z"/>
		<path class="st0" d="M365.73,136.98c-0.13-0.31-0.28-0.6-0.46-0.87c-0.18-0.27-0.39-0.53-0.62-0.76
			c-1.16-1.16-2.89-1.69-4.52-1.36c-0.31,0.06-0.63,0.16-0.93,0.28c-0.3,0.13-0.59,0.28-0.86,0.46c-0.28,0.18-0.53,0.39-0.76,0.62
			c-0.23,0.23-0.44,0.49-0.63,0.76c-0.18,0.27-0.33,0.56-0.46,0.87c-0.12,0.3-0.22,0.61-0.28,0.93c-0.07,0.32-0.1,0.65-0.1,0.98
			c0,0.32,0.03,0.65,0.1,0.98c0.06,0.31,0.16,0.63,0.28,0.93c0.13,0.3,0.28,0.59,0.46,0.86c0.19,0.28,0.4,0.53,0.63,0.77
			c0.23,0.23,0.48,0.43,0.76,0.62c0.27,0.18,0.56,0.33,0.86,0.46c0.3,0.12,0.62,0.22,0.93,0.28c0.33,0.07,0.66,0.1,0.98,0.1
			c1.32,0,2.61-0.53,3.54-1.46c0.23-0.24,0.44-0.49,0.62-0.77c0.18-0.27,0.33-0.56,0.46-0.86c0.12-0.3,0.22-0.62,0.28-0.93
			c0.07-0.33,0.1-0.66,0.1-0.98c0-0.33-0.03-0.66-0.1-0.98C365.95,137.59,365.85,137.28,365.73,136.98z"/>
		<path class="st0" d="M412.05,85.25c0.12,0.3,0.28,0.59,0.46,0.86s0.39,0.53,0.62,0.76s0.49,0.44,0.76,0.62
			c0.27,0.18,0.56,0.34,0.86,0.46c0.31,0.13,0.62,0.22,0.94,0.29c0.32,0.06,0.65,0.09,0.98,0.09c1.31,0,2.6-0.53,3.53-1.46
			c0.23-0.23,0.44-0.49,0.62-0.76s0.34-0.56,0.46-0.86c0.13-0.31,0.22-0.62,0.29-0.94c0.06-0.32,0.1-0.65,0.1-0.98
			c0-0.32-0.04-0.65-0.1-0.97c-0.07-0.32-0.16-0.64-0.29-0.94c-0.12-0.3-0.28-0.59-0.46-0.86c-0.18-0.28-0.39-0.53-0.62-0.76
			c-1.16-1.16-2.89-1.7-4.51-1.37c-0.32,0.07-0.63,0.16-0.94,0.29c-0.3,0.12-0.59,0.28-0.86,0.46c-0.27,0.18-0.53,0.39-0.76,0.62
			s-0.44,0.48-0.62,0.76c-0.18,0.27-0.34,0.56-0.46,0.86c-0.13,0.3-0.22,0.62-0.29,0.94c-0.06,0.32-0.09,0.65-0.09,0.97
			c0,0.33,0.03,0.66,0.09,0.98C411.83,84.63,411.92,84.94,412.05,85.25z"/>
		<path class="st0" d="M191.67,198.6c0.27,0.18,0.56,0.34,0.86,0.46c0.3,0.13,0.62,0.22,0.94,0.29c0.32,0.06,0.65,0.09,0.97,0.09
			c0.33,0,0.66-0.03,0.98-0.09c0.32-0.07,0.64-0.16,0.94-0.29c0.3-0.12,0.59-0.28,0.86-0.46c0.27-0.18,0.53-0.39,0.76-0.62
			s0.44-0.49,0.62-0.76c0.18-0.27,0.34-0.56,0.46-0.86c0.13-0.3,0.22-0.62,0.29-0.94c0.06-0.32,0.09-0.65,0.09-0.98
			c0-0.32-0.03-0.65-0.09-0.97c-0.07-0.32-0.16-0.64-0.29-0.94c-0.12-0.3-0.28-0.59-0.46-0.86c-0.18-0.28-0.39-0.53-0.62-0.76
			c-1.16-1.16-2.89-1.7-4.51-1.37c-0.32,0.07-0.64,0.16-0.94,0.29c-0.3,0.12-0.59,0.28-0.86,0.46c-0.28,0.18-0.53,0.39-0.76,0.62
			s-0.44,0.48-0.62,0.76c-0.18,0.27-0.34,0.56-0.46,0.86c-0.13,0.3-0.22,0.62-0.29,0.94c-0.06,0.32-0.1,0.65-0.1,0.97
			c0,1.32,0.54,2.61,1.47,3.54C191.14,198.21,191.39,198.42,191.67,198.6z"/>
		<path class="st0" d="M254.62,136.98c-0.13-0.3-0.28-0.6-0.46-0.87c-0.18-0.27-0.39-0.53-0.62-0.76c-0.94-0.93-2.23-1.46-3.54-1.46
			s-2.6,0.53-3.54,1.46c-0.23,0.23-0.44,0.49-0.62,0.76s-0.33,0.57-0.46,0.87c-0.12,0.3-0.22,0.61-0.28,0.93
			c-0.07,0.32-0.1,0.65-0.1,0.98c0,0.32,0.03,0.65,0.1,0.98c0.06,0.31,0.16,0.63,0.28,0.93c0.13,0.3,0.28,0.59,0.46,0.86
			c0.18,0.28,0.39,0.53,0.62,0.77c0.94,0.93,2.23,1.46,3.54,1.46s2.6-0.53,3.54-1.46c0.93-0.94,1.46-2.23,1.46-3.54
			c0-0.33-0.03-0.66-0.1-0.98C254.84,137.59,254.74,137.28,254.62,136.98z"/>
		<path class="st0" d="M310.17,81.42c-0.12-0.3-0.28-0.59-0.46-0.86c-0.18-0.28-0.39-0.53-0.62-0.76c-1.16-1.16-2.89-1.7-4.51-1.37
			c-0.32,0.07-0.64,0.16-0.94,0.29c-0.3,0.12-0.59,0.28-0.86,0.46c-0.27,0.18-0.53,0.39-0.76,0.62c-0.93,0.93-1.46,2.22-1.46,3.53
			c0,1.32,0.53,2.61,1.46,3.54c0.23,0.23,0.49,0.44,0.76,0.62c0.27,0.18,0.56,0.34,0.86,0.46c0.3,0.13,0.62,0.22,0.94,0.29
			c0.32,0.06,0.65,0.09,0.98,0.09c1.31,0,2.6-0.53,3.53-1.46c0.23-0.23,0.44-0.49,0.62-0.76c0.18-0.27,0.34-0.56,0.46-0.86
			c0.13-0.31,0.22-0.62,0.29-0.94c0.06-0.32,0.1-0.65,0.1-0.98c0-0.32-0.04-0.65-0.1-0.97C310.39,82.04,310.3,81.72,310.17,81.42z"
			/>
		<path class="st0" d="M415.69,411.76c-0.32,0.07-0.63,0.16-0.94,0.29c-0.3,0.12-0.59,0.28-0.86,0.46s-0.53,0.39-0.76,0.62
			s-0.44,0.49-0.62,0.76s-0.34,0.56-0.46,0.86c-0.13,0.31-0.22,0.62-0.29,0.94c-0.06,0.32-0.09,0.65-0.09,0.98
			c0,1.31,0.53,2.6,1.46,3.53c0.93,0.93,2.22,1.47,3.54,1.47c1.31,0,2.6-0.54,3.53-1.47c0.93-0.93,1.47-2.22,1.47-3.53
			c0-1.32-0.54-2.61-1.47-3.54C419.04,411.97,417.31,411.44,415.69,411.76z"/>
		<path class="st0" d="M421.28,303.64c-0.12-0.3-0.28-0.59-0.46-0.86s-0.39-0.53-0.62-0.76c-0.93-0.93-2.22-1.46-3.53-1.46
			c-1.32,0-2.61,0.53-3.54,1.46c-0.23,0.23-0.44,0.49-0.62,0.76s-0.34,0.56-0.46,0.86c-0.13,0.31-0.22,0.62-0.29,0.94
			c-0.06,0.32-0.09,0.65-0.09,0.98c0,0.32,0.03,0.65,0.09,0.97c0.07,0.32,0.16,0.64,0.29,0.94c0.12,0.3,0.28,0.59,0.46,0.86
			c0.18,0.28,0.39,0.53,0.62,0.76c0.93,0.93,2.22,1.47,3.54,1.47c1.31,0,2.6-0.54,3.53-1.47c0.23-0.23,0.44-0.48,0.62-0.76
			c0.18-0.27,0.34-0.56,0.46-0.86c0.13-0.3,0.22-0.62,0.29-0.94c0.06-0.32,0.1-0.65,0.1-0.97c0-0.33-0.04-0.66-0.1-0.98
			C421.5,304.26,421.41,303.95,421.28,303.64z"/>
		<path class="st0" d="M365.73,359.2c-0.13-0.3-0.28-0.59-0.46-0.86c-0.18-0.28-0.39-0.53-0.62-0.76c-1.16-1.16-2.89-1.7-4.52-1.37
			c-0.32,0.06-0.63,0.16-0.93,0.28c-0.3,0.13-0.59,0.28-0.86,0.46c-0.28,0.19-0.53,0.4-0.76,0.63c-0.23,0.23-0.44,0.48-0.63,0.76
			c-0.18,0.27-0.33,0.56-0.46,0.86c-0.12,0.3-0.22,0.61-0.28,0.93c-0.07,0.33-0.1,0.66-0.1,0.98c0,1.32,0.54,2.61,1.47,3.54
			c0.23,0.23,0.48,0.44,0.76,0.62c0.27,0.18,0.56,0.33,0.86,0.46c0.3,0.12,0.61,0.22,0.93,0.28c0.33,0.07,0.66,0.1,0.98,0.1
			c0.33,0,0.66-0.03,0.98-0.1c0.32-0.06,0.63-0.16,0.93-0.28c0.31-0.13,0.6-0.28,0.87-0.46c0.27-0.18,0.53-0.39,0.76-0.62
			s0.44-0.49,0.62-0.76c0.18-0.27,0.33-0.56,0.46-0.87c0.12-0.3,0.22-0.61,0.28-0.93c0.07-0.32,0.1-0.65,0.1-0.98
			c0-0.32-0.03-0.65-0.1-0.98C365.95,359.81,365.85,359.5,365.73,359.2z"/>
		<path class="st0" d="M308.33,412.51c-0.27-0.18-0.56-0.34-0.86-0.46c-0.3-0.13-0.62-0.22-0.94-0.29c-0.64-0.13-1.31-0.13-1.95,0
			c-0.32,0.07-0.63,0.16-0.94,0.29c-0.3,0.12-0.59,0.28-0.86,0.46s-0.53,0.39-0.76,0.62c-0.93,0.93-1.46,2.22-1.46,3.54
			c0,1.31,0.53,2.6,1.46,3.53c0.23,0.23,0.49,0.44,0.76,0.62s0.56,0.34,0.86,0.46c0.31,0.13,0.62,0.22,0.94,0.29
			c0.32,0.06,0.65,0.1,0.98,0.1c0.32,0,0.65-0.04,0.97-0.1c0.32-0.07,0.64-0.16,0.94-0.29c0.3-0.12,0.59-0.28,0.86-0.46
			c0.28-0.18,0.53-0.39,0.76-0.62c0.93-0.93,1.47-2.22,1.47-3.53c0-1.32-0.54-2.61-1.47-3.54
			C308.86,412.9,308.61,412.69,308.33,412.51z"/>
		<path class="st0" d="M421.28,192.53c-0.12-0.3-0.28-0.59-0.46-0.86c-0.18-0.28-0.39-0.53-0.62-0.76c-1.16-1.16-2.89-1.7-4.51-1.37
			c-0.32,0.07-0.63,0.16-0.94,0.29c-0.3,0.12-0.59,0.28-0.86,0.46c-0.27,0.18-0.53,0.39-0.76,0.62s-0.44,0.48-0.62,0.76
			c-0.18,0.27-0.34,0.56-0.46,0.86c-0.13,0.3-0.22,0.62-0.29,0.94c-0.06,0.32-0.09,0.65-0.09,0.97c0,0.33,0.03,0.66,0.09,0.98
			c0.07,0.32,0.16,0.64,0.29,0.94c0.12,0.3,0.28,0.59,0.46,0.86s0.39,0.53,0.62,0.76c0.93,0.93,2.22,1.47,3.54,1.47
			c1.31,0,2.6-0.54,3.53-1.47c0.23-0.23,0.44-0.49,0.62-0.76s0.34-0.56,0.46-0.86c0.13-0.3,0.22-0.62,0.29-0.94
			c0.06-0.32,0.1-0.65,0.1-0.98c0-0.32-0.04-0.65-0.1-0.97C421.5,193.15,421.41,192.83,421.28,192.53z"/>
		<path class="st0" d="M365.73,248.09c-0.13-0.3-0.28-0.59-0.46-0.86c-0.18-0.28-0.39-0.54-0.62-0.77
			c-1.16-1.16-2.89-1.69-4.52-1.36c-0.31,0.06-0.63,0.16-0.93,0.28c-0.3,0.13-0.59,0.28-0.86,0.46c-0.28,0.19-0.53,0.39-0.76,0.62
			c-0.23,0.23-0.44,0.49-0.63,0.77c-0.18,0.27-0.33,0.56-0.46,0.86c-0.12,0.3-0.22,0.61-0.28,0.93c-0.07,0.33-0.1,0.65-0.1,0.98
			c0,0.33,0.03,0.65,0.1,0.98c0.06,0.32,0.16,0.63,0.28,0.93c0.13,0.3,0.28,0.59,0.46,0.87c0.19,0.27,0.4,0.52,0.63,0.76
			c0.23,0.23,0.48,0.44,0.76,0.62c0.27,0.18,0.56,0.33,0.86,0.46c0.3,0.12,0.61,0.22,0.93,0.28c0.33,0.07,0.66,0.1,0.98,0.1
			c0.33,0,0.66-0.03,0.98-0.1c0.32-0.06,0.63-0.16,0.93-0.28c0.31-0.13,0.6-0.28,0.87-0.46c0.27-0.18,0.53-0.39,0.76-0.62
			c0.23-0.24,0.44-0.49,0.62-0.76c0.18-0.28,0.33-0.57,0.46-0.87c0.12-0.3,0.22-0.61,0.28-0.93c0.07-0.32,0.1-0.65,0.1-0.98
			c0-0.33-0.03-0.65-0.1-0.98C365.95,248.7,365.85,248.39,365.73,248.09z"/>
		<path class="st0" d="M310.17,303.64c-0.12-0.3-0.28-0.59-0.46-0.86c-0.18-0.27-0.39-0.53-0.62-0.76
			c-1.16-1.16-2.89-1.69-4.51-1.37c-0.32,0.07-0.64,0.16-0.94,0.29c-0.3,0.12-0.59,0.28-0.86,0.46c-0.27,0.18-0.53,0.39-0.76,0.62
			s-0.44,0.49-0.62,0.76c-0.18,0.27-0.34,0.56-0.46,0.86c-0.13,0.3-0.22,0.62-0.29,0.94c-0.06,0.32-0.09,0.65-0.09,0.98
			c0,1.31,0.53,2.6,1.46,3.53c0.23,0.23,0.49,0.44,0.76,0.62c0.27,0.18,0.56,0.34,0.86,0.46c0.3,0.13,0.62,0.22,0.94,0.29
			c0.32,0.06,0.65,0.1,0.98,0.1c0.32,0,0.65-0.04,0.97-0.1c0.32-0.07,0.64-0.16,0.94-0.29c0.3-0.12,0.59-0.28,0.86-0.46
			c0.28-0.18,0.53-0.39,0.76-0.62s0.44-0.48,0.62-0.76c0.18-0.27,0.34-0.56,0.46-0.86c0.13-0.3,0.22-0.62,0.29-0.94
			c0.06-0.32,0.1-0.65,0.1-0.97c0-0.33-0.04-0.66-0.1-0.98C310.39,304.26,310.3,303.94,310.17,303.64z"/>
		<path class="st0" d="M254.62,359.2c-0.13-0.3-0.28-0.59-0.46-0.86c-0.18-0.28-0.39-0.53-0.62-0.76c-0.24-0.23-0.49-0.44-0.76-0.63
			c-0.28-0.18-0.57-0.33-0.87-0.46c-0.3-0.12-0.61-0.22-0.93-0.28c-0.65-0.13-1.31-0.13-1.96,0c-0.32,0.06-0.63,0.16-0.93,0.28
			c-0.3,0.13-0.59,0.28-0.86,0.46c-0.28,0.19-0.54,0.4-0.77,0.63c-0.23,0.23-0.43,0.48-0.62,0.76c-0.18,0.27-0.33,0.56-0.46,0.86
			c-0.12,0.3-0.22,0.62-0.28,0.93c-0.07,0.33-0.1,0.66-0.1,0.98c0,1.32,0.53,2.61,1.46,3.54c0.23,0.23,0.49,0.44,0.77,0.62
			c0.27,0.18,0.56,0.33,0.86,0.46c0.3,0.12,0.61,0.22,0.93,0.28c0.33,0.07,0.65,0.1,0.98,0.1c0.33,0,0.66-0.03,0.98-0.1
			c0.32-0.06,0.63-0.16,0.93-0.28c0.3-0.13,0.59-0.28,0.87-0.46c0.27-0.18,0.52-0.39,0.76-0.62c0.23-0.23,0.44-0.49,0.62-0.76
			c0.18-0.27,0.33-0.56,0.46-0.87c0.12-0.3,0.22-0.61,0.28-0.93c0.07-0.32,0.1-0.65,0.1-0.98c0-0.32-0.03-0.65-0.1-0.98
			C254.84,359.81,254.74,359.5,254.62,359.2z"/>
		<path class="st0" d="M197.22,412.51c-0.27-0.18-0.56-0.34-0.86-0.46c-0.3-0.13-0.62-0.22-0.94-0.29c-0.64-0.13-1.31-0.13-1.95,0
			c-0.32,0.07-0.64,0.16-0.94,0.29c-0.3,0.12-0.59,0.28-0.86,0.46c-0.28,0.18-0.53,0.39-0.76,0.62s-0.44,0.49-0.62,0.76
			c-0.18,0.27-0.34,0.56-0.46,0.86c-0.13,0.31-0.22,0.62-0.29,0.94c-0.06,0.32-0.1,0.65-0.1,0.98c0,1.31,0.54,2.6,1.47,3.53
			c0.23,0.23,0.48,0.44,0.76,0.62c0.27,0.18,0.56,0.34,0.86,0.46c0.3,0.13,0.62,0.22,0.94,0.29c0.32,0.06,0.65,0.1,0.97,0.1
			c0.33,0,0.66-0.04,0.98-0.1c0.32-0.07,0.64-0.16,0.94-0.29c0.3-0.12,0.59-0.28,0.86-0.46s0.53-0.39,0.76-0.62
			c0.93-0.93,1.47-2.22,1.47-3.53c0-1.32-0.54-2.61-1.47-3.54C197.75,412.9,197.49,412.69,197.22,412.51z"/>
	</g>
</g>
</svg>
