<?xml version="1.0" encoding="utf-8"?>
<!-- Generator: Adobe Illustrator 23.0.0, SVG Export Plug-In . SVG Version: 6.00 Build 0)  -->
<svg version="1.1" xmlns="http://www.w3.org/2000/svg" xmlns:xlink="http://www.w3.org/1999/xlink" x="0px" y="0px"
	 viewBox="0 0 500 500" style="enable-background:new 0 0 500 500;" xml:space="preserve">
<style type="text/css">
	.st0{fill:#FFFFFF;}
</style>
<g id="BG">
	<rect width="500" height="500"/>
</g>
<g id="DESIGN">
	<g>
		<path class="st0" d="M415.69,245.1c-0.32,0.06-0.63,0.16-0.94,0.28c-0.3,0.13-0.59,0.28-0.86,0.46c-0.27,0.19-0.53,0.4-0.76,0.63
			c-0.93,0.93-1.46,2.21-1.46,3.53c0,0.33,0.03,0.65,0.1,0.98c0.06,0.32,0.16,0.63,0.28,0.93c0.13,0.3,0.28,0.59,0.46,0.87
			c0.18,0.27,0.39,0.52,0.62,0.76c0.23,0.23,0.49,0.43,0.76,0.62c0.27,0.18,0.56,0.33,0.86,0.46c0.31,0.12,0.62,0.22,0.94,0.28
			c0.32,0.07,0.65,0.1,0.98,0.1c1.31,0,2.6-0.53,3.53-1.46c0.23-0.24,0.44-0.49,0.62-0.76c0.18-0.28,0.34-0.57,0.46-0.87
			c0.13-0.3,0.22-0.61,0.29-0.93c0.06-0.33,0.1-0.65,0.1-0.98c0-1.32-0.54-2.6-1.47-3.53C419.04,245.3,417.31,244.77,415.69,245.1z"
			/>
		<path class="st0" d="M421.28,414.75c-0.12-0.3-0.28-0.59-0.46-0.86c-0.18-0.27-0.39-0.53-0.62-0.76
			c-0.23-0.23-0.48-0.44-0.76-0.62c-0.27-0.18-0.56-0.33-0.86-0.46c-0.3-0.12-0.62-0.22-0.93-0.28c-1.63-0.33-3.36,0.2-4.52,1.36
			c-0.23,0.23-0.44,0.49-0.62,0.76c-0.18,0.27-0.34,0.56-0.46,0.86c-0.13,0.31-0.22,0.62-0.29,0.94c-0.06,0.32-0.09,0.65-0.09,0.98
			c0,0.32,0.03,0.65,0.09,0.97c0.07,0.32,0.16,0.64,0.29,0.94c0.12,0.3,0.28,0.59,0.46,0.86c0.18,0.28,0.39,0.53,0.62,0.76
			c0.23,0.23,0.49,0.44,0.76,0.63c0.27,0.17,0.56,0.33,0.86,0.46c0.31,0.12,0.62,0.22,0.94,0.28c0.32,0.07,0.65,0.1,0.98,0.1
			c0.32,0,0.65-0.03,0.98-0.1c0.31-0.06,0.63-0.16,0.93-0.28c0.3-0.13,0.59-0.29,0.86-0.46c0.28-0.19,0.53-0.4,0.76-0.63
			c0.93-0.93,1.47-2.22,1.47-3.53c0-0.33-0.04-0.66-0.1-0.98C421.5,415.37,421.41,415.06,421.28,414.75z"/>
		<path class="st0" d="M336.11,245.84c-0.27-0.18-0.56-0.33-0.86-0.46c-0.31-0.12-0.62-0.22-0.94-0.28c-0.64-0.13-1.31-0.13-1.95,0
			c-0.32,0.06-0.64,0.16-0.94,0.28c-0.3,0.13-0.59,0.28-0.86,0.46c-0.28,0.19-0.53,0.4-0.76,0.63s-0.44,0.48-0.63,0.76
			c-0.18,0.27-0.33,0.56-0.45,0.86c-0.13,0.3-0.23,0.61-0.29,0.93c-0.06,0.32-0.1,0.65-0.1,0.98s0.04,0.65,0.1,0.98
			c0.06,0.32,0.16,0.63,0.29,0.93c0.12,0.3,0.28,0.59,0.46,0.87c0.18,0.27,0.39,0.53,0.62,0.76c0.23,0.23,0.48,0.43,0.76,0.62
			c0.27,0.18,0.56,0.33,0.86,0.46c0.3,0.12,0.62,0.22,0.94,0.28c0.32,0.07,0.65,0.1,0.97,0.1c0.33,0,0.66-0.03,0.98-0.1
			c0.32-0.06,0.63-0.16,0.94-0.28c0.3-0.13,0.59-0.28,0.86-0.46c0.27-0.19,0.53-0.39,0.76-0.62c0.23-0.24,0.44-0.49,0.62-0.76
			c0.18-0.28,0.34-0.57,0.46-0.87c0.13-0.3,0.22-0.61,0.29-0.93c0.06-0.33,0.09-0.65,0.09-0.98c0-1.32-0.53-2.6-1.46-3.53
			C336.64,246.24,336.38,246.03,336.11,245.84z"/>
		<path class="st0" d="M337.95,414.75c-0.13-0.3-0.28-0.59-0.46-0.86c-0.18-0.27-0.39-0.53-0.62-0.76
			c-0.23-0.23-0.49-0.44-0.76-0.62c-0.27-0.18-0.56-0.33-0.87-0.46c-0.3-0.12-0.61-0.22-0.93-0.28c-1.63-0.33-3.35,0.2-4.51,1.36
			c-0.23,0.23-0.44,0.49-0.62,0.76c-0.19,0.27-0.34,0.56-0.47,0.86c-0.12,0.31-0.22,0.62-0.28,0.94c-0.07,0.32-0.1,0.65-0.1,0.98
			c0,1.31,0.54,2.6,1.47,3.53c0.93,0.93,2.21,1.47,3.53,1.47c0.33,0,0.66-0.03,0.98-0.1c0.32-0.06,0.63-0.16,0.93-0.28
			c0.31-0.13,0.6-0.29,0.87-0.46c0.27-0.19,0.53-0.4,0.76-0.63c0.93-0.93,1.46-2.22,1.46-3.53c0-0.33-0.03-0.66-0.1-0.98
			C338.17,415.37,338.07,415.06,337.95,414.75z"/>
		<path class="st0" d="M252.77,245.84c-0.27-0.18-0.56-0.33-0.86-0.46c-0.3-0.12-0.61-0.22-0.93-0.28c-0.65-0.13-1.31-0.13-1.96,0
			c-0.32,0.06-0.63,0.16-0.93,0.28c-0.3,0.13-0.6,0.28-0.87,0.46c-0.27,0.19-0.53,0.4-0.76,0.63c-0.23,0.23-0.44,0.48-0.62,0.76
			c-0.18,0.27-0.33,0.56-0.46,0.86c-0.12,0.3-0.22,0.61-0.28,0.93c-0.07,0.32-0.1,0.65-0.1,0.98s0.03,0.65,0.1,0.98
			c0.06,0.32,0.16,0.63,0.28,0.93c0.13,0.3,0.28,0.59,0.46,0.87c0.18,0.27,0.39,0.53,0.63,0.76c0.93,0.93,2.21,1.46,3.53,1.46
			c0.32,0,0.65-0.03,0.98-0.1c0.32-0.06,0.63-0.16,0.93-0.28c0.3-0.13,0.59-0.28,0.86-0.46c0.28-0.19,0.53-0.39,0.76-0.62
			c0.24-0.24,0.44-0.49,0.63-0.76c0.18-0.28,0.33-0.57,0.46-0.87c0.12-0.3,0.22-0.61,0.28-0.93c0.07-0.33,0.1-0.65,0.1-0.98
			c0-1.32-0.53-2.6-1.47-3.53C253.3,246.24,253.05,246.03,252.77,245.84z"/>
		<path class="st0" d="M254.62,414.75c-0.13-0.3-0.28-0.59-0.46-0.86c-0.19-0.27-0.39-0.53-0.63-0.76
			c-1.16-1.16-2.88-1.69-4.51-1.36c-0.32,0.06-0.63,0.16-0.93,0.28c-0.31,0.13-0.6,0.28-0.87,0.46c-0.27,0.18-0.53,0.39-0.76,0.62
			c-0.23,0.23-0.44,0.49-0.62,0.76c-0.18,0.27-0.33,0.56-0.46,0.86c-0.12,0.31-0.22,0.62-0.28,0.94c-0.07,0.32-0.1,0.65-0.1,0.98
			c0,1.31,0.53,2.6,1.46,3.53c0.23,0.23,0.49,0.44,0.76,0.63c0.27,0.17,0.56,0.33,0.87,0.46c0.3,0.12,0.61,0.22,0.93,0.28
			c0.32,0.07,0.65,0.1,0.98,0.1c0.32,0,0.65-0.03,0.98-0.1c0.32-0.06,0.63-0.16,0.93-0.28c0.3-0.13,0.59-0.29,0.86-0.46
			c0.28-0.19,0.53-0.4,0.76-0.63c0.24-0.23,0.44-0.48,0.63-0.76c0.18-0.27,0.33-0.56,0.46-0.86c0.12-0.3,0.22-0.62,0.28-0.94
			c0.07-0.32,0.1-0.65,0.1-0.97c0-0.33-0.03-0.66-0.1-0.98C254.84,415.37,254.74,415.06,254.62,414.75z"/>
		<path class="st0" d="M169.44,245.84c-0.27-0.18-0.56-0.33-0.86-0.46c-0.3-0.12-0.62-0.22-0.94-0.28c-0.64-0.13-1.31-0.13-1.95,0
			c-0.32,0.06-0.63,0.16-0.94,0.28c-0.3,0.13-0.59,0.28-0.86,0.46c-0.27,0.19-0.53,0.4-0.76,0.63c-0.23,0.23-0.44,0.48-0.62,0.76
			c-0.18,0.27-0.34,0.56-0.46,0.86c-0.13,0.3-0.22,0.61-0.29,0.93c-0.06,0.32-0.09,0.65-0.09,0.98s0.03,0.65,0.09,0.98
			c0.07,0.32,0.16,0.63,0.29,0.93c0.12,0.3,0.28,0.59,0.46,0.87c0.18,0.27,0.39,0.53,0.62,0.76c0.93,0.93,2.22,1.46,3.54,1.46
			c0.32,0,0.65-0.03,0.97-0.1c0.32-0.06,0.64-0.16,0.94-0.28c0.3-0.13,0.59-0.28,0.86-0.46c0.28-0.19,0.53-0.39,0.76-0.62
			c0.23-0.24,0.44-0.49,0.62-0.76c0.18-0.28,0.34-0.57,0.46-0.87c0.13-0.3,0.22-0.61,0.29-0.93c0.06-0.33,0.1-0.65,0.1-0.98
			c0-1.32-0.54-2.6-1.47-3.53C169.97,246.24,169.72,246.03,169.44,245.84z"/>
		<path class="st0" d="M171.28,414.75c-0.12-0.3-0.28-0.59-0.46-0.86c-0.18-0.27-0.39-0.53-0.62-0.76
			c-0.23-0.23-0.48-0.44-0.76-0.62c-0.27-0.18-0.56-0.33-0.86-0.46c-0.3-0.12-0.62-0.22-0.93-0.28c-1.63-0.33-3.36,0.2-4.52,1.36
			c-0.23,0.23-0.44,0.49-0.62,0.76c-0.18,0.27-0.34,0.56-0.46,0.86c-0.13,0.31-0.22,0.62-0.29,0.94c-0.06,0.32-0.09,0.65-0.09,0.98
			c0,0.32,0.03,0.65,0.09,0.97c0.07,0.32,0.16,0.64,0.29,0.94c0.12,0.3,0.28,0.59,0.46,0.86c0.18,0.28,0.39,0.53,0.62,0.76
			c0.23,0.23,0.49,0.44,0.76,0.63c0.27,0.17,0.56,0.33,0.86,0.46c0.31,0.12,0.62,0.22,0.94,0.28c0.32,0.07,0.65,0.1,0.98,0.1
			c0.32,0,0.65-0.03,0.98-0.1c0.31-0.06,0.63-0.16,0.93-0.28c0.3-0.13,0.59-0.29,0.86-0.46c0.28-0.19,0.53-0.4,0.76-0.63
			c0.93-0.93,1.47-2.22,1.47-3.53c0-0.33-0.04-0.66-0.1-0.98C171.5,415.37,171.41,415.06,171.28,414.75z"/>
		<path class="st0" d="M87.95,248.09c-0.13-0.3-0.28-0.59-0.46-0.86c-0.18-0.28-0.39-0.53-0.62-0.76c-0.23-0.23-0.49-0.44-0.76-0.63
			c-0.27-0.18-0.56-0.33-0.87-0.46c-0.3-0.12-0.61-0.22-0.93-0.28c-0.65-0.13-1.31-0.13-1.95,0c-0.32,0.06-0.64,0.16-0.94,0.28
			c-0.3,0.13-0.59,0.28-0.86,0.46c-0.28,0.19-0.53,0.4-0.76,0.63s-0.44,0.48-0.62,0.76c-0.18,0.27-0.34,0.56-0.46,0.86
			c-0.13,0.3-0.22,0.61-0.29,0.93c-0.06,0.32-0.1,0.65-0.1,0.98s0.04,0.65,0.1,0.98c0.07,0.32,0.16,0.63,0.29,0.93
			c0.12,0.3,0.28,0.59,0.46,0.87c0.18,0.27,0.39,0.53,0.62,0.76c0.23,0.23,0.48,0.43,0.76,0.62c0.27,0.18,0.56,0.33,0.86,0.46
			c0.3,0.12,0.62,0.22,0.94,0.28c0.32,0.07,0.65,0.1,0.97,0.1c0.33,0,0.66-0.03,0.98-0.1c0.32-0.06,0.63-0.16,0.93-0.28
			c0.31-0.13,0.6-0.28,0.87-0.46c0.27-0.19,0.53-0.39,0.76-0.62c0.23-0.23,0.44-0.49,0.62-0.76c0.18-0.28,0.33-0.57,0.46-0.87
			c0.12-0.3,0.22-0.61,0.28-0.93c0.07-0.33,0.1-0.65,0.1-0.98s-0.03-0.66-0.1-0.98C88.17,248.7,88.07,248.39,87.95,248.09z"/>
		<path class="st0" d="M412.05,85.25c0.13,0.3,0.28,0.59,0.46,0.86c0.18,0.27,0.39,0.53,0.62,0.76c0.23,0.23,0.49,0.44,0.76,0.62
			c0.27,0.18,0.56,0.34,0.86,0.46c0.31,0.13,0.62,0.22,0.94,0.29c0.32,0.06,0.65,0.09,0.98,0.09c0.32,0,0.65-0.03,0.97-0.09
			c0.32-0.07,0.64-0.16,0.94-0.29c0.3-0.12,0.59-0.28,0.86-0.46c0.28-0.18,0.53-0.39,0.76-0.62c0.23-0.23,0.44-0.49,0.62-0.76
			c0.18-0.27,0.34-0.56,0.46-0.86c0.13-0.31,0.22-0.62,0.29-0.94c0.06-0.32,0.1-0.65,0.1-0.98c0-1.31-0.54-2.6-1.47-3.53
			c-1.16-1.16-2.88-1.7-4.51-1.37c-0.32,0.07-0.63,0.16-0.94,0.29c-0.3,0.12-0.59,0.28-0.86,0.46c-0.27,0.18-0.53,0.39-0.76,0.62
			c-0.23,0.23-0.44,0.48-0.62,0.76c-0.18,0.27-0.33,0.56-0.46,0.86c-0.12,0.3-0.22,0.62-0.28,0.94c-0.07,0.32-0.1,0.65-0.1,0.97
			c0,0.33,0.03,0.66,0.1,0.98C411.83,84.63,411.93,84.94,412.05,85.25z"/>
		<path class="st0" d="M337.95,81.42c-0.12-0.3-0.28-0.59-0.46-0.86c-0.18-0.28-0.39-0.53-0.62-0.76c-0.93-0.93-2.22-1.47-3.54-1.47
			c-1.31,0-2.6,0.54-3.53,1.47c-0.23,0.23-0.44,0.48-0.62,0.76c-0.18,0.27-0.34,0.56-0.46,0.86c-0.13,0.3-0.22,0.62-0.29,0.94
			c-0.06,0.32-0.1,0.65-0.1,0.97c0,0.33,0.04,0.66,0.1,0.98c0.07,0.32,0.16,0.63,0.29,0.94c0.12,0.3,0.28,0.59,0.46,0.86
			c0.18,0.27,0.39,0.53,0.62,0.76c0.93,0.93,2.22,1.46,3.53,1.46c0.33,0,0.66-0.03,0.98-0.09c0.32-0.07,0.63-0.16,0.94-0.29
			c0.3-0.12,0.59-0.28,0.86-0.46c0.27-0.18,0.53-0.39,0.76-0.62c0.23-0.23,0.44-0.49,0.62-0.76c0.18-0.27,0.33-0.56,0.46-0.86
			c0.12-0.31,0.22-0.62,0.28-0.94c0.07-0.32,0.1-0.65,0.1-0.98c0-0.32-0.03-0.65-0.1-0.97C338.17,82.04,338.08,81.72,337.95,81.42z"
			/>
		<path class="st0" d="M254.62,81.42c-0.13-0.3-0.28-0.59-0.46-0.86c-0.18-0.28-0.39-0.53-0.63-0.76c-0.93-0.93-2.22-1.47-3.53-1.47
			c-1.31,0-2.6,0.54-3.54,1.47c-0.23,0.23-0.44,0.48-0.62,0.76c-0.18,0.27-0.33,0.56-0.46,0.86c-0.12,0.3-0.22,0.62-0.28,0.94
			c-0.07,0.32-0.1,0.65-0.1,0.97c0,0.33,0.03,0.66,0.1,0.98c0.06,0.32,0.16,0.63,0.28,0.94c0.13,0.3,0.28,0.59,0.46,0.86
			c0.18,0.27,0.39,0.53,0.62,0.76c0.94,0.93,2.22,1.46,3.54,1.46c1.31,0,2.6-0.53,3.53-1.46c0.24-0.23,0.45-0.49,0.63-0.76
			c0.18-0.27,0.33-0.56,0.46-0.86c0.12-0.31,0.22-0.62,0.28-0.94c0.07-0.32,0.1-0.65,0.1-0.98c0-0.32-0.03-0.65-0.1-0.97
			C254.84,82.04,254.74,81.72,254.62,81.42z"/>
		<path class="st0" d="M169.44,79.18c-0.27-0.18-0.56-0.34-0.86-0.46c-0.3-0.13-0.62-0.22-0.94-0.29c-0.64-0.13-1.31-0.13-1.95,0
			c-0.32,0.07-0.63,0.16-0.94,0.29c-0.3,0.12-0.59,0.28-0.86,0.46c-0.27,0.18-0.53,0.39-0.76,0.62c-0.93,0.93-1.47,2.22-1.47,3.53
			c0,0.33,0.04,0.66,0.1,0.98c0.07,0.32,0.16,0.63,0.29,0.94c0.12,0.3,0.28,0.59,0.46,0.86c0.18,0.27,0.39,0.53,0.62,0.76
			c0.23,0.23,0.49,0.44,0.76,0.62c0.27,0.18,0.56,0.34,0.86,0.46c0.31,0.13,0.62,0.22,0.94,0.29c0.32,0.06,0.65,0.09,0.98,0.09
			c0.32,0,0.65-0.03,0.97-0.09c0.32-0.07,0.64-0.16,0.94-0.29c0.3-0.12,0.59-0.28,0.86-0.46c0.27-0.18,0.53-0.39,0.76-0.62
			c0.23-0.23,0.44-0.49,0.62-0.76c0.18-0.27,0.34-0.56,0.46-0.86c0.13-0.31,0.22-0.62,0.29-0.94c0.06-0.32,0.1-0.65,0.1-0.98
			c0-1.31-0.54-2.6-1.47-3.53C169.97,79.57,169.72,79.36,169.44,79.18z"/>
		<path class="st0" d="M82.36,78.43c-0.32,0.07-0.64,0.16-0.94,0.29c-0.3,0.12-0.59,0.28-0.86,0.46c-0.28,0.18-0.53,0.39-0.76,0.62
			c-0.93,0.93-1.47,2.22-1.47,3.53c0,0.33,0.03,0.66,0.1,0.98c0.06,0.32,0.16,0.63,0.29,0.94c0.12,0.3,0.28,0.59,0.46,0.86
			c0.18,0.27,0.39,0.53,0.62,0.76c0.23,0.23,0.48,0.44,0.76,0.62c0.27,0.18,0.56,0.34,0.86,0.46c0.3,0.13,0.62,0.22,0.94,0.29
			c0.32,0.06,0.65,0.09,0.97,0.09c1.32,0,2.61-0.53,3.54-1.46c0.23-0.23,0.44-0.49,0.62-0.76c0.18-0.27,0.33-0.56,0.46-0.86
			c0.12-0.31,0.22-0.62,0.28-0.94c0.07-0.32,0.1-0.65,0.1-0.98c0-1.31-0.53-2.6-1.46-3.53C85.71,78.64,83.98,78.1,82.36,78.43z"/>
		<path class="st0" d="M87.95,414.75c-0.13-0.3-0.28-0.59-0.46-0.86c-0.18-0.27-0.39-0.53-0.62-0.76c-0.23-0.23-0.49-0.44-0.76-0.62
			c-0.27-0.18-0.56-0.33-0.86-0.46c-0.31-0.12-0.62-0.22-0.94-0.28c-1.63-0.33-3.35,0.2-4.51,1.36c-0.23,0.23-0.44,0.49-0.62,0.76
			c-0.18,0.27-0.34,0.56-0.46,0.86c-0.13,0.31-0.23,0.62-0.29,0.94c-0.07,0.32-0.1,0.65-0.1,0.98c0,0.32,0.03,0.65,0.1,0.97
			c0.06,0.32,0.16,0.64,0.29,0.94c0.12,0.3,0.28,0.59,0.46,0.86c0.18,0.28,0.39,0.53,0.62,0.76c0.23,0.23,0.48,0.44,0.76,0.63
			c0.27,0.17,0.56,0.33,0.86,0.46c0.3,0.12,0.62,0.22,0.94,0.28c0.32,0.07,0.65,0.1,0.97,0.1c0.33,0,0.66-0.03,0.98-0.1
			c0.32-0.06,0.63-0.16,0.94-0.28c0.3-0.13,0.59-0.29,0.86-0.46c0.27-0.19,0.53-0.4,0.76-0.63c0.93-0.93,1.46-2.22,1.46-3.53
			c0-0.33-0.03-0.66-0.1-0.98C88.17,415.37,88.07,415.06,87.95,414.75z"/>
	</g>
</g>
</svg>
