<?xml version="1.0" encoding="utf-8"?>
<!-- Generator: Adobe Illustrator 23.0.0, SVG Export Plug-In . SVG Version: 6.00 Build 0)  -->
<svg version="1.1" xmlns="http://www.w3.org/2000/svg" xmlns:xlink="http://www.w3.org/1999/xlink" x="0px" y="0px"
	 viewBox="0 0 500 500" style="enable-background:new 0 0 500 500;" xml:space="preserve">
<style type="text/css">
	.st0{fill:#FFFFFF;}
</style>
<g id="BG">
	<rect x="0" width="500" height="500"/>
</g>
<g id="DESIGN">
	<g>
		<path class="st0" d="M208.16,406.16l-2.59,9.66c14.53,3.89,29.48,5.84,44.43,5.84s29.9-1.95,44.43-5.84l-2.59-9.66
			C264.47,413.49,235.53,413.49,208.16,406.16z"/>
		<path class="st0" d="M364.32,364.32l7.07,7.07c21.28-21.28,36.64-47.89,44.43-76.96l-9.66-2.59
			C398.82,319.22,384.35,344.28,364.32,364.32z"/>
		<path class="st0" d="M415.82,205.57c-7.79-29.07-23.15-55.68-44.43-76.96l-7.07,7.07c20.04,20.04,34.51,45.1,41.84,72.47
			L415.82,205.57z"/>
		<path class="st0" d="M291.84,93.84l2.59-9.66c-29.07-7.79-59.79-7.79-88.86,0l2.59,9.66C235.53,86.51,264.47,86.51,291.84,93.84z"
			/>
		<path class="st0" d="M84.18,205.57l9.66,2.59c7.33-27.37,21.8-52.43,41.84-72.47l-7.07-7.07
			C107.34,149.89,91.97,176.5,84.18,205.57z"/>
		<path class="st0" d="M84.18,294.43c7.79,29.07,23.15,55.68,44.43,76.96l7.07-7.07c-20.04-20.04-34.51-45.1-41.84-72.47
			L84.18,294.43z"/>
		<circle class="st0" cx="250" cy="250" r="88.33"/>
	</g>
</g>
</svg>
