<?xml version="1.0" encoding="utf-8"?>
<!-- Generator: Adobe Illustrator 23.0.0, SVG Export Plug-In . SVG Version: 6.00 Build 0)  -->
<svg version="1.1" xmlns="http://www.w3.org/2000/svg" xmlns:xlink="http://www.w3.org/1999/xlink" x="0px" y="0px"
	 viewBox="0 0 500 500" style="enable-background:new 0 0 500 500;" xml:space="preserve">
<style type="text/css">
	.st0{fill:#FFFFFF;}
</style>
<g id="BG">
	<rect width="500" height="500"/>
</g>
<g id="DESIGN">
	<g>
		<polygon class="st0" points="255,166.67 245,166.67 245,245 166.67,245 166.67,255 245,255 245,333.33 255,333.33 255,255 
			333.33,255 333.33,245 255,245 		"/>
		<path class="st0" d="M339.82,384.44l5.56,8.31c18.83-12.6,34.76-28.54,47.37-47.37l-8.31-5.56
			C372.57,357.56,357.55,372.57,339.82,384.44z"/>
		<path class="st0" d="M250,411.67c-10.62,0-21.23-1.04-31.55-3.08l-1.94,9.81c10.96,2.17,22.23,3.27,33.49,3.27
			c11.27,0,22.54-1.1,33.49-3.27l-1.94-9.81C271.23,410.63,260.62,411.67,250,411.67z"/>
		<path class="st0" d="M115.56,339.82l-8.31,5.56c12.6,18.83,28.54,34.76,47.37,47.37l5.56-8.31
			C142.44,372.57,127.43,357.55,115.56,339.82z"/>
		<path class="st0" d="M81.6,216.51c-2.17,10.96-3.27,22.23-3.27,33.49s1.1,22.54,3.27,33.49l9.81-1.94
			c-2.04-10.32-3.08-20.94-3.08-31.55s1.04-21.23,3.08-31.55L81.6,216.51z"/>
		<path class="st0" d="M107.25,154.62l8.31,5.56c11.87-17.74,26.89-32.75,44.62-44.62l-5.56-8.31
			C135.79,119.85,119.85,135.79,107.25,154.62z"/>
		<path class="st0" d="M250,88.33c10.62,0,21.23,1.04,31.55,3.08l1.94-9.81c-10.96-2.17-22.23-3.27-33.49-3.27
			c-11.27,0-22.54,1.1-33.49,3.27l1.94,9.81C228.77,89.37,239.38,88.33,250,88.33z"/>
		<path class="st0" d="M345.38,107.25l-5.56,8.31c17.74,11.87,32.75,26.89,44.62,44.62l8.31-5.56
			C380.15,135.79,364.21,119.85,345.38,107.25z"/>
		<path class="st0" d="M418.4,216.51l-9.81,1.94c2.04,10.32,3.08,20.94,3.08,31.55s-1.04,21.23-3.08,31.55l9.81,1.94
			c2.17-10.96,3.27-22.23,3.27-33.49S420.57,227.46,418.4,216.51z"/>
	</g>
</g>
</svg>
