<?xml version="1.0" encoding="utf-8"?>
<!-- Generator: Adobe Illustrator 23.0.0, SVG Export Plug-In . SVG Version: 6.00 Build 0)  -->
<svg version="1.1" xmlns="http://www.w3.org/2000/svg" xmlns:xlink="http://www.w3.org/1999/xlink" x="0px" y="0px"
	 viewBox="0 0 500 500" style="enable-background:new 0 0 500 500;" xml:space="preserve">
<style type="text/css">
	.st0{fill:#FFFFFF;}
</style>
<g id="BG">
	<rect width="500" height="500"/>
</g>
<g id="DESIGN">
	<g>
		<path class="st0" d="M158.35,303.06c-9.57-16.58-14.41-34.42-14.38-53.04l0.01-5l-10-0.01l-0.01,5
			c-0.03,18.76,4.46,36.79,13.32,53.66l-0.1,0.06l2.5,4.33l2.5,4.33l0.1-0.06c10.18,16.11,23.55,29.01,39.81,38.37l4.33,2.49
			l4.99-8.67l-4.33-2.49C180.96,332.74,167.92,319.63,158.35,303.06z"/>
		<path class="st0" d="M348.21,312.33l0.1,0.06l2.5-4.33l2.5-4.33l-0.1-0.06c8.86-16.87,13.35-34.9,13.32-53.66l-0.01-5l-10,0.01
			l0.01,5c0.03,18.62-4.81,36.46-14.38,53.04c-9.57,16.58-22.6,29.69-38.74,38.97l-4.33,2.49l4.99,8.67l4.33-2.49
			C324.66,341.34,338.02,328.44,348.21,312.33z"/>
		<path class="st0" d="M307.7,160.46l5.01-8.65l-4.33-2.51c-16.24-9.41-34.09-14.54-53.13-15.3v-0.11h-5h-5V134
			c-19.04,0.76-36.9,5.89-53.13,15.3l-4.33,2.51l5.01,8.65l4.33-2.51c16.11-9.33,33.98-14.06,53.12-14.06s37.01,4.73,53.12,14.06
			L307.7,160.46z"/>
		<path class="st0" d="M169.31,109.77c24.55-14.22,51.78-21.44,80.94-21.44c29.16,0,56.39,7.21,80.94,21.44l4.33,2.51l5.01-8.65
			l-4.33-2.51c-24.68-14.3-51.9-21.92-80.96-22.71v-0.08h-5h-5v0.08c-29.06,0.78-56.27,8.4-80.96,22.71l-4.33,2.51l5.01,8.65
			L169.31,109.77z"/>
		<path class="st0" d="M110.24,330.83c-14.58-25.25-21.95-52.44-21.91-80.81l0.01-5l-10-0.02l-0.01,5
			c-0.04,28.53,6.96,55.9,20.81,81.46l-0.07,0.04l2.5,4.33l2.5,4.33l0.07-0.04c15.21,24.77,35.42,44.53,60.14,58.76l4.33,2.49
			l4.99-8.67l-4.33-2.49C144.68,376.06,124.82,356.09,110.24,330.83z"/>
		<path class="st0" d="M422.16,250l-0.01-5l-10,0.02l0.01,5c0.04,28.37-7.33,55.56-21.91,80.81
			c-14.58,25.25-34.44,45.23-59.03,59.38l-4.33,2.49l4.99,8.67l4.33-2.49c24.73-14.23,44.93-33.98,60.14-58.76l0.07,0.04l2.5-4.33
			l2.5-4.33l-0.07-0.04C415.2,305.91,422.21,278.53,422.16,250z"/>
		<path class="st0" d="M250.25,189.44h-5v0.21c-8.99,0.73-17.66,3.39-25.33,7.84L215.6,200l5.01,8.65l4.33-2.51
			c7.67-4.44,16.19-6.7,25.31-6.7s17.64,2.25,25.31,6.7l4.33,2.51l5.01-8.65l-4.33-2.51c-7.67-4.44-16.34-7.11-25.33-7.84v-0.21
			H250.25z"/>
		<path class="st0" d="M206.47,275.28c-4.56-7.9-6.87-16.41-6.86-25.27l0.01-5l-10-0.02l-0.01,5c-0.01,8.86,2.01,17.71,5.88,25.85
			l-0.18,0.1l2.5,4.33l2.5,4.33l0.18-0.1c5.12,7.42,11.77,13.6,19.45,18.02l4.33,2.49l4.99-8.67l-4.33-2.49
			C217.24,289.43,211.03,283.18,206.47,275.28z"/>
		<path class="st0" d="M300.19,284.61l2.5-4.33l2.5-4.33l-0.18-0.1c3.87-8.15,5.89-16.99,5.88-25.85l-0.01-5l-10,0.02l0.01,5
			c0.01,8.86-2.29,17.37-6.86,25.27c-4.56,7.9-10.77,14.15-18.46,18.57l-4.33,2.49l4.99,8.67l4.33-2.49
			c7.68-4.42,14.33-10.6,19.45-18.02L300.19,284.61z"/>
		<path class="st0" d="M250.25,245c-1.31,0-2.6,0.53-3.54,1.47c-0.93,0.92-1.46,2.21-1.46,3.53c0,1.32,0.53,2.6,1.46,3.54
			c0.94,0.93,2.22,1.46,3.54,1.46c1.31,0,2.6-0.53,3.53-1.46c0.93-0.94,1.47-2.22,1.47-3.54c0-1.32-0.54-2.61-1.47-3.53
			C252.85,245.53,251.56,245,250.25,245z"/>
	</g>
</g>
</svg>
