<?xml version="1.0" encoding="utf-8"?>
<!-- Generator: Adobe Illustrator 23.0.0, SVG Export Plug-In . SVG Version: 6.00 Build 0)  -->
<svg version="1.1" xmlns="http://www.w3.org/2000/svg" xmlns:xlink="http://www.w3.org/1999/xlink" x="0px" y="0px"
	 viewBox="0 0 500 500" style="enable-background:new 0 0 500 500;" xml:space="preserve">
<style type="text/css">
	.st0{fill:#FFFFFF;}
</style>
<g id="BG">
	<rect x="0" width="500" height="500"/>
</g>
<g id="DESIGN">
	<path class="st0" d="M250,78.33c-94.66,0-171.67,77.01-171.67,171.67S155.34,421.67,250,421.67S421.67,344.66,421.67,250
		S344.66,78.33,250,78.33z M245,88.68v322.65c-18.43-2.46-35.83-18.46-49.45-45.71c-15.4-30.8-23.88-71.86-23.88-115.62
		s8.48-84.82,23.88-115.62C209.17,107.14,226.57,91.14,245,88.68z M255,411.32V88.68c18.43,2.46,35.83,18.46,49.45,45.71
		c15.4,30.8,23.88,71.86,23.88,115.62s-8.48,84.82-23.88,115.62C290.83,392.86,273.43,408.86,255,411.32z M88.33,250
		c0-77.05,54.18-141.67,126.45-157.79c-10.48,8.72-20.03,21.42-28.18,37.7c-16.08,32.16-24.94,74.81-24.94,120.09
		s8.86,87.93,24.94,120.09c8.14,16.29,17.7,28.98,28.18,37.7C142.52,391.67,88.33,327.05,88.33,250z M285.22,407.79
		c10.48-8.72,20.03-21.42,28.18-37.7c16.08-32.16,24.94-74.81,24.94-120.09s-8.86-87.93-24.94-120.09
		c-8.14-16.29-17.7-28.98-28.18-37.7c72.26,16.12,126.45,80.74,126.45,157.79S357.48,391.67,285.22,407.79z"/>
</g>
</svg>
