<?xml version="1.0" encoding="utf-8"?>
<!-- Generator: Adobe Illustrator 23.0.0, SVG Export Plug-In . SVG Version: 6.00 Build 0)  -->
<svg version="1.1" xmlns="http://www.w3.org/2000/svg" xmlns:xlink="http://www.w3.org/1999/xlink" x="0px" y="0px"
	 viewBox="0 0 500 500" style="enable-background:new 0 0 500 500;" xml:space="preserve">
<style type="text/css">
	.st0{fill:#FFFFFF;}
</style>
<g id="BG">
	<rect width="500" height="500"/>
</g>
<g id="DESIGN">
	<path class="st0" d="M250,78.33c-94.66,0-171.67,77.01-171.67,171.67S155.34,421.67,250,421.67S421.67,344.66,421.67,250
		S344.66,78.33,250,78.33z M250,411.67c-89.14,0-161.67-72.52-161.67-161.67c0-87.47,69.83-158.93,156.67-161.58V217.6
		c-15.71,2.41-27.78,16.02-27.78,32.4c0,18.07,14.7,32.78,32.78,32.78s32.78-14.7,32.78-32.78c0-16.37-12.07-29.98-27.78-32.4V88.42
		c86.84,2.65,156.67,74.11,156.67,161.58C411.67,339.14,339.14,411.67,250,411.67z"/>
</g>
</svg>
