<?xml version="1.0" encoding="utf-8"?>
<!-- Generator: Adobe Illustrator 23.0.0, SVG Export Plug-In . SVG Version: 6.00 Build 0)  -->
<svg version="1.1" xmlns="http://www.w3.org/2000/svg" xmlns:xlink="http://www.w3.org/1999/xlink" x="0px" y="0px"
	 viewBox="0 0 500 500" style="enable-background:new 0 0 500 500;" xml:space="preserve">
<style type="text/css">
	.st0{fill:#FFFFFF;}
</style>
<g id="BG">
	<rect width="500" height="500"/>
</g>
<g id="DESIGN">
	<path class="st0" d="M398.68,164.17c-14.81-25.63-36.13-47.12-61.63-62.16C310.77,86.52,280.67,78.33,250,78.33
		s-60.77,8.19-87.05,23.68c-25.51,15.04-46.82,36.53-61.63,62.16c-15.04,26.01-22.98,55.7-22.98,85.83s7.95,59.82,22.98,85.83
		c14.81,25.63,36.13,47.12,61.63,62.16c26.28,15.49,56.38,23.68,87.05,23.68s60.77-8.19,87.05-23.68
		c25.51-15.04,46.82-36.53,61.63-62.16c15.04-26.01,22.98-55.7,22.98-85.83S413.72,190.18,398.68,164.17z M355.77,349.84L255,408.01
		V252.89l33.59-19.39l100.77-58.17v155.12L355.77,349.84z M250,244.23l-134.35-77.56L250,89.11l134.35,77.56L250,244.23z
		 M110.64,330.45V175.33l100.77,58.17L245,252.89v155.12l-100.77-58.17L110.64,330.45z"/>
</g>
</svg>
