<?xml version="1.0" encoding="utf-8"?>
<!-- Generator: Adobe Illustrator 23.0.0, SVG Export Plug-In . SVG Version: 6.00 Build 0)  -->
<svg version="1.1" xmlns="http://www.w3.org/2000/svg" xmlns:xlink="http://www.w3.org/1999/xlink" x="0px" y="0px"
	 viewBox="0 0 500 500" style="enable-background:new 0 0 500 500;" xml:space="preserve">
<style type="text/css">
	.st0{fill:#FFFFFF;}
</style>
<g id="BG">
	<rect width="500" height="500"/>
</g>
<g id="DESIGN">
	<g>
		<path class="st0" d="M87.95,414.75c-0.13-0.3-0.28-0.59-0.46-0.86c-0.18-0.27-0.39-0.53-0.62-0.76c-0.23-0.23-0.49-0.44-0.76-0.62
			c-0.27-0.18-0.56-0.34-0.86-0.46c-0.31-0.13-0.62-0.22-0.94-0.29c-0.64-0.13-1.31-0.13-1.95,0c-0.32,0.07-0.64,0.16-0.94,0.29
			c-0.3,0.12-0.59,0.28-0.86,0.46c-0.28,0.18-0.53,0.39-0.76,0.62s-0.44,0.49-0.62,0.76c-0.19,0.27-0.34,0.56-0.46,0.86
			c-0.13,0.31-0.23,0.62-0.29,0.94c-0.07,0.32-0.1,0.65-0.1,0.98c0,0.32,0.03,0.65,0.1,0.97c0.06,0.32,0.16,0.64,0.29,0.94
			c0.12,0.3,0.27,0.59,0.46,0.86c0.18,0.28,0.39,0.53,0.62,0.76s0.48,0.44,0.76,0.62c0.27,0.18,0.56,0.34,0.86,0.46
			c0.3,0.13,0.62,0.22,0.94,0.29c0.32,0.06,0.65,0.1,0.97,0.1c0.33,0,0.66-0.04,0.98-0.1c0.32-0.07,0.63-0.16,0.94-0.29
			c0.3-0.12,0.59-0.28,0.86-0.46c0.27-0.18,0.53-0.39,0.76-0.62c0.23-0.23,0.44-0.48,0.62-0.76c0.18-0.27,0.33-0.56,0.46-0.86
			c0.12-0.3,0.22-0.62,0.28-0.94c0.07-0.32,0.1-0.65,0.1-0.97c0-0.33-0.03-0.66-0.1-0.98C88.17,415.37,88.07,415.06,87.95,414.75z"
			/>
		<path class="st0" d="M308.33,190.29c-0.27-0.18-0.56-0.34-0.86-0.46c-0.3-0.13-0.62-0.22-0.94-0.29c-0.64-0.13-1.31-0.13-1.95,0
			c-0.32,0.07-0.64,0.16-0.94,0.29c-0.3,0.12-0.59,0.28-0.86,0.46c-0.27,0.18-0.53,0.39-0.76,0.62c-0.93,0.93-1.46,2.22-1.46,3.53
			c0,1.32,0.53,2.61,1.46,3.54c0.23,0.23,0.49,0.44,0.76,0.62c0.27,0.18,0.56,0.34,0.86,0.46c0.3,0.13,0.62,0.22,0.94,0.29
			c0.32,0.06,0.65,0.09,0.98,0.09c0.32,0,0.65-0.03,0.97-0.09c0.32-0.07,0.64-0.16,0.94-0.29c0.3-0.12,0.59-0.28,0.86-0.46
			c0.27-0.18,0.53-0.39,0.76-0.62c0.93-0.93,1.47-2.22,1.47-3.54c0-1.31-0.54-2.6-1.47-3.53
			C308.86,190.68,308.6,190.47,308.33,190.29z"/>
		<path class="st0" d="M360.13,133.99c-0.32,0.06-0.63,0.16-0.93,0.28c-0.3,0.13-0.59,0.28-0.86,0.46
			c-0.28,0.18-0.53,0.39-0.76,0.62c-0.94,0.93-1.47,2.22-1.47,3.54c0,1.31,0.53,2.6,1.47,3.54c0.23,0.23,0.48,0.43,0.76,0.62
			c0.27,0.18,0.56,0.33,0.86,0.46c0.3,0.12,0.61,0.22,0.93,0.28c0.33,0.07,0.66,0.1,0.98,0.1c1.32,0,2.61-0.53,3.54-1.46
			c0.93-0.94,1.46-2.23,1.46-3.54c0-1.32-0.53-2.61-1.46-3.54C363.49,134.19,361.76,133.66,360.13,133.99z"/>
		<path class="st0" d="M412.05,85.25c0.13,0.3,0.28,0.59,0.46,0.86s0.39,0.53,0.62,0.76c0.23,0.23,0.49,0.44,0.76,0.62
			c0.27,0.18,0.56,0.34,0.86,0.46c0.31,0.13,0.62,0.22,0.94,0.29c0.32,0.06,0.65,0.09,0.98,0.09c0.32,0,0.65-0.03,0.97-0.09
			c0.32-0.07,0.64-0.16,0.94-0.29c0.3-0.12,0.59-0.28,0.86-0.46c0.28-0.18,0.53-0.39,0.76-0.62c0.93-0.93,1.47-2.22,1.47-3.54
			c0-0.32-0.04-0.65-0.1-0.97c-0.07-0.32-0.16-0.64-0.29-0.94c-0.12-0.3-0.28-0.59-0.46-0.86c-0.18-0.28-0.39-0.53-0.62-0.76
			c-0.23-0.23-0.48-0.44-0.76-0.62c-0.27-0.18-0.56-0.34-0.86-0.46c-0.3-0.13-0.62-0.22-0.94-0.29c-0.64-0.13-1.31-0.13-1.95,0
			c-0.32,0.07-0.63,0.16-0.94,0.29c-0.3,0.12-0.59,0.28-0.86,0.46c-0.27,0.18-0.53,0.39-0.76,0.62c-0.23,0.23-0.44,0.48-0.62,0.76
			c-0.18,0.27-0.33,0.56-0.46,0.86c-0.12,0.3-0.22,0.62-0.28,0.94c-0.07,0.32-0.1,0.65-0.1,0.97c0,0.33,0.03,0.66,0.1,0.98
			C411.83,84.63,411.93,84.94,412.05,85.25z"/>
		<path class="st0" d="M143.5,359.2c-0.12-0.3-0.27-0.59-0.45-0.86c-0.19-0.28-0.4-0.53-0.63-0.76c-0.23-0.24-0.48-0.44-0.76-0.63
			c-0.27-0.18-0.56-0.33-0.86-0.46c-0.3-0.12-0.61-0.22-0.93-0.28c-0.65-0.13-1.31-0.13-1.96,0c-0.32,0.06-0.63,0.16-0.93,0.28
			c-0.31,0.13-0.6,0.28-0.87,0.46c-0.27,0.19-0.53,0.39-0.76,0.63c-0.23,0.23-0.44,0.48-0.62,0.76c-0.18,0.27-0.33,0.56-0.46,0.86
			c-0.12,0.3-0.22,0.62-0.28,0.93c-0.07,0.33-0.1,0.66-0.1,0.98c0,1.32,0.53,2.61,1.46,3.54c0.23,0.23,0.49,0.44,0.76,0.62
			c0.27,0.18,0.56,0.33,0.87,0.46c0.3,0.12,0.61,0.22,0.93,0.28c0.32,0.07,0.65,0.1,0.98,0.1c0.32,0,0.65-0.03,0.98-0.1
			c0.32-0.06,0.63-0.16,0.93-0.28c0.3-0.13,0.59-0.28,0.86-0.46c0.28-0.18,0.53-0.39,0.76-0.62c0.23-0.23,0.44-0.49,0.63-0.76
			c0.18-0.27,0.33-0.56,0.45-0.87c0.13-0.3,0.23-0.61,0.29-0.93c0.06-0.32,0.1-0.65,0.1-0.98c0-0.32-0.04-0.65-0.1-0.98
			C143.73,359.82,143.63,359.5,143.5,359.2z"/>
		<path class="st0" d="M199.06,303.64c-0.12-0.3-0.28-0.59-0.46-0.86c-0.18-0.27-0.39-0.53-0.62-0.76
			c-0.93-0.93-2.22-1.46-3.54-1.46c-1.31,0-2.6,0.53-3.53,1.46c-0.93,0.93-1.47,2.22-1.47,3.54c0,0.32,0.04,0.65,0.1,0.97
			c0.07,0.32,0.16,0.64,0.29,0.94c0.12,0.3,0.28,0.59,0.46,0.86c0.18,0.27,0.39,0.53,0.62,0.76c0.93,0.93,2.22,1.47,3.53,1.47
			c1.32,0,2.61-0.54,3.54-1.47c0.23-0.23,0.44-0.49,0.62-0.76c0.18-0.27,0.34-0.56,0.46-0.86c0.13-0.3,0.22-0.62,0.29-0.94
			c0.06-0.32,0.09-0.65,0.09-0.97c0-0.33-0.03-0.66-0.09-0.98C199.28,304.26,199.19,303.94,199.06,303.64z"/>
		<path class="st0" d="M421.28,414.75c-0.12-0.3-0.28-0.59-0.46-0.86c-0.18-0.27-0.39-0.53-0.62-0.76
			c-0.23-0.23-0.48-0.44-0.76-0.62c-0.27-0.18-0.56-0.33-0.86-0.46c-0.3-0.12-0.62-0.22-0.94-0.29c-0.64-0.13-1.31-0.13-1.95,0
			c-0.32,0.07-0.63,0.17-0.94,0.29c-0.3,0.13-0.59,0.28-0.86,0.46c-0.27,0.18-0.53,0.39-0.76,0.62c-0.23,0.23-0.44,0.49-0.62,0.76
			s-0.33,0.56-0.46,0.86c-0.12,0.31-0.22,0.62-0.28,0.94c-0.07,0.32-0.1,0.65-0.1,0.98c0,0.32,0.03,0.65,0.1,0.97
			c0.06,0.32,0.16,0.64,0.28,0.94c0.13,0.3,0.28,0.59,0.46,0.86c0.18,0.28,0.39,0.53,0.62,0.76c0.23,0.23,0.49,0.44,0.76,0.62
			c0.27,0.18,0.56,0.34,0.86,0.46c0.31,0.13,0.62,0.23,0.94,0.29c0.32,0.06,0.65,0.1,0.98,0.1c0.32,0,0.65-0.04,0.97-0.1
			c0.32-0.06,0.64-0.16,0.94-0.29c0.3-0.12,0.59-0.28,0.86-0.46c0.28-0.18,0.53-0.39,0.76-0.62c0.93-0.93,1.47-2.21,1.47-3.53
			c0-0.33-0.04-0.66-0.1-0.98C421.5,415.37,421.41,415.06,421.28,414.75z"/>
		<path class="st0" d="M254.62,248.09c-0.13-0.3-0.28-0.59-0.46-0.87c-0.19-0.27-0.39-0.53-0.63-0.76
			c-0.23-0.23-0.48-0.44-0.76-0.62c-0.27-0.18-0.56-0.33-0.86-0.46c-0.3-0.12-0.61-0.22-0.93-0.28c-0.65-0.13-1.31-0.13-1.96,0
			c-0.32,0.06-0.63,0.16-0.93,0.28c-0.3,0.13-0.59,0.28-0.87,0.46c-0.27,0.18-0.53,0.39-0.76,0.62c-0.93,0.93-1.46,2.22-1.46,3.54
			c0,0.33,0.03,0.66,0.1,0.98c0.06,0.32,0.16,0.63,0.28,0.93c0.13,0.31,0.28,0.6,0.46,0.87s0.39,0.53,0.62,0.76
			c0.23,0.23,0.49,0.44,0.76,0.62c0.28,0.18,0.57,0.33,0.87,0.46c0.3,0.12,0.61,0.22,0.93,0.28c0.33,0.07,0.65,0.1,0.98,0.1
			s0.65-0.03,0.98-0.1c0.32-0.06,0.63-0.16,0.93-0.28c0.3-0.13,0.59-0.28,0.86-0.46c0.28-0.18,0.53-0.39,0.76-0.62
			c0.94-0.94,1.47-2.22,1.47-3.54c0-0.32-0.03-0.65-0.1-0.98C254.84,248.7,254.74,248.39,254.62,248.09z"/>
		<path class="st0" d="M199.06,192.53c-0.12-0.3-0.28-0.59-0.46-0.86c-0.18-0.28-0.39-0.53-0.62-0.76
			c-0.93-0.93-2.22-1.46-3.54-1.46c-1.31,0-2.6,0.53-3.53,1.46c-0.93,0.93-1.47,2.22-1.47,3.54c0,1.31,0.54,2.6,1.47,3.53
			c0.93,0.93,2.22,1.46,3.53,1.46c1.32,0,2.61-0.53,3.54-1.46c0.93-0.93,1.46-2.22,1.46-3.53c0-0.33-0.03-0.66-0.09-0.98
			C199.28,193.15,199.19,192.83,199.06,192.53z"/>
		<path class="st0" d="M143.5,136.98c-0.12-0.31-0.27-0.6-0.45-0.87c-0.19-0.27-0.4-0.53-0.63-0.76c-0.23-0.23-0.48-0.44-0.76-0.62
			c-0.27-0.18-0.56-0.33-0.86-0.46c-0.3-0.12-0.61-0.22-0.93-0.28c-0.65-0.13-1.31-0.13-1.96,0c-0.32,0.06-0.63,0.16-0.93,0.28
			c-0.31,0.13-0.6,0.28-0.87,0.46c-0.27,0.18-0.53,0.39-0.76,0.62c-0.23,0.23-0.44,0.49-0.62,0.76c-0.18,0.27-0.33,0.56-0.46,0.87
			c-0.12,0.3-0.22,0.61-0.28,0.93c-0.07,0.32-0.1,0.65-0.1,0.98c0,1.32,0.53,2.6,1.46,3.53c0.23,0.23,0.49,0.44,0.76,0.63
			c0.27,0.18,0.56,0.33,0.87,0.46c0.3,0.12,0.61,0.22,0.93,0.28c0.32,0.06,0.65,0.1,0.98,0.1c0.32,0,0.65-0.04,0.98-0.1
			c0.32-0.06,0.63-0.16,0.93-0.28c0.3-0.13,0.59-0.28,0.86-0.46c0.28-0.19,0.53-0.4,0.76-0.63c0.23-0.23,0.44-0.48,0.63-0.76
			c0.18-0.27,0.33-0.56,0.45-0.86c0.13-0.3,0.23-0.62,0.29-0.93c0.06-0.33,0.1-0.66,0.1-0.98c0-0.33-0.04-0.66-0.1-0.98
			C143.73,137.59,143.63,137.28,143.5,136.98z"/>
		<path class="st0" d="M87.95,81.42c-0.13-0.3-0.28-0.59-0.46-0.86c-0.18-0.28-0.39-0.53-0.62-0.76c-0.23-0.23-0.49-0.44-0.76-0.62
			c-0.27-0.18-0.56-0.34-0.86-0.46c-0.31-0.13-0.62-0.22-0.94-0.29c-0.64-0.13-1.31-0.13-1.95,0c-0.32,0.07-0.64,0.16-0.94,0.29
			c-0.3,0.12-0.59,0.28-0.86,0.46c-0.28,0.18-0.53,0.39-0.76,0.62c-0.23,0.23-0.44,0.48-0.62,0.76c-0.19,0.27-0.34,0.56-0.46,0.86
			c-0.13,0.3-0.23,0.62-0.29,0.94c-0.07,0.32-0.1,0.65-0.1,0.97c0,0.33,0.03,0.66,0.1,0.98c0.06,0.32,0.16,0.63,0.29,0.94
			c0.12,0.3,0.27,0.59,0.46,0.86c0.18,0.27,0.39,0.53,0.62,0.76s0.48,0.44,0.76,0.62c0.27,0.18,0.56,0.33,0.86,0.46
			c0.3,0.12,0.62,0.22,0.94,0.29c0.32,0.06,0.65,0.09,0.97,0.09c0.33,0,0.66-0.03,0.98-0.09c0.32-0.07,0.63-0.17,0.94-0.29
			c0.3-0.13,0.59-0.28,0.86-0.46c0.27-0.18,0.53-0.39,0.76-0.62c0.23-0.23,0.44-0.49,0.62-0.76c0.18-0.27,0.33-0.56,0.46-0.86
			c0.12-0.31,0.22-0.62,0.28-0.94c0.07-0.32,0.1-0.65,0.1-0.98c0-0.32-0.03-0.65-0.1-0.97C88.17,82.04,88.07,81.72,87.95,81.42z"/>
		<path class="st0" d="M360.13,356.21c-0.32,0.06-0.63,0.16-0.93,0.28c-0.3,0.13-0.59,0.28-0.86,0.46
			c-0.28,0.19-0.53,0.39-0.76,0.62c-0.94,0.94-1.47,2.23-1.47,3.54c0,1.32,0.53,2.61,1.47,3.54c0.23,0.23,0.48,0.44,0.76,0.62
			c0.27,0.18,0.56,0.33,0.86,0.46c0.3,0.12,0.61,0.22,0.93,0.28c0.33,0.07,0.66,0.1,0.98,0.1c1.32,0,2.61-0.53,3.54-1.46
			c0.93-0.93,1.46-2.22,1.46-3.54c0-1.31-0.53-2.6-1.46-3.54C363.49,356.41,361.76,355.88,360.13,356.21z"/>
		<path class="st0" d="M310.17,303.64c-0.12-0.3-0.28-0.59-0.46-0.86s-0.39-0.53-0.62-0.76c-0.23-0.23-0.49-0.44-0.76-0.62
			c-0.27-0.18-0.56-0.34-0.86-0.46c-0.3-0.13-0.62-0.22-0.94-0.29c-0.64-0.13-1.31-0.13-1.95,0c-0.32,0.07-0.64,0.16-0.94,0.29
			c-0.3,0.12-0.59,0.28-0.86,0.46c-0.27,0.18-0.53,0.39-0.76,0.62c-0.23,0.23-0.44,0.49-0.62,0.76c-0.18,0.27-0.34,0.56-0.46,0.86
			c-0.13,0.31-0.22,0.62-0.29,0.94c-0.06,0.32-0.09,0.65-0.09,0.98c0,0.32,0.03,0.65,0.09,0.97c0.07,0.32,0.16,0.64,0.29,0.94
			c0.12,0.3,0.28,0.59,0.46,0.86c0.18,0.27,0.39,0.53,0.62,0.76c0.23,0.23,0.49,0.44,0.76,0.62c0.27,0.18,0.56,0.34,0.86,0.46
			c0.3,0.13,0.62,0.22,0.94,0.29c0.32,0.06,0.65,0.09,0.98,0.09c0.32,0,0.65-0.03,0.97-0.09c0.32-0.07,0.64-0.16,0.94-0.29
			c0.3-0.12,0.59-0.28,0.86-0.46c0.27-0.18,0.53-0.39,0.76-0.62c0.23-0.23,0.44-0.49,0.62-0.76s0.34-0.56,0.46-0.86
			c0.13-0.3,0.22-0.62,0.29-0.94c0.06-0.32,0.1-0.65,0.1-0.97c0-0.33-0.04-0.66-0.1-0.98C310.39,304.26,310.3,303.95,310.17,303.64z
			"/>
	</g>
</g>
</svg>
