<?xml version="1.0" encoding="utf-8"?>
<!-- Generator: Adobe Illustrator 23.0.0, SVG Export Plug-In . SVG Version: 6.00 Build 0)  -->
<svg version="1.1" xmlns="http://www.w3.org/2000/svg" xmlns:xlink="http://www.w3.org/1999/xlink" x="0px" y="0px"
	 viewBox="0 0 500 500" style="enable-background:new 0 0 500 500;" xml:space="preserve">
<style type="text/css">
	.st0{fill:#FFFFFF;}
</style>
<g id="BG">
	<rect width="500" height="500"/>
</g>
<g id="DESIGN">
	<g>
		<g id="XMLID_915_">
			<g id="XMLID_918_">
				<polygon class="st0" points="110.66,208.33 100.66,208.33 100.66,163.78 139.25,141.5 144.25,150.16 110.66,169.55 				"/>
				<polygon class="st0" points="139.25,358.5 100.66,336.22 100.66,291.67 110.66,291.67 110.66,330.45 144.25,349.84 				"/>
				<polygon class="st0" points="250,422.44 211.42,400.16 216.42,391.5 250,410.89 283.58,391.5 288.58,400.16 				"/>
				<polygon class="st0" points="360.75,358.5 355.75,349.84 389.34,330.45 389.34,291.67 399.34,291.67 399.34,336.22 				"/>
				<polygon class="st0" points="399.34,208.33 389.34,208.33 389.34,169.55 355.75,150.16 360.75,141.5 399.34,163.78 				"/>
				<polygon class="st0" points="283.58,108.5 250,89.11 216.42,108.5 211.42,99.84 250,77.56 288.58,99.84 				"/>
			</g>
		</g>
	</g>
</g>
</svg>
