<?xml version="1.0" encoding="utf-8"?>
<!-- Generator: Adobe Illustrator 23.0.0, SVG Export Plug-In . SVG Version: 6.00 Build 0)  -->
<svg version="1.1" xmlns="http://www.w3.org/2000/svg" xmlns:xlink="http://www.w3.org/1999/xlink" x="0px" y="0px"
	 viewBox="0 0 500 500" style="enable-background:new 0 0 500 500;" xml:space="preserve">
<style type="text/css">
	.st0{fill:#FFFFFF;}
</style>
<g id="BG">
	<rect x="0" width="500" height="500"/>
</g>
<g id="DESIGN">
	<g>
		<g id="XMLID_803_">
			<g id="XMLID_806_">
				<g id="XMLID_813_">
					<path class="st0" d="M250,421.67c-94.66,0-171.67-77.01-171.67-171.67S155.34,78.33,250,78.33S421.67,155.34,421.67,250
						S344.66,421.67,250,421.67z M250,88.33c-89.14,0-161.67,72.52-161.67,161.67S160.86,411.67,250,411.67
						S411.67,339.14,411.67,250S339.14,88.33,250,88.33z"/>
					<path class="st0" d="M250,421.67c-24.25,0-46.77-18.32-63.4-51.58c-16.08-32.16-24.94-74.81-24.94-120.09
						s8.86-87.93,24.94-120.09c16.63-33.26,39.15-51.58,63.4-51.58s46.77,18.32,63.4,51.58c16.08,32.16,24.94,74.81,24.94,120.09
						s-8.86,87.93-24.94,120.09C296.77,403.35,274.25,421.67,250,421.67z M250,88.33c-20.27,0-39.6,16.35-54.45,46.05
						c-15.4,30.8-23.88,71.86-23.88,115.61s8.48,84.82,23.88,115.61c14.85,29.7,34.19,46.05,54.45,46.05s39.6-16.35,54.45-46.05
						c15.4-30.8,23.88-71.86,23.88-115.61s-8.48-84.82-23.88-115.61C289.6,104.69,270.27,88.33,250,88.33z"/>
					<path class="st0" d="M250,421.67c-2.76,0-5-2.24-5-5V83.33c0-2.76,2.24-5,5-5s5,2.24,5,5v333.33
						C255,419.43,252.76,421.67,250,421.67z"/>
				</g>
				<g id="XMLID_807_">
					<path class="st0" d="M250,421.67c-94.66,0-171.67-77.01-171.67-171.67S155.34,78.33,250,78.33S421.67,155.34,421.67,250
						S344.66,421.67,250,421.67z M250,88.33c-89.14,0-161.67,72.52-161.67,161.67S160.86,411.67,250,411.67
						S411.67,339.14,411.67,250S339.14,88.33,250,88.33z"/>
					<path class="st0" d="M416.67,255H83.33c-2.76,0-5-2.24-5-5s2.24-5,5-5h333.33c2.76,0,5,2.24,5,5S419.43,255,416.67,255z"/>
				</g>
			</g>
			<path class="st0" d="M394.37,171.67H105.63c-2.76,0-5-2.24-5-5s2.24-5,5-5h288.74c2.76,0,5,2.24,5,5S397.13,171.67,394.37,171.67
				z"/>
			<path class="st0" d="M394.37,338.33H105.63c-2.76,0-5-2.24-5-5s2.24-5,5-5h288.74c2.76,0,5,2.24,5,5S397.13,338.33,394.37,338.33
				z"/>
		</g>
	</g>
</g>
</svg>
