<?xml version="1.0" encoding="utf-8"?>
<!-- Generator: Adobe Illustrator 23.0.0, SVG Export Plug-In . SVG Version: 6.00 Build 0)  -->
<svg version="1.1" xmlns="http://www.w3.org/2000/svg" xmlns:xlink="http://www.w3.org/1999/xlink" x="0px" y="0px"
	 viewBox="0 0 500 500" style="enable-background:new 0 0 500 500;" xml:space="preserve">
<style type="text/css">
	.st0{fill:#FFFFFF;}
</style>
<g id="BG">
	<rect x="0" width="500" height="500"/>
</g>
<g id="DESIGN">
	<g>
		<path class="st0" d="M421.28,248.09c-0.12-0.3-0.28-0.59-0.46-0.87c-0.18-0.27-0.39-0.53-0.62-0.76
			c-1.16-1.16-2.88-1.69-4.51-1.36c-0.32,0.06-0.63,0.16-0.94,0.28c-0.3,0.13-0.59,0.28-0.86,0.46s-0.53,0.39-0.76,0.62
			c-0.23,0.23-0.44,0.49-0.62,0.76c-0.18,0.28-0.34,0.57-0.46,0.87c-0.13,0.3-0.22,0.62-0.29,0.93c-0.06,0.33-0.09,0.66-0.09,0.98
			c0,1.32,0.53,2.6,1.46,3.53c0.93,0.93,2.22,1.47,3.54,1.47c0.32,0,0.65-0.03,0.98-0.1c0.31-0.06,0.63-0.16,0.93-0.28
			c0.3-0.13,0.59-0.28,0.86-0.46c0.28-0.19,0.53-0.39,0.76-0.63c0.93-0.93,1.47-2.21,1.47-3.53c0-0.33-0.04-0.65-0.1-0.98
			C421.5,248.71,421.41,248.39,421.28,248.09z"/>
		<path class="st0" d="M421.28,331.42c-0.12-0.3-0.28-0.59-0.46-0.86c-0.18-0.28-0.39-0.53-0.62-0.76
			c-0.23-0.23-0.49-0.44-0.76-0.62s-0.56-0.34-0.86-0.46c-0.3-0.13-0.62-0.22-0.94-0.29c-0.64-0.13-1.31-0.13-1.95,0
			c-0.32,0.07-0.64,0.16-0.94,0.29c-0.3,0.12-0.59,0.28-0.86,0.46s-0.53,0.39-0.76,0.62c-0.23,0.23-0.44,0.48-0.62,0.76
			c-0.18,0.27-0.34,0.56-0.46,0.86c-0.13,0.3-0.22,0.62-0.29,0.94c-0.06,0.32-0.09,0.65-0.09,0.97c0,0.33,0.03,0.66,0.09,0.98
			c0.07,0.32,0.16,0.64,0.29,0.94c0.12,0.3,0.28,0.59,0.46,0.86c0.18,0.27,0.39,0.53,0.62,0.76c0.23,0.23,0.49,0.44,0.76,0.62
			c0.27,0.18,0.56,0.34,0.86,0.46c0.3,0.12,0.62,0.22,0.94,0.28c0.32,0.07,0.65,0.1,0.98,0.1c0.32,0,0.65-0.03,0.97-0.1
			c0.32-0.06,0.64-0.16,0.94-0.28c0.3-0.12,0.59-0.28,0.86-0.46c0.27-0.18,0.53-0.39,0.76-0.62c0.23-0.23,0.44-0.49,0.62-0.76
			c0.18-0.27,0.34-0.56,0.46-0.86c0.13-0.3,0.22-0.62,0.29-0.94c0.06-0.32,0.1-0.65,0.1-0.98c0-0.32-0.04-0.65-0.1-0.97
			C421.5,332.04,421.41,331.72,421.28,331.42z"/>
		<path class="st0" d="M421.28,414.75c-0.12-0.3-0.28-0.59-0.46-0.86s-0.39-0.53-0.62-0.76c-0.23-0.23-0.48-0.44-0.76-0.62
			c-0.27-0.18-0.56-0.33-0.86-0.46c-0.3-0.12-0.62-0.22-0.94-0.28c-0.64-0.13-1.31-0.13-1.95,0c-0.32,0.06-0.63,0.16-0.94,0.28
			c-0.3,0.13-0.59,0.28-0.86,0.46s-0.53,0.39-0.76,0.62c-0.23,0.23-0.44,0.49-0.62,0.76s-0.33,0.56-0.46,0.86
			c-0.12,0.31-0.22,0.62-0.28,0.94c-0.07,0.32-0.1,0.65-0.1,0.98c0,0.32,0.03,0.65,0.1,0.97c0.06,0.32,0.16,0.64,0.28,0.94
			c0.13,0.3,0.28,0.59,0.46,0.86c0.18,0.28,0.39,0.53,0.62,0.76c0.23,0.23,0.49,0.44,0.76,0.62c0.27,0.18,0.56,0.34,0.86,0.46
			c0.31,0.13,0.62,0.22,0.94,0.29c0.32,0.06,0.65,0.1,0.98,0.1c0.32,0,0.65-0.04,0.97-0.1c0.32-0.07,0.64-0.16,0.94-0.29
			c0.3-0.12,0.59-0.28,0.86-0.46c0.28-0.18,0.53-0.39,0.76-0.62c0.23-0.23,0.44-0.48,0.62-0.76c0.18-0.27,0.34-0.56,0.46-0.86
			c0.13-0.3,0.22-0.62,0.29-0.94c0.06-0.32,0.1-0.65,0.1-0.97c0-0.33-0.04-0.66-0.1-0.98C421.5,415.37,421.41,415.06,421.28,414.75z
			"/>
		<path class="st0" d="M338.24,249.02c-0.07-0.3-0.15-0.6-0.28-0.89c-0.03-0.06-0.05-0.12-0.08-0.18c-0.11-0.25-0.24-0.49-0.39-0.73
			c0,0,0,0-0.01-0.01c-0.07-0.1-0.15-0.18-0.22-0.27c-0.13-0.16-0.25-0.33-0.39-0.48c-0.17-0.17-0.36-0.31-0.56-0.46
			c-0.07-0.05-0.12-0.11-0.19-0.15c0,0-0.01-0.01-0.01-0.01c-0.15-0.1-0.31-0.17-0.46-0.25c-0.13-0.07-0.25-0.15-0.38-0.2
			c-0.01,0-0.01-0.01-0.02-0.01c-0.27-0.1-0.54-0.19-0.82-0.25c-0.05-0.01-0.1-0.03-0.16-0.04c-0.27-0.05-0.54-0.07-0.81-0.08
			c-0.05,0-0.09-0.01-0.13-0.01H255v-78.33c0,0,0,0,0,0c0-0.32-0.03-0.64-0.1-0.95c-0.01-0.05-0.02-0.1-0.04-0.16
			c-0.06-0.27-0.14-0.54-0.25-0.81c0-0.01-0.01-0.01-0.01-0.02c-0.06-0.14-0.14-0.26-0.21-0.4c-0.08-0.15-0.15-0.31-0.24-0.45
			c0,0-0.01-0.01-0.01-0.01c-0.03-0.05-0.08-0.09-0.12-0.14c-0.15-0.21-0.31-0.42-0.49-0.6c-0.17-0.17-0.36-0.31-0.56-0.46
			c-0.07-0.05-0.12-0.11-0.19-0.16c0,0-0.01-0.01-0.01-0.01c-0.23-0.15-0.49-0.29-0.74-0.4c-0.05-0.02-0.1-0.05-0.15-0.07
			c-0.29-0.12-0.6-0.21-0.91-0.28c-0.22-0.04-0.45-0.05-0.68-0.06c-0.1-0.01-0.2-0.03-0.3-0.03c-0.1,0-0.2,0.02-0.3,0.03
			c-0.23,0.01-0.45,0.02-0.68,0.06c-0.3,0.07-0.62,0.16-0.91,0.28c-0.05,0.02-0.1,0.05-0.15,0.07c-0.24,0.11-0.47,0.23-0.68,0.37
			c-0.31,0.2-0.59,0.43-0.85,0.69c-0.22,0.22-0.41,0.46-0.59,0.71c-0.11,0.16-0.18,0.34-0.27,0.51c-0.06,0.11-0.13,0.22-0.18,0.33
			c0,0.01-0.01,0.01-0.01,0.02c-0.1,0.27-0.19,0.54-0.25,0.82c-0.01,0.05-0.02,0.09-0.03,0.14c-0.07,0.31-0.1,0.63-0.1,0.96
			c0,0,0,0,0,0V245h-78.33c-0.38,0-0.75,0.05-1.1,0.13c-0.28,0.06-0.55,0.14-0.82,0.25c-0.01,0-0.01,0.01-0.02,0.01
			c-0.13,0.05-0.24,0.13-0.37,0.2c-0.16,0.08-0.33,0.16-0.48,0.26c-0.01,0-0.01,0.01-0.01,0.01c-0.05,0.03-0.09,0.08-0.14,0.12
			c-0.21,0.15-0.42,0.31-0.6,0.49c-0.16,0.16-0.3,0.35-0.44,0.54c-0.06,0.07-0.12,0.14-0.18,0.22c0,0,0,0.01-0.01,0.01
			c-0.15,0.24-0.28,0.48-0.4,0.73c-0.03,0.06-0.05,0.11-0.08,0.17c-0.09,0.23-0.17,0.48-0.22,0.72c-0.02,0.09-0.04,0.17-0.06,0.26
			c-0.05,0.28-0.08,0.55-0.08,0.83c0,0.02-0.01,0.04-0.01,0.07s0.01,0.04,0.01,0.06c0,0.28,0.03,0.56,0.08,0.83
			c0.02,0.09,0.04,0.17,0.06,0.26c0.06,0.25,0.13,0.49,0.22,0.72c0.11,0.27,0.25,0.53,0.4,0.77c0.03,0.04,0.04,0.09,0.07,0.13
			c0,0,0,0,0.01,0.01c0.2,0.29,0.42,0.56,0.67,0.8c0.21,0.21,0.44,0.39,0.68,0.56c0,0,0,0,0,0c0.01,0,0.01,0.01,0.02,0.01
			c0.15,0.1,0.32,0.17,0.48,0.26c0.12,0.06,0.24,0.14,0.37,0.2c0.01,0,0.01,0.01,0.02,0.01c0.26,0.1,0.53,0.18,0.8,0.25
			c0.06,0.01,0.12,0.03,0.18,0.04c0.31,0.06,0.62,0.09,0.94,0.09c0,0,0,0,0,0H245v78.33c0,0,0,0,0,0c0,0.32,0.03,0.64,0.1,0.95
			c0.01,0.05,0.02,0.09,0.03,0.14c0.06,0.28,0.15,0.56,0.25,0.82c0,0.01,0.01,0.01,0.01,0.02c0.05,0.13,0.13,0.24,0.19,0.36
			c0.08,0.16,0.16,0.33,0.26,0.48c0,0,0.01,0.01,0.01,0.01c0.04,0.06,0.09,0.11,0.14,0.17c0.15,0.2,0.3,0.4,0.47,0.58
			c0.16,0.16,0.34,0.29,0.52,0.42c0.08,0.06,0.15,0.14,0.24,0.19c0,0,0,0,0.01,0.01c0.24,0.15,0.48,0.28,0.73,0.39
			c0.06,0.03,0.12,0.06,0.18,0.08c0.23,0.09,0.47,0.17,0.71,0.22c0.08,0.02,0.17,0.04,0.25,0.05c0.28,0.05,0.56,0.08,0.84,0.08
			c0.02,0,0.04,0.01,0.06,0.01c0.02,0,0.04-0.01,0.06-0.01c0.28,0,0.56-0.03,0.84-0.08c0.09-0.02,0.17-0.04,0.26-0.06
			c0.24-0.06,0.48-0.13,0.71-0.22c0.07-0.03,0.13-0.06,0.19-0.08c0.23-0.1,0.45-0.22,0.65-0.36c0.21-0.13,0.4-0.29,0.58-0.46
			c0.08-0.07,0.17-0.13,0.25-0.2c0.16-0.17,0.3-0.36,0.44-0.54c0.05-0.07,0.12-0.13,0.17-0.21c0,0,0.01-0.01,0.01-0.01
			c0.09-0.13,0.15-0.28,0.22-0.42c0.08-0.14,0.17-0.28,0.23-0.43c0-0.01,0.01-0.01,0.01-0.02c0.1-0.26,0.19-0.54,0.25-0.81
			c0.01-0.05,0.03-0.1,0.04-0.16c0.06-0.31,0.09-0.63,0.1-0.94c0,0,0,0,0,0V255h78.33c0,0,0,0,0,0c0.31,0,0.63-0.03,0.93-0.09
			c0.06-0.01,0.12-0.03,0.18-0.04c0.27-0.06,0.54-0.14,0.8-0.25c0.01,0,0.01-0.01,0.02-0.01c0.13-0.06,0.25-0.14,0.38-0.2
			c0.16-0.08,0.32-0.15,0.46-0.25c0.01,0,0.01-0.01,0.02-0.01c0,0,0,0,0.01-0.01c0.24-0.17,0.46-0.35,0.67-0.55
			c0.94-0.91,1.53-2.18,1.53-3.59c0-0.15-0.03-0.28-0.04-0.43C338.28,249.39,338.27,249.21,338.24,249.02z"/>
		<path class="st0" d="M337.95,331.42c-0.13-0.3-0.28-0.59-0.46-0.86c-0.18-0.28-0.39-0.53-0.62-0.76
			c-0.23-0.23-0.49-0.44-0.76-0.62s-0.56-0.34-0.87-0.46c-0.3-0.13-0.61-0.22-0.93-0.29c-0.64-0.13-1.31-0.13-1.95,0
			c-0.32,0.07-0.64,0.16-0.94,0.29c-0.3,0.12-0.59,0.28-0.86,0.46c-0.28,0.18-0.53,0.39-0.76,0.62c-0.23,0.23-0.44,0.48-0.62,0.76
			c-0.18,0.27-0.34,0.56-0.46,0.86c-0.13,0.3-0.23,0.62-0.29,0.94c-0.06,0.32-0.1,0.65-0.1,0.97c0,0.33,0.04,0.66,0.1,0.98
			s0.16,0.64,0.29,0.94c0.12,0.3,0.28,0.59,0.46,0.86c0.18,0.27,0.39,0.53,0.62,0.76c0.23,0.23,0.48,0.44,0.76,0.62
			c0.27,0.18,0.56,0.34,0.86,0.46c0.3,0.12,0.62,0.22,0.94,0.28c0.32,0.07,0.65,0.1,0.97,0.1c0.33,0,0.66-0.03,0.98-0.1
			c0.32-0.06,0.63-0.16,0.93-0.28c0.31-0.12,0.6-0.28,0.87-0.46c0.27-0.18,0.53-0.39,0.76-0.62c0.23-0.23,0.44-0.49,0.62-0.76
			c0.18-0.27,0.33-0.56,0.46-0.86c0.12-0.3,0.22-0.62,0.28-0.94c0.07-0.32,0.1-0.65,0.1-0.98c0-0.32-0.03-0.65-0.1-0.97
			C338.17,332.04,338.07,331.72,337.95,331.42z"/>
		<path class="st0" d="M337.95,414.75c-0.12-0.3-0.28-0.59-0.46-0.86c-0.18-0.27-0.39-0.53-0.62-0.76
			c-0.23-0.23-0.49-0.44-0.76-0.62s-0.56-0.33-0.86-0.46c-0.31-0.12-0.62-0.22-0.94-0.28c-0.64-0.13-1.31-0.13-1.95,0
			c-0.32,0.06-0.64,0.16-0.94,0.28c-0.3,0.13-0.59,0.28-0.86,0.46c-0.28,0.18-0.53,0.39-0.76,0.62c-0.23,0.23-0.44,0.49-0.62,0.76
			c-0.18,0.27-0.34,0.56-0.46,0.86c-0.13,0.31-0.22,0.62-0.29,0.94c-0.06,0.32-0.09,0.65-0.09,0.98c0,0.32,0.03,0.65,0.09,0.97
			c0.07,0.32,0.16,0.64,0.29,0.94c0.12,0.3,0.28,0.59,0.46,0.86c0.18,0.28,0.39,0.53,0.62,0.76c0.23,0.23,0.48,0.44,0.76,0.62
			c0.27,0.18,0.56,0.34,0.86,0.46c0.3,0.13,0.62,0.22,0.94,0.29c0.32,0.06,0.65,0.1,0.97,0.1c0.33,0,0.66-0.04,0.98-0.1
			c0.32-0.07,0.63-0.16,0.94-0.29c0.3-0.12,0.59-0.28,0.86-0.46c0.27-0.18,0.53-0.39,0.76-0.62c0.23-0.23,0.44-0.48,0.62-0.76
			c0.18-0.27,0.34-0.56,0.46-0.86c0.12-0.3,0.22-0.62,0.28-0.94c0.07-0.32,0.1-0.65,0.1-0.97c0-0.33-0.03-0.66-0.1-0.98
			C338.17,415.37,338.07,415.06,337.95,414.75z"/>
		<path class="st0" d="M254.62,414.75c-0.13-0.3-0.28-0.59-0.46-0.86c-0.19-0.27-0.4-0.53-0.63-0.76c-1.16-1.16-2.88-1.69-4.51-1.36
			c-0.32,0.06-0.63,0.16-0.93,0.28c-0.3,0.13-0.59,0.28-0.87,0.46c-0.27,0.18-0.53,0.39-0.76,0.62c-0.23,0.23-0.44,0.49-0.62,0.76
			s-0.33,0.56-0.46,0.86c-0.12,0.31-0.22,0.62-0.28,0.94c-0.07,0.32-0.1,0.65-0.1,0.98c0,0.32,0.03,0.65,0.1,0.97
			c0.06,0.32,0.16,0.64,0.28,0.94c0.13,0.3,0.28,0.59,0.46,0.86c0.18,0.28,0.39,0.53,0.62,0.76c0.23,0.23,0.49,0.44,0.76,0.62
			c0.28,0.18,0.57,0.34,0.87,0.46c0.3,0.13,0.61,0.22,0.93,0.29c0.33,0.06,0.66,0.1,0.98,0.1c1.32,0,2.6-0.54,3.53-1.47
			c0.23-0.23,0.44-0.48,0.63-0.76c0.18-0.27,0.33-0.56,0.46-0.86c0.12-0.3,0.22-0.62,0.28-0.94c0.07-0.32,0.1-0.65,0.1-0.97
			c0-0.33-0.03-0.66-0.1-0.98C254.84,415.37,254.74,415.06,254.62,414.75z"/>
		<path class="st0" d="M171.28,331.42c-0.12-0.3-0.28-0.59-0.46-0.86c-0.18-0.28-0.39-0.53-0.62-0.76
			c-0.23-0.23-0.48-0.44-0.76-0.62c-0.27-0.18-0.56-0.34-0.86-0.46c-0.3-0.13-0.62-0.22-0.94-0.29c-0.64-0.13-1.31-0.13-1.95,0
			c-0.32,0.07-0.63,0.16-0.94,0.29c-0.3,0.12-0.59,0.28-0.86,0.46s-0.53,0.39-0.76,0.62c-0.23,0.23-0.44,0.48-0.62,0.76
			c-0.18,0.27-0.34,0.56-0.46,0.86c-0.13,0.3-0.22,0.62-0.29,0.94c-0.06,0.32-0.09,0.65-0.09,0.97c0,0.33,0.03,0.66,0.09,0.98
			c0.07,0.32,0.16,0.64,0.29,0.94c0.12,0.3,0.28,0.59,0.46,0.86c0.18,0.27,0.39,0.53,0.62,0.76c0.23,0.23,0.49,0.44,0.76,0.62
			c0.27,0.18,0.56,0.34,0.86,0.46c0.31,0.12,0.62,0.22,0.94,0.28c0.32,0.07,0.65,0.1,0.98,0.1c0.32,0,0.65-0.03,0.97-0.1
			c0.32-0.06,0.64-0.16,0.94-0.28c0.3-0.12,0.59-0.28,0.86-0.46c0.28-0.18,0.53-0.39,0.76-0.62c0.23-0.23,0.44-0.49,0.62-0.76
			c0.18-0.27,0.34-0.56,0.46-0.86c0.13-0.3,0.22-0.62,0.29-0.94c0.06-0.32,0.1-0.65,0.1-0.98c0-0.32-0.04-0.65-0.1-0.97
			C171.5,332.04,171.41,331.72,171.28,331.42z"/>
		<path class="st0" d="M171.28,414.75c-0.12-0.3-0.28-0.59-0.46-0.86s-0.39-0.53-0.62-0.76c-0.23-0.23-0.48-0.44-0.76-0.62
			c-0.27-0.18-0.56-0.33-0.86-0.46c-0.3-0.12-0.62-0.22-0.94-0.28c-0.64-0.13-1.3-0.13-1.95,0c-0.32,0.06-0.63,0.16-0.94,0.28
			c-0.3,0.13-0.59,0.28-0.86,0.46s-0.53,0.39-0.76,0.62c-0.23,0.23-0.44,0.49-0.62,0.76s-0.34,0.56-0.46,0.86
			c-0.13,0.31-0.22,0.62-0.29,0.94c-0.06,0.32-0.09,0.65-0.09,0.98c0,0.32,0.03,0.65,0.09,0.97c0.07,0.32,0.16,0.64,0.29,0.94
			c0.12,0.3,0.28,0.59,0.46,0.86c0.18,0.28,0.39,0.53,0.62,0.76c0.23,0.23,0.49,0.44,0.76,0.62c0.27,0.18,0.56,0.34,0.86,0.46
			c0.31,0.13,0.62,0.22,0.94,0.29c0.32,0.06,0.65,0.1,0.98,0.1c0.32,0,0.65-0.04,0.97-0.1c0.32-0.07,0.64-0.16,0.94-0.29
			c0.3-0.12,0.59-0.28,0.86-0.46c0.28-0.18,0.53-0.39,0.76-0.62c0.23-0.23,0.44-0.48,0.62-0.76c0.18-0.27,0.34-0.56,0.46-0.86
			c0.13-0.3,0.22-0.62,0.29-0.94c0.06-0.32,0.1-0.65,0.1-0.97c0-0.33-0.04-0.66-0.1-0.98C171.5,415.37,171.41,415.06,171.28,414.75z
			"/>
		<path class="st0" d="M87.95,248.09c-0.12-0.3-0.28-0.59-0.46-0.87c-0.18-0.27-0.39-0.53-0.62-0.76c-1.16-1.16-2.89-1.69-4.51-1.36
			c-0.32,0.06-0.64,0.16-0.94,0.28c-0.3,0.13-0.59,0.28-0.86,0.46c-0.28,0.18-0.53,0.39-0.76,0.62c-0.23,0.23-0.44,0.49-0.62,0.76
			c-0.18,0.28-0.34,0.57-0.46,0.87c-0.13,0.3-0.22,0.62-0.29,0.93c-0.06,0.33-0.1,0.66-0.1,0.98c0,1.32,0.54,2.6,1.47,3.53
			c0.23,0.24,0.48,0.44,0.76,0.63c0.27,0.18,0.56,0.33,0.86,0.46c0.3,0.12,0.62,0.22,0.94,0.28c0.32,0.07,0.65,0.1,0.97,0.1
			c0.33,0,0.66-0.03,0.98-0.1c0.32-0.06,0.64-0.16,0.94-0.28c0.3-0.13,0.59-0.28,0.86-0.46c0.27-0.19,0.53-0.39,0.76-0.63
			c0.23-0.23,0.44-0.48,0.62-0.75c0.18-0.28,0.34-0.57,0.46-0.87c0.13-0.3,0.22-0.61,0.29-0.93c0.06-0.32,0.09-0.65,0.09-0.98
			s-0.03-0.65-0.09-0.98C88.17,248.71,88.08,248.39,87.95,248.09z"/>
		<path class="st0" d="M421.28,164.75c-0.12-0.3-0.28-0.59-0.46-0.86c-0.18-0.27-0.39-0.53-0.62-0.76
			c-0.23-0.23-0.48-0.44-0.76-0.62c-0.27-0.18-0.56-0.34-0.86-0.46c-0.3-0.13-0.62-0.22-0.94-0.29c-0.64-0.12-1.31-0.12-1.95,0
			c-0.32,0.07-0.64,0.16-0.94,0.29c-0.3,0.12-0.59,0.28-0.86,0.46s-0.53,0.39-0.76,0.62c-0.93,0.93-1.46,2.22-1.46,3.54
			c0,1.31,0.53,2.6,1.46,3.53c0.23,0.23,0.49,0.44,0.76,0.62c0.27,0.18,0.56,0.34,0.86,0.46c0.31,0.13,0.62,0.22,0.94,0.29
			c0.32,0.06,0.65,0.1,0.98,0.1c0.32,0,0.65-0.04,0.97-0.1c0.32-0.07,0.64-0.16,0.94-0.29c0.3-0.12,0.59-0.28,0.86-0.46
			c0.28-0.18,0.53-0.39,0.76-0.62c0.93-0.93,1.47-2.22,1.47-3.53c0-0.33-0.04-0.66-0.1-0.98
			C421.5,165.37,421.41,165.06,421.28,164.75z"/>
		<path class="st0" d="M329.18,169.44c0.18,0.28,0.39,0.53,0.62,0.76c0.23,0.23,0.48,0.44,0.76,0.62c0.27,0.18,0.56,0.34,0.86,0.46
			c0.3,0.13,0.62,0.22,0.94,0.29c0.32,0.06,0.65,0.1,0.97,0.1c0.33,0,0.66-0.04,0.98-0.1c0.32-0.07,0.63-0.16,0.94-0.29
			c0.3-0.12,0.59-0.28,0.86-0.46c0.27-0.18,0.53-0.39,0.76-0.62c0.23-0.23,0.44-0.48,0.62-0.76c0.18-0.27,0.33-0.56,0.46-0.86
			c0.12-0.3,0.22-0.62,0.28-0.94c0.07-0.32,0.1-0.65,0.1-0.97c0-0.33-0.03-0.66-0.1-0.98c-0.06-0.32-0.16-0.63-0.28-0.94
			c-0.13-0.3-0.28-0.59-0.46-0.86c-0.18-0.27-0.39-0.53-0.62-0.76c-0.23-0.23-0.49-0.44-0.76-0.62s-0.56-0.34-0.86-0.46
			c-0.31-0.13-0.62-0.22-0.94-0.29c-0.65-0.13-1.31-0.13-1.95,0c-0.32,0.07-0.64,0.16-0.94,0.29c-0.3,0.12-0.59,0.28-0.86,0.46
			c-0.28,0.18-0.53,0.39-0.76,0.62c-0.23,0.23-0.44,0.49-0.62,0.76c-0.18,0.27-0.34,0.56-0.46,0.86c-0.13,0.31-0.22,0.62-0.29,0.94
			c-0.06,0.32-0.1,0.65-0.1,0.98c0,0.32,0.04,0.65,0.1,0.97c0.07,0.32,0.16,0.64,0.29,0.94C328.84,168.88,329,169.17,329.18,169.44z
			"/>
		<path class="st0" d="M163.89,170.82c0.27,0.18,0.56,0.34,0.86,0.46c0.3,0.13,0.62,0.22,0.94,0.29c0.32,0.06,0.65,0.1,0.98,0.1
			c0.32,0,0.65-0.04,0.97-0.1c0.32-0.07,0.64-0.16,0.94-0.29c0.3-0.12,0.59-0.28,0.86-0.46c0.27-0.18,0.53-0.39,0.76-0.62
			c0.93-0.93,1.47-2.22,1.47-3.53c0-0.33-0.04-0.66-0.1-0.98c-0.06-0.32-0.16-0.63-0.29-0.94c-0.12-0.3-0.28-0.59-0.46-0.86
			c-0.18-0.27-0.39-0.53-0.62-0.76c-0.23-0.23-0.49-0.44-0.76-0.62s-0.56-0.34-0.86-0.46c-0.3-0.13-0.62-0.22-0.94-0.29
			c-0.64-0.13-1.31-0.13-1.95,0c-0.32,0.07-0.64,0.16-0.94,0.29c-0.3,0.12-0.59,0.28-0.86,0.46s-0.53,0.39-0.76,0.62
			c-0.93,0.93-1.46,2.22-1.46,3.54c0,1.31,0.53,2.6,1.46,3.53C163.36,170.43,163.62,170.64,163.89,170.82z"/>
		<path class="st0" d="M87.95,164.75c-0.12-0.3-0.28-0.59-0.46-0.86c-0.18-0.27-0.39-0.53-0.62-0.76c-0.23-0.23-0.49-0.44-0.76-0.62
			s-0.56-0.34-0.86-0.46c-0.31-0.13-0.62-0.22-0.94-0.29c-0.64-0.13-1.31-0.13-1.95,0c-0.32,0.07-0.64,0.16-0.94,0.29
			c-0.3,0.12-0.59,0.28-0.86,0.46c-0.28,0.18-0.53,0.39-0.76,0.62c-0.23,0.23-0.44,0.49-0.62,0.76c-0.18,0.27-0.34,0.56-0.46,0.86
			c-0.13,0.31-0.22,0.62-0.29,0.94c-0.06,0.32-0.1,0.65-0.1,0.98c0,0.32,0.04,0.65,0.1,0.97c0.07,0.32,0.16,0.64,0.29,0.94
			c0.12,0.3,0.28,0.59,0.46,0.86c0.18,0.28,0.39,0.53,0.62,0.76c0.23,0.23,0.48,0.44,0.76,0.62c0.27,0.18,0.56,0.34,0.86,0.46
			c0.3,0.13,0.62,0.22,0.94,0.29c0.32,0.06,0.65,0.1,0.97,0.1c0.33,0,0.66-0.04,0.98-0.1c0.32-0.07,0.63-0.16,0.94-0.29
			c0.3-0.12,0.59-0.28,0.86-0.46c0.27-0.18,0.53-0.39,0.76-0.62c0.23-0.23,0.44-0.48,0.62-0.76c0.18-0.27,0.34-0.56,0.46-0.86
			c0.12-0.3,0.22-0.62,0.28-0.94c0.07-0.32,0.1-0.65,0.1-0.97c0-0.33-0.03-0.66-0.1-0.98C88.17,165.37,88.07,165.06,87.95,164.75z"
			/>
		<path class="st0" d="M412.05,85.24c0.12,0.31,0.28,0.6,0.46,0.87c0.18,0.27,0.39,0.53,0.62,0.76c0.23,0.23,0.49,0.44,0.76,0.62
			c0.27,0.18,0.56,0.33,0.86,0.46c0.31,0.12,0.62,0.22,0.94,0.28c0.32,0.07,0.65,0.1,0.98,0.1c0.32,0,0.65-0.03,0.97-0.1
			c0.32-0.06,0.64-0.16,0.94-0.28c0.3-0.13,0.59-0.28,0.86-0.46c0.27-0.18,0.53-0.39,0.76-0.62c0.23-0.23,0.44-0.49,0.62-0.76
			c0.18-0.27,0.34-0.56,0.46-0.87c0.13-0.3,0.22-0.61,0.29-0.93c0.06-0.32,0.1-0.65,0.1-0.98c0-1.31-0.54-2.6-1.47-3.53
			c-0.23-0.23-0.48-0.44-0.76-0.62c-0.27-0.18-0.56-0.34-0.86-0.46c-0.3-0.13-0.62-0.23-0.94-0.29c-0.64-0.13-1.31-0.13-1.95,0
			c-0.32,0.06-0.63,0.16-0.94,0.29c-0.3,0.12-0.59,0.28-0.86,0.46s-0.53,0.39-0.76,0.62c-0.23,0.23-0.44,0.48-0.62,0.76
			c-0.18,0.27-0.34,0.56-0.46,0.86c-0.13,0.3-0.22,0.62-0.29,0.94c-0.06,0.32-0.09,0.65-0.09,0.97c0,0.33,0.03,0.66,0.09,0.98
			C411.83,84.63,411.92,84.94,412.05,85.24z"/>
		<path class="st0" d="M336.11,79.18c-0.27-0.18-0.56-0.34-0.86-0.46c-0.31-0.13-0.62-0.23-0.94-0.29c-0.65-0.13-1.31-0.13-1.95,0
			c-0.32,0.06-0.64,0.16-0.94,0.29c-0.3,0.12-0.59,0.28-0.86,0.46c-0.28,0.18-0.53,0.39-0.76,0.62c-0.93,0.93-1.47,2.22-1.47,3.53
			c0,0.33,0.04,0.66,0.1,0.98c0.07,0.32,0.16,0.63,0.29,0.93c0.12,0.31,0.28,0.6,0.46,0.87c0.18,0.27,0.39,0.53,0.62,0.76
			c0.93,0.93,2.22,1.46,3.53,1.46c0.33,0,0.66-0.03,0.98-0.1c0.32-0.06,0.63-0.16,0.94-0.28c0.3-0.13,0.59-0.28,0.86-0.46
			c0.27-0.18,0.53-0.39,0.76-0.62c0.23-0.23,0.44-0.49,0.62-0.76c0.18-0.27,0.34-0.56,0.46-0.87c0.13-0.3,0.22-0.61,0.29-0.93
			c0.06-0.32,0.1-0.65,0.1-0.98c0-1.31-0.54-2.6-1.47-3.53C336.64,79.57,336.38,79.36,336.11,79.18z"/>
		<path class="st0" d="M245.38,85.24c0.13,0.31,0.28,0.6,0.46,0.87c0.18,0.27,0.39,0.53,0.62,0.76c0.23,0.23,0.49,0.44,0.76,0.62
			c0.27,0.18,0.57,0.33,0.87,0.46c0.3,0.12,0.61,0.22,0.93,0.28c0.33,0.07,0.66,0.1,0.98,0.1c0.33,0,0.66-0.03,0.98-0.1
			c0.32-0.06,0.63-0.16,0.93-0.28c0.3-0.13,0.59-0.28,0.87-0.46c0.27-0.18,0.53-0.39,0.76-0.62c0.23-0.23,0.43-0.49,0.62-0.76
			c0.18-0.27,0.33-0.56,0.46-0.87c0.12-0.3,0.22-0.61,0.28-0.93c0.07-0.32,0.1-0.65,0.1-0.98c0-1.31-0.53-2.6-1.46-3.53
			c-0.23-0.23-0.49-0.44-0.76-0.62s-0.57-0.34-0.87-0.46c-0.3-0.13-0.61-0.23-0.93-0.29c-0.65-0.13-1.31-0.13-1.96,0
			c-0.32,0.06-0.63,0.16-0.93,0.29c-0.3,0.12-0.6,0.28-0.87,0.46s-0.53,0.39-0.76,0.62c-0.23,0.23-0.44,0.48-0.62,0.76
			c-0.18,0.27-0.33,0.56-0.46,0.86c-0.12,0.3-0.22,0.62-0.28,0.94c-0.07,0.32-0.1,0.65-0.1,0.97c0,0.33,0.03,0.66,0.1,0.98
			C245.16,84.63,245.26,84.94,245.38,85.24z"/>
		<path class="st0" d="M162.05,85.24c0.12,0.31,0.28,0.6,0.46,0.87c0.18,0.27,0.39,0.53,0.62,0.76c0.23,0.23,0.49,0.44,0.76,0.62
			c0.27,0.18,0.56,0.33,0.86,0.46c0.31,0.12,0.62,0.22,0.94,0.28c0.32,0.07,0.65,0.1,0.98,0.1c0.32,0,0.65-0.03,0.97-0.1
			c0.32-0.06,0.64-0.16,0.94-0.28c0.3-0.13,0.59-0.28,0.86-0.46c0.27-0.18,0.53-0.39,0.76-0.62c0.23-0.23,0.44-0.49,0.62-0.76
			c0.18-0.27,0.34-0.56,0.46-0.87c0.13-0.3,0.22-0.61,0.29-0.93c0.06-0.32,0.1-0.65,0.1-0.98c0-0.32-0.04-0.65-0.1-0.97
			c-0.07-0.32-0.16-0.64-0.29-0.94c-0.12-0.3-0.28-0.59-0.46-0.86c-0.18-0.28-0.39-0.53-0.62-0.76c-0.23-0.23-0.49-0.44-0.76-0.62
			s-0.56-0.34-0.86-0.46c-0.3-0.13-0.62-0.23-0.94-0.29c-0.64-0.13-1.31-0.13-1.95,0c-0.32,0.06-0.63,0.16-0.94,0.29
			c-0.3,0.12-0.59,0.28-0.86,0.46s-0.53,0.39-0.76,0.62c-0.23,0.23-0.44,0.48-0.62,0.76c-0.18,0.27-0.34,0.56-0.46,0.86
			s-0.22,0.62-0.28,0.94c-0.07,0.32-0.1,0.65-0.1,0.97c0,0.33,0.03,0.66,0.1,0.98C161.83,84.63,161.93,84.94,162.05,85.24z"/>
		<path class="st0" d="M87.95,81.42c-0.13-0.3-0.28-0.59-0.46-0.86c-0.18-0.28-0.39-0.53-0.62-0.76c-0.23-0.23-0.49-0.44-0.76-0.62
			s-0.56-0.34-0.87-0.46c-0.3-0.13-0.61-0.23-0.93-0.29c-0.65-0.13-1.31-0.13-1.95,0c-0.32,0.06-0.64,0.16-0.94,0.29
			c-0.3,0.12-0.59,0.28-0.86,0.46c-0.28,0.18-0.53,0.39-0.76,0.62c-0.23,0.23-0.44,0.48-0.62,0.76c-0.18,0.27-0.34,0.56-0.46,0.86
			c-0.13,0.3-0.22,0.62-0.29,0.94c-0.06,0.32-0.1,0.65-0.1,0.97c0,0.33,0.04,0.66,0.1,0.98c0.07,0.32,0.16,0.63,0.29,0.93
			c0.12,0.31,0.28,0.6,0.46,0.87c0.18,0.27,0.39,0.53,0.62,0.76c0.23,0.23,0.48,0.44,0.76,0.62c0.27,0.18,0.56,0.33,0.86,0.46
			c0.3,0.12,0.62,0.22,0.94,0.28c0.32,0.07,0.65,0.1,0.97,0.1c0.33,0,0.66-0.03,0.98-0.1c0.32-0.06,0.63-0.16,0.93-0.28
			c0.31-0.13,0.6-0.28,0.87-0.46c0.27-0.18,0.53-0.39,0.76-0.62c0.23-0.23,0.44-0.49,0.62-0.76c0.18-0.27,0.33-0.56,0.46-0.87
			c0.12-0.3,0.22-0.61,0.28-0.93c0.07-0.32,0.1-0.65,0.1-0.98c0-0.32-0.03-0.65-0.1-0.97C88.17,82.04,88.07,81.72,87.95,81.42z"/>
		<path class="st0" d="M87.95,331.42c-0.12-0.3-0.28-0.59-0.46-0.86c-0.18-0.28-0.39-0.53-0.62-0.76c-0.23-0.23-0.49-0.44-0.76-0.62
			s-0.56-0.34-0.86-0.46c-0.31-0.13-0.62-0.22-0.94-0.29c-0.64-0.13-1.31-0.13-1.95,0c-0.32,0.07-0.64,0.16-0.94,0.29
			c-0.3,0.12-0.59,0.28-0.86,0.46c-0.28,0.18-0.53,0.39-0.76,0.62c-0.23,0.23-0.44,0.48-0.62,0.76c-0.18,0.27-0.34,0.56-0.46,0.86
			c-0.13,0.3-0.22,0.62-0.29,0.94c-0.06,0.32-0.1,0.65-0.1,0.97c0,0.33,0.04,0.66,0.1,0.98c0.07,0.32,0.16,0.64,0.29,0.94
			c0.12,0.3,0.28,0.59,0.46,0.86c0.18,0.27,0.39,0.53,0.62,0.76c0.23,0.23,0.48,0.44,0.76,0.62c0.27,0.18,0.56,0.34,0.86,0.46
			c0.3,0.12,0.62,0.22,0.94,0.28c0.32,0.07,0.65,0.1,0.97,0.1c0.33,0,0.66-0.03,0.98-0.1c0.32-0.06,0.63-0.16,0.94-0.28
			c0.3-0.12,0.59-0.28,0.86-0.46c0.27-0.18,0.53-0.39,0.76-0.62c0.23-0.23,0.44-0.49,0.62-0.76c0.18-0.27,0.34-0.56,0.46-0.86
			c0.13-0.3,0.22-0.62,0.29-0.94c0.06-0.32,0.09-0.65,0.09-0.98c0-0.32-0.03-0.65-0.09-0.97C88.17,332.04,88.08,331.72,87.95,331.42
			z"/>
		<path class="st0" d="M87.95,414.75c-0.12-0.3-0.28-0.59-0.46-0.86c-0.18-0.27-0.39-0.53-0.62-0.76c-0.23-0.23-0.49-0.44-0.76-0.62
			s-0.56-0.33-0.86-0.46c-0.31-0.12-0.62-0.22-0.94-0.28c-0.65-0.13-1.31-0.13-1.96,0c-0.31,0.06-0.63,0.16-0.93,0.28
			c-0.3,0.13-0.59,0.28-0.86,0.46c-0.28,0.18-0.53,0.39-0.76,0.62c-0.23,0.23-0.44,0.49-0.62,0.76c-0.18,0.27-0.34,0.56-0.46,0.86
			c-0.13,0.31-0.22,0.62-0.29,0.94c-0.06,0.32-0.1,0.65-0.1,0.98c0,0.32,0.04,0.65,0.1,0.97c0.07,0.32,0.16,0.64,0.29,0.94
			c0.12,0.3,0.28,0.59,0.46,0.86c0.18,0.28,0.39,0.53,0.62,0.76c0.23,0.23,0.48,0.44,0.76,0.62c0.27,0.18,0.56,0.34,0.86,0.46
			c0.3,0.13,0.62,0.22,0.93,0.29c0.33,0.06,0.66,0.1,0.98,0.1c0.33,0,0.66-0.04,0.98-0.1c0.32-0.07,0.63-0.16,0.94-0.29
			c0.3-0.12,0.59-0.28,0.86-0.46c0.27-0.18,0.53-0.39,0.76-0.62c0.23-0.23,0.44-0.48,0.62-0.76c0.18-0.27,0.34-0.56,0.46-0.86
			c0.13-0.3,0.22-0.62,0.29-0.94c0.06-0.32,0.09-0.65,0.09-0.97c0-0.33-0.03-0.66-0.09-0.98C88.17,415.37,88.08,415.06,87.95,414.75
			z"/>
	</g>
</g>
</svg>
