<?xml version="1.0" encoding="utf-8"?>
<!-- Generator: Adobe Illustrator 23.0.0, SVG Export Plug-In . SVG Version: 6.00 Build 0)  -->
<svg version="1.1" xmlns="http://www.w3.org/2000/svg" xmlns:xlink="http://www.w3.org/1999/xlink" x="0px" y="0px"
	 viewBox="0 0 500 500" style="enable-background:new 0 0 500 500;" xml:space="preserve">
<style type="text/css">
	.st0{fill:#FFFFFF;}
</style>
<g id="BG">
	<rect x="0" width="500" height="500"/>
</g>
<g id="DESIGN">
	<path class="st0" d="M78.33,78.33V245v10v166.67h343.33V255v-10V78.33H78.33z M255,262.07l149.6,149.6H255V262.07z M245,411.67
		H95.4L245,262.07V411.67z M255,88.33h149.6L255,237.93V88.33z M245,237.93L95.4,88.33H245V237.93z M88.33,95.4L237.93,245H88.33
		V95.4z M237.93,255L88.33,404.6V255H237.93z M411.67,404.6L262.07,255h149.6V404.6z M262.07,245l149.6-149.6V245H262.07z"/>
</g>
</svg>
