<?xml version="1.0" encoding="utf-8"?>
<!-- Generator: Adobe Illustrator 23.0.0, SVG Export Plug-In . SVG Version: 6.00 Build 0)  -->
<svg version="1.1" xmlns="http://www.w3.org/2000/svg" xmlns:xlink="http://www.w3.org/1999/xlink" x="0px" y="0px"
	 viewBox="0 0 500 500" style="enable-background:new 0 0 500 500;" xml:space="preserve">
<style type="text/css">
	.st0{fill:#FFFFFF;}
</style>
<g id="BG">
	<rect width="500" height="500"/>
</g>
<g id="DESIGN">
	<path class="st0" d="M398.64,275.26c-10.94-18.96-30.55-30.28-52.44-30.28h-87.56l0,0l43.78-75.83c10.95-18.96,10.95-41.59,0-60.55
		c-10.95-18.96-30.55-30.28-52.44-30.28s-41.49,11.32-52.44,30.28c-10.94,18.96-10.94,41.59,0,60.55l43.78,75.83l0,0h-87.56
		c-21.89,0-41.49,11.32-52.44,30.28c-10.95,18.96-10.95,41.59,0,60.55c10.94,18.96,30.55,30.28,52.44,30.28c0,0,0,0,0,0
		c21.89,0,41.49-11.32,52.44-30.28l43.78-75.83l0,0l0,0l43.78,75.83c10.95,18.96,30.55,30.28,52.44,30.28s41.49-11.32,52.44-30.28
		S409.59,294.22,398.64,275.26z"/>
</g>
</svg>
