<?xml version="1.0" encoding="utf-8"?>
<!-- Generator: Adobe Illustrator 23.0.0, SVG Export Plug-In . SVG Version: 6.00 Build 0)  -->
<svg version="1.1" xmlns="http://www.w3.org/2000/svg" xmlns:xlink="http://www.w3.org/1999/xlink" x="0px" y="0px"
	 viewBox="0 0 500 500" style="enable-background:new 0 0 500 500;" xml:space="preserve">
<style type="text/css">
	.st0{fill:#FFFFFF;}
</style>
<g id="BG">
	<rect x="0" width="500" height="500"/>
</g>
<g id="DESIGN">
	<g>
		<path class="st0" d="M371.39,128.61c-51.37-51.37-129.89-64.85-195.4-33.55l-6.38,3.05L401.89,330.4l3.05-6.38
			C436.24,258.5,422.75,179.98,371.39,128.61z M398.85,313.21L186.79,101.15C247.12,75.54,317.63,89,364.32,135.68
			C411,182.37,424.46,252.88,398.85,313.21z"/>
		<path class="st0" d="M95.06,175.98c-31.3,65.51-17.81,144.04,33.55,195.4c32.91,32.91,76.96,50.26,121.59,50.26
			c25.04,0,50.27-5.46,73.81-16.71l6.38-3.05L98.11,169.6L95.06,175.98z M313.21,398.85c-20.29,8.61-41.71,12.81-63.01,12.81
			c-42.03,0-83.53-16.35-114.51-47.34C89,317.63,75.54,247.12,101.15,186.79L313.21,398.85z"/>
		
			<rect x="245" y="83.33" transform="matrix(0.7071 -0.7071 0.7071 0.7071 -103.5534 250)" class="st0" width="10" height="333.33"/>
	</g>
</g>
</svg>
