<?xml version="1.0" encoding="utf-8"?>
<!-- Generator: Adobe Illustrator 23.0.0, SVG Export Plug-In . SVG Version: 6.00 Build 0)  -->
<svg version="1.1" xmlns="http://www.w3.org/2000/svg" xmlns:xlink="http://www.w3.org/1999/xlink" x="0px" y="0px"
	 viewBox="0 0 500 500" style="enable-background:new 0 0 500 500;" xml:space="preserve">
<style type="text/css">
	.st0{fill:#FFFFFF;}
</style>
<g id="BG">
	<rect width="500" height="500"/>
</g>
<g id="DESIGN">
	<g>
		<polygon class="st0" points="347.6,78.33 280.93,161.67 219.07,161.67 152.4,78.33 83.33,78.33 83.33,88.33 147.6,88.33 
			214.26,171.67 285.74,171.67 352.4,88.33 416.67,88.33 416.67,78.33 		"/>
		<polygon class="st0" points="280.93,245 219.07,245 152.4,161.67 83.33,161.67 83.33,171.67 147.6,171.67 214.26,255 285.74,255 
			352.4,171.67 416.67,171.67 416.67,161.67 347.6,161.67 		"/>
		<polygon class="st0" points="280.93,328.33 219.07,328.33 152.4,245 83.33,245 83.33,255 147.6,255 214.26,338.33 285.74,338.33 
			352.4,255 416.67,255 416.67,245 347.6,245 		"/>
		<polygon class="st0" points="280.93,411.67 219.07,411.67 152.4,328.33 83.33,328.33 83.33,338.33 147.6,338.33 214.26,421.67 
			285.74,421.67 352.4,338.33 416.67,338.33 416.67,328.33 347.6,328.33 		"/>
		<rect x="83.33" y="411.67" class="st0" width="66.67" height="10"/>
		<rect x="350" y="411.67" class="st0" width="66.67" height="10"/>
		<rect x="216.67" y="78.33" class="st0" width="66.67" height="10"/>
	</g>
</g>
</svg>
