<?xml version="1.0" encoding="utf-8"?>
<!-- Generator: Adobe Illustrator 23.0.0, SVG Export Plug-In . SVG Version: 6.00 Build 0)  -->
<svg version="1.1" xmlns="http://www.w3.org/2000/svg" xmlns:xlink="http://www.w3.org/1999/xlink" x="0px" y="0px"
	 viewBox="0 0 500 500" style="enable-background:new 0 0 500 500;" xml:space="preserve">
<style type="text/css">
	.st0{fill:#FFFFFF;}
</style>
<g id="BG">
	<rect width="500" height="500"/>
</g>
<g id="DESIGN">
	<path class="st0" d="M398.66,164.16c-14.78-25.62-36.08-47.11-61.58-62.14C310.8,86.52,280.69,78.33,250,78.33
		s-60.8,8.19-87.08,23.69c-25.51,15.04-46.8,36.53-61.58,62.14c-15.05,26-23.01,55.68-23.01,85.84s7.96,59.84,23,85.83
		c14.78,25.62,36.08,47.11,61.58,62.15c26.28,15.49,56.39,23.69,87.08,23.69s60.8-8.19,87.08-23.69
		c25.51-15.04,46.8-36.53,61.58-62.14c15.05-26,23.01-55.68,23.01-85.84S413.71,190.16,398.66,164.16z M387.43,164.88l-60.73,35.04
		c-7.81-11.96-18.39-22.01-30.87-29.24c-12.46-7.19-26.49-11.34-40.83-12.12V88.42c27.17,0.84,53.69,8.47,77,22.22
		C354.59,123.95,373.66,142.64,387.43,164.88z M320.67,290.83c-3.56,6.16-7.91,11.82-12.93,16.84c-5.02,5.02-10.7,9.4-16.9,13
		c-12.39,7.15-26.51,10.93-40.83,10.93s-28.44-3.78-40.82-10.93c-12.41-7.2-22.73-17.52-29.84-29.83
		c-7.15-12.46-10.94-26.58-10.94-40.84s3.78-28.39,10.93-40.83c7.11-12.32,17.43-22.64,29.84-29.84
		c12.39-7.15,26.51-10.93,40.83-10.93s28.44,3.78,40.82,10.93c12.41,7.2,22.73,17.52,29.84,29.83
		c7.15,12.46,10.94,26.58,10.94,40.84S327.82,278.39,320.67,290.83z M168,110.63c23.31-13.75,49.83-21.38,77-22.22v70.13
		c-14.35,0.79-28.37,4.93-40.84,12.13c-12.47,7.23-23.04,17.28-30.86,29.24l-60.73-35.04C126.34,142.64,145.41,123.95,168,110.63z
		 M88.33,250c0-26.72,6.64-53.05,19.23-76.47l60.74,35.04c-6.49,12.86-9.9,27.07-9.9,41.42c0,14.35,3.42,28.56,9.91,41.42
		l-60.74,35.04C94.97,303.05,88.33,276.73,88.33,250z M112.57,335.13l60.73-35.04c7.81,11.96,18.39,22.01,30.87,29.24
		c12.46,7.19,26.49,11.34,40.83,12.12v70.13c-27.17-0.84-53.69-8.47-77-22.22C145.42,376.05,126.34,357.37,112.57,335.13z
		 M332,389.37c-23.31,13.75-49.83,21.38-77,22.22v-70.13c1.47-0.08,2.94-0.19,4.4-0.34c12.81-1.32,25.25-5.32,36.44-11.78l0.01-0.01
		c12.47-7.23,23.04-17.28,30.86-29.24l60.73,35.04C373.66,357.36,354.59,376.05,332,389.37z M392.44,326.47l-60.74-35.04
		c6.49-12.86,9.9-27.07,9.9-41.42c0-14.35-3.42-28.56-9.91-41.42l60.74-35.04c12.59,23.41,19.23,49.74,19.23,76.47
		C411.67,276.72,405.03,303.05,392.44,326.47z"/>
</g>
</svg>
