<?xml version="1.0" encoding="utf-8"?>
<!-- Generator: Adobe Illustrator 23.0.0, SVG Export Plug-In . SVG Version: 6.00 Build 0)  -->
<svg version="1.1" xmlns="http://www.w3.org/2000/svg" xmlns:xlink="http://www.w3.org/1999/xlink" x="0px" y="0px"
	 viewBox="0 0 500 500" style="enable-background:new 0 0 500 500;" xml:space="preserve">
<style type="text/css">
	.st0{fill:#FFFFFF;}
</style>
<g id="BG">
	<rect width="500" height="500"/>
</g>
<g id="DESIGN">
	<g>
		<polygon class="st0" points="194.44,88.33 194.44,78.33 78.33,78.33 78.33,194.44 88.33,194.44 88.33,95.4 190.91,197.98 
			197.98,190.91 95.4,88.33 		"/>
		<polygon class="st0" points="190.91,302.02 88.33,404.6 88.33,305.56 78.33,305.56 78.33,421.67 194.44,421.67 194.44,411.67 
			95.4,411.67 197.98,309.09 		"/>
		<polygon class="st0" points="411.67,404.6 309.09,302.02 302.02,309.09 404.6,411.67 305.56,411.67 305.56,421.67 421.67,421.67 
			421.67,305.56 411.67,305.56 		"/>
		<polygon class="st0" points="305.56,78.33 305.56,88.33 404.6,88.33 302.02,190.91 309.09,197.98 411.67,95.4 411.67,194.44 
			421.67,194.44 421.67,78.33 		"/>
	</g>
</g>
</svg>
