<?xml version="1.0" encoding="utf-8"?>
<!-- Generator: Adobe Illustrator 23.0.0, SVG Export Plug-In . SVG Version: 6.00 Build 0)  -->
<svg version="1.1" xmlns="http://www.w3.org/2000/svg" xmlns:xlink="http://www.w3.org/1999/xlink" x="0px" y="0px"
	 viewBox="0 0 500 500" style="enable-background:new 0 0 500 500;" xml:space="preserve">
<style type="text/css">
	.st0{fill:#FFFFFF;}
</style>
<g id="BG">
	<rect width="500" height="500"/>
</g>
<g id="DESIGN">
	<path class="st0" d="M421.58,245c-0.84-28.92-8.95-57.18-23.6-82.03c-14.19-24.07-34.13-44.39-57.86-59.06l0.04-0.07l-4.32-2.5
		c0,0,0,0-0.01,0l-4.33-2.5l-0.04,0.07C306.53,85.44,278.48,78.33,250,78.33c-28.48,0-56.53,7.1-81.46,20.57l-0.04-0.07l-4.33,2.5
		c-0.01,0-0.01,0.01-0.02,0.01l-4.31,2.49l0.04,0.07c-23.73,14.67-43.67,34.99-57.86,59.06c-14.65,24.85-22.76,53.11-23.6,82.03
		h-0.08v5v5h0.08c0.84,28.92,8.95,57.18,23.6,82.03c14.19,24.07,34.13,44.39,57.86,59.06l-0.04,0.07l4.31,2.49
		c0.01,0,0.01,0.01,0.02,0.01l4.33,2.5l0.04-0.07c24.93,13.47,52.99,20.57,81.46,20.57c28.48,0,56.53-7.1,81.46-20.57l0.04,0.07
		l4.33-2.5c0,0,0,0,0.01,0l4.32-2.5l-0.04-0.07c23.73-14.67,43.67-34.99,57.86-59.06c14.65-24.85,22.76-53.11,23.6-82.03h0.08v-5v-5
		H421.58z M250,88.33c26.72,0,53.05,6.63,76.47,19.22l-44.09,76.36L250,240l-76.47-132.44C196.95,94.97,223.27,88.33,250,88.33z
		 M110.63,331.95C96.89,308.64,89.25,282.14,88.41,255h152.93l-76.46,132.44C142.64,373.63,123.95,354.54,110.63,331.95z
		 M389.37,331.95c-13.32,22.58-32,41.68-54.25,55.48L258.66,255h152.93C410.75,282.14,403.11,308.64,389.37,331.95z"/>
</g>
</svg>
