<?xml version="1.0" encoding="utf-8"?>
<!-- Generator: Adobe Illustrator 23.0.0, SVG Export Plug-In . SVG Version: 6.00 Build 0)  -->
<svg version="1.1" xmlns="http://www.w3.org/2000/svg" xmlns:xlink="http://www.w3.org/1999/xlink" x="0px" y="0px"
	 viewBox="0 0 500 500" style="enable-background:new 0 0 500 500;" xml:space="preserve">
<style type="text/css">
	.st0{fill:#FFFFFF;}
</style>
<g id="BG">
	<rect x="0" width="500" height="500"/>
</g>
<g id="DESIGN">
	<g>
		<polygon class="st0" points="164.6,411.67 83.33,411.67 83.33,421.67 168.74,421.67 335.4,255 416.67,255 416.67,245 331.26,245 
					"/>
		<polygon class="st0" points="246.46,413.13 253.54,420.2 335.4,338.33 416.67,338.33 416.67,328.33 331.26,328.33 		"/>
		<rect x="333.33" y="411.67" class="st0" width="83.33" height="10"/>
		<polygon class="st0" points="164.6,328.33 83.33,328.33 83.33,338.33 168.74,338.33 335.4,171.67 416.67,171.67 416.67,161.67 
			331.26,161.67 		"/>
		<polygon class="st0" points="331.26,78.33 164.6,245 83.33,245 83.33,255 168.74,255 335.4,88.33 416.67,88.33 416.67,78.33 		"/>
		<polygon class="st0" points="253.54,86.87 246.46,79.8 164.6,161.67 83.33,161.67 83.33,171.67 168.74,171.67 		"/>
		<rect x="83.33" y="78.33" class="st0" width="83.33" height="10"/>
	</g>
</g>
</svg>
