<?xml version="1.0" encoding="utf-8"?>
<!-- Generator: Adobe Illustrator 23.0.0, SVG Export Plug-In . SVG Version: 6.00 Build 0)  -->
<svg version="1.1" xmlns="http://www.w3.org/2000/svg" xmlns:xlink="http://www.w3.org/1999/xlink" x="0px" y="0px"
	 viewBox="0 0 500 500" style="enable-background:new 0 0 500 500;" xml:space="preserve">
<style type="text/css">
	.st0{fill:#FFFFFF;}
</style>
<g id="BG">
	<rect x="0" width="500" height="500"/>
</g>
<g id="DESIGN">
	<path class="st0" d="M421.67,250c0-45.53-17.83-86.98-46.86-117.74l45.39-45.39l-7.07-7.07l-45.39,45.39
		C336.98,96.16,295.53,78.33,250,78.33s-86.98,17.83-117.74,46.86L86.87,79.8l-7.07,7.07l45.39,45.39
		C96.16,163.02,78.33,204.47,78.33,250s17.83,86.98,46.86,117.74L79.8,413.13l7.07,7.07l45.39-45.39
		c30.76,29.03,72.2,46.86,117.74,46.86s86.98-17.83,117.74-46.86l45.39,45.39l7.07-7.07l-45.39-45.39
		C403.84,336.98,421.67,295.53,421.67,250z M250,411.67c-42.78,0-81.72-16.71-110.67-43.93l58.65-58.65l-7.07-7.07l-58.65,58.65
		C105.04,331.72,88.33,292.78,88.33,250s16.71-81.72,43.93-110.67l58.65,58.65l7.07-7.07l-58.65-58.65
		c28.95-27.22,67.89-43.93,110.67-43.93s81.72,16.71,110.67,43.93l-58.65,58.65l7.07,7.07l58.65-58.65
		c27.22,28.95,43.93,67.89,43.93,110.67s-16.71,81.72-43.93,110.67l-58.65-58.65l-7.07,7.07l58.65,58.65
		C331.72,394.96,292.78,411.67,250,411.67z"/>
</g>
</svg>
