<?xml version="1.0" encoding="utf-8"?>
<!-- Generator: Adobe Illustrator 23.0.0, SVG Export Plug-In . SVG Version: 6.00 Build 0)  -->
<svg version="1.1" xmlns="http://www.w3.org/2000/svg" xmlns:xlink="http://www.w3.org/1999/xlink" x="0px" y="0px"
	 viewBox="0 0 500 500" style="enable-background:new 0 0 500 500;" xml:space="preserve">
<style type="text/css">
	.st0{fill:#FFFFFF;}
</style>
<g id="BG">
	<rect width="500" height="500"/>
</g>
<g id="DESIGN">
	<path class="st0" d="M421.34,260.43c0.21-3.45,0.33-6.93,0.33-10.43c0-15.23-2-30-5.74-44.07c-0.02-0.13-0.07-0.26-0.11-0.39
		c-3.99-14.88-9.93-28.96-17.54-41.96c-0.19-0.52-0.49-1-0.86-1.45c-7.15-11.95-15.71-22.97-25.46-32.82
		c-0.17-0.25-0.36-0.49-0.58-0.71c-0.22-0.22-0.46-0.41-0.71-0.58c-9.85-9.74-20.86-18.31-32.82-25.46
		c-0.44-0.37-0.93-0.66-1.45-0.86c-13-7.61-27.09-13.55-41.97-17.54c-0.13-0.03-0.25-0.08-0.38-0.1
		C280,80.34,265.23,78.33,250,78.33c-3.5,0-6.98,0.12-10.43,0.33c-0.02,0-0.04,0-0.06,0C153.19,83.89,83.88,153.2,78.66,239.53
		c0,0.02,0,0.03,0,0.05c-0.21,3.45-0.33,6.93-0.33,10.43c0,15.23,2,30,5.74,44.07c0.02,0.13,0.07,0.26,0.11,0.39
		c3.99,14.88,9.93,28.96,17.54,41.96c0.19,0.52,0.49,1,0.86,1.45c7.15,11.95,15.71,22.97,25.46,32.82c0.17,0.25,0.36,0.49,0.58,0.71
		c0.22,0.22,0.46,0.41,0.7,0.58c9.85,9.74,20.86,18.31,32.82,25.46c0.44,0.37,0.93,0.66,1.45,0.86c13,7.61,27.09,13.55,41.97,17.54
		c0.13,0.03,0.26,0.08,0.39,0.1c14.07,3.74,28.84,5.74,44.07,5.74c3.5,0,6.97-0.12,10.42-0.33c0,0,0.01,0,0.01,0
		c0.02,0,0.04,0,0.05,0c86.32-5.23,155.63-74.54,160.85-160.86C421.34,260.46,421.34,260.44,421.34,260.43z M173.57,392.43
		l218.85-218.85c5.4,10.02,9.77,20.67,12.97,31.81L205.38,405.4C194.24,402.2,183.59,397.82,173.57,392.43z M139.33,367.74
		l228.4-228.4c7.29,7.75,13.83,16.22,19.49,25.29l-222.6,222.6C155.56,381.56,147.09,375.03,139.33,367.74z M112.77,335.37
		l222.6-222.6c9.07,5.66,17.54,12.2,25.29,19.49l-228.4,228.4C124.97,352.91,118.44,344.44,112.77,335.37z M94.6,294.62L294.62,94.6
		c11.14,3.2,21.79,7.58,31.81,12.98L107.57,326.43C102.18,316.41,97.8,305.76,94.6,294.62z M283.29,91.79l-191.5,191.5
		c-2.26-10.75-3.45-21.88-3.45-33.29c0-2.77,0.07-5.52,0.21-8.25L241.75,88.54c2.73-0.14,5.48-0.21,8.25-0.21
		C261.41,88.33,272.54,89.53,283.29,91.79z M226.04,90.11L90.11,226.04C100.56,156.04,156.04,100.56,226.04,90.11z M216.71,408.21
		l191.5-191.5c2.26,10.75,3.45,21.88,3.45,33.29c0,2.77-0.07,5.52-0.21,8.25L258.25,411.46c-2.73,0.14-5.48,0.21-8.25,0.21
		C238.59,411.67,227.46,410.47,216.71,408.21z M273.96,409.89l135.93-135.93C399.44,343.96,343.96,399.44,273.96,409.89z"/>
</g>
</svg>
