<?xml version="1.0" encoding="utf-8"?>
<!-- Generator: Adobe Illustrator 23.0.0, SVG Export Plug-In . SVG Version: 6.00 Build 0)  -->
<svg version="1.1" xmlns="http://www.w3.org/2000/svg" xmlns:xlink="http://www.w3.org/1999/xlink" x="0px" y="0px"
	 viewBox="0 0 500 500" style="enable-background:new 0 0 500 500;" xml:space="preserve">
<style type="text/css">
	.st0{fill:#FFFFFF;}
</style>
<g id="BG">
	<rect width="500" height="500"/>
</g>
<g id="DESIGN">
	<path class="st0" d="M250,78.33c-94.66,0-171.67,77.01-171.67,171.67S155.34,421.67,250,421.67S421.67,344.66,421.67,250
		S344.66,78.33,250,78.33z M338.29,245c-0.32-21.85-2.7-43-6.96-62.58c12.4,3.56,23.92,7.95,34.28,13.13
		c27.24,13.62,43.25,31.02,45.71,49.45H338.29z M328.29,245H255v-73.29c23.02,0.34,45.21,3.04,65.44,7.85
		C325.26,199.79,327.95,221.98,328.29,245z M255,161.71V88.68c18.43,2.46,35.83,18.46,49.45,45.71
		c5.18,10.36,9.57,21.89,13.13,34.28C298,164.41,276.85,162.02,255,161.71z M245,88.68v73.03c-21.85,0.32-43,2.7-62.58,6.96
		c3.56-12.4,7.95-23.92,13.13-34.28C209.17,107.14,226.57,91.14,245,88.68z M245,171.71V245h-73.29
		c0.34-23.02,3.04-45.21,7.85-65.44C199.79,174.74,221.98,172.05,245,171.71z M161.71,245H88.68c2.46-18.43,18.46-35.83,45.71-49.45
		c10.36-5.18,21.89-9.57,34.28-13.13C164.41,202,162.02,223.15,161.71,245z M161.71,255c0.32,21.85,2.7,43,6.96,62.58
		c-12.4-3.55-23.92-7.95-34.28-13.13c-27.24-13.62-43.25-31.02-45.71-49.45H161.71z M171.71,255H245v73.29
		c-23.02-0.34-45.21-3.04-65.44-7.85C174.74,300.21,172.05,278.02,171.71,255z M245,338.29v73.03
		c-18.43-2.46-35.83-18.46-49.45-45.71c-5.18-10.36-9.57-21.89-13.13-34.28C202,335.59,223.15,337.98,245,338.29z M255,411.32
		v-73.03c21.85-0.32,43-2.7,62.58-6.96c-3.55,12.4-7.95,23.92-13.13,34.28C290.83,392.86,273.43,408.86,255,411.32z M255,328.29V255
		h73.29c-0.34,23.02-3.04,45.21-7.85,65.44C300.21,325.26,278.02,327.95,255,328.29z M338.29,255h73.03
		c-2.46,18.43-18.46,35.83-45.71,49.45c-10.36,5.18-21.89,9.57-34.28,13.13C335.59,298,337.98,276.85,338.29,255z M407.79,214.78
		c-8.72-10.48-21.42-20.03-37.7-28.18c-12.4-6.2-26.35-11.32-41.42-15.27c-3.96-15.06-9.08-29.02-15.27-41.41
		c-8.14-16.29-17.7-28.98-28.18-37.7C346.14,105.8,394.2,153.86,407.79,214.78z M214.78,92.21c-10.48,8.72-20.03,21.42-28.18,37.7
		c-6.2,12.4-11.32,26.35-15.27,41.41c-15.06,3.96-29.02,9.08-41.41,15.27c-16.29,8.14-28.98,17.7-37.7,28.18
		C105.8,153.86,153.86,105.8,214.78,92.21z M92.21,285.22c8.72,10.48,21.42,20.03,37.7,28.18c12.4,6.2,26.35,11.32,41.41,15.27
		c3.96,15.06,9.08,29.02,15.27,41.41c8.14,16.29,17.7,28.98,28.18,37.7C153.86,394.2,105.8,346.14,92.21,285.22z M285.22,407.79
		c10.48-8.72,20.03-21.42,28.18-37.7c6.2-12.4,11.32-26.35,15.27-41.41c15.06-3.96,29.02-9.08,41.42-15.27
		c16.29-8.14,28.98-17.7,37.7-28.18C394.2,346.14,346.14,394.2,285.22,407.79z"/>
</g>
</svg>
