<?xml version="1.0" encoding="utf-8"?>
<!-- Generator: Adobe Illustrator 23.0.0, SVG Export Plug-In . SVG Version: 6.00 Build 0)  -->
<svg version="1.1" xmlns="http://www.w3.org/2000/svg" xmlns:xlink="http://www.w3.org/1999/xlink" x="0px" y="0px"
	 viewBox="0 0 500 500" style="enable-background:new 0 0 500 500;" xml:space="preserve">
<style type="text/css">
	.st0{fill:#FFFFFF;}
</style>
<g id="BG">
	<rect width="500" height="500"/>
</g>
<g id="DESIGN">
	<g>
		<path class="st0" d="M250,78.33c-94.66,0-171.67,77.01-171.67,171.67S155.34,421.67,250,421.67S421.67,344.66,421.67,250
			S344.66,78.33,250,78.33z M250,411.67c-89.14,0-161.67-72.52-161.67-161.67S160.86,88.33,250,88.33S411.67,160.86,411.67,250
			S339.14,411.67,250,411.67z"/>
		<path class="st0" d="M250,161.67c-48.71,0-88.33,39.63-88.33,88.33s39.63,88.33,88.33,88.33s88.33-39.63,88.33-88.33
			S298.71,161.67,250,161.67z M250,328.33c-43.19,0-78.33-35.14-78.33-78.33s35.14-78.33,78.33-78.33s78.33,35.14,78.33,78.33
			S293.19,328.33,250,328.33z"/>
	</g>
</g>
</svg>
