<?xml version="1.0" encoding="utf-8"?>
<!-- Generator: Adobe Illustrator 23.0.0, SVG Export Plug-In . SVG Version: 6.00 Build 0)  -->
<svg version="1.1" xmlns="http://www.w3.org/2000/svg" xmlns:xlink="http://www.w3.org/1999/xlink" x="0px" y="0px"
	 viewBox="0 0 500 500" style="enable-background:new 0 0 500 500;" xml:space="preserve">
<style type="text/css">
	.st0{fill:#FFFFFF;}
</style>
<g id="BG">
	<rect width="500" height="500"/>
</g>
<g id="DESIGN">
	<path class="st0" d="M335.83,101.32v-0.01C309.72,86.27,280.04,78.32,250,78.32c-94.66,0-171.67,77-171.67,171.66
		c0,30.05,7.9,59.63,22.85,85.54c0.05,0.1,0.1,0.19,0.16,0.29c0.02,0.03,0.03,0.05,0.05,0.08c31.74,54.96,89.52,85.71,148.88,85.71
		c29.1,0,58.59-7.39,85.56-22.95c25.95-14.95,47.66-36.66,62.78-62.76c0.02-0.03,0.03-0.05,0.05-0.08c0.06-0.1,0.11-0.19,0.16-0.29
		C445.89,253.58,417.68,148.57,335.83,101.32z M330.83,109.98c74.62,43.09,101.91,137.14,63.36,213.1L258.8,88.57
		C284.06,89.95,308.79,97.28,330.83,109.98z M261.67,271.65v23.33h-23.34v-23.33H261.67z M261.67,171.65v73.33h-23.34v-73.33H261.67
		z M241.2,88.56L105.8,323.09c-11.45-22.56-17.47-47.65-17.47-73.11C88.33,163.79,156.14,93.14,241.2,88.56z M330.83,389.99
		c-74.68,43.07-169.75,19.69-216.23-51.67h270.78C371.47,359.59,352.76,377.35,330.83,389.99z"/>
</g>
</svg>
