<?xml version="1.0" encoding="utf-8"?>
<!-- Generator: Adobe Illustrator 23.0.0, SVG Export Plug-In . SVG Version: 6.00 Build 0)  -->
<svg version="1.1" xmlns="http://www.w3.org/2000/svg" xmlns:xlink="http://www.w3.org/1999/xlink" x="0px" y="0px"
	 viewBox="0 0 500 500" style="enable-background:new 0 0 500 500;" xml:space="preserve">
<style type="text/css">
	.st0{fill:#FFFFFF;}
</style>
<g id="BG">
	<rect width="500" height="500"/>
</g>
<g id="DESIGN">
	<g>
		<path class="st0" d="M254.62,81.42c-0.13-0.3-0.28-0.59-0.46-0.86c-0.19-0.28-0.39-0.53-0.63-0.76c-0.23-0.23-0.48-0.44-0.76-0.62
			c-0.27-0.18-0.56-0.34-0.86-0.46c-0.3-0.13-0.61-0.22-0.93-0.29c-0.65-0.13-1.31-0.13-1.96,0c-0.32,0.07-0.63,0.16-0.93,0.29
			c-0.3,0.12-0.59,0.28-0.87,0.46c-0.27,0.18-0.53,0.39-0.76,0.62c-0.23,0.23-0.44,0.48-0.62,0.76c-0.18,0.27-0.33,0.56-0.46,0.86
			c-0.12,0.3-0.22,0.62-0.28,0.94c-0.07,0.32-0.1,0.65-0.1,0.97c0,0.33,0.03,0.66,0.1,0.98c0.06,0.32,0.16,0.63,0.28,0.94
			c0.13,0.3,0.28,0.59,0.46,0.86s0.39,0.53,0.62,0.76c0.23,0.23,0.49,0.44,0.76,0.62c0.28,0.18,0.57,0.34,0.87,0.46
			c0.3,0.13,0.61,0.22,0.93,0.29c0.33,0.06,0.65,0.09,0.98,0.09s0.65-0.03,0.98-0.09c0.32-0.07,0.63-0.16,0.93-0.29
			c0.3-0.12,0.59-0.28,0.86-0.46c0.28-0.18,0.53-0.39,0.76-0.62c0.94-0.93,1.47-2.22,1.47-3.54c0-0.32-0.03-0.65-0.1-0.97
			C254.84,82.04,254.74,81.72,254.62,81.42z"/>
		<path class="st0" d="M252.77,412.51c-0.27-0.18-0.56-0.34-0.86-0.46c-0.3-0.13-0.61-0.22-0.93-0.29c-0.65-0.13-1.31-0.13-1.96,0
			c-0.32,0.07-0.63,0.16-0.93,0.29c-0.3,0.12-0.59,0.28-0.87,0.46c-0.27,0.18-0.53,0.39-0.76,0.62c-0.23,0.23-0.44,0.49-0.62,0.76
			c-0.18,0.27-0.33,0.56-0.46,0.86c-0.12,0.31-0.22,0.62-0.28,0.94c-0.07,0.32-0.1,0.65-0.1,0.98c0,0.32,0.03,0.65,0.1,0.97
			c0.06,0.32,0.16,0.64,0.28,0.94c0.13,0.3,0.28,0.59,0.46,0.86c0.18,0.28,0.39,0.53,0.62,0.76c0.23,0.23,0.49,0.44,0.76,0.62
			c0.28,0.18,0.57,0.34,0.87,0.46c0.3,0.13,0.61,0.22,0.93,0.29c0.33,0.06,0.65,0.1,0.98,0.1s0.65-0.04,0.98-0.1
			c0.32-0.07,0.63-0.16,0.93-0.29c0.3-0.12,0.59-0.28,0.86-0.46c0.28-0.18,0.53-0.39,0.76-0.62c0.24-0.23,0.44-0.48,0.63-0.76
			c0.18-0.27,0.33-0.56,0.46-0.86c0.12-0.3,0.22-0.62,0.28-0.94c0.07-0.32,0.1-0.65,0.1-0.97c0-1.32-0.53-2.61-1.47-3.54
			C253.3,412.9,253.05,412.69,252.77,412.51z"/>
		<path class="st0" d="M190.84,94.11c-0.13-0.3-0.28-0.6-0.46-0.87c-0.19-0.27-0.4-0.53-0.63-0.76c-0.23-0.23-0.48-0.44-0.76-0.62
			c-0.27-0.18-0.56-0.33-0.86-0.46c-0.3-0.12-0.61-0.22-0.93-0.28c-1.63-0.33-3.35,0.2-4.52,1.36c-0.23,0.23-0.44,0.49-0.62,0.76
			c-0.18,0.27-0.33,0.57-0.46,0.87c-0.12,0.3-0.22,0.61-0.28,0.93c-0.07,0.33-0.1,0.65-0.1,0.98s0.03,0.66,0.1,0.98
			c0.06,0.32,0.16,0.63,0.28,0.93c0.13,0.3,0.28,0.59,0.46,0.87c0.18,0.27,0.39,0.53,0.62,0.76c0.94,0.93,2.22,1.46,3.54,1.46
			c0.33,0,0.65-0.03,0.98-0.1c0.32-0.06,0.63-0.16,0.93-0.28c0.3-0.13,0.59-0.28,0.86-0.46c0.28-0.18,0.53-0.39,0.76-0.62
			c0.23-0.23,0.44-0.49,0.63-0.76c0.18-0.28,0.33-0.57,0.46-0.87c0.12-0.3,0.22-0.61,0.28-0.93c0.07-0.32,0.1-0.65,0.1-0.98
			s-0.03-0.65-0.1-0.98C191.06,94.72,190.96,94.41,190.84,94.11z"/>
		<path class="st0" d="M318.4,402.07c-0.13-0.3-0.28-0.6-0.46-0.87c-0.18-0.27-0.39-0.53-0.62-0.76c-0.23-0.23-0.49-0.43-0.76-0.62
			c-0.28-0.18-0.57-0.33-0.87-0.46c-0.3-0.12-0.61-0.22-0.93-0.28c-0.65-0.13-1.31-0.13-1.96,0c-0.32,0.06-0.63,0.16-0.93,0.28
			c-0.3,0.13-0.6,0.28-0.87,0.46c-0.27,0.19-0.53,0.39-0.76,0.62c-0.23,0.23-0.44,0.49-0.62,0.76c-0.18,0.27-0.33,0.57-0.46,0.87
			c-0.12,0.3-0.22,0.61-0.28,0.93c-0.07,0.33-0.1,0.65-0.1,0.98c0,1.32,0.53,2.61,1.46,3.54c0.23,0.23,0.49,0.43,0.76,0.62
			c0.27,0.18,0.57,0.33,0.87,0.46c0.3,0.12,0.61,0.22,0.93,0.28c0.33,0.07,0.65,0.1,0.98,0.1c0.33,0,0.66-0.03,0.98-0.1
			c0.32-0.06,0.63-0.16,0.93-0.28c0.3-0.13,0.59-0.28,0.87-0.46c0.27-0.19,0.53-0.39,0.76-0.62c0.93-0.93,1.46-2.22,1.46-3.54
			c0-0.33-0.03-0.65-0.1-0.98C318.62,402.68,318.52,402.37,318.4,402.07z"/>
		<path class="st0" d="M136.77,130.24c-0.13-0.31-0.29-0.6-0.46-0.87c-0.19-0.27-0.4-0.53-0.63-0.76c-0.23-0.23-0.48-0.44-0.76-0.62
			c-0.27-0.18-0.56-0.33-0.86-0.46c-0.3-0.12-0.62-0.22-0.94-0.28c-1.62-0.33-3.35,0.2-4.51,1.36c-0.23,0.23-0.44,0.49-0.62,0.76
			c-0.18,0.27-0.33,0.56-0.46,0.87c-0.12,0.3-0.22,0.61-0.28,0.93c-0.07,0.32-0.1,0.65-0.1,0.98c0,1.32,0.53,2.6,1.46,3.53
			c0.93,0.93,2.22,1.47,3.54,1.47c0.32,0,0.65-0.03,0.97-0.1c0.32-0.06,0.64-0.16,0.94-0.28c0.3-0.13,0.59-0.28,0.86-0.46
			c0.28-0.19,0.53-0.4,0.76-0.63c0.93-0.93,1.47-2.22,1.47-3.53c0-0.33-0.03-0.66-0.1-0.98
			C136.99,130.85,136.89,130.54,136.77,130.24z"/>
		<path class="st0" d="M370.63,363.69c-0.27-0.18-0.56-0.33-0.87-0.46c-0.3-0.12-0.61-0.22-0.93-0.28c-0.65-0.13-1.31-0.13-1.96,0
			c-0.31,0.06-0.63,0.16-0.93,0.28c-0.3,0.13-0.59,0.28-0.86,0.46c-0.28,0.19-0.53,0.39-0.76,0.62c-0.94,0.93-1.47,2.22-1.47,3.54
			c0,1.32,0.53,2.61,1.47,3.54c0.23,0.23,0.48,0.44,0.76,0.62c0.27,0.18,0.56,0.33,0.86,0.46c0.3,0.12,0.62,0.22,0.93,0.28
			c0.33,0.07,0.66,0.1,0.98,0.1c0.33,0,0.66-0.03,0.98-0.1c0.32-0.06,0.63-0.16,0.93-0.28c0.31-0.13,0.6-0.28,0.87-0.46
			c0.27-0.18,0.53-0.39,0.76-0.62c0.93-0.93,1.46-2.22,1.46-3.54c0-1.32-0.53-2.61-1.46-3.54
			C371.16,364.08,370.9,363.88,370.63,363.69z"/>
		<path class="st0" d="M100.64,184.31c-0.13-0.31-0.28-0.6-0.46-0.87c-0.19-0.27-0.39-0.53-0.62-0.76
			c-0.24-0.23-0.49-0.44-0.76-0.62c-0.28-0.18-0.57-0.33-0.87-0.46c-0.3-0.12-0.61-0.22-0.93-0.28c-0.65-0.13-1.31-0.13-1.96,0
			c-0.32,0.06-0.63,0.16-0.93,0.28c-0.3,0.13-0.59,0.28-0.87,0.46c-0.27,0.18-0.52,0.39-0.76,0.62c-0.23,0.23-0.44,0.49-0.62,0.76
			c-0.18,0.27-0.33,0.56-0.46,0.87c-0.12,0.3-0.22,0.61-0.28,0.93c-0.07,0.32-0.1,0.65-0.1,0.98c0,1.32,0.53,2.61,1.46,3.53
			c0.24,0.23,0.49,0.44,0.76,0.63c0.28,0.18,0.57,0.33,0.87,0.46c0.3,0.12,0.62,0.22,0.93,0.28c0.33,0.07,0.65,0.1,0.98,0.1
			s0.66-0.03,0.98-0.1c0.32-0.06,0.63-0.16,0.93-0.28c0.3-0.13,0.59-0.28,0.87-0.46c0.27-0.19,0.52-0.4,0.76-0.63
			c0.92-0.92,1.46-2.21,1.46-3.53c0-0.33-0.03-0.66-0.1-0.98C100.86,184.92,100.76,184.61,100.64,184.31z"/>
		<path class="st0" d="M403,308.88c-0.32,0.06-0.63,0.16-0.93,0.28c-0.31,0.13-0.6,0.28-0.87,0.46c-0.27,0.19-0.53,0.39-0.76,0.62
			c-0.23,0.24-0.44,0.49-0.62,0.77c-0.18,0.27-0.33,0.56-0.46,0.86c-0.12,0.3-0.22,0.61-0.28,0.93c-0.07,0.33-0.1,0.65-0.1,0.98
			s0.03,0.66,0.1,0.98c0.06,0.32,0.16,0.63,0.28,0.93c0.13,0.3,0.28,0.59,0.46,0.87c0.18,0.27,0.39,0.53,0.62,0.76
			c0.23,0.23,0.49,0.44,0.76,0.62c0.27,0.18,0.56,0.33,0.87,0.46c0.3,0.12,0.61,0.22,0.93,0.28c0.32,0.07,0.65,0.1,0.98,0.1
			c1.31,0,2.6-0.53,3.53-1.46c0.94-0.94,1.47-2.23,1.47-3.54s-0.53-2.6-1.47-3.54C406.35,309.08,404.62,308.55,403,308.88z"/>
		<path class="st0" d="M87.95,248.09c-0.13-0.3-0.28-0.59-0.46-0.87c-0.18-0.27-0.39-0.52-0.62-0.76c-0.23-0.23-0.49-0.44-0.76-0.62
			c-0.27-0.18-0.56-0.33-0.86-0.46c-0.31-0.12-0.62-0.22-0.94-0.28c-0.64-0.13-1.31-0.13-1.95,0c-0.32,0.06-0.64,0.16-0.94,0.28
			c-0.3,0.13-0.59,0.28-0.86,0.46c-0.28,0.18-0.53,0.39-0.76,0.62c-0.93,0.94-1.47,2.22-1.47,3.54c0,0.33,0.03,0.65,0.1,0.98
			c0.06,0.32,0.16,0.63,0.29,0.93c0.12,0.3,0.27,0.59,0.46,0.87c0.18,0.27,0.39,0.53,0.62,0.76s0.48,0.44,0.76,0.62
			c0.27,0.18,0.56,0.33,0.86,0.46c0.3,0.12,0.62,0.22,0.94,0.28c0.32,0.07,0.65,0.1,0.97,0.1c0.33,0,0.66-0.03,0.98-0.1
			c0.32-0.06,0.63-0.16,0.94-0.28c0.3-0.13,0.59-0.28,0.86-0.46c0.27-0.18,0.53-0.39,0.76-0.62c0.23-0.23,0.44-0.49,0.62-0.76
			c0.18-0.28,0.33-0.57,0.46-0.87c0.12-0.3,0.22-0.61,0.28-0.93c0.07-0.33,0.1-0.65,0.1-0.98s-0.03-0.65-0.1-0.98
			C88.17,248.7,88.07,248.39,87.95,248.09z"/>
		<path class="st0" d="M420.2,246.46c-0.23-0.23-0.48-0.44-0.76-0.62c-0.27-0.18-0.56-0.33-0.86-0.46c-0.3-0.12-0.62-0.22-0.94-0.28
			c-0.64-0.13-1.31-0.13-1.95,0c-0.32,0.06-0.63,0.16-0.94,0.28c-0.3,0.13-0.59,0.28-0.86,0.46c-0.27,0.18-0.53,0.39-0.76,0.62
			c-0.93,0.94-1.46,2.22-1.46,3.54c0,0.33,0.03,0.65,0.1,0.98c0.06,0.32,0.16,0.63,0.28,0.93c0.13,0.3,0.28,0.59,0.46,0.87
			c0.18,0.27,0.39,0.52,0.62,0.76c0.23,0.23,0.49,0.43,0.76,0.62c0.27,0.18,0.56,0.33,0.86,0.46c0.31,0.12,0.62,0.22,0.94,0.28
			c0.32,0.07,0.65,0.1,0.98,0.1c0.32,0,0.65-0.03,0.97-0.1c0.32-0.06,0.64-0.16,0.94-0.28c0.3-0.13,0.59-0.28,0.86-0.46
			c0.28-0.19,0.53-0.39,0.76-0.62c0.23-0.23,0.44-0.49,0.62-0.76c0.18-0.28,0.34-0.57,0.46-0.87c0.13-0.3,0.22-0.61,0.29-0.93
			c0.06-0.32,0.1-0.65,0.1-0.98C421.67,248.68,421.13,247.39,420.2,246.46z"/>
		<path class="st0" d="M100.64,311.87c-0.13-0.3-0.28-0.59-0.46-0.86c-0.19-0.28-0.39-0.53-0.62-0.76
			c-0.24-0.24-0.49-0.44-0.76-0.63c-0.28-0.18-0.57-0.33-0.87-0.46c-0.3-0.12-0.61-0.22-0.93-0.28c-0.65-0.13-1.31-0.13-1.96,0
			c-0.32,0.06-0.63,0.16-0.93,0.28c-0.3,0.13-0.59,0.28-0.87,0.46c-0.27,0.19-0.52,0.39-0.76,0.63c-0.23,0.23-0.44,0.48-0.62,0.76
			c-0.18,0.27-0.33,0.56-0.46,0.86c-0.12,0.3-0.22,0.62-0.28,0.93c-0.07,0.33-0.1,0.66-0.1,0.98c0,0.33,0.03,0.66,0.1,0.98
			c0.06,0.32,0.16,0.63,0.28,0.93c0.13,0.3,0.28,0.59,0.46,0.87c0.18,0.27,0.39,0.53,0.62,0.76c0.24,0.23,0.49,0.44,0.76,0.62
			c0.28,0.18,0.57,0.33,0.87,0.46c0.3,0.12,0.61,0.22,0.93,0.28c0.33,0.07,0.65,0.1,0.98,0.1s0.66-0.03,0.98-0.1
			c0.32-0.06,0.63-0.16,0.93-0.28c0.3-0.13,0.59-0.28,0.87-0.46c0.27-0.18,0.52-0.39,0.76-0.62c0.23-0.23,0.43-0.49,0.62-0.76
			c0.18-0.28,0.33-0.57,0.46-0.87c0.12-0.3,0.22-0.61,0.28-0.93c0.07-0.32,0.1-0.65,0.1-0.98c0-0.32-0.03-0.65-0.1-0.98
			C100.86,312.49,100.76,312.17,100.64,311.87z"/>
		<path class="st0" d="M403,181.32c-0.32,0.06-0.63,0.16-0.93,0.28c-0.31,0.13-0.6,0.28-0.87,0.46c-0.27,0.18-0.53,0.39-0.76,0.62
			c-0.23,0.23-0.44,0.49-0.62,0.76c-0.18,0.27-0.33,0.56-0.46,0.87c-0.12,0.3-0.22,0.61-0.28,0.93c-0.07,0.32-0.1,0.65-0.1,0.98
			c0,0.32,0.03,0.65,0.1,0.98c0.06,0.31,0.16,0.63,0.28,0.93c0.13,0.3,0.28,0.59,0.46,0.86c0.18,0.28,0.39,0.53,0.62,0.77
			c0.23,0.23,0.49,0.44,0.76,0.62c0.27,0.18,0.56,0.33,0.87,0.46c0.3,0.12,0.61,0.22,0.93,0.28c0.32,0.07,0.65,0.1,0.98,0.1
			c1.32,0,2.6-0.53,3.53-1.46c0.23-0.24,0.44-0.49,0.63-0.77c0.18-0.27,0.33-0.56,0.46-0.86c0.12-0.3,0.22-0.62,0.28-0.93
			c0.07-0.33,0.1-0.66,0.1-0.98c0-1.32-0.53-2.6-1.47-3.54C406.35,181.52,404.62,180.99,403,181.32z"/>
		<path class="st0" d="M136.77,365.94c-0.13-0.3-0.29-0.59-0.46-0.86c-0.19-0.28-0.4-0.53-0.63-0.76c-0.23-0.23-0.48-0.44-0.76-0.63
			c-0.27-0.18-0.56-0.33-0.86-0.46c-0.3-0.12-0.62-0.22-0.94-0.28c-1.62-0.33-3.35,0.2-4.51,1.37c-0.23,0.23-0.44,0.48-0.62,0.76
			c-0.18,0.27-0.33,0.56-0.46,0.86c-0.12,0.3-0.22,0.61-0.28,0.93c-0.07,0.33-0.1,0.66-0.1,0.98c0,0.33,0.03,0.66,0.1,0.98
			c0.06,0.32,0.16,0.63,0.28,0.93c0.13,0.31,0.28,0.6,0.46,0.87c0.18,0.27,0.39,0.53,0.62,0.76c0.93,0.93,2.22,1.46,3.54,1.46
			c0.32,0,0.65-0.03,0.97-0.1c0.32-0.06,0.64-0.16,0.94-0.28c0.3-0.13,0.59-0.28,0.86-0.46c0.28-0.18,0.53-0.39,0.76-0.62
			c0.23-0.23,0.44-0.49,0.63-0.76c0.17-0.27,0.33-0.56,0.46-0.87c0.12-0.3,0.22-0.61,0.28-0.93c0.07-0.32,0.1-0.65,0.1-0.98
			c0-0.32-0.03-0.65-0.1-0.98C136.99,366.55,136.89,366.24,136.77,365.94z"/>
		<path class="st0" d="M372.47,130.24c-0.13-0.31-0.28-0.6-0.46-0.87s-0.39-0.53-0.62-0.76c-0.23-0.23-0.49-0.44-0.76-0.62
			c-0.27-0.18-0.56-0.33-0.87-0.46c-0.3-0.12-0.61-0.22-0.93-0.28c-0.65-0.13-1.31-0.13-1.96,0c-0.31,0.06-0.63,0.16-0.93,0.28
			c-0.3,0.13-0.59,0.28-0.86,0.46c-0.28,0.18-0.53,0.39-0.76,0.62c-0.23,0.23-0.44,0.49-0.63,0.76c-0.18,0.27-0.33,0.56-0.46,0.87
			c-0.12,0.3-0.22,0.61-0.28,0.93c-0.07,0.32-0.1,0.65-0.1,0.98c0,0.32,0.03,0.65,0.1,0.98c0.06,0.32,0.16,0.63,0.28,0.93
			c0.13,0.3,0.28,0.59,0.46,0.86c0.19,0.28,0.4,0.53,0.63,0.76c0.23,0.24,0.48,0.44,0.76,0.63c0.27,0.18,0.56,0.33,0.86,0.46
			c0.3,0.12,0.62,0.22,0.93,0.28c0.33,0.07,0.66,0.1,0.98,0.1c0.33,0,0.66-0.03,0.98-0.1c0.32-0.06,0.63-0.16,0.93-0.28
			c0.31-0.13,0.6-0.28,0.87-0.46c0.27-0.19,0.53-0.39,0.76-0.63c0.23-0.23,0.44-0.48,0.62-0.76c0.18-0.27,0.33-0.56,0.46-0.86
			c0.12-0.3,0.22-0.61,0.28-0.93c0.07-0.33,0.1-0.66,0.1-0.98c0-0.33-0.03-0.66-0.1-0.98C372.69,130.85,372.59,130.54,372.47,130.24
			z"/>
		<path class="st0" d="M190.84,402.07c-0.13-0.3-0.28-0.59-0.46-0.87c-0.19-0.27-0.4-0.53-0.63-0.76c-0.23-0.23-0.48-0.44-0.76-0.62
			c-0.27-0.18-0.56-0.33-0.86-0.46c-0.3-0.12-0.61-0.22-0.93-0.28c-1.63-0.33-3.35,0.2-4.52,1.36c-0.23,0.23-0.44,0.49-0.62,0.76
			c-0.18,0.28-0.33,0.57-0.46,0.87c-0.12,0.3-0.22,0.61-0.28,0.93c-0.07,0.32-0.1,0.65-0.1,0.98s0.03,0.65,0.1,0.98
			c0.06,0.32,0.16,0.63,0.28,0.93c0.13,0.3,0.28,0.59,0.46,0.87c0.18,0.27,0.39,0.52,0.62,0.75c0.23,0.24,0.49,0.44,0.76,0.63
			c0.28,0.18,0.57,0.33,0.87,0.46c0.3,0.12,0.61,0.22,0.93,0.28c0.32,0.07,0.65,0.1,0.98,0.1s0.65-0.03,0.98-0.1
			c0.32-0.06,0.63-0.16,0.93-0.28c0.3-0.13,0.59-0.28,0.86-0.46c0.28-0.18,0.53-0.39,0.76-0.63c0.23-0.23,0.44-0.48,0.63-0.75
			c0.18-0.28,0.33-0.57,0.46-0.87c0.12-0.3,0.22-0.61,0.28-0.93c0.07-0.33,0.1-0.65,0.1-0.98s-0.03-0.66-0.1-0.98
			C191.06,402.68,190.96,402.37,190.84,402.07z"/>
		<path class="st0" d="M318.4,94.11c-0.13-0.3-0.28-0.6-0.46-0.87c-0.18-0.27-0.39-0.53-0.62-0.76c-0.23-0.23-0.49-0.44-0.76-0.62
			c-0.28-0.18-0.57-0.33-0.87-0.46c-0.3-0.12-0.61-0.22-0.93-0.28c-0.65-0.13-1.31-0.13-1.96,0c-0.32,0.06-0.63,0.16-0.93,0.28
			c-0.3,0.13-0.6,0.28-0.87,0.46c-0.27,0.18-0.53,0.39-0.76,0.62c-0.23,0.23-0.44,0.49-0.62,0.76c-0.18,0.27-0.33,0.57-0.46,0.87
			c-0.12,0.3-0.22,0.61-0.28,0.93c-0.07,0.33-0.1,0.65-0.1,0.98c0,1.32,0.53,2.61,1.46,3.54c0.94,0.93,2.23,1.46,3.54,1.46
			c0.33,0,0.66-0.03,0.98-0.1c0.32-0.06,0.63-0.16,0.93-0.28c0.3-0.13,0.59-0.28,0.87-0.46c0.27-0.18,0.53-0.39,0.76-0.62
			c0.93-0.94,1.46-2.22,1.46-3.54c0-0.33-0.03-0.65-0.1-0.98C318.62,94.72,318.52,94.41,318.4,94.11z"/>
	</g>
</g>
</svg>
