<?xml version="1.0" encoding="utf-8"?>
<!-- Generator: Adobe Illustrator 23.0.0, SVG Export Plug-In . SVG Version: 6.00 Build 0)  -->
<svg version="1.1" xmlns="http://www.w3.org/2000/svg" xmlns:xlink="http://www.w3.org/1999/xlink" x="0px" y="0px"
	 viewBox="0 0 500 500" style="enable-background:new 0 0 500 500;" xml:space="preserve">
<style type="text/css">
	.st0{fill:#FFFFFF;}
</style>
<g id="BG">
	<rect width="500" height="500"/>
</g>
<g id="DESIGN">
	<g>
		<path class="st0" d="M338.98,250c0-49.07-39.92-88.98-88.98-88.98s-88.98,39.92-88.98,88.98s39.92,88.98,88.98,88.98
			S338.98,299.07,338.98,250z M250,328.98c-43.55,0-78.98-35.43-78.98-78.98s35.43-78.98,78.98-78.98
			c43.55,0,78.98,35.43,78.98,78.98S293.55,328.98,250,328.98z"/>
		<path class="st0" d="M88.29,270.38l-9.92,1.24c4.72,37.84,22.24,73.6,49.32,100.69c27.09,27.09,62.85,44.6,100.69,49.32l1.24-9.92
			c-35.65-4.45-69.34-20.95-94.86-46.47C109.24,339.71,92.74,306.03,88.29,270.38z"/>
		<path class="st0" d="M365.23,365.23c-25.52,25.52-59.21,42.03-94.86,46.47l1.24,9.92c37.84-4.72,73.6-22.24,100.69-49.32
			c27.09-27.09,44.6-62.85,49.32-100.69l-9.92-1.24C407.26,306.03,390.76,339.71,365.23,365.23z"/>
		<path class="st0" d="M411.71,229.62l9.92-1.24c-4.72-37.84-22.24-73.6-49.32-100.69c-27.09-27.09-62.85-44.6-100.69-49.32
			l-1.24,9.92c35.65,4.45,69.34,20.95,94.86,46.47C390.76,160.29,407.26,193.97,411.71,229.62z"/>
		<path class="st0" d="M134.77,134.77c25.52-25.52,59.21-42.03,94.86-46.47l-1.24-9.92c-37.84,4.72-73.6,22.24-100.69,49.32
			c-27.09,27.09-44.6,62.85-49.32,100.69l9.92,1.24C92.74,193.97,109.24,160.29,134.77,134.77z"/>
	</g>
</g>
</svg>
