<?xml version="1.0" encoding="utf-8"?>
<!-- Generator: Adobe Illustrator 23.0.0, SVG Export Plug-In . SVG Version: 6.00 Build 0)  -->
<svg version="1.1" xmlns="http://www.w3.org/2000/svg" xmlns:xlink="http://www.w3.org/1999/xlink" x="0px" y="0px"
	 viewBox="0 0 500 500" style="enable-background:new 0 0 500 500;" xml:space="preserve">
<style type="text/css">
	.st0{fill:#FFFFFF;}
</style>
<g id="BG">
	<rect width="500" height="500"/>
</g>
<g id="DESIGN">
	<path class="st0" d="M335.4,255h81.26v-10H335.4l-36.67-36.67L420.2,86.87l-7.07-7.07L291.67,201.26L255,164.6V83.33h-10v81.26
		l-36.67,36.67L86.87,79.8l-7.07,7.07l121.46,121.46L164.6,245H83.33v10h81.26l36.67,36.67L79.8,413.13l7.07,7.07l121.46-121.46
		L245,335.4v81.26h10V335.4l36.67-36.67L413.13,420.2l7.07-7.07L298.74,291.67L335.4,255z M250,326.26L173.74,250L250,173.74
		L326.26,250L250,326.26z"/>
</g>
</svg>
