<?xml version="1.0" encoding="utf-8"?>
<!-- Generator: Adobe Illustrator 23.0.0, SVG Export Plug-In . SVG Version: 6.00 Build 0)  -->
<svg version="1.1" xmlns="http://www.w3.org/2000/svg" xmlns:xlink="http://www.w3.org/1999/xlink" x="0px" y="0px"
	 viewBox="0 0 500 500" style="enable-background:new 0 0 500 500;" xml:space="preserve">
<style type="text/css">
	.st0{fill:#FFFFFF;}
</style>
<g id="BG">
	<rect x="0" width="500" height="500"/>
</g>
<g id="DESIGN">
	<g>
		<path class="st0" d="M186.03,313.93h127.85V186.07H186.03V313.93z M196.03,196.07h107.85v107.85H196.03V196.07z"/>
		<path class="st0" d="M128.57,128.61C96.12,161.06,78.25,204.17,78.25,250s17.87,88.94,50.32,121.39l7.07-7.07
			C105.08,333.76,88.25,293.16,88.25,250s16.83-83.76,47.39-114.32L128.57,128.61z"/>
		<path class="st0" d="M371.35,128.61l-7.07,7.07c30.56,30.56,47.39,71.16,47.39,114.32s-16.83,83.76-47.39,114.32l7.07,7.07
			c32.45-32.45,50.32-75.56,50.32-121.39S403.8,161.06,371.35,128.61z"/>
	</g>
</g>
</svg>
