<?xml version="1.0" encoding="utf-8"?>
<!-- Generator: Adobe Illustrator 23.0.0, SVG Export Plug-In . SVG Version: 6.00 Build 0)  -->
<svg version="1.1" xmlns="http://www.w3.org/2000/svg" xmlns:xlink="http://www.w3.org/1999/xlink" x="0px" y="0px"
	 viewBox="0 0 500 500" style="enable-background:new 0 0 500 500;" xml:space="preserve">
<style type="text/css">
	.st0{fill:#FFFFFF;}
</style>
<g id="BG">
	<rect width="500" height="500"/>
</g>
<g id="DESIGN">
	<path class="st0" d="M398.7,164.17c-47.33-81.97-152.53-110.16-234.5-62.83c-26.06,15.05-47.79,36.78-62.83,62.83
		c-22.93,39.71-29.02,85.97-17.15,130.26c11.87,44.29,40.27,81.31,79.98,104.24c26.06,15.05,55.74,23,85.83,23
		c94.66,0,171.67-77.01,171.67-171.67C421.69,219.91,413.74,190.23,398.7,164.17z M114.35,171.67h271.35l-135.68,235L114.35,171.67z
		 M169.19,109.99c25.4-14.66,53.15-21.63,80.56-21.63c53.15,0,104.96,26.22,135.65,73.3H114.65
		C128.5,140.46,147.2,122.7,169.19,109.99z M93.87,291.84c-10.41-38.87-6.14-79.34,11.96-114.93l135.39,234.5
		c-25.29-1.39-50.03-8.7-72.02-21.4C131.8,368.42,105.05,333.55,93.87,291.84z M258.83,411.42l135.39-234.5
		c11.45,22.6,17.48,47.68,17.48,73.07C411.69,336.19,343.89,406.84,258.83,411.42z"/>
</g>
</svg>
