<?xml version="1.0" encoding="utf-8"?>
<!-- Generator: Adobe Illustrator 23.0.0, SVG Export Plug-In . SVG Version: 6.00 Build 0)  -->
<svg version="1.1" xmlns="http://www.w3.org/2000/svg" xmlns:xlink="http://www.w3.org/1999/xlink" x="0px" y="0px"
	 viewBox="0 0 500 500" style="enable-background:new 0 0 500 500;" xml:space="preserve">
<style type="text/css">
	.st0{fill:#FFFFFF;}
</style>
<g id="BG">
	<rect x="0" width="500" height="500"/>
</g>
<g id="DESIGN">
	<g>
		<path class="st0" d="M421.28,248.09c-0.12-0.3-0.28-0.59-0.46-0.86c-0.18-0.28-0.39-0.53-0.62-0.77
			c-0.23-0.23-0.48-0.44-0.76-0.62c-0.27-0.18-0.56-0.33-0.86-0.46c-0.3-0.12-0.62-0.22-0.94-0.28c-0.64-0.13-1.31-0.13-1.95,0
			c-0.32,0.06-0.63,0.16-0.94,0.28c-0.3,0.13-0.59,0.28-0.86,0.46s-0.53,0.39-0.76,0.62c-0.23,0.24-0.44,0.49-0.62,0.77
			c-0.18,0.27-0.34,0.56-0.46,0.86c-0.13,0.3-0.22,0.61-0.28,0.93c-0.07,0.33-0.1,0.66-0.1,0.98c0,0.33,0.03,0.66,0.1,0.98
			c0.06,0.32,0.15,0.63,0.28,0.93c0.12,0.3,0.28,0.59,0.46,0.87c0.18,0.27,0.39,0.52,0.62,0.76c0.23,0.23,0.49,0.44,0.76,0.62
			c0.27,0.18,0.56,0.33,0.86,0.46c0.31,0.12,0.62,0.22,0.94,0.28c0.32,0.07,0.65,0.1,0.98,0.1c0.32,0,0.65-0.03,0.97-0.1
			c0.32-0.06,0.64-0.16,0.94-0.28c0.3-0.13,0.59-0.28,0.86-0.46c0.28-0.18,0.53-0.39,0.76-0.62c0.93-0.94,1.47-2.22,1.47-3.54
			c0-0.32-0.04-0.65-0.1-0.98C421.51,248.71,421.41,248.39,421.28,248.09z"/>
		<path class="st0" d="M421.28,331.42c-0.12-0.3-0.28-0.59-0.46-0.86c-0.18-0.28-0.39-0.53-0.62-0.76
			c-0.23-0.23-0.48-0.44-0.76-0.62c-0.27-0.18-0.56-0.34-0.86-0.46c-0.3-0.13-0.62-0.22-0.94-0.29c-1.62-0.33-3.35,0.21-4.51,1.37
			c-0.23,0.23-0.44,0.48-0.62,0.76c-0.18,0.27-0.33,0.56-0.46,0.86c-0.12,0.3-0.22,0.62-0.28,0.94c-0.07,0.32-0.1,0.65-0.1,0.97
			c0,0.33,0.03,0.66,0.1,0.98c0.06,0.32,0.16,0.64,0.28,0.94c0.13,0.3,0.28,0.59,0.46,0.86c0.18,0.27,0.39,0.53,0.62,0.76
			c0.23,0.23,0.49,0.44,0.76,0.62c0.27,0.18,0.56,0.33,0.86,0.46c0.3,0.12,0.62,0.22,0.94,0.28c0.32,0.07,0.65,0.1,0.98,0.1
			c0.32,0,0.65-0.03,0.97-0.1c0.32-0.06,0.64-0.16,0.94-0.28c0.3-0.13,0.59-0.28,0.86-0.46c0.28-0.18,0.53-0.39,0.76-0.62
			c0.93-0.93,1.47-2.22,1.47-3.54c0-0.32-0.04-0.65-0.1-0.97C421.5,332.04,421.41,331.72,421.28,331.42z"/>
		<path class="st0" d="M419.44,412.51c-0.27-0.18-0.56-0.33-0.86-0.46c-0.3-0.12-0.62-0.22-0.94-0.28c-0.64-0.13-1.31-0.13-1.95,0
			c-0.32,0.06-0.63,0.16-0.94,0.28c-0.3,0.13-0.59,0.28-0.86,0.46s-0.53,0.39-0.76,0.62c-0.93,0.93-1.46,2.22-1.46,3.54
			c0,0.32,0.03,0.65,0.1,0.97c0.06,0.32,0.16,0.64,0.28,0.94c0.13,0.3,0.28,0.59,0.46,0.86c0.18,0.28,0.39,0.53,0.62,0.76
			c0.23,0.23,0.49,0.44,0.76,0.62c0.27,0.18,0.56,0.34,0.86,0.46c0.31,0.13,0.62,0.22,0.94,0.29c0.32,0.06,0.65,0.1,0.98,0.1
			c0.32,0,0.65-0.04,0.97-0.1c0.32-0.07,0.64-0.16,0.94-0.29c0.3-0.12,0.59-0.28,0.86-0.46c0.28-0.18,0.53-0.39,0.76-0.62
			c0.23-0.23,0.44-0.48,0.62-0.76c0.18-0.27,0.34-0.56,0.46-0.86c0.13-0.3,0.23-0.62,0.29-0.94s0.1-0.65,0.1-0.97
			c0-1.32-0.54-2.61-1.47-3.54C419.97,412.9,419.72,412.69,419.44,412.51z"/>
		<path class="st0" d="M337.95,248.09c-0.12-0.3-0.28-0.59-0.46-0.86c-0.18-0.28-0.39-0.53-0.62-0.77
			c-0.23-0.23-0.49-0.44-0.76-0.62s-0.56-0.33-0.86-0.46c-0.31-0.12-0.62-0.22-0.94-0.28c-0.64-0.13-1.31-0.13-1.95,0
			c-0.32,0.06-0.64,0.16-0.94,0.28c-0.3,0.13-0.59,0.28-0.86,0.46c-0.28,0.18-0.53,0.39-0.76,0.62c-0.23,0.24-0.44,0.49-0.62,0.77
			c-0.18,0.27-0.34,0.56-0.46,0.86c-0.13,0.3-0.22,0.61-0.29,0.93c-0.06,0.33-0.1,0.66-0.1,0.98c0,0.33,0.04,0.66,0.1,0.98
			c0.07,0.32,0.16,0.63,0.29,0.93c0.12,0.3,0.28,0.59,0.46,0.87c0.18,0.27,0.39,0.52,0.62,0.76c0.23,0.23,0.48,0.44,0.76,0.62
			c0.27,0.18,0.56,0.33,0.86,0.46c0.3,0.12,0.62,0.22,0.94,0.28c0.32,0.07,0.65,0.1,0.97,0.1c0.33,0,0.66-0.03,0.98-0.1
			c0.32-0.06,0.63-0.16,0.94-0.28c0.3-0.13,0.59-0.28,0.86-0.46c0.27-0.18,0.53-0.39,0.76-0.62c0.93-0.94,1.46-2.22,1.46-3.54
			c0-0.32-0.03-0.65-0.09-0.98C338.17,248.71,338.08,248.39,337.95,248.09z"/>
		<path class="st0" d="M337.95,331.42c-0.12-0.3-0.28-0.59-0.46-0.86c-0.18-0.28-0.39-0.53-0.62-0.76
			c-0.23-0.23-0.49-0.44-0.76-0.62s-0.56-0.34-0.86-0.46c-0.31-0.13-0.62-0.22-0.94-0.29c-0.64-0.13-1.31-0.13-1.95,0
			c-0.32,0.07-0.64,0.16-0.94,0.29c-0.3,0.12-0.59,0.28-0.86,0.46c-0.28,0.18-0.53,0.39-0.76,0.62c-0.23,0.23-0.44,0.48-0.62,0.76
			c-0.18,0.27-0.34,0.56-0.46,0.86c-0.13,0.3-0.22,0.62-0.29,0.94c-0.06,0.32-0.1,0.65-0.1,0.97c0,1.32,0.54,2.61,1.47,3.54
			c0.23,0.23,0.48,0.44,0.76,0.62c0.27,0.18,0.56,0.33,0.86,0.46c0.3,0.12,0.62,0.22,0.94,0.28c0.32,0.07,0.65,0.1,0.97,0.1
			c0.33,0,0.66-0.03,0.98-0.1c0.32-0.06,0.63-0.16,0.94-0.28c0.3-0.13,0.59-0.28,0.86-0.46c0.27-0.18,0.53-0.39,0.76-0.62
			c0.93-0.93,1.46-2.22,1.46-3.54c0-0.32-0.03-0.65-0.09-0.97C338.17,332.04,338.08,331.72,337.95,331.42z"/>
		<path class="st0" d="M336.11,412.51c-0.27-0.18-0.56-0.33-0.86-0.46c-0.31-0.12-0.62-0.22-0.94-0.28c-0.64-0.13-1.31-0.13-1.95,0
			c-0.32,0.06-0.64,0.16-0.94,0.28c-0.3,0.13-0.59,0.28-0.86,0.46c-0.28,0.18-0.53,0.39-0.76,0.62c-0.93,0.93-1.47,2.22-1.47,3.54
			c0,0.32,0.04,0.65,0.1,0.97c0.07,0.32,0.16,0.64,0.29,0.94c0.12,0.3,0.28,0.59,0.46,0.86c0.18,0.28,0.39,0.53,0.62,0.76
			c0.23,0.23,0.48,0.44,0.76,0.62c0.27,0.18,0.56,0.34,0.86,0.46c0.3,0.13,0.62,0.22,0.94,0.29c0.32,0.06,0.65,0.1,0.97,0.1
			c0.33,0,0.66-0.04,0.98-0.1c0.32-0.07,0.63-0.16,0.94-0.29c0.3-0.12,0.59-0.28,0.86-0.46c0.27-0.18,0.53-0.39,0.76-0.62
			c0.23-0.23,0.44-0.48,0.62-0.76c0.18-0.27,0.34-0.56,0.46-0.86c0.13-0.3,0.22-0.62,0.29-0.94c0.06-0.32,0.09-0.65,0.09-0.97
			c0-1.32-0.53-2.61-1.46-3.54C336.64,412.9,336.38,412.69,336.11,412.51z"/>
		<path class="st0" d="M254.62,248.09c-0.13-0.3-0.28-0.59-0.46-0.86c-0.18-0.28-0.39-0.53-0.62-0.77
			c-0.23-0.23-0.49-0.44-0.76-0.62c-0.28-0.18-0.57-0.33-0.87-0.46c-0.3-0.12-0.61-0.22-0.93-0.28c-0.65-0.13-1.31-0.13-1.96,0
			c-0.32,0.06-0.63,0.16-0.93,0.28c-0.3,0.13-0.6,0.28-0.87,0.46c-0.27,0.19-0.53,0.39-0.76,0.62c-0.23,0.24-0.44,0.49-0.62,0.77
			c-0.18,0.27-0.33,0.56-0.46,0.86c-0.12,0.3-0.22,0.61-0.28,0.93c-0.07,0.33-0.1,0.66-0.1,0.98c0,0.33,0.03,0.66,0.1,0.98
			c0.06,0.32,0.16,0.63,0.28,0.93c0.13,0.3,0.28,0.59,0.46,0.87c0.18,0.27,0.39,0.52,0.62,0.76c0.23,0.23,0.49,0.43,0.76,0.62
			c0.27,0.18,0.57,0.33,0.87,0.46c0.3,0.12,0.61,0.22,0.93,0.28c0.33,0.07,0.65,0.1,0.98,0.1c0.33,0,0.65-0.03,0.98-0.1
			c0.32-0.06,0.63-0.16,0.93-0.28c0.3-0.13,0.59-0.28,0.87-0.46c0.27-0.18,0.53-0.39,0.76-0.62c0.23-0.24,0.44-0.49,0.62-0.76
			c0.18-0.28,0.33-0.57,0.46-0.87c0.12-0.3,0.22-0.61,0.28-0.93c0.07-0.32,0.1-0.65,0.1-0.98c0-0.32-0.03-0.65-0.1-0.98
			C254.84,248.7,254.74,248.39,254.62,248.09z"/>
		<path class="st0" d="M254.62,331.42c-0.13-0.3-0.28-0.59-0.46-0.86c-0.18-0.28-0.39-0.53-0.62-0.76
			c-0.23-0.23-0.49-0.44-0.76-0.62c-0.28-0.18-0.57-0.34-0.87-0.46c-0.3-0.13-0.61-0.22-0.93-0.29c-0.65-0.13-1.31-0.13-1.96,0
			c-0.32,0.07-0.63,0.16-0.93,0.29c-0.3,0.12-0.59,0.28-0.86,0.46c-0.28,0.18-0.54,0.39-0.77,0.62c-0.23,0.23-0.44,0.48-0.62,0.76
			c-0.18,0.27-0.33,0.56-0.46,0.86c-0.12,0.3-0.22,0.62-0.28,0.94c-0.07,0.32-0.1,0.65-0.1,0.97c0,1.32,0.53,2.61,1.46,3.54
			c0.23,0.23,0.49,0.44,0.77,0.62c0.27,0.18,0.56,0.33,0.86,0.46c0.3,0.12,0.61,0.22,0.93,0.28c0.33,0.07,0.65,0.1,0.98,0.1
			c0.33,0,0.65-0.03,0.98-0.1c0.32-0.06,0.63-0.16,0.93-0.28c0.3-0.13,0.59-0.28,0.87-0.46c0.27-0.18,0.53-0.39,0.76-0.62
			c0.23-0.23,0.44-0.49,0.62-0.76c0.18-0.27,0.33-0.56,0.46-0.86c0.12-0.3,0.22-0.62,0.28-0.94c0.07-0.32,0.1-0.65,0.1-0.98
			c0-0.32-0.03-0.65-0.1-0.97C254.84,332.04,254.74,331.72,254.62,331.42z"/>
		<path class="st0" d="M252.78,412.51c-0.28-0.18-0.57-0.33-0.87-0.46c-0.3-0.12-0.61-0.22-0.93-0.28c-0.65-0.13-1.31-0.13-1.96,0
			c-0.32,0.06-0.63,0.16-0.93,0.28c-0.3,0.13-0.59,0.28-0.87,0.46c-0.27,0.18-0.53,0.39-0.76,0.62c-0.93,0.93-1.46,2.22-1.46,3.54
			c0,0.32,0.03,0.65,0.1,0.97c0.06,0.32,0.16,0.64,0.28,0.94c0.13,0.3,0.28,0.59,0.46,0.86c0.18,0.28,0.39,0.53,0.62,0.76
			c0.23,0.23,0.49,0.44,0.76,0.62c0.28,0.18,0.57,0.34,0.87,0.46c0.3,0.13,0.61,0.22,0.93,0.29c0.33,0.06,0.65,0.1,0.98,0.1
			c0.33,0,0.65-0.04,0.98-0.1c0.32-0.07,0.63-0.16,0.93-0.29c0.3-0.12,0.59-0.28,0.87-0.46c0.27-0.18,0.53-0.39,0.76-0.62
			c0.23-0.23,0.44-0.48,0.62-0.76c0.18-0.27,0.33-0.56,0.46-0.86c0.12-0.3,0.22-0.62,0.28-0.94c0.07-0.32,0.1-0.65,0.1-0.97
			c0-1.32-0.53-2.61-1.46-3.54C253.31,412.9,253.05,412.69,252.78,412.51z"/>
		<path class="st0" d="M171.28,248.09c-0.12-0.3-0.28-0.59-0.46-0.86c-0.18-0.28-0.39-0.53-0.62-0.77
			c-0.23-0.23-0.48-0.44-0.76-0.62c-0.27-0.18-0.56-0.33-0.86-0.46c-0.3-0.12-0.62-0.22-0.94-0.28c-0.64-0.13-1.31-0.13-1.95,0
			c-0.32,0.06-0.64,0.16-0.94,0.28c-0.3,0.13-0.59,0.28-0.86,0.46s-0.53,0.39-0.76,0.62c-0.23,0.24-0.44,0.49-0.62,0.77
			c-0.18,0.27-0.34,0.56-0.46,0.86c-0.13,0.3-0.22,0.62-0.29,0.93c-0.06,0.33-0.09,0.66-0.09,0.98c0,1.32,0.53,2.6,1.46,3.54
			c0.23,0.23,0.49,0.44,0.76,0.62c0.27,0.18,0.56,0.33,0.86,0.46c0.3,0.12,0.62,0.22,0.94,0.28c0.32,0.07,0.65,0.1,0.98,0.1
			c0.32,0,0.65-0.03,0.97-0.1c0.32-0.06,0.64-0.16,0.94-0.28c0.3-0.13,0.59-0.28,0.86-0.46c0.28-0.18,0.53-0.39,0.76-0.62
			c0.93-0.94,1.47-2.23,1.47-3.54c0-0.32-0.04-0.65-0.1-0.98C171.5,248.71,171.41,248.39,171.28,248.09z"/>
		<path class="st0" d="M171.28,331.42c-0.12-0.3-0.28-0.59-0.46-0.86c-0.18-0.28-0.39-0.53-0.62-0.76
			c-0.23-0.23-0.48-0.44-0.76-0.62c-0.27-0.18-0.56-0.34-0.86-0.46c-0.3-0.13-0.62-0.22-0.94-0.29c-0.64-0.13-1.31-0.13-1.95,0
			c-0.32,0.07-0.63,0.16-0.94,0.29c-0.3,0.12-0.59,0.28-0.86,0.46s-0.53,0.39-0.76,0.62c-0.23,0.23-0.44,0.48-0.62,0.76
			c-0.18,0.27-0.34,0.56-0.46,0.86s-0.22,0.62-0.28,0.94c-0.07,0.32-0.1,0.65-0.1,0.97c0,0.33,0.03,0.66,0.1,0.98
			c0.06,0.32,0.16,0.64,0.28,0.94s0.28,0.59,0.46,0.86c0.18,0.27,0.39,0.53,0.62,0.76c0.93,0.93,2.22,1.46,3.54,1.46
			c0.32,0,0.65-0.03,0.97-0.1c0.32-0.06,0.64-0.16,0.94-0.28c0.3-0.13,0.59-0.28,0.86-0.46c0.28-0.18,0.53-0.39,0.76-0.62
			c0.93-0.93,1.47-2.22,1.47-3.54c0-0.32-0.04-0.65-0.1-0.97C171.5,332.04,171.41,331.72,171.28,331.42z"/>
		<path class="st0" d="M169.44,412.51c-0.27-0.18-0.56-0.33-0.86-0.46c-0.3-0.12-0.62-0.22-0.94-0.28c-0.64-0.13-1.31-0.13-1.95,0
			c-0.32,0.06-0.63,0.16-0.94,0.28c-0.3,0.13-0.59,0.28-0.86,0.46s-0.53,0.39-0.76,0.62c-0.93,0.93-1.46,2.22-1.46,3.54
			c0,0.32,0.03,0.65,0.09,0.97c0.07,0.32,0.16,0.64,0.29,0.94c0.12,0.3,0.28,0.59,0.46,0.86c0.18,0.28,0.39,0.53,0.62,0.76
			c0.23,0.23,0.49,0.44,0.76,0.62c0.27,0.18,0.56,0.34,0.86,0.46c0.31,0.13,0.62,0.22,0.94,0.29c0.32,0.06,0.65,0.1,0.98,0.1
			c0.32,0,0.65-0.04,0.97-0.1c0.32-0.07,0.64-0.16,0.94-0.29c0.3-0.12,0.59-0.28,0.86-0.46c0.28-0.18,0.53-0.39,0.76-0.62
			c0.23-0.23,0.44-0.48,0.62-0.76c0.18-0.27,0.34-0.56,0.46-0.86c0.13-0.3,0.23-0.62,0.29-0.94c0.07-0.32,0.1-0.65,0.1-0.97
			c0-1.32-0.54-2.61-1.47-3.54C169.97,412.9,169.72,412.69,169.44,412.51z"/>
		<path class="st0" d="M87.95,248.09c-0.12-0.3-0.28-0.59-0.46-0.86c-0.18-0.28-0.39-0.53-0.62-0.77c-0.23-0.23-0.49-0.44-0.76-0.62
			s-0.56-0.33-0.86-0.46c-0.31-0.12-0.62-0.22-0.94-0.28c-0.64-0.13-1.31-0.13-1.95,0c-0.32,0.06-0.64,0.16-0.94,0.28
			c-0.3,0.13-0.59,0.28-0.86,0.46c-0.28,0.18-0.53,0.39-0.76,0.62c-0.23,0.24-0.44,0.49-0.62,0.77c-0.18,0.27-0.34,0.56-0.46,0.86
			c-0.13,0.3-0.22,0.62-0.29,0.93c-0.06,0.33-0.1,0.66-0.1,0.98c0,1.32,0.54,2.6,1.47,3.54c0.23,0.23,0.48,0.44,0.76,0.62
			c0.27,0.18,0.56,0.33,0.86,0.46c0.3,0.12,0.62,0.22,0.94,0.28c0.32,0.07,0.65,0.1,0.97,0.1c0.33,0,0.66-0.03,0.98-0.1
			c0.32-0.06,0.63-0.16,0.94-0.28c0.3-0.13,0.59-0.28,0.86-0.46c0.27-0.18,0.53-0.39,0.76-0.62c0.93-0.94,1.46-2.23,1.46-3.54
			c0-0.32-0.03-0.65-0.09-0.98C88.17,248.71,88.08,248.39,87.95,248.09z"/>
		<path class="st0" d="M419.44,162.51c-0.27-0.18-0.56-0.33-0.86-0.46c-0.3-0.12-0.62-0.22-0.94-0.28c-0.64-0.14-1.31-0.14-1.95,0
			c-0.32,0.06-0.63,0.16-0.94,0.28c-0.3,0.13-0.59,0.28-0.86,0.46s-0.53,0.39-0.76,0.62c-0.93,0.93-1.46,2.22-1.46,3.54
			c0,0.32,0.03,0.65,0.1,0.97c0.06,0.32,0.16,0.64,0.28,0.94c0.13,0.3,0.28,0.59,0.46,0.86c0.18,0.28,0.39,0.53,0.62,0.76
			c0.93,0.93,2.22,1.47,3.54,1.47c0.32,0,0.65-0.03,0.97-0.1c0.32-0.06,0.64-0.16,0.94-0.28c0.3-0.13,0.59-0.28,0.86-0.46
			c0.28-0.19,0.53-0.4,0.76-0.63c0.23-0.23,0.44-0.48,0.62-0.76c0.18-0.27,0.34-0.56,0.46-0.86c0.13-0.3,0.22-0.62,0.29-0.94
			c0.06-0.32,0.1-0.65,0.1-0.97c0-1.32-0.54-2.61-1.47-3.54C419.97,162.9,419.72,162.69,419.44,162.51z"/>
		<path class="st0" d="M337.95,164.75c-0.12-0.3-0.28-0.59-0.46-0.86c-0.18-0.27-0.39-0.53-0.62-0.76
			c-0.23-0.23-0.49-0.44-0.76-0.62s-0.56-0.33-0.86-0.46c-0.31-0.12-0.62-0.22-0.94-0.28c-0.64-0.14-1.31-0.14-1.95,0
			c-0.32,0.06-0.64,0.16-0.94,0.28c-0.3,0.13-0.59,0.28-0.86,0.46c-0.28,0.18-0.53,0.39-0.76,0.62c-0.23,0.23-0.44,0.49-0.62,0.76
			c-0.18,0.27-0.34,0.56-0.46,0.86c-0.13,0.3-0.23,0.62-0.29,0.94c-0.06,0.32-0.1,0.65-0.1,0.98c0,0.32,0.04,0.65,0.1,0.97
			s0.16,0.64,0.29,0.94c0.12,0.3,0.28,0.59,0.46,0.86c0.18,0.28,0.39,0.53,0.62,0.76c0.23,0.23,0.48,0.44,0.76,0.63
			c0.27,0.18,0.56,0.33,0.86,0.46c0.3,0.12,0.62,0.22,0.94,0.28c0.32,0.07,0.65,0.1,0.97,0.1c0.33,0,0.66-0.03,0.98-0.1
			c0.32-0.06,0.63-0.16,0.94-0.28c0.3-0.13,0.59-0.28,0.86-0.46c0.27-0.19,0.53-0.4,0.76-0.63c0.23-0.23,0.44-0.48,0.62-0.76
			c0.18-0.27,0.34-0.56,0.46-0.86c0.13-0.3,0.22-0.62,0.29-0.94c0.06-0.32,0.09-0.65,0.09-0.97c0-0.33-0.03-0.66-0.09-0.98
			C338.17,165.37,338.08,165.05,337.95,164.75z"/>
		<path class="st0" d="M252.78,162.51c-0.27-0.18-0.57-0.33-0.87-0.46c-0.3-0.12-0.61-0.22-0.93-0.28c-0.65-0.14-1.31-0.14-1.96,0
			c-0.32,0.06-0.63,0.16-0.93,0.28c-0.3,0.13-0.59,0.28-0.87,0.46c-0.27,0.18-0.53,0.39-0.76,0.62c-0.93,0.93-1.46,2.22-1.46,3.54
			c0,0.32,0.03,0.65,0.1,0.97c0.06,0.32,0.16,0.64,0.28,0.94c0.13,0.3,0.28,0.59,0.46,0.86c0.18,0.28,0.39,0.53,0.62,0.76
			c0.23,0.23,0.49,0.44,0.76,0.63c0.28,0.18,0.57,0.33,0.87,0.46c0.3,0.12,0.61,0.22,0.93,0.28c0.33,0.07,0.65,0.1,0.98,0.1
			c1.32,0,2.61-0.54,3.53-1.47c0.23-0.23,0.44-0.48,0.63-0.76c0.18-0.27,0.33-0.56,0.46-0.86c0.12-0.3,0.22-0.62,0.28-0.94
			c0.07-0.32,0.1-0.65,0.1-0.97c0-1.32-0.53-2.61-1.46-3.54C253.31,162.9,253.05,162.69,252.78,162.51z"/>
		<path class="st0" d="M171.28,164.75c-0.12-0.3-0.28-0.59-0.46-0.86c-0.18-0.27-0.39-0.53-0.62-0.76
			c-0.23-0.23-0.48-0.44-0.76-0.62c-0.27-0.18-0.56-0.33-0.86-0.46c-0.3-0.12-0.62-0.22-0.94-0.28c-1.62-0.33-3.35,0.2-4.51,1.36
			c-0.23,0.23-0.44,0.49-0.62,0.76c-0.18,0.27-0.34,0.56-0.46,0.86c-0.13,0.3-0.22,0.62-0.29,0.94c-0.06,0.32-0.09,0.65-0.09,0.98
			c0,0.32,0.03,0.65,0.09,0.97c0.07,0.32,0.16,0.64,0.29,0.94c0.12,0.3,0.28,0.59,0.46,0.86c0.18,0.28,0.39,0.53,0.62,0.76
			c0.93,0.93,2.22,1.47,3.54,1.47c0.32,0,0.65-0.03,0.97-0.1c0.32-0.06,0.64-0.16,0.94-0.28c0.3-0.13,0.59-0.28,0.86-0.46
			c0.28-0.19,0.53-0.4,0.76-0.63c0.23-0.23,0.44-0.48,0.62-0.76c0.18-0.27,0.34-0.56,0.46-0.86c0.13-0.3,0.23-0.62,0.29-0.94
			s0.1-0.65,0.1-0.97c0-0.33-0.04-0.66-0.1-0.98C171.51,165.37,171.41,165.05,171.28,164.75z"/>
		<path class="st0" d="M86.11,162.51c-0.27-0.18-0.56-0.33-0.86-0.46c-0.3-0.12-0.62-0.22-0.94-0.28c-0.64-0.14-1.31-0.14-1.95,0
			c-0.32,0.06-0.64,0.16-0.94,0.28c-0.3,0.13-0.59,0.28-0.86,0.46c-0.28,0.18-0.53,0.39-0.76,0.62c-0.23,0.23-0.44,0.49-0.62,0.76
			c-0.18,0.27-0.34,0.56-0.46,0.86c-0.13,0.3-0.22,0.62-0.29,0.94c-0.06,0.32-0.1,0.65-0.1,0.98c0,0.32,0.04,0.65,0.1,0.97
			c0.07,0.32,0.16,0.64,0.29,0.94c0.12,0.3,0.28,0.59,0.46,0.86c0.18,0.28,0.39,0.53,0.62,0.76c0.23,0.23,0.48,0.44,0.76,0.63
			c0.27,0.18,0.56,0.33,0.86,0.46c0.3,0.12,0.62,0.22,0.94,0.28c0.32,0.07,0.65,0.1,0.97,0.1c0.33,0,0.66-0.03,0.98-0.1
			c0.32-0.06,0.63-0.16,0.94-0.28c0.3-0.13,0.59-0.28,0.86-0.46c0.27-0.19,0.53-0.4,0.76-0.63c0.23-0.23,0.44-0.48,0.62-0.76
			c0.18-0.27,0.33-0.56,0.46-0.86c0.12-0.3,0.22-0.62,0.28-0.94c0.07-0.32,0.1-0.65,0.1-0.97c0-1.32-0.53-2.61-1.46-3.54
			C86.64,162.9,86.38,162.69,86.11,162.51z"/>
		<path class="st0" d="M412.05,85.25c0.12,0.3,0.28,0.59,0.46,0.86c0.18,0.27,0.39,0.53,0.62,0.76c0.23,0.23,0.49,0.44,0.76,0.62
			c0.27,0.18,0.56,0.34,0.86,0.46c0.31,0.13,0.62,0.22,0.94,0.29c0.32,0.06,0.65,0.09,0.98,0.09c0.32,0,0.65-0.03,0.97-0.09
			c0.32-0.07,0.64-0.16,0.94-0.29c0.3-0.12,0.59-0.28,0.86-0.46c0.28-0.18,0.53-0.39,0.76-0.62c0.23-0.23,0.44-0.49,0.62-0.76
			c0.18-0.27,0.34-0.56,0.46-0.86c0.13-0.3,0.23-0.62,0.29-0.94s0.1-0.65,0.1-0.98c0-0.32-0.04-0.65-0.1-0.97
			c-0.06-0.32-0.16-0.64-0.29-0.94c-0.12-0.3-0.28-0.59-0.46-0.86c-0.18-0.28-0.39-0.53-0.62-0.76c-0.23-0.23-0.48-0.44-0.76-0.62
			c-0.27-0.18-0.56-0.34-0.86-0.46c-0.3-0.13-0.62-0.22-0.94-0.29c-0.64-0.13-1.31-0.13-1.95,0c-0.32,0.07-0.63,0.16-0.94,0.29
			c-0.3,0.12-0.59,0.28-0.86,0.46s-0.53,0.39-0.76,0.62c-0.23,0.23-0.44,0.48-0.62,0.76c-0.18,0.27-0.34,0.56-0.46,0.86
			c-0.13,0.3-0.22,0.62-0.29,0.94c-0.06,0.32-0.09,0.65-0.09,0.97c0,0.33,0.03,0.66,0.09,0.98
			C411.83,84.63,411.92,84.95,412.05,85.25z"/>
		<path class="st0" d="M337.95,81.42c-0.12-0.3-0.28-0.59-0.46-0.86c-0.18-0.28-0.39-0.53-0.62-0.76c-0.23-0.23-0.49-0.44-0.76-0.62
			s-0.56-0.34-0.86-0.46c-0.31-0.13-0.62-0.22-0.94-0.29c-0.65-0.13-1.31-0.13-1.95,0c-0.32,0.07-0.64,0.16-0.94,0.29
			c-0.3,0.12-0.59,0.28-0.86,0.46c-0.28,0.18-0.53,0.39-0.76,0.62c-0.23,0.23-0.44,0.48-0.63,0.76c-0.18,0.27-0.33,0.56-0.45,0.86
			c-0.13,0.3-0.23,0.62-0.29,0.94c-0.06,0.32-0.1,0.65-0.1,0.97c0,0.33,0.04,0.66,0.1,0.98s0.16,0.64,0.29,0.94
			c0.12,0.3,0.28,0.59,0.46,0.86c0.18,0.27,0.39,0.53,0.62,0.76c0.93,0.93,2.22,1.46,3.53,1.46c0.33,0,0.66-0.03,0.98-0.09
			c0.32-0.07,0.63-0.16,0.94-0.29c0.3-0.12,0.59-0.28,0.86-0.46c0.27-0.18,0.53-0.39,0.76-0.62c0.23-0.23,0.44-0.49,0.62-0.76
			c0.18-0.27,0.34-0.56,0.46-0.86c0.13-0.3,0.22-0.62,0.29-0.94c0.06-0.32,0.09-0.65,0.09-0.98c0-0.32-0.03-0.65-0.09-0.97
			C338.17,82.04,338.08,81.72,337.95,81.42z"/>
		<path class="st0" d="M254.62,81.42c-0.13-0.3-0.28-0.59-0.46-0.86c-0.19-0.28-0.39-0.53-0.63-0.76c-1.16-1.16-2.88-1.7-4.51-1.37
			c-0.31,0.07-0.63,0.16-0.93,0.29c-0.3,0.12-0.59,0.28-0.86,0.46c-0.28,0.18-0.53,0.39-0.76,0.62c-0.24,0.23-0.44,0.48-0.63,0.76
			c-0.18,0.27-0.33,0.56-0.46,0.86c-0.12,0.3-0.22,0.62-0.28,0.94c-0.07,0.32-0.1,0.65-0.1,0.97c0,0.33,0.03,0.66,0.1,0.98
			c0.06,0.32,0.16,0.64,0.28,0.94c0.13,0.3,0.28,0.59,0.46,0.86c0.19,0.27,0.39,0.53,0.63,0.76c0.23,0.23,0.48,0.44,0.76,0.62
			c0.27,0.18,0.56,0.34,0.86,0.46c0.3,0.13,0.62,0.22,0.93,0.29c0.33,0.06,0.66,0.09,0.98,0.09c1.32,0,2.6-0.53,3.53-1.46
			c0.24-0.23,0.44-0.49,0.63-0.76c0.18-0.27,0.33-0.56,0.46-0.86c0.12-0.3,0.22-0.62,0.28-0.94c0.07-0.32,0.1-0.65,0.1-0.98
			c0-0.32-0.03-0.65-0.1-0.97C254.84,82.04,254.74,81.72,254.62,81.42z"/>
		<path class="st0" d="M171.28,81.42c-0.12-0.3-0.28-0.59-0.46-0.86c-0.18-0.28-0.39-0.53-0.62-0.76c-0.23-0.23-0.48-0.44-0.76-0.62
			c-0.27-0.18-0.56-0.34-0.86-0.46c-0.3-0.13-0.62-0.22-0.94-0.29c-0.64-0.13-1.31-0.13-1.95,0c-0.32,0.07-0.63,0.16-0.94,0.29
			c-0.3,0.12-0.59,0.28-0.86,0.46s-0.53,0.39-0.76,0.62c-0.23,0.23-0.44,0.48-0.62,0.76c-0.18,0.27-0.34,0.56-0.46,0.86
			c-0.13,0.3-0.22,0.62-0.29,0.94c-0.06,0.32-0.09,0.65-0.09,0.97c0,0.33,0.03,0.66,0.09,0.98c0.07,0.32,0.16,0.64,0.29,0.94
			c0.12,0.3,0.28,0.59,0.46,0.86c0.18,0.27,0.39,0.53,0.62,0.76c0.23,0.23,0.49,0.44,0.76,0.62c0.27,0.18,0.56,0.34,0.86,0.46
			c0.31,0.13,0.62,0.22,0.94,0.29c0.32,0.06,0.65,0.09,0.98,0.09c0.32,0,0.65-0.03,0.97-0.09c0.32-0.07,0.64-0.16,0.94-0.29
			c0.3-0.12,0.59-0.28,0.86-0.46c0.28-0.18,0.53-0.39,0.76-0.62c0.23-0.23,0.44-0.49,0.62-0.76c0.18-0.27,0.34-0.56,0.46-0.86
			c0.13-0.3,0.23-0.62,0.29-0.94s0.1-0.65,0.1-0.98c0-0.32-0.04-0.65-0.1-0.97C171.51,82.04,171.41,81.72,171.28,81.42z"/>
		<path class="st0" d="M87.95,81.42c-0.12-0.3-0.28-0.59-0.46-0.86c-0.18-0.28-0.39-0.53-0.62-0.76c-0.23-0.23-0.49-0.44-0.76-0.62
			s-0.56-0.34-0.86-0.46c-0.31-0.13-0.62-0.22-0.94-0.29c-0.65-0.13-1.31-0.13-1.95,0c-0.32,0.07-0.64,0.16-0.94,0.29
			c-0.3,0.12-0.59,0.28-0.86,0.46c-0.28,0.18-0.53,0.39-0.76,0.62c-0.23,0.23-0.44,0.48-0.63,0.76c-0.18,0.27-0.33,0.56-0.45,0.86
			c-0.13,0.3-0.23,0.62-0.29,0.94c-0.06,0.32-0.1,0.65-0.1,0.97c0,0.33,0.04,0.66,0.1,0.98s0.16,0.64,0.29,0.94
			c0.12,0.3,0.28,0.59,0.46,0.86c0.18,0.27,0.39,0.53,0.62,0.76c0.93,0.93,2.22,1.46,3.53,1.46c0.33,0,0.66-0.03,0.98-0.09
			c0.32-0.07,0.63-0.16,0.94-0.29c0.3-0.12,0.59-0.28,0.86-0.46c0.27-0.18,0.53-0.39,0.76-0.62c0.23-0.23,0.44-0.49,0.62-0.76
			c0.18-0.27,0.34-0.56,0.46-0.86c0.13-0.3,0.22-0.62,0.29-0.94c0.06-0.32,0.09-0.65,0.09-0.98c0-0.32-0.03-0.65-0.09-0.97
			C88.17,82.04,88.08,81.72,87.95,81.42z"/>
		<path class="st0" d="M87.95,331.42c-0.12-0.3-0.28-0.59-0.46-0.86c-0.18-0.28-0.39-0.53-0.62-0.76c-0.23-0.23-0.49-0.44-0.76-0.62
			s-0.56-0.34-0.86-0.46c-0.31-0.13-0.62-0.22-0.94-0.29c-0.64-0.13-1.31-0.13-1.95,0c-0.32,0.07-0.64,0.16-0.94,0.29
			c-0.3,0.12-0.59,0.28-0.86,0.46c-0.28,0.18-0.53,0.39-0.76,0.62c-0.23,0.23-0.44,0.48-0.62,0.76c-0.18,0.27-0.34,0.56-0.46,0.86
			c-0.13,0.3-0.22,0.62-0.29,0.94c-0.06,0.32-0.1,0.65-0.1,0.97c0,0.33,0.04,0.66,0.1,0.98c0.07,0.32,0.16,0.64,0.29,0.94
			c0.12,0.3,0.28,0.59,0.46,0.86c0.18,0.27,0.39,0.53,0.62,0.76c0.23,0.23,0.48,0.44,0.76,0.62c0.27,0.18,0.56,0.33,0.86,0.46
			c0.3,0.12,0.62,0.22,0.94,0.28c0.32,0.07,0.65,0.1,0.97,0.1c0.33,0,0.66-0.03,0.98-0.1c0.32-0.06,0.63-0.16,0.94-0.28
			c0.3-0.13,0.59-0.28,0.86-0.46c0.27-0.18,0.53-0.39,0.76-0.62c0.93-0.93,1.46-2.22,1.46-3.54c0-0.32-0.03-0.65-0.09-0.97
			C88.17,332.04,88.08,331.72,87.95,331.42z"/>
		<path class="st0" d="M86.11,412.51c-0.27-0.18-0.56-0.33-0.86-0.46c-0.31-0.12-0.62-0.22-0.94-0.28c-0.64-0.13-1.31-0.13-1.95,0
			c-0.32,0.06-0.64,0.16-0.94,0.28c-0.3,0.13-0.59,0.28-0.86,0.46c-0.28,0.18-0.53,0.39-0.76,0.62c-0.93,0.93-1.47,2.22-1.47,3.54
			c0,0.32,0.04,0.65,0.1,0.97c0.07,0.32,0.16,0.64,0.29,0.94c0.12,0.3,0.28,0.59,0.46,0.86c0.18,0.28,0.39,0.53,0.62,0.76
			c0.23,0.23,0.48,0.44,0.76,0.62c0.27,0.18,0.56,0.34,0.86,0.46c0.3,0.13,0.62,0.22,0.94,0.29c0.32,0.06,0.65,0.1,0.97,0.1
			c0.33,0,0.66-0.04,0.98-0.1c0.32-0.07,0.63-0.16,0.94-0.29c0.3-0.12,0.59-0.28,0.86-0.46c0.27-0.18,0.53-0.39,0.76-0.62
			c0.23-0.23,0.44-0.48,0.62-0.76c0.18-0.27,0.34-0.56,0.46-0.86c0.13-0.3,0.22-0.62,0.29-0.94c0.06-0.32,0.09-0.65,0.09-0.97
			c0-1.32-0.53-2.61-1.46-3.54C86.64,412.9,86.38,412.69,86.11,412.51z"/>
	</g>
</g>
</svg>
