<?xml version="1.0" encoding="utf-8"?>
<!-- Generator: Adobe Illustrator 23.0.0, SVG Export Plug-In . SVG Version: 6.00 Build 0)  -->
<svg version="1.1" xmlns="http://www.w3.org/2000/svg" xmlns:xlink="http://www.w3.org/1999/xlink" x="0px" y="0px"
	 viewBox="0 0 500 500" style="enable-background:new 0 0 500 500;" xml:space="preserve">
<style type="text/css">
	.st0{fill:#FFFFFF;}
</style>
<g id="BG">
	<rect x="0" width="500" height="500"/>
</g>
<g id="DESIGN">
	<g>
		<path class="st0" d="M358.34,365.27c0.27,0.18,0.56,0.33,0.86,0.46c0.3,0.12,0.62,0.22,0.94,0.28c0.32,0.07,0.65,0.1,0.97,0.1
			c0.33,0,0.66-0.03,0.98-0.1c0.32-0.06,0.63-0.16,0.93-0.28c0.31-0.13,0.6-0.28,0.87-0.46s0.53-0.39,0.76-0.62
			c0.23-0.23,0.44-0.49,0.62-0.76c0.18-0.27,0.33-0.56,0.46-0.87c0.12-0.3,0.22-0.61,0.28-0.93c0.07-0.32,0.1-0.65,0.1-0.98
			c0-1.31-0.53-2.6-1.46-3.53c-0.23-0.23-0.49-0.44-0.76-0.62c-0.27-0.18-0.56-0.34-0.87-0.46c-0.3-0.13-0.61-0.23-0.93-0.29
			c-0.65-0.13-1.31-0.13-1.95,0c-0.32,0.06-0.64,0.16-0.94,0.29c-0.3,0.12-0.59,0.28-0.86,0.46c-0.28,0.18-0.53,0.39-0.76,0.62
			c-0.23,0.23-0.44,0.48-0.63,0.76c-0.18,0.27-0.33,0.56-0.46,0.86c-0.12,0.3-0.22,0.62-0.28,0.93c-0.07,0.33-0.1,0.66-0.1,0.98
			c0,1.32,0.54,2.61,1.47,3.54C357.81,364.88,358.06,365.09,358.34,365.27z"/>
		<path class="st0" d="M300.94,307.47c0.12,0.3,0.28,0.59,0.46,0.86c0.18,0.28,0.39,0.53,0.62,0.76c0.93,0.93,2.22,1.47,3.54,1.47
			c0.32,0,0.65-0.04,0.97-0.1c0.32-0.07,0.64-0.16,0.94-0.29c0.3-0.12,0.59-0.28,0.86-0.46c0.28-0.18,0.53-0.39,0.76-0.62
			c0.23-0.23,0.44-0.48,0.62-0.76c0.18-0.27,0.34-0.56,0.46-0.86c0.13-0.3,0.23-0.62,0.29-0.94c0.06-0.32,0.1-0.65,0.1-0.97
			c0-0.33-0.04-0.66-0.1-0.98c-0.06-0.32-0.16-0.64-0.29-0.94c-0.12-0.3-0.28-0.59-0.46-0.86c-0.18-0.27-0.39-0.53-0.62-0.76
			c-0.23-0.23-0.48-0.44-0.76-0.62c-0.27-0.18-0.56-0.33-0.86-0.46c-0.3-0.12-0.62-0.22-0.94-0.28c-1.62-0.34-3.35,0.2-4.51,1.36
			c-0.23,0.23-0.44,0.49-0.62,0.76c-0.18,0.27-0.34,0.56-0.46,0.86c-0.13,0.3-0.22,0.62-0.29,0.94c-0.06,0.32-0.09,0.65-0.09,0.98
			c0,0.32,0.03,0.65,0.09,0.97C300.72,306.85,300.81,307.17,300.94,307.47z"/>
		<path class="st0" d="M300.94,363.02c0.12,0.31,0.28,0.6,0.46,0.87c0.18,0.27,0.39,0.53,0.62,0.76c0.23,0.23,0.49,0.44,0.76,0.62
			s0.56,0.33,0.86,0.46c0.31,0.12,0.62,0.22,0.94,0.28c0.32,0.07,0.65,0.1,0.98,0.1c0.32,0,0.65-0.03,0.97-0.1
			c0.32-0.06,0.64-0.16,0.94-0.28c0.3-0.13,0.59-0.28,0.86-0.46c0.27-0.18,0.53-0.39,0.76-0.62c0.93-0.93,1.47-2.22,1.47-3.54
			c0-0.32-0.04-0.65-0.1-0.98c-0.07-0.31-0.16-0.63-0.29-0.93c-0.12-0.3-0.28-0.59-0.46-0.86c-0.18-0.28-0.39-0.53-0.62-0.76
			c-0.23-0.23-0.49-0.44-0.76-0.62c-0.27-0.18-0.56-0.34-0.86-0.46c-0.3-0.13-0.62-0.23-0.94-0.29c-0.64-0.13-1.31-0.13-1.95,0
			c-0.32,0.06-0.63,0.16-0.94,0.29c-0.3,0.12-0.59,0.28-0.86,0.46c-0.27,0.18-0.53,0.39-0.76,0.62c-0.93,0.93-1.46,2.22-1.46,3.53
			c0,0.33,0.03,0.66,0.09,0.98C300.72,362.41,300.81,362.72,300.94,363.02z"/>
		<path class="st0" d="M250,255c1.32,0,2.61-0.53,3.53-1.47c0.94-0.93,1.47-2.21,1.47-3.53c0-1.31-0.53-2.6-1.46-3.54
			c-0.23-0.23-0.49-0.44-0.76-0.62s-0.56-0.33-0.87-0.46c-0.3-0.12-0.61-0.22-0.93-0.28c-0.65-0.13-1.31-0.13-1.96,0
			c-0.32,0.06-0.63,0.16-0.93,0.28c-0.31,0.13-0.6,0.28-0.87,0.46s-0.53,0.39-0.76,0.62c-0.93,0.94-1.46,2.23-1.46,3.54
			c0,1.32,0.53,2.6,1.47,3.53C247.39,254.47,248.68,255,250,255z"/>
		<path class="st0" d="M245.38,307.47c0.13,0.3,0.28,0.59,0.46,0.86c0.18,0.28,0.39,0.53,0.62,0.76c0.24,0.23,0.49,0.44,0.77,0.62
			c0.27,0.18,0.56,0.34,0.86,0.46c0.3,0.13,0.61,0.22,0.93,0.29c0.33,0.06,0.65,0.1,0.98,0.1c0.33,0,0.65-0.04,0.98-0.1
			c0.32-0.07,0.63-0.16,0.93-0.29c0.3-0.12,0.59-0.28,0.86-0.46c0.28-0.18,0.53-0.39,0.77-0.62c0.23-0.23,0.44-0.48,0.62-0.76
			c0.18-0.27,0.33-0.56,0.46-0.86c0.12-0.3,0.22-0.62,0.28-0.94c0.07-0.32,0.1-0.65,0.1-0.97c0-0.33-0.03-0.66-0.1-0.98
			c-0.06-0.32-0.16-0.64-0.28-0.94c-0.13-0.3-0.28-0.59-0.46-0.86c-0.18-0.27-0.39-0.53-0.62-0.76c-0.24-0.23-0.49-0.44-0.77-0.62
			c-0.27-0.18-0.56-0.33-0.86-0.46c-0.3-0.12-0.61-0.22-0.93-0.28c-0.65-0.14-1.31-0.14-1.96,0c-0.32,0.06-0.63,0.16-0.93,0.28
			c-0.3,0.13-0.59,0.28-0.86,0.46c-0.28,0.18-0.53,0.39-0.77,0.62c-0.23,0.23-0.44,0.49-0.62,0.76c-0.18,0.27-0.33,0.56-0.46,0.86
			c-0.12,0.3-0.22,0.62-0.28,0.94c-0.07,0.32-0.1,0.65-0.1,0.98c0,0.32,0.03,0.65,0.1,0.97
			C245.16,306.85,245.26,307.17,245.38,307.47z"/>
		<path class="st0" d="M245.38,363.02c0.13,0.31,0.28,0.6,0.46,0.87c0.18,0.27,0.39,0.53,0.62,0.76c0.23,0.23,0.49,0.44,0.76,0.62
			c0.28,0.18,0.57,0.33,0.87,0.46c0.3,0.12,0.61,0.22,0.93,0.28c0.33,0.07,0.65,0.1,0.98,0.1c0.33,0,0.65-0.03,0.98-0.1
			c0.32-0.06,0.63-0.16,0.93-0.28c0.3-0.13,0.59-0.28,0.86-0.46c0.28-0.18,0.53-0.39,0.77-0.62c0.93-0.93,1.46-2.22,1.46-3.54
			c0-0.32-0.03-0.65-0.1-0.98c-0.06-0.31-0.16-0.63-0.28-0.93c-0.13-0.3-0.28-0.59-0.46-0.86c-0.18-0.28-0.39-0.53-0.62-0.76
			c-0.24-0.23-0.49-0.44-0.77-0.62c-0.27-0.18-0.56-0.34-0.86-0.46c-0.3-0.13-0.61-0.23-0.93-0.29c-0.65-0.13-1.31-0.13-1.96,0
			c-0.32,0.06-0.63,0.16-0.93,0.29c-0.3,0.12-0.59,0.28-0.87,0.46c-0.27,0.18-0.53,0.39-0.76,0.62c-0.93,0.93-1.46,2.22-1.46,3.53
			c0,0.33,0.03,0.66,0.1,0.98C245.16,362.41,245.26,362.72,245.38,363.02z"/>
		<path class="st0" d="M194.44,255c0.33,0,0.66-0.03,0.98-0.1c0.32-0.06,0.64-0.16,0.94-0.28c0.3-0.13,0.59-0.28,0.86-0.46
			c0.27-0.19,0.53-0.4,0.76-0.63c0.93-0.92,1.46-2.21,1.46-3.53c0-0.33-0.03-0.65-0.09-0.98c-0.07-0.32-0.16-0.63-0.29-0.93
			c-0.12-0.3-0.28-0.59-0.46-0.87c-0.18-0.27-0.39-0.53-0.62-0.76c-0.23-0.23-0.49-0.44-0.76-0.62s-0.56-0.33-0.86-0.46
			c-0.3-0.12-0.62-0.22-0.94-0.28c-1.62-0.33-3.35,0.2-4.51,1.36c-0.93,0.94-1.47,2.22-1.47,3.54c0,1.32,0.54,2.6,1.47,3.53
			C191.84,254.47,193.13,255,194.44,255z"/>
		<path class="st0" d="M199.06,303.64c-0.12-0.3-0.28-0.59-0.46-0.86c-0.18-0.27-0.39-0.53-0.62-0.76
			c-0.23-0.23-0.49-0.44-0.76-0.62c-0.27-0.18-0.56-0.33-0.86-0.46c-0.31-0.12-0.62-0.22-0.94-0.28c-0.64-0.14-1.31-0.14-1.95,0
			c-0.32,0.06-0.64,0.16-0.94,0.28c-0.3,0.13-0.59,0.28-0.86,0.46c-0.28,0.18-0.53,0.39-0.76,0.62c-0.23,0.23-0.44,0.49-0.62,0.76
			c-0.18,0.27-0.34,0.56-0.46,0.86c-0.13,0.3-0.22,0.62-0.29,0.94c-0.06,0.32-0.09,0.65-0.09,0.98c0,0.32,0.03,0.65,0.09,0.97
			c0.07,0.32,0.16,0.64,0.29,0.94c0.12,0.3,0.28,0.59,0.46,0.86c0.18,0.28,0.39,0.53,0.62,0.76c0.23,0.23,0.48,0.44,0.76,0.62
			c0.27,0.18,0.56,0.34,0.86,0.46c0.3,0.13,0.62,0.22,0.94,0.29c0.32,0.06,0.65,0.1,0.98,0.1c0.32,0,0.65-0.04,0.97-0.1
			c0.32-0.07,0.63-0.16,0.94-0.29c0.3-0.12,0.59-0.28,0.86-0.46c0.27-0.18,0.53-0.39,0.76-0.62c0.23-0.23,0.44-0.48,0.62-0.76
			c0.18-0.27,0.34-0.56,0.46-0.86c0.13-0.3,0.22-0.62,0.29-0.94c0.06-0.32,0.09-0.65,0.09-0.97c0-0.33-0.03-0.66-0.09-0.98
			C199.28,304.26,199.19,303.94,199.06,303.64z"/>
		<path class="st0" d="M199.06,359.2c-0.12-0.3-0.28-0.59-0.46-0.86c-0.18-0.28-0.39-0.53-0.62-0.76c-0.23-0.23-0.49-0.44-0.76-0.62
			c-0.27-0.18-0.56-0.34-0.86-0.46c-0.3-0.13-0.62-0.23-0.94-0.29c-0.64-0.13-1.31-0.13-1.95,0c-0.32,0.06-0.64,0.16-0.94,0.29
			c-0.3,0.12-0.59,0.28-0.86,0.46c-0.28,0.18-0.53,0.39-0.76,0.62c-0.93,0.93-1.46,2.21-1.46,3.53c0,1.32,0.53,2.61,1.46,3.54
			c0.23,0.23,0.48,0.44,0.76,0.62c0.27,0.18,0.56,0.33,0.86,0.46c0.3,0.12,0.62,0.22,0.94,0.28c0.32,0.07,0.65,0.1,0.97,0.1
			c0.33,0,0.66-0.03,0.98-0.1c0.32-0.06,0.64-0.16,0.94-0.28c0.3-0.13,0.59-0.28,0.86-0.46s0.53-0.39,0.76-0.62
			c0.93-0.93,1.46-2.22,1.46-3.54c0-0.32-0.03-0.65-0.09-0.98C199.28,359.82,199.19,359.5,199.06,359.2z"/>
		<path class="st0" d="M138.89,255c0.32,0,0.65-0.03,0.97-0.1c0.32-0.06,0.64-0.16,0.94-0.28c0.3-0.13,0.59-0.28,0.86-0.46
			c0.28-0.19,0.53-0.4,0.76-0.63c0.94-0.93,1.47-2.21,1.47-3.53c0-1.32-0.53-2.6-1.47-3.54c-0.23-0.23-0.48-0.44-0.76-0.62
			c-0.27-0.18-0.56-0.33-0.86-0.46c-0.3-0.12-0.62-0.22-0.94-0.28c-0.64-0.13-1.3-0.13-1.95,0c-0.32,0.06-0.63,0.16-0.93,0.28
			c-0.31,0.13-0.6,0.28-0.87,0.46s-0.53,0.39-0.76,0.62c-0.93,0.94-1.46,2.22-1.46,3.54c0,1.32,0.53,2.6,1.46,3.53
			C136.28,254.47,137.57,255,138.89,255z"/>
		<path class="st0" d="M189.83,196.36c0.12,0.3,0.28,0.59,0.46,0.86c0.18,0.27,0.39,0.53,0.62,0.76c0.93,0.93,2.22,1.46,3.53,1.46
			c0.33,0,0.66-0.03,0.98-0.1c0.32-0.06,0.64-0.15,0.94-0.28c0.3-0.12,0.59-0.28,0.86-0.46s0.53-0.39,0.76-0.62
			c0.23-0.23,0.44-0.49,0.62-0.76c0.18-0.27,0.34-0.56,0.46-0.86c0.13-0.3,0.22-0.62,0.29-0.94c0.06-0.32,0.1-0.65,0.1-0.98
			c0-0.32-0.04-0.65-0.1-0.97c-0.07-0.32-0.16-0.64-0.29-0.94c-0.12-0.3-0.28-0.59-0.46-0.86c-0.18-0.28-0.39-0.53-0.62-0.76
			c-0.23-0.23-0.49-0.44-0.76-0.62c-0.27-0.18-0.56-0.34-0.86-0.46c-0.3-0.13-0.62-0.22-0.94-0.29c-1.62-0.33-3.35,0.21-4.51,1.37
			c-0.93,0.93-1.47,2.22-1.47,3.53c0,0.33,0.04,0.66,0.1,0.98C189.61,195.74,189.7,196.06,189.83,196.36z"/>
		<path class="st0" d="M134.27,196.36c0.13,0.3,0.28,0.59,0.46,0.86c0.18,0.27,0.39,0.53,0.62,0.76c0.23,0.23,0.49,0.44,0.76,0.62
			s0.56,0.34,0.87,0.46c0.3,0.13,0.61,0.22,0.93,0.28c0.32,0.07,0.65,0.1,0.98,0.1c0.33,0,0.65-0.03,0.98-0.1
			c0.31-0.06,0.63-0.15,0.93-0.28c0.3-0.12,0.59-0.28,0.86-0.46c0.28-0.18,0.53-0.39,0.76-0.62c0.23-0.23,0.44-0.49,0.63-0.76
			c0.18-0.27,0.33-0.56,0.46-0.86c0.12-0.3,0.22-0.62,0.28-0.94c0.07-0.32,0.1-0.65,0.1-0.98c0-1.31-0.53-2.6-1.46-3.53
			c-0.24-0.23-0.49-0.44-0.77-0.62c-0.27-0.18-0.56-0.34-0.86-0.46c-0.3-0.13-0.62-0.22-0.93-0.29c-0.65-0.13-1.31-0.13-1.96,0
			c-0.32,0.07-0.63,0.16-0.93,0.29c-0.31,0.12-0.6,0.28-0.87,0.46c-0.27,0.18-0.53,0.39-0.76,0.62c-0.23,0.23-0.44,0.48-0.62,0.76
			c-0.18,0.27-0.33,0.56-0.46,0.86c-0.12,0.3-0.22,0.62-0.28,0.94c-0.07,0.32-0.1,0.65-0.1,0.97c0,0.33,0.03,0.66,0.1,0.98
			C134.05,195.74,134.15,196.06,134.27,196.36z"/>
		<path class="st0" d="M134.27,140.8c0.13,0.3,0.28,0.59,0.46,0.86c0.18,0.28,0.39,0.53,0.62,0.76c0.23,0.23,0.49,0.44,0.76,0.62
			c0.27,0.18,0.56,0.34,0.87,0.46c0.3,0.13,0.61,0.23,0.93,0.29c0.32,0.06,0.65,0.1,0.98,0.1c0.32,0,0.65-0.04,0.98-0.1
			c0.31-0.06,0.63-0.16,0.93-0.29c0.3-0.12,0.59-0.28,0.86-0.46c0.28-0.18,0.53-0.39,0.76-0.62c0.94-0.93,1.47-2.22,1.47-3.53
			s-0.53-2.6-1.47-3.53c-0.23-0.24-0.48-0.45-0.76-0.63c-0.27-0.18-0.56-0.33-0.86-0.46c-0.3-0.12-0.62-0.22-0.93-0.28
			c-0.65-0.14-1.31-0.14-1.96,0c-0.32,0.06-0.63,0.16-0.93,0.28c-0.31,0.13-0.6,0.28-0.87,0.46c-0.27,0.18-0.53,0.39-0.76,0.63
			c-0.23,0.22-0.44,0.48-0.62,0.75c-0.18,0.27-0.33,0.56-0.46,0.87c-0.12,0.3-0.22,0.61-0.28,0.93c-0.07,0.32-0.1,0.65-0.1,0.98
			s0.03,0.65,0.1,0.98C134.05,140.19,134.15,140.5,134.27,140.8z"/>
		<path class="st0" d="M134.27,307.47c0.13,0.3,0.28,0.59,0.46,0.86c0.18,0.28,0.39,0.53,0.62,0.76c0.23,0.23,0.49,0.44,0.76,0.62
			c0.27,0.18,0.56,0.34,0.87,0.46c0.3,0.13,0.61,0.22,0.93,0.29c0.32,0.06,0.65,0.1,0.98,0.1c0.32,0,0.65-0.04,0.98-0.1
			c0.31-0.07,0.63-0.16,0.93-0.29c0.3-0.12,0.59-0.28,0.86-0.46c0.28-0.18,0.53-0.39,0.76-0.62c0.23-0.23,0.44-0.48,0.63-0.76
			c0.18-0.27,0.33-0.56,0.46-0.86c0.12-0.3,0.22-0.62,0.28-0.94c0.07-0.32,0.1-0.65,0.1-0.97c0-0.33-0.03-0.66-0.1-0.98
			c-0.06-0.32-0.16-0.64-0.28-0.94c-0.13-0.3-0.28-0.59-0.46-0.86c-0.19-0.27-0.4-0.53-0.63-0.76c-0.23-0.23-0.48-0.44-0.76-0.62
			c-0.27-0.18-0.56-0.33-0.86-0.46c-0.3-0.12-0.62-0.22-0.93-0.28c-0.65-0.14-1.31-0.14-1.96,0c-0.32,0.06-0.63,0.16-0.93,0.28
			c-0.31,0.13-0.6,0.28-0.87,0.46c-0.27,0.18-0.53,0.39-0.76,0.62c-0.23,0.23-0.44,0.49-0.62,0.76c-0.18,0.27-0.33,0.56-0.46,0.86
			c-0.12,0.3-0.22,0.62-0.28,0.94c-0.07,0.32-0.1,0.65-0.1,0.98c0,0.32,0.03,0.65,0.1,0.97
			C134.05,306.85,134.15,307.17,134.27,307.47z"/>
		<path class="st0" d="M138.89,366.11c0.32,0,0.65-0.03,0.98-0.1c0.32-0.06,0.63-0.16,0.93-0.28c0.3-0.13,0.59-0.28,0.86-0.46
			c0.28-0.18,0.53-0.39,0.76-0.62c0.93-0.93,1.47-2.22,1.47-3.54c0-0.32-0.04-0.65-0.1-0.98c-0.06-0.31-0.16-0.63-0.29-0.93
			c-0.12-0.3-0.27-0.59-0.45-0.86c-0.19-0.28-0.4-0.53-0.63-0.76c-0.23-0.23-0.48-0.44-0.76-0.62c-0.27-0.18-0.56-0.34-0.86-0.46
			c-0.3-0.13-0.61-0.23-0.93-0.29c-0.65-0.13-1.31-0.13-1.96,0c-0.32,0.06-0.63,0.16-0.93,0.29c-0.31,0.12-0.6,0.28-0.87,0.46
			c-0.27,0.18-0.53,0.39-0.76,0.62c-0.93,0.93-1.46,2.21-1.46,3.53c0,1.32,0.53,2.61,1.46,3.54
			C136.28,365.58,137.57,366.11,138.89,366.11z"/>
		<path class="st0" d="M78.33,78.33v343.33h343.33V78.33H78.33z M411.67,411.67H88.33V88.33h323.33V411.67z"/>
	</g>
</g>
</svg>
