<?xml version="1.0" encoding="utf-8"?>
<!-- Generator: Adobe Illustrator 23.0.0, SVG Export Plug-In . SVG Version: 6.00 Build 0)  -->
<svg version="1.1" xmlns="http://www.w3.org/2000/svg" xmlns:xlink="http://www.w3.org/1999/xlink" x="0px" y="0px"
	 viewBox="0 0 500 500" style="enable-background:new 0 0 500 500;" xml:space="preserve">
<style type="text/css">
	.st0{fill:#FFFFFF;}
</style>
<g id="BG">
	<rect width="500" height="500"/>
</g>
<g id="DESIGN">
	<g>
		<path class="st0" d="M79.8,413.13l7.07,7.07c43.57-43.57,101.51-67.57,163.13-67.57s119.56,24,163.13,67.57l7.07-7.07
			c-45.46-45.46-105.91-70.5-170.2-70.5S125.26,367.67,79.8,413.13z"/>
		<path class="st0" d="M420.2,86.87l-7.07-7.07c-43.57,43.57-101.51,67.57-163.13,67.57s-119.56-24-163.13-67.57l-7.07,7.07
			c45.46,45.46,105.91,70.5,170.2,70.5S374.74,132.33,420.2,86.87z"/>
		<rect x="83.33" y="245" class="st0" width="333.33" height="10"/>
	</g>
</g>
</svg>
