<?xml version="1.0" encoding="utf-8"?>
<!-- Generator: Adobe Illustrator 23.0.0, SVG Export Plug-In . SVG Version: 6.00 Build 0)  -->
<svg version="1.1" xmlns="http://www.w3.org/2000/svg" xmlns:xlink="http://www.w3.org/1999/xlink" x="0px" y="0px"
	 viewBox="0 0 500 500" style="enable-background:new 0 0 500 500;" xml:space="preserve">
<style type="text/css">
	.st0{fill:#FFFFFF;}
</style>
<g id="BG">
	<rect width="500" height="500"/>
</g>
<g id="DESIGN">
	<g>
		<path class="st0" d="M421.57,415.69c-0.06-0.32-0.16-0.63-0.29-0.94c-0.12-0.3-0.28-0.59-0.46-0.86
			c-0.18-0.27-0.39-0.53-0.62-0.76c-0.23-0.23-0.48-0.44-0.76-0.62c-0.27-0.18-0.56-0.34-0.86-0.46c-0.3-0.13-0.62-0.22-0.94-0.29
			c-0.64-0.13-1.31-0.13-1.95,0c-0.32,0.07-0.63,0.16-0.94,0.29c-0.3,0.12-0.59,0.28-0.86,0.46c-0.27,0.18-0.53,0.39-0.76,0.62
			c-0.23,0.23-0.44,0.49-0.62,0.76s-0.34,0.56-0.46,0.86c-0.13,0.31-0.22,0.62-0.29,0.94c-0.06,0.32-0.09,0.65-0.09,0.98
			c0,1.31,0.53,2.6,1.46,3.53c0.23,0.23,0.49,0.44,0.76,0.62c0.27,0.18,0.56,0.34,0.86,0.46c0.31,0.13,0.62,0.22,0.94,0.29
			c0.32,0.06,0.65,0.1,0.98,0.1c0.32,0,0.65-0.04,0.97-0.1c0.32-0.07,0.64-0.16,0.94-0.29c0.3-0.12,0.59-0.28,0.86-0.46
			c0.28-0.18,0.53-0.39,0.76-0.62c0.93-0.93,1.47-2.22,1.47-3.53C421.67,416.34,421.63,416.01,421.57,415.69z"/>
		<path class="st0" d="M80.56,87.49c0.27,0.18,0.56,0.34,0.86,0.46c0.3,0.13,0.62,0.22,0.94,0.29c0.32,0.06,0.65,0.09,0.97,0.09
			c1.32,0,2.61-0.53,3.54-1.46c0.93-0.93,1.46-2.22,1.46-3.54c0-0.32-0.03-0.65-0.1-0.97c-0.06-0.32-0.16-0.64-0.28-0.94
			c-0.13-0.3-0.28-0.59-0.46-0.86c-0.18-0.28-0.39-0.53-0.62-0.76c-1.16-1.16-2.89-1.7-4.51-1.37c-0.32,0.07-0.64,0.16-0.94,0.29
			c-0.3,0.12-0.59,0.28-0.86,0.46c-0.28,0.18-0.53,0.39-0.76,0.62s-0.44,0.48-0.62,0.76c-0.19,0.27-0.34,0.56-0.46,0.86
			c-0.13,0.3-0.23,0.62-0.29,0.94c-0.07,0.32-0.1,0.65-0.1,0.97c0,1.32,0.54,2.61,1.47,3.54C80.03,87.1,80.28,87.31,80.56,87.49z"/>
		<path class="st0" d="M79.8,170.2c0.98,0.98,2.26,1.46,3.54,1.46s2.56-0.49,3.54-1.46l83.33-83.33c1.95-1.95,1.95-5.12,0-7.07
			c-1.95-1.95-5.12-1.95-7.07,0L79.8,163.13C77.84,165.08,77.84,168.25,79.8,170.2z"/>
		<path class="st0" d="M79.8,253.54c0.98,0.98,2.26,1.46,3.54,1.46s2.56-0.49,3.54-1.46L253.54,86.87c1.95-1.95,1.95-5.12,0-7.07
			c-1.95-1.95-5.12-1.95-7.07,0L79.8,246.46C77.84,248.42,77.84,251.58,79.8,253.54z"/>
		<path class="st0" d="M79.8,336.87c0.98,0.98,2.26,1.46,3.54,1.46s2.56-0.49,3.54-1.46l250-250c1.95-1.95,1.95-5.12,0-7.07
			c-1.95-1.95-5.12-1.95-7.07,0l-250,250C77.84,331.75,77.84,334.92,79.8,336.87z"/>
		<path class="st0" d="M420.2,79.8c-1.95-1.95-5.12-1.95-7.07,0L79.8,413.13c-1.95,1.95-1.95,5.12,0,7.07
			c0.98,0.98,2.26,1.46,3.54,1.46s2.56-0.49,3.54-1.46L420.2,86.87C422.16,84.92,422.16,81.75,420.2,79.8z"/>
		<path class="st0" d="M420.2,163.13c-1.95-1.95-5.12-1.95-7.07,0l-250,250c-1.95,1.95-1.95,5.12,0,7.07
			c0.98,0.98,2.26,1.46,3.54,1.46s2.56-0.49,3.54-1.46l250-250C422.16,168.25,422.16,165.08,420.2,163.13z"/>
		<path class="st0" d="M420.2,246.46c-1.95-1.95-5.12-1.95-7.07,0L246.46,413.13c-1.95,1.95-1.95,5.12,0,7.07
			c0.98,0.98,2.26,1.46,3.54,1.46s2.56-0.49,3.54-1.46L420.2,253.54C422.16,251.58,422.16,248.42,420.2,246.46z"/>
		<path class="st0" d="M420.2,329.8c-1.95-1.95-5.12-1.95-7.07,0l-83.33,83.33c-1.95,1.95-1.95,5.12,0,7.07
			c0.98,0.98,2.26,1.46,3.54,1.46s2.56-0.49,3.54-1.46l83.33-83.33C422.16,334.92,422.16,331.75,420.2,329.8z"/>
	</g>
</g>
</svg>
