<?xml version="1.0" encoding="utf-8"?>
<!-- Generator: Adobe Illustrator 23.0.0, SVG Export Plug-In . SVG Version: 6.00 Build 0)  -->
<svg version="1.1" xmlns="http://www.w3.org/2000/svg" xmlns:xlink="http://www.w3.org/1999/xlink" x="0px" y="0px"
	 viewBox="0 0 500 500" style="enable-background:new 0 0 500 500;" xml:space="preserve">
<style type="text/css">
	.st0{fill:#FFFFFF;}
</style>
<g id="BG">
	<rect x="0" width="500" height="500"/>
</g>
<g id="DESIGN">
	<g>
		<path class="st0" d="M302.88,342.04c-16.11,9.34-33.99,14.07-53.13,14.07s-37.02-4.73-53.13-14.07l-4.33-2.51l-5.01,8.65
			l4.33,2.51c17.65,10.23,37.22,15.42,58.15,15.42s40.49-5.19,58.15-15.42l4.33-2.51l-5.01-8.65L302.88,342.04z"/>
		<path class="st0" d="M350.31,191.94c-10.46-18.12-24.74-32.47-42.42-42.65l-4.33-2.49l-4.99,8.67l4.33,2.49
			c16.14,9.29,29.18,22.4,38.75,38.98c9.57,16.58,14.41,34.43,14.38,53.05l-0.01,5l10,0.02l0.01-5
			C366.06,229.6,360.77,210.07,350.31,191.94z"/>
		<path class="st0" d="M200.94,155.47l-4.99-8.67l-4.33,2.49c-16.27,9.36-29.64,22.26-39.83,38.37l-0.1-0.06l-2.5,4.33l-2.5,4.33
			l0.1,0.06c-8.86,16.88-13.35,34.91-13.32,53.68l0.01,5l10-0.02l-0.01-5c-0.03-18.62,4.81-36.47,14.38-53.05
			c9.57-16.58,22.61-29.69,38.75-38.98L200.94,155.47z"/>
		<path class="st0" d="M220.11,291.35L215.1,300l4.33,2.51c9.08,5.26,19.57,8.05,30.33,8.05s21.24-2.78,30.33-8.05l4.33-2.51
			l-5.01-8.65l-4.33,2.51c-7.67,4.44-16.19,6.7-25.31,6.7s-17.64-2.25-25.31-6.7L220.11,291.35z"/>
		<path class="st0" d="M293.53,224.72c4.56,7.9,6.87,16.41,6.86,25.27l-0.01,5l10,0.02l0.01-5c0.02-10.5-2.82-20.97-8.2-30.29
			c-5.38-9.32-13.03-17.01-22.13-22.24l-4.33-2.49l-4.99,8.67l4.33,2.49C282.76,210.57,288.97,216.82,293.53,224.72z"/>
		<path class="st0" d="M189.11,250.01l0.01,5l10-0.02l-0.01-5c-0.01-8.86,2.29-17.37,6.86-25.27c4.56-7.9,10.77-14.15,18.46-18.57
			l4.33-2.49l-4.99-8.67l-4.33,2.49c-9.1,5.24-16.75,12.93-22.13,22.24C191.93,229.04,189.1,239.51,189.11,250.01z"/>
		<path class="st0" d="M250,78.33c-94.66,0-171.67,77.01-171.67,171.67S155.34,421.67,250,421.67S421.67,344.66,421.67,250
			S344.66,78.33,250,78.33z M250,411.67c-89.14,0-161.67-72.52-161.67-161.67S160.86,88.33,250,88.33S411.67,160.86,411.67,250
			S339.14,411.67,250,411.67z"/>
	</g>
</g>
</svg>
