<?xml version="1.0" encoding="utf-8"?>
<!-- Generator: Adobe Illustrator 23.0.0, SVG Export Plug-In . SVG Version: 6.00 Build 0)  -->
<svg version="1.1" xmlns="http://www.w3.org/2000/svg" xmlns:xlink="http://www.w3.org/1999/xlink" x="0px" y="0px"
	 viewBox="0 0 500 500" style="enable-background:new 0 0 500 500;" xml:space="preserve">
<style type="text/css">
	.st0{fill:#FFFFFF;}
</style>
<g id="BG">
	<rect width="500" height="500"/>
</g>
<g id="DESIGN">
	<path class="st0" d="M78.33,78.33v343.33h343.33V78.33H78.33z M404.6,88.33l-95.8,95.8c-15.63-13.97-36.23-22.47-58.79-22.47
		c-48.71,0-88.33,39.63-88.33,88.33c0,22.56,8.5,43.17,22.47,58.79l-95.8,95.8V88.33H404.6z M191.23,301.7
		c-12.16-13.81-19.56-31.9-19.56-51.7c0-43.19,35.14-78.33,78.33-78.33c19.8,0,37.9,7.4,51.7,19.56L191.23,301.7z M308.77,198.3
		c12.16,13.81,19.56,31.9,19.56,51.7c0,43.19-35.14,78.33-78.33,78.33c-19.8,0-37.9-7.4-51.7-19.56L308.77,198.3z M95.4,411.67
		l95.8-95.8c15.63,13.96,36.23,22.47,58.79,22.47c48.71,0,88.33-39.63,88.33-88.33c0-22.56-8.5-43.17-22.47-58.79l95.8-95.8v316.26
		H95.4z"/>
</g>
</svg>
