<?xml version="1.0" encoding="utf-8"?>
<!-- Generator: Adobe Illustrator 23.0.0, SVG Export Plug-In . SVG Version: 6.00 Build 0)  -->
<svg version="1.1" xmlns="http://www.w3.org/2000/svg" xmlns:xlink="http://www.w3.org/1999/xlink" x="0px" y="0px"
	 viewBox="0 0 500 500" style="enable-background:new 0 0 500 500;" xml:space="preserve">
<style type="text/css">
	.st0{fill:#FFFFFF;}
</style>
<g id="BG">
	<rect width="500" height="500"/>
</g>
<g id="DESIGN">
	<g>
		<path class="st0" d="M396.57,249.01c0-0.02-0.01-0.05-0.02-0.07c-0.05-0.26-0.13-0.51-0.24-0.76c-0.04-0.1-0.08-0.19-0.12-0.29
			c-0.1-0.22-0.21-0.43-0.34-0.63c-0.16-0.25-0.35-0.47-0.55-0.69c-0.03-0.04-0.06-0.08-0.1-0.12c-0.07-0.07-0.16-0.13-0.24-0.2
			c-0.17-0.15-0.33-0.3-0.51-0.42c0,0,0,0,0,0c-0.06-0.04-0.12-0.06-0.18-0.09c-0.22-0.13-0.43-0.26-0.67-0.36c0,0-0.01,0-0.01-0.01
			c-0.26-0.1-0.52-0.18-0.8-0.24c-0.36-0.08-0.73-0.14-1.12-0.14H230V83.33c0,0,0,0,0,0s0,0,0,0c0-0.31-0.03-0.62-0.09-0.93
			c-0.01-0.06-0.03-0.13-0.04-0.19c-0.06-0.27-0.14-0.54-0.24-0.79c0,0,0-0.01-0.01-0.01c-0.09-0.21-0.21-0.4-0.32-0.6
			c-0.05-0.08-0.08-0.17-0.13-0.25c0,0,0,0-0.01-0.01c-0.11-0.17-0.25-0.31-0.38-0.46c-0.08-0.09-0.15-0.2-0.24-0.29
			c-0.05-0.05-0.11-0.09-0.17-0.13c-0.19-0.18-0.4-0.35-0.62-0.5c-0.22-0.14-0.44-0.26-0.67-0.36c-0.09-0.04-0.18-0.08-0.27-0.12
			c-0.25-0.1-0.51-0.18-0.77-0.24c-0.02,0-0.04-0.01-0.06-0.02c0,0-0.01,0-0.01,0c-0.65-0.13-1.31-0.13-1.96,0c0,0-0.01,0-0.01,0
			c-0.02,0-0.04,0.01-0.05,0.01c-0.26,0.06-0.52,0.14-0.77,0.24c-0.09,0.04-0.18,0.08-0.27,0.12c-0.23,0.1-0.45,0.22-0.67,0.36
			c-0.22,0.15-0.42,0.32-0.62,0.5c-0.05,0.05-0.12,0.08-0.17,0.13c-0.09,0.09-0.15,0.19-0.24,0.29c-0.13,0.15-0.27,0.3-0.38,0.46
			c0,0,0,0-0.01,0.01c-0.05,0.08-0.09,0.17-0.13,0.25c-0.11,0.19-0.23,0.39-0.32,0.6c0,0,0,0.01-0.01,0.01
			c-0.1,0.26-0.19,0.53-0.25,0.8c-0.01,0.05-0.03,0.11-0.04,0.16c-0.07,0.31-0.1,0.63-0.1,0.94c0,0,0,0,0,0c0,0,0,0,0,0V245H58.33
			c0,0,0,0,0,0s0,0,0,0c-0.33,0-0.66,0.03-0.98,0.1c-0.28,0.06-0.56,0.15-0.82,0.25c-0.04,0.01-0.08,0.02-0.11,0.03
			c-0.23,0.09-0.44,0.22-0.65,0.34c-0.07,0.04-0.15,0.07-0.22,0.12c-0.16,0.11-0.3,0.24-0.45,0.37c-0.1,0.08-0.21,0.15-0.3,0.25
			c-0.04,0.04-0.07,0.09-0.11,0.14c-0.19,0.2-0.37,0.42-0.52,0.65c-0.15,0.22-0.27,0.45-0.37,0.68c-0.04,0.08-0.07,0.16-0.11,0.24
			c-0.11,0.26-0.19,0.52-0.24,0.79c0,0.02-0.01,0.03-0.01,0.05c0,0,0,0.01,0,0.01c-0.07,0.33-0.1,0.65-0.1,0.98
			c0,0.33,0.03,0.65,0.1,0.98c0,0,0,0.01,0,0.01c0,0.02,0.01,0.03,0.01,0.05c0.06,0.27,0.14,0.53,0.24,0.79
			c0.03,0.08,0.07,0.16,0.11,0.25c0.1,0.23,0.22,0.46,0.37,0.68c0.16,0.24,0.34,0.45,0.53,0.66c0.04,0.04,0.07,0.09,0.11,0.13
			c0.09,0.09,0.2,0.16,0.29,0.24c0.15,0.13,0.3,0.27,0.46,0.38c0.07,0.05,0.14,0.07,0.21,0.12c0.21,0.13,0.43,0.25,0.66,0.35
			c0.03,0.01,0.07,0.02,0.1,0.03c0.27,0.1,0.54,0.19,0.83,0.25c0.32,0.06,0.65,0.1,0.98,0.1c0,0,0,0,0,0s0,0,0,0H220v161.67
			c0,0,0,0,0,0c0,0,0,0,0,0c0,0.31,0.03,0.63,0.1,0.94c0.01,0.06,0.03,0.11,0.04,0.16c0.06,0.27,0.14,0.55,0.25,0.8
			c0,0,0,0.01,0.01,0.01c0.09,0.21,0.21,0.41,0.32,0.61c0.05,0.08,0.08,0.17,0.13,0.24c0,0,0,0,0.01,0.01
			c0.11,0.17,0.25,0.32,0.39,0.47c0.08,0.09,0.14,0.2,0.23,0.28c0.05,0.05,0.11,0.08,0.16,0.13c0.2,0.18,0.4,0.36,0.63,0.51
			c0.22,0.14,0.44,0.26,0.66,0.36c0.09,0.04,0.18,0.08,0.27,0.12c0.25,0.1,0.51,0.18,0.77,0.24c0.02,0,0.04,0.01,0.06,0.01
			c0,0,0.01,0,0.01,0c0.33,0.06,0.65,0.1,0.98,0.1c0.33,0,0.66-0.04,0.99-0.1c0.94-0.19,1.77-0.64,2.44-1.28
			c0.04-0.03,0.08-0.06,0.11-0.09c0.09-0.09,0.16-0.2,0.25-0.3c0.13-0.15,0.26-0.29,0.37-0.45c0.04-0.07,0.07-0.14,0.11-0.21
			c0.13-0.21,0.25-0.43,0.35-0.66c0.01-0.03,0.02-0.06,0.03-0.09c0.11-0.27,0.2-0.55,0.26-0.84c0.06-0.32,0.1-0.65,0.1-0.98
			c0,0,0,0,0,0c0,0,0,0,0,0V255h161.67c0,0,0,0,0,0c0,0,0,0,0,0c0.31,0,0.62-0.03,0.93-0.09c0.06-0.01,0.12-0.03,0.18-0.04
			c0.27-0.06,0.54-0.14,0.79-0.24c0,0,0.01,0,0.01-0.01c0.24-0.1,0.46-0.23,0.68-0.37c0.05-0.03,0.11-0.05,0.16-0.09c0,0,0,0,0,0
			c0.19-0.13,0.35-0.28,0.52-0.43c0.07-0.07,0.16-0.12,0.23-0.19c0.03-0.04,0.06-0.08,0.09-0.11c0.2-0.22,0.39-0.45,0.56-0.69
			c0.13-0.2,0.24-0.41,0.34-0.63c0.04-0.09,0.09-0.19,0.13-0.29c0.1-0.25,0.18-0.5,0.24-0.76c0.01-0.02,0.01-0.05,0.02-0.07
			c0,0,0-0.01,0-0.01c0.07-0.33,0.1-0.65,0.1-0.98C396.67,249.67,396.64,249.34,396.57,249.01
			C396.57,249.02,396.57,249.02,396.57,249.01z"/>
		<path class="st0" d="M396.28,331.42c-0.12-0.3-0.28-0.59-0.46-0.86c-0.18-0.28-0.39-0.53-0.62-0.76
			c-0.23-0.23-0.48-0.44-0.76-0.62c-0.27-0.18-0.56-0.34-0.86-0.46c-0.3-0.13-0.62-0.22-0.94-0.29c-0.64-0.13-1.31-0.13-1.95,0
			c-0.32,0.07-0.63,0.16-0.94,0.29c-0.3,0.12-0.59,0.28-0.86,0.46c-0.27,0.18-0.53,0.39-0.76,0.62c-0.23,0.23-0.44,0.48-0.62,0.76
			c-0.18,0.27-0.33,0.56-0.46,0.86c-0.12,0.3-0.22,0.62-0.28,0.94c-0.07,0.32-0.1,0.65-0.1,0.97c0,0.33,0.03,0.66,0.1,0.98
			c0.06,0.32,0.16,0.63,0.28,0.94c0.13,0.3,0.28,0.59,0.46,0.86s0.39,0.53,0.62,0.76c0.23,0.23,0.49,0.44,0.76,0.62
			c0.27,0.18,0.56,0.34,0.86,0.46c0.31,0.13,0.62,0.22,0.94,0.29c0.32,0.06,0.65,0.09,0.98,0.09c0.32,0,0.65-0.03,0.97-0.09
			c0.32-0.07,0.64-0.16,0.94-0.29c0.3-0.12,0.59-0.28,0.86-0.46c0.28-0.18,0.53-0.39,0.76-0.62c0.23-0.23,0.44-0.49,0.62-0.76
			c0.18-0.27,0.34-0.56,0.46-0.86c0.13-0.31,0.23-0.62,0.29-0.94c0.07-0.32,0.1-0.65,0.1-0.98c0-0.32-0.03-0.65-0.1-0.97
			C396.51,332.04,396.41,331.72,396.28,331.42z"/>
		<path class="st0" d="M394.44,412.51c-0.27-0.18-0.56-0.34-0.86-0.46c-0.3-0.13-0.62-0.22-0.94-0.29c-0.64-0.13-1.31-0.12-1.95,0
			c-0.32,0.07-0.63,0.16-0.94,0.29c-0.3,0.12-0.59,0.28-0.86,0.46c-0.27,0.18-0.53,0.39-0.76,0.62c-0.93,0.93-1.46,2.22-1.46,3.54
			c0,1.32,0.53,2.6,1.46,3.53c0.23,0.23,0.49,0.44,0.76,0.62c0.27,0.18,0.56,0.34,0.86,0.46c0.31,0.13,0.62,0.22,0.94,0.29
			c0.32,0.06,0.65,0.1,0.98,0.1c1.31,0,2.6-0.54,3.53-1.47c0.93-0.93,1.47-2.22,1.47-3.53c0-1.32-0.54-2.61-1.47-3.54
			C394.97,412.9,394.72,412.69,394.44,412.51z"/>
		<path class="st0" d="M311.11,329.18c-0.27-0.18-0.56-0.34-0.86-0.46c-0.31-0.13-0.62-0.22-0.94-0.29c-0.64-0.13-1.31-0.13-1.95,0
			c-0.32,0.07-0.64,0.16-0.94,0.29c-0.3,0.12-0.59,0.28-0.86,0.46c-0.28,0.18-0.53,0.39-0.76,0.62c-0.93,0.93-1.47,2.22-1.47,3.53
			c0,1.32,0.54,2.61,1.47,3.54c0.23,0.23,0.48,0.44,0.76,0.62c0.27,0.18,0.56,0.34,0.86,0.46c0.3,0.13,0.62,0.22,0.94,0.29
			c0.32,0.06,0.65,0.09,0.97,0.09c0.33,0,0.66-0.03,0.98-0.09c0.32-0.07,0.63-0.16,0.94-0.29c0.3-0.12,0.59-0.28,0.86-0.46
			c0.27-0.18,0.53-0.39,0.76-0.62c0.93-0.93,1.46-2.22,1.46-3.54c0-1.31-0.53-2.6-1.46-3.53
			C311.64,329.57,311.38,329.36,311.11,329.18z"/>
		<path class="st0" d="M312.95,414.75c-0.13-0.3-0.28-0.59-0.46-0.86c-0.18-0.27-0.39-0.53-0.62-0.76
			c-0.23-0.23-0.49-0.44-0.76-0.62c-0.27-0.18-0.56-0.34-0.86-0.46c-0.31-0.13-0.62-0.22-0.94-0.28c-0.64-0.13-1.31-0.13-1.95,0
			c-0.32,0.06-0.64,0.15-0.94,0.28c-0.3,0.12-0.59,0.28-0.86,0.46c-0.28,0.18-0.53,0.39-0.76,0.62c-0.23,0.23-0.44,0.49-0.62,0.76
			c-0.18,0.27-0.34,0.56-0.46,0.86c-0.13,0.31-0.23,0.62-0.29,0.94c-0.07,0.32-0.1,0.65-0.1,0.98c0,1.31,0.54,2.6,1.47,3.53
			c0.23,0.23,0.48,0.44,0.76,0.62c0.27,0.18,0.56,0.34,0.86,0.46c0.3,0.13,0.62,0.22,0.94,0.29c0.32,0.06,0.65,0.1,0.97,0.1
			c0.33,0,0.66-0.04,0.98-0.1c0.32-0.07,0.63-0.16,0.94-0.29c0.3-0.12,0.59-0.28,0.86-0.46c0.27-0.18,0.53-0.39,0.76-0.62
			c0.93-0.93,1.46-2.22,1.46-3.53c0-0.33-0.03-0.66-0.1-0.98C313.17,415.37,313.07,415.06,312.95,414.75z"/>
		<path class="st0" d="M146.28,331.42c-0.12-0.3-0.28-0.59-0.46-0.86c-0.18-0.28-0.39-0.53-0.62-0.76
			c-0.23-0.23-0.48-0.44-0.76-0.62c-0.27-0.18-0.56-0.34-0.86-0.46c-0.3-0.13-0.62-0.23-0.94-0.29c-1.62-0.33-3.35,0.21-4.51,1.37
			c-0.23,0.23-0.44,0.48-0.62,0.76c-0.18,0.27-0.34,0.56-0.46,0.86c-0.13,0.3-0.22,0.62-0.29,0.94c-0.06,0.32-0.1,0.65-0.1,0.97
			c0,1.32,0.54,2.61,1.47,3.54c0.93,0.93,2.22,1.46,3.54,1.46c1.31,0,2.6-0.53,3.53-1.46c0.93-0.93,1.47-2.22,1.47-3.54
			c0-0.32-0.03-0.65-0.1-0.97C146.51,332.04,146.41,331.72,146.28,331.42z"/>
		<path class="st0" d="M146.28,414.75c-0.12-0.3-0.28-0.59-0.46-0.86c-0.18-0.27-0.39-0.53-0.62-0.76
			c-0.93-0.93-2.22-1.46-3.53-1.46c-1.32,0-2.61,0.53-3.54,1.46c-0.23,0.23-0.44,0.49-0.62,0.76c-0.18,0.27-0.34,0.56-0.46,0.86
			c-0.13,0.31-0.22,0.62-0.29,0.94c-0.06,0.32-0.1,0.65-0.1,0.98c0,1.31,0.54,2.6,1.47,3.53s2.22,1.47,3.54,1.47
			c1.31,0,2.6-0.54,3.53-1.47c0.93-0.93,1.47-2.22,1.47-3.53c0-0.33-0.03-0.66-0.1-0.98C146.51,415.37,146.41,415.06,146.28,414.75z
			"/>
		<path class="st0" d="M396.28,164.75c-0.12-0.3-0.28-0.59-0.46-0.86c-0.18-0.27-0.39-0.53-0.62-0.76
			c-0.23-0.23-0.48-0.44-0.76-0.62c-0.27-0.18-0.56-0.33-0.86-0.46c-0.3-0.13-0.62-0.22-0.94-0.29c-0.64-0.13-1.31-0.13-1.95,0
			c-0.32,0.07-0.63,0.16-0.94,0.29c-0.3,0.13-0.59,0.28-0.86,0.46c-0.27,0.18-0.53,0.39-0.76,0.62c-0.93,0.93-1.46,2.22-1.46,3.54
			c0,1.31,0.53,2.6,1.46,3.53c0.23,0.23,0.49,0.44,0.76,0.62c0.27,0.18,0.56,0.34,0.86,0.46c0.31,0.13,0.62,0.22,0.94,0.29
			c0.32,0.06,0.65,0.1,0.98,0.1c0.32,0,0.65-0.04,0.97-0.1c0.32-0.07,0.64-0.16,0.94-0.29c0.3-0.12,0.59-0.28,0.86-0.46
			c0.28-0.18,0.53-0.39,0.76-0.62c0.93-0.93,1.47-2.22,1.47-3.53c0-0.33-0.03-0.66-0.1-0.98
			C396.51,165.37,396.41,165.06,396.28,164.75z"/>
		<path class="st0" d="M303.72,168.58c0.12,0.3,0.28,0.59,0.46,0.86c0.18,0.28,0.39,0.53,0.62,0.76s0.48,0.44,0.76,0.62
			c0.27,0.18,0.56,0.34,0.86,0.46c0.3,0.13,0.62,0.23,0.94,0.29c0.32,0.06,0.65,0.1,0.97,0.1c0.33,0,0.66-0.04,0.98-0.1
			c0.32-0.06,0.63-0.16,0.94-0.29c0.3-0.12,0.59-0.28,0.86-0.46c0.27-0.18,0.53-0.39,0.76-0.62c0.23-0.23,0.44-0.48,0.62-0.76
			c0.18-0.27,0.33-0.56,0.46-0.86c0.12-0.3,0.22-0.62,0.28-0.94c0.07-0.32,0.1-0.65,0.1-0.97c0-1.32-0.53-2.61-1.46-3.54
			c-0.23-0.23-0.49-0.44-0.76-0.62c-0.27-0.18-0.56-0.34-0.86-0.46c-0.31-0.13-0.62-0.22-0.94-0.29c-0.64-0.13-1.31-0.13-1.95,0
			c-0.32,0.07-0.64,0.16-0.94,0.29c-0.3,0.12-0.59,0.28-0.86,0.46c-0.28,0.18-0.53,0.39-0.76,0.62c-0.93,0.93-1.47,2.22-1.47,3.54
			c0,0.32,0.03,0.65,0.1,0.97C303.49,167.96,303.59,168.28,303.72,168.58z"/>
		<path class="st0" d="M137.05,168.58c0.12,0.3,0.28,0.59,0.46,0.86c0.18,0.28,0.39,0.53,0.62,0.76c0.93,0.93,2.22,1.47,3.54,1.47
			c0.32,0,0.65-0.04,0.97-0.1c0.32-0.07,0.64-0.16,0.94-0.29c0.3-0.12,0.59-0.28,0.86-0.46c0.28-0.18,0.53-0.39,0.76-0.62
			c0.23-0.23,0.44-0.48,0.62-0.76c0.18-0.27,0.34-0.56,0.46-0.86c0.13-0.3,0.23-0.62,0.29-0.94c0.07-0.32,0.1-0.65,0.1-0.97
			c0-1.32-0.54-2.61-1.47-3.54c-0.93-0.93-2.22-1.46-3.53-1.46c-1.32,0-2.61,0.53-3.54,1.46c-0.93,0.93-1.47,2.22-1.47,3.54
			c0,0.32,0.04,0.65,0.1,0.97C136.83,167.96,136.92,168.28,137.05,168.58z"/>
		<path class="st0" d="M53.72,168.58c0.12,0.3,0.27,0.59,0.46,0.86c0.18,0.28,0.39,0.53,0.62,0.76c0.93,0.93,2.22,1.47,3.53,1.47
			c1.32,0,2.61-0.54,3.54-1.47c0.23-0.23,0.44-0.48,0.62-0.76c0.18-0.27,0.33-0.56,0.46-0.86c0.13-0.3,0.22-0.62,0.29-0.94
			c0.06-0.32,0.09-0.65,0.09-0.97c0-0.33-0.03-0.66-0.09-0.98c-0.07-0.32-0.16-0.63-0.29-0.94c-0.13-0.3-0.28-0.59-0.46-0.86
			c-0.18-0.27-0.39-0.53-0.62-0.76c-0.93-0.93-2.22-1.46-3.54-1.46c-1.31,0-2.6,0.53-3.53,1.46c-0.23,0.23-0.44,0.49-0.62,0.76
			c-0.19,0.27-0.34,0.56-0.46,0.86c-0.13,0.31-0.23,0.62-0.29,0.94c-0.07,0.32-0.1,0.65-0.1,0.98c0,0.32,0.03,0.65,0.1,0.97
			C53.49,167.96,53.59,168.28,53.72,168.58z"/>
		<path class="st0" d="M388.89,87.49c0.27,0.18,0.56,0.34,0.86,0.46c0.31,0.13,0.62,0.22,0.94,0.29c0.32,0.06,0.65,0.09,0.98,0.09
			c1.31,0,2.6-0.53,3.53-1.46c0.93-0.93,1.47-2.22,1.47-3.54c0-1.31-0.54-2.6-1.47-3.53c-0.23-0.23-0.48-0.44-0.76-0.62
			c-0.27-0.18-0.56-0.34-0.86-0.46c-0.3-0.13-0.62-0.22-0.94-0.29c-0.64-0.13-1.31-0.13-1.95,0c-0.32,0.07-0.63,0.16-0.94,0.29
			c-0.3,0.12-0.59,0.28-0.86,0.46c-0.27,0.18-0.53,0.39-0.76,0.62c-0.93,0.93-1.46,2.22-1.46,3.53c0,1.32,0.53,2.61,1.46,3.54
			C388.36,87.1,388.62,87.31,388.89,87.49z"/>
		<path class="st0" d="M305.56,87.49c0.27,0.18,0.56,0.34,0.86,0.46c0.3,0.13,0.62,0.22,0.94,0.29c0.32,0.06,0.65,0.09,0.97,0.09
			c0.33,0,0.66-0.03,0.98-0.09c0.32-0.07,0.63-0.16,0.94-0.29c0.3-0.12,0.59-0.28,0.86-0.46c0.27-0.18,0.53-0.39,0.76-0.62
			c0.93-0.93,1.46-2.22,1.46-3.54c0-0.32-0.03-0.65-0.1-0.97c-0.06-0.32-0.16-0.64-0.28-0.94c-0.13-0.3-0.28-0.59-0.46-0.86
			c-0.18-0.28-0.39-0.53-0.62-0.76c-0.23-0.23-0.49-0.44-0.76-0.62c-0.27-0.18-0.56-0.34-0.86-0.46c-0.31-0.13-0.62-0.22-0.94-0.29
			c-0.64-0.13-1.31-0.13-1.95,0c-0.32,0.07-0.64,0.16-0.94,0.29c-0.3,0.12-0.59,0.28-0.86,0.46c-0.28,0.18-0.53,0.39-0.76,0.62
			s-0.44,0.48-0.62,0.76c-0.18,0.27-0.34,0.56-0.46,0.86c-0.13,0.3-0.23,0.62-0.29,0.94c-0.07,0.32-0.1,0.65-0.1,0.97
			c0,1.32,0.54,2.61,1.47,3.54C305.03,87.1,305.28,87.31,305.56,87.49z"/>
		<path class="st0" d="M137.05,85.25c0.12,0.3,0.28,0.59,0.46,0.86s0.39,0.53,0.62,0.76c0.93,0.93,2.22,1.46,3.54,1.46
			c1.31,0,2.6-0.53,3.53-1.46c0.23-0.23,0.44-0.49,0.62-0.76c0.18-0.27,0.34-0.56,0.46-0.86c0.13-0.31,0.23-0.62,0.29-0.94
			c0.07-0.32,0.1-0.65,0.1-0.98c0-0.32-0.03-0.65-0.1-0.97c-0.06-0.32-0.16-0.64-0.29-0.94c-0.12-0.3-0.28-0.59-0.46-0.86
			c-0.18-0.28-0.39-0.53-0.62-0.76c-0.93-0.93-2.22-1.47-3.53-1.47c-1.32,0-2.61,0.54-3.54,1.47c-0.23,0.23-0.44,0.48-0.62,0.76
			c-0.18,0.27-0.34,0.56-0.46,0.86c-0.13,0.3-0.22,0.62-0.29,0.94c-0.06,0.32-0.1,0.65-0.1,0.97c0,0.33,0.04,0.66,0.1,0.98
			C136.83,84.63,136.92,84.94,137.05,85.25z"/>
		<path class="st0" d="M53.72,85.25c0.12,0.3,0.27,0.59,0.46,0.86c0.18,0.27,0.39,0.53,0.62,0.76c0.93,0.93,2.22,1.46,3.53,1.46
			c1.32,0,2.61-0.53,3.54-1.46c0.23-0.23,0.44-0.49,0.62-0.76c0.18-0.27,0.33-0.56,0.46-0.86c0.13-0.31,0.22-0.62,0.29-0.94
			c0.06-0.32,0.09-0.65,0.09-0.98c0-0.32-0.03-0.65-0.09-0.97c-0.07-0.32-0.16-0.64-0.29-0.94c-0.13-0.3-0.28-0.59-0.46-0.86
			c-0.18-0.28-0.39-0.53-0.62-0.76c-0.93-0.93-2.22-1.47-3.54-1.47c-1.31,0-2.6,0.54-3.53,1.47c-0.23,0.23-0.44,0.48-0.62,0.76
			c-0.19,0.27-0.34,0.56-0.46,0.86c-0.13,0.3-0.23,0.62-0.29,0.94c-0.07,0.32-0.1,0.65-0.1,0.97c0,0.33,0.03,0.66,0.1,0.98
			C53.49,84.63,53.59,84.94,53.72,85.25z"/>
		<path class="st0" d="M58.33,328.33c-1.31,0-2.6,0.54-3.53,1.47c-0.94,0.93-1.47,2.22-1.47,3.53c0,0.33,0.03,0.66,0.1,0.98
			c0.06,0.32,0.16,0.63,0.29,0.94c0.12,0.3,0.27,0.59,0.46,0.86c0.18,0.27,0.39,0.53,0.62,0.76c0.93,0.93,2.22,1.46,3.53,1.46
			c0.33,0,0.66-0.03,0.98-0.09c0.32-0.07,0.63-0.16,0.93-0.29c0.31-0.12,0.6-0.28,0.87-0.46c0.27-0.18,0.53-0.39,0.76-0.62
			c0.23-0.23,0.44-0.49,0.62-0.76c0.18-0.27,0.33-0.56,0.46-0.86c0.13-0.31,0.22-0.62,0.29-0.94c0.06-0.32,0.09-0.65,0.09-0.98
			c0-1.31-0.53-2.6-1.46-3.53C60.94,328.87,59.65,328.33,58.33,328.33z"/>
		<path class="st0" d="M62.95,414.75c-0.13-0.3-0.28-0.59-0.46-0.86c-0.18-0.27-0.39-0.53-0.62-0.76c-0.23-0.23-0.49-0.44-0.76-0.62
			c-0.27-0.18-0.56-0.34-0.87-0.46c-0.3-0.13-0.61-0.22-0.93-0.29c-1.63-0.32-3.35,0.21-4.51,1.37c-0.23,0.23-0.44,0.49-0.62,0.76
			c-0.19,0.27-0.34,0.56-0.46,0.86c-0.13,0.31-0.23,0.62-0.29,0.94c-0.07,0.32-0.1,0.65-0.1,0.98c0,0.32,0.03,0.65,0.1,0.97
			c0.06,0.32,0.16,0.64,0.29,0.94c0.12,0.3,0.27,0.59,0.46,0.86c0.18,0.28,0.39,0.53,0.62,0.76c0.93,0.93,2.22,1.47,3.53,1.47
			c1.32,0,2.61-0.54,3.54-1.47c0.23-0.23,0.44-0.48,0.62-0.76c0.18-0.27,0.33-0.56,0.46-0.86c0.13-0.3,0.22-0.62,0.29-0.94
			c0.06-0.32,0.09-0.65,0.09-0.97c0-0.33-0.03-0.66-0.09-0.98C63.17,415.37,63.08,415.06,62.95,414.75z"/>
	</g>
</g>
</svg>
