<?xml version="1.0" encoding="utf-8"?>
<!-- Generator: Adobe Illustrator 23.0.0, SVG Export Plug-In . SVG Version: 6.00 Build 0)  -->
<svg version="1.1" xmlns="http://www.w3.org/2000/svg" xmlns:xlink="http://www.w3.org/1999/xlink" x="0px" y="0px"
	 viewBox="0 0 500 500" style="enable-background:new 0 0 500 500;" xml:space="preserve">
<style type="text/css">
	.st0{fill:#FFFFFF;}
</style>
<g id="BG">
	<rect width="500" height="500"/>
</g>
<g id="DESIGN">
	<g>
		<path class="st0" d="M171.28,248.09c-0.12-0.3-0.28-0.59-0.46-0.87c-0.18-0.27-0.39-0.53-0.62-0.76
			c-0.23-0.23-0.48-0.44-0.76-0.62c-0.27-0.18-0.56-0.33-0.86-0.46c-0.3-0.12-0.62-0.22-0.94-0.28c-0.64-0.13-1.31-0.13-1.95,0
			c-0.32,0.06-0.63,0.16-0.94,0.28c-0.3,0.13-0.59,0.28-0.86,0.46c-0.27,0.18-0.53,0.39-0.76,0.62c-0.23,0.23-0.44,0.49-0.62,0.76
			c-0.18,0.28-0.34,0.57-0.46,0.87c-0.13,0.3-0.22,0.61-0.28,0.93c-0.07,0.33-0.1,0.65-0.1,0.98c0,0.33,0.03,0.65,0.1,0.98
			c0.06,0.32,0.15,0.63,0.28,0.93c0.12,0.3,0.28,0.59,0.46,0.87c0.18,0.27,0.39,0.53,0.62,0.76c0.23,0.23,0.49,0.44,0.76,0.62
			c0.27,0.18,0.56,0.33,0.86,0.46c0.31,0.12,0.62,0.22,0.94,0.28c0.32,0.07,0.65,0.1,0.98,0.1c0.32,0,0.65-0.03,0.97-0.1
			c0.32-0.06,0.64-0.16,0.94-0.28c0.3-0.13,0.59-0.28,0.86-0.46c0.28-0.18,0.53-0.39,0.76-0.62c0.23-0.23,0.44-0.49,0.62-0.76
			c0.18-0.28,0.34-0.57,0.46-0.87c0.13-0.3,0.22-0.61,0.29-0.93c0.06-0.33,0.1-0.65,0.1-0.98c0-0.33-0.04-0.65-0.1-0.98
			C171.5,248.7,171.41,248.39,171.28,248.09z"/>
		<path class="st0" d="M170.2,329.8c-0.23-0.23-0.48-0.44-0.76-0.62c-0.27-0.18-0.56-0.34-0.86-0.46c-0.3-0.13-0.62-0.22-0.94-0.29
			c-0.64-0.13-1.31-0.13-1.95,0c-0.32,0.07-0.63,0.16-0.94,0.29c-0.3,0.12-0.59,0.28-0.86,0.46c-0.27,0.18-0.53,0.39-0.76,0.62
			c-0.93,0.93-1.46,2.22-1.46,3.53c0,0,0,0,0,0h0v83.33h10v-83.31c0-0.01,0-0.02,0-0.03C171.67,332.02,171.13,330.73,170.2,329.8z"
			/>
		<path class="st0" d="M88.23,249.02c-0.06-0.32-0.16-0.63-0.28-0.93c-0.13-0.3-0.28-0.59-0.46-0.87c-0.18-0.27-0.39-0.53-0.62-0.76
			c-0.23-0.23-0.49-0.44-0.76-0.62c-0.27-0.18-0.56-0.33-0.86-0.46c-0.31-0.12-0.62-0.22-0.94-0.28c-0.64-0.13-1.31-0.13-1.95,0
			c-0.32,0.06-0.64,0.16-0.94,0.28c-0.3,0.13-0.59,0.28-0.86,0.46c-0.28,0.18-0.53,0.39-0.76,0.62s-0.44,0.49-0.62,0.76
			c-0.19,0.28-0.34,0.57-0.46,0.87c-0.13,0.3-0.23,0.61-0.29,0.93c-0.07,0.33-0.1,0.65-0.1,0.98c0,0.02,0,0.04,0,0.06v83.21
			c0,0.02,0,0.04,0,0.06c0,0.02,0,0.04,0,0.06v83.28h10V250h0C88.33,249.67,88.3,249.35,88.23,249.02z"/>
		<path class="st0" d="M421.67,166.67c0-0.02,0-0.03,0-0.05V83.38c0-0.02,0-0.03,0-0.05c0-1.32-0.54-2.6-1.47-3.53
			c-0.23-0.23-0.48-0.44-0.76-0.62c-0.27-0.18-0.56-0.34-0.86-0.46c-0.3-0.13-0.62-0.22-0.94-0.29c-0.64-0.13-1.31-0.13-1.95,0
			c-0.32,0.07-0.63,0.16-0.94,0.29c-0.3,0.12-0.59,0.28-0.86,0.46c-0.27,0.18-0.53,0.39-0.76,0.62c-0.23,0.23-0.44,0.48-0.62,0.76
			c-0.18,0.27-0.33,0.56-0.46,0.86c-0.12,0.3-0.22,0.62-0.28,0.94c-0.07,0.32-0.1,0.65-0.1,0.97c0,0,0,0,0,0h0v333.33h10v-83.31
			c0-0.01,0-0.02,0-0.03c0-0.02,0-0.03,0-0.05v-83.23c0-0.02,0-0.03,0-0.05c0-0.01,0-0.02,0-0.03V166.7
			C421.67,166.69,421.67,166.68,421.67,166.67z"/>
		<path class="st0" d="M328.72,168.58c0.12,0.3,0.27,0.59,0.46,0.86c0.18,0.28,0.39,0.53,0.62,0.76c0.93,0.93,2.22,1.47,3.53,1.47
			c0.33,0,0.66-0.04,0.98-0.1c0.32-0.06,0.63-0.16,0.93-0.29c0.31-0.12,0.6-0.28,0.87-0.46c0.27-0.18,0.53-0.39,0.76-0.62
			c0.93-0.93,1.46-2.22,1.46-3.53c0-1.32-0.53-2.61-1.46-3.54c-0.23-0.23-0.49-0.44-0.76-0.62c-0.27-0.18-0.56-0.33-0.87-0.46
			c-0.3-0.12-0.61-0.22-0.93-0.28c-1.63-0.33-3.35,0.2-4.51,1.36c-0.23,0.23-0.44,0.49-0.62,0.76c-0.19,0.27-0.34,0.56-0.46,0.86
			c-0.13,0.31-0.22,0.62-0.29,0.94c-0.06,0.32-0.1,0.65-0.1,0.98c0,0.32,0.04,0.65,0.1,0.97
			C328.5,167.96,328.59,168.28,328.72,168.58z"/>
		<path class="st0" d="M253.53,163.13c-0.23-0.23-0.48-0.44-0.76-0.62c-0.27-0.18-0.56-0.34-0.86-0.46
			c-0.3-0.13-0.61-0.22-0.93-0.29c-0.65-0.13-1.31-0.13-1.96,0c-0.32,0.07-0.63,0.16-0.93,0.29c-0.3,0.12-0.59,0.28-0.87,0.46
			c-0.27,0.18-0.53,0.39-0.76,0.62c-0.23,0.23-0.44,0.49-0.62,0.76s-0.33,0.56-0.46,0.86c-0.12,0.31-0.22,0.62-0.28,0.94
			c-0.07,0.32-0.1,0.65-0.1,0.98h0v250h10v-250h0C255,165.35,254.47,164.06,253.53,163.13z"/>
		<path class="st0" d="M171.28,164.75c-0.12-0.3-0.28-0.59-0.46-0.86c-0.18-0.27-0.39-0.53-0.62-0.76
			c-0.23-0.23-0.48-0.44-0.76-0.62c-0.27-0.18-0.56-0.33-0.86-0.46c-0.3-0.13-0.62-0.22-0.94-0.29c-0.64-0.13-1.31-0.13-1.95,0
			c-0.32,0.07-0.63,0.16-0.94,0.29c-0.3,0.13-0.59,0.28-0.86,0.46c-0.27,0.18-0.53,0.39-0.76,0.62c-0.93,0.93-1.46,2.22-1.46,3.54
			c0,1.31,0.53,2.6,1.46,3.53c0.23,0.23,0.49,0.44,0.76,0.62c0.27,0.18,0.56,0.34,0.86,0.46c0.31,0.13,0.62,0.22,0.94,0.29
			c0.32,0.06,0.65,0.1,0.98,0.1c0.32,0,0.65-0.04,0.97-0.1c0.32-0.07,0.64-0.16,0.94-0.29c0.3-0.12,0.59-0.28,0.86-0.46
			c0.28-0.18,0.53-0.39,0.76-0.62c0.93-0.93,1.47-2.22,1.47-3.53c0-0.33-0.04-0.66-0.1-0.98
			C171.5,165.37,171.41,165.06,171.28,164.75z"/>
		<path class="st0" d="M78.72,168.58c0.12,0.3,0.27,0.59,0.46,0.86c0.18,0.28,0.39,0.53,0.62,0.76s0.48,0.44,0.76,0.62
			c0.27,0.18,0.56,0.34,0.86,0.46c0.3,0.13,0.62,0.23,0.94,0.29c0.32,0.06,0.65,0.1,0.97,0.1c0.33,0,0.66-0.04,0.98-0.1
			c0.32-0.06,0.63-0.16,0.94-0.29c0.3-0.12,0.59-0.28,0.86-0.46c0.27-0.18,0.53-0.39,0.76-0.62c0.23-0.23,0.44-0.48,0.62-0.76
			c0.18-0.27,0.33-0.56,0.46-0.86c0.12-0.3,0.22-0.62,0.28-0.94c0.07-0.32,0.1-0.65,0.1-0.97c0-0.33-0.03-0.66-0.1-0.98
			c-0.06-0.32-0.16-0.63-0.28-0.94c-0.13-0.3-0.28-0.59-0.46-0.86c-0.18-0.27-0.39-0.53-0.62-0.76c-0.23-0.23-0.49-0.44-0.76-0.62
			c-0.27-0.18-0.56-0.34-0.86-0.46c-0.31-0.13-0.62-0.22-0.94-0.29c-0.64-0.13-1.31-0.13-1.95,0c-0.32,0.07-0.64,0.16-0.94,0.29
			c-0.3,0.12-0.59,0.28-0.86,0.46c-0.28,0.18-0.53,0.39-0.76,0.62s-0.44,0.49-0.62,0.76c-0.19,0.27-0.34,0.56-0.46,0.86
			c-0.13,0.31-0.23,0.62-0.29,0.94c-0.07,0.32-0.1,0.65-0.1,0.98c0,0.32,0.03,0.65,0.1,0.97C78.49,167.96,78.59,168.28,78.72,168.58
			z"/>
		<path class="st0" d="M328.72,85.25c0.12,0.3,0.27,0.59,0.46,0.86c0.18,0.27,0.39,0.53,0.62,0.76c0.93,0.93,2.22,1.46,3.53,1.46
			c0.33,0,0.66-0.03,0.98-0.1c0.32-0.06,0.63-0.16,0.93-0.28c0.31-0.13,0.6-0.28,0.87-0.46c0.27-0.18,0.53-0.39,0.76-0.62
			c0.23-0.23,0.44-0.49,0.62-0.76c0.18-0.27,0.33-0.56,0.46-0.86c0.12-0.31,0.22-0.62,0.28-0.94c0.07-0.32,0.1-0.65,0.1-0.98
			c0-1.31-0.53-2.6-1.46-3.53c-0.23-0.23-0.49-0.44-0.76-0.62c-0.27-0.18-0.56-0.34-0.87-0.46c-0.3-0.13-0.61-0.23-0.93-0.29
			c-1.63-0.33-3.36,0.21-4.51,1.37c-0.93,0.93-1.47,2.21-1.47,3.53c0,0.33,0.04,0.66,0.1,0.98
			C328.5,84.63,328.59,84.94,328.72,85.25z"/>
		<path class="st0" d="M254.62,81.42c-0.13-0.3-0.28-0.59-0.46-0.86c-0.19-0.28-0.39-0.53-0.63-0.76c-0.23-0.23-0.48-0.44-0.76-0.62
			c-0.27-0.18-0.56-0.34-0.86-0.46c-0.3-0.13-0.61-0.22-0.93-0.29c-0.65-0.13-1.31-0.13-1.96,0c-0.32,0.07-0.63,0.16-0.93,0.29
			c-0.3,0.12-0.59,0.28-0.87,0.46c-0.27,0.18-0.53,0.39-0.76,0.62c-0.93,0.93-1.46,2.22-1.46,3.53c0,1.32,0.53,2.61,1.46,3.54
			c0.23,0.23,0.49,0.44,0.76,0.62c0.28,0.18,0.57,0.34,0.87,0.46c0.3,0.13,0.61,0.22,0.93,0.29c0.33,0.06,0.65,0.09,0.98,0.09
			s0.65-0.03,0.98-0.09c0.32-0.07,0.63-0.16,0.93-0.29c0.3-0.12,0.59-0.28,0.86-0.46c0.28-0.18,0.53-0.39,0.76-0.62
			c0.94-0.93,1.47-2.22,1.47-3.54c0-0.32-0.03-0.65-0.1-0.97C254.84,82.04,254.74,81.72,254.62,81.42z"/>
		<path class="st0" d="M169.44,79.18c-0.27-0.18-0.56-0.34-0.86-0.46c-0.3-0.13-0.62-0.23-0.94-0.29c-0.64-0.13-1.31-0.13-1.95,0
			c-0.32,0.06-0.63,0.16-0.94,0.29c-0.3,0.12-0.59,0.28-0.86,0.46c-0.27,0.18-0.53,0.39-0.76,0.62c-0.93,0.93-1.46,2.22-1.46,3.53
			c0,1.32,0.53,2.61,1.46,3.54c0.23,0.23,0.49,0.44,0.76,0.62c0.27,0.18,0.56,0.34,0.86,0.46c0.31,0.13,0.62,0.22,0.94,0.29
			c0.32,0.06,0.65,0.09,0.98,0.09c0.32,0,0.65-0.03,0.97-0.09c0.32-0.07,0.64-0.16,0.94-0.29c0.3-0.12,0.59-0.28,0.86-0.46
			c0.28-0.18,0.53-0.39,0.76-0.62c0.23-0.23,0.44-0.49,0.62-0.76c0.18-0.27,0.34-0.56,0.46-0.86c0.13-0.31,0.22-0.62,0.29-0.94
			c0.06-0.32,0.1-0.65,0.1-0.98c0-1.31-0.54-2.6-1.47-3.53C169.97,79.57,169.72,79.36,169.44,79.18z"/>
		<path class="st0" d="M78.72,85.25c0.12,0.3,0.27,0.59,0.46,0.86c0.18,0.27,0.39,0.53,0.62,0.76s0.48,0.44,0.76,0.62
			c0.27,0.18,0.56,0.33,0.86,0.46c0.3,0.12,0.62,0.22,0.94,0.28c0.32,0.07,0.65,0.1,0.97,0.1c0.33,0,0.66-0.03,0.98-0.1
			c0.32-0.06,0.63-0.16,0.94-0.28c0.3-0.13,0.59-0.28,0.86-0.46c0.27-0.18,0.53-0.39,0.76-0.62c0.93-0.93,1.46-2.22,1.46-3.54
			c0-0.32-0.03-0.65-0.1-0.97c-0.06-0.32-0.16-0.64-0.28-0.94c-0.13-0.3-0.28-0.59-0.46-0.86c-0.18-0.28-0.39-0.53-0.62-0.76
			c-0.23-0.23-0.49-0.44-0.76-0.62c-0.27-0.18-0.56-0.34-0.86-0.46c-0.31-0.13-0.62-0.22-0.94-0.29c-0.64-0.13-1.31-0.13-1.95,0
			c-0.32,0.07-0.64,0.16-0.94,0.29c-0.3,0.12-0.59,0.28-0.86,0.46c-0.28,0.18-0.53,0.39-0.76,0.62s-0.44,0.48-0.62,0.76
			c-0.19,0.27-0.34,0.56-0.46,0.86c-0.13,0.3-0.23,0.62-0.29,0.94c-0.07,0.32-0.1,0.65-0.1,0.97c0,0.33,0.03,0.66,0.1,0.98
			C78.49,84.63,78.59,84.94,78.72,85.25z"/>
		<path class="st0" d="M338.23,249.02c-0.06-0.32-0.16-0.63-0.28-0.93c-0.13-0.3-0.28-0.59-0.46-0.87
			c-0.18-0.27-0.39-0.53-0.62-0.76c-0.23-0.23-0.49-0.44-0.76-0.62c-0.27-0.18-0.56-0.33-0.87-0.46c-0.3-0.12-0.61-0.22-0.93-0.28
			c-1.63-0.33-3.35,0.2-4.51,1.36c-0.23,0.23-0.44,0.49-0.62,0.76c-0.19,0.28-0.34,0.57-0.46,0.87c-0.13,0.3-0.22,0.61-0.29,0.93
			c-0.06,0.33-0.1,0.65-0.1,0.98c0,0.01,0,0.02,0,0.03v83.27c0,0.01,0,0.02,0,0.03c0,0.02,0,0.04,0,0.05v83.28h10V250h0
			C338.33,249.67,338.3,249.35,338.23,249.02z"/>
	</g>
</g>
</svg>
