<?xml version="1.0" encoding="utf-8"?>
<!-- Generator: Adobe Illustrator 23.0.0, SVG Export Plug-In . SVG Version: 6.00 Build 0)  -->
<svg version="1.1" xmlns="http://www.w3.org/2000/svg" xmlns:xlink="http://www.w3.org/1999/xlink" x="0px" y="0px"
	 viewBox="0 0 500 500" style="enable-background:new 0 0 500 500;" xml:space="preserve">
<style type="text/css">
	.st0{fill:#FFFFFF;}
</style>
<g id="BG">
	<rect width="500" height="500"/>
</g>
<g id="DESIGN">
	<g>
		<path class="st0" d="M421.57,332.36c-0.07-0.32-0.16-0.64-0.29-0.94c-0.12-0.3-0.28-0.59-0.46-0.86
			c-0.18-0.28-0.39-0.53-0.62-0.76c-0.23-0.23-0.48-0.44-0.76-0.62c-0.27-0.18-0.56-0.34-0.86-0.46c-0.3-0.13-0.62-0.22-0.94-0.29
			c-0.64-0.13-1.3-0.13-1.95,0c-0.32,0.07-0.63,0.16-0.94,0.29c-0.3,0.12-0.59,0.28-0.86,0.46c-0.27,0.18-0.53,0.39-0.76,0.62
			c-0.23,0.23-0.44,0.48-0.62,0.76c-0.18,0.27-0.34,0.56-0.46,0.86c-0.13,0.3-0.22,0.62-0.29,0.94c-0.06,0.32-0.09,0.65-0.09,0.97
			c0,0.33,0.03,0.66,0.09,0.98c0.07,0.32,0.16,0.63,0.29,0.94c0.12,0.3,0.28,0.59,0.46,0.86c0.18,0.27,0.39,0.53,0.62,0.76
			c0.23,0.23,0.49,0.44,0.76,0.62c0.27,0.18,0.56,0.34,0.87,0.46c0.3,0.12,0.61,0.22,0.93,0.28c0.32,0.07,0.65,0.1,0.98,0.1
			c0.32,0,0.65-0.03,0.97-0.1c0.32-0.06,0.64-0.16,0.94-0.28c0.3-0.12,0.59-0.28,0.86-0.46c0.27-0.18,0.53-0.39,0.76-0.62
			c0.23-0.23,0.44-0.49,0.62-0.76c0.18-0.27,0.34-0.56,0.46-0.86c0.13-0.31,0.22-0.62,0.29-0.94c0.06-0.32,0.1-0.65,0.1-0.98
			C421.67,333.01,421.63,332.68,421.57,332.36z"/>
		<path class="st0" d="M337.95,414.75c-0.13-0.3-0.28-0.59-0.46-0.86c-0.18-0.27-0.39-0.53-0.62-0.76
			c-0.23-0.23-0.49-0.44-0.76-0.62c-0.27-0.18-0.56-0.33-0.86-0.46c-0.31-0.13-0.62-0.22-0.94-0.29c-0.65-0.13-1.31-0.13-1.95,0
			c-0.32,0.07-0.64,0.16-0.94,0.29s-0.59,0.28-0.86,0.46c-0.28,0.18-0.53,0.39-0.76,0.62c-0.24,0.23-0.44,0.49-0.63,0.76
			c-0.18,0.27-0.33,0.56-0.45,0.86c-0.13,0.31-0.23,0.62-0.29,0.94c-0.06,0.32-0.1,0.65-0.1,0.98c0,0.32,0.04,0.65,0.1,0.97
			c0.06,0.32,0.16,0.64,0.29,0.94c0.12,0.3,0.28,0.59,0.46,0.86c0.18,0.28,0.39,0.53,0.62,0.76c0.23,0.23,0.48,0.44,0.76,0.62
			c0.27,0.18,0.56,0.34,0.86,0.46c0.3,0.13,0.62,0.23,0.94,0.29c0.32,0.07,0.65,0.1,0.97,0.1c1.32,0,2.61-0.54,3.54-1.47
			c0.23-0.23,0.44-0.48,0.62-0.76c0.18-0.27,0.33-0.56,0.46-0.86c0.12-0.3,0.22-0.62,0.28-0.94c0.07-0.32,0.1-0.65,0.1-0.97
			c0-0.33-0.03-0.66-0.1-0.98C338.17,415.37,338.07,415.06,337.95,414.75z"/>
		<path class="st0" d="M252.77,245.84c-0.27-0.18-0.56-0.33-0.86-0.46c-0.3-0.12-0.61-0.22-0.93-0.28c-0.65-0.14-1.31-0.13-1.96,0
			c-0.32,0.06-0.63,0.16-0.93,0.28c-0.3,0.13-0.59,0.28-0.86,0.46c-0.28,0.18-0.53,0.39-0.76,0.62c-0.94,0.94-1.47,2.22-1.47,3.54
			c0,0.33,0.03,0.65,0.1,0.98c0.06,0.31,0.16,0.63,0.28,0.93c0.13,0.3,0.28,0.59,0.46,0.87c0.19,0.27,0.39,0.53,0.63,0.76
			c0.22,0.23,0.48,0.44,0.76,0.62c0.27,0.18,0.56,0.33,0.86,0.46c0.3,0.12,0.61,0.22,0.93,0.28c0.33,0.07,0.65,0.1,0.98,0.1
			c1.32,0,2.61-0.53,3.53-1.46c0.24-0.23,0.44-0.49,0.63-0.76c0.18-0.28,0.33-0.57,0.46-0.87c0.12-0.3,0.22-0.62,0.28-0.93
			c0.07-0.33,0.1-0.65,0.1-0.98c0-1.32-0.53-2.6-1.47-3.54C253.31,246.23,253.05,246.02,252.77,245.84z"/>
		<path class="st0" d="M171.28,414.75c-0.12-0.3-0.28-0.59-0.46-0.86c-0.18-0.27-0.39-0.53-0.62-0.76
			c-0.23-0.23-0.48-0.44-0.76-0.62c-0.27-0.18-0.56-0.33-0.86-0.46s-0.62-0.22-0.94-0.29c-0.64-0.13-1.31-0.13-1.95,0
			c-0.32,0.07-0.63,0.16-0.94,0.29c-0.3,0.13-0.59,0.28-0.86,0.46c-0.27,0.18-0.53,0.39-0.76,0.62c-0.23,0.23-0.44,0.49-0.62,0.76
			c-0.18,0.27-0.33,0.56-0.46,0.86c-0.12,0.31-0.22,0.62-0.28,0.94c-0.07,0.32-0.1,0.65-0.1,0.98c0,0.32,0.03,0.65,0.1,0.97
			c0.06,0.32,0.16,0.64,0.28,0.94c0.13,0.3,0.28,0.59,0.46,0.86c0.18,0.28,0.39,0.53,0.62,0.76c0.23,0.23,0.49,0.44,0.76,0.62
			c0.27,0.18,0.56,0.34,0.86,0.46c0.31,0.13,0.62,0.23,0.94,0.29c0.32,0.07,0.65,0.1,0.98,0.1c1.31,0,2.6-0.54,3.53-1.47
			c0.23-0.23,0.44-0.48,0.62-0.76c0.18-0.27,0.34-0.56,0.46-0.86c0.13-0.3,0.22-0.62,0.29-0.94c0.06-0.32,0.1-0.65,0.1-0.97
			c0-0.33-0.04-0.66-0.1-0.98C171.5,415.37,171.41,415.06,171.28,414.75z"/>
		<path class="st0" d="M419.44,162.51c-0.27-0.18-0.56-0.34-0.86-0.46c-0.3-0.13-0.62-0.22-0.94-0.29
			c-1.62-0.33-3.35,0.21-4.51,1.37c-0.23,0.23-0.44,0.49-0.62,0.76c-0.18,0.27-0.34,0.56-0.46,0.86c-0.13,0.31-0.22,0.62-0.29,0.94
			c-0.06,0.32-0.09,0.65-0.09,0.98c0,0.32,0.03,0.65,0.09,0.98c0.07,0.31,0.16,0.63,0.29,0.93c0.12,0.3,0.28,0.59,0.46,0.86
			c0.18,0.28,0.39,0.53,0.62,0.76c0.93,0.93,2.22,1.47,3.54,1.47c0.32,0,0.65-0.03,0.97-0.1c0.32-0.06,0.64-0.16,0.94-0.28
			c0.3-0.13,0.59-0.29,0.86-0.46c0.28-0.19,0.53-0.4,0.76-0.63c0.23-0.23,0.44-0.48,0.62-0.76c0.18-0.27,0.34-0.56,0.46-0.86
			c0.13-0.3,0.22-0.62,0.29-0.93c0.06-0.33,0.09-0.65,0.09-0.98s-0.03-0.66-0.09-0.98c-0.07-0.32-0.16-0.63-0.29-0.94
			c-0.12-0.3-0.28-0.59-0.46-0.86c-0.18-0.27-0.39-0.53-0.62-0.76C419.97,162.9,419.72,162.69,419.44,162.51z"/>
		<path class="st0" d="M78.72,168.58c0.12,0.3,0.28,0.59,0.46,0.86c0.18,0.28,0.39,0.53,0.62,0.76c0.23,0.23,0.48,0.44,0.76,0.63
			c0.27,0.17,0.56,0.33,0.86,0.46c0.3,0.12,0.62,0.22,0.93,0.28c0.33,0.07,0.66,0.1,0.98,0.1c0.33,0,0.66-0.03,0.98-0.1
			c0.32-0.06,0.63-0.16,0.94-0.28c0.3-0.13,0.59-0.29,0.86-0.46c0.27-0.19,0.53-0.4,0.76-0.63c0.23-0.23,0.44-0.48,0.62-0.76
			c0.18-0.27,0.34-0.56,0.46-0.86c0.13-0.3,0.22-0.62,0.29-0.93c0.06-0.33,0.09-0.66,0.09-0.98c0-0.33-0.03-0.66-0.09-0.98
			c-0.07-0.32-0.16-0.63-0.29-0.94c-0.12-0.3-0.28-0.59-0.46-0.86c-0.18-0.27-0.39-0.53-0.62-0.76c-0.23-0.23-0.49-0.44-0.76-0.62
			c-0.27-0.18-0.56-0.34-0.86-0.46c-0.31-0.13-0.62-0.22-0.94-0.29c-0.65-0.13-1.31-0.13-1.96,0c-0.31,0.07-0.63,0.16-0.93,0.29
			c-0.3,0.12-0.59,0.28-0.86,0.46c-0.28,0.18-0.53,0.39-0.76,0.62c-0.23,0.23-0.44,0.49-0.62,0.76c-0.18,0.27-0.34,0.56-0.46,0.86
			c-0.13,0.31-0.23,0.62-0.29,0.94c-0.07,0.32-0.1,0.65-0.1,0.98c0,0.32,0.03,0.65,0.1,0.98C78.49,167.96,78.59,168.28,78.72,168.58
			z"/>
		<path class="st0" d="M328.71,85.25c0.13,0.3,0.28,0.59,0.46,0.86c0.19,0.27,0.4,0.53,0.63,0.76c0.23,0.23,0.48,0.44,0.76,0.62
			c0.27,0.18,0.56,0.34,0.86,0.46c0.3,0.12,0.62,0.22,0.94,0.28c0.32,0.07,0.65,0.1,0.97,0.1c0.33,0,0.66-0.03,0.98-0.1
			c0.32-0.06,0.63-0.16,0.93-0.28c0.31-0.12,0.6-0.28,0.87-0.46c0.27-0.18,0.53-0.39,0.76-0.62c0.23-0.23,0.44-0.49,0.62-0.76
			c0.18-0.27,0.34-0.56,0.46-0.86c0.13-0.31,0.22-0.62,0.29-0.94c0.06-0.32,0.09-0.65,0.09-0.98c0-1.31-0.53-2.6-1.46-3.53
			c-0.23-0.23-0.49-0.44-0.76-0.62c-0.27-0.18-0.56-0.34-0.87-0.46c-0.3-0.13-0.61-0.22-0.93-0.29c-0.65-0.13-1.31-0.13-1.95,0
			c-0.32,0.07-0.64,0.16-0.94,0.29c-0.3,0.12-0.59,0.28-0.86,0.46c-0.28,0.18-0.53,0.39-0.76,0.62c-0.94,0.93-1.47,2.22-1.47,3.53
			c0,0.33,0.03,0.66,0.1,0.98C328.49,84.63,328.59,84.94,328.71,85.25z"/>
		<path class="st0" d="M169.44,79.18c-0.27-0.18-0.56-0.34-0.86-0.46c-0.3-0.13-0.62-0.22-0.93-0.29c-0.65-0.13-1.31-0.13-1.96,0
			c-0.32,0.07-0.63,0.16-0.94,0.29c-0.3,0.12-0.59,0.28-0.86,0.46c-0.27,0.18-0.53,0.39-0.76,0.62c-0.93,0.93-1.46,2.22-1.46,3.53
			c0,0.33,0.03,0.66,0.1,0.98c0.06,0.32,0.16,0.63,0.28,0.94c0.13,0.3,0.28,0.59,0.46,0.86c0.18,0.27,0.39,0.53,0.62,0.76
			c0.23,0.23,0.49,0.44,0.76,0.62c0.27,0.18,0.56,0.34,0.86,0.46c0.31,0.12,0.62,0.22,0.94,0.28c0.32,0.07,0.65,0.1,0.98,0.1
			c0.32,0,0.65-0.03,0.98-0.1c0.31-0.06,0.63-0.16,0.93-0.28c0.3-0.12,0.59-0.28,0.86-0.46c0.28-0.18,0.53-0.39,0.76-0.62
			c0.23-0.23,0.44-0.49,0.62-0.76c0.18-0.27,0.34-0.56,0.46-0.86c0.13-0.31,0.22-0.62,0.29-0.94c0.06-0.32,0.1-0.65,0.1-0.98
			c0-1.31-0.54-2.6-1.47-3.53C169.97,79.57,169.72,79.36,169.44,79.18z"/>
		<path class="st0" d="M80.56,337.49c0.27,0.18,0.56,0.34,0.86,0.46c0.3,0.12,0.62,0.22,0.93,0.28c0.33,0.07,0.66,0.1,0.98,0.1
			c0.33,0,0.66-0.03,0.98-0.1c0.32-0.06,0.63-0.16,0.93-0.28c0.31-0.12,0.6-0.28,0.87-0.46c0.27-0.18,0.53-0.39,0.76-0.62
			c0.23-0.23,0.44-0.49,0.62-0.76c0.18-0.27,0.33-0.56,0.46-0.86c0.12-0.31,0.22-0.62,0.28-0.94c0.07-0.32,0.1-0.65,0.1-0.98
			c0-0.32-0.03-0.65-0.1-0.97c-0.06-0.32-0.16-0.64-0.28-0.94c-0.13-0.3-0.28-0.59-0.46-0.86c-0.18-0.28-0.39-0.53-0.62-0.76
			c-0.23-0.23-0.49-0.44-0.76-0.62c-0.27-0.18-0.56-0.34-0.87-0.46c-0.3-0.13-0.61-0.22-0.93-0.29c-0.65-0.13-1.31-0.13-1.96,0
			c-0.31,0.07-0.63,0.16-0.93,0.29c-0.3,0.12-0.59,0.28-0.86,0.46c-0.28,0.18-0.53,0.39-0.76,0.62c-0.23,0.23-0.44,0.48-0.62,0.76
			c-0.18,0.27-0.34,0.56-0.46,0.86c-0.13,0.3-0.22,0.62-0.29,0.94c-0.06,0.32-0.1,0.65-0.1,0.97c0,0.33,0.04,0.66,0.1,0.98
			c0.07,0.32,0.16,0.63,0.29,0.94c0.12,0.3,0.28,0.59,0.46,0.86c0.18,0.27,0.39,0.53,0.62,0.76
			C80.03,337.1,80.28,337.31,80.56,337.49z"/>
		
			<rect x="66.07" y="370" transform="matrix(0.7071 -0.7071 0.7071 0.7071 -228.5534 198.2233)" class="st0" width="117.85" height="10"/>
		<rect x="120" y="66.07" transform="matrix(0.7071 -0.7071 0.7071 0.7071 -51.7767 125)" class="st0" width="10" height="117.85"/>
		
			<rect x="316.07" y="120" transform="matrix(0.7071 -0.7071 0.7071 0.7071 21.4466 301.7767)" class="st0" width="117.85" height="10"/>
		
			<rect x="370" y="316.07" transform="matrix(0.7071 -0.7071 0.7071 0.7071 -155.3301 375)" class="st0" width="10" height="117.85"/>
		<rect x="83.33" y="245" class="st0" width="83.33" height="10"/>
		<rect x="245" y="83.33" class="st0" width="10" height="83.33"/>
		<rect x="333.33" y="245" class="st0" width="83.33" height="10"/>
		<rect x="245" y="333.33" class="st0" width="10" height="83.33"/>
	</g>
</g>
</svg>
