<?xml version="1.0" encoding="utf-8"?>
<!-- Generator: Adobe Illustrator 23.0.0, SVG Export Plug-In . SVG Version: 6.00 Build 0)  -->
<svg version="1.1" xmlns="http://www.w3.org/2000/svg" xmlns:xlink="http://www.w3.org/1999/xlink" x="0px" y="0px"
	 viewBox="0 0 500 500" style="enable-background:new 0 0 500 500;" xml:space="preserve">
<style type="text/css">
	.st0{fill:#FFFFFF;}
</style>
<g id="BG">
	<rect x="0" width="500" height="500"/>
</g>
<g id="DESIGN">
	<g>
		<g id="XMLID_411_">
			<polygon class="st0" points="199.44,416.67 189.44,416.67 189.44,307.63 78.33,196.52 78.33,83.33 88.33,83.33 88.33,192.37 
				199.44,303.48 			"/>
			<polygon class="st0" points="310.56,416.67 300.56,416.67 300.56,307.63 189.44,196.52 189.44,83.33 199.44,83.33 199.44,192.37 
				310.56,303.48 			"/>
			<polygon class="st0" points="421.67,416.67 411.67,416.67 411.67,307.63 300.56,196.52 300.56,83.33 310.56,83.33 310.56,192.37 
				421.67,303.48 			"/>
			<rect x="78.33" y="305.56" class="st0" width="10" height="111.11"/>
			<rect x="411.67" y="83.33" class="st0" width="10" height="111.11"/>
		</g>
	</g>
</g>
</svg>
