<?xml version="1.0" encoding="utf-8"?>
<!-- Generator: Adobe Illustrator 23.0.0, SVG Export Plug-In . SVG Version: 6.00 Build 0)  -->
<svg version="1.1" xmlns="http://www.w3.org/2000/svg" xmlns:xlink="http://www.w3.org/1999/xlink" x="0px" y="0px"
	 viewBox="0 0 500 500" style="enable-background:new 0 0 500 500;" xml:space="preserve">
<style type="text/css">
	.st0{fill:#FFFFFF;}
</style>
<g id="BG">
	<rect width="500" height="500"/>
</g>
<g id="DESIGN">
	<path class="st0" d="M371.39,128.61c-66.93-66.93-175.84-66.93-242.77,0c-66.93,66.93-66.93,175.84,0,242.77
		c33.47,33.47,77.43,50.2,121.39,50.2s87.92-16.73,121.39-50.2C438.32,304.45,438.32,195.55,371.39,128.61z M367.79,360.72
		L257.07,250l110.72-110.72C426.18,201.35,426.18,298.65,367.79,360.72z M360.72,132.21L250,242.93L139.28,132.21
		c31.04-29.2,70.87-43.8,110.72-43.8C289.84,88.41,329.69,103.02,360.72,132.21z M132.21,139.28L242.93,250L132.21,360.72
		C73.82,298.65,73.82,201.35,132.21,139.28z M139.28,367.79L250,257.07l110.72,110.72C298.65,426.18,201.35,426.18,139.28,367.79z"
		/>
</g>
</svg>
