<?xml version="1.0" encoding="utf-8"?>
<!-- Generator: Adobe Illustrator 23.0.0, SVG Export Plug-In . SVG Version: 6.00 Build 0)  -->
<svg version="1.1" xmlns="http://www.w3.org/2000/svg" xmlns:xlink="http://www.w3.org/1999/xlink" x="0px" y="0px"
	 viewBox="0 0 500 500" style="enable-background:new 0 0 500 500;" xml:space="preserve">
<style type="text/css">
	.st0{fill:#FFFFFF;}
</style>
<g id="BG">
	<rect width="500" height="500"/>
</g>
<g id="DESIGN">
	<path class="st0" d="M398.81,335.51c14.53-25.19,22.85-54.4,22.85-85.51c0-94.66-77.01-171.67-171.67-171.67
		S78.33,155.34,78.33,250c0,31.11,8.32,60.32,22.85,85.51c0.05,0.11,0.08,0.22,0.14,0.32c0.12,0.2,0.24,0.39,0.38,0.57
		c29.81,50.96,85.11,85.26,148.29,85.26c63.17,0,118.48-34.31,148.29-85.26c0.14-0.18,0.27-0.37,0.38-0.57
		C398.73,335.73,398.76,335.62,398.81,335.51z M411.67,250c0,27.64-6.98,53.67-19.25,76.45L255,247.11V88.42
		C341.84,91.07,411.67,162.53,411.67,250z M245,88.42v158.7l-137.42,79.34C95.31,303.67,88.33,277.64,88.33,250
		C88.33,162.53,158.16,91.07,245,88.42z M250,411.67c-57.94,0-108.85-30.64-137.4-76.57L250,255.77l137.4,79.33
		C358.85,381.02,307.94,411.67,250,411.67z"/>
</g>
</svg>
