<?xml version="1.0" encoding="utf-8"?>
<!-- Generator: Adobe Illustrator 23.0.0, SVG Export Plug-In . SVG Version: 6.00 Build 0)  -->
<svg version="1.1" xmlns="http://www.w3.org/2000/svg" xmlns:xlink="http://www.w3.org/1999/xlink" x="0px" y="0px"
	 viewBox="0 0 500 500" style="enable-background:new 0 0 500 500;" xml:space="preserve">
<style type="text/css">
	.st0{fill:#FFFFFF;}
</style>
<g id="BG">
	<rect width="500" height="500"/>
</g>
<g id="DESIGN">
	<path class="st0" d="M250,78.33c-94.66,0-171.67,77.01-171.67,171.67S155.34,421.67,250,421.67S421.67,344.66,421.67,250
		S344.66,78.33,250,78.33z M250,327.56l-67.17-38.78v-77.56L250,172.44l67.17,38.78v77.56L250,327.56z M88.33,250
		c0-87.47,69.83-158.93,156.67-161.58v75.36l-72.17,41.67v89.11L245,336.22v75.36C158.16,408.93,88.33,337.47,88.33,250z
		 M255,411.58v-75.36l72.17-41.67v-89.11L255,163.78V88.42c86.84,2.65,156.67,74.11,156.67,161.58S341.84,408.93,255,411.58z"/>
</g>
</svg>
