<?xml version="1.0" encoding="utf-8"?>
<!-- Generator: Adobe Illustrator 23.0.0, SVG Export Plug-In . SVG Version: 6.00 Build 0)  -->
<svg version="1.1" xmlns="http://www.w3.org/2000/svg" xmlns:xlink="http://www.w3.org/1999/xlink" x="0px" y="0px"
	 viewBox="0 0 500 500" style="enable-background:new 0 0 500 500;" xml:space="preserve">
<style type="text/css">
	.st0{fill:#FFFFFF;}
</style>
<g id="BG">
	<rect x="0" width="500" height="500"/>
</g>
<g id="DESIGN">
	<path class="st0" d="M374.81,132.26l45.39-45.39l-7.07-7.07l-45.39,45.39C336.98,96.16,295.53,78.33,250,78.33
		c-94.66,0-171.67,77.01-171.67,171.67c0,45.53,17.83,86.98,46.86,117.74L79.8,413.13l7.07,7.07l45.39-45.39
		c30.76,29.03,72.2,46.86,117.74,46.86c94.66,0,171.67-77.01,171.67-171.67C421.67,204.47,403.84,163.02,374.81,132.26z M88.33,250
		c0-89.14,72.52-161.67,161.67-161.67c42.78,0,81.72,16.71,110.67,43.93l-228.4,228.4C105.04,331.72,88.33,292.78,88.33,250z
		 M250,411.67c-42.78,0-81.72-16.71-110.67-43.93l228.4-228.4c27.22,28.95,43.93,67.89,43.93,110.67
		C411.67,339.14,339.14,411.67,250,411.67z"/>
</g>
</svg>
