<?xml version="1.0" encoding="utf-8"?>
<!-- Generator: Adobe Illustrator 23.0.0, SVG Export Plug-In . SVG Version: 6.00 Build 0)  -->
<svg version="1.1" xmlns="http://www.w3.org/2000/svg" xmlns:xlink="http://www.w3.org/1999/xlink" x="0px" y="0px"
	 viewBox="0 0 500 500" style="enable-background:new 0 0 500 500;" xml:space="preserve">
<style type="text/css">
	.st0{fill:#FFFFFF;}
</style>
<g id="BG">
	<rect width="500" height="500"/>
</g>
<g id="DESIGN">
	<path class="st0" d="M335.9,329.04C296.13,305.2,255,280.55,255,250c0-30.55,41.13-55.2,80.9-79.04
		c42.16-25.27,85.76-51.4,85.76-87.62h-10c0,30.55-41.13,55.2-80.9,79.04c-22.46,13.46-45.32,27.16-61.78,42.5
		c7.34-12,16.81-23.36,26.53-35.01c21.06-25.24,42.83-51.34,42.83-86.54h-10c0,31.57-19.68,55.16-40.51,80.13
		c-12.15,14.56-24.52,29.41-32.83,46.12V83.33h-10v126.25c-8.31-16.71-20.68-31.56-32.83-46.12
		c-20.83-24.97-40.51-48.56-40.51-80.13h-10c0,35.2,21.77,61.3,42.83,86.54c9.72,11.66,19.19,23.01,26.53,35.01
		c-16.47-15.34-39.33-29.05-61.78-42.5c-39.78-23.84-80.9-48.49-80.9-79.04h-10c0,36.22,43.6,62.35,85.76,87.62
		C203.87,194.8,245,219.45,245,250c0,30.55-41.13,55.2-80.9,79.04c-42.16,25.27-85.76,51.4-85.76,87.62h10
		c0-30.55,41.13-55.2,80.9-79.04c22.46-13.46,45.32-27.16,61.78-42.51c-7.34,12-16.81,23.36-26.53,35.01
		c-21.06,25.24-42.83,51.34-42.83,86.54h10c0-31.57,19.68-55.16,40.51-80.13c12.15-14.56,24.52-29.41,32.83-46.12v126.25h10V290.41
		c8.31,16.71,20.68,31.56,32.83,46.12c20.83,24.97,40.51,48.56,40.51,80.13h10c0-35.2-21.77-61.3-42.83-86.54
		c-9.72-11.66-19.19-23.01-26.53-35.01c16.47,15.34,39.33,29.05,61.78,42.51c39.78,23.84,80.9,48.49,80.9,79.04h10
		C421.67,380.45,378.07,354.32,335.9,329.04z"/>
</g>
</svg>
