<?xml version="1.0" encoding="utf-8"?>
<!-- Generator: Adobe Illustrator 23.0.0, SVG Export Plug-In . SVG Version: 6.00 Build 0)  -->
<svg version="1.1" xmlns="http://www.w3.org/2000/svg" xmlns:xlink="http://www.w3.org/1999/xlink" x="0px" y="0px"
	 viewBox="0 0 500 500" style="enable-background:new 0 0 500 500;" xml:space="preserve">
<style type="text/css">
	.st0{fill:#FFFFFF;}
</style>
<g id="BG">
	<rect x="0" width="500" height="500"/>
</g>
<g id="DESIGN">
	<g>
		<polygon class="st0" points="334.1,195.67 255,241.34 255,150 245,150 245,241.34 165.9,195.67 160.9,204.33 240,250 
			160.9,295.67 165.9,304.33 245,258.66 245,350 255,350 255,258.66 334.1,304.33 339.1,295.67 260,250 339.1,204.33 		"/>
		<path class="st0" d="M250,78.33c-94.66,0-171.67,77.01-171.67,171.67S155.34,421.67,250,421.67S421.67,344.66,421.67,250
			S344.66,78.33,250,78.33z M250,411.67c-89.14,0-161.67-72.52-161.67-161.67S160.86,88.33,250,88.33S411.67,160.86,411.67,250
			S339.14,411.67,250,411.67z"/>
	</g>
</g>
</svg>
