<?xml version="1.0" encoding="utf-8"?>
<!-- Generator: Adobe Illustrator 23.0.0, SVG Export Plug-In . SVG Version: 6.00 Build 0)  -->
<svg version="1.1" xmlns="http://www.w3.org/2000/svg" xmlns:xlink="http://www.w3.org/1999/xlink" x="0px" y="0px"
	 viewBox="0 0 500 500" style="enable-background:new 0 0 500 500;" xml:space="preserve">
<style type="text/css">
	.st0{fill:#FFFFFF;}
</style>
<g id="BG">
	<rect x="0" width="500" height="500"/>
</g>
<g id="DESIGN">
	<g>
		<path class="st0" d="M250,78.33v10c89.14,0,161.67,72.52,161.67,161.67S339.14,411.67,250,411.67S88.33,339.14,88.33,250h-10
			c0,94.66,77.01,171.67,171.67,171.67S421.67,344.66,421.67,250S344.66,78.33,250,78.33z"/>
		<path class="st0" d="M250,143.89c58.51,0,106.11,47.6,106.11,106.11S308.51,356.11,250,356.11v10
			c64.02,0,116.11-52.09,116.11-116.11S314.02,133.89,250,133.89S133.89,185.98,133.89,250h10
			C143.89,191.49,191.49,143.89,250,143.89z"/>
		<path class="st0" d="M250,199.44c27.88,0,50.56,22.68,50.56,50.56h10c0-33.39-27.17-60.56-60.56-60.56s-60.56,27.17-60.56,60.56
			s27.17,60.56,60.56,60.56v-10c-27.88,0-50.56-22.68-50.56-50.56S222.12,199.44,250,199.44z"/>
	</g>
</g>
</svg>
