<?xml version="1.0" encoding="utf-8"?>
<!-- Generator: Adobe Illustrator 23.0.0, SVG Export Plug-In . SVG Version: 6.00 Build 0)  -->
<svg version="1.1" xmlns="http://www.w3.org/2000/svg" xmlns:xlink="http://www.w3.org/1999/xlink" x="0px" y="0px"
	 viewBox="0 0 500 500" style="enable-background:new 0 0 500 500;" xml:space="preserve">
<style type="text/css">
	.st0{fill:#FFFFFF;}
</style>
<g id="BG">
	<rect x="0" width="500" height="500"/>
</g>
<g id="DESIGN">
	<g>
		<path class="st0" d="M420.2,246.46c-1.16-1.16-2.89-1.69-4.51-1.36c-0.32,0.06-0.63,0.16-0.94,0.28c-0.3,0.13-0.59,0.28-0.86,0.46
			s-0.53,0.39-0.76,0.62c-0.93,0.93-1.46,2.22-1.46,3.54c0,0.33,0.03,0.65,0.09,0.98c0.07,0.32,0.16,0.63,0.29,0.93
			c0.12,0.3,0.28,0.59,0.46,0.87c0.18,0.27,0.39,0.52,0.62,0.76c0.23,0.23,0.49,0.43,0.76,0.62c0.27,0.18,0.56,0.33,0.86,0.46
			c0.31,0.12,0.62,0.22,0.94,0.28c0.32,0.07,0.65,0.1,0.98,0.1c1.31,0,2.6-0.53,3.53-1.46c0.93-0.94,1.47-2.23,1.47-3.54
			C421.67,248.68,421.13,247.4,420.2,246.46z"/>
		<path class="st0" d="M379.62,248.09c-0.13-0.3-0.28-0.59-0.46-0.87c-0.18-0.27-0.39-0.52-0.62-0.76
			c-0.23-0.23-0.49-0.44-0.76-0.62c-0.28-0.18-0.57-0.33-0.87-0.46c-0.3-0.12-0.61-0.22-0.93-0.28c-0.65-0.13-1.31-0.13-1.96,0
			c-0.32,0.06-0.63,0.16-0.93,0.28c-0.3,0.13-0.59,0.28-0.87,0.46c-0.27,0.18-0.53,0.39-0.76,0.62c-0.23,0.24-0.44,0.49-0.62,0.76
			c-0.18,0.28-0.33,0.57-0.46,0.87c-0.12,0.3-0.22,0.61-0.28,0.93c-0.07,0.32-0.1,0.65-0.1,0.98s0.03,0.65,0.1,0.98
			c0.06,0.32,0.16,0.63,0.28,0.93c0.13,0.3,0.28,0.59,0.46,0.87c0.18,0.27,0.39,0.53,0.62,0.76s0.49,0.44,0.76,0.62
			c0.28,0.18,0.57,0.33,0.87,0.46c0.3,0.12,0.62,0.22,0.93,0.28c0.33,0.07,0.66,0.1,0.98,0.1c1.32,0,2.6-0.53,3.54-1.46
			c0.23-0.23,0.44-0.49,0.62-0.76c0.18-0.28,0.33-0.57,0.46-0.87c0.12-0.3,0.22-0.61,0.28-0.93c0.07-0.33,0.1-0.65,0.1-0.98
			s-0.03-0.66-0.1-0.98C379.84,248.7,379.74,248.39,379.62,248.09z"/>
		<path class="st0" d="M337.95,248.09c-0.12-0.3-0.28-0.59-0.46-0.87c-0.18-0.27-0.39-0.53-0.62-0.76s-0.49-0.44-0.76-0.62
			s-0.56-0.33-0.86-0.46c-0.31-0.12-0.62-0.22-0.94-0.28c-0.64-0.13-1.31-0.13-1.95,0c-0.32,0.06-0.64,0.16-0.94,0.28
			c-0.3,0.13-0.59,0.28-0.86,0.46c-0.28,0.18-0.53,0.39-0.76,0.62s-0.44,0.49-0.62,0.76c-0.18,0.28-0.34,0.57-0.46,0.87
			c-0.13,0.3-0.22,0.61-0.29,0.93c-0.06,0.33-0.1,0.65-0.1,0.98c0,1.32,0.54,2.6,1.47,3.54c0.23,0.23,0.48,0.43,0.76,0.62
			c0.27,0.18,0.56,0.33,0.86,0.46c0.3,0.12,0.62,0.22,0.94,0.28c0.32,0.07,0.65,0.1,0.97,0.1c0.33,0,0.66-0.03,0.98-0.1
			c0.32-0.06,0.63-0.16,0.94-0.28c0.3-0.13,0.59-0.28,0.86-0.46c0.27-0.19,0.53-0.39,0.76-0.62c0.93-0.93,1.46-2.22,1.46-3.54
			c0-0.33-0.03-0.65-0.09-0.98C338.17,248.7,338.08,248.39,337.95,248.09z"/>
		<path class="st0" d="M291.67,245c-1.32,0-2.61,0.53-3.54,1.46c-0.93,0.93-1.46,2.22-1.46,3.54c0,1.32,0.53,2.6,1.46,3.54
			c0.93,0.93,2.22,1.46,3.54,1.46c1.31,0,2.6-0.53,3.53-1.46c0.93-0.94,1.47-2.22,1.47-3.54c0-1.32-0.54-2.6-1.47-3.54
			C294.27,245.53,292.98,245,291.67,245z"/>
		<path class="st0" d="M211.11,245.84c-0.27-0.18-0.56-0.33-0.86-0.46c-0.31-0.12-0.62-0.22-0.94-0.28c-0.64-0.13-1.31-0.13-1.95,0
			c-0.32,0.06-0.64,0.16-0.94,0.28c-0.3,0.13-0.59,0.28-0.86,0.46c-0.28,0.18-0.53,0.39-0.76,0.62c-0.93,0.93-1.47,2.22-1.47,3.54
			c0,1.32,0.54,2.61,1.47,3.54c0.93,0.93,2.22,1.46,3.53,1.46c0.33,0,0.66-0.03,0.98-0.1c0.32-0.06,0.63-0.16,0.94-0.28
			c0.3-0.13,0.59-0.28,0.86-0.46c0.27-0.18,0.53-0.39,0.76-0.62c0.93-0.93,1.46-2.22,1.46-3.54c0-1.32-0.53-2.61-1.46-3.54
			C211.64,246.23,211.38,246.02,211.11,245.84z"/>
		<path class="st0" d="M171.28,248.09c-0.12-0.3-0.28-0.59-0.46-0.87c-0.18-0.27-0.39-0.52-0.62-0.76
			c-1.16-1.16-2.89-1.69-4.51-1.36c-0.32,0.06-0.63,0.16-0.94,0.28c-0.3,0.13-0.59,0.28-0.86,0.46c-0.27,0.19-0.53,0.39-0.76,0.62
			c-0.93,0.94-1.46,2.22-1.46,3.54c0,1.32,0.53,2.6,1.46,3.54c0.23,0.23,0.49,0.44,0.76,0.62c0.27,0.18,0.56,0.33,0.86,0.46
			c0.31,0.12,0.62,0.22,0.94,0.28c0.32,0.07,0.65,0.1,0.98,0.1c1.31,0,2.6-0.53,3.53-1.46c0.93-0.94,1.47-2.22,1.47-3.54
			c0-0.33-0.04-0.65-0.1-0.98C171.51,248.7,171.41,248.39,171.28,248.09z"/>
		<path class="st0" d="M129.62,248.09c-0.13-0.3-0.28-0.59-0.46-0.87c-0.19-0.27-0.39-0.53-0.62-0.76
			c-0.24-0.23-0.49-0.44-0.77-0.62c-0.27-0.18-0.56-0.33-0.86-0.46c-0.3-0.12-0.61-0.22-0.93-0.28c-0.65-0.13-1.31-0.13-1.96,0
			c-0.32,0.06-0.63,0.16-0.93,0.28c-0.3,0.13-0.59,0.28-0.87,0.46c-0.27,0.18-0.52,0.39-0.76,0.62c-0.23,0.23-0.44,0.49-0.62,0.76
			c-0.18,0.28-0.33,0.57-0.46,0.87c-0.12,0.3-0.22,0.61-0.28,0.93c-0.07,0.32-0.1,0.65-0.1,0.98c0,1.32,0.53,2.61,1.46,3.54
			c0.24,0.23,0.49,0.44,0.76,0.62c0.28,0.18,0.57,0.33,0.87,0.46c0.3,0.12,0.61,0.22,0.93,0.28c0.33,0.07,0.65,0.1,0.98,0.1
			s0.65-0.03,0.98-0.1c0.32-0.06,0.63-0.16,0.93-0.28c0.3-0.13,0.59-0.28,0.86-0.46c0.28-0.18,0.53-0.39,0.77-0.62
			c0.93-0.94,1.46-2.22,1.46-3.54c0-0.33-0.03-0.66-0.1-0.98C129.84,248.7,129.74,248.39,129.62,248.09z"/>
		<path class="st0" d="M87.95,248.09c-0.12-0.3-0.28-0.59-0.46-0.87c-0.18-0.27-0.39-0.53-0.62-0.76s-0.49-0.44-0.76-0.62
			s-0.56-0.33-0.86-0.46c-0.31-0.12-0.62-0.22-0.94-0.28c-1.62-0.33-3.35,0.2-4.51,1.36c-0.23,0.23-0.44,0.49-0.62,0.76
			c-0.18,0.28-0.34,0.57-0.46,0.87c-0.13,0.3-0.22,0.61-0.29,0.93c-0.06,0.33-0.1,0.65-0.1,0.98s0.04,0.65,0.1,0.98
			c0.07,0.32,0.16,0.63,0.29,0.93c0.12,0.3,0.28,0.59,0.46,0.87c0.18,0.27,0.39,0.53,0.62,0.76s0.48,0.43,0.76,0.62
			c0.27,0.18,0.56,0.33,0.86,0.46c0.3,0.12,0.62,0.22,0.94,0.28c0.32,0.07,0.65,0.1,0.97,0.1c1.32,0,2.61-0.53,3.54-1.46
			c0.93-0.93,1.46-2.22,1.46-3.54c0-0.33-0.03-0.65-0.09-0.98C88.17,248.7,88.08,248.39,87.95,248.09z"/>
		<path class="st0" d="M250,78.33c-1.31,0-2.6,0.54-3.54,1.47c-0.93,0.93-1.46,2.22-1.46,3.53c0,0.33,0.03,0.66,0.1,0.98
			c0.06,0.32,0.16,0.63,0.28,0.94c0.13,0.3,0.28,0.59,0.46,0.86s0.39,0.53,0.62,0.76c0.94,0.93,2.23,1.46,3.54,1.46
			s2.6-0.53,3.54-1.46c0.23-0.23,0.44-0.49,0.62-0.76c0.18-0.27,0.33-0.56,0.46-0.86c0.12-0.31,0.22-0.62,0.28-0.94
			c0.07-0.32,0.1-0.65,0.1-0.98c0-1.31-0.53-2.6-1.46-3.53C252.6,78.87,251.31,78.33,250,78.33z"/>
		<path class="st0" d="M254.62,123.09c-0.13-0.3-0.28-0.59-0.46-0.87c-0.18-0.27-0.39-0.52-0.62-0.76
			c-0.23-0.23-0.49-0.44-0.76-0.62c-0.28-0.18-0.57-0.33-0.87-0.46c-0.3-0.12-0.61-0.22-0.93-0.28c-0.65-0.13-1.31-0.13-1.96,0
			c-0.32,0.06-0.63,0.16-0.93,0.28c-0.3,0.13-0.59,0.28-0.87,0.46c-0.27,0.18-0.53,0.39-0.76,0.62c-0.23,0.24-0.44,0.49-0.62,0.76
			c-0.18,0.28-0.33,0.57-0.46,0.87c-0.12,0.3-0.22,0.61-0.28,0.93c-0.07,0.33-0.1,0.65-0.1,0.98s0.03,0.65,0.1,0.98
			c0.06,0.32,0.16,0.63,0.28,0.93c0.13,0.3,0.28,0.59,0.46,0.87c0.18,0.27,0.39,0.53,0.62,0.76s0.49,0.44,0.76,0.62
			c0.28,0.18,0.57,0.33,0.87,0.46c0.3,0.12,0.61,0.22,0.93,0.28c0.33,0.07,0.65,0.1,0.98,0.1c1.32,0,2.6-0.53,3.54-1.46
			c0.93-0.94,1.46-2.22,1.46-3.54c0-0.33-0.03-0.65-0.1-0.98C254.84,123.7,254.74,123.39,254.62,123.09z"/>
		<path class="st0" d="M249.02,161.76c-0.32,0.07-0.63,0.16-0.93,0.29c-0.3,0.12-0.59,0.28-0.87,0.46
			c-0.27,0.18-0.53,0.39-0.76,0.62s-0.44,0.49-0.62,0.76c-0.18,0.27-0.33,0.56-0.46,0.86c-0.12,0.31-0.22,0.62-0.28,0.94
			c-0.07,0.32-0.1,0.65-0.1,0.98c0,0.32,0.03,0.65,0.1,0.97c0.06,0.32,0.16,0.64,0.28,0.94c0.13,0.3,0.28,0.59,0.46,0.86
			c0.18,0.28,0.39,0.53,0.62,0.76s0.49,0.44,0.76,0.62c0.28,0.18,0.57,0.34,0.87,0.46c0.3,0.13,0.61,0.22,0.93,0.29
			c0.33,0.06,0.65,0.1,0.98,0.1c0.33,0,0.65-0.04,0.98-0.1c0.32-0.07,0.63-0.16,0.93-0.29c0.3-0.12,0.59-0.28,0.87-0.46
			c0.27-0.18,0.53-0.39,0.76-0.62s0.44-0.48,0.62-0.76c0.18-0.27,0.33-0.56,0.46-0.86c0.12-0.3,0.22-0.62,0.28-0.94
			c0.07-0.32,0.1-0.65,0.1-0.97c0-1.32-0.53-2.61-1.46-3.54C252.37,161.97,250.65,161.43,249.02,161.76z"/>
		<path class="st0" d="M254.62,206.42c-0.13-0.3-0.28-0.59-0.46-0.86c-0.18-0.28-0.39-0.53-0.62-0.76
			c-0.94-0.93-2.23-1.47-3.54-1.47s-2.6,0.54-3.54,1.47c-0.23,0.23-0.44,0.48-0.62,0.76c-0.18,0.27-0.33,0.56-0.46,0.86
			c-0.12,0.3-0.22,0.62-0.28,0.94c-0.07,0.32-0.1,0.65-0.1,0.97c0,0.33,0.03,0.66,0.1,0.98c0.06,0.32,0.16,0.63,0.28,0.94
			c0.13,0.3,0.28,0.59,0.46,0.86s0.39,0.53,0.62,0.76c0.94,0.93,2.23,1.46,3.54,1.46s2.6-0.53,3.54-1.46
			c0.93-0.93,1.46-2.22,1.46-3.54c0-0.32-0.03-0.65-0.1-0.97C254.84,207.04,254.74,206.72,254.62,206.42z"/>
		<path class="st0" d="M254.62,248.09c-0.13-0.3-0.28-0.59-0.46-0.87c-0.18-0.27-0.39-0.52-0.62-0.76
			c-0.23-0.23-0.49-0.44-0.76-0.62c-0.28-0.18-0.57-0.33-0.87-0.46c-0.3-0.12-0.61-0.22-0.93-0.28c-0.65-0.13-1.31-0.13-1.96,0
			c-0.32,0.06-0.63,0.16-0.93,0.28c-0.3,0.13-0.59,0.28-0.87,0.46c-0.27,0.18-0.53,0.39-0.76,0.62c-0.23,0.24-0.44,0.49-0.62,0.76
			c-0.18,0.28-0.33,0.57-0.46,0.87c-0.12,0.3-0.22,0.61-0.28,0.93c-0.07,0.33-0.1,0.65-0.1,0.98s0.03,0.65,0.1,0.98
			c0.06,0.32,0.16,0.63,0.28,0.93c0.13,0.3,0.28,0.59,0.46,0.87c0.18,0.27,0.39,0.53,0.62,0.76s0.49,0.44,0.76,0.62
			c0.28,0.18,0.57,0.33,0.87,0.46c0.3,0.12,0.61,0.22,0.93,0.28c0.33,0.07,0.65,0.1,0.98,0.1c1.32,0,2.6-0.53,3.54-1.46
			c0.93-0.94,1.46-2.22,1.46-3.54c0-0.33-0.03-0.65-0.1-0.98C254.84,248.7,254.74,248.39,254.62,248.09z"/>
		<path class="st0" d="M250,286.67c-1.31,0-2.6,0.53-3.54,1.46c-0.23,0.23-0.44,0.49-0.62,0.76c-0.18,0.27-0.33,0.56-0.46,0.86
			c-0.12,0.31-0.22,0.62-0.28,0.94c-0.07,0.32-0.1,0.65-0.1,0.98c0,0.32,0.03,0.65,0.1,0.97c0.06,0.32,0.16,0.64,0.28,0.94
			c0.13,0.3,0.28,0.59,0.46,0.86c0.18,0.28,0.39,0.53,0.62,0.76s0.49,0.44,0.76,0.62c0.28,0.18,0.57,0.34,0.87,0.46
			c0.3,0.13,0.61,0.22,0.93,0.29c0.33,0.06,0.65,0.1,0.98,0.1c0.33,0,0.65-0.04,0.98-0.1c0.32-0.07,0.63-0.16,0.93-0.29
			c0.3-0.12,0.59-0.28,0.87-0.46c0.27-0.18,0.53-0.39,0.76-0.62c0.93-0.93,1.46-2.22,1.46-3.53c0-1.32-0.53-2.61-1.46-3.54
			C252.6,287.2,251.31,286.67,250,286.67z"/>
		<path class="st0" d="M249.02,328.43c-0.32,0.07-0.63,0.16-0.93,0.29c-0.3,0.12-0.59,0.28-0.87,0.46
			c-0.27,0.18-0.53,0.39-0.76,0.62s-0.44,0.48-0.62,0.76c-0.18,0.27-0.33,0.56-0.46,0.86c-0.12,0.3-0.22,0.62-0.28,0.94
			c-0.07,0.32-0.1,0.65-0.1,0.97c0,1.32,0.53,2.61,1.46,3.54c0.94,0.93,2.23,1.46,3.54,1.46s2.6-0.53,3.54-1.46
			c0.93-0.93,1.46-2.22,1.46-3.54c0-1.31-0.53-2.6-1.46-3.53C252.37,328.64,250.65,328.1,249.02,328.43z"/>
		<path class="st0" d="M252.78,370.84c-0.28-0.18-0.57-0.33-0.87-0.46c-0.3-0.12-0.61-0.22-0.93-0.28c-0.65-0.13-1.31-0.13-1.96,0
			c-0.32,0.06-0.63,0.16-0.93,0.28c-0.3,0.13-0.59,0.28-0.87,0.46c-0.27,0.18-0.53,0.39-0.76,0.62s-0.44,0.49-0.62,0.76
			c-0.18,0.28-0.33,0.57-0.46,0.87c-0.12,0.3-0.22,0.61-0.28,0.93c-0.07,0.33-0.1,0.65-0.1,0.98c0,1.32,0.53,2.6,1.46,3.54
			c0.23,0.23,0.49,0.44,0.76,0.62c0.28,0.18,0.57,0.33,0.87,0.46c0.3,0.12,0.61,0.22,0.93,0.28c0.33,0.07,0.65,0.1,0.98,0.1
			c1.32,0,2.6-0.53,3.54-1.46c0.93-0.94,1.46-2.22,1.46-3.54c0-1.32-0.53-2.6-1.46-3.54C253.31,371.23,253.05,371.02,252.78,370.84z
			"/>
		<path class="st0" d="M250,411.67c-1.31,0-2.6,0.53-3.54,1.46c-0.93,0.93-1.46,2.22-1.46,3.54c0,0.32,0.03,0.65,0.1,0.97
			c0.06,0.32,0.16,0.64,0.28,0.94c0.13,0.3,0.28,0.59,0.46,0.86c0.18,0.28,0.39,0.53,0.62,0.76s0.49,0.44,0.76,0.62
			c0.28,0.18,0.57,0.34,0.87,0.46c0.3,0.13,0.61,0.22,0.93,0.29c0.33,0.06,0.65,0.1,0.98,0.1c1.32,0,2.6-0.54,3.54-1.47
			c0.93-0.93,1.46-2.22,1.46-3.53c0-1.32-0.53-2.61-1.46-3.54C252.6,412.2,251.31,411.67,250,411.67z"/>
	</g>
</g>
</svg>
