<?xml version="1.0" encoding="utf-8"?>
<!-- Generator: Adobe Illustrator 23.0.0, SVG Export Plug-In . SVG Version: 6.00 Build 0)  -->
<svg version="1.1" xmlns="http://www.w3.org/2000/svg" xmlns:xlink="http://www.w3.org/1999/xlink" x="0px" y="0px"
	 viewBox="0 0 500 500" style="enable-background:new 0 0 500 500;" xml:space="preserve">
<style type="text/css">
	.st0{fill:#FFFFFF;}
</style>
<g id="BG">
	<rect width="500" height="500"/>
</g>
<g id="DESIGN">
	<g>
		<polygon class="st0" points="88.33,88.33 194.44,88.33 194.44,78.33 78.33,78.33 78.33,421.67 194.44,421.67 194.44,411.67 
			88.33,411.67 		"/>
		<polygon class="st0" points="305.56,78.33 305.56,88.33 411.67,88.33 411.67,411.67 305.56,411.67 305.56,421.67 421.67,421.67 
			421.67,78.33 		"/>
		<polygon class="st0" points="325.03,167.9 250,242.93 174.97,167.9 167.9,174.97 242.93,250 167.9,325.03 174.97,332.1 
			250,257.07 325.03,332.1 332.1,325.03 257.07,250 332.1,174.97 		"/>
	</g>
</g>
</svg>
