<?xml version="1.0" encoding="utf-8"?>
<!-- Generator: Adobe Illustrator 23.0.0, SVG Export Plug-In . SVG Version: 6.00 Build 0)  -->
<svg version="1.1" xmlns="http://www.w3.org/2000/svg" xmlns:xlink="http://www.w3.org/1999/xlink" x="0px" y="0px"
	 viewBox="0 0 500 500" style="enable-background:new 0 0 500 500;" xml:space="preserve">
<style type="text/css">
	.st0{fill:#FFFFFF;}
</style>
<g id="BG">
	<rect width="500" height="500"/>
</g>
<g id="DESIGN">
	<g>
		<path class="st0" d="M364.32,364.32c-16.99,17-37.89,30.19-60.43,38.15l3.33,9.43c23.93-8.46,46.12-22.47,64.17-40.51
			s32.05-40.23,40.51-64.17l-9.43-3.33C394.5,326.43,381.31,347.32,364.32,364.32z"/>
		<path class="st0" d="M402.47,196.11l9.43-3.33c-8.46-23.93-22.47-46.12-40.51-64.17c-18.04-18.04-40.23-32.05-64.17-40.51
			l-3.33,9.43c22.54,7.97,43.43,21.16,60.43,38.15C381.31,152.68,394.51,173.57,402.47,196.11z"/>
		<path class="st0" d="M135.68,135.68c16.99-17,37.89-30.19,60.43-38.15l-3.33-9.43c-23.93,8.46-46.12,22.47-64.17,40.51
			s-32.05,40.23-40.51,64.17l9.43,3.33C105.5,173.57,118.69,152.68,135.68,135.68z"/>
		<path class="st0" d="M97.53,303.89l-9.43,3.33c8.46,23.93,22.47,46.12,40.51,64.17s40.23,32.05,64.17,40.51l3.33-9.43
			c-22.54-7.97-43.43-21.16-60.43-38.15C118.69,347.32,105.5,326.43,97.53,303.89z"/>
		<polygon class="st0" points="255,245 255,83.33 245,83.33 245,245 83.33,245 83.33,255 245,255 245,416.67 255,416.67 255,255 
			416.67,255 416.67,245 		"/>
	</g>
</g>
</svg>
