<?xml version="1.0" encoding="utf-8"?>
<!-- Generator: Adobe Illustrator 21.0.0, SVG Export Plug-In . SVG Version: 6.00 Build 0)  -->
<svg version="1.1" id="Layer_1" xmlns="http://www.w3.org/2000/svg" xmlns:xlink="http://www.w3.org/1999/xlink" x="0px" y="0px"
	 viewBox="0 0 500 500" style="enable-background:new 0 0 500 500;" xml:space="preserve">
<style type="text/css">
	.st0{fill:#FFFFFF;}
</style>
<g id="BG">
	<rect width="500" height="500"/>
</g>
<g>
	<path class="st0" d="M398.7,164.2c-47.3-82-152.5-110.2-234.5-62.8c-26.1,15-47.8,36.8-62.8,62.8c-22.9,39.7-29,86-17.1,130.2
		c11.9,44.3,40.3,81.3,80,104.2c26.1,15,55.7,23,85.8,23c94.7,0,171.7-77,171.6-171.6C421.7,219.9,413.7,190.2,398.7,164.2z
		 M250,411.7c-28.3,0-56.3-7.5-80.8-21.7c-37.4-21.6-64.1-56.5-75.3-98.2c-11.2-41.7-5.4-85.3,16.2-122.7
		c14.2-24.5,34.6-45,59.2-59.2c25.4-14.7,53.2-21.6,80.6-21.6c55.9,0,110.4,29,140.3,80.8c14.2,24.5,21.7,52.5,21.7,80.8
		C411.7,339.1,339.2,411.7,250,411.7z"/>
	<path class="st0" d="M177.8,178.3c-16.5,0-30,13.5-30,30c0,16.5,13.5,30,30,30c16.5,0,30-13.5,30-30
		C207.8,191.8,194.4,178.3,177.8,178.3z"/>
	<path class="st0" d="M250,280c16.5,0,30-13.5,30-30s-13.5-30-30-30c-16.5,0-30,13.5-30,30C220,266.5,233.5,280,250,280z"/>
	<path class="st0" d="M322.2,178.3c-16.5,0-30,13.5-30,30c0,16.5,13.5,30,30,30c16.5,0,30-13.5,30-30
		C352.2,191.8,338.7,178.3,322.2,178.3z"/>
	<path class="st0" d="M250,303.3c-16.5,0-30,13.5-30,30c0,16.5,13.5,30,30,30s30-13.5,30-30C280,316.8,266.5,303.3,250,303.3z"/>
</g>
</svg>
