<?xml version="1.0" encoding="utf-8"?>
<!-- Generator: Adobe Illustrator 23.0.0, SVG Export Plug-In . SVG Version: 6.00 Build 0)  -->
<svg version="1.1" xmlns="http://www.w3.org/2000/svg" xmlns:xlink="http://www.w3.org/1999/xlink" x="0px" y="0px"
	 viewBox="0 0 500 500" style="enable-background:new 0 0 500 500;" xml:space="preserve">
<style type="text/css">
	.st0{fill:#FFFFFF;}
</style>
<g id="BG">
	<rect width="500" height="500"/>
</g>
<g id="DESIGN">
	<g>
		<path class="st0" d="M371.39,128.61C338.96,96.19,295.85,78.33,250,78.33c-45.85,0-88.96,17.86-121.39,50.28
			c-66.93,66.93-66.93,175.84,0,242.77c33.47,33.47,77.43,50.2,121.39,50.2s87.92-16.73,121.39-50.2
			C438.32,304.45,438.32,195.55,371.39,128.61z M364.32,364.32c-30.54,30.54-71.13,47.35-114.32,47.35s-83.78-16.82-114.32-47.35
			c-63.03-63.03-63.03-165.6,0-228.63C167.2,104.17,208.6,88.41,250,88.41s82.8,15.76,114.32,47.28
			C427.35,198.72,427.35,301.28,364.32,364.32z"/>
		<polygon class="st0" points="305.39,187.54 250,242.93 194.61,187.54 187.54,194.61 242.93,250 187.54,305.39 194.61,312.46 
			250,257.07 305.39,312.46 312.46,305.39 257.07,250 312.46,194.61 		"/>
	</g>
</g>
</svg>
