<?xml version="1.0" encoding="utf-8"?>
<!-- Generator: Adobe Illustrator 23.0.0, SVG Export Plug-In . SVG Version: 6.00 Build 0)  -->
<svg version="1.1" xmlns="http://www.w3.org/2000/svg" xmlns:xlink="http://www.w3.org/1999/xlink" x="0px" y="0px"
	 viewBox="0 0 500 500" style="enable-background:new 0 0 500 500;" xml:space="preserve">
<style type="text/css">
	.st0{fill:#FFFFFF;}
</style>
<g id="BG">
	<rect width="500" height="500"/>
</g>
<g id="DESIGN">
	<g>
		<path class="st0" d="M189.66,399.98c-0.51-0.21-1.02-0.41-1.53-0.63c-0.51-0.21-1.02-0.42-1.52-0.64
			c-55.28-23.65-94.81-77.25-98.06-140.28c0-0.05-0.01-0.09-0.01-0.14c-0.06-1.19-0.1-2.38-0.14-3.57c-0.01-0.2-0.02-0.39-0.02-0.59
			c-0.03-1.37-0.05-2.75-0.05-4.13s0.02-2.76,0.05-4.13c0-0.2,0.02-0.39,0.02-0.59c0.03-1.19,0.08-2.39,0.14-3.57
			c0-0.05,0.01-0.09,0.01-0.14c3.25-63.03,42.78-116.63,98.06-140.28c0.51-0.21,1.01-0.43,1.52-0.64c0.51-0.21,1.02-0.42,1.54-0.63
			c58.28-23.35,127.52-11.47,174.65,35.66l7.07-7.07c-33.47-33.47-77.43-50.2-121.39-50.2v-0.08c-22.64,0-44.26,4.41-64.07,12.41
			c-0.54,0.22-1.07,0.44-1.61,0.66c-0.54,0.23-1.09,0.45-1.63,0.68c-19.66,8.35-38.07,20.52-54.07,36.52
			c-30.31,30.31-47.88,69.95-50.05,112.44c0,0.05-0.01,0.09-0.01,0.14c-0.06,1.26-0.11,2.53-0.14,3.8
			c-0.01,0.21-0.02,0.41-0.02,0.62c-0.04,1.46-0.06,2.92-0.06,4.39s0.02,2.93,0.06,4.39c0.01,0.21,0.02,0.41,0.02,0.62
			c0.04,1.27,0.08,2.54,0.14,3.8c0,0.05,0.01,0.09,0.01,0.14c2.17,42.49,19.74,82.13,50.05,112.44
			c16.05,16.05,34.52,28.24,54.24,36.6c0.38,0.16,0.76,0.32,1.14,0.48c0.7,0.29,1.4,0.58,2.11,0.86c0.98,0.39,1.96,0.78,2.95,1.15
			c0.11,0.04,0.21,0.08,0.32,0.12c18.86,7.14,39.29,11.07,60.63,11.07v-0.08c43.96,0,87.92-16.74,121.39-50.2l-7.07-7.07
			C317.18,411.45,247.95,423.33,189.66,399.98z"/>
		<rect x="250" y="245" class="st0" width="166.67" height="10"/>
	</g>
</g>
</svg>
