<?xml version="1.0" encoding="utf-8"?>
<!-- Generator: Adobe Illustrator 23.0.0, SVG Export Plug-In . SVG Version: 6.00 Build 0)  -->
<svg version="1.1" xmlns="http://www.w3.org/2000/svg" xmlns:xlink="http://www.w3.org/1999/xlink" x="0px" y="0px"
	 viewBox="0 0 500 500" style="enable-background:new 0 0 500 500;" xml:space="preserve">
<style type="text/css">
	.st0{fill:#FFFFFF;}
</style>
<g id="BG">
	<rect width="500" height="500"/>
</g>
<g id="DESIGN">
	<g>
		<path class="st0" d="M166.67,328.33c-2.76,0-5,2.24-5,5v83.33c0,2.76,2.24,5,5,5s5-2.24,5-5v-83.33
			C171.67,330.57,169.43,328.33,166.67,328.33z"/>
		<path class="st0" d="M250,245c-2.76,0-5,2.24-5,5v166.67c0,2.76,2.24,5,5,5s5-2.24,5-5V250C255,247.24,252.76,245,250,245z"/>
		<path class="st0" d="M333.33,161.67c-2.76,0-5,2.24-5,5v250c0,2.76,2.24,5,5,5s5-2.24,5-5v-250
			C338.33,163.91,336.09,161.67,333.33,161.67z"/>
		<path class="st0" d="M416.67,78.33c-2.76,0-5,2.24-5,5v333.33c0,2.76,2.24,5,5,5s5-2.24,5-5V83.33
			C421.67,80.57,419.43,78.33,416.67,78.33z"/>
		<path class="st0" d="M86.11,412.51c-0.27-0.18-0.56-0.34-0.86-0.46c-0.31-0.13-0.62-0.22-0.94-0.29c-0.64-0.13-1.31-0.13-1.95,0
			c-0.32,0.07-0.64,0.16-0.94,0.29c-0.3,0.12-0.59,0.28-0.86,0.46c-0.28,0.18-0.53,0.39-0.76,0.62c-0.94,0.93-1.47,2.22-1.47,3.54
			c0,0.32,0.03,0.65,0.1,0.97c0.06,0.32,0.16,0.64,0.28,0.94c0.13,0.3,0.28,0.59,0.47,0.86c0.18,0.28,0.39,0.53,0.62,0.76
			c0.23,0.23,0.48,0.44,0.76,0.62c0.27,0.18,0.56,0.34,0.86,0.46c0.3,0.13,0.62,0.22,0.94,0.29c0.32,0.06,0.65,0.1,0.97,0.1
			c0.33,0,0.66-0.04,0.98-0.1c0.32-0.07,0.63-0.16,0.93-0.29c0.31-0.12,0.6-0.28,0.87-0.46c0.27-0.18,0.53-0.39,0.76-0.62
			c0.23-0.23,0.44-0.48,0.62-0.76c0.18-0.27,0.34-0.56,0.46-0.86c0.13-0.3,0.22-0.62,0.29-0.94c0.06-0.32,0.09-0.65,0.09-0.97
			c0-1.32-0.53-2.61-1.46-3.54C86.64,412.9,86.38,412.69,86.11,412.51z"/>
		<path class="st0" d="M82.36,328.43c-0.32,0.07-0.64,0.16-0.94,0.29c-0.3,0.12-0.59,0.28-0.86,0.46c-0.28,0.18-0.53,0.39-0.76,0.62
			c-0.24,0.23-0.44,0.48-0.63,0.76c-0.18,0.27-0.33,0.56-0.46,0.86c-0.12,0.3-0.22,0.62-0.28,0.94c-0.07,0.32-0.1,0.65-0.1,0.97
			c0,0.33,0.03,0.66,0.1,0.98c0.06,0.32,0.16,0.63,0.29,0.94c0.12,0.3,0.28,0.59,0.46,0.86c0.18,0.27,0.39,0.53,0.62,0.76
			c0.23,0.23,0.48,0.44,0.76,0.62c0.27,0.18,0.56,0.34,0.86,0.46c0.3,0.13,0.62,0.22,0.94,0.29c0.32,0.06,0.65,0.09,0.97,0.09
			c0.33,0,0.66-0.03,0.98-0.09c0.32-0.07,0.63-0.16,0.93-0.29c0.31-0.12,0.6-0.28,0.87-0.46c0.27-0.18,0.53-0.39,0.76-0.62
			c0.23-0.23,0.44-0.49,0.62-0.76c0.18-0.27,0.33-0.56,0.46-0.86c0.13-0.31,0.22-0.62,0.29-0.94c0.06-0.32,0.09-0.65,0.09-0.98
			c0-1.31-0.53-2.6-1.46-3.53C85.71,328.64,83.98,328.11,82.36,328.43z"/>
		<path class="st0" d="M87.95,248.09c-0.13-0.3-0.28-0.59-0.46-0.87c-0.18-0.27-0.39-0.52-0.62-0.76c-0.23-0.23-0.49-0.44-0.76-0.62
			c-0.27-0.18-0.56-0.33-0.87-0.46c-0.3-0.12-0.61-0.22-0.93-0.28c-0.64-0.13-1.31-0.13-1.95,0c-0.32,0.06-0.64,0.16-0.94,0.28
			c-0.3,0.13-0.59,0.28-0.86,0.46c-0.28,0.18-0.53,0.39-0.76,0.62c-0.23,0.24-0.44,0.49-0.63,0.76c-0.18,0.28-0.33,0.57-0.45,0.87
			c-0.13,0.3-0.23,0.61-0.29,0.93c-0.06,0.32-0.1,0.65-0.1,0.98s0.04,0.66,0.1,0.98c0.06,0.32,0.16,0.63,0.29,0.93
			c0.12,0.3,0.27,0.59,0.45,0.87c0.19,0.27,0.4,0.52,0.63,0.76c0.23,0.23,0.48,0.44,0.76,0.62c0.27,0.18,0.56,0.33,0.86,0.46
			c0.3,0.12,0.62,0.22,0.94,0.28c0.32,0.07,0.65,0.1,0.97,0.1c0.33,0,0.66-0.03,0.98-0.1c0.32-0.06,0.63-0.16,0.93-0.28
			c0.31-0.13,0.6-0.28,0.87-0.46c0.27-0.18,0.53-0.39,0.76-0.62c0.23-0.24,0.44-0.49,0.62-0.76c0.18-0.28,0.33-0.57,0.46-0.87
			c0.12-0.3,0.22-0.61,0.28-0.93c0.07-0.32,0.1-0.65,0.1-0.98s-0.03-0.66-0.1-0.98C88.17,248.7,88.07,248.39,87.95,248.09z"/>
		<path class="st0" d="M86.11,162.51c-0.27-0.18-0.56-0.34-0.86-0.46c-0.31-0.13-0.62-0.22-0.94-0.29c-0.64-0.13-1.31-0.13-1.95,0
			c-0.32,0.07-0.64,0.16-0.94,0.29c-0.3,0.12-0.59,0.28-0.86,0.46c-0.28,0.18-0.53,0.39-0.76,0.62c-0.93,0.93-1.47,2.22-1.47,3.54
			c0,0.32,0.04,0.65,0.1,0.97c0.06,0.32,0.16,0.64,0.29,0.94c0.12,0.3,0.27,0.59,0.45,0.86c0.19,0.28,0.4,0.53,0.63,0.76
			c0.23,0.23,0.48,0.44,0.76,0.62c0.27,0.18,0.56,0.34,0.86,0.46c0.3,0.13,0.62,0.23,0.94,0.29c0.32,0.07,0.65,0.1,0.97,0.1
			c1.32,0,2.61-0.54,3.54-1.47c0.23-0.23,0.44-0.48,0.62-0.76c0.18-0.27,0.33-0.56,0.46-0.86c0.12-0.3,0.22-0.62,0.28-0.94
			c0.07-0.32,0.1-0.65,0.1-0.97c0-1.32-0.53-2.61-1.46-3.54C86.64,162.9,86.38,162.69,86.11,162.51z"/>
		<path class="st0" d="M87.95,81.42c-0.13-0.3-0.28-0.59-0.46-0.86c-0.18-0.28-0.39-0.53-0.62-0.76c-0.23-0.23-0.49-0.44-0.76-0.62
			c-0.27-0.18-0.56-0.34-0.86-0.47c-0.31-0.12-0.62-0.22-0.94-0.28c-0.64-0.13-1.31-0.13-1.95,0c-0.32,0.06-0.64,0.16-0.94,0.28
			c-0.3,0.13-0.59,0.29-0.86,0.47c-0.28,0.18-0.53,0.39-0.76,0.62c-0.23,0.23-0.44,0.48-0.62,0.76c-0.18,0.27-0.34,0.56-0.46,0.86
			c-0.13,0.3-0.22,0.62-0.29,0.94c-0.06,0.32-0.1,0.65-0.1,0.97c0,0.33,0.04,0.66,0.1,0.98c0.07,0.32,0.16,0.63,0.29,0.93
			c0.12,0.31,0.28,0.6,0.46,0.87c0.18,0.27,0.39,0.53,0.62,0.76c0.23,0.23,0.48,0.44,0.76,0.62c0.27,0.18,0.56,0.34,0.86,0.46
			c0.3,0.12,0.62,0.22,0.94,0.28c0.32,0.07,0.65,0.1,0.97,0.1c0.33,0,0.66-0.03,0.98-0.1c0.32-0.06,0.63-0.16,0.94-0.28
			c0.3-0.12,0.59-0.28,0.86-0.46c0.27-0.18,0.53-0.39,0.76-0.62c0.23-0.23,0.44-0.49,0.62-0.76c0.18-0.27,0.33-0.56,0.46-0.87
			c0.12-0.3,0.22-0.61,0.28-0.93c0.07-0.32,0.1-0.65,0.1-0.98c0-0.32-0.03-0.65-0.1-0.97C88.17,82.04,88.07,81.72,87.95,81.42z"/>
		<path class="st0" d="M171.28,81.42c-0.12-0.3-0.28-0.59-0.46-0.86c-0.18-0.28-0.39-0.53-0.62-0.76c-0.23-0.23-0.48-0.44-0.76-0.62
			c-0.27-0.18-0.56-0.34-0.86-0.47c-0.3-0.12-0.62-0.22-0.94-0.28c-0.64-0.13-1.31-0.13-1.95,0c-0.32,0.06-0.63,0.16-0.93,0.28
			c-0.31,0.13-0.6,0.29-0.87,0.47c-0.27,0.18-0.53,0.39-0.76,0.62c-0.23,0.23-0.44,0.48-0.62,0.76c-0.18,0.27-0.34,0.56-0.46,0.86
			s-0.22,0.62-0.28,0.94c-0.07,0.32-0.1,0.65-0.1,0.97c0,0.33,0.03,0.66,0.1,0.98c0.06,0.32,0.16,0.63,0.28,0.93
			c0.12,0.31,0.28,0.6,0.46,0.87c0.18,0.27,0.39,0.53,0.62,0.76c0.23,0.23,0.49,0.44,0.76,0.62c0.27,0.18,0.56,0.34,0.87,0.46
			c0.3,0.12,0.61,0.22,0.93,0.28c0.32,0.07,0.65,0.1,0.98,0.1c0.32,0,0.65-0.03,0.97-0.1c0.32-0.06,0.64-0.16,0.94-0.28
			c0.3-0.12,0.59-0.28,0.86-0.46c0.28-0.18,0.53-0.39,0.76-0.62c0.23-0.23,0.44-0.49,0.62-0.76c0.18-0.27,0.34-0.56,0.46-0.87
			c0.13-0.3,0.23-0.61,0.29-0.93c0.07-0.32,0.1-0.65,0.1-0.98c0-0.32-0.03-0.65-0.1-0.97C171.51,82.04,171.41,81.72,171.28,81.42z"
			/>
		<path class="st0" d="M254.62,81.42c-0.13-0.3-0.28-0.59-0.46-0.86c-0.18-0.28-0.39-0.53-0.63-0.76c-0.23-0.23-0.48-0.44-0.76-0.62
			c-0.27-0.18-0.56-0.34-0.86-0.47c-0.3-0.12-0.61-0.22-0.93-0.28c-0.65-0.13-1.31-0.13-1.96,0c-0.32,0.06-0.63,0.16-0.93,0.28
			c-0.3,0.13-0.59,0.29-0.87,0.47c-0.27,0.18-0.53,0.39-0.76,0.62c-0.23,0.23-0.44,0.48-0.62,0.76c-0.18,0.27-0.33,0.56-0.46,0.86
			c-0.12,0.3-0.22,0.62-0.28,0.94c-0.07,0.32-0.1,0.65-0.1,0.97c0,0.33,0.03,0.66,0.1,0.98c0.06,0.32,0.16,0.63,0.28,0.93
			c0.13,0.31,0.28,0.6,0.46,0.87c0.18,0.27,0.39,0.53,0.62,0.76c0.23,0.23,0.49,0.44,0.76,0.62c0.28,0.18,0.57,0.34,0.87,0.46
			c0.3,0.12,0.61,0.22,0.93,0.28c0.33,0.07,0.65,0.1,0.98,0.1c0.32,0,0.65-0.03,0.98-0.1c0.32-0.06,0.63-0.16,0.93-0.28
			c0.3-0.12,0.59-0.28,0.86-0.46c0.28-0.18,0.53-0.39,0.76-0.62c0.24-0.23,0.45-0.49,0.63-0.76c0.18-0.27,0.33-0.56,0.46-0.87
			c0.12-0.3,0.22-0.61,0.28-0.93c0.07-0.32,0.1-0.65,0.1-0.98c0-0.32-0.03-0.65-0.1-0.97C254.84,82.04,254.74,81.72,254.62,81.42z"
			/>
		<path class="st0" d="M169.44,162.51c-0.27-0.18-0.56-0.34-0.86-0.46c-0.3-0.13-0.62-0.22-0.94-0.29c-0.64-0.13-1.31-0.13-1.95,0
			c-0.32,0.07-0.63,0.16-0.94,0.29c-0.3,0.12-0.59,0.28-0.86,0.46c-0.27,0.18-0.53,0.39-0.76,0.62c-0.93,0.93-1.46,2.22-1.46,3.54
			c0,0.32,0.03,0.65,0.1,0.97c0.06,0.32,0.16,0.64,0.28,0.94c0.13,0.3,0.28,0.59,0.46,0.86c0.18,0.28,0.39,0.53,0.62,0.76
			c0.93,0.93,2.22,1.47,3.54,1.47c0.32,0,0.65-0.03,0.97-0.1c0.32-0.06,0.64-0.16,0.94-0.29c0.3-0.12,0.59-0.28,0.86-0.46
			c0.28-0.18,0.53-0.39,0.76-0.62c0.23-0.23,0.44-0.48,0.62-0.76c0.18-0.27,0.34-0.56,0.46-0.86c0.13-0.3,0.22-0.62,0.29-0.94
			c0.06-0.32,0.1-0.65,0.1-0.97c0-1.32-0.54-2.61-1.47-3.54C169.97,162.9,169.72,162.69,169.44,162.51z"/>
		<path class="st0" d="M171.28,248.09c-0.12-0.3-0.28-0.59-0.46-0.87c-0.18-0.27-0.39-0.52-0.62-0.76
			c-0.23-0.23-0.48-0.44-0.76-0.62c-0.27-0.18-0.56-0.33-0.86-0.46c-0.3-0.12-0.62-0.22-0.93-0.28c-0.65-0.13-1.32-0.13-1.96,0
			c-0.32,0.06-0.63,0.16-0.93,0.28c-0.31,0.13-0.6,0.28-0.87,0.46c-0.27,0.18-0.53,0.39-0.76,0.62c-0.23,0.24-0.44,0.49-0.62,0.76
			c-0.18,0.28-0.33,0.57-0.46,0.87c-0.12,0.3-0.22,0.61-0.28,0.93c-0.07,0.32-0.1,0.65-0.1,0.98s0.03,0.66,0.1,0.98
			c0.06,0.32,0.16,0.63,0.28,0.93c0.13,0.3,0.28,0.59,0.46,0.87c0.18,0.27,0.39,0.52,0.62,0.76c0.23,0.23,0.49,0.44,0.76,0.62
			c0.27,0.18,0.56,0.33,0.87,0.46c0.3,0.12,0.61,0.22,0.93,0.28c0.32,0.07,0.65,0.1,0.98,0.1c0.32,0,0.65-0.03,0.98-0.1
			c0.31-0.06,0.63-0.16,0.93-0.28c0.3-0.13,0.59-0.28,0.86-0.46c0.28-0.18,0.53-0.39,0.76-0.62c0.23-0.24,0.44-0.49,0.62-0.76
			c0.18-0.28,0.34-0.57,0.46-0.87c0.13-0.3,0.22-0.61,0.29-0.93c0.06-0.33,0.1-0.65,0.1-0.98s-0.04-0.65-0.1-0.98
			C171.5,248.7,171.41,248.39,171.28,248.09z"/>
		<path class="st0" d="M252.77,162.51c-0.27-0.18-0.56-0.34-0.86-0.46c-0.3-0.13-0.61-0.22-0.93-0.29c-0.65-0.13-1.31-0.13-1.96,0
			c-0.32,0.07-0.63,0.16-0.93,0.29c-0.3,0.12-0.59,0.28-0.87,0.46c-0.27,0.18-0.53,0.39-0.76,0.62c-0.93,0.93-1.46,2.22-1.46,3.54
			c0,0.32,0.03,0.65,0.1,0.97c0.06,0.32,0.16,0.64,0.28,0.94c0.13,0.3,0.28,0.59,0.46,0.86c0.18,0.28,0.39,0.53,0.63,0.76
			c0.93,0.93,2.22,1.47,3.53,1.47c1.31,0,2.6-0.54,3.53-1.47c0.94-0.93,1.47-2.22,1.47-3.53c0-1.32-0.53-2.6-1.47-3.54
			C253.3,162.9,253.05,162.69,252.77,162.51z"/>
		<path class="st0" d="M328.72,85.24c0.12,0.31,0.28,0.6,0.46,0.87c0.18,0.27,0.39,0.53,0.62,0.76c0.23,0.23,0.48,0.44,0.76,0.62
			c0.27,0.18,0.56,0.34,0.86,0.46c0.3,0.12,0.62,0.22,0.94,0.28c0.32,0.07,0.65,0.1,0.97,0.1c1.32,0,2.61-0.53,3.54-1.46
			c0.23-0.23,0.44-0.49,0.62-0.76c0.18-0.27,0.34-0.56,0.46-0.87c0.13-0.3,0.22-0.61,0.29-0.93c0.06-0.32,0.09-0.65,0.09-0.98
			c0-0.32-0.03-0.65-0.09-0.97c-0.07-0.32-0.16-0.64-0.29-0.94c-0.12-0.3-0.28-0.59-0.46-0.86c-0.18-0.28-0.39-0.53-0.62-0.76
			c-0.23-0.23-0.49-0.44-0.76-0.62c-0.27-0.18-0.56-0.34-0.86-0.47c-0.31-0.12-0.62-0.22-0.94-0.28c-0.65-0.13-1.31-0.13-1.95,0
			c-0.32,0.06-0.64,0.16-0.94,0.28c-0.3,0.13-0.59,0.29-0.86,0.47c-0.28,0.18-0.53,0.39-0.76,0.62c-0.23,0.23-0.44,0.48-0.62,0.76
			c-0.18,0.27-0.34,0.56-0.46,0.86c-0.13,0.3-0.23,0.62-0.29,0.94c-0.06,0.32-0.1,0.65-0.1,0.97c0,0.33,0.04,0.66,0.1,0.98
			C328.49,84.63,328.59,84.94,328.72,85.24z"/>
	</g>
</g>
</svg>
