<?xml version="1.0" encoding="utf-8"?>
<!-- Generator: Adobe Illustrator 23.0.0, SVG Export Plug-In . SVG Version: 6.00 Build 0)  -->
<svg version="1.1" xmlns="http://www.w3.org/2000/svg" xmlns:xlink="http://www.w3.org/1999/xlink" x="0px" y="0px"
	 viewBox="0 0 500 500" style="enable-background:new 0 0 500 500;" xml:space="preserve">
<style type="text/css">
	.st0{fill:#FFFFFF;}
</style>
<g id="BG">
	<rect width="500" height="500"/>
</g>
<g id="DESIGN">
	<g>
		<polygon class="st0" points="203.34,330.82 343.34,249.99 203.34,169.16 		"/>
		<path class="st0" d="M250.01,78.33c-30.09,0-59.77,7.95-85.83,23c-81.97,47.32-110.15,152.51-62.83,234.48
			c15.05,26.06,36.77,47.79,62.83,62.83c26.45,15.27,55.8,23.07,85.55,23.07c14.91,0,29.92-1.96,44.71-5.92
			c44.29-11.87,81.3-40.27,104.23-79.98c15.05-26.06,23-55.74,23-85.83C421.67,155.34,344.66,78.33,250.01,78.33z M390.01,330.81
			c-21.59,37.39-56.45,64.14-98.16,75.32c-41.71,11.18-85.27,5.44-122.67-16.15c-24.54-14.17-45-34.63-59.17-59.17
			C65.45,253.62,92,154.56,169.19,109.99c24.54-14.17,52.49-21.66,80.83-21.66c89.14,0,161.65,72.52,161.65,161.65
			C411.67,278.32,404.18,306.27,390.01,330.81z"/>
	</g>
</g>
</svg>
