<?xml version="1.0" encoding="utf-8"?>
<!-- Generator: Adobe Illustrator 23.0.0, SVG Export Plug-In . SVG Version: 6.00 Build 0)  -->
<svg version="1.1" xmlns="http://www.w3.org/2000/svg" xmlns:xlink="http://www.w3.org/1999/xlink" x="0px" y="0px"
	 viewBox="0 0 500 500" style="enable-background:new 0 0 500 500;" xml:space="preserve">
<style type="text/css">
	.st0{fill:#FFFFFF;}
</style>
<g id="BG">
	<rect width="500" height="500"/>
</g>
<g id="DESIGN">
	<g>
		<path class="st0" d="M159,272.86c4.01,14.96,11.91,28.65,22.86,39.6l7.07-7.07c-9.71-9.71-16.72-21.85-20.27-35.12L159,272.86z"/>
		<path class="st0" d="M244.32,338.33c7.69,0,15.38-1,22.86-3.01l-2.59-9.66c-13.26,3.55-27.29,3.55-40.55,0l-2.59,9.66
			C228.94,337.33,236.63,338.33,244.32,338.33z"/>
		<path class="st0" d="M299.71,305.39l7.07,7.07c10.95-10.95,18.85-24.64,22.86-39.6l-9.66-2.59
			C316.43,283.54,309.42,295.68,299.71,305.39z"/>
		<path class="st0" d="M299.71,194.61c9.71,9.71,16.72,21.85,20.27,35.12l9.66-2.59c-4.01-14.96-11.91-28.65-22.86-39.6
			L299.71,194.61z"/>
		<path class="st0" d="M267.18,164.68c-14.96-4.01-30.77-4.01-45.72,0l2.59,9.66c13.26-3.55,27.29-3.55,40.55,0L267.18,164.68z"/>
		<path class="st0" d="M159,227.14l9.66,2.59c3.55-13.26,10.56-25.41,20.27-35.12l-7.07-7.07
			C170.91,198.49,163.01,212.18,159,227.14z"/>
		<path class="st0" d="M202.48,406.16l-2.59,9.66c14.53,3.89,29.48,5.84,44.43,5.84c14.95,0,29.9-1.95,44.43-5.84l-2.59-9.66
			C258.79,413.49,229.85,413.49,202.48,406.16z"/>
		<path class="st0" d="M358.64,364.32l7.07,7.07c21.28-21.28,36.64-47.89,44.43-76.96l-9.66-2.59
			C393.14,319.22,378.67,344.28,358.64,364.32z"/>
		<path class="st0" d="M410.14,205.57c-7.79-29.07-23.15-55.68-44.43-76.96l-7.07,7.07c20.04,20.04,34.51,45.1,41.84,72.47
			L410.14,205.57z"/>
		<path class="st0" d="M199.89,84.18l2.59,9.66c27.37-7.33,56.31-7.33,83.68,0l2.59-9.66C259.69,76.39,228.96,76.39,199.89,84.18z"
			/>
		<path class="st0" d="M78.5,205.57l9.66,2.59c7.33-27.37,21.8-52.43,41.84-72.47l-7.07-7.07C101.66,149.89,86.29,176.5,78.5,205.57
			z"/>
		<path class="st0" d="M78.5,294.43c7.79,29.07,23.15,55.68,44.43,76.96l7.07-7.07c-20.04-20.04-34.51-45.1-41.84-72.47L78.5,294.43
			z"/>
		<path class="st0" d="M246.23,245.38c-0.3-0.12-0.61-0.22-0.93-0.28c-1.63-0.33-3.35,0.2-4.52,1.37c-0.93,0.92-1.46,2.21-1.46,3.53
			s0.53,2.61,1.46,3.53c0.94,0.94,2.22,1.47,3.54,1.47c0.33,0,0.66-0.03,0.98-0.1c0.32-0.06,0.63-0.16,0.93-0.28
			c0.31-0.13,0.6-0.28,0.87-0.46c0.27-0.19,0.53-0.39,0.76-0.63c0.23-0.23,0.44-0.48,0.62-0.75c0.18-0.28,0.33-0.57,0.46-0.87
			c0.12-0.3,0.22-0.61,0.28-0.93c0.07-0.33,0.1-0.65,0.1-0.98c0-1.32-0.53-2.61-1.46-3.53c-0.23-0.24-0.49-0.44-0.76-0.63
			C246.83,245.66,246.54,245.51,246.23,245.38z"/>
	</g>
</g>
</svg>
