<?xml version="1.0" encoding="utf-8"?>
<!-- Generator: Adobe Illustrator 23.0.0, SVG Export Plug-In . SVG Version: 6.00 Build 0)  -->
<svg version="1.1" xmlns="http://www.w3.org/2000/svg" xmlns:xlink="http://www.w3.org/1999/xlink" x="0px" y="0px"
	 viewBox="0 0 500 500" style="enable-background:new 0 0 500 500;" xml:space="preserve">
<style type="text/css">
	.st0{fill:#FFFFFF;}
</style>
<g id="BG">
	<rect width="500" height="500"/>
</g>
<g id="DESIGN">
	<g>
		<path class="st0" d="M202.48,406.16l-2.59,9.66c14.53,3.89,29.48,5.84,44.43,5.84c14.95,0,29.9-1.95,44.43-5.84l-2.59-9.66
			C258.79,413.49,229.85,413.49,202.48,406.16z"/>
		<path class="st0" d="M358.64,364.32l7.07,7.07c21.28-21.28,36.64-47.89,44.43-76.96l-9.66-2.59
			C393.14,319.22,378.67,344.28,358.64,364.32z"/>
		<path class="st0" d="M410.14,205.57c-7.79-29.07-23.15-55.68-44.43-76.96l-7.07,7.07c20.04,20.04,34.51,45.1,41.84,72.47
			L410.14,205.57z"/>
		<path class="st0" d="M286.16,93.84l2.59-9.66c-29.07-7.79-59.79-7.79-88.86,0l2.59,9.66C229.85,86.51,258.79,86.51,286.16,93.84z"
			/>
		<path class="st0" d="M78.5,205.57l9.66,2.59c7.33-27.37,21.8-52.43,41.84-72.47l-7.07-7.07C101.66,149.89,86.29,176.5,78.5,205.57
			z"/>
		<path class="st0" d="M78.5,294.43c7.79,29.07,23.15,55.68,44.43,76.96l7.07-7.07c-20.04-20.04-34.51-45.1-41.84-72.47L78.5,294.43
			z"/>
		
			<ellipse transform="matrix(0.3827 -0.9239 0.9239 0.3827 -80.1466 380.0521)" class="st0" cx="244.32" cy="250" rx="88.33" ry="88.33"/>
	</g>
</g>
</svg>
