<?xml version="1.0" encoding="utf-8"?>
<!-- Generator: Adobe Illustrator 23.0.0, SVG Export Plug-In . SVG Version: 6.00 Build 0)  -->
<svg version="1.1" xmlns="http://www.w3.org/2000/svg" xmlns:xlink="http://www.w3.org/1999/xlink" x="0px" y="0px"
	 viewBox="0 0 500 500" style="enable-background:new 0 0 500 500;" xml:space="preserve">
<style type="text/css">
	.st0{fill:#FFFFFF;}
</style>
<g id="BG">
	<rect width="500" height="500"/>
</g>
<g id="DESIGN">
	<path class="st0" d="M374.88,132.21l0.06-0.06l-3.54-3.54c-1.04-1.04-2.08-2.06-3.14-3.06c-0.15-0.14-0.3-0.28-0.46-0.42
		c-0.92-0.87-1.85-1.74-2.79-2.59c-0.03-0.02-0.05-0.04-0.08-0.07c-31.59-28.54-72.06-44.15-114.92-44.15c0,0,0,0,0,0
		c-42.85,0-83.31,15.61-114.89,44.12c-0.04,0.03-0.08,0.07-0.11,0.1c-0.94,0.85-1.86,1.71-2.78,2.58c-0.15,0.15-0.31,0.29-0.46,0.43
		c-1.06,1.01-2.1,2.03-3.14,3.06l-3.54,3.54l0.06,0.06c-63.43,67.18-62.27,173.43,3.48,239.18c32.43,32.43,75.54,50.29,121.39,50.29
		c0,0,0,0,0,0c45.84,0,88.96-17.86,121.39-50.29c32.43-32.43,50.29-75.54,50.29-121.39C421.69,205.83,405.1,164.2,374.88,132.21z
		 M364.33,364.32c-30.54,30.54-71.14,47.36-114.32,47.36c-43.18,0-83.77-16.82-114.31-47.36c-61.85-61.85-63-161.76-3.48-225.04
		l117.79,117.79L367.8,139.29c28.33,30.1,43.88,69.21,43.88,110.72C411.69,293.19,394.87,333.78,364.33,364.32z"/>
</g>
</svg>
