<?xml version="1.0" encoding="utf-8"?>
<!-- Generator: Adobe Illustrator 23.0.0, SVG Export Plug-In . SVG Version: 6.00 Build 0)  -->
<svg version="1.1" xmlns="http://www.w3.org/2000/svg" xmlns:xlink="http://www.w3.org/1999/xlink" x="0px" y="0px"
	 viewBox="0 0 500 500" style="enable-background:new 0 0 500 500;" xml:space="preserve">
<style type="text/css">
	.st0{fill:#FFFFFF;}
</style>
<g id="BG">
	<rect x="0" width="500" height="500"/>
</g>
<g id="DESIGN">
	<g>
		<path class="st0" d="M161.67,250c0,48.71,39.63,88.33,88.33,88.33s88.33-39.63,88.33-88.33s-39.63-88.33-88.33-88.33
			S161.67,201.29,161.67,250z M328.33,250c0,43.19-35.14,78.33-78.33,78.33s-78.33-35.14-78.33-78.33s35.14-78.33,78.33-78.33
			S328.33,206.81,328.33,250z"/>
		<path class="st0" d="M378.27,348.42l7.93,6.09c9.16-11.91,16.71-24.97,22.44-38.79l-9.24-3.83
			C394,324.91,386.89,337.2,378.27,348.42z"/>
		<path class="st0" d="M311.88,399.4l3.83,9.24c13.83-5.74,26.89-13.29,38.8-22.44l-6.09-7.93C337.19,386.89,324.9,394,311.88,399.4
			z"/>
		<path class="st0" d="M250,411.67c-7.06,0-14.16-0.46-21.12-1.37l-1.29,9.92c7.38,0.96,14.92,1.45,22.41,1.45
			s15.03-0.49,22.41-1.45l-1.29-9.92C264.16,411.21,257.06,411.67,250,411.67z"/>
		<path class="st0" d="M145.49,386.2c11.91,9.15,24.96,16.7,38.79,22.44l3.83-9.24c-13.02-5.4-25.31-12.51-36.53-21.13L145.49,386.2
			z"/>
		<path class="st0" d="M91.36,315.71c5.73,13.83,13.28,26.88,22.44,38.8l7.93-6.09c-8.62-11.22-15.73-23.52-21.13-36.54
			L91.36,315.71z"/>
		<path class="st0" d="M79.78,227.59c-0.96,7.38-1.45,14.92-1.45,22.41s0.49,15.04,1.45,22.41l9.92-1.29
			c-0.91-6.95-1.37-14.05-1.37-21.12s0.46-14.17,1.37-21.12L79.78,227.59z"/>
		<path class="st0" d="M91.36,184.28l9.24,3.83c5.4-13.02,12.51-25.31,21.13-36.53l-7.93-6.09
			C104.65,157.4,97.1,170.45,91.36,184.28z"/>
		<path class="st0" d="M188.12,100.6l-3.83-9.24c-13.83,5.74-26.89,13.29-38.8,22.44l6.09,7.93
			C162.81,113.11,175.1,106,188.12,100.6z"/>
		<path class="st0" d="M250,88.33c7.06,0,14.16,0.46,21.12,1.37l1.29-9.92c-7.38-0.96-14.92-1.45-22.41-1.45s-15.03,0.49-22.41,1.45
			l1.29,9.92C235.84,88.79,242.94,88.33,250,88.33z"/>
		<path class="st0" d="M311.89,100.6c13.02,5.4,25.31,12.51,36.53,21.13l6.09-7.93c-11.91-9.15-24.96-16.7-38.79-22.44L311.89,100.6
			z"/>
		<path class="st0" d="M378.27,151.59c8.62,11.22,15.73,23.52,21.13,36.54l9.24-3.83c-5.73-13.83-13.28-26.88-22.44-38.8
			L378.27,151.59z"/>
		<path class="st0" d="M420.22,227.59l-9.92,1.29c0.91,6.95,1.37,14.05,1.37,21.12s-0.46,14.17-1.37,21.12l9.92,1.29
			c0.96-7.38,1.45-14.92,1.45-22.41S421.18,234.96,420.22,227.59z"/>
	</g>
</g>
</svg>
