<?xml version="1.0" encoding="utf-8"?>
<!-- Generator: Adobe Illustrator 23.0.0, SVG Export Plug-In . SVG Version: 6.00 Build 0)  -->
<svg version="1.1" xmlns="http://www.w3.org/2000/svg" xmlns:xlink="http://www.w3.org/1999/xlink" x="0px" y="0px"
	 viewBox="0 0 500 500" style="enable-background:new 0 0 500 500;" xml:space="preserve">
<style type="text/css">
	.st0{fill:#FFFFFF;}
</style>
<g id="BG">
	<rect width="500" height="500"/>
</g>
<g id="DESIGN">
	<path class="st0" d="M392.85,313.38c-12.86-7.46-28.53-8.22-42.01-2.3l-36.7-63.59l-36.76-63.65c11.84-8.7,19.03-22.61,19.03-37.41
		c0-25.6-20.83-46.42-46.42-46.42c-25.6,0-46.42,20.83-46.42,46.42c0,14.8,7.2,28.72,19.03,37.41l-73.51,127.29
		c-13.44-5.91-29.08-5.18-41.89,2.24c-10.76,6.21-18.45,16.23-21.65,28.23c-3.19,11.97-1.53,24.46,4.68,35.16
		c6.2,10.75,16.2,18.43,28.17,21.65c4,1.08,8.06,1.61,12.1,1.61c8.04,0,15.97-2.11,23.12-6.23c12.86-7.42,21.33-20.62,22.92-35.23
		H323.5c1.59,14.61,10.05,27.82,22.91,35.23c7.14,4.13,15.06,6.24,23.1,6.24c4.03,0,8.08-0.53,12.08-1.6
		c11.99-3.21,22.01-10.9,28.21-21.66C422.58,354.6,414.97,326.17,392.85,313.38z M342.18,316.08c-5.18,3.81-9.56,8.66-12.79,14.26
		c-3.26,5.65-5.26,11.88-5.93,18.21h-146.9c-0.67-6.35-2.67-12.57-5.94-18.24c-3.29-5.63-7.7-10.46-12.86-14.21l73.48-127.24
		c5.88,2.61,12.27,3.99,18.74,3.99c6.48,0,12.86-1.38,18.74-3.99l36.75,63.63L342.18,316.08z M213.57,146.42
		c0-20.08,16.34-36.42,36.42-36.42s36.42,16.34,36.42,36.42c0,12.92-6.98,25-18.23,31.52c-5.51,3.21-11.8,4.9-18.2,4.9
		c-6.39,0-12.69-1.69-18.2-4.9C220.55,171.42,213.57,159.35,213.57,146.42z M148.63,385.12c-8.43,4.86-18.25,6.15-27.63,3.63
		c-9.39-2.52-17.23-8.55-22.11-17c-4.88-8.39-6.18-18.18-3.68-27.57c2.51-9.41,8.54-17.28,17-22.15c5.59-3.24,11.86-4.85,18.15-4.85
		c6.3,0,12.61,1.62,18.25,4.88c5.49,3.12,10.13,7.72,13.38,13.28c3.23,5.59,4.9,11.88,4.85,18.18v0.04
		C166.84,366.54,159.86,378.64,148.63,385.12z M401.14,371.76c-4.87,8.44-12.73,14.47-22.13,16.99c-9.39,2.51-19.19,1.22-27.59-3.64
		c-11.4-6.57-18.21-18.38-18.21-31.61c-0.05-6.29,1.63-12.58,4.86-18.17c3.19-5.53,7.79-10.15,13.3-13.35
		c5.62-3.24,11.92-4.86,18.21-4.86c6.32,0,12.64,1.64,18.28,4.91C405.2,332.07,411.16,354.38,401.14,371.76z"/>
</g>
</svg>
