<?xml version="1.0" encoding="utf-8"?>
<!-- Generator: Adobe Illustrator 23.0.0, SVG Export Plug-In . SVG Version: 6.00 Build 0)  -->
<svg version="1.1" xmlns="http://www.w3.org/2000/svg" xmlns:xlink="http://www.w3.org/1999/xlink" x="0px" y="0px"
	 viewBox="0 0 500 500" style="enable-background:new 0 0 500 500;" xml:space="preserve">
<style type="text/css">
	.st0{fill:#FFFFFF;}
</style>
<g id="BG">
	<rect width="500" height="500"/>
</g>
<g id="DESIGN">
	<g>
		<path class="st0" d="M330.83,109.99l5-8.66c-52.94-30.57-118.72-30.57-171.67,0l5,8.66C219.03,81.21,280.97,81.21,330.83,109.99z"
			/>
		<path class="st0" d="M88.33,250h-10c0,61.13,32.89,118.1,85.83,148.67l5-8.66C119.31,361.22,88.33,307.57,88.33,250z"/>
		<path class="st0" d="M411.67,250c0,57.57-30.97,111.22-80.83,140.01l5,8.66c52.94-30.57,85.83-87.53,85.83-148.67H411.67z"/>
		<path class="st0" d="M254.62,248.09c-0.13-0.3-0.28-0.6-0.46-0.87c-0.18-0.27-0.39-0.53-0.63-0.76c-0.23-0.23-0.48-0.44-0.76-0.62
			c-0.27-0.18-0.56-0.33-0.86-0.46c-0.3-0.12-0.61-0.22-0.93-0.28c-0.65-0.13-1.31-0.13-1.96,0c-0.32,0.06-0.63,0.16-0.93,0.28
			c-0.31,0.13-0.6,0.28-0.87,0.46c-0.27,0.18-0.53,0.39-0.76,0.62c-0.23,0.23-0.44,0.49-0.62,0.76s-0.33,0.57-0.46,0.87
			c-0.12,0.3-0.22,0.61-0.28,0.93c-0.07,0.33-0.1,0.65-0.1,0.98c0,0.33,0.03,0.65,0.1,0.98c0.06,0.32,0.16,0.63,0.28,0.93
			c0.13,0.3,0.28,0.59,0.46,0.87c0.18,0.27,0.39,0.52,0.62,0.75c0.23,0.24,0.49,0.44,0.76,0.63c0.27,0.18,0.56,0.33,0.87,0.46
			c0.3,0.12,0.61,0.22,0.93,0.28c0.33,0.07,0.65,0.1,0.98,0.1s0.65-0.03,0.98-0.1c0.32-0.06,0.63-0.16,0.93-0.28
			c0.3-0.13,0.59-0.28,0.86-0.46c0.28-0.19,0.53-0.39,0.76-0.63c0.24-0.23,0.45-0.48,0.63-0.75c0.18-0.28,0.33-0.57,0.46-0.87
			c0.12-0.3,0.22-0.61,0.28-0.93c0.07-0.33,0.1-0.65,0.1-0.98c0-0.33-0.03-0.65-0.1-0.98C254.84,248.7,254.74,248.39,254.62,248.09z
			"/>
	</g>
</g>
</svg>
