<?xml version="1.0" encoding="utf-8"?>
<!-- Generator: Adobe Illustrator 23.0.0, SVG Export Plug-In . SVG Version: 6.00 Build 0)  -->
<svg version="1.1" xmlns="http://www.w3.org/2000/svg" xmlns:xlink="http://www.w3.org/1999/xlink" x="0px" y="0px"
	 viewBox="0 0 500 500" style="enable-background:new 0 0 500 500;" xml:space="preserve">
<style type="text/css">
	.st0{fill:#FFFFFF;}
</style>
<g id="BG">
	<rect width="500" height="500"/>
</g>
<g id="DESIGN">
	<g>
		<path class="st0" d="M250,88.33c24.03,0,48.14,5.45,69.71,15.75l4.31-9.02c-22.91-10.94-48.5-16.73-74.02-16.73
			c-25.52,0-51.11,5.78-74.02,16.73l4.31,9.02C201.86,93.78,225.97,88.33,250,88.33z"/>
		<path class="st0" d="M104.08,180.29l-9.02-4.31c-10.94,22.91-16.73,48.5-16.73,74.02c0,25.52,5.79,51.11,16.73,74.02l9.02-4.31
			c-10.3-21.57-15.75-45.67-15.75-69.71C88.33,225.96,93.78,201.86,104.08,180.29z"/>
		<path class="st0" d="M404.94,175.98l-9.02,4.31c10.3,21.57,15.75,45.67,15.75,69.71s-5.45,48.14-15.75,69.71l9.02,4.31
			c10.94-22.91,16.73-48.5,16.73-74.02S415.88,198.89,404.94,175.98z"/>
		<path class="st0" d="M250,411.67c-24.03,0-48.14-5.45-69.71-15.75l-4.31,9.02c22.91,10.94,48.5,16.73,74.02,16.73
			c25.52,0,51.11-5.78,74.02-16.73l-4.31-9.02C298.14,406.22,274.03,411.67,250,411.67z"/>
		<path class="st0" d="M364.32,128.61l-75.03,75.03L250,164.36l-39.28,39.28l-75.03-75.03l-7.07,7.07l75.03,75.03L164.36,250
			l39.28,39.28l-75.03,75.03l7.07,7.07l75.03-75.03L250,335.64l39.28-39.28l75.03,75.03l7.07-7.07l-75.03-75.03L335.64,250
			l-39.28-39.28l75.03-75.03L364.32,128.61z M250,321.5L178.5,250l35.75-35.75L250,178.5l71.5,71.5L250,321.5z"/>
	</g>
</g>
</svg>
