<?xml version="1.0" encoding="utf-8"?>
<!-- Generator: Adobe Illustrator 23.0.0, SVG Export Plug-In . SVG Version: 6.00 Build 0)  -->
<svg version="1.1" xmlns="http://www.w3.org/2000/svg" xmlns:xlink="http://www.w3.org/1999/xlink" x="0px" y="0px"
	 viewBox="0 0 500 500" style="enable-background:new 0 0 500 500;" xml:space="preserve">
<style type="text/css">
	.st0{fill:#FFFFFF;}
</style>
<g id="BG">
	<rect x="0" width="500" height="500"/>
</g>
<g id="DESIGN">
	<g>
		<polygon class="st0" points="86.87,246.46 79.8,253.54 159.6,333.33 79.8,413.13 86.87,420.2 173.74,333.33 		"/>
		<polygon class="st0" points="170.2,246.46 90.4,166.67 170.2,86.87 163.13,79.8 76.26,166.67 163.13,253.54 242.93,333.33 
			163.13,413.13 170.2,420.2 257.07,333.33 		"/>
		<polygon class="st0" points="253.54,246.46 173.74,166.67 253.54,86.87 246.46,79.8 159.6,166.67 246.46,253.54 326.26,333.33 
			246.46,413.13 253.54,420.2 340.4,333.33 		"/>
		<polygon class="st0" points="336.87,246.46 257.07,166.67 336.87,86.87 329.8,79.8 242.93,166.67 329.8,253.54 409.6,333.33 
			329.8,413.13 336.87,420.2 423.74,333.33 		"/>
		<polygon class="st0" points="413.13,253.54 420.2,246.46 340.4,166.67 420.2,86.87 413.13,79.8 326.26,166.67 		"/>
	</g>
</g>
</svg>
