<?xml version="1.0" encoding="utf-8"?>
<!-- Generator: Adobe Illustrator 23.0.0, SVG Export Plug-In . SVG Version: 6.00 Build 0)  -->
<svg version="1.1" xmlns="http://www.w3.org/2000/svg" xmlns:xlink="http://www.w3.org/1999/xlink" x="0px" y="0px"
	 viewBox="0 0 500 500" style="enable-background:new 0 0 500 500;" xml:space="preserve">
<style type="text/css">
	.st0{fill:#FFFFFF;}
</style>
<g id="BG">
	<rect x="0" width="500" height="500"/>
</g>
<g id="DESIGN">
	<g>
		<path class="st0" d="M411.67,166.67h10V83.39c0-0.02,0-0.04,0-0.06c0-0.01,0-0.02,0-0.03v-4.96h-4.99c0,0-0.01,0-0.01,0h-83.32v10
			h78.33V166.67z"/>
		<path class="st0" d="M88.33,333.33h-10v83.3c0,0.01,0,0.02,0,0.03c0,0.02,0,0.04,0,0.06v4.94h4.97c0.01,0,0.02,0,0.03,0
			c0.01,0,0.02,0,0.03,0h83.31v-10H88.33V333.33z"/>
		<path class="st0" d="M421.28,248.09c-0.12-0.3-0.28-0.6-0.46-0.87c-0.18-0.27-0.39-0.53-0.62-0.75c-0.23-0.24-0.48-0.45-0.76-0.63
			c-0.27-0.18-0.56-0.33-0.86-0.46c-0.3-0.12-0.62-0.22-0.94-0.28c-0.64-0.13-1.31-0.13-1.95,0c-0.32,0.06-0.63,0.16-0.94,0.28
			c-0.3,0.13-0.59,0.28-0.86,0.46s-0.53,0.39-0.76,0.63c-0.23,0.22-0.44,0.48-0.62,0.75c-0.18,0.27-0.34,0.57-0.46,0.87
			s-0.22,0.61-0.28,0.93c-0.07,0.33-0.1,0.65-0.1,0.98s0.03,0.65,0.1,0.98c0.06,0.32,0.16,0.63,0.28,0.93
			c0.12,0.3,0.28,0.59,0.46,0.86c0.18,0.28,0.39,0.53,0.62,0.76c0.23,0.24,0.49,0.45,0.76,0.63c0.27,0.18,0.56,0.33,0.86,0.46
			c0.31,0.12,0.62,0.22,0.94,0.28c0.32,0.07,0.65,0.1,0.98,0.1c0.32,0,0.65-0.03,0.97-0.1c0.32-0.06,0.64-0.16,0.94-0.28
			c0.3-0.13,0.59-0.28,0.86-0.46c0.28-0.18,0.53-0.39,0.76-0.63c0.23-0.23,0.44-0.48,0.62-0.76c0.18-0.27,0.34-0.56,0.46-0.86
			c0.13-0.3,0.23-0.61,0.29-0.93c0.06-0.33,0.1-0.65,0.1-0.98s-0.04-0.65-0.1-0.98C421.51,248.7,421.41,248.39,421.28,248.09z"/>
		<path class="st0" d="M421.67,416.61v-83.28h-10v78.33h-78.33v10h83.28c0.02,0,0.03,0,0.05,0c0.01,0,0.02,0,0.03,0h4.97v-4.94
			c0-0.02,0-0.04,0-0.06C421.67,416.65,421.67,416.63,421.67,416.61z"/>
		<path class="st0" d="M335.25,254.62c0.3-0.13,0.59-0.28,0.86-0.46c0.27-0.18,0.53-0.39,0.76-0.63c0.23-0.23,0.44-0.48,0.62-0.76
			c0.18-0.27,0.34-0.56,0.46-0.86c0.13-0.3,0.22-0.61,0.28-0.93c0.07-0.33,0.1-0.65,0.1-0.98s-0.03-0.65-0.1-0.98
			c-0.06-0.32-0.15-0.63-0.28-0.93c-0.12-0.3-0.28-0.6-0.46-0.87c-0.18-0.27-0.39-0.53-0.62-0.75c-0.23-0.24-0.49-0.45-0.76-0.63
			s-0.56-0.33-0.86-0.46c-0.31-0.12-0.62-0.22-0.94-0.28c-0.64-0.13-1.31-0.13-1.95,0c-0.32,0.06-0.64,0.16-0.94,0.28
			c-0.3,0.13-0.59,0.28-0.86,0.46c-0.28,0.18-0.53,0.39-0.76,0.63c-0.23,0.22-0.44,0.48-0.62,0.75c-0.18,0.27-0.34,0.57-0.46,0.87
			c-0.13,0.3-0.22,0.61-0.29,0.93c-0.06,0.33-0.1,0.65-0.1,0.98s0.04,0.65,0.1,0.98c0.07,0.32,0.16,0.63,0.29,0.93
			c0.12,0.3,0.28,0.59,0.46,0.86c0.18,0.28,0.39,0.53,0.62,0.76c0.23,0.24,0.48,0.45,0.76,0.63c0.27,0.18,0.56,0.33,0.86,0.46
			c0.3,0.12,0.62,0.22,0.94,0.28c0.32,0.07,0.65,0.1,0.97,0.1c0.33,0,0.66-0.03,0.98-0.1C334.63,254.84,334.94,254.74,335.25,254.62
			z"/>
		<path class="st0" d="M254.62,248.09c-0.13-0.3-0.28-0.6-0.46-0.87c-0.18-0.27-0.39-0.53-0.62-0.75c-0.23-0.24-0.49-0.45-0.76-0.63
			c-0.28-0.18-0.57-0.33-0.87-0.46c-0.3-0.12-0.61-0.22-0.93-0.28c-0.65-0.13-1.31-0.13-1.96,0c-0.32,0.06-0.63,0.16-0.93,0.28
			c-0.3,0.13-0.59,0.28-0.87,0.46c-0.27,0.18-0.53,0.39-0.76,0.63c-0.23,0.22-0.44,0.48-0.62,0.75c-0.18,0.27-0.33,0.57-0.46,0.87
			c-0.12,0.3-0.22,0.61-0.28,0.93c-0.07,0.33-0.1,0.65-0.1,0.98s0.03,0.65,0.1,0.98c0.06,0.32,0.16,0.63,0.28,0.93
			c0.13,0.3,0.28,0.59,0.46,0.86c0.18,0.28,0.39,0.53,0.62,0.76c0.23,0.24,0.49,0.45,0.76,0.63c0.28,0.18,0.57,0.33,0.87,0.46
			c0.3,0.12,0.61,0.22,0.93,0.28c0.33,0.07,0.65,0.1,0.98,0.1c0.33,0,0.65-0.03,0.98-0.1c0.32-0.06,0.63-0.16,0.93-0.28
			c0.3-0.13,0.59-0.28,0.87-0.46c0.27-0.18,0.53-0.39,0.76-0.63c0.23-0.23,0.44-0.48,0.62-0.76c0.18-0.27,0.33-0.56,0.46-0.86
			c0.12-0.3,0.22-0.61,0.28-0.93c0.07-0.33,0.1-0.65,0.1-0.98s-0.03-0.65-0.1-0.98C254.84,248.7,254.74,248.39,254.62,248.09z"/>
		<path class="st0" d="M254.62,331.42c-0.13-0.3-0.28-0.59-0.46-0.86c-0.19-0.28-0.39-0.53-0.62-0.76
			c-0.94-0.93-2.22-1.47-3.54-1.47c-1.32,0-2.61,0.54-3.54,1.47c-0.23,0.23-0.44,0.48-0.62,0.76c-0.18,0.27-0.33,0.56-0.46,0.86
			c-0.12,0.3-0.22,0.62-0.28,0.94c-0.07,0.32-0.1,0.65-0.1,0.97c0,0.33,0.03,0.66,0.1,0.98c0.06,0.32,0.16,0.63,0.28,0.93
			c0.13,0.31,0.28,0.6,0.46,0.87c0.18,0.27,0.39,0.53,0.62,0.76c0.94,0.93,2.22,1.46,3.54,1.46c1.32,0,2.6-0.53,3.54-1.46
			c0.23-0.23,0.43-0.49,0.62-0.76c0.18-0.27,0.33-0.56,0.46-0.87c0.12-0.3,0.22-0.61,0.28-0.93c0.07-0.32,0.1-0.65,0.1-0.98
			c0-0.32-0.03-0.65-0.1-0.97C254.84,332.04,254.74,331.72,254.62,331.42z"/>
		<path class="st0" d="M254.62,414.75c-0.13-0.3-0.28-0.59-0.46-0.86c-0.19-0.27-0.39-0.53-0.62-0.76c-1.17-1.16-2.9-1.7-4.52-1.37
			c-0.32,0.07-0.63,0.16-0.93,0.29c-0.3,0.12-0.59,0.28-0.86,0.46c-0.28,0.18-0.53,0.39-0.76,0.62c-0.24,0.23-0.44,0.49-0.63,0.76
			c-0.18,0.27-0.33,0.56-0.46,0.86c-0.12,0.31-0.22,0.62-0.28,0.94c-0.07,0.32-0.1,0.65-0.1,0.98c0,0.32,0.03,0.65,0.1,0.97
			c0.06,0.32,0.16,0.64,0.28,0.94c0.13,0.3,0.28,0.59,0.46,0.86c0.19,0.28,0.39,0.53,0.63,0.76c0.23,0.23,0.48,0.44,0.76,0.62
			c0.27,0.18,0.56,0.34,0.86,0.46c0.3,0.13,0.61,0.23,0.93,0.29c0.33,0.06,0.65,0.1,0.98,0.1c1.32,0,2.6-0.54,3.54-1.47
			c0.23-0.23,0.43-0.48,0.62-0.76c0.18-0.27,0.33-0.56,0.46-0.86c0.12-0.3,0.22-0.62,0.28-0.94c0.07-0.32,0.1-0.65,0.1-0.97
			c0-0.33-0.03-0.66-0.1-0.98C254.84,415.37,254.74,415.06,254.62,414.75z"/>
		<path class="st0" d="M171.28,248.09c-0.12-0.3-0.28-0.6-0.46-0.87c-0.18-0.27-0.39-0.53-0.62-0.75c-1.16-1.17-2.89-1.7-4.51-1.37
			c-0.32,0.06-0.63,0.16-0.94,0.28c-0.3,0.13-0.59,0.28-0.86,0.46s-0.53,0.39-0.76,0.63c-0.23,0.22-0.44,0.48-0.62,0.75
			c-0.18,0.27-0.34,0.57-0.46,0.87c-0.13,0.3-0.22,0.61-0.29,0.93c-0.06,0.33-0.09,0.65-0.09,0.98s0.03,0.65,0.09,0.98
			c0.07,0.32,0.16,0.63,0.29,0.93c0.12,0.3,0.28,0.59,0.46,0.86c0.18,0.28,0.39,0.53,0.62,0.76c0.23,0.24,0.49,0.45,0.76,0.63
			c0.27,0.18,0.56,0.33,0.86,0.46c0.31,0.12,0.62,0.22,0.94,0.28c0.32,0.07,0.65,0.1,0.98,0.1c1.31,0,2.6-0.53,3.53-1.47
			c0.23-0.23,0.44-0.48,0.62-0.76c0.18-0.27,0.34-0.56,0.46-0.86c0.13-0.3,0.22-0.61,0.29-0.93c0.06-0.33,0.1-0.65,0.1-0.98
			s-0.04-0.65-0.1-0.98C171.5,248.7,171.41,248.39,171.28,248.09z"/>
		<path class="st0" d="M78.72,251.91c0.12,0.3,0.28,0.59,0.46,0.86c0.18,0.28,0.39,0.53,0.62,0.76c0.23,0.24,0.48,0.45,0.76,0.63
			c0.27,0.18,0.56,0.33,0.86,0.46c0.3,0.12,0.62,0.22,0.94,0.28c0.32,0.07,0.65,0.1,0.97,0.1c0.33,0,0.66-0.03,0.98-0.1
			c0.32-0.06,0.63-0.16,0.94-0.28c0.3-0.13,0.59-0.28,0.86-0.46c0.27-0.18,0.53-0.39,0.76-0.63c0.23-0.23,0.44-0.48,0.62-0.76
			c0.18-0.27,0.34-0.56,0.46-0.86c0.13-0.3,0.22-0.61,0.29-0.93c0.06-0.33,0.09-0.65,0.09-0.98s-0.03-0.65-0.09-0.98
			c-0.07-0.32-0.16-0.63-0.29-0.93c-0.12-0.3-0.28-0.6-0.46-0.87c-0.18-0.27-0.39-0.53-0.62-0.75c-0.23-0.24-0.49-0.45-0.76-0.63
			s-0.56-0.33-0.86-0.46c-0.31-0.12-0.62-0.22-0.94-0.28c-0.64-0.13-1.31-0.13-1.95,0c-0.32,0.06-0.64,0.16-0.94,0.28
			c-0.3,0.13-0.59,0.28-0.86,0.46c-0.28,0.18-0.53,0.39-0.76,0.63c-0.23,0.22-0.44,0.48-0.62,0.75c-0.18,0.27-0.34,0.57-0.46,0.87
			c-0.13,0.3-0.22,0.61-0.29,0.93c-0.06,0.33-0.1,0.65-0.1,0.98s0.04,0.65,0.1,0.98C78.5,251.3,78.59,251.61,78.72,251.91z"/>
		<path class="st0" d="M252.78,162.51c-0.28-0.18-0.57-0.33-0.87-0.46c-0.3-0.12-0.61-0.22-0.93-0.28c-1.63-0.33-3.35,0.2-4.52,1.36
			c-0.93,0.93-1.46,2.22-1.46,3.54c0,0.32,0.03,0.65,0.1,0.97c0.06,0.32,0.16,0.64,0.28,0.94c0.13,0.3,0.28,0.59,0.46,0.86
			c0.19,0.28,0.39,0.53,0.62,0.76c0.94,0.93,2.22,1.47,3.54,1.47c0.33,0,0.65-0.04,0.98-0.1c0.32-0.06,0.63-0.16,0.93-0.29
			c0.3-0.12,0.6-0.28,0.87-0.46c0.27-0.18,0.53-0.39,0.76-0.62c0.23-0.23,0.44-0.48,0.62-0.76c0.18-0.27,0.33-0.56,0.46-0.86
			c0.12-0.3,0.22-0.62,0.28-0.94c0.07-0.32,0.1-0.65,0.1-0.97c0-1.32-0.53-2.61-1.46-3.54C253.31,162.9,253.05,162.69,252.78,162.51
			z"/>
		<path class="st0" d="M254.62,81.42c-0.13-0.3-0.28-0.59-0.46-0.86c-0.18-0.28-0.39-0.53-0.62-0.76c-0.24-0.23-0.49-0.44-0.77-0.62
			c-0.27-0.18-0.56-0.34-0.86-0.46c-0.3-0.13-0.61-0.23-0.93-0.29c-0.65-0.13-1.31-0.13-1.96,0c-0.32,0.06-0.63,0.16-0.93,0.29
			c-0.3,0.12-0.59,0.28-0.87,0.46c-0.27,0.18-0.53,0.39-0.76,0.62c-0.93,0.93-1.46,2.22-1.46,3.53c0,0.33,0.03,0.66,0.1,0.98
			c0.06,0.32,0.16,0.63,0.28,0.94c0.13,0.3,0.28,0.59,0.46,0.86c0.18,0.27,0.39,0.53,0.62,0.76c0.23,0.23,0.49,0.44,0.76,0.62
			c0.28,0.18,0.57,0.33,0.87,0.46c0.3,0.12,0.61,0.22,0.93,0.28c0.33,0.07,0.65,0.1,0.98,0.1c0.33,0,0.65-0.03,0.98-0.1
			c0.32-0.06,0.63-0.16,0.93-0.28c0.3-0.13,0.59-0.28,0.86-0.46c0.28-0.18,0.53-0.39,0.77-0.62c0.93-0.93,1.46-2.22,1.46-3.54
			c0-0.32-0.03-0.65-0.1-0.97C254.84,82.04,254.74,81.72,254.62,81.42z"/>
		<path class="st0" d="M78.33,83.36v83.3h10V88.33h78.33v-10H78.33v4.96c0,0.01,0,0.02,0,0.03S78.33,83.35,78.33,83.36z"/>
	</g>
</g>
</svg>
