<?xml version="1.0" encoding="utf-8"?>
<!-- Generator: Adobe Illustrator 23.0.0, SVG Export Plug-In . SVG Version: 6.00 Build 0)  -->
<svg version="1.1" xmlns="http://www.w3.org/2000/svg" xmlns:xlink="http://www.w3.org/1999/xlink" x="0px" y="0px"
	 viewBox="0 0 500 500" style="enable-background:new 0 0 500 500;" xml:space="preserve">
<style type="text/css">
	.st0{fill:#FFFFFF;}
</style>
<g id="BG">
	<rect x="0" width="500" height="500"/>
</g>
<g id="DESIGN">
	<path class="st0" d="M396.67,300.14c5.39-15.73,8.33-32.6,8.33-50.14c0-75.23-53.88-138.11-125.08-152.09
		C278.84,82.34,265.84,70,250,70s-28.84,12.34-29.92,27.91C148.88,111.89,95,174.77,95,250c0,17.54,2.93,34.4,8.33,50.14
		c-12.94,8.72-17.13,26.15-9.21,39.86c5.55,9.61,15.65,14.99,26.03,14.99c4.46,0,8.96-0.99,13.18-3.07
		C161.76,384.43,203.52,405,250,405s88.24-20.57,116.67-53.07c4.22,2.08,8.72,3.07,13.18,3.07c10.38,0,20.48-5.38,26.03-14.99
		C413.8,326.28,409.62,308.85,396.67,300.14z M250,395c-43.14,0-81.94-18.95-108.52-48.95c3.61-3.65,6.23-8.19,7.6-13.29
		c2.07-7.74,1.01-15.82-3-22.76c-4.01-6.94-10.48-11.9-18.22-13.98c-5.12-1.37-10.39-1.36-15.38-0.04
		C107.63,281.53,105,266.06,105,250c0-70.05,49.93-128.65,116.06-142.1c3.48,12.72,15.13,22.1,28.94,22.1s25.46-9.38,28.94-22.1
		C345.07,121.35,395,179.95,395,250c0,16.06-2.63,31.53-7.48,45.98c-4.99-1.32-10.26-1.33-15.38,0.04
		c-7.74,2.07-14.21,7.04-18.22,13.98c-4.01,6.94-5.07,15.02-3,22.76c1.37,5.09,3.99,9.63,7.6,13.29
		C331.94,376.05,293.14,395,250,395z"/>
</g>
</svg>
