<?xml version="1.0" encoding="utf-8"?>
<!-- Generator: Adobe Illustrator 23.0.0, SVG Export Plug-In . SVG Version: 6.00 Build 0)  -->
<svg version="1.1" xmlns="http://www.w3.org/2000/svg" xmlns:xlink="http://www.w3.org/1999/xlink" x="0px" y="0px"
	 viewBox="0 0 500 500" style="enable-background:new 0 0 500 500;" xml:space="preserve">
<style type="text/css">
	.st0{fill:#FFFFFF;}
</style>
<g id="BG">
	<rect x="0" width="500" height="500"/>
</g>
<g id="DESIGN">
	<g>
		<path class="st0" d="M423.74,250l-83.33-83.33l79.8-79.8l-7.07-7.07l-79.8,79.8L250,76.26l-83.33,83.33l-79.8-79.8l-7.07,7.07
			l79.8,79.8L76.26,250l83.33,83.33l-79.8,79.8l7.07,7.07l79.8-79.8L250,423.74l83.33-83.33l79.8,79.8l7.07-7.07l-79.8-79.8
			L423.74,250z M90.4,250L250,90.4L409.6,250L250,409.6L90.4,250z"/>
		<polygon class="st0" points="333.33,245 255,245 255,166.67 245,166.67 245,245 166.67,245 166.67,255 245,255 245,333.33 
			255,333.33 255,255 333.33,255 		"/>
	</g>
</g>
</svg>
