<?xml version="1.0" encoding="utf-8"?>
<!-- Generator: Adobe Illustrator 23.0.0, SVG Export Plug-In . SVG Version: 6.00 Build 0)  -->
<svg version="1.1" xmlns="http://www.w3.org/2000/svg" xmlns:xlink="http://www.w3.org/1999/xlink" x="0px" y="0px"
	 viewBox="0 0 500 500" style="enable-background:new 0 0 500 500;" xml:space="preserve">
<style type="text/css">
	.st0{fill:#FFFFFF;}
</style>
<g id="BG">
	<rect width="500" height="500"/>
</g>
<g id="DESIGN">
	<path class="st0" d="M415.79,205.56c-11.87-44.29-40.27-81.3-79.98-104.23c-25.44-14.69-54.33-22.59-83.68-22.96
		c-0.71-0.02-1.43-0.04-2.14-0.04c-0.2,0-0.39,0.01-0.59,0.01c-45.63,0.15-88.51,17.98-120.79,50.27
		c-32.42,32.42-50.28,75.53-50.28,121.38c0,30.09,7.95,59.77,23,85.83c0.21,0.36,0.43,0.71,0.65,1.08c0.14,0.23,0.28,0.47,0.42,0.7
		c31.97,53.89,89.16,84.02,147.88,84.02c29.1,0,58.58-7.4,85.54-22.96c26.06-15.05,47.78-36.77,62.83-62.83
		C421.57,296.11,427.66,249.85,415.79,205.56z M293.76,113.61c9.14,15.83,9.14,34.72,0,50.55l-43.78,75.83l-43.78-75.83
		c-9.14-15.83-9.14-34.72,0-50.55c9.12-15.79,25.43-25.23,43.66-25.27c0.04,0,0.07,0,0.11,0c0,0,0.01,0,0.01,0h0
		c0.05,0,0.1,0,0.15,0C268.35,88.39,284.65,97.83,293.76,113.61z M109.99,330.81c-9.14-15.83-9.14-34.72,0-50.55
		c9.14-15.83,25.5-25.28,43.78-25.28h87.56l-43.78,75.83c-9.14,15.83-25.5,25.28-43.78,25.28
		C135.49,356.09,119.13,346.64,109.99,330.81z M135.68,135.68c20.88-20.88,46.47-35.34,74.36-42.4c-4.87,4.3-9.1,9.44-12.5,15.33
		c-10.94,18.96-10.94,41.59,0,60.55l43.78,75.83h-87.56c-21.89,0-41.49,11.32-52.44,30.28c-3.36,5.82-5.69,12-6.98,18.3
		c-3.96-14.14-6.01-28.8-6.01-43.58C88.33,206.81,105.15,166.21,135.68,135.68z M330.81,389.98
		c-25.39,14.66-53.14,21.63-80.55,21.62c-42.99,0-85.11-17.16-115.88-48.64c6.12,2.04,12.65,3.12,19.39,3.12
		c21.89,0,41.49-11.32,52.44-30.28l43.78-75.83l43.78,75.83c10.95,18.96,30.55,30.28,52.44,30.28c6.73,0,13.23-1.07,19.34-3.1
		C355.28,373.48,343.61,382.59,330.81,389.98z M389.98,330.81c-9.14,15.83-25.5,25.28-43.78,25.28c-18.28,0-34.64-9.45-43.78-25.28
		l-43.78-75.83h87.56c18.28,0,34.64,9.45,43.78,25.28C399.12,296.09,399.12,314.99,389.98,330.81z M405.67,293.75
		c-1.29-6.37-3.63-12.61-7.02-18.49c-10.95-18.96-30.55-30.28-52.44-30.28h-87.56h0l43.78-75.83c10.95-18.96,10.95-41.59,0-60.55
		c-3.36-5.82-7.54-10.92-12.36-15.2c14.22,3.64,27.95,9.19,40.74,16.58c37.39,21.59,64.14,56.45,75.32,98.16
		C413.77,236.67,413.5,266.06,405.67,293.75z"/>
</g>
</svg>
