<?xml version="1.0" encoding="utf-8"?>
<!-- Generator: Adobe Illustrator 23.0.0, SVG Export Plug-In . SVG Version: 6.00 Build 0)  -->
<svg version="1.1" xmlns="http://www.w3.org/2000/svg" xmlns:xlink="http://www.w3.org/1999/xlink" x="0px" y="0px"
	 viewBox="0 0 500 500" style="enable-background:new 0 0 500 500;" xml:space="preserve">
<style type="text/css">
	.st0{fill:#FFFFFF;}
</style>
<g id="BG">
	<rect x="0" width="500" height="500"/>
</g>
<g id="DESIGN">
	<g>
		<path class="st0" d="M80.56,198.6c0.27,0.18,0.56,0.34,0.86,0.46c0.3,0.13,0.62,0.22,0.94,0.29c0.32,0.06,0.65,0.09,0.97,0.09
			c0.33,0,0.66-0.03,0.98-0.09c0.32-0.07,0.63-0.16,0.94-0.29c0.3-0.12,0.59-0.28,0.86-0.46s0.53-0.39,0.76-0.62
			c0.93-0.93,1.46-2.22,1.46-3.53c0-1.32-0.53-2.61-1.46-3.54c-0.23-0.23-0.49-0.44-0.76-0.62s-0.56-0.34-0.86-0.46
			c-0.31-0.13-0.62-0.22-0.94-0.29c-0.64-0.13-1.31-0.13-1.95,0c-0.32,0.07-0.64,0.16-0.94,0.29c-0.3,0.12-0.59,0.28-0.86,0.46
			c-0.28,0.18-0.53,0.39-0.76,0.62s-0.44,0.48-0.62,0.76c-0.18,0.27-0.34,0.56-0.46,0.86c-0.13,0.3-0.22,0.62-0.29,0.94
			c-0.06,0.32-0.1,0.65-0.1,0.98c0,1.31,0.54,2.6,1.47,3.53C80.03,198.21,80.28,198.42,80.56,198.6z"/>
		<path class="st0" d="M189.83,85.25c0.12,0.3,0.28,0.59,0.46,0.86c0.18,0.27,0.39,0.53,0.62,0.76c0.23,0.23,0.49,0.44,0.76,0.62
			s0.56,0.33,0.86,0.46c0.3,0.12,0.62,0.22,0.94,0.29c0.32,0.06,0.65,0.09,0.97,0.09c1.32,0,2.61-0.53,3.54-1.46
			c0.93-0.93,1.46-2.22,1.46-3.54c0-1.31-0.53-2.6-1.46-3.53c-0.23-0.23-0.49-0.44-0.76-0.62s-0.56-0.34-0.86-0.46
			c-0.3-0.13-0.62-0.22-0.94-0.29c-0.64-0.13-1.31-0.13-1.95,0c-0.32,0.07-0.64,0.16-0.94,0.29c-0.3,0.12-0.59,0.28-0.86,0.46
			c-0.28,0.18-0.53,0.39-0.76,0.62s-0.44,0.48-0.62,0.76c-0.18,0.27-0.34,0.56-0.46,0.86c-0.13,0.3-0.22,0.62-0.29,0.94
			c-0.06,0.32-0.1,0.65-0.1,0.97c0,0.33,0.04,0.66,0.1,0.98C189.61,84.63,189.7,84.94,189.83,85.25z"/>
		<path class="st0" d="M80.56,309.71c0.27,0.18,0.56,0.34,0.86,0.46c0.3,0.13,0.62,0.22,0.94,0.29c0.32,0.06,0.65,0.1,0.97,0.1
			c0.33,0,0.66-0.04,0.98-0.1c0.32-0.07,0.63-0.16,0.94-0.29c0.3-0.12,0.59-0.28,0.86-0.46c0.27-0.18,0.53-0.39,0.76-0.62
			c0.93-0.93,1.46-2.22,1.46-3.53c0-0.33-0.03-0.66-0.1-0.98c-0.06-0.32-0.16-0.64-0.28-0.94c-0.13-0.3-0.28-0.59-0.46-0.86
			c-0.18-0.27-0.39-0.53-0.62-0.76c-0.23-0.23-0.49-0.44-0.76-0.62c-0.27-0.18-0.56-0.34-0.86-0.46c-0.31-0.13-0.62-0.22-0.94-0.29
			c-0.64-0.13-1.31-0.13-1.95,0c-0.32,0.07-0.64,0.16-0.94,0.29c-0.3,0.12-0.59,0.28-0.86,0.46c-0.28,0.18-0.53,0.39-0.76,0.62
			c-0.23,0.23-0.44,0.49-0.62,0.76c-0.18,0.27-0.34,0.56-0.46,0.86c-0.13,0.3-0.22,0.62-0.29,0.94c-0.06,0.32-0.1,0.65-0.1,0.98
			c0,1.31,0.54,2.6,1.47,3.53C80.03,309.32,80.28,309.53,80.56,309.71z"/>
		<path class="st0" d="M136.98,254.62c0.3,0.12,0.61,0.22,0.93,0.28c0.32,0.07,0.65,0.1,0.98,0.1c0.32,0,0.65-0.03,0.98-0.1
			c0.32-0.06,0.63-0.16,0.93-0.28c0.3-0.13,0.59-0.28,0.87-0.46c0.27-0.19,0.52-0.39,0.76-0.62c0.23-0.23,0.43-0.49,0.62-0.76
			c0.18-0.28,0.33-0.57,0.46-0.87c0.12-0.3,0.22-0.61,0.28-0.93c0.07-0.33,0.1-0.65,0.1-0.98c0-1.31-0.53-2.6-1.46-3.54
			c-0.24-0.23-0.49-0.44-0.76-0.62c-0.28-0.18-0.57-0.33-0.87-0.46c-0.3-0.12-0.61-0.22-0.93-0.28c-0.65-0.13-1.31-0.13-1.96,0
			c-0.32,0.06-0.63,0.16-0.93,0.28c-0.31,0.13-0.6,0.28-0.87,0.46c-0.27,0.18-0.53,0.39-0.76,0.62c-0.23,0.24-0.44,0.49-0.62,0.76
			c-0.18,0.28-0.33,0.57-0.46,0.87c-0.12,0.3-0.22,0.61-0.28,0.93c-0.07,0.33-0.1,0.65-0.1,0.98c0,1.32,0.53,2.61,1.46,3.54
			c0.23,0.23,0.49,0.43,0.76,0.62C136.38,254.34,136.67,254.49,136.98,254.62z"/>
		<path class="st0" d="M245.38,140.8c0.13,0.3,0.28,0.59,0.46,0.86c0.18,0.28,0.39,0.53,0.62,0.76s0.49,0.44,0.76,0.63
			c0.28,0.18,0.57,0.33,0.87,0.46c0.3,0.12,0.61,0.22,0.93,0.28c0.33,0.07,0.65,0.1,0.98,0.1c1.32,0,2.6-0.54,3.54-1.47
			c0.23-0.23,0.43-0.48,0.62-0.76c0.18-0.27,0.33-0.56,0.46-0.86c0.12-0.3,0.22-0.62,0.28-0.93c0.07-0.33,0.1-0.66,0.1-0.98
			c0-1.32-0.53-2.6-1.46-3.54c-1.17-1.16-2.9-1.69-4.52-1.36c-0.32,0.06-0.63,0.16-0.93,0.28c-0.3,0.13-0.59,0.28-0.87,0.46
			c-0.27,0.18-0.53,0.39-0.76,0.62c-0.93,0.93-1.46,2.22-1.46,3.54c0,0.32,0.03,0.65,0.1,0.98
			C245.16,140.18,245.26,140.5,245.38,140.8z"/>
		<path class="st0" d="M300.94,85.25c0.12,0.3,0.28,0.59,0.46,0.86s0.39,0.53,0.62,0.76c0.23,0.23,0.49,0.44,0.76,0.62
			s0.56,0.34,0.86,0.46c0.31,0.13,0.62,0.22,0.94,0.29c0.32,0.06,0.65,0.09,0.98,0.09c0.32,0,0.65-0.03,0.97-0.09
			c0.32-0.07,0.64-0.16,0.94-0.29c0.3-0.12,0.59-0.28,0.86-0.46c0.27-0.18,0.53-0.39,0.76-0.62c0.23-0.23,0.44-0.49,0.62-0.76
			c0.18-0.27,0.34-0.56,0.46-0.86c0.13-0.31,0.22-0.62,0.29-0.94c0.06-0.32,0.1-0.65,0.1-0.98c0-1.31-0.54-2.6-1.47-3.53
			c-0.23-0.23-0.49-0.44-0.76-0.62c-0.27-0.18-0.56-0.34-0.86-0.46c-0.3-0.13-0.62-0.22-0.94-0.29c-0.64-0.13-1.31-0.13-1.95,0
			c-0.32,0.07-0.63,0.16-0.94,0.29c-0.3,0.12-0.59,0.28-0.86,0.46s-0.53,0.39-0.76,0.62c-0.93,0.93-1.46,2.22-1.46,3.53
			c0,0.33,0.03,0.66,0.09,0.98C300.72,84.63,300.81,84.94,300.94,85.25z"/>
		<path class="st0" d="M416.67,300.56c-1.32,0-2.61,0.53-3.54,1.46c-0.93,0.93-1.46,2.22-1.46,3.53c0,1.32,0.53,2.61,1.46,3.54
			c0.93,0.93,2.22,1.47,3.54,1.47c1.31,0,2.6-0.54,3.53-1.47c0.93-0.93,1.47-2.22,1.47-3.54c0-1.31-0.54-2.6-1.47-3.53
			C419.27,301.09,417.98,300.56,416.67,300.56z"/>
		<path class="st0" d="M310.17,414.75c-0.12-0.3-0.28-0.59-0.46-0.86c-0.18-0.27-0.39-0.53-0.62-0.76s-0.49-0.44-0.76-0.62
			c-0.27-0.18-0.56-0.34-0.86-0.46c-0.3-0.13-0.62-0.22-0.94-0.29c-0.64-0.13-1.31-0.13-1.95,0c-0.32,0.07-0.63,0.16-0.94,0.29
			c-0.3,0.12-0.59,0.28-0.86,0.46c-0.27,0.18-0.53,0.39-0.76,0.62s-0.44,0.49-0.62,0.76c-0.18,0.27-0.34,0.56-0.46,0.86
			c-0.13,0.31-0.22,0.62-0.29,0.94c-0.06,0.32-0.09,0.65-0.09,0.98c0,0.32,0.03,0.65,0.09,0.97c0.07,0.32,0.16,0.64,0.29,0.94
			c0.12,0.3,0.28,0.59,0.46,0.86c0.18,0.28,0.39,0.53,0.62,0.76s0.49,0.44,0.76,0.62c0.27,0.18,0.56,0.34,0.86,0.46
			c0.31,0.13,0.62,0.23,0.94,0.29c0.32,0.06,0.65,0.1,0.98,0.1c0.32,0,0.65-0.04,0.97-0.1c0.32-0.06,0.64-0.16,0.94-0.29
			c0.3-0.12,0.59-0.28,0.86-0.46c0.27-0.18,0.53-0.39,0.76-0.62s0.44-0.48,0.62-0.76c0.18-0.27,0.34-0.56,0.46-0.86
			c0.13-0.3,0.22-0.62,0.29-0.94c0.06-0.32,0.1-0.65,0.1-0.97c0-0.33-0.04-0.66-0.1-0.98C310.39,415.37,310.3,415.06,310.17,414.75z
			"/>
		<path class="st0" d="M421.28,192.53c-0.12-0.3-0.28-0.59-0.46-0.86s-0.39-0.53-0.62-0.76c-1.16-1.16-2.88-1.69-4.51-1.37
			c-0.32,0.07-0.63,0.16-0.94,0.29c-0.3,0.12-0.59,0.28-0.86,0.46s-0.53,0.39-0.76,0.62s-0.44,0.49-0.62,0.76
			c-0.18,0.27-0.34,0.56-0.46,0.86c-0.13,0.3-0.22,0.62-0.29,0.94c-0.06,0.32-0.09,0.65-0.09,0.97c0,0.33,0.03,0.66,0.09,0.98
			c0.07,0.32,0.16,0.63,0.29,0.94c0.12,0.3,0.28,0.59,0.46,0.86c0.18,0.27,0.39,0.53,0.62,0.76c0.93,0.93,2.22,1.46,3.54,1.46
			c1.31,0,2.6-0.53,3.53-1.46c0.23-0.23,0.44-0.49,0.62-0.76s0.34-0.56,0.46-0.86c0.13-0.31,0.22-0.62,0.29-0.94
			c0.06-0.32,0.1-0.65,0.1-0.98c0-0.32-0.04-0.65-0.1-0.97C421.5,193.15,421.41,192.83,421.28,192.53z"/>
		<path class="st0" d="M365.27,247.22c-0.18-0.27-0.39-0.53-0.62-0.76s-0.49-0.44-0.76-0.62c-0.27-0.18-0.56-0.33-0.87-0.46
			c-0.3-0.12-0.61-0.22-0.93-0.28c-1.63-0.33-3.35,0.2-4.51,1.36c-0.23,0.23-0.44,0.49-0.63,0.76c-0.18,0.28-0.33,0.57-0.46,0.87
			c-0.12,0.3-0.22,0.61-0.28,0.93c-0.07,0.33-0.1,0.65-0.1,0.98c0,0.33,0.03,0.65,0.1,0.98c0.06,0.32,0.16,0.63,0.28,0.93
			c0.13,0.3,0.28,0.59,0.46,0.87c0.19,0.27,0.4,0.53,0.63,0.76c0.23,0.23,0.48,0.43,0.76,0.62c0.27,0.18,0.56,0.33,0.86,0.46
			c0.3,0.12,0.62,0.22,0.93,0.28c0.33,0.07,0.66,0.1,0.98,0.1c0.33,0,0.66-0.03,0.98-0.1c0.32-0.06,0.63-0.16,0.93-0.28
			c0.31-0.13,0.6-0.28,0.87-0.46c0.27-0.19,0.53-0.39,0.76-0.62c0.93-0.93,1.46-2.22,1.46-3.54c0-0.33-0.03-0.65-0.1-0.98
			c-0.06-0.32-0.16-0.63-0.28-0.93C365.6,247.79,365.45,247.5,365.27,247.22z"/>
		<path class="st0" d="M254.62,359.2c-0.13-0.3-0.28-0.59-0.46-0.86c-0.19-0.28-0.39-0.53-0.62-0.76c-1.17-1.17-2.9-1.7-4.52-1.37
			c-0.32,0.06-0.63,0.16-0.93,0.28c-0.3,0.13-0.59,0.28-0.87,0.46c-0.27,0.19-0.53,0.39-0.76,0.63c-0.23,0.23-0.44,0.48-0.62,0.76
			c-0.18,0.27-0.33,0.56-0.46,0.86c-0.12,0.3-0.22,0.61-0.28,0.93c-0.07,0.33-0.1,0.66-0.1,0.98c0,0.33,0.03,0.66,0.1,0.98
			c0.06,0.32,0.16,0.63,0.28,0.93c0.13,0.31,0.28,0.6,0.46,0.87s0.39,0.53,0.62,0.76c0.23,0.23,0.49,0.44,0.76,0.62
			c0.28,0.18,0.57,0.33,0.87,0.46c0.3,0.12,0.61,0.22,0.93,0.28c0.33,0.07,0.65,0.1,0.98,0.1c1.32,0,2.6-0.53,3.54-1.46
			c0.23-0.23,0.43-0.49,0.62-0.76c0.18-0.27,0.33-0.56,0.46-0.87c0.12-0.3,0.22-0.61,0.28-0.93c0.07-0.32,0.1-0.65,0.1-0.98
			c0-0.32-0.03-0.65-0.1-0.98C254.84,359.81,254.74,359.5,254.62,359.2z"/>
		<path class="st0" d="M199.06,414.75c-0.12-0.3-0.28-0.59-0.46-0.86c-0.18-0.27-0.39-0.53-0.62-0.76s-0.49-0.44-0.76-0.62
			c-0.27-0.18-0.56-0.34-0.86-0.46c-0.3-0.13-0.62-0.22-0.94-0.29c-0.64-0.12-1.31-0.12-1.95,0c-0.32,0.07-0.64,0.16-0.94,0.29
			c-0.3,0.12-0.59,0.28-0.86,0.46c-0.28,0.18-0.53,0.39-0.76,0.62s-0.44,0.49-0.62,0.76c-0.18,0.27-0.34,0.56-0.46,0.86
			c-0.13,0.31-0.22,0.62-0.29,0.94c-0.06,0.32-0.1,0.65-0.1,0.98c0,0.32,0.04,0.65,0.1,0.97c0.07,0.32,0.16,0.64,0.29,0.94
			c0.12,0.3,0.28,0.59,0.46,0.86c0.18,0.28,0.39,0.53,0.62,0.76s0.49,0.44,0.76,0.62c0.27,0.18,0.56,0.34,0.86,0.46
			c0.3,0.13,0.62,0.22,0.94,0.29c0.32,0.06,0.65,0.1,0.97,0.1c1.32,0,2.61-0.54,3.54-1.47c0.23-0.23,0.44-0.48,0.62-0.76
			c0.18-0.27,0.34-0.56,0.46-0.86c0.13-0.3,0.22-0.62,0.29-0.94c0.06-0.32,0.09-0.65,0.09-0.97c0-0.33-0.03-0.66-0.09-0.98
			C199.28,415.37,199.19,415.06,199.06,414.75z"/>
		<path class="st0" d="M421.61,417.3c0.03-0.21,0.06-0.42,0.06-0.63c0-0.19-0.04-0.38-0.06-0.58c-0.02-0.13-0.01-0.26-0.04-0.39
			c-0.01-0.07-0.05-0.14-0.06-0.21c-0.21-0.86-0.63-1.68-1.31-2.36L257.07,250L420.2,86.87c0.27-0.27,0.5-0.57,0.69-0.88
			c0.14-0.22,0.27-0.45,0.37-0.7c0.03-0.07,0.05-0.14,0.08-0.2c0.1-0.26,0.17-0.51,0.23-0.78c0,0,0-0.01,0-0.01
			c0-0.02,0-0.03,0.01-0.05c0.05-0.3,0.09-0.61,0.09-0.92c0-0.3-0.04-0.61-0.09-0.91c0-0.02-0.01-0.04-0.01-0.06c0,0,0,0,0,0
			c-0.06-0.26-0.13-0.52-0.23-0.77c-0.03-0.08-0.06-0.16-0.1-0.24c-0.09-0.22-0.21-0.44-0.34-0.64c-0.2-0.32-0.43-0.63-0.71-0.91
			c-0.67-0.67-1.48-1.09-2.34-1.3c-0.08-0.02-0.15-0.05-0.23-0.07c-0.11-0.02-0.21-0.02-0.32-0.03c-0.21-0.03-0.42-0.07-0.64-0.07
			c-0.2,0-0.39,0.04-0.59,0.06c-0.13,0.01-0.25,0.01-0.38,0.04c-0.08,0.02-0.15,0.05-0.22,0.07c-0.56,0.14-1.1,0.35-1.59,0.68
			c0,0,0,0-0.01,0.01c-0.26,0.18-0.52,0.38-0.75,0.61L250,242.93L142.47,135.39c-0.01-0.01-0.02-0.03-0.04-0.04
			c-0.01-0.01-0.03-0.02-0.05-0.04L86.87,79.8c-0.27-0.27-0.57-0.5-0.88-0.69c-0.22-0.14-0.46-0.27-0.7-0.37
			c-0.07-0.03-0.13-0.05-0.2-0.08c-0.26-0.1-0.51-0.17-0.78-0.23c0,0,0,0-0.01,0c-0.24-0.05-0.48-0.06-0.73-0.07
			c-0.14-0.01-0.27-0.01-0.41-0.01c-0.27,0.01-0.54,0.03-0.8,0.08c0,0,0,0,0,0c-0.26,0.06-0.52,0.13-0.77,0.23
			c-0.08,0.03-0.16,0.06-0.23,0.09c-0.22,0.09-0.44,0.21-0.65,0.34c-0.32,0.2-0.63,0.43-0.91,0.71c-0.67,0.67-1.09,1.48-1.3,2.33
			c-0.02,0.08-0.05,0.16-0.07,0.24c-0.02,0.11-0.02,0.21-0.03,0.32c-0.03,0.21-0.07,0.43-0.07,0.64c0,0.31,0.04,0.63,0.09,0.93
			c0,0.01,0,0.03,0.01,0.04c0,0,0,0.01,0,0.01c0.06,0.27,0.14,0.53,0.23,0.78c0.02,0.06,0.04,0.12,0.07,0.19
			c0.1,0.25,0.23,0.48,0.37,0.71c0.2,0.31,0.42,0.61,0.69,0.88l55.51,55.51c0.01,0.02,0.02,0.03,0.04,0.05
			c0.02,0.02,0.04,0.03,0.05,0.04L242.93,250L79.8,413.13c-0.17,0.17-0.32,0.37-0.46,0.56c-0.05,0.07-0.11,0.13-0.16,0.2
			c-0.33,0.49-0.54,1.03-0.68,1.58c-0.02,0.08-0.05,0.15-0.07,0.23c-0.02,0.12-0.02,0.25-0.04,0.38c-0.02,0.2-0.06,0.39-0.06,0.59
			c0,0.3,0.04,0.61,0.09,0.91c0,0.02,0,0.03,0.01,0.05c0,0,0,0,0,0c0.06,0.26,0.13,0.52,0.23,0.78c0.03,0.08,0.06,0.15,0.09,0.23
			c0.1,0.23,0.21,0.45,0.35,0.66c0.2,0.32,0.43,0.63,0.7,0.9c0.28,0.28,0.59,0.51,0.91,0.71c0.21,0.13,0.43,0.25,0.65,0.34
			c0.07,0.03,0.14,0.06,0.21,0.09c0.26,0.1,0.52,0.18,0.79,0.23c0,0,0,0,0,0c0.02,0,0.04,0.01,0.06,0.01
			c0.3,0.05,0.61,0.09,0.91,0.09c0.31,0,0.62-0.04,0.92-0.09c0.02,0,0.03,0,0.05-0.01c0,0,0.01,0,0.01,0
			c0.27-0.05,0.53-0.14,0.8-0.24c0.06-0.02,0.12-0.04,0.18-0.07c0.24-0.1,0.47-0.23,0.7-0.37c0.31-0.2,0.61-0.42,0.88-0.69
			l55.51-55.51c0.01-0.01,0.03-0.02,0.05-0.04c0.01-0.01,0.02-0.03,0.04-0.05L250,257.07L413.13,420.2
			c0.22,0.22,0.47,0.42,0.72,0.59c0.01,0.01,0.02,0.02,0.04,0.03c0.49,0.33,1.03,0.55,1.59,0.68c0.07,0.02,0.15,0.05,0.22,0.07
			c0.13,0.03,0.26,0.02,0.39,0.04c0.19,0.02,0.39,0.06,0.58,0.06c0.21,0,0.42-0.04,0.63-0.06c0.11-0.01,0.22-0.01,0.33-0.03
			c0.08-0.02,0.15-0.05,0.23-0.07c0.86-0.21,1.67-0.63,2.34-1.3c0.67-0.67,1.09-1.49,1.3-2.35c0.02-0.07,0.05-0.15,0.07-0.22
			C421.59,417.52,421.59,417.41,421.61,417.3z"/>
	</g>
</g>
</svg>
