<?xml version="1.0" encoding="utf-8"?>
<!-- Generator: Adobe Illustrator 23.0.0, SVG Export Plug-In . SVG Version: 6.00 Build 0)  -->
<svg version="1.1" xmlns="http://www.w3.org/2000/svg" xmlns:xlink="http://www.w3.org/1999/xlink" x="0px" y="0px"
	 viewBox="0 0 500 500" style="enable-background:new 0 0 500 500;" xml:space="preserve">
<style type="text/css">
	.st0{fill:#FFFFFF;}
</style>
<g id="BG">
	<rect width="500" height="500"/>
</g>
<g id="DESIGN">
	<g>
		<path class="st0" d="M307.22,88.1l-3.33,9.43c64.46,22.79,107.78,84.06,107.78,152.47s-43.31,129.68-107.78,152.47l3.33,9.43
			c68.45-24.2,114.45-89.26,114.45-161.9S375.67,112.3,307.22,88.1z"/>
		<path class="st0" d="M196.11,97.53l-3.33-9.43C124.33,112.3,78.33,177.36,78.33,250s45.99,137.7,114.44,161.9l3.33-9.43
			C131.65,379.68,88.33,318.41,88.33,250S131.65,120.32,196.11,97.53z"/>
		<rect x="245" y="83.33" class="st0" width="10" height="333.33"/>
	</g>
</g>
</svg>
