<?xml version="1.0" encoding="utf-8"?>
<!-- Generator: Adobe Illustrator 23.0.0, SVG Export Plug-In . SVG Version: 6.00 Build 0)  -->
<svg version="1.1" xmlns="http://www.w3.org/2000/svg" xmlns:xlink="http://www.w3.org/1999/xlink" x="0px" y="0px"
	 viewBox="0 0 500 500" style="enable-background:new 0 0 500 500;" xml:space="preserve">
<style type="text/css">
	.st0{fill:#FFFFFF;}
</style>
<g id="BG">
	<rect width="500" height="500"/>
</g>
<g id="DESIGN">
	<g>
		<circle class="st0" cx="250" cy="250" r="38.33"/>
		<path class="st0" d="M250,145c-57.9,0-105,47.1-105,105s47.1,105,105,105s105-47.1,105-105S307.9,145,250,145z M250,345
			c-52.38,0-95-42.62-95-95s42.62-95,95-95s95,42.62,95,95S302.38,345,250,345z"/>
		<path class="st0" d="M250,78.33c-94.66,0-171.67,77.01-171.67,171.67S155.34,421.67,250,421.67S421.67,344.66,421.67,250
			S344.66,78.33,250,78.33z M250,411.67c-89.14,0-161.67-72.52-161.67-161.67S160.86,88.33,250,88.33S411.67,160.86,411.67,250
			S339.14,411.67,250,411.67z"/>
	</g>
</g>
</svg>
