<?xml version="1.0" encoding="utf-8"?>
<!-- Generator: Adobe Illustrator 23.0.0, SVG Export Plug-In . SVG Version: 6.00 Build 0)  -->
<svg version="1.1" xmlns="http://www.w3.org/2000/svg" xmlns:xlink="http://www.w3.org/1999/xlink" x="0px" y="0px"
	 viewBox="0 0 500 500" style="enable-background:new 0 0 500 500;" xml:space="preserve">
<style type="text/css">
	.st0{fill:#FFFFFF;}
</style>
<g id="BG">
	<rect width="500" height="500"/>
</g>
<g id="DESIGN">
	<path class="st0" d="M250,78.33c-94.66,0-171.67,77.01-171.67,171.67S155.34,421.67,250,421.67S421.67,344.66,421.67,250
		S344.66,78.33,250,78.33z M245,88.42v106.03h10V88.42c85.18,2.6,153.98,71.41,156.58,156.58H88.42
		C91.02,159.82,159.82,91.02,245,88.42z M255,411.58V305.56h-10v106.03C159.82,408.98,91.02,340.18,88.42,255h323.16
		C408.98,340.18,340.18,408.98,255,411.58z"/>
</g>
</svg>
