<?xml version="1.0" encoding="utf-8"?>
<!-- Generator: Adobe Illustrator 23.0.0, SVG Export Plug-In . SVG Version: 6.00 Build 0)  -->
<svg version="1.1" xmlns="http://www.w3.org/2000/svg" xmlns:xlink="http://www.w3.org/1999/xlink" x="0px" y="0px"
	 viewBox="0 0 500 500" style="enable-background:new 0 0 500 500;" xml:space="preserve">
<style type="text/css">
	.st0{fill:#FFFFFF;}
</style>
<g id="BG">
	<rect x="0" width="500" height="500"/>
</g>
<g id="DESIGN">
	<g>
		<path class="st0" d="M309.16,97.93c0.13,0.3,0.28,0.59,0.46,0.87c0.19,0.27,0.39,0.53,0.63,0.76c0.23,0.23,0.48,0.44,0.76,0.62
			c0.27,0.18,0.56,0.33,0.86,0.46c0.3,0.12,0.62,0.22,0.93,0.28c0.33,0.07,0.66,0.1,0.98,0.1c0.33,0,0.66-0.03,0.98-0.1
			c0.32-0.06,0.63-0.16,0.93-0.28c0.31-0.13,0.6-0.28,0.87-0.46c0.27-0.18,0.53-0.39,0.76-0.62c0.23-0.23,0.44-0.49,0.62-0.76
			c0.18-0.28,0.33-0.57,0.46-0.87c0.12-0.3,0.22-0.61,0.28-0.93c0.07-0.32,0.1-0.65,0.1-0.98c0-0.32-0.03-0.65-0.1-0.98
			c-0.06-0.32-0.16-0.63-0.28-0.93c-0.13-0.3-0.28-0.59-0.46-0.86c-0.18-0.28-0.39-0.53-0.62-0.76c-0.23-0.24-0.49-0.44-0.76-0.63
			c-0.27-0.18-0.56-0.33-0.87-0.46c-0.3-0.12-0.61-0.22-0.93-0.28c-0.65-0.13-1.31-0.13-1.96,0c-0.31,0.06-0.63,0.16-0.93,0.28
			c-0.3,0.13-0.59,0.28-0.86,0.46c-0.28,0.19-0.53,0.39-0.76,0.63c-0.24,0.23-0.44,0.48-0.63,0.76c-0.18,0.27-0.33,0.56-0.46,0.86
			c-0.12,0.3-0.22,0.61-0.28,0.93c-0.07,0.33-0.1,0.66-0.1,0.98c0,0.33,0.03,0.66,0.1,0.98C308.94,97.32,309.04,97.63,309.16,97.93z
			"/>
		<path class="st0" d="M190.84,402.07c-0.13-0.3-0.28-0.59-0.46-0.87c-0.19-0.27-0.39-0.53-0.62-0.76
			c-1.17-1.16-2.89-1.69-4.52-1.36c-0.32,0.06-0.63,0.16-0.93,0.28c-0.31,0.13-0.6,0.28-0.87,0.46c-0.27,0.18-0.53,0.39-0.76,0.62
			c-0.23,0.23-0.44,0.49-0.62,0.76c-0.18,0.28-0.33,0.57-0.46,0.87c-0.12,0.3-0.22,0.61-0.28,0.93c-0.07,0.32-0.1,0.65-0.1,0.98
			c0,1.32,0.53,2.6,1.46,3.54c0.23,0.23,0.49,0.43,0.76,0.62c0.27,0.18,0.56,0.33,0.87,0.46c0.3,0.12,0.61,0.22,0.93,0.28
			c0.32,0.07,0.65,0.1,0.98,0.1c0.32,0,0.65-0.03,0.98-0.1c0.31-0.06,0.63-0.16,0.93-0.28c0.3-0.13,0.59-0.28,0.86-0.46
			c0.28-0.19,0.53-0.39,0.76-0.62c0.93-0.94,1.47-2.22,1.47-3.54c0-0.33-0.03-0.66-0.1-0.98
			C191.06,402.68,190.96,402.37,190.84,402.07z"/>
		<path class="st0" d="M245.38,85.25c0.13,0.3,0.28,0.59,0.46,0.86c0.18,0.27,0.39,0.53,0.62,0.76c0.93,0.93,2.22,1.46,3.54,1.46
			c0.33,0,0.65-0.03,0.98-0.1c0.32-0.06,0.63-0.16,0.93-0.28c0.3-0.12,0.59-0.28,0.86-0.46c0.28-0.18,0.53-0.39,0.76-0.62
			c0.24-0.23,0.44-0.49,0.63-0.76c0.18-0.27,0.33-0.56,0.46-0.86c0.12-0.31,0.22-0.62,0.28-0.94c0.07-0.32,0.1-0.65,0.1-0.98
			c0-0.32-0.03-0.65-0.1-0.97c-0.06-0.32-0.16-0.64-0.28-0.94c-0.13-0.3-0.28-0.59-0.46-0.86c-0.19-0.28-0.39-0.53-0.63-0.76
			c-0.23-0.23-0.48-0.44-0.76-0.62c-0.27-0.18-0.56-0.34-0.86-0.46c-0.3-0.13-0.61-0.22-0.93-0.29c-1.63-0.33-3.35,0.21-4.52,1.37
			c-0.23,0.23-0.44,0.48-0.62,0.76c-0.18,0.27-0.33,0.56-0.46,0.86c-0.12,0.3-0.22,0.62-0.28,0.94c-0.07,0.32-0.1,0.65-0.1,0.97
			c0,0.33,0.03,0.66,0.1,0.98C245.16,84.63,245.26,84.94,245.38,85.25z"/>
		<path class="st0" d="M254.62,414.76c-0.13-0.31-0.28-0.6-0.46-0.87c-0.19-0.27-0.39-0.53-0.63-0.76
			c-1.16-1.16-2.88-1.69-4.51-1.37c-0.32,0.07-0.63,0.16-0.93,0.29s-0.59,0.28-0.87,0.46c-0.27,0.18-0.53,0.39-0.76,0.62
			c-0.23,0.23-0.44,0.49-0.62,0.76c-0.18,0.27-0.33,0.56-0.46,0.87c-0.12,0.3-0.22,0.61-0.28,0.93c-0.07,0.32-0.1,0.65-0.1,0.98
			c0,1.31,0.53,2.6,1.47,3.53c0.23,0.23,0.48,0.44,0.76,0.62c0.27,0.18,0.56,0.34,0.86,0.47c0.3,0.12,0.61,0.22,0.93,0.28
			c0.33,0.07,0.66,0.1,0.98,0.1c1.32,0,2.6-0.54,3.53-1.47c0.94-0.93,1.47-2.21,1.47-3.53c0-0.33-0.03-0.66-0.1-0.98
			C254.84,415.37,254.74,415.06,254.62,414.76z"/>
		<path class="st0" d="M181.6,97.93c0.13,0.3,0.28,0.59,0.46,0.87c0.18,0.27,0.39,0.53,0.62,0.76c0.23,0.23,0.49,0.44,0.76,0.62
			s0.56,0.33,0.87,0.46c0.3,0.12,0.61,0.22,0.93,0.28c0.32,0.07,0.65,0.1,0.98,0.1c0.32,0,0.65-0.03,0.98-0.1
			c0.32-0.06,0.63-0.16,0.93-0.28c0.3-0.13,0.59-0.28,0.87-0.46c0.27-0.18,0.52-0.39,0.76-0.62c0.23-0.23,0.43-0.49,0.62-0.76
			c0.18-0.28,0.33-0.57,0.46-0.87c0.12-0.3,0.22-0.61,0.28-0.93c0.07-0.32,0.1-0.65,0.1-0.98c0-0.32-0.03-0.65-0.1-0.98
			c-0.06-0.32-0.16-0.63-0.28-0.93c-0.13-0.3-0.28-0.59-0.46-0.86c-0.19-0.28-0.39-0.53-0.62-0.76c-0.24-0.24-0.49-0.44-0.76-0.63
			c-0.28-0.18-0.57-0.33-0.87-0.46c-0.3-0.12-0.61-0.22-0.93-0.28c-0.65-0.13-1.31-0.13-1.96,0c-0.32,0.06-0.63,0.16-0.93,0.28
			c-0.31,0.13-0.6,0.28-0.87,0.46c-0.27,0.19-0.53,0.39-0.76,0.63c-0.23,0.23-0.44,0.48-0.62,0.76c-0.18,0.27-0.33,0.56-0.46,0.86
			c-0.12,0.3-0.22,0.61-0.28,0.93c-0.07,0.33-0.1,0.66-0.1,0.98c0,0.33,0.03,0.66,0.1,0.98C181.38,97.32,181.48,97.63,181.6,97.93z"
			/>
		<path class="st0" d="M318.4,402.07c-0.13-0.3-0.28-0.59-0.46-0.87c-0.18-0.27-0.39-0.53-0.62-0.76c-0.23-0.23-0.49-0.44-0.76-0.62
			c-0.27-0.18-0.56-0.33-0.87-0.46c-0.3-0.12-0.61-0.22-0.93-0.28c-0.65-0.13-1.31-0.13-1.96,0c-0.32,0.06-0.63,0.16-0.93,0.28
			c-0.3,0.13-0.59,0.28-0.86,0.46c-0.28,0.18-0.53,0.39-0.76,0.62c-0.24,0.23-0.44,0.49-0.63,0.76c-0.18,0.28-0.33,0.57-0.46,0.87
			c-0.12,0.3-0.22,0.61-0.28,0.93c-0.07,0.32-0.1,0.65-0.1,0.98c0,1.32,0.53,2.6,1.47,3.54c0.23,0.23,0.48,0.43,0.76,0.62
			c0.27,0.18,0.56,0.33,0.86,0.46c0.3,0.12,0.62,0.22,0.93,0.28c0.33,0.07,0.66,0.1,0.98,0.1c0.33,0,0.66-0.03,0.98-0.1
			c0.32-0.06,0.63-0.16,0.93-0.28c0.31-0.13,0.6-0.28,0.87-0.46c0.27-0.19,0.53-0.39,0.76-0.62c0.93-0.94,1.46-2.22,1.46-3.54
			c0-0.33-0.03-0.66-0.1-0.98C318.62,402.68,318.52,402.37,318.4,402.07z"/>
		<path class="st0" d="M98.8,182.06c-0.28-0.18-0.57-0.33-0.87-0.46c-0.3-0.12-0.61-0.22-0.93-0.28c-0.65-0.14-1.31-0.14-1.96,0
			c-0.32,0.06-0.63,0.16-0.93,0.28c-0.3,0.13-0.59,0.28-0.87,0.46c-0.27,0.18-0.52,0.39-0.75,0.62c-0.24,0.23-0.44,0.49-0.63,0.76
			c-0.18,0.28-0.33,0.57-0.46,0.87c-0.12,0.3-0.22,0.61-0.28,0.93c-0.07,0.33-0.1,0.65-0.1,0.98c0,1.32,0.53,2.6,1.47,3.53
			c0.23,0.24,0.48,0.45,0.75,0.63c0.28,0.18,0.57,0.33,0.87,0.46c0.3,0.12,0.61,0.22,0.93,0.28c0.32,0.07,0.65,0.1,0.98,0.1
			c0.33,0,0.65-0.03,0.98-0.1c0.32-0.06,0.63-0.16,0.93-0.28c0.3-0.13,0.59-0.28,0.87-0.46c0.27-0.18,0.53-0.39,0.76-0.63
			c0.93-0.93,1.46-2.22,1.46-3.53s-0.53-2.6-1.46-3.54C99.33,182.45,99.07,182.24,98.8,182.06z"/>
		<path class="st0" d="M408.6,311.87c-0.13-0.3-0.28-0.59-0.46-0.87c-0.18-0.27-0.39-0.52-0.62-0.75c-0.23-0.24-0.49-0.45-0.76-0.63
			c-0.28-0.18-0.57-0.33-0.87-0.46c-0.3-0.12-0.61-0.22-0.93-0.28c-0.65-0.13-1.31-0.13-1.96,0c-0.32,0.06-0.63,0.16-0.93,0.28
			c-0.3,0.13-0.59,0.28-0.87,0.46c-0.27,0.18-0.53,0.39-0.76,0.63c-0.23,0.23-0.44,0.48-0.62,0.75c-0.18,0.28-0.33,0.57-0.46,0.87
			c-0.12,0.3-0.22,0.61-0.28,0.93c-0.07,0.33-0.1,0.65-0.1,0.98c0,0.33,0.03,0.65,0.1,0.98c0.06,0.32,0.16,0.63,0.28,0.93
			c0.13,0.31,0.28,0.6,0.46,0.87c0.18,0.27,0.39,0.52,0.62,0.75c0.23,0.24,0.49,0.44,0.76,0.63c0.28,0.18,0.57,0.33,0.87,0.46
			c0.3,0.12,0.61,0.22,0.93,0.28c0.32,0.07,0.65,0.1,0.98,0.1c1.32,0,2.6-0.53,3.53-1.47c0.94-0.92,1.47-2.21,1.47-3.53
			c0-0.33-0.03-0.65-0.1-0.98C408.82,312.48,408.72,312.17,408.6,311.87z"/>
		<path class="st0" d="M86.11,245.84c-0.27-0.18-0.56-0.33-0.86-0.46c-0.31-0.12-0.62-0.22-0.94-0.28c-0.64-0.13-1.31-0.13-1.95,0
			c-0.32,0.06-0.64,0.16-0.94,0.28c-0.3,0.13-0.59,0.28-0.86,0.46c-0.28,0.19-0.53,0.39-0.76,0.63c-0.93,0.93-1.47,2.21-1.47,3.53
			c0,0.33,0.04,0.65,0.1,0.98c0.07,0.31,0.16,0.63,0.29,0.93c0.12,0.3,0.28,0.59,0.46,0.86c0.18,0.28,0.39,0.53,0.62,0.77
			c0.23,0.23,0.48,0.44,0.76,0.62c0.27,0.18,0.56,0.33,0.86,0.46c0.3,0.12,0.62,0.22,0.94,0.28c0.32,0.07,0.65,0.1,0.97,0.1
			c0.33,0,0.66-0.03,0.98-0.1c0.32-0.06,0.63-0.16,0.94-0.28c0.3-0.13,0.59-0.28,0.86-0.46c0.27-0.18,0.53-0.39,0.76-0.62
			c0.23-0.24,0.44-0.49,0.62-0.77c0.18-0.27,0.33-0.56,0.46-0.86c0.12-0.3,0.22-0.62,0.28-0.93c0.07-0.33,0.1-0.65,0.1-0.98
			c0-1.32-0.53-2.6-1.46-3.53C86.64,246.23,86.38,246.03,86.11,245.84z"/>
		<path class="st0" d="M421.57,249.02c-0.07-0.32-0.16-0.63-0.29-0.93c-0.12-0.3-0.28-0.59-0.46-0.87
			c-0.18-0.27-0.39-0.52-0.62-0.75c-0.93-0.94-2.22-1.47-3.53-1.47c-1.32,0-2.61,0.53-3.54,1.47c-0.23,0.23-0.44,0.48-0.62,0.75
			c-0.18,0.28-0.34,0.57-0.46,0.87c-0.13,0.3-0.22,0.61-0.29,0.93c-0.06,0.32-0.09,0.65-0.09,0.98s0.03,0.65,0.09,0.98
			c0.07,0.31,0.16,0.63,0.29,0.93c0.12,0.3,0.28,0.59,0.46,0.86c0.18,0.28,0.39,0.53,0.62,0.77c0.93,0.93,2.22,1.46,3.54,1.46
			c1.31,0,2.6-0.53,3.53-1.46c0.23-0.24,0.44-0.49,0.62-0.77c0.18-0.27,0.34-0.56,0.46-0.86c0.13-0.3,0.22-0.62,0.29-0.93
			c0.06-0.33,0.1-0.65,0.1-0.98S421.63,249.34,421.57,249.02z"/>
		<path class="st0" d="M100.64,311.87c-0.13-0.3-0.28-0.59-0.46-0.87c-0.18-0.27-0.39-0.52-0.62-0.75c-1.16-1.17-2.89-1.7-4.52-1.37
			c-0.32,0.06-0.63,0.16-0.93,0.28c-0.3,0.13-0.59,0.28-0.86,0.46c-0.28,0.18-0.53,0.39-0.77,0.63c-0.23,0.23-0.44,0.48-0.62,0.75
			c-0.18,0.28-0.33,0.57-0.46,0.87c-0.12,0.3-0.22,0.61-0.28,0.93c-0.07,0.33-0.1,0.65-0.1,0.98c0,1.32,0.53,2.61,1.46,3.53
			c0.24,0.24,0.49,0.44,0.77,0.63c0.27,0.18,0.56,0.33,0.86,0.46c0.3,0.12,0.61,0.22,0.93,0.28c0.33,0.07,0.65,0.1,0.98,0.1
			c1.32,0,2.61-0.53,3.54-1.47c0.93-0.92,1.46-2.21,1.46-3.53c0-0.33-0.03-0.65-0.1-0.98C100.86,312.48,100.76,312.17,100.64,311.87
			z"/>
		<path class="st0" d="M408.6,184.31c-0.13-0.3-0.28-0.59-0.46-0.87c-0.18-0.27-0.39-0.53-0.62-0.76c-1.17-1.16-2.89-1.69-4.52-1.36
			c-0.31,0.06-0.63,0.16-0.93,0.28c-0.3,0.13-0.59,0.28-0.86,0.46c-0.28,0.18-0.53,0.39-0.77,0.62c-0.23,0.23-0.44,0.49-0.62,0.76
			c-0.18,0.28-0.33,0.57-0.46,0.87c-0.12,0.3-0.22,0.61-0.28,0.93c-0.07,0.33-0.1,0.65-0.1,0.98c0,1.32,0.53,2.6,1.46,3.53
			c0.24,0.24,0.49,0.45,0.77,0.63c0.27,0.18,0.56,0.33,0.86,0.46c0.3,0.12,0.61,0.22,0.93,0.28c0.33,0.07,0.65,0.1,0.98,0.1
			s0.65-0.03,0.98-0.1c0.32-0.06,0.63-0.16,0.93-0.28c0.3-0.13,0.59-0.28,0.86-0.46c0.28-0.18,0.53-0.39,0.77-0.63
			c0.93-0.93,1.46-2.21,1.46-3.53c0-0.33-0.03-0.65-0.1-0.98C408.82,184.92,408.72,184.61,408.6,184.31z"/>
		<path class="st0" d="M371.53,135.51c0.17-0.19,0.34-0.38,0.48-0.59c0.56-0.85,0.84-1.83,0.84-2.8c0-0.28-0.03-0.55-0.08-0.82
			c-0.01-0.06-0.02-0.12-0.03-0.18c-0.05-0.26-0.13-0.51-0.22-0.75c-0.13-0.34-0.29-0.67-0.5-0.98c0,0-0.01-0.01-0.01-0.02
			c-0.18-0.27-0.39-0.53-0.62-0.76c-0.23-0.23-0.49-0.44-0.76-0.62c-0.01,0-0.01-0.01-0.02-0.01c-0.31-0.2-0.63-0.36-0.97-0.49
			c-0.24-0.09-0.5-0.17-0.75-0.22c-0.34-0.07-0.69-0.12-1.04-0.12c0,0,0,0,0,0c-0.34,0-0.69,0.04-1.03,0.11
			c-0.26,0.05-0.52,0.13-0.78,0.23c-0.03,0.01-0.07,0.02-0.1,0.04c0,0,0,0-0.01,0c-0.04,0.02-0.07,0.04-0.11,0.06
			c-0.3,0.13-0.58,0.29-0.85,0.48c-0.24,0.16-0.46,0.34-0.67,0.54c-0.02,0.02-0.03,0.04-0.04,0.05L250,242.93L135.73,128.66
			c-0.01-0.01-0.03-0.03-0.04-0.05c-0.2-0.19-0.42-0.36-0.64-0.52c-0.28-0.2-0.58-0.37-0.89-0.51c-0.03-0.02-0.06-0.04-0.1-0.05
			c0,0,0,0-0.01,0c-0.03-0.01-0.06-0.02-0.1-0.03c-0.25-0.1-0.51-0.18-0.78-0.23c-0.68-0.14-1.39-0.14-2.07,0
			c-0.26,0.05-0.51,0.13-0.76,0.23c-0.33,0.13-0.66,0.29-0.96,0.49c-0.01,0-0.01,0.01-0.02,0.01c-0.27,0.18-0.53,0.39-0.76,0.62
			c-0.23,0.23-0.44,0.49-0.62,0.76c0,0.01-0.01,0.01-0.01,0.02c-0.2,0.31-0.36,0.63-0.49,0.97c-0.09,0.25-0.17,0.5-0.22,0.76
			c-0.01,0.06-0.02,0.12-0.03,0.17c-0.05,0.27-0.08,0.55-0.08,0.83c0,0.33,0.03,0.67,0.1,1c0,0.01,0.01,0.02,0.01,0.04
			c0.06,0.31,0.15,0.61,0.27,0.9c0.01,0.02,0.02,0.04,0.03,0.05c0.12,0.28,0.26,0.55,0.43,0.8c0.18,0.27,0.39,0.53,0.62,0.76
			c0,0,0,0,0,0c0,0,0,0,0,0L242.93,250L128.61,364.32c0,0,0,0,0,0c-0.17,0.17-0.32,0.37-0.46,0.57c-0.21,0.29-0.39,0.59-0.54,0.9
			c-0.02,0.05-0.06,0.1-0.08,0.15c0,0,0,0,0,0.01c-0.01,0.03-0.02,0.07-0.03,0.1c-0.09,0.24-0.17,0.49-0.22,0.74
			c-0.02,0.08-0.03,0.15-0.04,0.22c-0.05,0.27-0.08,0.55-0.08,0.82c0,0.97,0.27,1.95,0.83,2.79c0.18,0.28,0.39,0.54,0.62,0.77
			c0.24,0.23,0.5,0.44,0.77,0.62c0.84,0.56,1.8,0.84,2.77,0.84c0.01,0,0.03,0,0.04,0c0.27,0,0.54-0.03,0.81-0.08
			c0.06-0.01,0.12-0.02,0.18-0.03c0.25-0.05,0.51-0.13,0.76-0.22c0.64-0.24,1.23-0.61,1.75-1.13L250,257.07l114.27,114.27
			c0.01,0.01,0.02,0.03,0.04,0.04c0.21,0.2,0.43,0.37,0.66,0.53c0.34,0.24,0.71,0.44,1.09,0.59c0.25,0.09,0.5,0.17,0.77,0.23
			c0.06,0.01,0.12,0.02,0.18,0.03c0.27,0.05,0.55,0.08,0.81,0.08c0.01,0,0.03,0,0.04,0c0.65,0,1.3-0.13,1.91-0.38
			c0.05-0.02,0.09-0.05,0.14-0.07c0.24-0.11,0.49-0.23,0.71-0.38c0.28-0.18,0.54-0.39,0.78-0.63c0.23-0.24,0.44-0.5,0.62-0.77
			c0.56-0.84,0.84-1.82,0.83-2.8c0-0.27-0.03-0.54-0.08-0.81c-0.01-0.08-0.03-0.15-0.04-0.23c-0.05-0.25-0.13-0.5-0.22-0.73
			c-0.01-0.04-0.02-0.07-0.04-0.11c0,0,0,0,0,0c-0.01-0.03-0.03-0.06-0.05-0.09c-0.19-0.44-0.46-0.85-0.79-1.23
			c-0.08-0.1-0.15-0.21-0.24-0.3c0,0,0,0,0,0c0,0,0,0,0,0L257.07,250l114.32-114.32C371.44,135.63,371.48,135.56,371.53,135.51z"/>
	</g>
</g>
</svg>
