<svg width="501" height="500" viewBox="0 0 501 500" fill="none" xmlns="http://www.w3.org/2000/svg">
<path d="M80.9085 408.849C83.1236 411.308 85.399 413.732 87.7356 416.116C119.888 448.928 159.185 470.003 200.516 479.345V499.999C154.06 490.369 109.769 467.17 73.7385 430.401C70.1527 426.742 66.6987 422.999 63.3762 419.179L80.9085 408.849ZM437.653 419.178C434.33 422.998 430.877 426.742 427.291 430.401C391.262 467.17 346.971 490.368 300.516 499.998V479.345C341.846 470.003 381.142 448.927 413.293 416.116C415.63 413.731 417.905 411.307 420.12 408.848L437.653 419.178ZM30.8704 179.505C16.7914 225.323 16.792 274.674 30.8704 320.492L13.3352 330.824C-3.75738 278.452 -3.75777 221.546 13.3352 169.174L30.8704 179.505ZM487.694 169.175C504.786 221.546 504.786 278.452 487.694 330.823L470.158 320.491C484.237 274.673 484.237 225.324 470.158 179.506L487.694 169.175ZM300.516 0.000976562C346.971 9.63147 391.262 32.8302 427.291 69.5986C430.877 73.2579 434.33 77.0012 437.653 80.8213L420.119 91.1514C417.904 88.692 415.63 86.2682 413.293 83.8838C381.142 51.0729 341.846 29.9965 300.516 20.6543V0.000976562ZM200.516 20.6543C159.185 29.9962 119.888 51.0723 87.7356 83.8838C85.3993 86.268 83.1243 88.6912 80.9094 91.1504L63.3772 80.8203C66.6994 77.0004 70.153 73.2577 73.7385 69.5986C109.769 32.8296 154.06 9.63017 200.516 0V20.6543Z" fill="#FF0080"/>
<circle cx="250" cy="250" r="49" fill="#FF0080" stroke="#FF0080" stroke-width="2"/>
<circle cx="251" cy="250" r="142.5" stroke="#FF0080" stroke-width="15"/>
<rect x="41.6752" y="141.469" width="24" height="99" transform="rotate(-60 41.6752 141.469)" fill="#FF0080" stroke="#FF0080"/>
<rect x="239.5" y="15.5" width="24" height="99" fill="#FF0080" stroke="#FF0080"/>
<rect x="237.5" y="385.5" width="24" height="99" fill="#FF0080" stroke="#FF0080"/>
<rect x="-0.683013" y="-0.183013" width="24" height="99" transform="matrix(-0.5 -0.866025 -0.866025 0.5 459.926 139.971)" fill="#FF0080" stroke="#FF0080"/>
<rect x="460.419" y="361.183" width="24" height="99" transform="rotate(120 460.419 361.183)" fill="#FF0080" stroke="#FF0080"/>
<rect x="0.683013" y="0.183013" width="24" height="99" transform="matrix(0.5 0.866025 0.866025 -0.5 41.183 356.683)" fill="#FF0080" stroke="#FF0080"/>
</svg>
