<svg width="694" height="694" viewBox="0 0 694 694" fill="none" xmlns="http://www.w3.org/2000/svg">
<path d="M223.392 541.564C298.449 589.382 395.183 589.382 470.241 541.564L484.701 556.024C401.375 611.229 292.258 611.229 208.932 556.024L223.392 541.564ZM555.411 209.544C610.617 292.87 610.617 401.987 555.411 485.313L540.952 470.853C588.77 395.796 588.77 299.061 540.952 224.004L555.411 209.544ZM152.68 224.003C104.862 299.061 104.862 395.796 152.681 470.853L138.221 485.313C83.0157 401.987 83.0149 292.869 138.22 209.543L152.68 224.003ZM208.931 138.833C292.257 83.6271 401.375 83.6279 484.701 138.833L470.241 153.293C395.183 105.475 298.448 105.474 223.391 153.292L208.931 138.833Z" fill="#8B5CF6"/>
<circle cx="346.711" cy="346.709" r="50" transform="rotate(-45 346.711 346.709)" fill="#8B5CF6"/>
<rect x="193.742" y="212.736" width="25" height="100" transform="rotate(-45 193.742 212.736)" fill="#8B5CF6"/>
<rect x="480.828" y="194.35" width="25" height="100" transform="rotate(45 480.828 194.35)" fill="#8B5CF6"/>
<rect x="480.828" y="194.35" width="25" height="100" transform="rotate(45 480.828 194.35)" fill="#8B5CF6"/>
<rect x="264.453" y="410.727" width="25" height="100" transform="rotate(45 264.453 410.727)" fill="#8B5CF6"/>
<rect x="410.117" y="429.111" width="25" height="100" transform="rotate(-45 410.117 429.111)" fill="#8B5CF6"/>
</svg>
