<svg width="490" height="500" viewBox="0 0 490 500" fill="none" xmlns="http://www.w3.org/2000/svg">
<path d="M489.953 299.993C480.517 346.451 457.784 390.744 421.752 426.776C324.121 524.407 165.83 524.407 68.1992 426.776C32.1675 390.744 9.43503 346.45 -0.000976562 299.993H20.4463C29.5967 341.273 50.2272 380.521 82.3408 412.634C172.161 502.455 317.79 502.455 407.61 412.634C439.724 380.521 460.355 341.273 469.506 299.993H489.953ZM469.503 199.993C460.351 158.718 439.72 119.475 407.61 87.3649C317.79 -2.45568 172.161 -2.45568 82.3408 87.3649C50.2307 119.475 29.6011 158.718 20.4492 199.993H0.00195312C9.43965 153.54 32.1711 109.251 68.1992 73.2233C165.83 -24.4078 324.121 -24.4078 421.752 73.2233C457.78 109.251 480.513 153.54 489.95 199.993H469.503Z" fill="#FFD700"/>
<circle cx="245" cy="250" r="50" fill="#FFD700"/>
<rect x="142" y="237" width="25" height="100" transform="rotate(90 142 237)" fill="#FFD700"/>
<rect x="448" y="237" width="25" height="100" transform="rotate(90 448 237)" fill="#FFD700"/>
</svg>
