<svg width="500" height="495" viewBox="0 0 500 495" fill="none" xmlns="http://www.w3.org/2000/svg">
<path d="M437.137 410.756C433.815 414.499 430.362 418.168 426.776 421.754C329.145 519.385 170.853 519.385 73.2222 421.754C69.6373 418.169 66.1854 414.501 62.8638 410.759L80.5767 400.532C82.7795 402.928 85.0417 405.289 87.3648 407.612C177.185 497.433 322.814 497.433 412.634 407.612C414.958 405.289 417.22 402.926 419.423 400.529L437.137 410.756ZM199.993 20.4502C158.717 29.6021 119.475 50.2326 87.3648 82.3428C24.6927 145.015 5.75025 234.857 30.5366 313.953L12.8208 324.182C-16.1524 237.196 3.98074 137.443 73.2222 68.2012C109.25 32.1729 153.54 9.44057 199.993 0.00292969V20.4502ZM299.993 0C346.45 9.43601 390.744 32.1695 426.776 68.2012C496.016 137.442 516.151 237.193 487.179 324.178L469.462 313.948C494.247 234.853 475.305 145.014 412.634 82.3428C380.521 50.2291 341.273 29.5977 299.993 20.4473V0Z" fill="#50C878"/>
<rect x="431.419" y="334.183" width="24" height="99" transform="rotate(120 431.419 334.183)" fill="#50C878" stroke="#50C878"/>
<rect x="237.5" y="50.5" width="24" height="99" fill="#50C878" stroke="#50C878"/>
<rect x="0.683013" y="0.183013" width="24" height="99" transform="matrix(0.5 0.866025 0.866025 -0.5 67.183 333.683)" fill="#50C878" stroke="#50C878"/>
<circle cx="249.711" cy="246.711" r="49" transform="rotate(-45 249.711 246.711)" fill="#50C878" stroke="#50C878" stroke-width="2"/>
</svg>
