<svg id="Circular_element" data-name="Circular element" xmlns="http://www.w3.org/2000/svg" viewBox="0 0 2000 2000"><defs><style>.cls-1,.cls-10,.cls-11,.cls-12,.cls-13,.cls-14,.cls-15,.cls-16,.cls-17,.cls-18,.cls-19,.cls-2,.cls-20,.cls-21,.cls-23,.cls-24,.cls-25,.cls-3,.cls-4,.cls-5,.cls-6,.cls-7,.cls-8,.cls-9{fill:none;}.cls-1,.cls-10,.cls-12,.cls-13,.cls-14,.cls-15,.cls-16,.cls-17,.cls-18,.cls-2,.cls-20,.cls-21,.cls-23,.cls-24,.cls-25,.cls-3,.cls-4,.cls-5,.cls-7,.cls-8,.cls-9{stroke:#fff;}.cls-1,.cls-10,.cls-11,.cls-12,.cls-13,.cls-14,.cls-15,.cls-16,.cls-17,.cls-18,.cls-19,.cls-2,.cls-20,.cls-23,.cls-24,.cls-25,.cls-3,.cls-4,.cls-5,.cls-6,.cls-7,.cls-8,.cls-9{stroke-linecap:round;}.cls-1{stroke-opacity:0.92;stroke-width:30.53px;}.cls-2{stroke-opacity:0.27;stroke-width:7.06px;}.cls-3{stroke-opacity:0.35;stroke-width:9.95px;}.cls-4{stroke-opacity:0.29;stroke-width:7.85px;}.cls-5{stroke-opacity:0.42;stroke-width:12.56px;}.cls-11,.cls-19,.cls-6{stroke:#dd1920;}.cls-23,.cls-6{stroke-opacity:0.76;stroke-width:24.84px;}.cls-7{stroke-opacity:0.58;stroke-width:18.02px;}.cls-8{stroke-opacity:0.39;stroke-width:11.31px;}.cls-9{stroke-opacity:0.34;stroke-width:9.62px;}.cls-10{stroke-opacity:0.77;stroke-width:25.03px;}.cls-11,.cls-24{stroke-opacity:0.74;stroke-width:23.78px;}.cls-12{stroke-opacity:0.47;stroke-width:14.15px;}.cls-13{stroke-opacity:0.29;stroke-width:7.84px;}.cls-14{stroke-opacity:0.45;stroke-width:13.61px;}.cls-15{stroke-opacity:0.85;stroke-width:27.95px;}.cls-16{stroke-opacity:0.63;stroke-width:19.85px;}.cls-17{stroke-opacity:0.34;stroke-width:9.53px;}.cls-18{stroke-opacity:0.31;stroke-width:8.32px;}.cls-19,.cls-25{stroke-opacity:0.78;stroke-width:25.31px;}.cls-20{stroke-opacity:0.55;stroke-width:17.24px;}.cls-21{stroke-width:11.54px;}.cls-22{opacity:0.19;}</style></defs><g id="Artboard_layers" data-name="Artboard layers"><g id="Middle_layer" data-name="Middle layer"><g id="Transform_group" data-name="Transform group"><path id="Arc" class="cls-1" d="M1016.51,939.85a62.53,62.53,0,1,1-10.14-1.89Z"/><path id="Arc_1" data-name="Arc 1" class="cls-2" d="M1052.57,1080.26a95.8,95.8,0,1,1,35.82-117.16"/><path id="Arc_2" data-name="Arc 2" class="cls-3" d="M888,935.75a129.15,129.15,0,1,1-16.09,47.54"/><path id="Arc_3" data-name="Arc 3" class="cls-4" d="M1157.54,1040a162.47,162.47,0,1,1-66.93-174.73"/><path id="Arc_4" data-name="Arc 4" class="cls-5" d="M1125.41,1150.54c-83.07,69.26-206.56,58.07-275.82-25a195.84,195.84,0,0,1-41.2-165.88"/><path id="Arc_5" data-name="Arc 5" class="cls-6" d="M1219.17,933.2c37,121-31.19,249.14-152.24,286.1s-249.14-31.19-286.11-152.24S812,817.92,933.07,781a229.13,229.13,0,0,1,133.2-.2"/><path id="Arc_6" data-name="Arc 6" class="cls-7" d="M955.56,1258.85c-142.89-24.55-238.81-160.28-214.28-303.16a262.51,262.51,0,0,1,257-218.05"/><path id="Arc_7" data-name="Arc 7" class="cls-8" d="M758.11,1170.45c-94.07-133.58-62-318.14,71.57-412.2s318.14-62,412.2,71.56a295.71,295.71,0,0,1,44,94.13"/><path id="Arc_8" data-name="Arc 8" class="cls-9" d="M1072.25,679c177.36,39.9,288.79,216,248.89,393.38a329.16,329.16,0,0,1-312.34,256.8"/><path id="Arc_9" data-name="Arc 9" class="cls-10" d="M1246.2,734.07c146.94,136,155.84,365.32,19.87,512.26a362.09,362.09,0,0,1-54.33,48"/><path id="Arc_10" data-name="Arc 10" class="cls-11" d="M1143.21,631.11c203.8,79.1,304.9,308.43,225.81,512.23s-308.43,304.9-512.23,225.81A395.63,395.63,0,0,1,761.45,1316"/><path id="Arc_11" data-name="Arc 11" class="cls-12" d="M1199.23,1380.25c-209.93,110-469.32,29-579.35-180.88S590.84,730,800.77,620q18.71-9.79,38.31-17.73"/><path id="Arc_12" data-name="Arc 12" class="cls-13" d="M1339.13,685.65c173.68,187.3,162.65,479.93-24.65,653.61s-479.93,162.65-653.61-24.65S498.22,834.69,685.52,661A462.46,462.46,0,0,1,975,538.31"/><path id="Arc_13" data-name="Arc 13" class="cls-14" d="M913.31,1488.33c-269.62-47.87-449.38-305.26-401.51-574.88s305.26-449.39,574.88-401.51a495.81,495.81,0,0,1,376.71,311.8"/><path id="Arc_14" data-name="Arc 14" class="cls-15" d="M1240.73,1471.37c-260.26,133-579,29.75-712-230.51s-29.75-579,230.51-712,579-29.75,712,230.51a529.36,529.36,0,0,1,45.83,128.23"/><path id="Arc_15" data-name="Arc 15" class="cls-16" d="M1474.92,698.72c166.47,262.29,88.79,609.87-173.5,776.34a562.56,562.56,0,0,1-348,85.65"/><path id="Arc_16" data-name="Arc 16" class="cls-17" d="M1022,1595.56c-328.85,12.13-605.26-244.62-617.38-573.47C393,707.53,628.05,438.21,941.29,407.2"/><path id="Arc_17" data-name="Arc 17" class="cls-18" d="M382.89,877.58C450.57,536.75,781.73,315.33,1122.55,383s562.25,398.84,494.56,739.67a629.09,629.09,0,0,1-64.86,178.89"/><path id="Arc_18" data-name="Arc 18" class="cls-19" d="M1185.56,1636.12C834.31,1738.6,466.5,1536.94,364,1185.69a662.28,662.28,0,0,1-17.51-294.42"/><path id="Arc_19" data-name="Arc 19" class="cls-20" d="M692.86,375.76c344.84-169.63,761.89-27.6,931.52,317.23s27.59,761.9-317.24,931.52c-271.45,133.53-598.08,76.38-808.05-141.4"/></g></g></g><path class="cls-21" d="M290.24,758.15c-133.52,392,76.06,818.09,468.11,951.61s818.1-76.06,951.61-468.11a749.81,749.81,0,0,0,39.91-228.09c7.55-414.08-322-755.89-736.1-763.43C687.8,244.18,395.34,449.53,290.24,758.15Z"/><g id="Artboard_layers-2" data-name="Artboard layers" class="cls-22"><g id="Middle_layer-2" data-name="Middle layer"><g id="Transform_group-2" data-name="Transform group"><path id="Arc-2" data-name="Arc" class="cls-1" d="M945.8,1030.85a62.45,62.45,0,1,1,5.83,8.52Z"/><path id="Arc_1-2" data-name="Arc 1" class="cls-2" d="M1019.58,906.07A95.87,95.87,0,1,1,911.41,963.6"/><path id="Arc_2-2" data-name="Arc 2" class="cls-3" d="M1033.75,1124.61a129.17,129.17,0,1,1,45-22.24"/><path id="Arc_3-2" data-name="Arc 3" class="cls-4" d="M916.87,860.34a162.51,162.51,0,1,1-76.23,170.87"/><path id="Arc_4-2" data-name="Arc 4" class="cls-5" d="M1017.77,804.87c107.71,9.77,187.12,105,177.36,212.72A195.81,195.81,0,0,1,1107,1164"/><path id="Arc_5-2" data-name="Arc 5" class="cls-23" d="M797.79,892.26c59.45-111.74,198.22-154.12,310-94.66s154.12,198.23,94.66,310-198.22,154.11-310,94.65a229.11,229.11,0,0,1-94.33-94"/><path id="Arc_6-2" data-name="Arc 6" class="cls-7" d="M1214.46,848.4c83.67,118.38,55.53,282.19-62.85,365.87a262.51,262.51,0,0,1-335.93-27.55"/><path id="Arc_7-2" data-name="Arc 7" class="cls-8" d="M1291.57,1050.51c-27.94,161-181.1,268.82-342.08,240.87s-268.81-181.1-240.87-342.07a295.8,295.8,0,0,1,35.47-97.65"/><path id="Arc_8-2" data-name="Arc 8" class="cls-9" d="M721.93,1175.9c-97.2-153.63-51.45-357,102.17-454.16A329.16,329.16,0,0,1,1226.54,761"/><path id="Arc_9-2" data-name="Arc 9" class="cls-10" d="M637.87,1014C630.11,813.9,786,645.44,986.05,637.68a362.43,362.43,0,0,1,72.38,4.45"/><path id="Arc_10-2" data-name="Arc 10" class="cls-24" d="M637.9,1159.58c-88.19-200,2.49-433.69,202.52-521.87s433.69,2.49,521.87,202.53a395.65,395.65,0,0,1,29.84,105"/><path id="Arc_11-2" data-name="Arc 11" class="cls-12" d="M1128,590.24c226.25,70.65,352.4,311.32,281.76,537.57s-311.33,352.4-537.57,281.76q-20.16-6.3-39.64-14.55"/><path id="Arc_12-2" data-name="Arc 12" class="cls-13" d="M537.92,982.48c9.63-255.25,224.35-454.37,479.6-444.74s454.37,224.34,444.75,479.6-224.35,454.36-479.6,444.74A462.54,462.54,0,0,1,691.2,1344.14"/><path id="Arc_13-2" data-name="Arc 13" class="cls-14" d="M1406.6,716C1563.4,940.5,1508.51,1249.6,1284,1406.41s-533.62,101.92-690.42-122.59A495.86,495.86,0,0,1,547.69,797"/><path id="Arc_14-2" data-name="Arc 14" class="cls-15" d="M1163.09,496.47c278,90,430.46,388.39,340.44,666.43s-388.39,430.46-666.43,340.45S406.64,1115,496.66,836.91a529.13,529.13,0,0,1,58.26-123.07"/><path id="Arc_15-2" data-name="Arc 15" class="cls-16" d="M451.14,877.22C518.9,574,819.6,383.19,1122.78,451a562.47,562.47,0,0,1,306.61,185.48"/><path id="Arc_16-2" data-name="Arc 16" class="cls-17" d="M1405.6,563.35c241.11,224,255,601,31.05,842.06-214.22,230.63-570.88,254.84-814.31,55.28"/><path id="Arc_17-2" data-name="Arc 17" class="cls-18" d="M1349.8,1522.93c-288.86,193.14-679.59,115.54-872.73-173.32S361.53,670,650.39,476.88a629,629,0,0,1,172.36-80.63"/><path id="Arc_18-2" data-name="Arc 18" class="cls-25" d="M1318.59,419c320.84,175.9,438.33,578.58,262.42,899.41A662.32,662.32,0,0,1,1385.21,1539"/><path id="Arc_19-2" data-name="Arc 19" class="cls-20" d="M775.77,1658.59C412,1534.7,217.52,1139.36,341.41,775.58s519.23-558.25,883-434.36c286.36,97.53,476.91,368.9,471.39,671.37"/></g></g></g></svg>