<svg id="Circular_element" data-name="Circular element" xmlns="http://www.w3.org/2000/svg" viewBox="0 0 2000 2000"><defs><style>.cls-1,.cls-2,.cls-4,.cls-5,.cls-6{fill:none;}.cls-1,.cls-2{stroke:#dd1920;}.cls-1,.cls-4{stroke-width:5.77px;}.cls-2,.cls-6{stroke-width:2.12px;}.cls-3{fill:#fff;}.cls-4,.cls-5,.cls-6{stroke:#fff;}.cls-5{stroke-width:1.06px;}</style></defs><g id="g4410"><circle id="circle4334" class="cls-1" cx="1000" cy="1000" r="450"/><path id="path4360" class="cls-2" d="M1150,1000h600"/><path id="path4372" class="cls-2" d="M1000,850V250"/><path id="path4384" class="cls-2" d="M850,1000H250"/><path id="path4396" class="cls-2" d="M1000,1150v600"/><circle id="circle4408" class="cls-3" cx="1000" cy="1000" r="7.5"/><circle id="circle4322" class="cls-4" cx="1000" cy="1000" r="150"/><circle id="circle4324" class="cls-5" cx="1000" cy="1000" r="100"/><circle id="circle4326" class="cls-5" cx="1000" cy="1000" r="50"/><circle id="circle4328" class="cls-4" cx="1000" cy="1000" r="300"/><circle id="circle4330" class="cls-5" cx="1000" cy="1000" r="250"/><circle id="circle4332" class="cls-5" cx="1000" cy="1000" r="200"/><circle id="circle4336" class="cls-5" cx="1000" cy="1000" r="400"/><circle id="circle4338" class="cls-5" cx="1000" cy="1000" r="350"/><circle id="circle4340" class="cls-4" cx="1000" cy="1000" r="600"/><circle id="circle4342" class="cls-5" cx="1000" cy="1000" r="550"/><circle id="circle4344" class="cls-5" cx="1000" cy="1000" r="500"/><circle id="circle4346" class="cls-4" cx="1000" cy="1000" r="750"/><circle id="circle4348" class="cls-5" cx="1000" cy="1000" r="700"/><circle id="circle4350" class="cls-5" cx="1000" cy="1000" r="650"/><path id="path4352" class="cls-6" d="M1000,1000v150"/><path id="path4354" class="cls-6" d="M1000,1000h150"/><path id="path4356" class="cls-6" d="M1000,1000V850"/><path id="path4358" class="cls-6" d="M1000,1000H850"/><path id="path4362" class="cls-6" d="M1144.89,961.18l579.55-155.29"/><path id="path4364" class="cls-6" d="M1129.9,925l519.62-300"/><path id="path4366" class="cls-6" d="M1106.07,893.93l424.26-424.26"/><path id="path4368" class="cls-6" d="M1075,870.1l300-519.62"/><path id="path4370" class="cls-6" d="M1038.82,855.11l155.29-579.55"/><path id="path4374" class="cls-6" d="M961.18,855.11,805.89,275.56"/><path id="path4376" class="cls-6" d="M925,870.1,625,350.48"/><path id="path4378" class="cls-6" d="M893.93,893.93,469.67,469.67"/><path id="path4380" class="cls-6" d="M870.1,925,350.48,625"/><path id="path4382" class="cls-6" d="M855.11,961.18,275.56,805.89"/><path id="path4386" class="cls-6" d="M855.11,1038.82,275.56,1194.11"/><path id="path4388" class="cls-6" d="M870.1,1075,350.48,1375"/><path id="path4390" class="cls-6" d="M893.93,1106.07,469.67,1530.33"/><path id="path4392" class="cls-6" d="M925,1129.9,625,1649.52"/><path id="path4394" class="cls-6" d="M961.18,1144.89,805.89,1724.44"/><path id="path4398" class="cls-6" d="M1038.82,1144.89l155.29,579.55"/><path id="path4400" class="cls-6" d="M1075,1129.9l300,519.62"/><path id="path4402" class="cls-6" d="M1106.07,1106.07l424.26,424.26"/><path id="path4404" class="cls-6" d="M1129.9,1075l519.62,300"/><path id="path4406" class="cls-6" d="M1144.89,1038.82l579.55,155.29"/></g></svg>