<svg id="Circular_element" data-name="Circular element" xmlns="http://www.w3.org/2000/svg" viewBox="0 0 2000 2000"><defs><style>.cls-1,.cls-2{fill:none;stroke-miterlimit:10;stroke-width:5px;}.cls-1{stroke:#dd1920;}.cls-2{stroke:#fff;}</style></defs><polyline class="cls-1" points="1741.45 868.08 1581.93 896.21 1588.64 947.19 1590.89 998.57 1428.91 998.57 1427.28 1035.83 1588.64 1049.94 1750 1064.06"/><polyline class="cls-1" points="1652.19 622.85 1511.91 703.84 1371.64 784.83 1351.6 753.38 1484.28 660.47"/><polyline class="cls-2" points="1577.06 515.56 1452.98 619.67 1418.24 581.76 1303.7 696.3 1189.17 810.83"/><polyline class="cls-1" points="1377.15 347.81 1296.16 488.08 1215.17 628.36 1246.62 648.4 1276.21 671.11 1303.7 696.3 1328.89 723.79 1204.82 827.91"/><polyline class="cls-1" points="1131.92 258.55 1103.79 418.07 1075.66 577.59 1038.69 572.72 1052.81 411.36"/><line class="cls-1" x1="806.94" y1="272.74" x2="848.87" y2="429.2"/><polyline class="cls-1" points="470.09 467.23 584.62 581.76 622.53 547.02 663.33 515.72 756.24 648.4 787.69 628.36 820.77 611.14 889.23 757.94"/><polyline class="cls-1" points="295.32 741.56 447.52 796.96 467.2 749.45 490.95 703.84 631.22 784.83 651.26 753.38 673.97 723.79 798.04 827.91"/><polyline class="cls-1" points="736.94 1021.71 575.58 1035.83 414.22 1049.94 411.98 998.57 414.22 947.19 575.58 961.31 580.45 924.34 588.52 887.93 744.98 929.85"/><polyline class="cls-1" points="261.42 1129.06 420.93 1100.93 432.06 1151.13 275.61 1193.06"/><polyline class="cls-1" points="320.4 1316.14 467.2 1247.68 614.01 1179.23 631.22 1212.31 490.95 1293.3"/><polyline class="cls-1" points="518.42 1574.2 622.53 1450.12 726.65 1326.03 756.24 1348.74 663.33 1481.42 570.43 1614.1"/><polyline class="cls-1" points="870.94 1738.58 899.07 1579.07 848.87 1567.94 799.83 1552.48 855.23 1400.27 820.77 1385.99"/><polyline class="cls-1" points="1195.92 1724.39 1153.99 1567.94 1103.79 1579.07 1052.81 1585.78 1038.69 1424.42 1001.43 1426.05 964.17 1424.42 978.29 1263.06"/><polyline class="cls-2" points="1131.92 1738.58 1103.79 1579.07 1075.66 1419.55 1112.07 1411.48 1153.99 1567.94"/><polyline class="cls-1" points="1250.55 1532.8 1182.09 1385.99 1113.64 1239.2"/><polyline class="cls-1" points="1432.43 1614.1 1339.53 1481.42 1246.62 1348.74"/><polyline class="cls-1" points="1682.46 1316.14 1535.66 1247.68 1388.86 1179.23 1371.64 1212.31 1351.6 1243.76 1328.89 1273.35 1303.7 1300.84 1189.17 1186.31"/><line class="cls-2" x1="1266.93" y1="998.57" x2="1428.91" y2="998.57"/><polyline class="cls-2" points="1750 933.08 1588.64 947.19 1427.28 961.31 1422.41 924.34 1262.9 952.46"/><polyline class="cls-2" points="1616.97 567.57 1484.28 660.47 1511.91 703.84 1535.66 749.45 1388.86 817.91 1403.13 852.36 1414.34 887.93 1257.88 929.85"/><polyline class="cls-2" points="1727.26 804.08 1570.8 846.01 1555.34 796.96 1707.54 741.56"/><polyline class="cls-2" points="1555.34 796.96 1403.13 852.36 1250.92 907.76"/><line class="cls-2" x1="1388.86" y1="817.91" x2="1242.06" y2="886.36"/><line class="cls-2" x1="1351.6" y1="753.38" x2="1218.92" y2="846.29"/><line class="cls-2" x1="1276.21" y1="671.1" x2="1172.09" y2="795.18"/><polyline class="cls-2" points="1432.43 383.03 1339.53 515.72 1246.62 648.4"/><line class="cls-2" x1="1296.16" y1="488.09" x2="1339.53" y2="515.72"/><line class="cls-2" x1="1215.17" y1="628.36" x2="1134.18" y2="768.64"/><polyline class="cls-2" points="1066.92 250 1052.81 411.36 1103.79 418.07 1153.99 429.2 1112.07 585.66 1147.64 596.87 1182.09 611.14 1113.64 757.94"/><polyline class="cls-2" points="1319 317.54 1250.55 464.34 1203.04 444.66 1258.44 292.46"/><polyline class="cls-2" points="1203.04 444.66 1147.64 596.87 1092.24 749.08"/><line class="cls-2" x1="1112.07" y1="585.66" x2="1070.15" y2="742.12"/><line class="cls-2" x1="1038.69" y1="572.72" x2="1024.57" y2="734.08"/><polyline class="cls-2" points="744.43 292.46 799.83 444.66 848.87 429.2 899.07 418.07 927.2 577.59 964.17 572.72 1001.43 571.09 1001.43 733.07"/><polyline class="cls-2" points="935.94 250 950.06 411.36 964.17 572.72 978.29 734.08"/><line class="cls-2" x1="927.2" y1="577.59" x2="955.33" y2="737.1"/><polyline class="cls-2" points="799.83 444.66 855.23 596.87 910.63 749.08"/><polyline class="cls-2" points="683.86 317.54 752.32 464.34 706.71 488.08 625.72 347.81"/><polyline class="cls-2" points="706.71 488.08 787.69 628.36 868.68 768.64"/><line class="cls-2" x1="518.42" y1="422.94" x2="622.53" y2="547.02"/><line class="cls-2" x1="756.24" y1="648.4" x2="849.15" y2="781.08"/><polyline class="cls-2" points="584.62 581.76 699.16 696.3 813.69 810.83"/><polyline class="cls-2" points="385.9 567.57 518.58 660.47 651.26 753.38 783.94 846.29"/><line class="cls-2" x1="631.22" y1="784.83" x2="771.5" y2="865.82"/><polyline class="cls-2" points="320.4 681 467.2 749.45 614.01 817.91 599.73 852.36 447.52 796.96"/><line class="cls-2" x1="599.73" y1="852.36" x2="751.94" y2="907.76"/><polyline class="cls-2" points="261.42 868.08 420.93 896.21 580.45 924.34 739.96 952.46"/><polyline class="cls-2" points="250 998.57 411.98 998.57 573.95 998.57 575.58 1035.83"/><line class="cls-2" x1="575.58" y1="961.31" x2="736.94" y2="975.43"/><polyline class="cls-2" points="350.67 1374.29 490.95 1293.3 467.2 1247.68 447.52 1200.17 599.73 1144.77 588.52 1109.21 580.45 1072.8 739.96 1044.67"/><polyline class="cls-2" points="432.06 1151.13 588.52 1109.21 744.98 1067.28"/><line class="cls-2" x1="599.73" y1="1144.77" x2="751.94" y2="1089.37"/><line class="cls-2" x1="631.22" y1="1212.31" x2="771.5" y2="1131.32"/><polyline class="cls-2" points="425.8 1481.58 549.88 1377.46 673.97 1273.35 798.04 1169.23"/><polyline class="cls-2" points="385.9 1429.57 518.58 1336.67 549.88 1377.46"/><polyline class="cls-2" points="726.65 1326.03 699.16 1300.84 673.97 1273.35"/><line class="cls-2" x1="699.16" y1="1300.84" x2="813.69" y2="1186.31"/><line class="cls-2" x1="663.33" y1="1481.42" x2="622.53" y2="1450.12"/><line class="cls-2" x1="756.24" y1="1348.74" x2="849.15" y2="1216.06"/><polyline class="cls-2" points="683.86 1679.6 752.32 1532.8 820.77 1385.99 889.23 1239.2"/><polyline class="cls-2" points="625.72 1649.33 706.71 1509.05 752.32 1532.8"/><line class="cls-2" x1="855.23" y1="1400.27" x2="910.63" y2="1248.06"/><polyline class="cls-2" points="806.94 1724.39 848.87 1567.94 890.79 1411.48 927.2 1419.55 899.07 1579.07"/><line class="cls-2" x1="927.2" y1="1419.55" x2="955.33" y2="1260.04"/><polyline class="cls-2" points="935.94 1747.14 950.06 1585.78 1001.43 1588.03 1001.43 1750"/><polyline class="cls-2" points="1001.43 1588.03 1001.43 1426.05 1001.43 1264.07"/><line class="cls-2" x1="1038.69" y1="1424.42" x2="1024.57" y2="1263.06"/><line class="cls-2" x1="1112.07" y1="1411.48" x2="1070.15" y2="1255.02"/><polyline class="cls-2" points="1258.44 1704.68 1203.04 1552.48 1250.55 1532.8 1319 1679.6"/><polyline class="cls-2" points="1484.44 1574.2 1380.33 1450.12 1276.21 1326.03 1246.62 1348.74 1215.17 1368.78 1182.09 1385.99 1147.64 1400.27 1092.24 1248.06"/><line class="cls-2" x1="1215.17" y1="1368.78" x2="1134.18" y2="1228.5"/><line class="cls-2" x1="1380.33" y1="1450.12" x2="1339.53" y2="1481.42"/><line class="cls-2" x1="1276.21" y1="1326.03" x2="1172.09" y2="1201.95"/><polyline class="cls-2" points="1577.06 1481.58 1452.98 1377.46 1328.89 1273.35 1204.82 1169.23"/><polyline class="cls-2" points="1652.19 1374.29 1511.91 1293.3 1371.64 1212.31"/><line class="cls-2" x1="1351.6" y1="1243.76" x2="1218.92" y2="1150.85"/><line class="cls-2" x1="1535.66" y1="1247.68" x2="1511.91" y2="1293.29"/><line class="cls-2" x1="1388.86" y1="1179.23" x2="1242.06" y2="1110.77"/><polyline class="cls-2" points="1707.54 1255.57 1555.34 1200.17 1570.8 1151.13 1727.26 1193.06"/><polyline class="cls-2" points="1588.64 1049.94 1581.93 1100.93 1422.41 1072.8 1262.9 1044.67"/><polyline class="cls-2" points="1570.8 1151.13 1414.34 1109.21 1422.41 1072.8"/><circle class="cls-2" cx="1001.43" cy="998.57" r="265.5"/></svg>