<svg id="Circular_element" data-name="Circular element" xmlns="http://www.w3.org/2000/svg" viewBox="0 0 2000 2000"><defs><style>.cls-1{opacity:0.5;}.cls-10,.cls-11,.cls-12,.cls-13,.cls-14,.cls-15,.cls-16,.cls-17,.cls-18,.cls-19,.cls-2,.cls-20,.cls-21,.cls-22,.cls-23,.cls-24,.cls-25,.cls-26,.cls-27,.cls-28,.cls-29,.cls-3,.cls-30,.cls-31,.cls-32,.cls-33,.cls-34,.cls-35,.cls-36,.cls-37,.cls-38,.cls-39,.cls-4,.cls-40,.cls-41,.cls-42,.cls-43,.cls-44,.cls-45,.cls-46,.cls-47,.cls-48,.cls-49,.cls-5,.cls-6,.cls-7,.cls-8,.cls-9{fill:none;}.cls-10,.cls-11,.cls-12,.cls-13,.cls-14,.cls-15,.cls-16,.cls-17,.cls-18,.cls-19,.cls-2,.cls-20,.cls-21,.cls-22,.cls-23,.cls-24,.cls-25,.cls-26,.cls-27,.cls-28,.cls-29,.cls-3,.cls-30,.cls-31,.cls-32,.cls-33,.cls-34,.cls-35,.cls-36,.cls-37,.cls-38,.cls-39,.cls-4,.cls-40,.cls-41,.cls-42,.cls-43,.cls-44,.cls-45,.cls-46,.cls-47,.cls-49,.cls-5,.cls-6,.cls-7,.cls-8,.cls-9{stroke:#fff;}.cls-10,.cls-11,.cls-12,.cls-13,.cls-14,.cls-15,.cls-16,.cls-17,.cls-18,.cls-19,.cls-2,.cls-20,.cls-21,.cls-22,.cls-23,.cls-24,.cls-25,.cls-26,.cls-27,.cls-28,.cls-29,.cls-3,.cls-30,.cls-31,.cls-32,.cls-33,.cls-34,.cls-35,.cls-36,.cls-37,.cls-38,.cls-39,.cls-4,.cls-40,.cls-41,.cls-42,.cls-43,.cls-44,.cls-45,.cls-46,.cls-5,.cls-6,.cls-7,.cls-8,.cls-9{stroke-linecap:round;stroke-linejoin:round;stroke-width:1.25px;}.cls-3{stroke-dasharray:0 16.36;}.cls-4{stroke-dasharray:0 16.43;}.cls-5{stroke-dasharray:0 16.48;}.cls-6{stroke-dasharray:0 16.5;}.cls-7{stroke-dasharray:0 16.52;}.cls-8{stroke-dasharray:0 16.53;}.cls-9{stroke-dasharray:0 16.54;}.cls-10{stroke-dasharray:0 16.55;}.cls-11{stroke-dasharray:0 16.56;}.cls-12{stroke-dasharray:0 16.56;}.cls-13{stroke-dasharray:0 16.57;}.cls-14{stroke-dasharray:0 16.57;}.cls-15{stroke-dasharray:0 16.58;}.cls-16{stroke-dasharray:0 16.58;}.cls-17{stroke-dasharray:0 16.58;}.cls-18{stroke-dasharray:0 16.59;}.cls-19{stroke-dasharray:0 16.59;}.cls-20{stroke-dasharray:0 16.59;}.cls-21{stroke-dasharray:0 16.59;}.cls-22{stroke-dasharray:0 16.59;}.cls-23{stroke-dasharray:0 16.59;}.cls-24{stroke-dasharray:0 16.6;}.cls-25{stroke-dasharray:0 32.73;}.cls-26{stroke-dasharray:0 36.16;}.cls-27{stroke-dasharray:0 32.95;}.cls-28{stroke-dasharray:0 35.06;}.cls-29{stroke-dasharray:0 33.04;}.cls-30{stroke-dasharray:0 34.57;}.cls-31{stroke-dasharray:0 33.09;}.cls-32{stroke-dasharray:0 34.29;}.cls-33{stroke-dasharray:0 33.12;}.cls-34{stroke-dasharray:0 34.1;}.cls-35{stroke-dasharray:0 33.14;}.cls-36{stroke-dasharray:0 33.97;}.cls-37{stroke-dasharray:0 33.15;}.cls-38{stroke-dasharray:0 33.88;}.cls-39{stroke-dasharray:0 33.17;}.cls-40{stroke-dasharray:0 33.81;}.cls-41{stroke-dasharray:0 33.17;}.cls-42{stroke-dasharray:0 33.75;}.cls-43{stroke-dasharray:0 33.18;}.cls-44{stroke-dasharray:0 33.7;}.cls-45{stroke-dasharray:0 33.19;}.cls-46{stroke-dasharray:0 33.66;}.cls-47,.cls-48,.cls-49{stroke-miterlimit:10;}.cls-47,.cls-48{stroke-width:12.5px;}.cls-48{stroke:#dd1920;}.cls-49{stroke-width:1.67px;}</style></defs><g class="cls-1"><line class="cls-2" x1="916.54" y1="1000" x2="916.54" y2="1000"/><path class="cls-3" d="M918.13,983.74a83.3,83.3,0,0,1,73.56-66.68"/><line class="cls-2" x1="999.86" y1="916.67" x2="999.86" y2="916.67"/><line class="cls-2" x1="884.8" y1="1000" x2="884.8" y2="1000"/><path class="cls-4" d="M886,983.62a115,115,0,0,1,105.69-98.41"/><line class="cls-2" x1="999.86" y1="884.92" x2="999.86" y2="884.92"/><line class="cls-2" x1="853.06" y1="1000" x2="853.06" y2="1000"/><path class="cls-5" d="M854,983.56A146.74,146.74,0,0,1,991.62,853.4"/><line class="cls-2" x1="999.86" y1="853.17" x2="999.86" y2="853.17"/><line class="cls-2" x1="821.32" y1="1000" x2="821.32" y2="1000"/><path class="cls-6" d="M822.07,983.52a178.46,178.46,0,0,1,169.54-161.9"/><line class="cls-2" x1="999.86" y1="821.43" x2="999.86" y2="821.43"/><line class="cls-2" x1="789.58" y1="1000" x2="789.58" y2="1000"/><path class="cls-7" d="M790.22,983.5A210.18,210.18,0,0,1,991.6,789.84"/><line class="cls-2" x1="999.86" y1="789.68" x2="999.86" y2="789.68"/><line class="cls-2" x1="757.84" y1="1000" x2="757.84" y2="1000"/><path class="cls-8" d="M758.4,983.48c8.29-123.36,108.76-221.24,233.19-225.41"/><line class="cls-2" x1="999.86" y1="757.94" x2="999.86" y2="757.94"/><line class="cls-2" x1="726.1" y1="1000" x2="726.1" y2="1000"/><path class="cls-9" d="M726.59,983.46c8.38-140.9,123-252.94,265-257.15"/><line class="cls-2" x1="999.86" y1="726.19" x2="999.86" y2="726.19"/><line class="cls-2" x1="694.36" y1="1000" x2="694.36" y2="1000"/><path class="cls-10" d="M694.8,983.45C703.24,825,832.08,698.79,991.59,694.55"/><line class="cls-2" x1="999.86" y1="694.44" x2="999.86" y2="694.44"/><line class="cls-2" x1="662.62" y1="1000" x2="662.62" y2="1000"/><path class="cls-11" d="M663,983.44c8.49-176,151.51-316.39,328.56-320.64"/><line class="cls-2" x1="999.86" y1="662.7" x2="999.86" y2="662.7"/><line class="cls-2" x1="630.88" y1="1000" x2="630.88" y2="1000"/><path class="cls-12" d="M631.25,983.44C639.77,789.89,797,635.32,991.58,631"/><line class="cls-2" x1="999.86" y1="630.95" x2="999.86" y2="630.95"/><line class="cls-2" x1="599.14" y1="1000" x2="599.14" y2="1000"/><path class="cls-13" d="M599.48,983.43c8.56-211.09,180-379.85,392.1-384.14"/><line class="cls-2" x1="999.86" y1="599.21" x2="999.86" y2="599.21"/><line class="cls-2" x1="567.4" y1="1000" x2="567.4" y2="1000"/><path class="cls-14" d="M567.71,983.43C576.3,754.79,761.9,571.84,991.57,567.54"/><line class="cls-2" x1="999.86" y1="567.46" x2="999.86" y2="567.46"/><line class="cls-2" x1="535.66" y1="1000" x2="535.66" y2="1000"/><path class="cls-15" d="M536,983.42c8.62-246.18,208.4-443.32,455.62-447.63"/><line class="cls-2" x1="999.86" y1="535.71" x2="999.86" y2="535.71"/><line class="cls-2" x1="503.92" y1="1000" x2="503.92" y2="1000"/><path class="cls-16" d="M504.19,983.42c8.64-263.74,222.62-475,487.38-479.38"/><line class="cls-2" x1="999.86" y1="503.97" x2="999.86" y2="503.97"/><line class="cls-2" x1="472.18" y1="1000" x2="472.18" y2="1000"/><path class="cls-17" d="M472.44,983.42c8.65-281.29,236.82-506.8,519.13-511.13"/><line class="cls-2" x1="999.86" y1="472.22" x2="999.86" y2="472.22"/><line class="cls-2" x1="440.44" y1="1000" x2="440.44" y2="1000"/><path class="cls-18" d="M440.68,983.41c8.68-298.83,251-538.53,550.89-542.87"/><line class="cls-2" x1="999.86" y1="440.48" x2="999.86" y2="440.48"/><line class="cls-2" x1="408.7" y1="1000" x2="408.7" y2="1000"/><path class="cls-19" d="M408.93,983.41C417.62,667,674.17,413.14,991.57,408.79"/><line class="cls-2" x1="999.86" y1="408.73" x2="999.86" y2="408.73"/><line class="cls-2" x1="376.96" y1="1000" x2="376.96" y2="1000"/><path class="cls-20" d="M377.18,983.41c8.7-333.93,279.45-602,614.39-606.37"/><line class="cls-2" x1="999.86" y1="376.98" x2="999.86" y2="376.98"/><line class="cls-2" x1="345.22" y1="1000" x2="345.22" y2="1000"/><path class="cls-21" d="M345.43,983.41c8.71-351.47,293.65-633.75,646.14-638.12"/><line class="cls-2" x1="999.86" y1="345.24" x2="999.86" y2="345.24"/><line class="cls-2" x1="313.48" y1="1000" x2="313.48" y2="1000"/><path class="cls-22" d="M313.68,983.41c8.73-369,307.86-665.5,677.88-669.87"/><line class="cls-2" x1="999.86" y1="313.49" x2="999.86" y2="313.49"/><line class="cls-2" x1="281.74" y1="1000" x2="281.74" y2="1000"/><path class="cls-23" d="M281.93,983.4C290.67,596.84,604,286.17,991.56,281.79"/><line class="cls-2" x1="999.86" y1="281.75" x2="999.86" y2="281.75"/><line class="cls-2" x1="250" y1="1000" x2="250" y2="1000"/><path class="cls-24" d="M250.18,983.4c8.75-404.11,336.27-729,741.38-733.36"/><line class="cls-2" x1="999.86" y1="250" x2="999.86" y2="250"/><line class="cls-2" x1="1083.18" y1="1000" x2="1083.18" y2="1000"/><path class="cls-25" d="M1076.87,1031.9a83.4,83.4,0,0,1-60.75,49.85"/><line class="cls-2" x1="999.86" y1="1083.33" x2="999.86" y2="1083.33"/><line class="cls-2" x1="1114.92" y1="1000" x2="1114.92" y2="1000"/><path class="cls-26" d="M1109.33,1035.58a115.12,115.12,0,0,1-91.46,78.1"/><line class="cls-2" x1="999.86" y1="1115.08" x2="999.86" y2="1115.08"/><line class="cls-2" x1="1146.66" y1="1000" x2="1146.66" y2="1000"/><path class="cls-27" d="M1143,1032.68a146.81,146.81,0,0,1-126.71,113.24"/><line class="cls-2" x1="999.86" y1="1146.83" x2="999.86" y2="1146.83"/><line class="cls-2" x1="1178.4" y1="1000" x2="1178.4" y2="1000"/><path class="cls-28" d="M1175,1034.85a178.53,178.53,0,0,1-157.64,142.88"/><line class="cls-2" x1="999.86" y1="1178.57" x2="999.86" y2="1178.57"/><line class="cls-2" x1="1210.14" y1="1000" x2="1210.14" y2="1000"/><path class="cls-29" d="M1207.59,1032.91a210.23,210.23,0,0,1-191.22,176.77"/><line class="cls-2" x1="999.86" y1="1210.32" x2="999.86" y2="1210.32"/><line class="cls-2" x1="1241.88" y1="1000" x2="1241.88" y2="1000"/><path class="cls-30" d="M1239.45,1034.46c-15.9,111.85-108.11,199-222.31,207"/><line class="cls-2" x1="999.86" y1="1242.06" x2="999.86" y2="1242.06"/><line class="cls-2" x1="1273.62" y1="1000" x2="1273.62" y2="1000"/><path class="cls-31" d="M1271.66,1033C1256,1163.38,1149,1265.44,1016.4,1273.32"/><line class="cls-2" x1="999.86" y1="1273.81" x2="999.86" y2="1273.81"/><line class="cls-2" x1="1305.36" y1="1000" x2="1305.36" y2="1000"/><path class="cls-32" d="M1303.47,1034.22c-16.36,147.17-137,262.61-286.46,270.86"/><line class="cls-2" x1="999.86" y1="1305.56" x2="999.86" y2="1305.56"/><line class="cls-2" x1="1337.1" y1="1000" x2="1337.1" y2="1000"/><path class="cls-33" d="M1335.5,1033.07c-16.06,165.47-151.4,295.74-319.07,303.83"/><line class="cls-2" x1="999.86" y1="1337.3" x2="999.86" y2="1337.3"/><line class="cls-2" x1="1368.84" y1="1000" x2="1368.84" y2="1000"/><path class="cls-34" d="M1367.29,1034.06c-16.64,182.4-165.71,326.22-350.37,334.6"/><line class="cls-2" x1="999.86" y1="1369.05" x2="999.86" y2="1369.05"/><line class="cls-2" x1="1400.58" y1="1000" x2="1400.58" y2="1000"/><path class="cls-35" d="M1399.24,1033.1c-16.36,200.58-180,359.13-382.8,367.36"/><line class="cls-2" x1="999.86" y1="1400.79" x2="999.86" y2="1400.79"/><line class="cls-2" x1="1432.32" y1="1000" x2="1432.32" y2="1000"/><path class="cls-36" d="M1431,1033.94c-16.85,217.6-194.33,389.8-414.15,398.27"/><line class="cls-2" x1="999.86" y1="1432.54" x2="999.86" y2="1432.54"/><line class="cls-2" x1="1464.06" y1="1000" x2="1464.06" y2="1000"/><path class="cls-37" d="M1462.9,1033.13c-16.57,235.68-208.62,422.54-446.46,430.87"/><line class="cls-2" x1="999.86" y1="1464.29" x2="999.86" y2="1464.29"/><line class="cls-2" x1="1495.8" y1="1000" x2="1495.8" y2="1000"/><path class="cls-38" d="M1494.67,1033.86c-17,252.77-222.89,453.35-477.87,461.89"/><line class="cls-2" x1="999.86" y1="1496.03" x2="999.86" y2="1496.03"/><line class="cls-2" x1="1527.54" y1="1000" x2="1527.54" y2="1000"/><path class="cls-39" d="M1526.52,1033.15c-16.74,270.78-237.14,486-510.07,494.37"/><line class="cls-2" x1="999.86" y1="1527.78" x2="999.86" y2="1527.78"/><line class="cls-2" x1="1559.28" y1="1000" x2="1559.28" y2="1000"/><path class="cls-40" d="M1558.28,1033.79c-17.11,287.93-251.4,516.89-541.51,525.48"/><line class="cls-2" x1="999.86" y1="1559.52" x2="999.86" y2="1559.52"/><line class="cls-2" x1="1591.02" y1="1000" x2="1591.02" y2="1000"/><path class="cls-41" d="M1590.11,1033.16c-16.86,305.89-265.64,549.42-573.66,557.88"/><line class="cls-2" x1="999.86" y1="1591.27" x2="999.86" y2="1591.27"/><line class="cls-2" x1="1622.76" y1="1000" x2="1622.76" y2="1000"/><path class="cls-42" d="M1621.87,1033.74c-17.2,323.07-279.9,580.42-605.13,589.05"/><line class="cls-2" x1="999.86" y1="1623.02" x2="999.86" y2="1623.02"/><line class="cls-2" x1="1654.5" y1="1000" x2="1654.5" y2="1000"/><path class="cls-43" d="M1653.68,1033.17c-17,341-294.12,612.87-637.23,621.39"/><line class="cls-2" x1="999.86" y1="1654.76" x2="999.86" y2="1654.76"/><line class="cls-2" x1="1686.24" y1="1000" x2="1686.24" y2="1000"/><path class="cls-44" d="M1685.43,1033.69c-17.26,358.21-308.36,644-668.72,652.62"/><line class="cls-2" x1="999.86" y1="1686.51" x2="999.86" y2="1686.51"/><line class="cls-2" x1="1717.98" y1="1000" x2="1717.98" y2="1000"/><path class="cls-45" d="M1717.23,1033.18c-17,376.08-322.58,676.33-700.77,684.89"/><line class="cls-2" x1="999.86" y1="1718.25" x2="999.86" y2="1718.25"/><line class="cls-2" x1="1749.72" y1="1000" x2="1749.72" y2="1000"/><path class="cls-46" d="M1749,1033.65c-17.32,393.34-336.82,707.48-732.28,716.17"/><line class="cls-2" x1="999.86" y1="1750" x2="999.86" y2="1750"/><path class="cls-2" d="M999.86,1083.33A83.28,83.28,0,0,1,916.54,1000"/><path class="cls-2" d="M999.86,1115.08A115,115,0,0,1,884.8,1000"/><path class="cls-2" d="M999.86,1146.83A146.73,146.73,0,0,1,853.06,1000"/><path class="cls-2" d="M999.86,1178.57A178.46,178.46,0,0,1,821.32,1000"/><path class="cls-2" d="M999.86,1210.32A210.18,210.18,0,0,1,789.58,1000"/><path class="cls-2" d="M999.86,1242.06c-133.77,0-242-108.26-242-242.06"/><path class="cls-2" d="M999.86,1273.81c-151.31,0-273.76-122.47-273.76-273.81"/><path class="cls-2" d="M999.86,1305.56c-168.86,0-305.5-136.67-305.5-305.56"/><path class="cls-2" d="M999.86,1337.3c-186.4,0-337.24-150.86-337.24-337.3"/><path class="cls-2" d="M999.86,1369.05c-204,0-369-165.06-369-369"/><path class="cls-2" d="M999.86,1400.79c-221.49,0-400.72-179.26-400.72-400.79"/><path class="cls-2" d="M999.86,1432.54c-239,0-432.46-193.46-432.46-432.54"/><path class="cls-2" d="M999.86,1464.29c-256.58,0-464.2-207.66-464.2-464.29"/><path class="cls-2" d="M999.86,1496c-274.12,0-495.94-221.86-495.94-496"/><path class="cls-2" d="M999.86,1527.78c-291.67,0-527.68-236.06-527.68-527.78"/><path class="cls-2" d="M999.86,1559.52c-309.21,0-559.42-250.25-559.42-559.52"/><path class="cls-2" d="M999.86,1591.27c-326.75,0-591.16-264.45-591.16-591.27"/><path class="cls-2" d="M999.86,1623c-344.3,0-622.9-278.66-622.9-623"/><path class="cls-2" d="M999.86,1654.76c-361.84,0-654.64-292.85-654.64-654.76"/><path class="cls-2" d="M999.86,1686.51c-379.39,0-686.38-307-686.38-686.51"/><path class="cls-2" d="M999.86,1718.25c-396.93,0-718.12-321.25-718.12-718.25"/><path class="cls-2" d="M999.86,1750C585.39,1750,250,1414.55,250,1000"/><path class="cls-2" d="M999.86,916.67a83.28,83.28,0,0,1,83.32,83.33"/><path class="cls-2" d="M999.86,884.92A115,115,0,0,1,1114.92,1000"/><path class="cls-2" d="M999.86,853.17A146.73,146.73,0,0,1,1146.66,1000"/><path class="cls-2" d="M999.86,821.43A178.45,178.45,0,0,1,1178.4,1000"/><path class="cls-2" d="M999.86,789.68A210.18,210.18,0,0,1,1210.14,1000"/><path class="cls-2" d="M999.86,757.94c133.77,0,242,108.26,242,242.06"/><path class="cls-2" d="M999.86,726.19c151.32,0,273.76,122.47,273.76,273.81"/><path class="cls-2" d="M999.86,694.44c168.86,0,305.5,136.67,305.5,305.56"/><path class="cls-2" d="M999.86,662.7c186.41,0,337.24,150.86,337.24,337.3"/><path class="cls-2" d="M999.86,631c203.95,0,369,165.06,369,369"/><path class="cls-2" d="M999.86,599.21c221.49,0,400.72,179.26,400.72,400.79"/><path class="cls-2" d="M999.86,567.46c239,0,432.46,193.46,432.46,432.54"/><path class="cls-2" d="M999.86,535.71c256.58,0,464.2,207.66,464.2,464.29"/><path class="cls-2" d="M999.86,504c274.12,0,495.94,221.86,495.94,496"/><path class="cls-2" d="M999.86,472.22c291.67,0,527.68,236.06,527.68,527.78"/><path class="cls-2" d="M999.86,440.48c309.21,0,559.42,250.25,559.42,559.52"/><path class="cls-2" d="M999.86,408.73C1326.62,408.73,1591,673.18,1591,1000"/><path class="cls-2" d="M999.86,377c344.3,0,622.9,278.66,622.9,623"/><path class="cls-2" d="M999.86,345.24c361.84,0,654.64,292.85,654.64,654.76"/><path class="cls-2" d="M999.86,313.49c379.39,0,686.38,307,686.38,686.51"/><path class="cls-2" d="M999.86,281.75C1396.79,281.75,1718,603,1718,1000"/><path class="cls-2" d="M999.86,250c414.48,0,749.86,335.45,749.86,750"/></g><path class="cls-47" d="M1047.06,931.33a83.29,83.29,0,0,1,21.46,115.88"/><path class="cls-47" d="M943.64,1100.41a115,115,0,0,1-44.17-156.64"/><path class="cls-47" d="M1034.76,857.38a146.75,146.75,0,0,1,107.69,177.52"/><path class="cls-48" d="M821.53,1008.64a178.46,178.46,0,0,1,169.69-187"/><path class="cls-47" d="M1208.94,1022.46A210.16,210.16,0,0,1,977.4,1209.11"/><path class="cls-47" d="M796.25,1130.86C723.94,1018.3,756.49,868.68,869,796.36"/><path class="cls-48" d="M1255.14,901.11c54.65,141.13-15.31,299.56-156.41,354.22"/><path class="cls-47" d="M749.2,825.33c96.53-138.58,286.76-172.58,425.3-76"/><path class="cls-47" d="M1320.88,896.65c57.11,177.47-40.25,367.3-217.69,424.43"/><path class="cls-47" d="M901.57,644.29c196.57-54.34,399.61,60.78,453.94,257.4"/><path class="cls-47" d="M1156.17,1369c-203.94,86.42-438.88-8.72-525.28-212.7"/><path class="cls-47" d="M1403,843.48c86.5,222.87-23.82,473.23-246.65,559.75"/><path class="cls-48" d="M535.81,988.29c6.47-256.54,219.26-458.9,475.76-452.43"/><path class="cls-47" d="M573.87,1254c-140.36-235.5-63.42-539.67,172-680.07"/><path class="cls-47" d="M503.84,820c99.49-274.22,401.86-415.59,676-316.07"/><path class="cls-47" d="M446.88,1209c-115.52-305.71,38.33-646.58,344-762.12"/><path class="cls-48" d="M419.81,1227.07c-125.49-320.68,32.41-681.73,353-807.23"/><path class="cls-47" d="M1546.74,640.1C1745.63,942.43,1662,1348,1359.7,1547"/><path class="cls-47" d="M353.1,770.14c127-357.55,519.09-544.07,876.58-417"/><path class="cls-47" d="M1462.62,1549.24c-303.53,255.83-756.12,217.19-1011.9-86.4"/><path class="cls-47" d="M1240.1,289.53c392.63,132.81,602.89,558.05,470.1,950.75"/><path class="cls-48" d="M1544.09,870.5c71.57,300.88-113.94,602.26-414.76,673.83"/><path class="cls-49" d="M1393.67,602.61c219.62,217.71,221.19,571.62,3.51,791.27"/><path class="cls-49" d="M1083,994.55a83.28,83.28,0,0,1-77.69,88.61"/><path class="cls-49" d="M1091.69,930.67a115,115,0,0,1-22.51,161.18"/><path class="cls-49" d="M1020.67,1145.34a146.71,146.71,0,0,1-166.12-124.53"/><path class="cls-49" d="M1170.22,1053.44a178.44,178.44,0,0,1-223.79,117"/><path class="cls-49" d="M831.46,874.05a210.13,210.13,0,0,1,294.33-42.48"/><path class="cls-49" d="M1051.29,1236.53C920.58,1265,791.8,1182.18,763.37,1051.44"/><path class="cls-49" d="M1086.37,1259.78C942.81,1307.6,788,1230.12,740.13,1086.53"/><path class="cls-49" d="M742.69,1164.93C651.54,1022.76,692.81,834,835,742.78"/><path class="cls-49" d="M1213.55,739.05c144.21,118.13,165.32,330.44,47.21,474.67"/><path class="cls-49" d="M904.37,1356.47c-197-52.79-313.7-255-260.92-452"/><path class="cls-49" d="M932,1395c-218.29-37.51-364.58-244.54-327.08-462.87"/><path class="cls-49" d="M1334.52,726c151.4,185,124.23,457.25-60.75,608.68"/><path class="cls-49" d="M1278.51,628.67c205.21,154.05,246.63,444.79,92.61,650"/><path class="cls-49" d="M606.83,697.49C774,480.2,1085.08,439.68,1302.32,606.89"/><path class="cls-49" d="M750.37,534.94c257-137.93,576.56-41.53,714.47,215.52"/><path class="cls-49" d="M1531.22,740.86c143.21,293.75,21.44,647.36-272.26,790.59"/><path class="cls-49" d="M1550.44,1291.38c-161,304.38-537.58,420.35-841.9,259.3"/><path class="cls-49" d="M1374.94,1536.63C1078.38,1744,670.65,1671.77,463.33,1375.15"/><path class="cls-49" d="M441.7,1399.55C220.9,1091,291.88,662.58,600.39,441.74"/><path class="cls-49" d="M365.15,1336c-185.67-350.89-52-785.1,298.8-970.81"/><path class="cls-49" d="M1491.05,433.3c313.17,271.55,346.9,744.75,75.4,1058"/></svg>