<svg id="Circular_element" data-name="Circular element" xmlns="http://www.w3.org/2000/svg" viewBox="0 0 2000 2000"><defs><style>.cls-1,.cls-10,.cls-11,.cls-12,.cls-13,.cls-14,.cls-15,.cls-16,.cls-18,.cls-19,.cls-2,.cls-20,.cls-21,.cls-22,.cls-3,.cls-4,.cls-5,.cls-6,.cls-7,.cls-8,.cls-9{fill:none;stroke:#fff;stroke-miterlimit:10;stroke-width:46.15px;}.cls-1{opacity:0.24;}.cls-2{opacity:0.13;}.cls-3{opacity:0.44;}.cls-4{opacity:0.14;}.cls-5{opacity:0.3;}.cls-6{opacity:0.17;}.cls-7{opacity:0.48;}.cls-8{opacity:0.12;}.cls-9{opacity:0.43;}.cls-10{opacity:0.34;}.cls-11{opacity:0.21;}.cls-12{opacity:0.51;}.cls-13{opacity:0.29;}.cls-14{opacity:0.34;}.cls-15{opacity:0.18;}.cls-16{opacity:0.23;}.cls-17{opacity:0.25;}.cls-18,.cls-19,.cls-20,.cls-21,.cls-22{stroke-dasharray:1 10;}.cls-18{opacity:0.56;}.cls-19{opacity:0.49;}.cls-20{opacity:0.38;}.cls-21{opacity:0.51;}.cls-22{opacity:0.21;}</style></defs><path class="cls-1" d="M925.21,994.21a75,75,0,0,1,37.29-59.16"/><path class="cls-2" d="M1074.79,1005.79A75,75,0,0,1,1037.5,1065"/><path class="cls-3" d="M1142.5,1001.11a142.52,142.52,0,0,1-239.22,103.56"/><path class="cls-4" d="M1044.25,1205.29a210,210,0,0,1-190-356.49"/><path class="cls-5" d="M955.75,794.71a210,210,0,0,1,190,356.49"/><path class="cls-6" d="M1118.56,749.11A277.53,277.53,0,0,1,1273.15,1049"/><path class="cls-7" d="M881.44,1250.89A277.53,277.53,0,0,1,726.85,951"/><path class="cls-8" d="M689.71,1150.81a345,345,0,0,1,485.67-447.9"/><path class="cls-9" d="M1310.29,849.19a345,345,0,0,1-485.67,447.9"/><path class="cls-10" d="M748,673.42c175-135,425.28-108.15,567.6,61"/><path class="cls-11" d="M736,1400.89A480,480,0,0,1,535.18,880.3"/><path class="cls-12" d="M1534.75,1117.51a547.52,547.52,0,0,1-424.35,418.74"/><path class="cls-13" d="M900.34,393.13A615,615,0,0,1,1612,939.43"/><path class="cls-14" d="M1099.66,1606.87A615,615,0,0,1,388,1060.57"/><path class="cls-15" d="M409.18,1341.67c-151.38-261.81-112.44-592,95.7-811.41"/><path class="cls-16" d="M1590.82,658.33c151.38,261.81,112.44,592-95.7,811.41"/><g class="cls-17"><circle class="cls-18" cx="1000" cy="1000" r="750" transform="translate(-414.21 1000) rotate(-45)"/><path class="cls-19" d="M857.5,998.89a142.52,142.52,0,0,1,239.22-103.56"/><path class="cls-20" d="M1252,1326.58c-175,135-425.28,108.15-567.6-61"/><path class="cls-21" d="M1264,599.11a480,480,0,0,1,200.85,520.59"/><path class="cls-22" d="M465.25,882.49A547.52,547.52,0,0,1,889.6,463.75"/></g></svg>