<svg id="Circular_element" data-name="Circular element" xmlns="http://www.w3.org/2000/svg" viewBox="0 0 2000 2000"><defs><style>.cls-1,.cls-2,.cls-3{fill:none;stroke-miterlimit:10;}.cls-1{stroke:#fff;stroke-width:3px;}.cls-2,.cls-3{stroke:#dd1920;}.cls-2{stroke-width:9.38px;}.cls-3{stroke-width:6.25px;}</style></defs><path class="cls-1" d="M1230.4,1083.86l-67.76-24.66,135.53,49.33,135.54,49.32,135.53,49.34,135.53,49.32L1637,1231.85l-67.76-24.66-67.77-24.67-67.76-24.67-33.89-12.32-33.88-12.34-33.88-12.33-33.89-12.33-67.77-24.67,2.77-10.32,2.77-10.32,1.38-5.16,1.38-5.16,1.38-5.16,1.39-5.16.93-10.64.93-10.65.93-10.64.93-10.65h432.69l-2.57-29.43L1674,955.86l-1.29-14.72,71.56-6.26-5.69-65.12-8.46-31.57-4.23-15.78-4.23-15.79-4.23-15.78-4.23-15.78L1709,759.27l-4.23-15.78-27.62-59.25-13.82-29.62L1649.52,625l-18.74-26.78L1612,571.46l-18.75-26.78-18.75-26.77L1563,506.35l-11.56-11.55-11.55-11.56-11.56-11.55-23.11-23.11-23.11-23.11-26.77-18.75-13.39-9.37L1428.54,388l-26.76-18.75L1375,350.48l-29.62-13.81-29.62-13.82L1301,316,1286.13,309l-14.8-6.91-14.82-6.9-31.57-8.46-31.56-8.46-31.57-8.46-31.57-8.46L1000,250l-65.12,5.7-65.12,5.69-63.14,16.92-31.56,8.46-31.57,8.46L625,350.48l-26.78,18.74L571.46,388l-26.78,18.75-26.77,18.75-92.44,92.44L388,571.46l-18.75,26.76L350.48,625l-27.63,59.24-27.62,59.25L261.39,869.76l-2.85,32.56-2.84,32.56L250,1000l2.85,32.56,2.85,32.56,5.69,65.12,16.92,63.14,4.23,15.78,4.23,15.78,8.46,31.57,27.62,59.25,13.82,29.62L350.48,1375l9.37,13.38,9.37,13.4L388,1428.54l18.75,26.78,18.75,26.77,46.22,46.22,46.22,46.22,13.38,9.37,13.39,9.38L571.46,1612l26.76,18.75,13.4,9.37,13.38,9.37,14.81,6.9,14.81,6.91,14.81,6.91,14.81,6.91,14.81,6.9,14.82,6.91,14.8,6.91,14.82,6.9,63.13,16.92,63.14,16.92,32.56,2.85,32.56,2.84,32.56,2.85L1000,1750l65.12-5.7,32.56-2.84,32.56-2.85,126.27-33.84,59.25-27.62,14.81-6.91,14.81-6.91,29.62-13.81,26.78-18.74,26.76-18.75,26.78-18.75,13.39-9.38,13.38-9.37,92.44-92.44,9.37-13.38,9.38-13.39,9.37-13.39,9.38-13.39,9.37-13.38,9.38-13.38,9.37-13.4,9.37-13.38,13.81-29.62,13.82-29.62,27.62-59.25,8.46-31.57,8.46-31.56,16.92-63.14,5.69-65.12L1750,1000l-1.42-16.28-1.43-16.28-2.85-32.56L1601.17,947.4l-71.57,6.27L1458,959.93l-35.78,3.13-35.78,3.13-35.79,3.13-35.78,3.13-1.21-13.78-35.65,4.7-35.64,4.69.93,10.65-35.79,3.13L1171.76,985l.33,3.76.33,3.76.66,7.51-.33,3.76-.33,3.75-.66,7.52-.66,7.51-.65,7.52-1,3.64-1,3.64-1,3.64-1,3.65-2,7.28-1.95,7.29-6.38,13.67-6.37,13.67-4.33,6.18-4.32,6.18-8.66,12.35-5.33,5.33-5.33,5.34-10.67,10.66-12.35,8.66-6.18,4.32-6.18,4.33-6.83,3.19-6.84,3.18-3.42,1.6-3.42,1.59-3.41,1.59-3.42,1.6-29.14,7.81-15,1.31-15,1.32-7.51-.66-7.52-.66-15-1.31-14.57-3.91-14.57-3.9-3.42-1.6-3.41-1.59-3.42-1.59-3.42-1.6-13.67-6.37-12.36-8.65-3.09-2.16-3.08-2.17-3.09-2.16-3.09-2.17-21.33-21.33-8.66-12.35-8.65-12.36-3.19-6.83-3.18-6.84-1.6-3.42-1.59-3.42-1.59-3.41-1.6-3.42-3.9-14.57-2-7.29-1-3.64-1-3.64-1.31-15-1.32-15,.66-7.51.66-7.52.32-3.75.34-3.76.32-3.75.33-3.77,2-7.28,2-7.29,3.9-14.57,6.38-13.67,1.59-3.41,1.59-3.43,1.6-3.41,1.59-3.42,2.17-3.09,2.16-3.09,2.16-3.09,2.16-3.09,2.16-3.09,2.17-3.08,4.33-6.18,5.33-5.33,5.33-5.34,5.34-5.33,5.33-5.33,6.18-4.33,6.17-4.33,12.36-8.65,6.83-3.19,3.43-1.59,3.41-1.59,6.84-3.19,6.83-3.19,29.14-7.81,3.77-.33,3.75-.32,3.76-.34,3.75-.32,7.52-.66,7.51-.66,15,1.32,15,1.31,29.14,7.81,6.83,3.19,6.84,3.19,13.67,6.37,12.36,8.65,6.17,4.33,6.18,4.33,10.67,10.66,5.33,5.34,5.33,5.33,4.33,6.18,4.33,6.17,4.32,6.18,4.33,6.18,3.19,6.83,3.18,6.84,6.38,13.67,1,3.65,1,3.64,1,3.64,1,3.64,1,3.65,1,3.64,2,7.28.65,7.52.66,7.51,71.57-6.26-.46-5.32-.47-5.33,71.29-9.39.6,6.89.61,6.89,71.57-6.26,71.56-6.26,35.78-3.14,35.79-3.12,35.78-3.13,35.79-3.14,35.78-3.12,35.79-3.14,2.57,29.43,1.29,14.72,36-.79,1.36,15.5m-542.84,22.54,71.3,9.4,71.29,9.39,1.21-13.78.6-6.89.6-6.88,1.21-13.78h360.57l-1.28-14.71M1504.48,828.71l3,11.23,68.58-21.63-3.42-12.75L1606.74,794l3.62,13.51-34.29,10.81-34.29,10.82-34.29,10.81-6-22.46-67.76,24.67-33.89,12.32-33.88,12.34-67.77,24.66-67.77,24.67-33.88,12.33-33.88,12.33,135.53-49.33,135.54-49.32,33.88-12.34,33.88-12.33,3,11.23-34.09,11.57-34.08,11.58,2.6,9.71,2.6,9.72,2.61,9.71,34.69-9.29,34.7-9.31,34.7-9.29,34.69-9.3,3.42,12.75,3.41,12.75,6.83,25.5,4.61,52.59,1.15,13.15,1.15,13.16,35.92-1.58,35.92-1.56,35.92-1.56,35.92-1.57-71.84,3.13-71.84,3.14-2.3-26.31L1600,934.26l-1.15-13.15-2.31-26.3,71-12.52,71-12.53-142,25-71,12.52-6-22.46,70.2-15.56,35.11-7.78,35.1-7.78L1695,846l35.11-7.78-70.21,15.56-70.21,15.56-6.83-25.5-69.39,18.59L1444.12,881l5.2,19.43,2.6,9.71,2.61,9.71L1419,926.12l-35.51,6.26L1348,938.64l-35.51,6.26L1277,951.16l-35.5,6.26-2.77-10.32-2.76-10.32,69.39-18.59,69.39-18.59-4.39-16.4-2.2-8.19-2.19-8.2,4.39,16.39,2.2,8.2,2.19,8.2L1340,908.89l-34.7,9.3-34.7,9.3-34.69,9.29,1.38,5.16,1.38,5.16,1.38,5.16,1.39,5.16,71-12.52,71-12.52,71-12.53-5.21-19.42-2.6-9.72-2.6-9.71m15.67,99-1.76-20-.88-10-.87-10,71.29-9.39,35.65-4.7,35.65-4.69-71.3,9.39-35.64,4.69-35.65,4.7,1.75,20,.88,10,.88,10,.87,10,.88,10-1.75-20m-179.61,7.83-.53-6.1,35.85-2.35.6,6.88.61,6.9,36-.79-.66-7.67-35.93,1.56-35.92,1.57-35.92,1.56-35.92,1.57-35.92,1.57,71.84-3.14,71.84-3.13,1.21,13.78-2.41,27.55,71.57,6.26,71.56,6.26-1.75,20-1.75,20-5.21,19.42-2.6,9.72-2.6,9.71-2.61,9.71-2.6,9.72-2.6,9.71-2.6,9.71-17,36.46-130.22-60.72,11.68-25.06,3.58-13.36,3.58-13.36-69.39-18.59-34.7-9.3-34.7-9.29,69.4,18.59,2.76-10.32,2.77-10.32,71,12.52,71,12.52,71,12.53,142,25-13.66,51,69.39,18.59,69.4,18.6-138.79-37.19,6.83-25.5,6.83-25.5-71-12.52-71-12.52,3.5-40.08-143.13-12.52-35.78-3.13-35.79-3.13-71.57-6.26m145.55-15-.6-6.88m-49.25-77.47,1.58,5.91-34.49,10.06-1.38-5.16,34.29-10.81,34.29-10.82,3.58,13.36,1.79,6.68,1.79,6.67L1238.7,947.1l-35.1,7.78-35.11,7.78,70.21-15.56,35.11-7.78,35.1-7.78-3.58-13.35-1.79-6.68-1.79-6.68-68.58,21.63-1.38-5.16-1.39-5.16,2.77,10.32m17.14-224.77L1204,756.93l-92.71,110.49,46.36-55.25L1204,756.93l92.71-110.49,23.18-27.62L1343,591.2l8.22,8.22,8.22,8.22,8.22,8.23-24.84,26,7.66,7.67,25.41-25.41,25.39-25.39,25.4-25.4,25.41-25.41,25.39-25.39,25.4-25.4,25.4-25.4-50.8,50.8-50.8,50.8-50.79,50.79-16.45-16.44L1343,591.2l-46.36,55.24-46.36,55.25,12,12,6,6,6,6-50.79,50.79-50.8,50.8-50.8,50.8,101.6-101.6,25.4-25.4,25.39-25.39-12-12,48.58-53-14.22-14.22-33-23.07-16.48-11.54-8.23-5.77-8.24-5.77-18,31.24-18,31.22-18,31.22-18,31.24,5.66,4,5.67,4,5.66,4,5.67,4L1204,756.93l9.78,9.78,9.78,9.77,4.88,4.89,4.89,4.89,9.78,9.78,7.93,11.33,7.94,11.32,7.93,11.33,7.92,11.33,5.85,12.53,5.85,12.53-130.23,60.72,65.11-30.36,65.12-30.36,130.22-60.72,65.1-30.36L1546.92,745l130.23-60.73L1612,714.6,1546.92,745l-130.21,60.72-17-36.46,124.9-72.11,62.45-36.06,12.49,26.77L1535.77,721,1546.92,745l22.32,47.84,3.41,12.75m-422.76,107.9,62.45-36.06,62.45-36,124.92-72.12,62.45-36.06,62.45-36L1546.92,745l11.16,23.92,11.16,23.92,6.83,25.5m-150.86,5.61-8.5-18.23,17,36.46-8.5-18.23M1637,768.15l33.88-12.33,33.89-12.33-135.53,49.32,33.88-12.33L1637,768.15m22.94,85.6-3.82-14.26-3.83-14.27L1648.47,811,1614,821l3.62,13.5,3.62,13.52,34.9-8.54L1691,831l4,15m-4-15-4-15-34.7,9.3-34.69,9.29m-138.79,37.2-2.8-10.48-34.5,10.06L1407,881.34l-2.4-9,34.29-10.81,34.29-10.81-2.81-10.48-2.8-10.47m-271.07,98.66,1.18,4.4-34.08,11.58m219.89-12.07-2.2-8.2-35.3,7,2,7.44m282.78-340.42-60.66,38.64-16.94-24.2-17-24.2-57,43.78,15.14,21.63,58.85-41.21,58.85-41.2M1132.58,888.75l55.25-46.36,6.13,8.76,6.12,8.75,58.86-41.21,117.69-82.41,58.85-41.21,58.85-41.2L1464,610.62l-9.33-9.33-9.33-9.33-26.51,24.28-26.51,24.29L1408.8,657,1464,610.62l27.63-23.18,27.62-23.18,27.62-23.17,27.62-23.18-55.24,46.35L1464,610.62l-110.48,92.71-27.62,23.18-27.63,23.18-27.62,23.17L1243.07,796l-4.88-4.89-4.9-4.89-9.77-9.78L1204,756.93,1192.63,749l-11.32-7.94-22.66-15.85,72.12-124.92,33,23.08,8.24,5.76,8.24,5.77,16.47,11.54,7.11,7.11,7.11,7.11-24.29,26.51-24.29,26.52m137.4,55.54-62.46,36.06-62.46,36.06,11.7,25.06m192.7-234.17L1464,610.62,1445.38,592l-53,48.57,8.22,8.22,8.22,8.22-27.62,23.18-27.62,23.18L1243.07,796l15.87,22.65,58.84-41.2,9.74,13.89L1266.87,830l-60.66,38.63-60.65,38.63m172.22-129.79,58.85-41.21,117.7-82.41M1251,807.37l-57,43.78-57,43.78M1535.77,721l-11.16-23.92m-199.49-22.24,7.1,7.11-26,24.85-6.55-6.56,25.4-25.4m152.39-152.39L1488,532.93l-26,24.85-9.88-9.9m94.79-6.79-11-11-27.06,23.73-27.07,23.73-9.89-9.88,26.51-24.29,10.45,10.44,10.44,10.44M1381.18,680.15l-7.67-7.66,27.07-23.74m-194.37,219.9,6.13,8.75m68-145.71,6,6L1259.81,762l-5.45-5.44,26-24.84m87.38-115.82,8.23,8.21m-242.33,89.43-25.06-11.68-24.67,67.77-24.66,67.76,98.65-271.07,24.67-67.76,24.67-67.77-25.5-6.83-25.5-6.83-25.5-6.83-25.5-6.83-25,142-50.09,284.08,25-142,25.05-142,50.09-284.08-12.53,71-12.52,71,51,13.66,51,13.66-49.34,135.53-49.32,135.54,12.53,5.84,12.53,5.84-60.72,130.23,30.36-65.11,30.36-65.12,60.72-130.22,30.36-65.1L1255,453.08,1279,464.23l23.92,11.16,21.63,15.14,21.62,15.14,10.81,7.57,10.82,7.57,10.81,7.57,10.81,7.58,46.36-55.25-12.11-8.47-12.09-8.47,21.89-28.53,21.89-28.52-43.78,57,24.2,16.94-23.18,27.62L1389.38,536l-21.62-15.15-21.63-15.14-43.25-30.28L1255,453.08l-60.72,130.21-36.46-17-77.7-20.82-40.08-3.5L1000,538.46l-20,1.75-20,1.76-10,.88-10,.87-10,.88-10,.87-19.42,5.21L881,555.88l-9.71,2.61-9.72,2.6-9.71,2.6-9.71,2.6-36.46,17-18.23,8.5-18.23,8.5-16.47,11.54-16.48,11.54L719.8,634.9l-16.47,11.54-7.11,7.11-7.11,7.11-14.23,14.22-28.44,28.45-221-185.42L536,610.62,591.2,657l55.24,46.36L756.93,796l27.62,23.18,27.62,23.17-3.06,4.38L806,851.15l57.05,43.78L834.56,873,806,851.15l6.13-8.76L756.93,796l-55.24-46.35-55.25-46.36,56.89-56.89,8.23-5.77,8.24-5.77L763.58,692l13.91-9.73-41.21-58.85-41.21-58.85-41.2-58.85-20.61-29.42-20.6-29.43L571.46,388M1324,577.86l-9.52-6.67-9.52-6.67-20.61,29.42-20.6,29.43-82.41,117.69-82.41,117.7,41.2-58.84,41.21-58.86,20.6-29.42,20.6-29.42,41.21-58.85,82.41-117.7,20.61-29.42,20.6-29.43,20.6-29.42,20.6-29.43-41.2,58.85-41.21,58.85-41.2,58.85,19,13.34-21.89,28.52L1280.2,634.9l43.77-57m-39.65,16.08,8.89,6.22-21.25,29m-102,104,19.31-30.32,6.31,4.41-20,29.88m19.07-74.35,7,4.87,7,4.86,6.94,4.87,7,4.87-13.89-9.74,19.31-30.32,19.31-30.33-38.62,60.65m4.12-41,7.59,5.31,7.6,5.32m-33.62-58.87-18.23-8.5-18.23-8.5L1119,555.88l-38.85-10.41-80.15-7L959.93,542l-40.08,3.5-77.7,20.82-72.92,34-36.06-62.45-18-31.22-18-31.23-36.06-62.45L625,350.48,769.23,600.29M1231.85,363l12.33-33.88,12.33-33.89L1231.85,363l26.77,12.48,13.39,6.24L1285.4,388l30.36-65.12-15.18,32.56L1285.4,388l-26.78-12.49-13.38-6.24L1231.85,363l-28.54-7.65,21.63-68.58M1375,350.48l-36.06,62.46,24.2,16.94,38.64-60.66m-157.6-40.1,14.1,6.57-13,33.55m-24.91,267.6-18.67,30.78M1000,538.46v0M856.56,413.68l8.54,34.9-12,3.21-9.3-34.69-18.59-69.39-28.53,7.64,21.62,68.58,25.5-6.83,12.75-3.42,12.75-3.41,12.75-3.42,12.75-3.41,52.59-4.61L959.93,542l3.13,35.78,3.13,35.78-8.45.75-8.46.73,4.7,35.65,4.69,35.65,6.89-.6,6.89-.61,3.13,35.78,3.13,35.79,3.13,35.79L985,828.24l-6.26-71.57-6.26-71.57-13.78,1.21-6.88.6-5.48-35.58-5.48-35.57-8.45.73L926.12,581l-6.27-35.51-12.52-71-6.26-35.52-6.26-35.5-51,13.66-12.75,3.41-12.75,3.42,21.63,68.58-11.23,3-11.23,3-24.67-67.77L768.15,363l-24.66-67.77,98.66,271.06,49.32,135.54,24.67,67.77,24.66,67.76L842.15,566.29l-12.34-33.88-12.33-33.88,22.46-6-10.81-34.29-10.82-34.29m25.5-6.83L806.62,278.31l18.6,69.4M992.49,827.58l-3.14-71.84,10.65-.93m-41.33-68.5L949.28,615l16.91-1.48L959.93,542m-27.55,74.52L938.64,652l6.26,35.51L951.16,723l6.11-.54,5.47,35.57,5.48,35.59-4.53.39-6.27-35.51L951.16,723M894.81,403.44l25,142,50.09,284.08L963.69,794M954,650.66l-7.67.67-7.67.67m24.42-74.25-9.24.81-9.23.81-4.7-35.65m17.85,70.56-3.92-35.72-3.91-35.71m-65-62.38,11.23-3,11.23-3-22.46,6-11.24,3-11.23,3L881,555.88l-9.29-34.69-9.31-34.7,22.47-6m-56.16,15,11.57,34.09-10.47,2.8M962.74,758.06l-5.32.47m-60.65,20.1-30.36-65.12L805.69,583.29l30.36,65.11,30.36,65.11,15.18,32.56,15.18,32.56L912,811.18l15.17,32.56-30.36-65.11m19.37-9-9.68,4.51-27.52-66.44,12.53-5.84-25.06,11.68-6.26,2.93-6.27,2.92,33.21,63.78L903.69,815l16.6,31.89-33.2-63.78-16.61-31.89-16.6-31.89,12.53-5.85,12.53-5.84M903.69,815l4.13-1.92,15.9,32.22M633.26,476.25l-11.45,8-11.46,8-11.45,8,22.53,28.07,10.81-7.57,10.82-7.57,10.81-7.57,10.81-7.57,10.81-7.57L686.3,483l10.82-7.57-21.63,15.14-21.62,15.14-21.63,15.14-21.89-28.52-21.89-28.52-43.78-57m130.81,83.81,19.32,30.32,19.31,30.33,19.32,30.33,19.32,30.32-8.24,5.77-8.24,5.77-20.6-29.43-20.61-29.42-20.6-29.42-20.6-29.43-41.21-58.85-12.1,8.47-12.1,8.48-24.2,16.94-46.35-55.24,185.42,221,23.18,27.62,23.18,27.63,23.17,27.62L796,756.93l23.18,27.62,23.17,27.62L838.62,816l-3.78,3.77-24.29-26.5-24.29-26.51-9.78,9.77L756.93,796,749,807.37l-7.94,11.32,58.86,41.21-6.13,8.75L790.72,873,821.5,891.7l2.61-3.73,2.61-3.73,29.88,20M695.07,564.52l9.53-6.67,9.52-6.67,19-13.34-9.52,6.67-9.53,6.67,38.64,60.65M686.3,483,705,513.74l-10.16,7.11L684.64,528l-10.17,7.13M676,577.86l-21.9-28.53-21.89-28.52L676,577.86l21.89,28.52L719.8,634.9l-43.77-57m46.25,269.76,31.56,17.31-2.59,5.55L748.66,876l-32.22-15.89,2.92-6.27,2.92-6.26,2.93-6.27,4-5.66,30.77,18.66-3.51,5-31.22-18-31.24-18-31.22-18,9.73-13.91,4.87-6.94,4.87-7-29.43-20.61-29.42-20.6-117.7-82.41L388,571.46l58.85,41.2,58.85,41.21,58.85,41.2,13.34-19,57,43.77-11.53,16.48-23.08,33-8.5,18.23-4.25,9.11-4.25,9.12-8.5,18.23-8.5,18.23-5.2,19.42L555.88,881l-5.2,19.43-5.21,19.42-.87,10-.88,10-.87,10-.88,10-35.78-3.14-.95,10.81,35.85,2.34.88-10,3.5-40.08,20.82-77.7,17-36.46,17-36.46,11.54-16.47,60.65,38.62,30.33,19.33L733.13,830l60.66,38.63,3.06-4.37,3.07-4.38-29.43-20.61-29.43-20.6,4-5.66,4-5.66,4-5.66,4-5.67,9.78-9.78,4.89-4.89,4.88-4.89,4.89-4.88,4.89-4.89,48.58,53,7.55-7.55L796,756.93l-46.35-55.24-46.36-55.25-23.18-27.62L657,591.2l-23.18-27.62L610.62,536l-23.18-27.63-23.18-27.62,12.11-8.47,12.09-8.47,24.2-16.95M830,733.13l-38.64-60.65,13.91-9.73,36.06,62.46L830,733.13l-11.33,7.93,82.41,117.7-41.2-58.84-41.21-58.86,22.66-15.85,72.11,124.9L877.4,787.66l-36-62.45M827.28,827.28l-25.4-25.4-25.4-25.4-25.4-25.4-25.39-25.39-50.81-50.81,101.6,101.6,50.8,50.8-3.77,3.78-3.79,3.78-53-48.58,26.51,24.29,26.5,24.29,7.56-7.56M762,740.19l-24.28-26.5L713.4,687.17l6.55-6.55,23.74,27.07,23.73,27.06L762,740.19m-18.28-32.5-6,6-12,12,6-6,6-6-48.58-53,24.29,26.51M684.64,528l20,29.88M823.51,831.06l-26-24.84,4.33-4.34m-103.63,103L629.67,883.2l-4.39,16.4,69.39,18.59,3.58-13.36,3.58-13.36-67.77-24.66-67.77-24.66L295.23,743.49l135.53,49.32L453.08,745l22.31-47.85,30.28-43.25,15.14-21.63L536,610.62l-30.29,43.25-15.14,21.62-15.14,21.63L350.48,625l62.46,36.06,62.45,36.06,124.9,72.11m.27-313.94,21.25,29,21.25,29M446.82,612.66l-16.94,24.2-60.66-38.64M753,801.71,781,824.24l-3.51,5L749,807.37m2.25,63.11-31.89-16.6,5.85-12.53-62.46-36.06,4.87-6.95,4.86-7,9.74-13.89-58.85-41.21-5.77,8.24-5.77,8.24,30.33,19.31,30.32,19.31L733.13,830l30.33,19.31,30.33,19.32L824.11,888l30.33,19.31M634.9,719.8,692,763.58l-9.73,13.91m-90.43,10,31.9,16.6,31.89,16.61,63.78,33.21-31.89-16.6-31.89-16.61-63.79-33.21M322.85,684.24,453.08,745l65.11,30.36,65.1,30.36,32.56,15.18,32.55,15.18L681,851.23l32.55,15.18,130.23,60.72L811.18,912l-32.55-15.19-32.56-15.18-32.56-15.18L583.29,805.69,453.08,745l-11.16,23.92-11.16,23.92,67.77,24.67,67.76,24.67,135.54,49.32-7.16,26.72,69.39,18.59,69.4,18.59L694.67,918.19M498.53,817.48l9.83-21.08,66.43,27.52m128-13.21-4.42,6.3-4.42,6.3m-70.6-87-58.85-41.21M538.46,1000h0l3.51,40.07,3.5,40.08,5.21,19.42,70.2-15.56,70.21-15.55-3.58-13.36-2.41-27.55L682.69,1000l1.21-13.78.6-6.88.6-6.89,1.21-13.78.6-6.88.6-6.89,3.58-13.36L761.3,947.1l-2.77,10.32-.93,10.64-.47,5.33-.46,5.32-.93,10.64-71.84-3.13L648,984.66l.68-7.67,35.85,2.35,35.85,2.35.53-6.11,35.79,3.13L828.24,985l-35.78-3.13-35.79-3.13-71.57-6.26.61-6.89.6-6.89,1.2-13.77-71-12.52L581,926.12l-35.51-6.27-142-25-71-12.52-71-12.53,284.08,50.09,71,12.53L652,938.64l35.51,6.26,71,12.52L794,963.69l35.51,6.25-71-12.52-.47,5.32-.46,5.32-.93,10.65-.46,5.32-.47,5.32-35.92-1.56-35.92-1.57-.61,6.9-.6,6.88M420.51,1168.94l3.42,12.75,3.42,12.75,3.41,12.75,11.16,23.92L453.08,1255,388,1285.4l-65.12,30.36L453.08,1255l-22.32-47.84-6.83-25.5,34.29-10.82-3.21-12-34.5,10.06L386,1179l3.62,13.51,34.29-10.81,68.58-21.63,6,22.46,67.76-24.67,33.89-12.32,33.88-12.34-4.39-16.39-2.2-8.2-2.19-8.2,34.69-9.29,34.7-9.3,1.79,6.68,1.79,6.68-68.58,21.63-34.29,10.82-34.29,10.81-34.29,10.81,2.81,10.48,34.08-11.58-2.6-9.71L555.88,1119l-34.69,9.29-34.7,9.31-34.7,9.29-34.69,9.3-138.79,37.19,34.7-9.3,34.7-9.3,34.69-9.29,34.7-9.3-13.66-51-4.61-52.59-4.6-52.6,4.6-52.6,4.61-52.59-2.31,26.3-2.3,26.29-2.3,26.31-1.15,13.14L394.23,1000l2.3,26.29,2.3,26.31,1.15,13.14,1.15,13.15,2.31,26.3,6.83,25.5,6.83,25.5,69.39-18.59,69.39-18.6,2.61,9.71,2.6,9.72,68.58-21.63L664,1106l34.29-10.81,3.58,13.36,2.92,6.26,2.92,6.27,5.84,12.53,2.93,6.26,2.92,6.27-63.78,33.21-31.89,16.61-31.9,16.6-4.25-9.11-4.25-9.12-17-36.46-33.88,12.34-33.88,12.33-3-11.23-3-11.23-34.29,10.81m48-214.08-35.79-3.12-71.57-6.27-71.57-6.26,2.58-29.42,71.29,9.39M667.62,798.34,698.39,817M327.26,941.14l-71.56-6.26L398.83,947.4,542,959.93m2.63-30.06,35.57,5.48,35.59,5.48-.75,8.45-35.64-4.69-35.65-4.7M650,961.65l-.67,7.67-35.79-3.13.75-8.45L650,961.65M646.63,1000l.68-7.67,36,.79M574.52,1000l.81-9.24,36,.78-.73,8.46M468.37,976.83l2-23.16-1,11.58-1,11.58-71.84-3.12,35.93,1.56,35.91,1.56m289.69-14.09,35.59,5.48-.4,4.54-35.65-4.7m70.64,47L685.1,1027.55,542,1040.07l-71.57,6.26-35.78,3.13-35.79,3.14-71.57,6.26-71.56,6.26,143.13-12.52L542,1040.07l1.75,20,.88,10,.87,10-71,12.52-71,12.52-142,25m135.14-104-71.84,3.14L322.12,1000m223.35,80.15,142-25.05,71-12.52,35.51-6.27,35.51-6.25-142,25L652,1061.36l-35.51,6.26-71,12.53L510,1086.4l-35.5,6.27-2-23.17-2-23.17,1,11.59,1,11.58,1,11.58,1,11.59m-37.68-18.47,35.65-4.7,71.29-9.39-35.65,4.7-35.64,4.69-71.3,9.39,35.65-4.69-1.08-12.37,35.71-3.91m216.1-2.82,1.79,6.68,1.79,6.68-35.1,7.78L620.88,1084l-2.19-8.19-2.2-8.2,4.39,16.39m-2.19-8.19,35.3-7,2,7.44M761.3,1052.9l-2.77-10.32,1.39,5.16,1.38,5.16,70.21-15.56-35.11,7.78-35.1,7.78M580.17,935.35l-.8,9.24m115.3,137.22,7.16,26.72,11.68,25.06,5.85,12.53-31.89,16.6-31.89,16.61-63.79,33.21-8.5-18.23-8.5-18.23-8.5-18.23,135.54-49.32,135.53-49.33-33.88,12.33-33.88,12.33-33.89,12.33-33.88,12.34-67.77,24.66-2.19-8.2-2.2-8.19-4.39-16.4,69.39-18.59,138.79-37.18-69.4,18.59-69.39,18.59m1.79,6.68-34.49,10-2-7.43M396.88,1219.52l33.88-12.33-135.53,49.32L363,1231.85l33.88-12.33L393.26,1206l34.09-11.57m257.75-222,35.78,3.13m-361.71,242-3.82-14.27-68.58,21.63,34.29-10.81,34.29-10.82,7.65,28.54-3.83-14.27M769.6,1083.86l2.25,4.85,2.26,4.83,4.52,9.69,65.11-30.36L811.18,1088l-32.55,15.19-2.26-4.85-2.26-4.84-33.22,13.76-2.59-5.55-2.59-5.56m5.18,11.11-33.22,13.76,66.44-27.52m2.26,4.84,32.89-14.46,1.92,4.12M388,1428.54l58.85-41.2,58.85-41.21,117.7-82.41,58.85-41.21-4.87-7-4.87-6.94-4.86-7-4.87-7,31.22-18,31.24-18,124.9-72.11-62.45,36.06-62.45,36.05-62.46,36.06,9.73,13.91,9.74,13.89,29.42-20.6,29.42-20.6-4-5.67-4-5.66-4-5.67-4-5.66,15.85,22.66-117.69,82.41-58.85,41.21-58.85,41.2-30.28-43.25L464.23,1279,528,1245.75l9.83,21.08-62.45,36.05-31.23,18-31.22,18-31.23,18-31.23,18,62.46-36.06,62.45-36.06,124.9-72.11,11.54,16.47,11.54,16.48,23.07,33,56.89,56.89,32.95,23.07,16.48,11.54,16.47,11.54,18.23,8.5L754.25,1472l-21.08-9.83-9.52-6.67-9.53-6.67-19-13.34-19-13.34,43.77-57,16.48,11.53,8.24,5.77,8.24,5.77,8.23,5.77,8.24,5.77-36.06,62.45-36,62.45,12,5.58,12,5.58L745,1546.92,714.6,1612l26.78,12.49L768.15,1637l-12.33,33.88-12.33,33.89,49.32-135.53,24.67-67.77,24.67-67.76,24.66-67.77-15.38-7.17-7.69-3.59-7.69-3.58-7.69-3.59-7.69-3.59-15.38-7.17-18,31.22-18,31.24,36.06-62.46,7.69,3.58,7.69,3.59,15.38,7.18,15.38,7.17-27.51,66.44,18.23,8.5L881,1444.12l37.19-138.79-26.72-7.16-12.53-5.84-12.53-5.84-6.26-2.93-6.27-2.92-6.26-2.92-6.27-2.93-22.66-15.85L796,1243.07l-92.71,110.49L657,1408.8,610.62,1464l-46.36,55.25-23.17,27.62-23.18,27.62L610.62,1464l92.71-110.48,185.42-221-23.18,27.63-23.18,27.62-23.17,27.62L796,1243.07l5.67,4,5.66,4,5.66,4,5.66,4,5.67,4,5.66,4,5.67,4,5.66,4,25.06,11.7,6.27,2.91,6.26,2.93,6.27,2.92,6.26,2.92,13.36,3.58,13.36,3.58-18.59,69.39-18.6,69.4-19.43-5.21-19.42-5.2-49.34,135.53L768.15,1637l-13.39-6.24-13.38-6.24L728,1618.28,714.6,1612l15.18-32.55L745,1546.92l-12-5.57-12-5.58-23.92-11.16,18-31.23,18-31.22-19-13.34-9.52-6.67-9.53-6.67,41.21-58.85,82.41-117.69,82.41-117.7-20.6,29.42-20.6,29.42-20.61,29.43-20.6,29.43-20.6,29.42-20.6,29.42-20.61,29.43-20.6,29.42M719.8,1365.1l-16.47-11.54-28.45-28.44-28.44-28.45-5.77-8.23-5.77-8.24-11.53-16.48-23.08-33-62.45,36.06M648.4,1164,681,1148.77l32.55-15.18-130.22,60.72,32.56-15.18L648.4,1164M505.67,1346.13l-15.14-21.62-60.65,38.63-30.33,19.32-30.33,19.32,60.66-38.64,30.33-19.31,30.32-19.32L483,1313.7l-7.57-10.82M634.9,1280.2l-57,43.77,6.67,9.53,6.67,9.53,27.62-23.18,27.62-23.18L756.93,1204l110.49-92.71-221,185.42L536,1389.38l-55.25,46.36-55.24,46.35L536,1389.38,591.2,1343,577.86,1324l28.52-21.89,28.52-21.88m76.74-78.29-4.42-6.31,29.88-20m1.2-73.89,33.55-13M617.54,1600.45l-19.32,30.33,38.64-60.66,38.63-60.65-10.81-7.57-10.81-7.57-21.63-15.14-21.89,28.52-21.89,28.52-21.89,28.53-21.89,28.52,43.78-57,43.78-57,10.82,7.57,10.81,7.57,21.62,15.14-19.32,30.32-19.31,30.33-19.32,30.33,12.75,8.92L649,1578.6l-12.1-8.48-24.2-16.94-24.2-17-24.2-16.94,12.11,8.47,12.09,8.47,12.1,8.48,12.1,8.47,41.21-58.85,20.6-29.43,20.6-29.42-41.2,58.85-20.61,29.42-20.6,29.43L571.46,1612m29.1-67.32,21.25-29,11.45,8m119.5-135.58-38.64,60.65-19.31,30.33L684.64,1472l20-29.88M713.87,1691l13.75-33.22,14.1,6.57,14.1,6.57M429.88,1363.14l16.94,24.2m392.47-157.83-5-3.52,21.24-29,4.38,3.06m35-63.17L873,1165.44l-3.74-2.62,22.54-28.07m-25.43,151.74,30.36-65.12L912,1188.82l15.17-32.56-60.72,130.23m-38,61.52,15.89-32.23-7-3.25-7-3.25,17.33-31.56m-27,66.7,16.61-31.89,16.6-31.89m-76.39,37.14,7,4.87-20,29.88-7.59-5.32m35.93,222-23.92-11.16,27.51-66.44,21.08,9.83m89-275.58-13.76,33.22,5.55,2.59,13-33.55-4.83-2.26-4.84-2.26-4.85-2.26,9.69,4.52-27.52,66.44-13.75,33.21-13.76,33.23,27.51-66.44,13.76-33.22m-49,96.07,14.47-32.89,7,3.25m63.28-129-12.33,33.88-12.33,33.89-12.34,33.88,49.33-135.53-12.33,33.88m-28.87,178.2-16.4-4.39,21.63-68.58m67.62,13.15-27.55-2.41-25,142-25,142-12.52,71-12.53,71,25-142,12.52-71,12.52-71,12.53-71,6.26-35.51,6.26-35.51,6.89.6,6.88.6,6.89.6,6.89.61,27.55,2.41v0l-6.88-.6-6.9-.61-13.77-1.2L959.93,1458l-6.26,71.57-11.59-1-11.58-1-4.7,35.65-4.69,35.65-4.7,35.64-4.69,35.65,29.42,2.58,3.14-35.79,3.12-35.78L959.93,1458l6.26-71.56,3.13-35.79,3.13-35.78,6.26-71.57,6.26-71.57L972.45,1314.9M806.62,1721.69l37.19-138.79,51,13.66m16.91,73.6,14.71,1.29,14.71,1.29,6.26-71.57,3.14-35.79,3.13-35.78-23.17-2-9.39,71.3-9.39,71.29M949.28,1385l16.91,1.48-8.45-.75-8.46-.73-8.45-.75-8.45-.73,16.9,1.48m-28.17,213.88,13.15,1.15,13.14,1.15,26.31,2.3,26.29,2.3,26.29-2.3,26.31-2.3,13.14-1.15,13.15-1.15-9.39-71.3,23.17-2,12.52,71,12.52,71,12.53,71-50.09-284.08-50.09-284.08,25,142,25.05,142,6.25,35.51,6.27,35.5-11.59,1-11.58,1,4.7,35.65,4.69,35.65-26.29,2.3-52.6,4.6-52.6-4.6m210.45-167.46-24.66-67.77-24.66-67.77-24.67-67.77-12.33-33.88-12.33-33.88,98.65,271.07,98.66,271.06-49.32-135.53-49.34-135.53,18.23-8.5,18.23-8.5L1255,1546.92l15.19,32.56L1285.4,1612l15.18,32.56,15.18,32.56L1255,1546.92l-30.36-65.11-30.36-65.1-36.46,17-77.7,20.82-10,.87-10,.88-10,.87-10,.88-40.07,3.51v0l20-1.75,20-1.76,40.08-3.5M925.8,1563.22l12.37,1.08L934.26,1600l-3.92,35.71-3.91,35.72m62.92-427.19-1.56,35.92-1.57,35.92,3.13-71.84,5.33.46,5.32.47-10.65-.93m10.65,37-6.1-.53.78-36m57.92,356.45,6.26,71.57,6.26,71.56-12.52-143.13-3.14-35.79-3.13-35.78-6.26-71.57,3.14,35.78,3.12,35.79,6.27,71.57m-323.93,96.7,13.05-33.56m356,77.15-9.4-71.3,29.43-2.58m107-185.77,21.08-9.82,33.21,63.78,16.6,31.89,16.61,31.89,16.61,31.89,16.6,31.89-33.21-63.78-13.39,6.24-15.89-32.22,12.67-5.91m-88.37,1.58,47.84-22.32,12-5.57,12-5.58,33.21,63.78m-99.43-231.08-8.4,3.93L1187,1340.83l-17.31-31.55-7,3.25,16.61,31.89,33.21,63.79,9.11-4.25,9.12-4.25-18-31.24-18-31.22-18-31.22-18-31.24-6.27,2.93-6.26,2.92-12.53,5.85-6.27,2.91-6.26,2.93-13.76-33.22-13.76-33.22,4.84-2.26,14.47,32.89-5.55,2.59m-4.07-37.74-30.36-65.11,15.17,32.56,15.19,32.55,15.18,32.56,15.18,32.56L1164,1351.6l15.38-7.18,16.61,31.89,16.6,31.9,18.23-8.5-36.06-62.46-7.69,3.58-7.69,3.59-7.69,3.59-7.69,3.59L1148.77,1319l-15.18-32.55-30.36-65.12m-9.69,4.52-9.68,4.51,4.85-2.25,4.83-2.26,27.52,66.44,12.53-5.84,6.26-2.93,6.27-2.92,12.53-5.85,36.06,62.46m19-104-9.78,9.78-11.33,7.93-11.32,7.94-41.21-58.86-41.2-58.84,82.41,117.7,22.65-15.87,19.56-19.55-101.6-101.6,50.8,50.8,50.8,50.8-9.78,9.77,48.57,53-12,12-6.94,4.87-6.95,4.87-13.91,9.73,41.21,58.85,20.6,29.43,20.61,29.42,41.2,58.85,41.21,58.85-24.2,16.94-38.63-60.65,21.62-15.14,21.63-15.14-21.89-28.52-21.9-28.53-21.89-28.52-21.88-28.52-21.89-28.53-21.89-28.52-7,4.87-7,4.86,20.61,29.43,20.6,29.42,41.21,58.85,20.6,29.42,20.6,29.43,20.61,29.42,20.6,29.43,12.1-8.47,12.1-8.48,43.78,57-21.89-28.52-21.89-28.53-24.2,17M1280.2,1365.1l-16.48,11.53-8.24,5.77-8.24,5.77,19.32,30.32,19.32,30.33-9.53,6.67-9.52,6.67,18,31.22,18,31.23,10.82-7.57,10.81-7.57,10.81-7.57,10.81-7.57,10.81-7.57,10.82-7.57-43.79-57-43.77-57-8.24,5.77-8.24,5.76-16.48,11.54,38.64,60.65-19.05,13.34,36.05,62.45,21.63-15.14m-88.09-201.42,13.89-9.74,23.18,27.63,23.18,27.62,23.18,27.62L1343,1408.8l23.18,27.62,23.17,27.62,23.18,27.63,23.18,27.62,23.17,27.62,23.18,27.62-185.42-221-46.36-55.25L1204,1243.07M944.28,1637l-13.94-1.22-13.93-1.22M1062.62,1161l13,33.56-4.13,1.92m212.79,209.54-8.88,6.22-20-29.88m157.08,109.27-11.46,8-22.53-28.07,10.81-7.58M1279,1535.77,1255,1546.92m375.75-145.14-30.33-19.32-8.92,12.74-8.93,12.74-29.42-20.6-58.85-41.21,15.14-21.62-60.65-38.63-13.34,19-58.85-41.21-117.69-82.41-58.86-41.21-58.84-41.2,117.7,82.41,58.84,41.2,58.85,41.21,29.43,20.6,29.42,20.61,6.67-9.53,6.67-9.52,30.33,19.31,30.32,19.32-7.57,10.81-7.57,10.81-7.57,10.81-7.57,10.82-28.52-21.89,7.11-10.17,29,21.24,29,21.25,8-11.45,29.43,20.6,16.94-24.2,8.48-12.1,8.46-12.1,12.49-26.77L1535.77,1279l11.15-23.93L1612,1285.4l65.12,30.36L1546.92,1255l-22.31,47.85,62.45,36.06,62.46,36.06-31.23-18-31.23-18-16.94,24.2-8.47,12.1-8.47,12.1m68.22,27.82-29.87-20-29.88-20m-146.18-41.74-6.67,9.53-55.24-46.36-14.22,14.22-14.22,14.23-14.23,14.22-14.22,14.22,56.89-56.89,221,185.42-27.62-23.18-27.62-23.17-27.62-23.18L1464,1389.38l-27.62-23.17L1408.8,1343l13.34-19.06-28.52-21.89,6.22-8.87,29,21.24-6.67,9.52-6.67,9.53,28.07,22.53-7.12,10.18m27.62,23.17,7.58-10.81,28.07,22.53-8,11.46m-98.05-110.48-28.52-21.88,11.53-16.48,23.08-33,62.45,36.06,62.45,36.05,11.16-23.92m-113.63,45-57-43.77,5.77-8.24,5.76-8.24,11.54-16.48,11.54-16.47,124.9,72.11m68.67,152.44-28.52-21.89,8.92-12.74,29,21.24m-304.34-191.62L1243.07,1204l15.87-22.65,15.85-22.66-62.45-36.05-62.45-36.06,124.9,72.11-7.92,11.33-7.93,11.33-7.94,11.32,57,43.79-9.74,13.89m-36,36,48.58,53M1251,1192.63l-7.93,11.33-110.49-92.71,55.25,46.36,55.24,46.35m190.64-46.11,5.2-19.42,5.21-19.43,5.2-19.43-70.2-15.56-70.21-15.55-70.21-15.56m351,77.79-70.2-15.56,6-22.46m-267.23,243.9-7.6,5.32-7.59,5.32m28.84,23.66-21.25-29-21.25-29m3.71-239.38,68.58,21.63L1336,1106l34.29,10.82,2.2-8.2,2.19-8.2,4.4-16.39,4.39-16.39m-85.34,40.91,1.79-6.68,1.79-6.68,68.58,21.63,4.39-16.4,2.2-8.19,2.2-8.2,35.1,7.78,35.1,7.78M1336,1106l-2,7.44L1300,1101.85m74.76-1.45-69.39-18.59m189,264.32,29.42,20.61m-322.51-312.82,1.18-4.4-34.9-8.54m72.56,6.76-35.3-7,1.18-4.41,35.51,6.27-71-12.52,35.51,6.25m103,32.15,3.58-13.36m143.79,5-71.29-9.39,1.48-16.91M1245.19,1000l-.47,5.32-.46,5.33-.47,5.32-.46,5.32,71.57,6.26m-34.72-15.34,35.92,1.57-71.84-3.13-71.84-3.14,35.92,1.57,35.92,1.57,35.92,1.56m-71-12.21-.39,4.54-36-.78"/><circle class="cls-2" cx="1000" cy="1000" r="750"/><circle class="cls-3" cx="1000" cy="1000" r="168.75"/><circle class="cls-3" cx="1000" cy="1000" r="461.54"/></svg>