<svg id="Circular_element" data-name="Circular element" xmlns="http://www.w3.org/2000/svg" viewBox="0 0 2000 2000"><defs><style>.cls-1{opacity:0.5;}.cls-2,.cls-3{fill:none;stroke-linecap:square;}.cls-2{stroke:#dd1920;stroke-miterlimit:10;stroke-width:1.25px;}.cls-3{stroke:#fff;stroke-linejoin:round;stroke-width:3px;}</style></defs><g class="cls-1"><line class="cls-2" x1="1000" y1="849.88" x2="1000" y2="750.07"/><path class="cls-2" d="M1150.12,1000c0-82.78-67.34-150.12-150.12-150.12"/><path class="cls-2" d="M1249.93,1000c0,137.81-112.12,249.93-249.93,249.93"/><line class="cls-2" x1="1000" y1="1150.12" x2="1000" y2="1249.93"/><line class="cls-2" x1="750.07" y1="1000" x2="849.88" y2="1000"/><path class="cls-2" d="M1000,1249.93c-137.81,0-249.93-112.12-249.93-249.93"/><path class="cls-2" d="M1000,849.88c-82.78,0-150.12,67.34-150.12,150.12"/><path class="cls-2" d="M750.07,1000c0-137.81,112.12-249.93,249.93-249.93"/><line class="cls-2" x1="849.88" y1="1000" x2="750.07" y2="1000"/><path class="cls-2" d="M1000,749.86a248.47,248.47,0,0,0-176.87,73.27"/><line class="cls-2" x1="1000" y1="650.05" x2="1000" y2="749.86"/><line class="cls-2" x1="823.13" y1="823.13" x2="752.55" y2="752.55"/><path class="cls-2" d="M823.13,823.13A248.47,248.47,0,0,0,749.86,1000"/><line class="cls-2" x1="752.55" y1="752.55" x2="823.13" y2="823.13"/><line class="cls-2" x1="1000" y1="1250.14" x2="1000" y2="1349.95"/><path class="cls-2" d="M1000,1350a347.64,347.64,0,0,1-247.45-102.5"/><line class="cls-2" x1="1176.87" y1="1176.87" x2="1247.45" y2="1247.45"/><path class="cls-2" d="M1176.87,1176.87A248.47,248.47,0,0,0,1250.14,1000"/><path class="cls-2" d="M1250.14,1000a248.47,248.47,0,0,0-73.27-176.87"/><path class="cls-2" d="M1000,650.05a347.64,347.64,0,0,1,247.45,102.5"/><line class="cls-2" x1="1000" y1="749.86" x2="1000" y2="650.05"/><path class="cls-2" d="M1176.87,823.13A248.47,248.47,0,0,0,1000,749.86"/><line class="cls-2" x1="863.72" y1="677.35" x2="824.84" y2="585.42"/><line class="cls-2" x1="824.84" y1="585.42" x2="863.72" y2="677.35"/><path class="cls-2" d="M681.83,681.83a448.43,448.43,0,0,1,143-96.41"/><line class="cls-2" x1="752.41" y1="752.41" x2="681.83" y2="681.83"/><line class="cls-2" x1="681.83" y1="681.83" x2="752.41" y2="752.41"/><path class="cls-2" d="M677.35,863.72A347.85,347.85,0,0,0,649.85,1000"/><path class="cls-2" d="M550,1000a447.08,447.08,0,0,1,35.38-175.16"/><path class="cls-2" d="M649.85,1000a347.82,347.82,0,0,0,27.5,136.28"/><line class="cls-2" x1="550.04" y1="1000" x2="649.85" y2="1000"/><path class="cls-2" d="M585.42,1175.16A447.08,447.08,0,0,1,550,1000"/><path class="cls-2" d="M677.35,1136.28a348.82,348.82,0,0,0,75.06,111.31"/><line class="cls-2" x1="585.42" y1="1175.16" x2="677.35" y2="1136.28"/><path class="cls-2" d="M681.83,1318.17a448.37,448.37,0,0,1-96.41-143"/><line class="cls-2" x1="681.83" y1="1318.17" x2="752.41" y2="1247.59"/><path class="cls-2" d="M824.84,1414.58a448.43,448.43,0,0,1-143-96.41"/><line class="cls-2" x1="1000" y1="1350.15" x2="1000" y2="1449.96"/><line class="cls-2" x1="824.84" y1="1414.58" x2="863.72" y2="1322.65"/><path class="cls-2" d="M1000,1450a447.12,447.12,0,0,1-175.16-35.38"/><path class="cls-2" d="M1175.16,1414.58A447.12,447.12,0,0,1,1000,1450"/><path class="cls-2" d="M1000,1350.15a347.85,347.85,0,0,0,136.28-27.5"/><line class="cls-2" x1="1350.15" y1="1000" x2="1449.96" y2="1000"/><path class="cls-2" d="M1322.65,1136.28a347.82,347.82,0,0,0,27.5-136.28"/><line class="cls-2" x1="1414.58" y1="1175.16" x2="1322.65" y2="1136.28"/><path class="cls-2" d="M1350.15,1000a347.85,347.85,0,0,0-27.5-136.28"/><line class="cls-2" x1="1414.58" y1="824.84" x2="1322.65" y2="863.72"/><path class="cls-2" d="M1175.16,585.42a448.43,448.43,0,0,1,143,96.41"/><line class="cls-2" x1="1136.28" y1="677.35" x2="1175.16" y2="585.42"/><path class="cls-2" d="M1247.59,752.41a348.82,348.82,0,0,0-111.31-75.06"/><path class="cls-2" d="M1136.28,677.35A347.85,347.85,0,0,0,1000,649.85"/><line class="cls-2" x1="1214.09" y1="493.27" x2="1175.21" y2="585.19"/><path class="cls-2" d="M1110.78,461.2a547.25,547.25,0,0,1,103.31,32.07"/><line class="cls-2" x1="1090.78" y1="558.98" x2="1110.78" y2="461.2"/><path class="cls-2" d="M1175.21,585.19A447.75,447.75,0,0,0,1090.78,559"/><path class="cls-2" d="M1214.09,493.27A549.68,549.68,0,0,1,1307.53,544"/><line class="cls-2" x1="1175.21" y1="585.19" x2="1214.09" y2="493.27"/><path class="cls-2" d="M1251.66,626.69a450.47,450.47,0,0,0-76.45-41.5"/><line class="cls-2" x1="1388.89" y1="611.11" x2="1318.31" y2="681.69"/><line class="cls-2" x1="1456.02" y1="692.47" x2="1373.31" y2="748.35"/><line class="cls-2" x1="1506.73" y1="785.91" x2="1414.81" y2="824.79"/><path class="cls-2" d="M1506.73,785.91a547.38,547.38,0,0,1,32.07,103.3"/><path class="cls-2" d="M1441,909.22a448.26,448.26,0,0,0-26.21-84.43"/><line class="cls-2" x1="1549.98" y1="1000" x2="1450.16" y2="1000"/><path class="cls-2" d="M1550,1000a553.45,553.45,0,0,1-11.18,110.79"/><line class="cls-2" x1="1450.16" y1="1000" x2="1549.98" y2="1000"/><path class="cls-2" d="M1414.81,1175.21a448.26,448.26,0,0,0,26.21-84.43"/><path class="cls-2" d="M1506.73,1214.09a549.68,549.68,0,0,1-50.71,93.44"/><path class="cls-2" d="M1456,1307.53a553.9,553.9,0,0,1-67.13,81.36"/><line class="cls-2" x1="1318.31" y1="1318.31" x2="1388.89" y2="1388.89"/><line class="cls-2" x1="1307.53" y1="1456.02" x2="1251.66" y2="1373.31"/><path class="cls-2" d="M1175.21,1414.81a450.47,450.47,0,0,0,76.45-41.5"/><line class="cls-2" x1="1214.09" y1="1506.73" x2="1175.21" y2="1414.81"/><path class="cls-2" d="M1214.09,1506.73a547.25,547.25,0,0,1-103.31,32.07"/><path class="cls-2" d="M1110.78,1538.8A553.93,553.93,0,0,1,1000,1550"/><line class="cls-2" x1="1090.78" y1="1441.02" x2="1110.78" y2="1538.8"/><path class="cls-2" d="M1000,1450.16a453.69,453.69,0,0,0,90.78-9.14"/><line class="cls-2" x1="1000" y1="1450.16" x2="1000" y2="1549.97"/><path class="cls-2" d="M909.22,1441a453.69,453.69,0,0,0,90.78,9.14"/><line class="cls-2" x1="785.91" y1="1506.73" x2="824.79" y2="1414.81"/><line class="cls-2" x1="824.79" y1="1414.81" x2="785.91" y2="1506.73"/><line class="cls-2" x1="692.47" y1="1456.02" x2="748.34" y2="1373.31"/><path class="cls-2" d="M785.91,1506.73A549.68,549.68,0,0,1,692.47,1456"/><line class="cls-2" x1="748.34" y1="1373.31" x2="692.47" y2="1456.02"/><path class="cls-2" d="M692.47,1456a553.9,553.9,0,0,1-81.36-67.13"/><line class="cls-2" x1="681.69" y1="1318.31" x2="611.11" y2="1388.89"/><path class="cls-2" d="M626.69,1251.65a452.87,452.87,0,0,0,55,66.66"/><path class="cls-2" d="M611.11,1388.89A553.9,553.9,0,0,1,544,1307.53"/><line class="cls-2" x1="493.27" y1="1214.09" x2="585.19" y2="1175.21"/><line class="cls-2" x1="461.2" y1="1110.79" x2="558.98" y2="1090.78"/><path class="cls-2" d="M493.27,1214.09a547.38,547.38,0,0,1-32.07-103.3"/><line class="cls-2" x1="558.98" y1="1090.78" x2="461.2" y2="1110.79"/><path class="cls-2" d="M549.84,1000a453.84,453.84,0,0,0,9.14,90.78"/><path class="cls-2" d="M559,909.22a453.84,453.84,0,0,0-9.14,90.78"/><path class="cls-2" d="M450,1000A553.44,553.44,0,0,1,461.2,889.21"/><path class="cls-2" d="M461.2,889.21a547.38,547.38,0,0,1,32.07-103.3"/><line class="cls-2" x1="543.98" y1="692.47" x2="626.69" y2="748.34"/><path class="cls-2" d="M493.27,785.91A549.68,549.68,0,0,1,544,692.47"/><line class="cls-2" x1="585.19" y1="824.79" x2="493.27" y2="785.91"/><path class="cls-2" d="M544,692.47a553.9,553.9,0,0,1,67.13-81.36"/><path class="cls-2" d="M611.11,611.11A553.9,553.9,0,0,1,692.47,544"/><path class="cls-2" d="M692.47,544a549.68,549.68,0,0,1,93.44-50.71"/><line class="cls-2" x1="748.34" y1="626.69" x2="692.47" y2="543.98"/><path class="cls-2" d="M909.22,559a447.75,447.75,0,0,0-84.43,26.21"/><line class="cls-2" x1="889.22" y1="461.2" x2="909.22" y2="558.98"/><line class="cls-2" x1="909.22" y1="558.98" x2="889.22" y2="461.2"/><path class="cls-2" d="M1000,350a658.41,658.41,0,0,1,66.4,3.36"/><path class="cls-2" d="M1056.31,452.67a558.44,558.44,0,0,0-56.31-2.85"/><line class="cls-2" x1="1056.31" y1="452.67" x2="1066.4" y2="353.37"/><path class="cls-2" d="M1130.94,363.22c21,4.28,41.92,9.68,62.33,16"/><line class="cls-2" x1="1110.93" y1="461" x2="1130.94" y2="363.22"/><path class="cls-2" d="M1163.63,474.55c-17.26-5.37-35-9.92-52.7-13.55"/><line class="cls-2" x1="1253.02" y1="401.11" x2="1214.14" y2="493.04"/><line class="cls-2" x1="1309.86" y1="428.49" x2="1262.21" y2="516.2"/><path class="cls-2" d="M1253,401.11c19.28,8.16,38.4,17.37,56.84,27.38"/><line class="cls-2" x1="1363.45" y1="461.05" x2="1307.58" y2="543.76"/><path class="cls-2" d="M1309.86,428.49c18.29,9.94,36.32,20.89,53.59,32.56"/><line class="cls-2" x1="1262.21" y1="516.2" x2="1309.86" y2="428.49"/><line class="cls-2" x1="1413.47" y1="498.46" x2="1349.94" y2="575.44"/><path class="cls-2" d="M1459.61,540.39c14.64,14.64,28.75,30.16,41.93,46.14"/><path class="cls-2" d="M1424.56,650.06c-11.17-13.54-23.12-26.69-35.53-39.09"/><line class="cls-2" x1="1538.95" y1="636.55" x2="1456.25" y2="692.43"/><path class="cls-2" d="M1539,636.55c11.67,17.27,22.62,35.3,32.56,53.6"/><path class="cls-2" d="M1571.51,690.14c10,18.43,19.22,37.55,27.38,56.84"/><line class="cls-2" x1="1620.76" y1="806.72" x2="1525.45" y2="836.39"/><path class="cls-2" d="M1525.45,836.39c-5.32-17.1-11.54-34.1-18.49-50.52"/><line class="cls-2" x1="1636.78" y1="869.05" x2="1539" y2="889.08"/><path class="cls-2" d="M1636.79,869.06a652.41,652.41,0,0,1,9.84,64.55"/><path class="cls-2" d="M1550.18,1000a558.15,558.15,0,0,0-2.85-56.31"/><line class="cls-2" x1="1649.99" y1="1000" x2="1550.18" y2="1000"/><line class="cls-2" x1="1550.18" y1="1000" x2="1649.99" y2="1000"/><line class="cls-2" x1="1547.33" y1="1056.32" x2="1646.63" y2="1066.39"/><line class="cls-2" x1="1636.79" y1="1130.94" x2="1539" y2="1110.93"/><path class="cls-2" d="M1636.78,1131c-4.29,21-9.68,41.94-16,62.32"/><path class="cls-2" d="M1620.76,1193.28c-6.3,20.21-13.66,40.31-21.88,59.75"/><path class="cls-2" d="M1507,1214.13c7-16.42,13.17-33.42,18.49-50.51"/><line class="cls-2" x1="1598.88" y1="1253.03" x2="1506.96" y2="1214.13"/><line class="cls-2" x1="1506.96" y1="1214.14" x2="1598.89" y2="1253.02"/><path class="cls-2" d="M1483.8,1262.21c8.47-15.59,16.26-31.76,23.16-48.07"/><line class="cls-2" x1="1456.25" y1="1307.57" x2="1538.95" y2="1363.45"/><line class="cls-2" x1="1501.54" y1="1413.47" x2="1424.56" y2="1349.94"/><line class="cls-2" x1="1413.47" y1="1501.54" x2="1349.94" y2="1424.56"/><path class="cls-2" d="M1309.86,1571.51c-18.44,10-37.56,19.22-56.84,27.38"/><line class="cls-2" x1="1262.21" y1="1483.8" x2="1309.86" y2="1571.51"/><line class="cls-2" x1="1253.02" y1="1598.89" x2="1214.14" y2="1506.96"/><line class="cls-2" x1="1214.14" y1="1506.96" x2="1253.02" y2="1598.89"/><path class="cls-2" d="M1163.63,1525.45c17.06-5.31,34-11.53,50.51-18.49"/><path class="cls-2" d="M1130.94,1636.78a650.9,650.9,0,0,1-64.54,9.85"/><line class="cls-2" x1="1066.4" y1="1646.63" x2="1056.31" y2="1547.33"/><path class="cls-2" d="M1066.4,1646.63A658.41,658.41,0,0,1,1000,1650"/><line class="cls-2" x1="1000" y1="1550.18" x2="1000" y2="1649.99"/><path class="cls-2" d="M1000,1650a658.41,658.41,0,0,1-66.4-3.36"/><line class="cls-2" x1="943.69" y1="1547.33" x2="933.6" y2="1646.63"/><path class="cls-2" d="M889.07,1539a550.25,550.25,0,0,0,54.62,8.33"/><path class="cls-2" d="M933.6,1646.63a650.9,650.9,0,0,1-64.54-9.85"/><path class="cls-2" d="M836.37,1525.45c17.26,5.37,35,9.92,52.7,13.55"/><line class="cls-2" x1="836.37" y1="1525.45" x2="806.73" y2="1620.76"/><path class="cls-2" d="M785.86,1507c16.46,7,33.45,13.18,50.51,18.49"/><line class="cls-2" x1="746.98" y1="1598.89" x2="785.86" y2="1506.96"/><line class="cls-2" x1="785.86" y1="1506.96" x2="746.98" y2="1598.89"/><line class="cls-2" x1="690.14" y1="1571.51" x2="737.79" y2="1483.8"/><line class="cls-2" x1="737.79" y1="1483.8" x2="690.14" y2="1571.51"/><line class="cls-2" x1="692.43" y1="1456.25" x2="636.55" y2="1538.95"/><path class="cls-2" d="M611,1389c12.41,12.41,25.56,24.37,39.09,35.53"/><line class="cls-2" x1="540.39" y1="1459.61" x2="610.97" y2="1389.03"/><line class="cls-2" x1="610.97" y1="1389.03" x2="540.39" y2="1459.61"/><line class="cls-2" x1="498.46" y1="1413.47" x2="575.44" y2="1349.94"/><line class="cls-2" x1="461.05" y1="1363.45" x2="543.75" y2="1307.57"/><line class="cls-2" x1="543.75" y1="1307.57" x2="461.05" y2="1363.45"/><line class="cls-2" x1="428.49" y1="1309.86" x2="516.19" y2="1262.21"/><path class="cls-2" d="M428.49,1309.85c-10-18.42-19.22-37.54-27.38-56.83"/><path class="cls-2" d="M401.11,1253c-8.24-19.49-15.6-39.59-21.87-59.75"/><path class="cls-2" d="M379.24,1193.27c-6.35-20.43-11.74-41.39-16-62.33"/><line class="cls-2" x1="353.37" y1="1066.4" x2="452.67" y2="1056.31"/><path class="cls-2" d="M363.22,1131a650.2,650.2,0,0,1-9.85-64.55"/><path class="cls-2" d="M452.67,943.69a558.29,558.29,0,0,0-2.85,56.31"/><path class="cls-2" d="M350,1000a658.41,658.41,0,0,1,3.36-66.4"/><line class="cls-2" x1="449.82" y1="1000" x2="350.01" y2="1000"/><line class="cls-2" x1="379.24" y1="806.73" x2="474.55" y2="836.37"/><line class="cls-2" x1="461" y1="889.07" x2="363.22" y2="869.06"/><path class="cls-2" d="M493,785.86c-7,16.48-13.19,33.47-18.49,50.51"/><line class="cls-2" x1="474.55" y1="836.37" x2="379.24" y2="806.73"/><path class="cls-2" d="M516.2,737.79c-8.47,15.58-16.26,31.76-23.16,48.07"/><line class="cls-2" x1="428.49" y1="690.15" x2="516.2" y2="737.79"/><path class="cls-2" d="M401.11,747c8.16-19.29,17.37-38.41,27.38-56.83"/><path class="cls-2" d="M543.75,692.43c-9.87,14.61-19.14,29.87-27.56,45.36"/><line class="cls-2" x1="461.05" y1="636.55" x2="543.75" y2="692.43"/><line class="cls-2" x1="516.19" y1="737.79" x2="428.49" y2="690.14"/><line class="cls-2" x1="498.46" y1="586.53" x2="575.44" y2="650.06"/><path class="cls-2" d="M498.46,586.53c13.18-16,27.29-31.5,41.93-46.14"/><path class="cls-2" d="M692.43,543.75c-14.56,9.84-28.81,20.5-42.37,31.69"/><path class="cls-2" d="M586.53,498.46c16-13.21,32.84-25.8,50-37.41"/><path class="cls-2" d="M737.79,516.2c-15.48,8.41-30.75,17.68-45.37,27.56"/><line class="cls-2" x1="690.14" y1="428.49" x2="737.79" y2="516.2"/><path class="cls-2" d="M636.55,461.05c17.27-11.67,35.3-22.62,53.59-32.56"/><line class="cls-2" x1="692.42" y1="543.76" x2="636.55" y2="461.05"/><path class="cls-2" d="M785.86,493c-16.31,6.9-32.48,14.69-48.07,23.16"/><path class="cls-2" d="M690.14,428.49c18.44-10,37.56-19.22,56.84-27.38"/><line class="cls-2" x1="806.73" y1="379.24" x2="836.37" y2="474.55"/><line class="cls-2" x1="785.86" y1="493.04" x2="746.98" y2="401.11"/><line class="cls-2" x1="869.06" y1="363.22" x2="889.07" y2="461"/><path class="cls-2" d="M1000,449.82a558.44,558.44,0,0,0-56.31,2.85"/><line class="cls-2" x1="1000" y1="350.01" x2="1000" y2="449.82"/><line class="cls-2" x1="1038.55" y1="250.97" x2="1033.5" y2="350.66"/><path class="cls-2" d="M1033.5,350.66c-11.08-.56-22.36-.85-33.5-.85"/><line class="cls-2" x1="1033.5" y1="350.66" x2="1038.55" y2="250.97"/><path class="cls-2" d="M1114.15,258.64c12.32,1.88,24.75,4.1,36.95,6.6"/><line class="cls-2" x1="1187.4" y1="273.61" x2="1162.53" y2="370.28"/><path class="cls-2" d="M1151.1,265.24c12.11,2.47,24.33,5.29,36.3,8.37"/><path class="cls-2" d="M1187.4,273.61c11.89,3.06,23.87,6.46,35.61,10.12"/><path class="cls-2" d="M1193.37,379c-10.17-3.16-20.55-6.1-30.84-8.75"/><line class="cls-2" x1="1257.87" y1="295.52" x2="1223.56" y2="389.25"/><line class="cls-2" x1="1193.36" y1="379.03" x2="1223.01" y2="283.73"/><line class="cls-2" x1="1223.56" y1="389.25" x2="1257.87" y2="295.52"/><line class="cls-2" x1="1253.07" y1="400.89" x2="1291.95" y2="308.96"/><path class="cls-2" d="M1281.86,413.9c-9.46-4.56-19.14-8.94-28.79-13"/><line class="cls-2" x1="1388.94" y1="358.61" x2="1337.11" y2="443.91"/><path class="cls-2" d="M1357.53,340.55c10.56,5.74,21.13,11.81,31.41,18.06"/><line class="cls-2" x1="1309.89" y1="428.26" x2="1357.53" y2="340.55"/><path class="cls-2" d="M1337.11,443.91c-8.91-5.42-18.07-10.68-27.22-15.65"/><line class="cls-2" x1="1419.37" y1="378.12" x2="1363.49" y2="460.82"/><path class="cls-2" d="M1363.49,460.82c-8.63-5.83-17.5-11.52-26.38-16.91"/><path class="cls-2" d="M1419.36,378.11c9.92,6.7,19.81,13.74,29.41,20.91"/><line class="cls-2" x1="1363.5" y1="460.83" x2="1419.36" y2="378.11"/><path class="cls-2" d="M1448.77,399c9.57,7.17,19.11,14.66,28.32,22.26"/><line class="cls-2" x1="1413.56" y1="498.26" x2="1477.09" y2="421.28"/><path class="cls-2" d="M1437.16,518.71c-7.67-7-15.61-13.85-23.6-20.45"/><path class="cls-2" d="M1504.29,444.84c8.83,8,17.59,16.38,26,24.83"/><line class="cls-2" x1="1437.16" y1="518.71" x2="1504.29" y2="444.84"/><line class="cls-2" x1="1555.16" y1="495.71" x2="1481.29" y2="562.83"/><line class="cls-2" x1="1578.72" y1="522.91" x2="1501.74" y2="586.44"/><line class="cls-2" x1="1481.29" y1="562.83" x2="1555.16" y2="495.71"/><line class="cls-2" x1="1600.97" y1="551.23" x2="1521.05" y2="611.02"/><path class="cls-2" d="M1578.72,522.91c7.6,9.21,15.09,18.74,22.25,28.32"/><path class="cls-2" d="M1539.17,636.5c-5.8-8.59-11.89-17.16-18.12-25.48"/><line class="cls-2" x1="1539.18" y1="636.51" x2="1621.88" y2="580.63"/><path class="cls-2" d="M1556.08,662.88c-5.37-8.85-11.06-17.72-16.9-26.37"/><path class="cls-2" d="M1641.39,611.06c6.25,10.29,12.33,20.86,18.06,31.42"/><line class="cls-2" x1="1691.05" y1="708.06" x2="1599.11" y2="746.92"/><line class="cls-2" x1="1586.1" y1="718.14" x2="1676.02" y2="674.82"/><line class="cls-2" x1="1599.12" y1="746.94" x2="1691.04" y2="708.04"/><line class="cls-2" x1="1716.28" y1="776.99" x2="1620.97" y2="806.63"/><line class="cls-2" x1="1610.75" y1="776.44" x2="1704.47" y2="742.12"/><path class="cls-2" d="M1621,806.63c-3.14-10.08-6.58-20.24-10.22-30.19"/><line class="cls-2" x1="1620.97" y1="806.64" x2="1716.28" y2="776.99"/><line class="cls-2" x1="1629.73" y1="837.47" x2="1726.39" y2="812.6"/><path class="cls-2" d="M1734.76,848.9c2.49,12.11,4.7,24.54,6.6,36.93"/><path class="cls-2" d="M1642.7,900.93c-1.65-10.75-3.57-21.52-5.72-32"/><line class="cls-2" x1="1746.13" y1="923.37" x2="1646.83" y2="933.47"/><line class="cls-2" x1="1749.03" y1="961.45" x2="1649.35" y2="966.5"/><path class="cls-2" d="M1749,961.45c.64,12.74,1,25.71,1,38.55"/><line class="cls-2" x1="1649.35" y1="966.5" x2="1749.03" y2="961.45"/><line class="cls-2" x1="1750" y1="1000" x2="1650.19" y2="1000"/><line class="cls-2" x1="1749.03" y1="1038.55" x2="1649.35" y2="1033.5"/><line class="cls-2" x1="1746.13" y1="1076.61" x2="1646.83" y2="1066.55"/><path class="cls-2" d="M1746.13,1076.63c-1.27,12.49-2.87,25.11-4.77,37.52"/><path class="cls-2" d="M1741.36,1114.17c-1.9,12.39-4.11,24.82-6.6,36.93"/><path class="cls-2" d="M1637,1131.08c2.15-10.49,4.07-21.26,5.72-32"/><line class="cls-2" x1="1726.39" y1="1187.4" x2="1629.73" y2="1162.53"/><path class="cls-2" d="M1716.28,1223c-3.63,11.65-7.6,23.38-11.81,34.87"/><path class="cls-2" d="M1610.75,1223.56c3.64-10,7.08-20.11,10.22-30.19"/><path class="cls-2" d="M1704.47,1257.88c-4.18,11.43-8.7,22.89-13.43,34.08"/><line class="cls-2" x1="1691.04" y1="1291.96" x2="1599.12" y2="1253.06"/><path class="cls-2" d="M1691.05,1291.94c-4.69,11.08-9.75,22.27-15,33.24"/><path class="cls-2" d="M1676,1325.18c-5.24,10.88-10.82,21.77-16.58,32.36"/><line class="cls-2" x1="1586.1" y1="1281.86" x2="1676.02" y2="1325.18"/><line class="cls-2" x1="1659.44" y1="1357.54" x2="1571.75" y2="1309.88"/><path class="cls-2" d="M1659.45,1357.52c-5.73,10.56-11.81,21.13-18.06,31.42"/><line class="cls-2" x1="1571.74" y1="1309.89" x2="1659.45" y2="1357.52"/><path class="cls-2" d="M1556.09,1337.11c5.42-8.92,10.69-18.08,15.65-27.22"/><line class="cls-2" x1="1621.88" y1="1419.37" x2="1539.18" y2="1363.49"/><path class="cls-2" d="M1621.89,1419.36c-6.7,9.91-13.73,19.81-20.92,29.41"/><path class="cls-2" d="M1501.73,1413.56c6.6-8,13.1-16.26,19.32-24.57"/><line class="cls-2" x1="1501.74" y1="1413.56" x2="1578.72" y2="1477.09"/><path class="cls-2" d="M1481.29,1437.17c7-7.71,13.88-15.65,20.45-23.61"/><line class="cls-2" x1="1555.16" y1="1504.29" x2="1481.29" y2="1437.17"/><path class="cls-2" d="M1555.16,1504.29c-8,8.82-16.37,17.58-24.83,26"/><line class="cls-2" x1="1481.29" y1="1437.17" x2="1555.16" y2="1504.29"/><line class="cls-2" x1="1530.33" y1="1530.33" x2="1459.75" y2="1459.76"/><path class="cls-2" d="M1530.33,1530.33c-8.45,8.45-17.21,16.8-26,24.83"/><path class="cls-2" d="M1437.16,1481.29c7.67-7,15.27-14.21,22.59-21.54"/><line class="cls-2" x1="1504.29" y1="1555.16" x2="1437.16" y2="1481.29"/><path class="cls-2" d="M1504.3,1555.15c-8.84,8-18,16-27.21,23.57"/><path class="cls-2" d="M1477.09,1578.72c-9.21,7.61-18.75,15.09-28.32,22.26"/><line class="cls-2" x1="1413.56" y1="1501.74" x2="1477.09" y2="1578.72"/><line class="cls-2" x1="1448.77" y1="1600.98" x2="1388.99" y2="1521.05"/><line class="cls-2" x1="1388.99" y1="1521.05" x2="1448.77" y2="1600.98"/><line class="cls-2" x1="1363.49" y1="1539.18" x2="1419.37" y2="1621.88"/><path class="cls-2" d="M1281.86,1586.1c9.42-4.54,18.85-9.37,28-14.35"/><line class="cls-2" x1="1325.18" y1="1676.02" x2="1281.86" y2="1586.1"/><path class="cls-2" d="M1325.18,1676c-10.91,5.26-22.09,10.31-33.23,15"/><path class="cls-2" d="M1253.07,1599.12c9.65-4.08,19.33-8.46,28.79-13"/><path class="cls-2" d="M1223.56,1610.75c9.88-3.62,19.8-7.53,29.51-11.63"/><line class="cls-2" x1="1257.87" y1="1704.48" x2="1223.56" y2="1610.75"/><line class="cls-2" x1="1193.37" y1="1620.97" x2="1223.01" y2="1716.28"/><path class="cls-2" d="M1162.53,1629.72c10.3-2.65,20.67-5.59,30.84-8.75"/><path class="cls-2" d="M1187.4,1726.39c-12,3.08-24.18,5.89-36.3,8.37"/><path class="cls-2" d="M1151.1,1734.76c-12.2,2.5-24.63,4.72-36.94,6.6"/><line class="cls-2" x1="1131.09" y1="1636.98" x2="1151.1" y2="1734.76"/><path class="cls-2" d="M1114.16,1741.36c-12.4,1.9-25,3.5-37.54,4.77"/><path class="cls-2" d="M1066.54,1646.83c10.85-1.1,21.79-2.49,32.54-4.13"/><line class="cls-2" x1="1076.62" y1="1746.13" x2="1066.54" y2="1646.83"/><path class="cls-2" d="M1033.5,1649.34c11-.55,22.12-1.4,33-2.51"/><line class="cls-2" x1="1033.5" y1="1649.34" x2="1038.55" y2="1749.03"/><path class="cls-2" d="M1000,1650.19c11.14,0,22.42-.28,33.5-.85"/><path class="cls-2" d="M966.5,1649.34c11.08.57,22.36.85,33.5.85"/><line class="cls-2" x1="961.45" y1="1749.03" x2="966.5" y2="1649.34"/><path class="cls-2" d="M961.45,1749c-12.68-.65-25.49-1.62-38.07-2.9"/><path class="cls-2" d="M900.92,1642.7c10.75,1.64,21.69,3,32.54,4.13"/><path class="cls-2" d="M923.38,1746.13c-12.51-1.27-25.14-2.87-37.54-4.77"/><line class="cls-2" x1="900.92" y1="1642.7" x2="885.84" y2="1741.36"/><path class="cls-2" d="M837.47,1629.72c10.37,2.67,20.95,5.11,31.44,7.26"/><line class="cls-2" x1="806.64" y1="1620.97" x2="776.99" y2="1716.27"/><path class="cls-2" d="M777,1716.27c-11.67-3.63-23.4-7.6-34.87-11.79"/><line class="cls-2" x1="746.93" y1="1599.12" x2="708.05" y2="1691.04"/><path class="cls-2" d="M718.14,1586.1c9.46,4.56,19.14,8.94,28.79,13"/><line class="cls-2" x1="674.82" y1="1676.02" x2="718.14" y2="1586.1"/><path class="cls-2" d="M690.12,1571.75c9.17,5,18.6,9.81,28,14.35"/><path class="cls-2" d="M674.82,1676c-10.88-5.24-21.77-10.82-32.35-16.57"/><line class="cls-2" x1="611.06" y1="1641.39" x2="662.89" y2="1556.09"/><path class="cls-2" d="M636.51,1539.18c8.63,5.83,17.5,11.52,26.38,16.91"/><line class="cls-2" x1="636.5" y1="1539.18" x2="580.64" y2="1621.89"/><path class="cls-2" d="M611,1521.05c8.32,6.22,16.9,12.32,25.49,18.13"/><line class="cls-2" x1="551.23" y1="1600.98" x2="611.01" y2="1521.05"/><line class="cls-2" x1="611.01" y1="1521.05" x2="551.23" y2="1600.98"/><path class="cls-2" d="M551.23,1601c-9.57-7.17-19.11-14.65-28.32-22.26"/><line class="cls-2" x1="586.44" y1="1501.74" x2="522.91" y2="1578.72"/><line class="cls-2" x1="469.67" y1="1530.33" x2="540.25" y2="1459.75"/><line class="cls-2" x1="444.84" y1="1504.29" x2="518.71" y2="1437.17"/><line class="cls-2" x1="518.71" y1="1437.16" x2="444.85" y2="1504.3"/><path class="cls-2" d="M498.26,1413.56c6.61,8,13.49,16,20.45,23.6"/><line class="cls-2" x1="421.28" y1="1477.09" x2="498.26" y2="1413.56"/><path class="cls-2" d="M421.28,1477.09c-7.63-9.24-15.12-18.77-22.26-28.32"/><line class="cls-2" x1="478.95" y1="1388.99" x2="399.02" y2="1448.77"/><line class="cls-2" x1="378.12" y1="1419.37" x2="460.82" y2="1363.49"/><line class="cls-2" x1="358.61" y1="1388.94" x2="443.91" y2="1337.11"/><path class="cls-2" d="M428.26,1309.89c5,9.14,10.23,18.3,15.65,27.22"/><line class="cls-2" x1="428.26" y1="1309.89" x2="340.55" y2="1357.53"/><path class="cls-2" d="M340.55,1357.53c-5.75-10.59-11.32-21.47-16.56-32.34"/><line class="cls-2" x1="413.9" y1="1281.86" x2="323.98" y2="1325.18"/><line class="cls-2" x1="308.96" y1="1291.96" x2="400.88" y2="1253.06"/><path class="cls-2" d="M324,1325.18c-5.24-10.89-10.3-22.07-15-33.22"/><line class="cls-2" x1="400.88" y1="1253.07" x2="308.96" y2="1291.95"/><path class="cls-2" d="M309,1292c-4.74-11.2-9.26-22.66-13.44-34.07"/><path class="cls-2" d="M379,1193.37c3.15,10.11,6.58,20.27,10.22,30.19"/><line class="cls-2" x1="273.61" y1="1187.39" x2="370.28" y2="1162.54"/><path class="cls-2" d="M283.72,1223c-3.65-11.76-7.05-23.74-10.11-35.62"/><line class="cls-2" x1="370.28" y1="1162.53" x2="273.61" y2="1187.4"/><line class="cls-2" x1="265.24" y1="1151.09" x2="363.02" y2="1131.09"/><line class="cls-2" x1="363.02" y1="1131.09" x2="265.24" y2="1151.09"/><path class="cls-2" d="M357.3,1099.08c1.63,10.66,3.56,21.43,5.72,32"/><path class="cls-2" d="M265.24,1151.09c-2.5-12.2-4.72-24.63-6.6-36.93"/><line class="cls-2" x1="357.3" y1="1099.09" x2="258.64" y2="1114.15"/><path class="cls-2" d="M353.17,1066.54c1.1,10.82,2.49,21.77,4.13,32.55"/><line class="cls-2" x1="353.17" y1="1066.53" x2="253.87" y2="1076.63"/><path class="cls-2" d="M349.81,1000c0,11.12.29,22.39.85,33.51"/><line class="cls-2" x1="250.97" y1="961.46" x2="350.66" y2="966.49"/><path class="cls-2" d="M250,1000c0-12.79.33-25.76,1-38.54"/><line class="cls-2" x1="253.87" y1="923.37" x2="353.17" y2="933.47"/><line class="cls-2" x1="350.66" y1="966.5" x2="250.97" y2="961.45"/><path class="cls-2" d="M357.3,900.91c-1.64,10.78-3,21.73-4.13,32.55"/><line class="cls-2" x1="265.24" y1="848.91" x2="363.02" y2="868.91"/><line class="cls-2" x1="273.61" y1="812.6" x2="370.28" y2="837.47"/><path class="cls-2" d="M265.24,848.91c2.47-12.1,5.29-24.31,8.37-36.31"/><line class="cls-2" x1="363.02" y1="868.91" x2="265.24" y2="848.91"/><path class="cls-2" d="M273.61,812.61c3.06-11.88,6.46-23.86,10.11-35.62"/><path class="cls-2" d="M295.52,742.12c4.18-11.41,8.7-22.87,13.44-34.07"/><line class="cls-2" x1="400.88" y1="746.94" x2="308.96" y2="708.04"/><path class="cls-2" d="M428.26,690.12c-5,9.17-9.82,18.6-14.36,28"/><path class="cls-2" d="M460.82,636.5c-5.82,8.63-11.51,17.5-16.91,26.39"/><line class="cls-2" x1="378.12" y1="580.64" x2="460.82" y2="636.5"/><line class="cls-2" x1="443.91" y1="662.89" x2="358.61" y2="611.06"/><path class="cls-2" d="M479,611c-6.22,8.32-12.32,16.9-18.13,25.5"/><line class="cls-2" x1="460.82" y1="636.51" x2="378.12" y2="580.63"/><path class="cls-2" d="M399,551.24c7.14-9.56,14.63-19.08,22.26-28.33"/><line class="cls-2" x1="469.67" y1="469.67" x2="540.25" y2="540.24"/><path class="cls-2" d="M444.84,495.71c8-8.82,16.37-17.58,24.83-26"/><line class="cls-2" x1="518.71" y1="562.83" x2="444.84" y2="495.71"/><line class="cls-2" x1="540.25" y1="540.25" x2="469.67" y2="469.67"/><path class="cls-2" d="M586.44,498.26c-8,6.6-15.93,13.48-23.6,20.45"/><path class="cls-2" d="M495.7,444.85c8.84-8,18-16,27.21-23.57"/><line class="cls-2" x1="562.84" y1="518.71" x2="495.7" y2="444.85"/><line class="cls-2" x1="551.23" y1="399.02" x2="611.01" y2="478.95"/><path class="cls-2" d="M522.91,421.28c9.21-7.6,18.75-15.09,28.32-22.26"/><line class="cls-2" x1="586.44" y1="498.26" x2="522.91" y2="421.28"/><line class="cls-2" x1="580.64" y1="378.11" x2="636.5" y2="460.83"/><line class="cls-2" x1="611.01" y1="478.95" x2="551.23" y2="399.02"/><line class="cls-2" x1="636.51" y1="460.82" x2="580.63" y2="378.12"/><line class="cls-2" x1="662.89" y1="443.91" x2="611.06" y2="358.61"/><path class="cls-2" d="M642.47,340.55c10.59-5.75,21.47-11.33,32.35-16.57"/><line class="cls-2" x1="690.12" y1="428.25" x2="642.47" y2="340.55"/><line class="cls-2" x1="708.05" y1="308.96" x2="746.93" y2="400.89"/><path class="cls-2" d="M674.82,324c10.91-5.26,22.09-10.31,33.23-15"/><path class="cls-2" d="M776.44,389.25c-9.88,3.62-19.8,7.53-29.51,11.63"/><path class="cls-2" d="M742.13,295.52c11.45-4.19,23.19-8.16,34.86-11.79"/><path class="cls-2" d="M837.47,370.28c-10.29,2.65-20.67,5.59-30.84,8.75"/><path class="cls-2" d="M777,283.73c11.74-3.66,23.72-7.06,35.61-10.12"/><path class="cls-2" d="M868.91,363c-10.49,2.15-21.07,4.59-31.44,7.26"/><line class="cls-2" x1="848.9" y1="265.24" x2="868.91" y2="363.02"/><path class="cls-2" d="M812.6,273.61c12-3.08,24.19-5.9,36.3-8.37"/><path class="cls-2" d="M900.92,357.3c-10.67,1.63-21.44,3.56-32,5.72"/><line class="cls-2" x1="868.91" y1="363.02" x2="848.9" y2="265.24"/><path class="cls-2" d="M923.38,253.87c12.59-1.28,25.4-2.25,38.07-2.9"/></g><path class="cls-3" d="M1000,750.07c137.81,0,249.93,112.12,249.93,249.93"/><line class="cls-3" x1="1249.93" y1="1000" x2="1150.12" y2="1000"/><line class="cls-3" x1="1150.12" y1="1000" x2="1249.93" y2="1000"/><path class="cls-3" d="M1000,1150.12c82.78,0,150.12-67.34,150.12-150.12"/><line class="cls-3" x1="1000" y1="1249.93" x2="1000" y2="1150.12"/><path class="cls-3" d="M849.88,1000c0,82.78,67.34,150.12,150.12,150.12"/><line class="cls-3" x1="1000" y1="750.07" x2="1000" y2="849.88"/><path class="cls-3" d="M752.55,752.55A347.64,347.64,0,0,1,1000,650.05"/><path class="cls-3" d="M650.05,1000a347.66,347.66,0,0,1,102.5-247.45"/><line class="cls-3" x1="749.86" y1="1000" x2="650.05" y2="1000"/><line class="cls-3" x1="823.13" y1="1176.87" x2="752.55" y2="1247.45"/><path class="cls-3" d="M749.86,1000a248.47,248.47,0,0,0,73.27,176.87"/><line class="cls-3" x1="650.05" y1="1000" x2="749.86" y2="1000"/><path class="cls-3" d="M752.55,1247.45A347.66,347.66,0,0,1,650.05,1000"/><path class="cls-3" d="M823.13,1176.87A248.47,248.47,0,0,0,1000,1250.14"/><line class="cls-3" x1="752.55" y1="1247.45" x2="823.13" y2="1176.87"/><path class="cls-3" d="M1247.45,1247.45A347.64,347.64,0,0,1,1000,1350"/><path class="cls-3" d="M1000,1250.14a248.47,248.47,0,0,0,176.87-73.27"/><line class="cls-3" x1="1000" y1="1349.95" x2="1000" y2="1250.14"/><path class="cls-3" d="M1350,1000a347.66,347.66,0,0,1-102.5,247.45"/><line class="cls-3" x1="1250.14" y1="1000" x2="1349.95" y2="1000"/><line class="cls-3" x1="1247.45" y1="1247.45" x2="1176.87" y2="1176.87"/><path class="cls-3" d="M1247.45,752.55A347.66,347.66,0,0,1,1350,1000"/><line class="cls-3" x1="1176.87" y1="823.13" x2="1247.45" y2="752.55"/><line class="cls-3" x1="1349.95" y1="1000" x2="1250.14" y2="1000"/><line class="cls-3" x1="1247.45" y1="752.55" x2="1176.87" y2="823.13"/><path class="cls-3" d="M1000,649.85a347.85,347.85,0,0,0-136.28,27.5"/><line class="cls-3" x1="1000" y1="550.04" x2="1000" y2="649.85"/><path class="cls-3" d="M824.84,585.42A447.12,447.12,0,0,1,1000,550"/><path class="cls-3" d="M863.72,677.35a348.82,348.82,0,0,0-111.31,75.06"/><path class="cls-3" d="M752.41,752.41a348.82,348.82,0,0,0-75.06,111.31"/><path class="cls-3" d="M585.42,824.84a448.37,448.37,0,0,1,96.41-143"/><line class="cls-3" x1="677.35" y1="863.72" x2="585.42" y2="824.84"/><line class="cls-3" x1="585.42" y1="824.84" x2="677.35" y2="863.72"/><line class="cls-3" x1="649.85" y1="1000" x2="550.04" y2="1000"/><line class="cls-3" x1="677.35" y1="1136.28" x2="585.42" y2="1175.16"/><line class="cls-3" x1="752.41" y1="1247.59" x2="681.83" y2="1318.17"/><line class="cls-3" x1="863.72" y1="1322.65" x2="824.84" y2="1414.58"/><path class="cls-3" d="M752.41,1247.59a348.82,348.82,0,0,0,111.31,75.06"/><path class="cls-3" d="M863.72,1322.65a347.85,347.85,0,0,0,136.28,27.5"/><line class="cls-3" x1="1136.28" y1="1322.65" x2="1175.16" y2="1414.58"/><line class="cls-3" x1="1000" y1="1449.96" x2="1000" y2="1350.15"/><path class="cls-3" d="M1318.17,1318.17a448.43,448.43,0,0,1-143,96.41"/><line class="cls-3" x1="1247.59" y1="1247.59" x2="1318.17" y2="1318.17"/><path class="cls-3" d="M1136.28,1322.65a348.82,348.82,0,0,0,111.31-75.06"/><line class="cls-3" x1="1175.16" y1="1414.58" x2="1136.28" y2="1322.65"/><path class="cls-3" d="M1414.58,1175.16a448.37,448.37,0,0,1-96.41,143"/><line class="cls-3" x1="1322.65" y1="1136.28" x2="1414.58" y2="1175.16"/><path class="cls-3" d="M1247.59,1247.59a348.82,348.82,0,0,0,75.06-111.31"/><line class="cls-3" x1="1318.17" y1="1318.17" x2="1247.59" y2="1247.59"/><path class="cls-3" d="M1450,1000a447.08,447.08,0,0,1-35.38,175.16"/><path class="cls-3" d="M1414.58,824.84A447.08,447.08,0,0,1,1450,1000"/><line class="cls-3" x1="1322.65" y1="863.72" x2="1414.58" y2="824.84"/><line class="cls-3" x1="1449.96" y1="1000" x2="1350.15" y2="1000"/><path class="cls-3" d="M1318.17,681.83a448.37,448.37,0,0,1,96.41,143"/><line class="cls-3" x1="1247.59" y1="752.41" x2="1318.17" y2="681.83"/><path class="cls-3" d="M1322.65,863.72a348.82,348.82,0,0,0-75.06-111.31"/><line class="cls-3" x1="1318.17" y1="681.83" x2="1247.59" y2="752.41"/><line class="cls-3" x1="1175.16" y1="585.42" x2="1136.28" y2="677.35"/><path class="cls-3" d="M1000,550a447.12,447.12,0,0,1,175.16,35.38"/><line class="cls-3" x1="1000" y1="649.85" x2="1000" y2="550.04"/><line class="cls-3" x1="1110.78" y1="461.2" x2="1090.78" y2="558.98"/><path class="cls-3" d="M1000,450a553.93,553.93,0,0,1,110.78,11.17"/><line class="cls-3" x1="1000" y1="549.84" x2="1000" y2="450.03"/><path class="cls-3" d="M1090.78,559a453.69,453.69,0,0,0-90.78-9.14"/><line class="cls-3" x1="1307.53" y1="543.98" x2="1251.66" y2="626.69"/><path class="cls-3" d="M1307.53,544a553.9,553.9,0,0,1,81.36,67.13"/><line class="cls-3" x1="1251.66" y1="626.69" x2="1307.53" y2="543.98"/><path class="cls-3" d="M1318.31,681.69a453.31,453.31,0,0,0-66.65-55"/><path class="cls-3" d="M1388.89,611.11A553.9,553.9,0,0,1,1456,692.47"/><line class="cls-3" x1="1318.31" y1="681.69" x2="1388.89" y2="611.11"/><path class="cls-3" d="M1373.31,748.35a452.87,452.87,0,0,0-55-66.66"/><path class="cls-3" d="M1456,692.47a549.68,549.68,0,0,1,50.71,93.44"/><line class="cls-3" x1="1373.31" y1="748.34" x2="1456.02" y2="692.47"/><path class="cls-3" d="M1414.81,824.79a450.47,450.47,0,0,0-41.5-76.45"/><line class="cls-3" x1="1538.8" y1="889.21" x2="1441.02" y2="909.22"/><line class="cls-3" x1="1414.81" y1="824.79" x2="1506.73" y2="785.91"/><path class="cls-3" d="M1538.8,889.21A553.45,553.45,0,0,1,1550,1000"/><line class="cls-3" x1="1441.02" y1="909.22" x2="1538.8" y2="889.21"/><path class="cls-3" d="M1450.16,1000a453.84,453.84,0,0,0-9.14-90.78"/><path class="cls-3" d="M1441,1090.78a453.84,453.84,0,0,0,9.14-90.78"/><line class="cls-3" x1="1538.8" y1="1110.79" x2="1441.02" y2="1090.78"/><path class="cls-3" d="M1538.8,1110.79a547.38,547.38,0,0,1-32.07,103.3"/><line class="cls-3" x1="1441.02" y1="1090.78" x2="1538.8" y2="1110.79"/><line class="cls-3" x1="1506.73" y1="1214.09" x2="1414.81" y2="1175.21"/><line class="cls-3" x1="1414.81" y1="1175.21" x2="1506.73" y2="1214.09"/><path class="cls-3" d="M1373.31,1251.66a450.47,450.47,0,0,0,41.5-76.45"/><line class="cls-3" x1="1456.02" y1="1307.53" x2="1373.31" y2="1251.66"/><line class="cls-3" x1="1373.31" y1="1251.65" x2="1456.02" y2="1307.53"/><path class="cls-3" d="M1318.31,1318.31a452.87,452.87,0,0,0,55-66.66"/><line class="cls-3" x1="1388.89" y1="1388.89" x2="1318.31" y2="1318.31"/><path class="cls-3" d="M1388.89,1388.89a553.9,553.9,0,0,1-81.36,67.13"/><path class="cls-3" d="M1251.66,1373.31a453.31,453.31,0,0,0,66.65-55"/><path class="cls-3" d="M1307.53,1456a549.68,549.68,0,0,1-93.44,50.71"/><line class="cls-3" x1="1251.66" y1="1373.31" x2="1307.53" y2="1456.02"/><line class="cls-3" x1="1175.21" y1="1414.81" x2="1214.09" y2="1506.73"/><path class="cls-3" d="M1090.78,1441a447.75,447.75,0,0,0,84.43-26.21"/><line class="cls-3" x1="1110.78" y1="1538.8" x2="1090.78" y2="1441.02"/><line class="cls-3" x1="1000" y1="1549.97" x2="1000" y2="1450.16"/><line class="cls-3" x1="889.22" y1="1538.8" x2="909.22" y2="1441.02"/><path class="cls-3" d="M1000,1550a553.93,553.93,0,0,1-110.78-11.17"/><line class="cls-3" x1="909.22" y1="1441.02" x2="889.22" y2="1538.8"/><path class="cls-3" d="M824.79,1414.81A447.75,447.75,0,0,0,909.22,1441"/><path class="cls-3" d="M889.22,1538.8a547.25,547.25,0,0,1-103.31-32.07"/><path class="cls-3" d="M748.34,1373.31a450.47,450.47,0,0,0,76.45,41.5"/><path class="cls-3" d="M681.69,1318.31a453.31,453.31,0,0,0,66.65,55"/><line class="cls-3" x1="611.11" y1="1388.89" x2="681.69" y2="1318.31"/><line class="cls-3" x1="543.98" y1="1307.53" x2="626.69" y2="1251.65"/><line class="cls-3" x1="626.69" y1="1251.66" x2="543.98" y2="1307.53"/><path class="cls-3" d="M585.19,1175.21a450.47,450.47,0,0,0,41.5,76.45"/><path class="cls-3" d="M544,1307.53a549.68,549.68,0,0,1-50.71-93.44"/><line class="cls-3" x1="585.19" y1="1175.21" x2="493.27" y2="1214.09"/><path class="cls-3" d="M559,1090.78a448.26,448.26,0,0,0,26.21,84.43"/><line class="cls-3" x1="450.03" y1="1000" x2="549.84" y2="1000"/><path class="cls-3" d="M461.2,1110.79A553.44,553.44,0,0,1,450,1000"/><line class="cls-3" x1="461.2" y1="889.21" x2="558.98" y2="909.22"/><line class="cls-3" x1="549.84" y1="1000" x2="450.03" y2="1000"/><path class="cls-3" d="M585.19,824.79A448.26,448.26,0,0,0,559,909.22"/><line class="cls-3" x1="493.27" y1="785.91" x2="585.19" y2="824.79"/><line class="cls-3" x1="558.98" y1="909.22" x2="461.2" y2="889.21"/><path class="cls-3" d="M626.69,748.34a450.47,450.47,0,0,0-41.5,76.45"/><path class="cls-3" d="M681.69,681.69a452.87,452.87,0,0,0-55,66.66"/><line class="cls-3" x1="611.11" y1="611.11" x2="681.69" y2="681.69"/><line class="cls-3" x1="626.69" y1="748.35" x2="543.98" y2="692.47"/><path class="cls-3" d="M748.34,626.69a453.31,453.31,0,0,0-66.65,55"/><line class="cls-3" x1="692.47" y1="543.98" x2="748.34" y2="626.69"/><line class="cls-3" x1="681.69" y1="681.69" x2="611.11" y2="611.11"/><path class="cls-3" d="M824.79,585.19a450.47,450.47,0,0,0-76.45,41.5"/><line class="cls-3" x1="785.91" y1="493.27" x2="824.79" y2="585.19"/><path class="cls-3" d="M785.91,493.27A547.25,547.25,0,0,1,889.22,461.2"/><line class="cls-3" x1="824.79" y1="585.19" x2="785.91" y2="493.27"/><path class="cls-3" d="M1000,549.84A453.69,453.69,0,0,0,909.22,559"/><line class="cls-3" x1="1000" y1="450.03" x2="1000" y2="549.84"/><path class="cls-3" d="M889.22,461.2A553.93,553.93,0,0,1,1000,450"/><line class="cls-3" x1="1066.4" y1="353.37" x2="1056.31" y2="452.67"/><line class="cls-3" x1="1000" y1="449.82" x2="1000" y2="350.01"/><line class="cls-3" x1="1130.94" y1="363.22" x2="1110.93" y2="461"/><path class="cls-3" d="M1066.4,353.37a651.34,651.34,0,0,1,64.54,9.85"/><path class="cls-3" d="M1110.93,461a550.25,550.25,0,0,0-54.62-8.33"/><line class="cls-3" x1="1193.27" y1="379.24" x2="1163.63" y2="474.55"/><path class="cls-3" d="M1193.27,379.24c20.18,6.28,40.28,13.64,59.75,21.87"/><line class="cls-3" x1="1163.63" y1="474.55" x2="1193.27" y2="379.24"/><path class="cls-3" d="M1214.14,493c-16.46-7-33.45-13.18-50.51-18.49"/><line class="cls-3" x1="1214.14" y1="493.04" x2="1253.02" y2="401.11"/><path class="cls-3" d="M1262.21,516.2c-15.59-8.47-31.76-16.26-48.07-23.16"/><path class="cls-3" d="M1307.58,543.76c-14.62-9.88-29.89-19.15-45.37-27.56"/><path class="cls-3" d="M1363.45,461.05c17.18,11.61,34,24.2,50,37.41"/><line class="cls-3" x1="1307.57" y1="543.75" x2="1363.45" y2="461.05"/><path class="cls-3" d="M1349.94,575.44c-13.56-11.19-27.81-21.85-42.37-31.69"/><line class="cls-3" x1="1459.61" y1="540.39" x2="1389.03" y2="610.97"/><path class="cls-3" d="M1413.47,498.46c16,13.17,31.49,27.28,46.14,41.93"/><line class="cls-3" x1="1349.94" y1="575.44" x2="1413.47" y2="498.46"/><path class="cls-3" d="M1389,611c-12.41-12.41-25.56-24.37-39.09-35.53"/><line class="cls-3" x1="1501.54" y1="586.53" x2="1424.56" y2="650.06"/><line class="cls-3" x1="1389.03" y1="610.97" x2="1459.61" y2="540.39"/><path class="cls-3" d="M1501.54,586.53c13.21,16,25.8,32.83,37.41,50"/><line class="cls-3" x1="1424.56" y1="650.06" x2="1501.54" y2="586.53"/><path class="cls-3" d="M1456.25,692.43c-9.84-14.56-20.5-28.82-31.69-42.37"/><line class="cls-3" x1="1571.51" y1="690.15" x2="1483.8" y2="737.79"/><line class="cls-3" x1="1456.25" y1="692.43" x2="1538.95" y2="636.55"/><path class="cls-3" d="M1483.8,737.79c-8.41-15.48-17.68-30.74-27.55-45.36"/><line class="cls-3" x1="1598.89" y1="746.98" x2="1506.96" y2="785.86"/><line class="cls-3" x1="1483.8" y1="737.79" x2="1571.51" y2="690.14"/><path class="cls-3" d="M1507,785.86c-6.9-16.31-14.69-32.48-23.16-48.07"/><path class="cls-3" d="M1598.88,747c8.22,19.44,15.58,39.54,21.88,59.75"/><line class="cls-3" x1="1506.96" y1="785.87" x2="1598.88" y2="746.97"/><path class="cls-3" d="M1620.76,806.73c6.33,20.38,11.72,41.34,16,62.32"/><line class="cls-3" x1="1525.45" y1="836.37" x2="1620.76" y2="806.73"/><path class="cls-3" d="M1539,889.08c-3.63-17.75-8.19-35.48-13.55-52.71"/><line class="cls-3" x1="1646.63" y1="933.61" x2="1547.33" y2="943.68"/><line class="cls-3" x1="1539" y1="889.07" x2="1636.79" y2="869.06"/><path class="cls-3" d="M1547.33,943.68a548.47,548.47,0,0,0-8.33-54.61"/><path class="cls-3" d="M1646.63,933.6A658.11,658.11,0,0,1,1650,1000"/><line class="cls-3" x1="1547.33" y1="943.69" x2="1646.63" y2="933.6"/><path class="cls-3" d="M1650,1000a658.11,658.11,0,0,1-3.36,66.4"/><path class="cls-3" d="M1547.33,1056.31a558.15,558.15,0,0,0,2.85-56.31"/><line class="cls-3" x1="1646.63" y1="1066.4" x2="1547.33" y2="1056.31"/><path class="cls-3" d="M1646.63,1066.39a652.41,652.41,0,0,1-9.84,64.55"/><path class="cls-3" d="M1539,1110.93a548.47,548.47,0,0,0,8.33-54.61"/><line class="cls-3" x1="1539" y1="1110.92" x2="1636.78" y2="1130.95"/><path class="cls-3" d="M1525.45,1163.63c5.36-17.23,9.92-35,13.55-52.71"/><line class="cls-3" x1="1620.76" y1="1193.27" x2="1525.45" y2="1163.63"/><line class="cls-3" x1="1525.45" y1="1163.62" x2="1620.76" y2="1193.28"/><path class="cls-3" d="M1598.89,1253c-8.16,19.29-17.37,38.41-27.38,56.84"/><line class="cls-3" x1="1571.51" y1="1309.86" x2="1483.8" y2="1262.21"/><path class="cls-3" d="M1571.51,1309.85c-9.94,18.29-20.89,36.33-32.56,53.6"/><line class="cls-3" x1="1483.8" y1="1262.22" x2="1571.51" y2="1309.85"/><path class="cls-3" d="M1456.25,1307.57c9.87-14.62,19.14-29.88,27.55-45.35"/><line class="cls-3" x1="1538.95" y1="1363.45" x2="1456.25" y2="1307.57"/><path class="cls-3" d="M1539,1363.45c-11.61,17.19-24.2,34-37.41,50"/><path class="cls-3" d="M1424.56,1349.94c11.19-13.55,21.85-27.81,31.69-42.37"/><path class="cls-3" d="M1501.54,1413.47c-13.18,16-27.29,31.5-41.93,46.14"/><line class="cls-3" x1="1424.56" y1="1349.94" x2="1501.54" y2="1413.47"/><path class="cls-3" d="M1389,1389c12.41-12.4,24.36-25.55,35.53-39.09"/><line class="cls-3" x1="1459.61" y1="1459.61" x2="1389.03" y2="1389.03"/><path class="cls-3" d="M1459.61,1459.61c-14.65,14.65-30.17,28.76-46.14,41.93"/><line class="cls-3" x1="1389.03" y1="1389.03" x2="1459.61" y2="1459.61"/><path class="cls-3" d="M1349.94,1424.56c13.53-11.16,26.68-23.12,39.09-35.53"/><path class="cls-3" d="M1413.47,1501.54c-16,13.21-32.84,25.8-50,37.41"/><line class="cls-3" x1="1349.94" y1="1424.56" x2="1413.47" y2="1501.54"/><path class="cls-3" d="M1307.57,1456.25c14.56-9.84,28.81-20.5,42.37-31.69"/><line class="cls-3" x1="1363.45" y1="1538.95" x2="1307.57" y2="1456.25"/><path class="cls-3" d="M1363.45,1539c-17.27,11.67-35.3,22.62-53.59,32.56"/><line class="cls-3" x1="1307.58" y1="1456.24" x2="1363.45" y2="1538.95"/><path class="cls-3" d="M1262.21,1483.8c15.48-8.41,30.75-17.68,45.37-27.56"/><line class="cls-3" x1="1309.86" y1="1571.51" x2="1262.21" y2="1483.8"/><path class="cls-3" d="M1214.14,1507c16.31-6.9,32.48-14.69,48.07-23.16"/><path class="cls-3" d="M1253,1598.89c-19.47,8.23-39.57,15.59-59.75,21.87"/><line class="cls-3" x1="1193.27" y1="1620.76" x2="1163.63" y2="1525.45"/><path class="cls-3" d="M1193.27,1620.76c-20.41,6.35-41.38,11.74-62.33,16"/><line class="cls-3" x1="1163.63" y1="1525.45" x2="1193.27" y2="1620.76"/><path class="cls-3" d="M1110.93,1539c17.71-3.63,35.44-8.18,52.7-13.55"/><line class="cls-3" x1="1130.94" y1="1636.78" x2="1110.93" y2="1539"/><line class="cls-3" x1="1110.93" y1="1539" x2="1130.94" y2="1636.78"/><path class="cls-3" d="M1056.31,1547.33a549.81,549.81,0,0,0,54.62-8.33"/><line class="cls-3" x1="1056.31" y1="1547.33" x2="1066.4" y2="1646.63"/><path class="cls-3" d="M1000,1550.18a558.44,558.44,0,0,0,56.31-2.85"/><line class="cls-3" x1="1000" y1="1649.99" x2="1000" y2="1550.18"/><path class="cls-3" d="M943.69,1547.33a558.44,558.44,0,0,0,56.31,2.85"/><line class="cls-3" x1="933.6" y1="1646.63" x2="943.69" y2="1547.33"/><line class="cls-3" x1="869.06" y1="1636.78" x2="889.07" y2="1539"/><line class="cls-3" x1="889.07" y1="1539" x2="869.06" y2="1636.78"/><line class="cls-3" x1="806.73" y1="1620.76" x2="836.37" y2="1525.45"/><path class="cls-3" d="M869.06,1636.78c-20.95-4.28-41.92-9.67-62.33-16"/><path class="cls-3" d="M806.73,1620.76c-20.18-6.28-40.28-13.64-59.75-21.87"/><path class="cls-3" d="M737.79,1483.8c15.59,8.47,31.76,16.26,48.07,23.16"/><path class="cls-3" d="M747,1598.89c-19.28-8.16-38.4-17.37-56.84-27.38"/><path class="cls-3" d="M692.42,1456.24c14.62,9.88,29.89,19.15,45.37,27.56"/><line class="cls-3" x1="636.55" y1="1538.95" x2="692.42" y2="1456.24"/><path class="cls-3" d="M690.14,1571.51c-18.29-9.94-36.32-20.89-53.59-32.56"/><path class="cls-3" d="M650.06,1424.56c13.56,11.19,27.81,21.85,42.37,31.69"/><line class="cls-3" x1="586.53" y1="1501.54" x2="650.06" y2="1424.56"/><path class="cls-3" d="M636.55,1539c-17.18-11.61-34-24.2-50-37.41"/><line class="cls-3" x1="650.06" y1="1424.56" x2="586.53" y2="1501.54"/><path class="cls-3" d="M586.53,1501.54c-16-13.17-31.49-27.28-46.14-41.93"/><path class="cls-3" d="M575.44,1349.94c11.17,13.54,23.12,26.69,35.53,39.09"/><path class="cls-3" d="M540.39,1459.61c-14.64-14.64-28.75-30.16-41.93-46.14"/><line class="cls-3" x1="575.44" y1="1349.94" x2="498.46" y2="1413.47"/><path class="cls-3" d="M543.75,1307.57c9.84,14.56,20.5,28.82,31.69,42.37"/><path class="cls-3" d="M498.46,1413.47c-13.21-16-25.8-32.83-37.41-50"/><path class="cls-3" d="M516.19,1262.21c8.42,15.48,17.69,30.75,27.56,45.36"/><path class="cls-3" d="M461.05,1363.45c-11.67-17.27-22.62-35.3-32.56-53.59"/><line class="cls-3" x1="516.2" y1="1262.21" x2="428.49" y2="1309.85"/><path class="cls-3" d="M493,1214.14c6.9,16.31,14.69,32.49,23.16,48.07"/><line class="cls-3" x1="401.11" y1="1253.02" x2="493.04" y2="1214.14"/><line class="cls-3" x1="493.04" y1="1214.14" x2="401.11" y2="1253.02"/><path class="cls-3" d="M474.55,1163.63c5.3,17,11.52,34,18.49,50.51"/><line class="cls-3" x1="379.24" y1="1193.27" x2="474.55" y2="1163.63"/><line class="cls-3" x1="474.55" y1="1163.63" x2="379.24" y2="1193.27"/><path class="cls-3" d="M461,1110.93c3.62,17.7,8.18,35.43,13.55,52.7"/><line class="cls-3" x1="363.22" y1="1130.94" x2="461" y2="1110.93"/><line class="cls-3" x1="461" y1="1110.93" x2="363.22" y2="1130.95"/><path class="cls-3" d="M452.67,1056.31a551.85,551.85,0,0,0,8.33,54.62"/><line class="cls-3" x1="452.67" y1="1056.31" x2="353.37" y2="1066.4"/><path class="cls-3" d="M449.82,1000a558.29,558.29,0,0,0,2.85,56.31"/><line class="cls-3" x1="350.01" y1="1000" x2="449.82" y2="1000"/><path class="cls-3" d="M353.37,1066.4A658.41,658.41,0,0,1,350,1000"/><line class="cls-3" x1="353.37" y1="933.6" x2="452.67" y2="943.69"/><path class="cls-3" d="M461,889.07a551.85,551.85,0,0,0-8.33,54.62"/><line class="cls-3" x1="363.22" y1="869.05" x2="461" y2="889.07"/><path class="cls-3" d="M353.37,933.6a650.2,650.2,0,0,1,9.85-64.55"/><line class="cls-3" x1="452.67" y1="943.69" x2="353.37" y2="933.6"/><path class="cls-3" d="M474.55,836.37c-5.37,17.27-9.93,35-13.55,52.7"/><path class="cls-3" d="M363.22,869.06c4.28-20.94,9.67-41.91,16-62.33"/><line class="cls-3" x1="401.11" y1="746.98" x2="493.04" y2="785.86"/><path class="cls-3" d="M379.24,806.73c6.27-20.16,13.63-40.26,21.87-59.75"/><line class="cls-3" x1="493.04" y1="785.86" x2="401.11" y2="746.98"/><path class="cls-3" d="M428.49,690.14c9.94-18.29,20.9-36.32,32.56-53.59"/><path class="cls-3" d="M575.44,650.06c-11.19,13.55-21.85,27.81-31.69,42.37"/><path class="cls-3" d="M461.05,636.55c11.61-17.19,24.2-34,37.41-50"/><line class="cls-3" x1="543.75" y1="692.43" x2="461.05" y2="636.55"/><path class="cls-3" d="M611,611c-12.41,12.4-24.36,25.55-35.53,39.09"/><line class="cls-3" x1="540.39" y1="540.39" x2="610.97" y2="610.97"/><line class="cls-3" x1="575.44" y1="650.06" x2="498.46" y2="586.53"/><path class="cls-3" d="M650.06,575.44C636.53,586.6,623.38,598.56,611,611"/><line class="cls-3" x1="586.53" y1="498.46" x2="650.06" y2="575.44"/><path class="cls-3" d="M540.39,540.39c14.65-14.65,30.17-28.76,46.14-41.93"/><line class="cls-3" x1="610.97" y1="610.97" x2="540.39" y2="540.39"/><line class="cls-3" x1="636.55" y1="461.05" x2="692.43" y2="543.75"/><line class="cls-3" x1="650.06" y1="575.44" x2="586.53" y2="498.46"/><line class="cls-3" x1="746.98" y1="401.11" x2="785.86" y2="493.04"/><line class="cls-3" x1="737.79" y1="516.2" x2="690.14" y2="428.49"/><path class="cls-3" d="M836.37,474.55c-17.06,5.31-34,11.53-50.51,18.49"/><path class="cls-3" d="M747,401.11c19.47-8.23,39.57-15.59,59.75-21.87"/><path class="cls-3" d="M889.07,461c-17.71,3.63-35.44,8.18-52.7,13.55"/><path class="cls-3" d="M806.73,379.24c20.41-6.34,41.38-11.74,62.33-16"/><line class="cls-3" x1="836.37" y1="474.55" x2="806.73" y2="379.24"/><path class="cls-3" d="M943.69,452.67A550.25,550.25,0,0,0,889.07,461"/><line class="cls-3" x1="933.6" y1="353.37" x2="943.69" y2="452.67"/><path class="cls-3" d="M869.06,363.22a651.34,651.34,0,0,1,64.54-9.85"/><line class="cls-3" x1="889.07" y1="461" x2="869.06" y2="363.22"/><path class="cls-3" d="M933.6,353.37A658.41,658.41,0,0,1,1000,350"/><line class="cls-3" x1="943.69" y1="452.67" x2="933.6" y2="353.37"/><path class="cls-3" d="M1000,250c12.82,0,25.79.33,38.55,1"/><line class="cls-3" x1="1000" y1="349.81" x2="1000" y2="250"/><line class="cls-3" x1="1076.62" y1="253.87" x2="1066.54" y2="353.17"/><path class="cls-3" d="M1038.55,251c12.67.65,25.48,1.62,38.07,2.9"/><path class="cls-3" d="M1066.54,353.17c-10.93-1.11-22-2-33-2.51"/><line class="cls-3" x1="1114.15" y1="258.64" x2="1099.08" y2="357.3"/><path class="cls-3" d="M1076.62,253.87c12.51,1.27,25.14,2.87,37.53,4.77"/><line class="cls-3" x1="1066.54" y1="353.17" x2="1076.62" y2="253.87"/><path class="cls-3" d="M1099.08,357.3c-10.75-1.64-21.7-3-32.54-4.13"/><line class="cls-3" x1="1151.1" y1="265.24" x2="1131.09" y2="363.02"/><line class="cls-3" x1="1099.08" y1="357.3" x2="1114.15" y2="258.64"/><path class="cls-3" d="M1131.09,363c-10.57-2.16-21.34-4.09-32-5.72"/><line class="cls-3" x1="1131.09" y1="363.02" x2="1151.1" y2="265.24"/><path class="cls-3" d="M1162.53,370.28c-10.37-2.67-21-5.11-31.44-7.26"/><line class="cls-3" x1="1223.01" y1="283.73" x2="1193.37" y2="379.03"/><line class="cls-3" x1="1162.53" y1="370.28" x2="1187.4" y2="273.61"/><path class="cls-3" d="M1223,283.73c11.67,3.63,23.41,7.6,34.86,11.79"/><path class="cls-3" d="M1223.56,389.25c-9.93-3.64-20.09-7.07-30.2-10.22"/><line class="cls-3" x1="1291.95" y1="308.96" x2="1253.07" y2="400.88"/><path class="cls-3" d="M1257.87,295.52c11.41,4.18,22.88,8.7,34.08,13.44"/><path class="cls-3" d="M1253.07,400.88c-9.71-4.1-19.63-8-29.51-11.63"/><line class="cls-3" x1="1325.18" y1="323.98" x2="1281.86" y2="413.9"/><path class="cls-3" d="M1292,309c11.14,4.71,22.32,9.76,33.23,15"/><line class="cls-3" x1="1357.53" y1="340.55" x2="1309.88" y2="428.25"/><path class="cls-3" d="M1325.18,324c10.88,5.24,21.76,10.82,32.35,16.57"/><line class="cls-3" x1="1281.86" y1="413.9" x2="1325.18" y2="323.98"/><path class="cls-3" d="M1309.88,428.25c-9.17-5-18.6-9.81-28-14.35"/><path class="cls-3" d="M1388.93,358.61c10.24,6.22,20.49,12.78,30.44,19.51"/><line class="cls-3" x1="1337.11" y1="443.91" x2="1388.93" y2="358.61"/><line class="cls-3" x1="1448.77" y1="399.02" x2="1388.99" y2="478.95"/><path class="cls-3" d="M1389,479c-8.32-6.22-16.9-12.32-25.49-18.12"/><line class="cls-3" x1="1477.09" y1="421.28" x2="1413.56" y2="498.26"/><line class="cls-3" x1="1388.99" y1="478.95" x2="1448.77" y2="399.02"/><path class="cls-3" d="M1413.56,498.26c-8-6.6-16.26-13.09-24.57-19.31"/><line class="cls-3" x1="1504.3" y1="444.85" x2="1437.16" y2="518.71"/><path class="cls-3" d="M1477.09,421.28c9.21,7.6,18.37,15.53,27.21,23.57"/><line class="cls-3" x1="1530.33" y1="469.67" x2="1459.75" y2="540.25"/><path class="cls-3" d="M1459.75,540.25c-7.32-7.33-14.92-14.58-22.59-21.54"/><path class="cls-3" d="M1530.33,469.67c8.46,8.46,16.81,17.22,24.83,26"/><line class="cls-3" x1="1459.75" y1="540.24" x2="1530.33" y2="469.67"/><path class="cls-3" d="M1481.29,562.83c-7-7.64-14.2-15.24-21.54-22.59"/><path class="cls-3" d="M1555.16,495.71c8.06,8.87,16,18,23.56,27.2"/><path class="cls-3" d="M1501.74,586.44c-6.57-8-13.45-15.9-20.45-23.61"/><line class="cls-3" x1="1501.73" y1="586.44" x2="1578.72" y2="522.91"/><path class="cls-3" d="M1521.05,611c-6.22-8.32-12.72-16.59-19.32-24.58"/><line class="cls-3" x1="1621.89" y1="580.64" x2="1539.17" y2="636.5"/><path class="cls-3" d="M1601,551.23c7.19,9.6,14.22,19.5,20.92,29.41"/><line class="cls-3" x1="1521.05" y1="611.02" x2="1600.97" y2="551.23"/><line class="cls-3" x1="1641.4" y1="611.07" x2="1556.08" y2="662.88"/><path class="cls-3" d="M1621.88,580.63c6.74,10,13.31,20.22,19.52,30.44"/><line class="cls-3" x1="1659.45" y1="642.48" x2="1571.74" y2="690.11"/><line class="cls-3" x1="1556.09" y1="662.89" x2="1641.39" y2="611.06"/><path class="cls-3" d="M1571.74,690.11c-5-9.14-10.23-18.3-15.65-27.22"/><line class="cls-3" x1="1676.02" y1="674.82" x2="1586.1" y2="718.14"/><path class="cls-3" d="M1659.44,642.46c5.76,10.59,11.34,21.48,16.58,32.36"/><line class="cls-3" x1="1571.75" y1="690.12" x2="1659.44" y2="642.46"/><path class="cls-3" d="M1586.1,718.14c-4.54-9.42-9.37-18.85-14.35-28"/><path class="cls-3" d="M1676,674.82c5.28,11,10.34,22.15,15,33.24"/><path class="cls-3" d="M1599.11,746.92c-4-9.59-8.43-19.27-13-28.78"/><line class="cls-3" x1="1704.47" y1="742.12" x2="1610.75" y2="776.44"/><path class="cls-3" d="M1691,708c4.73,11.19,9.25,22.65,13.43,34.08"/><path class="cls-3" d="M1610.75,776.44c-3.62-9.89-7.53-19.82-11.63-29.5"/><path class="cls-3" d="M1704.47,742.12c4.21,11.49,8.18,23.22,11.81,34.87"/><line class="cls-3" x1="1726.39" y1="812.6" x2="1629.73" y2="837.47"/><path class="cls-3" d="M1716.28,777c3.64,11.71,7,23.69,10.11,35.61"/><path class="cls-3" d="M1629.73,837.47c-2.66-10.32-5.61-20.69-8.76-30.83"/><line class="cls-3" x1="1734.76" y1="848.9" x2="1636.98" y2="868.92"/><path class="cls-3" d="M1726.39,812.6c3.06,11.92,5.89,24.13,8.37,36.3"/><path class="cls-3" d="M1637,868.92c-2.16-10.55-4.6-21.13-7.25-31.45"/><line class="cls-3" x1="1741.36" y1="885.83" x2="1642.7" y2="900.93"/><line class="cls-3" x1="1636.98" y1="868.92" x2="1734.76" y2="848.9"/><path class="cls-3" d="M1741.36,885.85c1.9,12.41,3.5,25,4.77,37.52"/><line class="cls-3" x1="1642.7" y1="900.91" x2="1741.36" y2="885.85"/><path class="cls-3" d="M1646.83,933.47c-1.1-10.84-2.49-21.79-4.13-32.56"/><path class="cls-3" d="M1746.13,923.39c1.28,12.63,2.26,25.43,2.9,38.06"/><line class="cls-3" x1="1646.83" y1="933.45" x2="1746.13" y2="923.39"/><path class="cls-3" d="M1649.35,966.5c-.56-11-1.41-22.08-2.52-33"/><path class="cls-3" d="M1650.19,1000c0-11.16-.29-22.43-.84-33.5"/><path class="cls-3" d="M1750,1000c0,12.84-.33,25.81-1,38.55"/><line class="cls-3" x1="1650.19" y1="1000" x2="1750" y2="1000"/><path class="cls-3" d="M1649.35,1033.5c.55-11.07.84-22.34.84-33.5"/><path class="cls-3" d="M1749,1038.55c-.64,12.63-1.62,25.43-2.9,38.06"/><line class="cls-3" x1="1649.35" y1="1033.5" x2="1749.03" y2="1038.55"/><path class="cls-3" d="M1646.83,1066.55c1.11-11,2-22.09,2.52-33"/><line class="cls-3" x1="1646.83" y1="1066.53" x2="1746.13" y2="1076.63"/><path class="cls-3" d="M1642.7,1099.09c1.64-10.77,3-21.72,4.13-32.56"/><line class="cls-3" x1="1741.36" y1="1114.15" x2="1642.7" y2="1099.09"/><line class="cls-3" x1="1642.7" y1="1099.07" x2="1741.36" y2="1114.17"/><line class="cls-3" x1="1734.76" y1="1151.1" x2="1636.98" y2="1131.08"/><path class="cls-3" d="M1734.76,1151.1c-2.48,12.17-5.31,24.38-8.37,36.3"/><line class="cls-3" x1="1636.98" y1="1131.08" x2="1734.76" y2="1151.1"/><path class="cls-3" d="M1629.73,1162.53c2.65-10.32,5.09-20.9,7.25-31.45"/><path class="cls-3" d="M1726.39,1187.4c-3.07,11.92-6.47,23.9-10.11,35.61"/><line class="cls-3" x1="1629.73" y1="1162.53" x2="1726.39" y2="1187.4"/><path class="cls-3" d="M1621,1193.37c3.15-10.15,6.1-20.52,8.76-30.84"/><line class="cls-3" x1="1716.28" y1="1223.01" x2="1620.97" y2="1193.37"/><line class="cls-3" x1="1620.97" y1="1193.37" x2="1716.28" y2="1223.01"/><line class="cls-3" x1="1704.47" y1="1257.88" x2="1610.75" y2="1223.56"/><line class="cls-3" x1="1610.75" y1="1223.56" x2="1704.47" y2="1257.88"/><path class="cls-3" d="M1599.12,1253.06c4.1-9.68,8-19.61,11.63-29.5"/><line class="cls-3" x1="1599.11" y1="1253.08" x2="1691.05" y2="1291.94"/><path class="cls-3" d="M1586.1,1281.86c4.58-9.51,9-19.19,13-28.78"/><line class="cls-3" x1="1676.02" y1="1325.18" x2="1586.1" y2="1281.86"/><path class="cls-3" d="M1571.75,1309.88c5-9.17,9.81-18.6,14.35-28"/><line class="cls-3" x1="1641.39" y1="1388.94" x2="1556.09" y2="1337.11"/><path class="cls-3" d="M1641.4,1388.93c-6.21,10.22-12.78,20.46-19.52,30.44"/><line class="cls-3" x1="1556.08" y1="1337.12" x2="1641.4" y2="1388.93"/><path class="cls-3" d="M1539.18,1363.49c5.84-8.65,11.53-17.52,16.9-26.37"/><line class="cls-3" x1="1539.17" y1="1363.5" x2="1621.89" y2="1419.36"/><path class="cls-3" d="M1521.05,1389c6.23-8.32,12.32-16.89,18.12-25.48"/><line class="cls-3" x1="1600.97" y1="1448.77" x2="1521.05" y2="1388.98"/><path class="cls-3" d="M1601,1448.77c-7.16,9.58-14.65,19.11-22.25,28.32"/><line class="cls-3" x1="1521.05" y1="1388.99" x2="1600.97" y2="1448.77"/><line class="cls-3" x1="1578.72" y1="1477.09" x2="1501.73" y2="1413.56"/><path class="cls-3" d="M1578.72,1477.09c-7.57,9.18-15.5,18.33-23.56,27.2"/><path class="cls-3" d="M1459.75,1459.76c7.34-7.35,14.59-15,21.54-22.59"/><line class="cls-3" x1="1459.75" y1="1459.75" x2="1530.33" y2="1530.33"/><line class="cls-3" x1="1437.16" y1="1481.29" x2="1504.3" y2="1555.15"/><path class="cls-3" d="M1413.56,1501.74c8-6.6,15.93-13.47,23.6-20.45"/><line class="cls-3" x1="1477.09" y1="1578.72" x2="1413.56" y2="1501.74"/><path class="cls-3" d="M1389,1521.05c8.31-6.22,16.57-12.71,24.57-19.31"/><path class="cls-3" d="M1448.77,1601c-9.6,7.17-19.49,14.21-29.41,20.91"/><path class="cls-3" d="M1363.5,1539.18c8.59-5.81,17.17-11.91,25.49-18.13"/><line class="cls-3" x1="1419.36" y1="1621.89" x2="1363.5" y2="1539.18"/><path class="cls-3" d="M1419.37,1621.88c-9.95,6.73-20.2,13.29-30.44,19.51"/><path class="cls-3" d="M1337.11,1556.09c8.88-5.39,17.75-11.08,26.38-16.91"/><line class="cls-3" x1="1388.93" y1="1641.39" x2="1337.11" y2="1556.09"/><path class="cls-3" d="M1388.94,1641.39c-10.28,6.25-20.85,12.32-31.41,18.06"/><line class="cls-3" x1="1337.11" y1="1556.09" x2="1388.94" y2="1641.39"/><path class="cls-3" d="M1309.89,1571.74c9.15-5,18.31-10.23,27.22-15.65"/><line class="cls-3" x1="1357.53" y1="1659.45" x2="1309.89" y2="1571.74"/><path class="cls-3" d="M1357.53,1659.45c-10.58,5.75-21.47,11.33-32.35,16.57"/><line class="cls-3" x1="1309.88" y1="1571.75" x2="1357.53" y2="1659.45"/><line class="cls-3" x1="1281.86" y1="1586.1" x2="1325.18" y2="1676.02"/><line class="cls-3" x1="1291.95" y1="1691.04" x2="1253.07" y2="1599.12"/><path class="cls-3" d="M1292,1691c-11.21,4.74-22.67,9.26-34.08,13.44"/><line class="cls-3" x1="1253.07" y1="1599.12" x2="1291.95" y2="1691.04"/><path class="cls-3" d="M1257.88,1704.48c-11.47,4.19-23.2,8.16-34.87,11.79"/><line class="cls-3" x1="1223.55" y1="1610.75" x2="1257.88" y2="1704.48"/><path class="cls-3" d="M1193.36,1621c10.11-3.15,20.27-6.58,30.19-10.22"/><line class="cls-3" x1="1223.01" y1="1716.27" x2="1193.36" y2="1620.97"/><path class="cls-3" d="M1223,1716.28c-11.74,3.65-23.72,7-35.61,10.11"/><line class="cls-3" x1="1187.4" y1="1726.39" x2="1162.53" y2="1629.72"/><line class="cls-3" x1="1162.53" y1="1629.72" x2="1187.4" y2="1726.39"/><path class="cls-3" d="M1131.09,1637c10.49-2.15,21.07-4.59,31.44-7.26"/><line class="cls-3" x1="1151.1" y1="1734.76" x2="1131.09" y2="1636.98"/><path class="cls-3" d="M1099.08,1642.7c10.67-1.63,21.44-3.56,32-5.72"/><line class="cls-3" x1="1114.16" y1="1741.36" x2="1099.08" y2="1642.7"/><line class="cls-3" x1="1099.08" y1="1642.7" x2="1114.16" y2="1741.36"/><path class="cls-3" d="M1076.62,1746.13c-12.58,1.28-25.39,2.25-38.07,2.9"/><line class="cls-3" x1="1066.54" y1="1646.83" x2="1076.62" y2="1746.13"/><line class="cls-3" x1="1038.55" y1="1749.03" x2="1033.5" y2="1649.34"/><path class="cls-3" d="M1038.55,1749c-12.76.64-25.73,1-38.55,1"/><line class="cls-3" x1="1000" y1="1750" x2="1000" y2="1650.19"/><line class="cls-3" x1="1000" y1="1650.19" x2="1000" y2="1750"/><path class="cls-3" d="M1000,1750c-12.82,0-25.79-.33-38.55-1"/><line class="cls-3" x1="966.5" y1="1649.34" x2="961.45" y2="1749.03"/><path class="cls-3" d="M933.46,1646.83c10.92,1.11,22,2,33,2.51"/><line class="cls-3" x1="923.38" y1="1746.13" x2="933.46" y2="1646.83"/><line class="cls-3" x1="933.46" y1="1646.83" x2="923.38" y2="1746.13"/><line class="cls-3" x1="885.84" y1="1741.36" x2="900.92" y2="1642.7"/><path class="cls-3" d="M868.91,1637c10.57,2.16,21.34,4.09,32,5.72"/><line class="cls-3" x1="848.9" y1="1734.76" x2="868.91" y2="1636.98"/><path class="cls-3" d="M885.84,1741.36c-12.31-1.88-24.74-4.1-36.94-6.6"/><line class="cls-3" x1="868.91" y1="1636.98" x2="848.9" y2="1734.76"/><line class="cls-3" x1="812.6" y1="1726.39" x2="837.47" y2="1629.72"/><path class="cls-3" d="M848.9,1734.76c-12.12-2.48-24.33-5.29-36.3-8.37"/><line class="cls-3" x1="837.47" y1="1629.72" x2="812.6" y2="1726.39"/><path class="cls-3" d="M806.63,1621c10.17,3.16,20.54,6.1,30.84,8.75"/><line class="cls-3" x1="776.99" y1="1716.28" x2="806.63" y2="1620.97"/><path class="cls-3" d="M812.6,1726.39c-11.89-3.06-23.87-6.46-35.61-10.11"/><path class="cls-3" d="M776.45,1610.75c9.92,3.64,20.08,7.07,30.19,10.22"/><line class="cls-3" x1="742.12" y1="1704.48" x2="776.45" y2="1610.75"/><line class="cls-3" x1="776.44" y1="1610.75" x2="742.13" y2="1704.48"/><path class="cls-3" d="M746.93,1599.12c9.71,4.1,19.63,8,29.51,11.63"/><line class="cls-3" x1="708.05" y1="1691.04" x2="746.93" y2="1599.12"/><path class="cls-3" d="M742.13,1704.48c-11.41-4.18-22.87-8.7-34.08-13.44"/><path class="cls-3" d="M708.05,1691c-11.14-4.71-22.32-9.76-33.23-15"/><line class="cls-3" x1="718.14" y1="1586.1" x2="674.82" y2="1676.02"/><line class="cls-3" x1="642.47" y1="1659.45" x2="690.12" y2="1571.75"/><line class="cls-3" x1="690.11" y1="1571.74" x2="642.47" y2="1659.45"/><path class="cls-3" d="M662.89,1556.09c8.91,5.42,18.07,10.68,27.22,15.65"/><path class="cls-3" d="M642.47,1659.45c-10.56-5.74-21.13-11.81-31.41-18.06"/><line class="cls-3" x1="662.89" y1="1556.09" x2="611.07" y2="1641.39"/><line class="cls-3" x1="580.63" y1="1621.88" x2="636.51" y2="1539.18"/><path class="cls-3" d="M611.07,1641.39c-10.24-6.22-20.49-12.78-30.44-19.51"/><path class="cls-3" d="M580.64,1621.89c-9.92-6.7-19.81-13.74-29.41-20.91"/><path class="cls-3" d="M586.44,1501.74c8,6.6,16.26,13.09,24.57,19.31"/><line class="cls-3" x1="522.91" y1="1578.72" x2="586.44" y2="1501.74"/><path class="cls-3" d="M562.84,1481.29c7.67,7,15.61,13.85,23.6,20.45"/><line class="cls-3" x1="495.7" y1="1555.15" x2="562.84" y2="1481.29"/><path class="cls-3" d="M522.91,1578.72c-9.21-7.6-18.37-15.53-27.21-23.57"/><line class="cls-3" x1="562.84" y1="1481.29" x2="495.71" y2="1555.16"/><path class="cls-3" d="M540.25,1459.75c7.32,7.33,14.92,14.58,22.59,21.54"/><path class="cls-3" d="M495.71,1555.16c-8.83-8-17.6-16.38-26-24.83"/><line class="cls-3" x1="540.25" y1="1459.76" x2="469.67" y2="1530.33"/><path class="cls-3" d="M518.71,1437.17c6.95,7.64,14.2,15.24,21.54,22.59"/><path class="cls-3" d="M469.67,1530.33c-8.46-8.46-16.81-17.22-24.83-26"/><path class="cls-3" d="M444.85,1504.3c-8-8.82-16-18-23.57-27.21"/><line class="cls-3" x1="498.27" y1="1413.56" x2="421.28" y2="1477.09"/><path class="cls-3" d="M479,1389c6.2,8.29,12.7,16.55,19.32,24.57"/><line class="cls-3" x1="399.02" y1="1448.77" x2="478.95" y2="1388.99"/><path class="cls-3" d="M460.82,1363.49c5.81,8.6,11.91,17.18,18.13,25.5"/><path class="cls-3" d="M399,1448.77c-7.17-9.59-14.2-19.48-20.9-29.4"/><line class="cls-3" x1="460.82" y1="1363.5" x2="378.12" y2="1419.36"/><path class="cls-3" d="M443.91,1337.11c5.4,8.89,11.09,17.77,16.91,26.39"/><path class="cls-3" d="M378.12,1419.36c-6.72-9.93-13.28-20.17-19.51-30.42"/><line class="cls-3" x1="443.91" y1="1337.11" x2="358.61" y2="1388.94"/><line class="cls-3" x1="340.55" y1="1357.53" x2="428.26" y2="1309.89"/><path class="cls-3" d="M358.61,1388.94c-6.26-10.29-12.33-20.86-18.06-31.41"/><path class="cls-3" d="M413.9,1281.85c4.54,9.43,9.37,18.86,14.36,28"/><line class="cls-3" x1="323.99" y1="1325.19" x2="413.9" y2="1281.85"/><path class="cls-3" d="M400.88,1253.06c4.09,9.67,8.47,19.36,13,28.8"/><path class="cls-3" d="M389.25,1223.56c3.62,9.88,7.53,19.81,11.63,29.51"/><line class="cls-3" x1="295.52" y1="1257.88" x2="389.25" y2="1223.56"/><line class="cls-3" x1="389.25" y1="1223.56" x2="295.52" y2="1257.88"/><line class="cls-3" x1="283.72" y1="1223.01" x2="379.03" y2="1193.37"/><path class="cls-3" d="M295.52,1257.88c-4.19-11.46-8.16-23.19-11.8-34.87"/><line class="cls-3" x1="379.03" y1="1193.37" x2="283.72" y2="1223.01"/><path class="cls-3" d="M370.28,1162.54c2.64,10.27,5.59,20.64,8.75,30.83"/><path class="cls-3" d="M363,1131.09c2.14,10.47,4.58,21.05,7.26,31.44"/><path class="cls-3" d="M273.61,1187.4c-3.08-12-5.9-24.21-8.37-36.31"/><line class="cls-3" x1="258.64" y1="1114.16" x2="357.3" y2="1099.08"/><line class="cls-3" x1="253.87" y1="1076.62" x2="353.17" y2="1066.54"/><path class="cls-3" d="M258.64,1114.15c-1.9-12.43-3.51-25.06-4.77-37.53"/><path class="cls-3" d="M350.66,1033.5c.55,11,1.4,22.13,2.51,33"/><line class="cls-3" x1="250.97" y1="1038.55" x2="350.66" y2="1033.5"/><path class="cls-3" d="M253.87,1076.63c-1.28-12.58-2.25-25.39-2.9-38.08"/><line class="cls-3" x1="350.66" y1="1033.51" x2="250.97" y2="1038.55"/><line class="cls-3" x1="250" y1="1000" x2="349.81" y2="1000"/><path class="cls-3" d="M251,1038.55c-.64-12.79-1-25.76-1-38.55"/><path class="cls-3" d="M350.66,966.49c-.56,11.12-.85,22.39-.85,33.51"/><line class="cls-3" x1="349.81" y1="1000" x2="250" y2="1000"/><path class="cls-3" d="M353.17,933.47c-1.11,10.9-2,22-2.51,33"/><path class="cls-3" d="M251,961.45c.65-12.69,1.62-25.5,2.9-38.08"/><line class="cls-3" x1="258.64" y1="885.85" x2="357.3" y2="900.91"/><path class="cls-3" d="M253.87,923.38c1.26-12.47,2.87-25.1,4.77-37.53"/><line class="cls-3" x1="353.17" y1="933.46" x2="253.87" y2="923.38"/><path class="cls-3" d="M363,868.91c-2.16,10.58-4.09,21.35-5.72,32"/><path class="cls-3" d="M258.64,885.84c1.88-12.3,4.1-24.73,6.6-36.93"/><line class="cls-3" x1="357.3" y1="900.92" x2="258.64" y2="885.84"/><path class="cls-3" d="M370.28,837.47c-2.68,10.39-5.12,21-7.26,31.44"/><path class="cls-3" d="M379,806.64c-3.16,10.18-6.11,20.55-8.75,30.82"/><line class="cls-3" x1="283.72" y1="776.99" x2="379.03" y2="806.64"/><line class="cls-3" x1="370.28" y1="837.46" x2="273.61" y2="812.61"/><path class="cls-3" d="M389.25,776.44c-3.64,9.92-7.07,20.08-10.22,30.19"/><line class="cls-3" x1="295.52" y1="742.12" x2="389.25" y2="776.44"/><path class="cls-3" d="M283.72,777c3.64-11.68,7.61-23.41,11.8-34.87"/><line class="cls-3" x1="379.03" y1="806.63" x2="283.72" y2="776.99"/><path class="cls-3" d="M400.88,746.93c-4.1,9.7-8,19.63-11.63,29.51"/><line class="cls-3" x1="308.96" y1="708.05" x2="400.88" y2="746.93"/><line class="cls-3" x1="389.25" y1="776.44" x2="295.52" y2="742.12"/><path class="cls-3" d="M413.9,718.14c-4.55,9.43-8.92,19.12-13,28.8"/><line class="cls-3" x1="323.98" y1="674.82" x2="413.9" y2="718.14"/><path class="cls-3" d="M309,708c4.72-11.16,9.78-22.33,15-33.22"/><line class="cls-3" x1="340.55" y1="642.47" x2="428.26" y2="690.12"/><path class="cls-3" d="M324,674.81c5.24-10.87,10.81-21.75,16.56-32.34"/><line class="cls-3" x1="413.9" y1="718.15" x2="323.99" y2="674.81"/><path class="cls-3" d="M443.91,662.89c-5.42,8.92-10.69,18.08-15.65,27.22"/><line class="cls-3" x1="358.61" y1="611.06" x2="443.91" y2="662.89"/><path class="cls-3" d="M340.55,642.47c5.73-10.55,11.8-21.12,18.06-31.41"/><line class="cls-3" x1="428.26" y1="690.11" x2="340.55" y2="642.47"/><path class="cls-3" d="M358.61,611.06c6.23-10.25,12.79-20.49,19.51-30.42"/><line class="cls-3" x1="399.02" y1="551.23" x2="478.95" y2="611.01"/><path class="cls-3" d="M378.12,580.63c6.7-9.92,13.73-19.81,20.9-29.4"/><path class="cls-3" d="M498.27,586.44c-6.62,8-13.12,16.28-19.32,24.57"/><line class="cls-3" x1="421.28" y1="522.91" x2="498.27" y2="586.44"/><line class="cls-3" x1="478.95" y1="611.01" x2="399.02" y2="551.24"/><path class="cls-3" d="M518.71,562.84c-7,7.65-13.84,15.59-20.45,23.6"/><line class="cls-3" x1="444.85" y1="495.7" x2="518.71" y2="562.84"/><path class="cls-3" d="M421.28,522.91c7.62-9.24,15.55-18.39,23.57-27.21"/><line class="cls-3" x1="498.26" y1="586.44" x2="421.28" y2="522.91"/><path class="cls-3" d="M540.25,540.24c-7.34,7.35-14.59,15-21.54,22.59"/><path class="cls-3" d="M562.84,518.71c-7.67,7-15.27,14.21-22.59,21.54"/><line class="cls-3" x1="495.71" y1="444.84" x2="562.84" y2="518.71"/><path class="cls-3" d="M469.67,469.67c8.44-8.45,17.21-16.8,26-24.83"/><line class="cls-3" x1="522.91" y1="421.28" x2="586.44" y2="498.26"/><path class="cls-3" d="M611,479c-8.31,6.22-16.57,12.71-24.57,19.31"/><path class="cls-3" d="M636.5,460.83c-8.59,5.8-17.17,11.9-25.49,18.12"/><path class="cls-3" d="M551.23,399c9.6-7.17,19.49-14.21,29.41-20.91"/><path class="cls-3" d="M662.89,443.91C654,449.3,645.14,455,636.51,460.82"/><line class="cls-3" x1="611.07" y1="358.61" x2="662.89" y2="443.91"/><path class="cls-3" d="M580.63,378.12c10-6.73,20.2-13.29,30.44-19.51"/><path class="cls-3" d="M690.11,428.26c-9.15,5-18.31,10.23-27.22,15.65"/><line class="cls-3" x1="642.47" y1="340.55" x2="690.11" y2="428.26"/><path class="cls-3" d="M611.06,358.61c10.28-6.25,20.85-12.32,31.41-18.06"/><path class="cls-3" d="M718.14,413.9c-9.42,4.54-18.85,9.37-28,14.35"/><line class="cls-3" x1="674.82" y1="323.98" x2="718.14" y2="413.9"/><path class="cls-3" d="M746.93,400.89c-9.65,4.07-19.33,8.45-28.79,13"/><line class="cls-3" x1="718.14" y1="413.9" x2="674.82" y2="323.98"/><line class="cls-3" x1="742.13" y1="295.52" x2="776.44" y2="389.25"/><path class="cls-3" d="M708.05,309c11.2-4.74,22.67-9.26,34.08-13.44"/><line class="cls-3" x1="746.93" y1="400.88" x2="708.05" y2="308.96"/><path class="cls-3" d="M806.64,379c-10.11,3.15-20.27,6.58-30.2,10.22"/><line class="cls-3" x1="776.99" y1="283.73" x2="806.64" y2="379.03"/><line class="cls-3" x1="776.44" y1="389.25" x2="742.13" y2="295.52"/><line class="cls-3" x1="812.6" y1="273.61" x2="837.47" y2="370.28"/><line class="cls-3" x1="806.63" y1="379.03" x2="776.99" y2="283.73"/><line class="cls-3" x1="837.47" y1="370.28" x2="812.6" y2="273.61"/><line class="cls-3" x1="885.85" y1="258.64" x2="900.92" y2="357.3"/><path class="cls-3" d="M848.9,265.24c12.2-2.5,24.63-4.72,37-6.6"/><path class="cls-3" d="M933.46,353.17c-10.84,1.1-21.79,2.49-32.54,4.13"/><line class="cls-3" x1="923.38" y1="253.87" x2="933.46" y2="353.17"/><path class="cls-3" d="M885.85,258.64c12.39-1.9,25-3.5,37.53-4.77"/><line class="cls-3" x1="900.92" y1="357.3" x2="885.85" y2="258.64"/><path class="cls-3" d="M966.5,350.66c-11,.55-22.11,1.4-33,2.51"/><line class="cls-3" x1="961.45" y1="250.97" x2="966.5" y2="350.66"/><line class="cls-3" x1="933.46" y1="353.17" x2="923.38" y2="253.87"/><path class="cls-3" d="M1000,349.81c-11.14,0-22.42.29-33.5.85"/><line class="cls-3" x1="1000" y1="250" x2="1000" y2="349.81"/><path class="cls-3" d="M961.45,251c12.76-.64,25.73-1,38.55-1"/><line class="cls-3" x1="966.5" y1="350.66" x2="961.45" y2="250.97"/></svg>