<svg id="Circular_element" data-name="Circular element" xmlns="http://www.w3.org/2000/svg" viewBox="0 0 2000 2000"><defs><style>.cls-1,.cls-10,.cls-11,.cls-12,.cls-13,.cls-14,.cls-15,.cls-16,.cls-17,.cls-18,.cls-19,.cls-2,.cls-20,.cls-21,.cls-22,.cls-23,.cls-24,.cls-25,.cls-26,.cls-27,.cls-28,.cls-3,.cls-4,.cls-5,.cls-6,.cls-7,.cls-8,.cls-9{fill:none;stroke-miterlimit:10;}.cls-1,.cls-10,.cls-11,.cls-12,.cls-13,.cls-14,.cls-15,.cls-16,.cls-17,.cls-18,.cls-19,.cls-2,.cls-21,.cls-22,.cls-24,.cls-25,.cls-26,.cls-27,.cls-28,.cls-3,.cls-4,.cls-5,.cls-6,.cls-7,.cls-8,.cls-9{stroke:#fff;}.cls-1,.cls-10,.cls-13,.cls-17,.cls-21,.cls-25,.cls-4,.cls-7{stroke-width:1.5px;}.cls-1,.cls-10,.cls-11,.cls-12,.cls-2,.cls-3,.cls-4,.cls-5,.cls-6,.cls-7,.cls-8,.cls-9{stroke-dasharray:3 6;}.cls-1{opacity:0.36;}.cls-11,.cls-14,.cls-18,.cls-2,.cls-22,.cls-26,.cls-5,.cls-8{stroke-width:9px;}.cls-2{opacity:0.95;}.cls-3{stroke-width:30px;opacity:0.85;}.cls-4{opacity:0.1;}.cls-5{opacity:0.51;}.cls-6{stroke-width:24px;opacity:0.11;}.cls-7{opacity:0.46;}.cls-8{opacity:0.51;}.cls-15,.cls-19,.cls-23,.cls-27,.cls-9{stroke-width:45px;}.cls-9{opacity:0.98;}.cls-10{opacity:0.11;}.cls-11{opacity:0.63;}.cls-12{stroke-width:27px;opacity:0.41;}.cls-13{opacity:0.62;}.cls-14{opacity:0.86;}.cls-15{opacity:0.42;}.cls-16,.cls-20,.cls-24,.cls-28{stroke-width:75px;}.cls-16{opacity:0.3;}.cls-17{opacity:0.28;}.cls-18{opacity:0.94;}.cls-19{opacity:0.26;}.cls-20,.cls-23{stroke:#dd1920;}.cls-20{opacity:0.83;}.cls-21{opacity:0.34;}.cls-22{opacity:1;}.cls-23{opacity:0.82;}.cls-24{opacity:0.58;}.cls-25{opacity:0.69;}.cls-26{opacity:0.45;}.cls-27{opacity:0.51;}.cls-28{opacity:0.18;}</style></defs><circle class="cls-1" cx="999.99" cy="999.99" r="749.98"/><path class="cls-2" d="M1555.36,496c278.37,306.72,255.37,781-51.34,1059.42S723,1810.75,444.63,1504"/><path class="cls-3" d="M1504,444.62C1810.73,723,1833.73,1197.31,1555.36,1504"/><circle class="cls-4" cx="999.99" cy="999.99" r="674.98"/><path class="cls-5" d="M711.14,389.93c336.94-159.52,739.39-15.7,898.9,321.21s15.7,739.39-321.2,898.91"/><path class="cls-6" d="M1610,1288.85a675,675,0,0,1-898.9,321.2"/><circle class="cls-7" cx="999.99" cy="999.99" r="599.99"/><path class="cls-8" d="M1295.4,477.77c288.42,163.15,390,529.22,226.8,817.63s-529.21,390-817.61,226.81"/><path class="cls-9" d="M1522.2,704.58c163.17,288.41,61.62,654.48-226.8,817.63"/><circle class="cls-10" cx="999.99" cy="999.99" r="524.99"/><path class="cls-11" d="M1343.3,1397.18c-219.34,189.6-550.87,165.48-740.49-53.88S437.33,792.42,656.69,602.8"/><path class="cls-12" d="M602.81,656.68A525,525,0,0,1,1343.3,602.8"/><circle class="cls-13" cx="1000" cy="1000.01" r="749.98"/><path class="cls-14" d="M250.89,963.71c20-413.72,371.69-732.86,785.41-712.82s732.84,371.7,712.81,785.42"/><path class="cls-15" d="M250.89,1036.31C230.86,622.59,550,270.93,963.7,250.89"/><path class="cls-16" d="M981.85,1749.79a750.33,750.33,0,0,1-372.44-109.53"/><circle class="cls-17" cx="1000" cy="1000.01" r="674.98"/><path class="cls-18" d="M772.88,1635.64c-351-125.46-533.93-511.73-408.5-862.75S876.1,239,1227.12,364.38"/><path class="cls-19" d="M772.88,364.38a675,675,0,0,1,862.74,408.51"/><path class="cls-20" d="M1388.76,1551.79a675,675,0,0,1-328,120.48"/><circle class="cls-21" cx="1000" cy="1000.01" r="599.99"/><path class="cls-22" d="M421.86,1160.39c-88.59-319.32,98.46-650,417.77-738.53s649.95,98.46,738.51,417.77"/><path class="cls-23" d="M421.86,839.63c88.56-319.31,419.21-506.36,738.51-417.77"/><path class="cls-24" d="M1080.94,1594.51a599.84,599.84,0,0,1-308.09-39.18"/><circle class="cls-25" cx="1000" cy="1000.01" r="524.99"/><path class="cls-26" d="M1038.1,476.4c289.16,21,506.53,272.52,485.5,561.71s-272.51,506.54-561.7,485.51"/><path class="cls-27" d="M1038.1,1523.62a525,525,0,0,1-561.7-485.51"/><path class="cls-28" d="M615.56,1357.52A524.92,524.92,0,0,1,488.31,1117.4"/></svg>