<svg id="Circular_element" data-name="Circular element" xmlns="http://www.w3.org/2000/svg" viewBox="0 0 2000 2000"><defs><style>.cls-1,.cls-2{fill:none;stroke-width:3px;}.cls-1{stroke:#dd1920;}.cls-2{stroke:#fff;}.cls-3{fill:#dd1920;}</style></defs><path id="path717" class="cls-1" d="M281.35,1220.69C225.51,1038.87,502,792.67,898.9,670.78s763.92-73.29,819.75,108.53"/><g id="g741"><g id="g737"><ellipse id="path713" class="cls-2" cx="1000" cy="1000" rx="751.78" ry="42.99" transform="matrix(0.04, -1, 1, 0.04, -39.27, 1959.12)"/><ellipse id="path715" class="cls-2" cx="1000" cy="1000" rx="751.78" ry="200.52" transform="translate(-174.81 1787.29) rotate(-78.83)"/><ellipse id="path719" class="cls-2" cx="1000" cy="1000" rx="751.78" ry="464.79" transform="translate(-385.42 1283.94) rotate(-56.58)"/><ellipse id="path721" class="cls-2" cx="1000" cy="1000" rx="751.78" ry="553.52" transform="translate(-409.61 885.98) rotate(-40.38)"/><ellipse id="path723" class="cls-2" cx="1000" cy="1000" rx="751.78" ry="604.53" transform="translate(-268.05 373.87) rotate(-18.72)"/><ellipse id="path725" class="cls-2" cx="1000" cy="1000" rx="614.35" ry="751.78" transform="translate(-113.67 1871.63) rotate(-83.05)"/><ellipse id="path727" class="cls-2" cx="1000" cy="1000" rx="582.3" ry="751.78" transform="translate(-372.07 1342.68) rotate(-59.02)"/><ellipse id="path729" class="cls-2" cx="1000" cy="1000" rx="510.56" ry="751.78" transform="translate(-409.61 886.01) rotate(-40.38)"/><ellipse id="path731" class="cls-2" cx="1000" cy="1000" rx="404.04" ry="751.78" transform="translate(-341.14 551.29) rotate(-26.5)"/><ellipse id="path733" class="cls-2" cx="1000" cy="1000" rx="269.99" ry="751.78" transform="translate(-232.43 306.38) rotate(-15.63)"/><ellipse id="path735" class="cls-2" cx="1000" cy="1000" rx="117.53" ry="751.78" transform="translate(-104.65 116.96) rotate(-6.36)"/></g></g><g id="path717-2" data-name="path717"><path class="cls-3" d="M1718.65,779.31a170.89,170.89,0,0,1,6.3,27.13l.85,6.94c.24,2.31.35,4.64.53,7s.22,4.66.26,7,.14,4.67,0,7a208.26,208.26,0,0,1-9.14,55.12l-2.1,6.69c-.72,2.22-1.56,4.4-2.33,6.61l-1.18,3.3c-.39,1.1-.86,2.17-1.29,3.26l-2.62,6.51-2.84,6.41-1.42,3.2c-.49,1.06-1,2.1-1.53,3.16l-3.07,6.3c-1.06,2.08-2.17,4.14-3.25,6.21A393.73,393.73,0,0,1,1666,988.51c-22,30.22-47.51,57.75-74.75,83.24a866,866,0,0,1-86.74,70.65,1105.79,1105.79,0,0,1-94,60.53q-24.23,14-49,26.94t-50.06,24.91c-33.69,16-68.05,30.48-102.82,43.88-17.38,6.71-34.91,13-52.51,19.16s-35.33,11.84-53.12,17.38-35.73,10.59-53.72,15.44-36.06,9.41-54.22,13.61c-36.3,8.43-72.89,15.67-109.72,21.4q-27.64,4.24-55.41,7.48t-55.68,5.2A1103.32,1103.32,0,0,1,662.38,1401a868.77,868.77,0,0,1-111.44-9.78c-36.86-5.82-73.4-14.31-108.59-27A393.16,393.16,0,0,1,391,1341.8c-2.06-1.11-4.14-2.19-6.18-3.31l-6.08-3.5c-1-.59-2-1.16-3-1.76l-3-1.85-5.95-3.71-5.82-3.91c-1-.66-1.95-1.29-2.89-2l-2.84-2.07c-1.87-1.39-3.79-2.73-5.63-4.17l-5.5-4.35a208.38,208.38,0,0,1-38.49-40.5c-1.42-1.86-2.64-3.85-3.92-5.8S299.15,1261,298,1259s-2.37-4-3.47-6.06l-3.19-6.22a170.88,170.88,0,0,1-10-26,177.66,177.66,0,0,0,10.89,25.55l3.36,6.07c1.16,2,2.43,3.93,3.65,5.9s2.53,3.86,3.86,5.75,2.6,3.82,4.06,5.61a206.18,206.18,0,0,0,39.13,38.89l5.53,4.14c1.85,1.37,3.78,2.63,5.67,4,3.75,2.68,7.71,5,11.57,7.56l5.95,3.52,3,1.76c1,.57,2,1.11,3,1.66l6.07,3.31c2,1.06,4.11,2.08,6.17,3.12a388.74,388.74,0,0,0,51.12,21,535.58,535.58,0,0,0,53.28,14.84c18,4,36.2,7.25,54.49,9.79a888.44,888.44,0,0,0,110.44,8.14c73.9.89,147.85-5.41,220.83-17.31a1601.18,1601.18,0,0,0,215.84-50.71,1601.62,1601.62,0,0,0,207.11-79.16c67.07-31.12,131.82-67.39,192.49-109.61a890.59,890.59,0,0,0,86.84-68.72c13.71-12.37,27-25.24,39.6-38.69a540.38,540.38,0,0,0,35.77-42.19,387.77,387.77,0,0,0,30.52-46.08c1.11-2,2.26-4,3.35-6l3.17-6.14c.52-1,1.06-2.05,1.57-3.08l1.48-3.12,2.94-6.26c1.79-4.24,3.74-8.43,5.34-12.75.82-2.15,1.71-4.28,2.47-6.45l2.26-6.53a205.7,205.7,0,0,0,10.54-54.15c.21-2.31.18-4.62.22-6.93s.11-4.62,0-6.92-.13-4.63-.29-6.93l-.63-6.91A177.46,177.46,0,0,0,1718.65,779.31Z"/></g></svg>