<svg id="Circular_element" data-name="Circular element" xmlns="http://www.w3.org/2000/svg" viewBox="0 0 2000 2000"><defs><style>.cls-1{opacity:0.5;}.cls-10,.cls-11,.cls-12,.cls-13,.cls-14,.cls-15,.cls-2,.cls-4,.cls-5,.cls-6,.cls-7,.cls-8,.cls-9{fill:#fff;}.cls-2{opacity:0.41;}.cls-3{fill:#dd1920;}.cls-4{opacity:0.43;}.cls-5{opacity:0.2;}.cls-6{opacity:0.53;}.cls-7{opacity:0.72;}.cls-8{opacity:0.25;}.cls-9{opacity:0.78;}.cls-10{opacity:0.52;}.cls-11{opacity:0.46;}.cls-12{opacity:0.39;}.cls-13{opacity:0.71;}.cls-14{opacity:0.73;}.cls-15{opacity:0.61;}</style></defs><g class="cls-1"><path class="cls-2" d="M449.84,1431.33a698.73,698.73,0,0,0,55.21,62l-36.21,36.13a751.88,751.88,0,0,1-59.15-66.58Z"/><path class="cls-3" d="M369.59,1406.75,412.51,1379c-7.3-11.4-14.29-23.09-21-35l-44.44,25.15Q357.82,1388.36,369.59,1406.75Z"/><path class="cls-4" d="M1688.61,880.51a699.36,699.36,0,0,1,7.6,182l50.86,4.56a751.69,751.69,0,0,0-114.69-470.53L1589.27,624A696.61,696.61,0,0,1,1688.61,880.51Z"/><path class="cls-5" d="M462.8,553.25,423.52,520.6A752.48,752.48,0,0,0,309.16,708.48l47,19.86A701.89,701.89,0,0,1,462.8,553.25Z"/><path class="cls-6" d="M506.11,505.8A695.78,695.78,0,0,1,652.35,393.58l-25.41-44.32a747.84,747.84,0,0,0-157,120.4Z"/><path class="cls-7" d="M861.43,1685.14l-10.09,50.07a745.91,745.91,0,0,0,184,13.92l-2.36-51A694.9,694.9,0,0,1,861.43,1685.14Z"/><path class="cls-8" d="M1290.22,1636a700.14,700.14,0,0,1-170.67,52.7c-21.92,3.8-43.81,6.42-65.58,8.13l3.93,51c23.38-1.86,46.85-4.68,70.39-8.77a749.81,749.81,0,0,0,183.13-56.54Z"/><path class="cls-9" d="M989.1,301.21c155.29-2.63,302.78,46.88,422.73,134.39l30.1-41.28c-128.75-93.88-287-147-453.64-144.21Z"/><path class="cls-10" d="M1489.1,500.94a706.88,706.88,0,0,1,54.12,59.34l39.68-32.14a756.34,756.34,0,0,0-58.09-63.7Z"/><path class="cls-11" d="M815.09,326.12c21.32-5.84,43.1-10.77,65.31-14.63,14.9-2.59,29.76-4.5,44.53-6.14l-5.49-50.78c-15.82,1.72-31.81,3.79-47.78,6.56-23.8,4.13-47.24,9.5-70.15,15.75Z"/><path class="cls-12" d="M840.89,1680.82a700.9,700.9,0,0,1-283.09-139.7l-32.26,39.54a751.41,751.41,0,0,0,303.73,149.91Z"/><path class="cls-13" d="M323.65,824.27a690.75,690.75,0,0,1,24.5-76.49L300.5,729.3a764.25,764.25,0,0,0-26.35,82.1Z"/><path class="cls-14" d="M311.41,1119.66A695.49,695.49,0,0,1,316,856.47L266,846a747.53,747.53,0,0,0-4.95,282.42c3.89,22.4,8.88,44.28,14.61,65.8L325.05,1181C319.69,1160.93,315,1140.49,311.41,1119.66Z"/><path class="cls-15" d="M1687.66,1126.13A698.93,698.93,0,0,1,1625,1312.9l45.65,22.88a748.14,748.14,0,0,0,67.25-200.41Z"/></g><path class="cls-3" d="M1556.16,576.84q11.11,14.52,21.42,29.69l42.19-28.76c-7.43-10.85-15-21.46-23-31.85Z"/></svg>