<svg id="Circular_element" data-name="Circular element" xmlns="http://www.w3.org/2000/svg" viewBox="0 0 2000 2000"><defs><style>.cls-1,.cls-2,.cls-3{fill:none;stroke-linecap:round;stroke-linejoin:round;}.cls-1{stroke:#dd1920;stroke-width:3.13px;}.cls-2,.cls-3{stroke:#fff;}.cls-2{stroke-width:6.25px;}.cls-3{stroke-width:12.5px;}</style></defs><polyline class="cls-1" points="582.14 371.9 608.06 355.25 635.42 339.72 664.11 325.34 694.02 312.17 725.02 300.25 757 289.64 789.79 280.35 823.3 272.42 857.38 265.87 891.88 260.71 926.68 256.97 961.63 254.64 996.59 253.73 1031.44 254.24 1066.01 256.14 1100.19 259.44 1133.85 264.11 1166.83 270.11 1199.03 277.41 1230.3 285.99 1260.55 295.8 1289.63 306.78 1317.46 318.9 1343.9 332.1"/><polyline class="cls-1" points="402.39 539.48 421.75 515.08 443.33 491.53 467.05 468.93 492.81 447.35 520.49 426.87 550.01 407.58 581.22 389.53 613.99 372.8 648.2 357.44 683.72 343.5 720.38 331.05 758.06 320.11 796.59 310.73 835.82 302.92 875.6 296.73 915.76 292.15 956.14 289.21 996.6 287.92 1036.96 288.25 1077.06 290.21 1116.74 293.79 1155.86 298.95 1194.26 305.68 1231.79 313.92 1268.29 323.67 1303.64 334.85 1337.68 347.42 1370.29 361.31 1401.35 376.49 1430.75 392.86 1458.34 410.37 1484.05 428.94 1507.76 448.48 1529.4 468.9"/><polyline class="cls-1" points="302.92 711.49 315.89 682.72 331.53 654.55 349.78 627.07 370.56 600.41 393.79 574.66 419.37 549.9 447.19 526.24 477.15 503.77 509.12 482.56 542.97 462.7 578.57 444.25 615.78 427.29 654.43 411.88 694.4 398.06 735.48 385.89 777.56 375.41 820.45 366.66 863.96 359.66 907.94 354.44 952.21 351 996.6 349.36 1040.92 349.52 1085 351.45 1128.68 355.17 1171.76 360.63 1214.09 367.82 1255.51 376.7 1295.84 387.23 1334.93 399.35 1372.63 413.01 1408.79 428.16 1443.27 444.73 1475.92 462.64 1506.63 481.82 1535.3 502.18 1561.78 523.65 1585.99 546.12 1607.85 569.51 1627.25 593.71 1644.13 618.64 1658.42 644.17"/><polyline class="cls-1" points="251.62 909.59 256.17 878.46 263.66 847.58 274.04 817.07 287.25 787.04 303.28 757.61 322.03 728.89 343.44 700.99 367.41 674.01 393.87 648.07 422.69 623.24 453.77 599.63 486.97 577.32 522.16 556.41 559.21 536.96 597.99 519.04 638.3 502.74 680.01 488.1 722.96 475.17 766.95 464 811.84 454.63 857.42 447.1 903.53 441.43 949.98 437.62 996.59 435.7 1043.18 435.66 1089.55 437.51 1135.53 441.22 1180.92 446.77 1225.57 454.16 1269.28 463.32 1311.88 474.22 1353.22 486.83 1393.12 501.06 1431.43 516.87 1468 534.2 1502.67 552.96 1535.33 573.07 1565.84 594.46 1594.07 617.02 1619.93 640.67 1643.31 665.31 1664.12 690.84 1682.28 717.14 1697.71 744.11 1710.36 771.64 1720.19 799.62 1727.15 827.92"/><polyline class="cls-1" points="256.18 1115.93 251.62 1084.8 250 1053.54 251.33 1022.27 255.6 991.11 262.81 960.17 272.92 929.58 285.88 899.44 301.67 869.89 320.2 841.02 341.41 812.96 365.22 785.79 391.53 759.64 420.24 734.6 451.24 710.76 484.39 688.22 519.59 667.05 556.67 647.35 595.5 629.17 635.93 612.61 677.8 597.7 720.94 584.5 765.17 573.08 810.32 563.46 856.24 555.67 902.7 549.76 949.54 545.74 996.59 543.62 1043.65 543.4 1090.53 545.07 1137.04 548.64 1183 554.08 1228.25 561.36 1272.57 570.46 1315.82 581.32 1357.81 593.91 1398.39 608.17 1437.37 624.05 1474.62 641.47 1509.99 660.35 1543.32 680.63 1574.51 702.21 1603.41 725.01 1629.92 748.93 1653.93 773.88 1675.34 799.73 1694.07 826.4 1710.06 853.79 1723.22 881.76 1733.51 910.2 1740.88 939 1745.33 968.03 1746.81 997.2"/><polyline class="cls-1" points="315.89 1311.67 302.92 1282.9 292.68 1253.64 285.21 1224.01 280.54 1194.11 278.69 1164.07 279.68 1133.99 283.5 1103.98 290.16 1074.17 299.6 1044.68 311.82 1015.6 326.76 987.05 344.37 959.15 364.56 932 387.29 905.7 412.44 880.35 439.94 856.05 469.67 832.9 501.51 810.99 535.34 790.38 571.03 771.18 608.45 753.45 647.43 737.25 687.84 722.64 729.51 709.7 772.28 698.45 815.98 688.94 860.43 681.22 905.48 675.3 950.92 671.21 996.59 668.97 1042.31 668.56 1087.9 670.01 1133.15 673.29 1177.93 678.4 1222.02 685.31 1265.26 693.99 1307.49 704.4 1348.52 716.5 1388.19 730.24 1426.37 745.56 1462.87 762.4 1497.57 780.69 1530.3 800.35 1560.97 821.3 1589.43 843.45 1615.57 866.72 1639.29 891.01 1660.48 916.22 1679.07 942.24 1694.98 968.97 1708.14 996.3 1718.5 1024.12 1726.02 1052.31 1730.65 1080.76 1732.39 1109.35 1731.22 1137.96 1727.16 1166.46 1720.19 1194.77"/><polyline class="cls-1" points="421.74 1479.31 402.39 1454.9 385.34 1429.74 370.68 1403.9 358.47 1377.5 348.75 1350.62 341.56 1323.37 336.97 1295.86 334.97 1268.18 335.58 1240.45 338.81 1212.75 344.65 1185.22 353.08 1157.96 364.08 1131.05 377.6 1104.61 393.6 1078.74 412.01 1053.55 432.78 1029.11 455.81 1005.55 481.03 982.93 508.35 961.36 537.65 940.91 568.82 921.66 601.75 903.7 636.3 887.08 672.34 871.88 709.75 858.15 748.34 845.93 788.01 835.3 828.57 826.28 869.87 818.9 911.76 813.21 954.05 809.21 996.59 806.93 1039.22 806.36 1081.76 807.52 1124.03 810.4 1165.87 814.98 1207.12 821.25 1247.63 829.17 1287.2 838.73 1325.7 849.87 1362.96 862.56 1398.85 876.75 1433.2 892.36 1465.88 909.34 1496.78 927.63 1525.74 947.14 1552.66 967.8 1577.43 989.53 1599.94 1012.23 1620.11 1035.81 1637.84 1060.18 1653.06 1085.24 1665.71 1110.88 1675.75 1137.01 1683.11 1163.5 1687.77 1190.27 1689.7 1217.18 1688.89 1244.14 1685.34 1271.04 1679.07 1297.75 1670.09 1324.19 1658.42 1350.22 1644.13 1375.75"/><polyline class="cls-1" points="608.05 1639.13 582.14 1622.49 557.78 1604.8 535.08 1586.13 514.13 1566.54 495.03 1546.11 477.84 1524.91 462.65 1503.02 449.53 1480.52 438.53 1457.49 429.71 1434.02 423.11 1410.2 418.75 1386.13 416.68 1361.88 416.88 1337.55 419.4 1313.25 424.2 1289.05 431.29 1265.05 440.65 1241.35 452.22 1218.04 466 1195.2 481.92 1172.93 499.93 1151.31 519.96 1130.43 541.95 1110.37 565.8 1091.19 591.42 1073 618.75 1055.85 647.64 1039.81 678 1024.96 709.72 1011.33 742.67 998.99 776.72 987.99 811.76 978.37 847.62 970.18 884.18 963.45 921.29 958.19 958.82 954.43 996.59 952.2 1034.48 951.49 1072.33 952.32 1110 954.68 1147.32 958.56 1184.15 963.94 1220.34 970.82 1255.75 979.15 1290.23 988.91 1323.65 1000.06 1355.87 1012.56 1386.76 1026.34 1416.18 1041.37 1444.03 1057.58 1470.18 1074.91 1494.52 1093.28 1516.96 1112.63 1537.4 1132.87 1555.77 1153.92 1571.96 1175.7 1585.92 1198.13 1597.59 1221.1 1606.9 1244.52 1613.82 1268.31 1618.32 1292.36 1620.37 1316.57 1619.96 1340.84 1617.07 1365.09 1611.72 1389.19 1603.92 1413.07 1593.7 1436.61 1581.09 1459.71 1566.14 1482.28 1548.88 1504.24 1529.4 1525.49 1507.77 1545.91"/><polyline class="cls-1" points="996.59 1572.05 998.06 1572.11 999.52 1572.28 1000.93 1572.57 1002.31 1572.98 1003.6 1573.48 1004.81 1574.1 1005.92 1574.82 1006.92 1575.63 1007.79 1576.53 1008.51 1577.51 1009.08 1578.56 1009.48 1579.67 1009.71 1580.84 1009.75 1582.05 1009.58 1583.3 1009.22 1584.56 1008.65 1585.84 1007.89 1587.12 1006.89 1588.38 1005.7 1589.62 1004.28 1590.83 1002.66 1591.98 1000.84 1593.07 998.82 1594.1 996.59 1595.03 994.2 1595.87 991.62 1596.6 988.87 1597.22 985.98 1597.71 982.95 1598.07 979.8 1598.27 976.54 1598.33 973.19 1598.22 969.78 1597.94 966.31 1597.49 962.83 1596.87 959.32 1596.06 955.83 1595.07 952.37 1593.89 948.97 1592.53 945.66 1590.98 942.44 1589.25 939.35 1587.33 936.41 1585.23 933.64 1582.96 931.06 1580.53 928.68 1577.94 926.55 1575.19 924.66 1572.31 923.07 1569.28 921.75 1566.14 920.73 1562.89 920.05 1559.55 919.69 1556.13 919.69 1552.63 920.05 1549.1 920.78 1545.52 921.89 1541.92 923.38 1538.32 925.25 1534.75 927.52 1531.19 930.18 1527.7 933.23 1524.28 936.66 1520.94 940.47 1517.71 944.64 1514.6 949.19 1511.64 954.07 1508.84 959.3 1506.21 964.83 1503.78 970.67 1501.55 976.79 1499.56 983.16 1497.8 989.77 1496.29 996.59 1495.05 1003.6 1494.09 1010.75 1493.42 1018.04 1493.04 1025.42 1492.97 1032.86 1493.22 1040.33 1493.77 1047.8 1494.65 1055.23 1495.86 1062.6 1497.39 1069.85 1499.24 1076.96 1501.42 1083.89 1503.91 1090.62 1506.72 1097.1 1509.84 1103.29 1513.26 1109.17 1516.96 1114.71 1520.95 1119.86 1525.2 1124.61 1529.7 1128.91 1534.44 1132.75 1539.39 1136.1 1544.54 1138.93 1549.88 1141.22 1555.38 1142.95 1561.01 1144.1 1566.75 1144.67 1572.59 1144.62 1578.49 1143.95 1584.44 1142.65 1590.39 1140.72 1596.34 1138.16 1602.25 1134.96 1608.09 1131.13 1613.84 1126.67 1619.46 1121.59 1624.94 1115.89 1630.24 1109.6 1635.34 1102.75 1640.22 1095.32 1644.83 1087.36 1649.17 1078.9 1653.21 1069.94 1656.92 1060.54 1660.28 1050.72 1663.27 1040.51 1665.87 1029.95 1668.06 1019.09 1669.83 1007.95 1671.16 996.59 1672.03 985.06 1672.44 973.4 1672.37 961.63 1671.83 949.84 1670.79 938.06 1669.26 926.34 1667.23 914.73 1664.72 903.28 1661.7 892.05 1658.19 881.07 1654.21 870.41 1649.75 860.11 1644.83 850.22 1639.46 840.78 1633.66 831.85 1627.43 823.46 1620.81 815.67 1613.81 808.49 1606.45 801.99 1598.77 796.19 1590.78 791.13 1582.51 786.84 1574 783.34 1565.28 780.66 1556.36 778.83 1547.3 777.85 1538.13 777.74 1528.87 778.53 1519.56 780.21 1510.25 782.79 1500.97 786.26 1491.75 790.64 1482.64 795.9 1473.67 802.04 1464.88 809.04 1456.31 816.89 1447.98 825.56 1439.95 835.03 1432.24 845.25 1424.88 856.22 1417.92 867.88 1411.38 880.19 1405.29 893.13 1399.69 906.63 1394.59 920.64 1390.02 935.12 1386.01 950.02 1382.59 965.26 1379.75 980.81 1377.54 996.59 1375.95 1012.56 1374.99 1028.62 1374.69 1044.73 1375.05 1060.83 1376.07 1076.84 1377.74 1092.69 1380.07 1108.34 1383.07 1123.68 1386.71 1138.68 1390.98 1153.28 1395.89 1167.39 1401.4 1180.95 1407.51 1193.92 1414.19 1206.22 1421.42 1217.8 1429.17 1228.62 1437.42 1238.6 1446.14 1247.72 1455.29 1255.92 1464.84 1263.15 1474.74 1269.39 1484.97 1274.59 1495.48 1278.72 1506.24 1281.76 1517.19 1283.69 1528.3 1284.48 1539.51 1284.12 1550.78 1282.61 1562.07 1279.94 1573.33 1276.09 1584.5 1271.1 1595.54 1264.96 1606.42 1257.69 1617.07 1249.3 1627.44 1239.83 1637.5 1229.29 1647.19 1217.72 1656.48 1205.17 1665.32 1191.66 1673.66 1177.27 1681.48 1162.02 1688.72 1145.97 1695.36 1129.18 1701.36 1111.73 1706.69 1093.65 1711.31 1075.04 1715.21 1055.95 1718.36 1036.47 1720.73 1016.65 1722.32 996.59 1723.1 976.37 1723.06 956.06 1722.2 935.74 1720.51 915.5 1717.98 895.42 1714.63 875.58 1710.45 856.07 1705.45 836.96 1699.64 818.33 1693.04 800.27 1685.68 782.86 1677.56 766.14 1668.72 750.24 1659.17 735.18 1648.96 721.05 1638.12 707.92 1626.68 695.84 1614.68 684.87 1602.17 675.05 1589.19 666.45 1575.78 659.11 1562 653.05 1547.9 648.31 1533.52 644.94 1518.93 642.96 1504.17 642.35 1489.31 643.16 1474.4 645.39 1459.49 649.03 1444.66 654.1 1429.94 660.56 1415.4 668.41 1401.1 677.62 1387.1 688.17 1373.46 700.03 1360.22 713.16 1347.44 727.51 1335.18 743.03 1323.48 759.67 1312.39 777.36 1301.96 796.06 1292.24 815.68 1283.26 836.16 1275.07 857.41 1267.69 879.37 1261.17 901.93 1255.53 925.04 1250.81 948.57 1247.01 972.46 1244.16 996.59 1242.28 1020.89 1241.38 1045.25 1241.46 1069.57 1242.54 1093.77 1244.6 1117.72 1247.64 1141.36 1251.66 1164.57 1256.65 1187.25 1262.59 1209.32 1269.45 1230.68 1277.22 1251.24 1285.85 1270.92 1295.34 1289.63 1305.63 1307.29 1316.7 1323.81 1328.49 1339.14 1340.97 1353.21 1354.08 1365.93 1367.77 1377.26 1381.99 1387.15 1396.69 1395.54 1411.81 1402.39 1427.28 1407.67 1443.03 1411.35 1459.02 1413.39 1475.17 1413.79 1491.42 1412.53 1507.7 1409.61 1523.94 1405.03 1540.07 1398.8 1556.04 1390.93 1571.76 1381.44 1587.18 1370.38 1602.22 1357.76 1616.83 1343.63 1630.92 1328.05 1644.47 1311.05 1657.39 1292.72 1669.62 1273.09 1681.12 1252.27 1691.83 1230.32 1701.7 1207.31 1710.69 1183.33 1718.75 1158.48 1725.83 1132.87 1731.92 1106.55 1736.96 1079.67 1740.94 1052.31 1743.84 1024.58 1745.61 996.59 1746.27 968.46 1745.79 940.29 1744.16 912.19 1741.39 884.28 1737.48 856.68 1732.42 829.48 1726.25 802.8 1718.97 776.77 1710.59 751.47 1701.16 727.01 1690.69 703.5 1679.22 681.04 1666.79 659.72 1653.44 639.62 1639.22 620.85 1624.17 603.47 1608.35 587.57 1591.82 573.21 1574.63 560.47 1556.86 549.4 1538.55 540.04 1519.79 532.46 1500.63 526.68 1481.16 522.74 1461.45 520.67 1441.57 520.48 1421.59 522.16 1401.6 525.75 1381.66 531.22 1361.86 538.57 1342.28 547.77 1322.98 558.78 1304.05 571.6 1285.56 586.16 1267.58 602.42 1250.19 620.32 1233.44 639.8 1217.42 660.77 1202.18 683.18 1187.78 706.94 1174.29 731.94 1161.76 758.12 1150.24 785.36 1139.77 813.55 1130.4 842.6 1122.18 872.4 1115.13 902.8 1109.28 933.72 1104.66 965.03 1101.3 996.59 1099.2 1028.3 1098.38 1060.01 1098.84 1091.61 1100.6 1122.97 1103.62 1153.96 1107.92 1184.46 1113.48 1214.34 1120.27 1243.48 1128.27 1271.77 1137.45 1299.09 1147.78 1325.32 1159.22 1350.35 1171.71 1374.08 1185.22 1396.42 1199.69 1417.25 1215.07 1436.51 1231.3 1454.09 1248.3 1469.94 1266.01 1483.97 1284.37 1496.13 1303.29 1506.36 1322.7 1514.6 1342.54 1520.82 1362.69 1524.98 1383.1 1527.07 1403.68 1527.07 1424.34 1524.95 1445 1520.74 1465.57 1514.43 1485.96 1506.04 1506.1 1495.6 1525.89 1483.14 1545.27 1468.7 1564.13 1452.34 1582.39 1434.11 1600.01 1414.07 1616.87 1392.3 1632.92 1368.88 1648.08 1343.9 1662.29 1317.45 1675.48"/><polyline class="cls-2" points="1414.66 1628.1 1388.75 1644.75 1361.39 1660.28 1332.7 1674.66 1302.78 1687.83 1271.79 1699.75 1239.81 1710.36 1207.01 1719.65 1173.51 1727.58 1139.43 1734.13 1104.92 1739.29 1070.13 1743.03 1035.18 1745.36 1000.22 1746.27 965.37 1745.76 930.79 1743.86 896.62 1740.56 862.96 1735.89 829.98 1729.89 797.78 1722.59 766.51 1714.01 736.26 1704.2 707.18 1693.22 679.35 1681.1 652.91 1667.9"/><polyline class="cls-2" points="1594.41 1460.52 1575.06 1484.92 1553.48 1508.47 1529.76 1531.07 1504 1552.65 1476.31 1573.13 1446.8 1592.42 1415.59 1610.47 1382.82 1627.2 1348.61 1642.56 1313.09 1656.5 1276.42 1668.95 1238.75 1679.89 1200.21 1689.27 1160.99 1697.08 1121.21 1703.27 1081.05 1707.85 1040.66 1710.79 1000.21 1712.08 959.85 1711.75 919.75 1709.79 880.07 1706.21 840.95 1701.05 802.54 1694.32 765.02 1686.08 728.52 1676.33 693.17 1665.15 659.13 1652.59 626.51 1638.69 595.46 1623.51 566.06 1607.14 538.47 1589.63 512.76 1571.06 489.05 1551.53 467.41 1531.1"/><polyline class="cls-2" points="1693.89 1288.51 1680.92 1317.28 1665.27 1345.45 1647.03 1372.93 1626.25 1399.59 1603.02 1425.34 1577.44 1450.1 1549.61 1473.76 1519.65 1496.23 1487.68 1517.44 1453.84 1537.3 1418.23 1555.75 1381.03 1572.71 1342.38 1588.12 1302.41 1601.94 1261.32 1614.11 1219.25 1624.59 1176.36 1633.34 1132.85 1640.34 1088.87 1645.56 1044.6 1649 1000.21 1650.64 955.89 1650.48 911.8 1648.55 868.13 1644.83 825.05 1639.37 782.72 1632.17 741.29 1623.3 700.97 1612.77 661.88 1600.65 624.18 1586.99 588.02 1571.84 553.54 1555.27 520.89 1537.36 490.17 1518.18 461.51 1497.82 435.03 1476.35 410.81 1453.88 388.96 1430.49 369.56 1406.29 352.68 1381.36 338.39 1355.83"/><polyline class="cls-2" points="1745.19 1090.41 1740.63 1121.54 1733.15 1152.42 1722.77 1182.93 1709.55 1212.96 1693.53 1242.39 1674.78 1271.11 1653.37 1299.01 1629.4 1325.99 1602.94 1351.93 1574.11 1376.76 1543.04 1400.37 1509.84 1422.68 1474.64 1443.59 1437.59 1463.05 1398.82 1480.96 1358.51 1497.26 1316.79 1511.9 1273.85 1524.83 1229.86 1536 1184.97 1545.37 1139.39 1552.9 1093.28 1558.58 1046.83 1562.38 1000.22 1564.3 953.63 1564.34 907.26 1562.49 861.28 1558.78 815.88 1553.22 771.24 1545.84 727.53 1536.68 684.92 1525.78 643.58 1513.17 603.68 1498.94 565.38 1483.13 528.81 1465.8 494.13 1447.04 461.48 1426.93 430.97 1405.55 402.74 1382.98 376.88 1359.33 353.5 1334.69 332.69 1309.16 314.53 1282.86 299.1 1255.89 286.45 1228.36 276.62 1200.38 269.65 1172.08"/><polyline class="cls-2" points="1740.63 884.07 1745.19 915.2 1746.81 946.46 1745.48 977.73 1741.2 1008.89 1734 1039.83 1723.89 1070.42 1710.92 1100.56 1695.14 1130.11 1676.6 1158.97 1655.39 1187.04 1631.59 1214.21 1605.27 1240.36 1576.57 1265.4 1545.57 1289.24 1512.41 1311.78 1477.21 1332.94 1440.13 1352.65 1401.3 1370.83 1360.87 1387.39 1319.01 1402.3 1275.87 1415.5 1231.63 1426.92 1186.48 1436.54 1140.57 1444.33 1094.11 1450.24 1047.26 1454.26 1000.22 1456.38 953.16 1456.6 906.28 1454.93 859.77 1451.36 813.81 1445.92 768.56 1438.64 724.24 1429.54 680.99 1418.68 639 1406.09 598.42 1391.83 559.44 1375.95 522.19 1358.54 486.82 1339.65 453.49 1319.37 422.3 1297.79 393.4 1274.99 366.88 1251.07 342.88 1226.13 321.46 1200.27 302.74 1173.6 286.75 1146.21 273.59 1118.24 263.3 1089.8 255.92 1061.01 251.48 1031.97 250 1002.8"/><polyline class="cls-2" points="1680.92 688.33 1693.88 717.1 1704.13 746.36 1711.6 775.99 1716.27 805.89 1718.12 835.93 1717.13 866.01 1713.3 896.02 1706.65 925.83 1697.2 955.32 1684.98 984.4 1670.05 1012.95 1652.44 1040.85 1632.24 1068 1609.52 1094.3 1584.36 1119.65 1556.86 1143.94 1527.14 1167.1 1495.3 1189.01 1461.46 1209.62 1425.77 1228.82 1388.36 1246.55 1349.38 1262.75 1308.97 1277.36 1267.3 1290.3 1224.53 1301.55 1180.83 1311.06 1136.37 1318.78 1091.33 1324.7 1045.88 1328.79 1000.22 1331.04 954.5 1331.44 908.91 1329.99 863.65 1326.71 818.88 1321.6 774.79 1314.69 731.55 1306.01 689.32 1295.6 648.29 1283.5 608.61 1269.76 570.44 1254.44 533.94 1237.6 499.24 1219.31 466.5 1199.65 435.83 1178.7 407.38 1156.55 381.24 1133.28 357.52 1108.99 336.33 1083.78 317.74 1057.76 301.83 1031.03 288.67 1003.7 278.31 975.88 270.79 947.69 266.15 919.24 264.42 890.65 265.59 862.04 269.65 833.53 276.62 805.23"/><polyline class="cls-2" points="1575.06 520.69 1594.42 545.1 1611.46 570.26 1626.12 596.1 1638.34 622.5 1648.06 649.38 1655.24 676.63 1659.84 704.14 1661.84 731.82 1661.23 759.55 1657.99 787.25 1652.15 814.77 1643.72 842.04 1632.73 868.95 1619.21 895.39 1603.2 921.26 1584.8 946.45 1564.03 970.89 1541 994.45 1515.78 1017.07 1488.46 1038.64 1459.16 1059.09 1427.99 1078.34 1395.06 1096.3 1360.51 1112.92 1324.46 1128.12 1287.06 1141.85 1248.46 1154.07 1208.8 1164.7 1168.24 1173.72 1126.94 1181.1 1085.05 1186.79 1042.76 1190.79 1000.22 1193.07 957.59 1193.64 915.05 1192.48 872.78 1189.6 830.93 1185.02 789.68 1178.75 749.18 1170.83 709.6 1161.27 671.11 1150.13 633.84 1137.44 597.96 1123.25 563.61 1107.64 530.92 1090.66 500.03 1072.37 471.07 1052.86 444.15 1032.2 419.38 1010.47 396.87 987.77 376.7 964.19 358.97 939.82 343.75 914.76 331.09 889.12 321.06 862.99 313.7 836.5 309.04 809.73 307.11 782.82 307.91 755.86 311.46 728.96 317.74 702.25 326.72 675.81 338.38 649.77 352.68 624.25"/><polyline class="cls-2" points="1388.75 360.87 1414.66 377.51 1439.02 395.2 1461.73 413.87 1482.68 433.46 1501.78 453.89 1518.97 475.09 1534.16 496.98 1547.28 519.48 1558.28 542.51 1567.1 565.98 1573.7 589.8 1578.06 613.87 1580.13 638.12 1579.92 662.45 1577.41 686.75 1572.61 710.95 1565.52 734.95 1556.16 758.65 1544.59 781.96 1530.81 804.8 1514.89 827.07 1496.88 848.69 1476.85 869.57 1454.86 889.63 1431.01 908.8 1405.38 927 1378.06 944.15 1349.17 960.19 1318.8 975.04 1287.09 988.67 1254.14 1001.01 1220.09 1012.01 1185.05 1021.63 1149.19 1029.82 1112.63 1036.55 1075.52 1041.81 1037.99 1045.57 1000.22 1047.81 962.33 1048.51 924.48 1047.68 886.81 1045.32 849.49 1041.44 812.66 1036.06 776.47 1029.18 741.06 1020.85 706.58 1011.09 673.15 999.94 640.94 987.44 610.05 973.66 580.63 958.63 552.78 942.42 526.63 925.09 502.29 906.72 479.84 887.37 459.4 867.13 441.04 846.08 424.85 824.3 410.89 801.87 399.22 778.9 389.91 755.48 382.98 731.69 378.49 707.64 376.44 683.43 376.85 659.16 379.74 634.91 385.09 610.8 392.88 586.93 403.11 563.39 415.71 540.29 430.67 517.72 447.93 495.76 467.41 474.51 489.04 454.09"/><polyline class="cls-2" points="1000.22 427.95 998.75 427.89 997.28 427.72 995.87 427.43 994.5 427.02 993.21 426.52 991.99 425.9 990.88 425.18 989.88 424.37 989.02 423.47 988.29 422.49 987.73 421.44 987.32 420.33 987.1 419.16 987.06 417.95 987.23 416.7 987.59 415.44 988.15 414.16 988.92 412.88 989.91 411.62 991.11 410.38 992.52 409.17 994.14 408.02 995.97 406.93 997.99 405.9 1000.22 404.97 1002.61 404.13 1005.19 403.4 1007.94 402.78 1010.83 402.29 1013.86 401.93 1017.01 401.73 1020.27 401.67 1023.62 401.78 1027.03 402.06 1030.5 402.51 1033.98 403.13 1037.49 403.94 1040.98 404.93 1044.43 406.11 1047.84 407.47 1051.15 409.02 1054.37 410.75 1057.46 412.67 1060.4 414.77 1063.17 417.04 1065.75 419.47 1068.13 422.06 1070.26 424.81 1072.14 427.69 1073.74 430.72 1075.06 433.86 1076.08 437.11 1076.76 440.45 1077.12 443.87 1077.12 447.37 1076.75 450.9 1076.02 454.48 1074.92 458.07 1073.43 461.68 1071.55 465.25 1069.29 468.81 1066.62 472.3 1063.58 475.73 1060.15 479.06 1056.33 482.29 1052.16 485.4 1047.62 488.36 1042.73 491.17 1037.51 493.79 1031.98 496.23 1026.14 498.45 1020.02 500.44 1013.64 502.2 1007.03 503.71 1000.22 504.95 993.21 505.91 986.06 506.58 978.77 506.96 971.39 507.03 963.95 506.78 956.48 506.23 949.01 505.35 941.58 504.14 934.21 502.61 926.96 500.76 919.85 498.58 912.91 496.09 906.18 493.28 899.71 490.16 893.51 486.74 887.64 483.04 882.1 479.05 876.95 474.8 872.2 470.3 867.9 465.56 864.05 460.61 860.7 455.46 857.88 450.12 855.59 444.62 853.86 438.99 852.71 433.25 852.14 427.41 852.19 421.51 852.86 415.56 854.15 409.61 856.09 403.67 858.64 397.75 861.85 391.91 865.68 386.17 870.14 380.54 875.22 375.06 880.91 369.76 887.2 364.66 894.06 359.78 901.49 355.17 909.44 350.83 917.91 346.79 926.86 343.08 936.27 339.73 946.09 336.73 956.3 334.13 966.86 331.94 977.72 330.17 988.86 328.84 1000.22 327.97 1011.75 327.56 1023.41 327.63 1035.18 328.17 1046.97 329.21 1058.75 330.74 1070.46 332.77 1082.08 335.28 1093.53 338.3 1104.76 341.81 1115.73 345.79 1126.4 350.25 1136.7 355.17 1146.59 360.54 1156.03 366.34 1164.96 372.57 1173.35 379.19 1181.14 386.19 1188.32 393.55 1194.82 401.23 1200.61 409.23 1205.68 417.49 1209.97 426 1213.47 434.73 1216.15 443.64 1217.98 452.7 1218.96 461.87 1219.06 471.13 1218.28 480.44 1216.6 489.75 1214.02 499.03 1210.54 508.25 1206.16 517.36 1200.9 526.33 1194.77 535.12 1187.77 543.7 1179.92 552.02 1171.25 560.05 1161.78 567.76 1151.55 575.12 1140.59 582.08 1128.92 588.62 1116.62 594.71 1103.68 600.31 1090.18 605.41 1076.17 609.98 1061.68 613.99 1046.79 617.41 1031.54 620.25 1016 622.46 1000.22 624.05 984.25 625.01 968.19 625.31 952.07 624.95 935.98 623.93 919.97 622.26 904.12 619.93 888.47 616.93 873.13 613.29 858.12 609.02 843.53 604.11 829.42 598.6 815.86 592.49 802.89 585.81 790.58 578.58 779 570.83 768.19 562.58 758.2 553.86 749.09 544.71 740.89 535.16 733.66 525.26 727.42 515.03 722.21 504.52 718.09 493.76 715.04 482.81 713.12 471.7 712.33 460.49 712.69 449.22 714.2 437.93 716.87 426.67 720.71 415.5 725.71 404.46 731.85 393.58 739.12 382.93 747.51 372.56 756.98 362.5 767.52 352.81 779.09 343.52 791.64 334.68 805.14 326.34 819.54 318.52 834.79 311.28 850.84 304.64 867.63 298.64 885.08 293.31 903.15 288.69 921.77 284.79 940.86 281.64 960.34 279.27 980.16 277.68 1000.22 276.9 1020.43 276.94 1040.75 277.8 1061.06 279.49 1081.31 282.02 1101.39 285.37 1121.23 289.55 1140.74 294.55 1159.85 300.36 1178.48 306.96 1196.53 314.32 1213.95 322.44 1230.66 331.28 1246.57 340.83 1261.63 351.04 1275.76 361.88 1288.89 373.32 1300.97 385.32 1311.94 397.83 1321.76 410.81 1330.36 424.22 1337.7 438 1343.76 452.1 1348.5 466.48 1351.87 481.07 1353.85 495.83 1354.46 510.69 1353.64 525.6 1351.41 540.51 1347.77 555.34 1342.71 570.06 1336.25 584.6 1328.4 598.9 1319.18 612.9 1308.63 626.54 1296.77 639.78 1283.65 652.56 1269.3 664.82 1253.78 676.52 1237.14 687.61 1219.44 698.04 1200.75 707.76 1181.13 716.74 1160.65 724.93 1139.39 732.31 1117.44 738.83 1094.88 744.47 1071.77 749.2 1048.24 752.99 1024.35 755.84 1000.22 757.72 975.92 758.62 951.56 758.54 927.24 757.46 903.04 755.4 879.09 752.36 855.45 748.34 832.24 743.35 809.56 737.41 787.49 730.55 766.13 722.78 745.57 714.15 725.89 704.66 707.18 694.37 689.52 683.3 673 671.51 657.66 659.03 643.6 645.92 630.88 632.23 619.55 618.01 609.66 603.31 601.26 588.2 594.41 572.73 589.13 556.97 585.46 540.98 583.42 524.83 583.01 508.58 584.28 492.3 587.2 476.06 591.78 459.93 598.01 443.96 605.88 428.24 615.36 412.82 626.43 397.78 639.05 383.17 653.17 369.07 668.76 355.53 685.75 342.61 704.09 330.38 723.71 318.88 744.54 308.17 766.49 298.3 789.5 289.31 813.48 281.25 838.32 274.17 863.94 268.08 890.25 263.04 917.13 259.06 944.49 256.17 972.22 254.39 1000.22 253.73 1028.35 254.21 1056.52 255.84 1084.62 258.61 1112.53 262.52 1140.13 267.57 1167.33 273.75 1194 281.03 1220.04 289.41 1245.34 298.84 1269.8 309.31 1293.3 320.78 1315.77 333.21 1337.09 346.56 1357.19 360.78 1375.96 375.83 1393.33 391.65 1409.24 408.18 1423.59 425.37 1436.34 443.14 1447.41 461.45 1456.76 480.21 1464.35 499.37 1470.13 518.84 1474.07 538.55 1476.14 558.43 1476.33 578.41 1474.65 598.4 1471.06 618.34 1465.59 638.14 1458.24 657.73 1449.04 677.02 1438.02 695.95 1425.21 714.44 1410.64 732.42 1394.39 749.81 1376.49 766.56 1357.01 782.58 1336.04 797.82 1313.63 812.22 1289.87 825.71 1264.86 838.24 1238.69 849.76 1211.45 860.23 1183.25 869.6 1154.21 877.82 1124.41 884.87 1094 890.73 1063.09 895.34 1031.77 898.7 1000.22 900.8 968.51 901.62 936.79 901.16 905.2 899.4 873.84 896.38 842.84 892.08 812.35 886.52 782.47 879.73 753.32 871.73 725.03 862.55 697.72 852.23 671.49 840.78 646.46 828.29 622.73 814.78 600.39 800.31 579.55 784.93 560.3 768.7 542.71 751.7 526.87 733.99 512.83 715.63 500.67 696.71 490.45 677.3 482.21 657.46 475.99 637.31 471.82 616.9 469.73 596.32 469.74 575.66 471.85 555 476.07 534.43 482.38 514.04 490.77 493.9 501.21 474.11 513.67 454.73 528.11 435.87 544.47 417.61 562.7 399.99 582.74 383.13 604.51 367.08 627.93 351.92 652.9 337.71 679.35 324.52"/><ellipse class="cls-3" cx="1000.22" cy="1000" rx="749.78" ry="750"/></svg>