<svg id="Circular_element" data-name="Circular element" xmlns="http://www.w3.org/2000/svg" viewBox="0 0 2000 2000"><defs><style>.cls-1,.cls-10,.cls-100,.cls-101,.cls-102,.cls-103,.cls-104,.cls-105,.cls-106,.cls-107,.cls-108,.cls-109,.cls-11,.cls-110,.cls-111,.cls-112,.cls-113,.cls-114,.cls-115,.cls-116,.cls-117,.cls-118,.cls-119,.cls-12,.cls-120,.cls-121,.cls-122,.cls-123,.cls-124,.cls-125,.cls-126,.cls-127,.cls-128,.cls-129,.cls-13,.cls-130,.cls-131,.cls-132,.cls-133,.cls-134,.cls-135,.cls-136,.cls-137,.cls-138,.cls-139,.cls-14,.cls-140,.cls-141,.cls-142,.cls-143,.cls-144,.cls-145,.cls-146,.cls-147,.cls-148,.cls-149,.cls-15,.cls-150,.cls-151,.cls-152,.cls-153,.cls-154,.cls-155,.cls-156,.cls-157,.cls-158,.cls-159,.cls-16,.cls-160,.cls-161,.cls-162,.cls-163,.cls-164,.cls-165,.cls-166,.cls-167,.cls-168,.cls-169,.cls-17,.cls-170,.cls-171,.cls-172,.cls-173,.cls-174,.cls-175,.cls-176,.cls-177,.cls-178,.cls-179,.cls-18,.cls-180,.cls-181,.cls-182,.cls-183,.cls-184,.cls-185,.cls-186,.cls-187,.cls-188,.cls-189,.cls-19,.cls-190,.cls-191,.cls-192,.cls-193,.cls-194,.cls-195,.cls-196,.cls-197,.cls-198,.cls-199,.cls-2,.cls-20,.cls-200,.cls-201,.cls-202,.cls-203,.cls-204,.cls-205,.cls-206,.cls-207,.cls-208,.cls-209,.cls-21,.cls-210,.cls-211,.cls-212,.cls-213,.cls-214,.cls-215,.cls-216,.cls-217,.cls-218,.cls-219,.cls-22,.cls-220,.cls-221,.cls-222,.cls-223,.cls-224,.cls-225,.cls-226,.cls-227,.cls-228,.cls-229,.cls-23,.cls-230,.cls-231,.cls-232,.cls-233,.cls-234,.cls-235,.cls-236,.cls-237,.cls-238,.cls-239,.cls-24,.cls-240,.cls-241,.cls-242,.cls-243,.cls-244,.cls-245,.cls-246,.cls-247,.cls-248,.cls-249,.cls-25,.cls-250,.cls-251,.cls-252,.cls-253,.cls-254,.cls-255,.cls-256,.cls-257,.cls-258,.cls-259,.cls-26,.cls-260,.cls-261,.cls-262,.cls-263,.cls-264,.cls-265,.cls-266,.cls-267,.cls-268,.cls-269,.cls-27,.cls-270,.cls-271,.cls-272,.cls-273,.cls-274,.cls-275,.cls-276,.cls-277,.cls-278,.cls-279,.cls-28,.cls-280,.cls-281,.cls-282,.cls-283,.cls-284,.cls-285,.cls-286,.cls-287,.cls-288,.cls-29,.cls-3,.cls-30,.cls-31,.cls-32,.cls-33,.cls-34,.cls-35,.cls-36,.cls-37,.cls-38,.cls-39,.cls-4,.cls-40,.cls-41,.cls-42,.cls-43,.cls-44,.cls-45,.cls-46,.cls-47,.cls-48,.cls-49,.cls-5,.cls-50,.cls-51,.cls-52,.cls-53,.cls-54,.cls-55,.cls-56,.cls-57,.cls-58,.cls-59,.cls-6,.cls-60,.cls-61,.cls-62,.cls-63,.cls-64,.cls-65,.cls-66,.cls-67,.cls-68,.cls-69,.cls-7,.cls-70,.cls-71,.cls-72,.cls-73,.cls-74,.cls-75,.cls-76,.cls-77,.cls-78,.cls-79,.cls-8,.cls-80,.cls-81,.cls-82,.cls-83,.cls-84,.cls-85,.cls-86,.cls-87,.cls-88,.cls-89,.cls-9,.cls-90,.cls-91,.cls-92,.cls-93,.cls-94,.cls-95,.cls-96,.cls-97,.cls-98,.cls-99{fill:none;stroke-linecap:round;stroke-linejoin:round;}.cls-1,.cls-10,.cls-100,.cls-101,.cls-102,.cls-103,.cls-104,.cls-105,.cls-106,.cls-107,.cls-108,.cls-109,.cls-11,.cls-110,.cls-111,.cls-112,.cls-113,.cls-114,.cls-115,.cls-116,.cls-117,.cls-118,.cls-119,.cls-12,.cls-120,.cls-121,.cls-122,.cls-123,.cls-124,.cls-125,.cls-126,.cls-127,.cls-128,.cls-129,.cls-13,.cls-130,.cls-131,.cls-132,.cls-133,.cls-134,.cls-135,.cls-136,.cls-138,.cls-139,.cls-14,.cls-140,.cls-141,.cls-142,.cls-143,.cls-145,.cls-146,.cls-147,.cls-148,.cls-149,.cls-15,.cls-150,.cls-151,.cls-152,.cls-153,.cls-154,.cls-155,.cls-156,.cls-157,.cls-158,.cls-159,.cls-16,.cls-160,.cls-161,.cls-162,.cls-163,.cls-164,.cls-165,.cls-166,.cls-167,.cls-168,.cls-169,.cls-17,.cls-170,.cls-171,.cls-172,.cls-173,.cls-174,.cls-175,.cls-176,.cls-177,.cls-178,.cls-179,.cls-180,.cls-181,.cls-182,.cls-183,.cls-184,.cls-185,.cls-186,.cls-187,.cls-188,.cls-189,.cls-19,.cls-190,.cls-191,.cls-192,.cls-194,.cls-195,.cls-196,.cls-197,.cls-198,.cls-199,.cls-2,.cls-20,.cls-201,.cls-202,.cls-203,.cls-204,.cls-205,.cls-206,.cls-207,.cls-208,.cls-209,.cls-21,.cls-210,.cls-211,.cls-212,.cls-213,.cls-214,.cls-215,.cls-216,.cls-217,.cls-218,.cls-219,.cls-22,.cls-220,.cls-221,.cls-222,.cls-223,.cls-224,.cls-225,.cls-226,.cls-227,.cls-228,.cls-229,.cls-23,.cls-230,.cls-231,.cls-232,.cls-233,.cls-234,.cls-235,.cls-236,.cls-237,.cls-238,.cls-239,.cls-24,.cls-240,.cls-241,.cls-242,.cls-243,.cls-244,.cls-245,.cls-246,.cls-247,.cls-248,.cls-249,.cls-250,.cls-251,.cls-252,.cls-253,.cls-254,.cls-255,.cls-256,.cls-257,.cls-258,.cls-259,.cls-26,.cls-260,.cls-261,.cls-262,.cls-263,.cls-264,.cls-265,.cls-266,.cls-267,.cls-268,.cls-269,.cls-27,.cls-270,.cls-271,.cls-272,.cls-273,.cls-274,.cls-275,.cls-276,.cls-277,.cls-278,.cls-279,.cls-28,.cls-280,.cls-281,.cls-282,.cls-283,.cls-284,.cls-285,.cls-286,.cls-287,.cls-288,.cls-29,.cls-3,.cls-30,.cls-31,.cls-32,.cls-33,.cls-34,.cls-35,.cls-36,.cls-37,.cls-38,.cls-39,.cls-4,.cls-40,.cls-41,.cls-42,.cls-43,.cls-44,.cls-45,.cls-46,.cls-47,.cls-48,.cls-49,.cls-5,.cls-50,.cls-51,.cls-52,.cls-53,.cls-54,.cls-55,.cls-56,.cls-57,.cls-58,.cls-59,.cls-6,.cls-60,.cls-61,.cls-62,.cls-63,.cls-64,.cls-65,.cls-66,.cls-67,.cls-68,.cls-69,.cls-7,.cls-70,.cls-71,.cls-72,.cls-73,.cls-75,.cls-76,.cls-77,.cls-78,.cls-79,.cls-8,.cls-80,.cls-82,.cls-83,.cls-84,.cls-85,.cls-86,.cls-87,.cls-88,.cls-89,.cls-9,.cls-90,.cls-91,.cls-92,.cls-93,.cls-94,.cls-95,.cls-96,.cls-97,.cls-98,.cls-99{stroke:#fff;}.cls-1,.cls-10,.cls-100,.cls-101,.cls-102,.cls-103,.cls-104,.cls-105,.cls-106,.cls-107,.cls-108,.cls-109,.cls-11,.cls-110,.cls-111,.cls-112,.cls-113,.cls-114,.cls-115,.cls-116,.cls-117,.cls-118,.cls-119,.cls-12,.cls-120,.cls-121,.cls-122,.cls-123,.cls-124,.cls-125,.cls-126,.cls-127,.cls-128,.cls-129,.cls-13,.cls-130,.cls-131,.cls-132,.cls-133,.cls-134,.cls-135,.cls-136,.cls-138,.cls-139,.cls-14,.cls-140,.cls-141,.cls-142,.cls-143,.cls-145,.cls-146,.cls-147,.cls-148,.cls-149,.cls-15,.cls-150,.cls-151,.cls-152,.cls-153,.cls-154,.cls-155,.cls-156,.cls-157,.cls-158,.cls-159,.cls-16,.cls-160,.cls-161,.cls-162,.cls-163,.cls-164,.cls-165,.cls-166,.cls-167,.cls-168,.cls-169,.cls-17,.cls-170,.cls-171,.cls-172,.cls-173,.cls-174,.cls-175,.cls-176,.cls-177,.cls-178,.cls-179,.cls-180,.cls-181,.cls-182,.cls-183,.cls-184,.cls-185,.cls-186,.cls-187,.cls-188,.cls-189,.cls-19,.cls-190,.cls-191,.cls-192,.cls-194,.cls-195,.cls-196,.cls-197,.cls-198,.cls-199,.cls-2,.cls-20,.cls-201,.cls-202,.cls-203,.cls-204,.cls-205,.cls-206,.cls-207,.cls-208,.cls-209,.cls-21,.cls-210,.cls-211,.cls-212,.cls-213,.cls-214,.cls-215,.cls-216,.cls-217,.cls-218,.cls-219,.cls-22,.cls-220,.cls-221,.cls-222,.cls-223,.cls-224,.cls-225,.cls-226,.cls-227,.cls-228,.cls-229,.cls-23,.cls-230,.cls-231,.cls-232,.cls-233,.cls-234,.cls-235,.cls-236,.cls-237,.cls-238,.cls-239,.cls-24,.cls-240,.cls-241,.cls-242,.cls-243,.cls-244,.cls-245,.cls-246,.cls-247,.cls-248,.cls-249,.cls-250,.cls-251,.cls-252,.cls-26,.cls-27,.cls-28,.cls-29,.cls-3,.cls-30,.cls-31,.cls-32,.cls-33,.cls-34,.cls-35,.cls-36,.cls-37,.cls-38,.cls-39,.cls-4,.cls-40,.cls-41,.cls-42,.cls-43,.cls-44,.cls-45,.cls-46,.cls-47,.cls-48,.cls-49,.cls-5,.cls-50,.cls-51,.cls-52,.cls-53,.cls-54,.cls-55,.cls-56,.cls-57,.cls-58,.cls-59,.cls-6,.cls-60,.cls-61,.cls-62,.cls-63,.cls-64,.cls-65,.cls-66,.cls-67,.cls-68,.cls-69,.cls-7,.cls-70,.cls-71,.cls-72,.cls-73,.cls-75,.cls-76,.cls-77,.cls-78,.cls-79,.cls-8,.cls-80,.cls-82,.cls-83,.cls-84,.cls-85,.cls-86,.cls-87,.cls-88,.cls-89,.cls-9,.cls-90,.cls-91,.cls-92,.cls-93,.cls-94,.cls-95,.cls-96,.cls-97,.cls-98,.cls-99{stroke-width:6.25px;}.cls-1{opacity:0.27;}.cls-2{opacity:0.39;}.cls-3{opacity:0.64;}.cls-4{opacity:0.29;}.cls-5{opacity:0.79;}.cls-6{opacity:0.51;}.cls-7{opacity:0.37;}.cls-8{opacity:0.28;}.cls-9{opacity:0.84;}.cls-10{opacity:0.2;}.cls-11{opacity:0.35;}.cls-12{opacity:0.74;}.cls-13{opacity:0.82;}.cls-14{opacity:0.52;}.cls-15{opacity:0.84;}.cls-16{opacity:0.99;}.cls-17{opacity:0.95;}.cls-137,.cls-144,.cls-18,.cls-193,.cls-200,.cls-25,.cls-74,.cls-81{stroke:#dd1920;stroke-width:6px;}.cls-18{opacity:0.75;}.cls-19{opacity:0.83;}.cls-20{opacity:0.1;}.cls-21{opacity:0.76;}.cls-22{opacity:0.51;}.cls-23{opacity:0.48;}.cls-24{opacity:0.39;}.cls-25{opacity:0.83;}.cls-26{opacity:0.51;}.cls-27{opacity:0.34;}.cls-28{opacity:0.71;}.cls-29{opacity:0.32;}.cls-30{opacity:0.71;}.cls-31{opacity:0.53;}.cls-32{opacity:0.17;}.cls-33{opacity:0.17;}.cls-34{opacity:0.46;}.cls-35{opacity:0.64;}.cls-36{opacity:0.73;}.cls-37{opacity:0.62;}.cls-38{opacity:0.17;}.cls-39{opacity:0.26;}.cls-40{opacity:0.7;}.cls-41{opacity:0.61;}.cls-42{opacity:0.32;}.cls-43{opacity:0.84;}.cls-44{opacity:0.69;}.cls-45{opacity:0.8;}.cls-46{opacity:0.28;}.cls-47{opacity:0.35;}.cls-48{opacity:0.45;}.cls-49{opacity:0.39;}.cls-50{opacity:0.57;}.cls-51{opacity:0.6;}.cls-52{opacity:0.7;}.cls-53{opacity:0.23;}.cls-54{opacity:0.86;}.cls-55{opacity:0.56;}.cls-56{opacity:0.66;}.cls-57{opacity:0.88;}.cls-58{opacity:0.97;}.cls-59{opacity:0.28;}.cls-60{opacity:0.48;}.cls-61{opacity:0.83;}.cls-62{opacity:0.57;}.cls-63{opacity:0.26;}.cls-64{opacity:0.79;}.cls-65{opacity:0.31;}.cls-66{opacity:0.73;}.cls-67{opacity:0.27;}.cls-68{opacity:0.57;}.cls-69{opacity:0.84;}.cls-70{opacity:0.42;}.cls-71{opacity:0.96;}.cls-72{opacity:0.46;}.cls-73{opacity:0.46;}.cls-74{opacity:0.86;}.cls-75{opacity:0.19;}.cls-76{opacity:0.78;}.cls-77{opacity:0.63;}.cls-78{opacity:0.72;}.cls-79{opacity:0.16;}.cls-80{opacity:0.49;}.cls-81{opacity:0.93;}.cls-82{opacity:0.29;}.cls-83{opacity:0.74;}.cls-84{opacity:0.84;}.cls-85{opacity:0.93;}.cls-86{opacity:0.7;}.cls-87{opacity:0.49;}.cls-88{opacity:0.41;}.cls-89{opacity:0.72;}.cls-90{opacity:0.18;}.cls-91{opacity:0.5;}.cls-92{opacity:0.88;}.cls-93{opacity:0.29;}.cls-94{opacity:0.66;}.cls-95{opacity:0.22;}.cls-96{opacity:0.36;}.cls-97{opacity:0.52;}.cls-98{opacity:0.88;}.cls-99{opacity:0.46;}.cls-100{opacity:0.29;}.cls-101{opacity:0.97;}.cls-102{opacity:0.24;}.cls-103{opacity:0.3;}.cls-104{opacity:0.95;}.cls-105{opacity:0.48;}.cls-106{opacity:0.99;}.cls-107{opacity:0.15;}.cls-108{opacity:0.51;}.cls-109{opacity:0.37;}.cls-110{opacity:0.96;}.cls-111{opacity:0.63;}.cls-112{opacity:0.49;}.cls-113{opacity:0.18;}.cls-114{opacity:0.71;}.cls-115{opacity:0.73;}.cls-116{opacity:0.56;}.cls-117{opacity:0.46;}.cls-118{opacity:0.37;}.cls-119{opacity:0.31;}.cls-120{opacity:0.82;}.cls-121{opacity:0.49;}.cls-122{opacity:0.56;}.cls-123{opacity:0.66;}.cls-124{opacity:0.52;}.cls-125{opacity:0.43;}.cls-126{opacity:0.67;}.cls-127{opacity:0.26;}.cls-128{opacity:0.71;}.cls-129{opacity:0.29;}.cls-130{opacity:0.51;}.cls-131{opacity:0.52;}.cls-132{opacity:0.74;}.cls-133{opacity:0.86;}.cls-134{opacity:0.73;}.cls-135{opacity:0.59;}.cls-136{opacity:0.29;}.cls-137{opacity:0.85;}.cls-138{opacity:0.41;}.cls-139{opacity:0.57;}.cls-140{opacity:0.65;}.cls-141{opacity:0.44;}.cls-142{opacity:0.41;}.cls-143{opacity:0.95;}.cls-144{opacity:0.64;}.cls-145{opacity:0.8;}.cls-146{opacity:0.27;}.cls-147{opacity:0.44;}.cls-148{opacity:0.55;}.cls-149{opacity:0.86;}.cls-150{opacity:0.91;}.cls-151{opacity:0.16;}.cls-152{opacity:0.31;}.cls-153{opacity:0.74;}.cls-154{opacity:0.87;}.cls-155{opacity:0.19;}.cls-156{opacity:0.59;}.cls-157{opacity:0.95;}.cls-158{opacity:0.66;}.cls-159{opacity:0.31;}.cls-160{opacity:0.24;}.cls-161{opacity:0.55;}.cls-162{opacity:0.81;}.cls-163{opacity:0.96;}.cls-164{opacity:0.25;}.cls-165{opacity:0.48;}.cls-166{opacity:0.88;}.cls-167{opacity:0.95;}.cls-168{opacity:0.48;}.cls-169{opacity:0.54;}.cls-170{opacity:0.19;}.cls-171{opacity:0.5;}.cls-172{opacity:0.18;}.cls-173{opacity:0.2;}.cls-174{opacity:0.77;}.cls-175{opacity:0.41;}.cls-176{opacity:0.88;}.cls-177{opacity:0.7;}.cls-178{opacity:0.93;}.cls-179{opacity:0.84;}.cls-180{opacity:0.66;}.cls-181{opacity:0.33;}.cls-182{opacity:0.58;}.cls-183{opacity:0.89;}.cls-184{opacity:0.21;}.cls-185{opacity:0.19;}.cls-186{opacity:0.95;}.cls-187{opacity:0.39;}.cls-188{opacity:0.58;}.cls-189{opacity:0.88;}.cls-190{opacity:0.39;}.cls-191{opacity:0.23;}.cls-192{opacity:0.24;}.cls-193{opacity:0.98;}.cls-194{opacity:0.61;}.cls-195{opacity:0.6;}.cls-196{opacity:0.2;}.cls-197{opacity:0.39;}.cls-198{opacity:0.29;}.cls-199{opacity:0.37;}.cls-200{opacity:0.84;}.cls-201{opacity:0.19;}.cls-202{opacity:0.7;}.cls-203{opacity:0.82;}.cls-204{opacity:0.99;}.cls-205{opacity:0.24;}.cls-206{opacity:0.63;}.cls-207{opacity:0.34;}.cls-208{opacity:0.75;}.cls-209{opacity:0.39;}.cls-210{opacity:0.29;}.cls-211{opacity:0.14;}.cls-212{opacity:0.31;}.cls-213{opacity:0.67;}.cls-214{opacity:0.18;}.cls-215{opacity:0.78;}.cls-216{opacity:0.77;}.cls-217{opacity:0.41;}.cls-218{opacity:0.55;}.cls-219{opacity:0.48;}.cls-220{opacity:0.21;}.cls-221{opacity:0.75;}.cls-222{opacity:0.3;}.cls-223{opacity:0.54;}.cls-224{opacity:0.67;}.cls-225{opacity:0.99;}.cls-226{opacity:0.98;}.cls-227{opacity:0.53;}.cls-228{opacity:0.65;}.cls-229{opacity:0.43;}.cls-230{opacity:0.24;}.cls-231{opacity:0.79;}.cls-232{opacity:1;}.cls-233{opacity:0.72;}.cls-234{opacity:0.22;}.cls-235{opacity:0.69;}.cls-236{opacity:0.78;}.cls-237{opacity:0.2;}.cls-238{opacity:0.36;}.cls-239{opacity:0.43;}.cls-240{opacity:0.71;}.cls-241{opacity:0.76;}.cls-242{opacity:0.78;}.cls-243{opacity:0.77;}.cls-244{opacity:0.47;}.cls-245{opacity:0.2;}.cls-246{opacity:0.15;}.cls-247{opacity:0.65;}.cls-248{opacity:0.43;}.cls-249{opacity:0.98;}.cls-250{opacity:0.21;}.cls-251{opacity:0.23;}.cls-252{opacity:0.1;}.cls-253,.cls-254,.cls-255,.cls-256,.cls-257,.cls-258,.cls-259,.cls-260,.cls-261,.cls-262,.cls-263,.cls-264,.cls-265,.cls-266,.cls-267,.cls-268,.cls-269,.cls-270,.cls-271,.cls-272,.cls-273,.cls-274,.cls-275,.cls-276,.cls-277,.cls-278,.cls-279,.cls-280,.cls-281,.cls-282,.cls-283,.cls-284,.cls-285,.cls-286,.cls-287,.cls-288{stroke-width:12.5px;}.cls-253{opacity:0.73;}.cls-254{opacity:0.91;}.cls-255{opacity:0.76;}.cls-256{opacity:0.19;}.cls-257{opacity:0.61;}.cls-258{opacity:0.13;}.cls-259{opacity:0.63;}.cls-260{opacity:0.43;}.cls-261{opacity:0.49;}.cls-262{opacity:0.8;}.cls-263{opacity:0.63;}.cls-264{opacity:0.29;}.cls-265{opacity:0.71;}.cls-266{opacity:0.62;}.cls-267{opacity:0.39;}.cls-268{opacity:0.26;}.cls-269{opacity:0.7;}.cls-270{opacity:0.75;}.cls-271{opacity:0.69;}.cls-272{opacity:0.11;}.cls-273{opacity:0.47;}.cls-274{opacity:0.42;}.cls-275{opacity:0.99;}.cls-276{opacity:0.69;}.cls-277{opacity:0.19;}.cls-278{opacity:0.29;}.cls-279{opacity:0.91;}.cls-280{opacity:0.39;}.cls-281{opacity:0.2;}.cls-282{opacity:0.25;}.cls-283{opacity:0.2;}.cls-284{opacity:0.56;}.cls-285{opacity:0.55;}.cls-286{opacity:0.64;}.cls-287{opacity:0.51;}.cls-288{opacity:0.9;}</style></defs><line class="cls-1" x1="1000.01" y1="620.67" x2="1000.01" y2="620.67"/><line class="cls-2" x1="1000.01" y1="612.44" x2="1000.01" y2="612.44"/><line class="cls-3" x1="1000.01" y1="535.54" x2="1000.01" y2="535.54"/><line class="cls-4" x1="1000.01" y1="475.82" x2="1000.01" y2="326.54"/><line class="cls-5" x1="1000.01" y1="296.68" x2="1000.01" y2="296.68"/><line class="cls-6" x1="1000.01" y1="258.23" x2="1000.01" y2="258.23"/><line class="cls-7" x1="1000.01" y1="250" x2="1000.01" y2="250"/><line class="cls-8" x1="1000.01" y1="1750" x2="1000.01" y2="1750"/><line class="cls-9" x1="1000.01" y1="1727.38" x2="1000.01" y2="1727.38"/><line class="cls-10" x1="1000.01" y1="1696.38" x2="1000.01" y2="1696.38"/><line class="cls-11" x1="1000.01" y1="1640.59" x2="1000.01" y2="1445.34"/><line class="cls-12" x1="1000.01" y1="1417.45" x2="1000.01" y2="1417.45"/><line class="cls-13" x1="1000.01" y1="1401.95" x2="1000.01" y2="1401.95"/><line class="cls-14" x1="1000.01" y1="1379.33" x2="1000.01" y2="1379.33"/><line class="cls-15" x1="934.14" y1="626.43" x2="934.14" y2="626.43"/><line class="cls-16" x1="929.85" y1="602.11" x2="929.85" y2="602.11"/><line class="cls-17" x1="917.47" y1="531.9" x2="917.47" y2="531.9"/><line class="cls-18" x1="908.17" y1="479.13" x2="884.9" y2="347.2"/><line class="cls-19" x1="880.25" y1="320.82" x2="880.25" y2="320.82"/><line class="cls-20" x1="874.06" y1="285.72" x2="874.06" y2="285.72"/><line class="cls-21" x1="869.77" y1="261.39" x2="869.77" y2="261.39"/><line class="cls-22" x1="1130.24" y1="1738.61" x2="1130.24" y2="1738.61"/><line class="cls-23" x1="1123.65" y1="1701.23" x2="1123.65" y2="1701.23"/><line class="cls-24" x1="1120.82" y1="1685.17" x2="1120.82" y2="1685.17"/><line class="cls-25" x1="1111.43" y1="1631.93" x2="1078.57" y2="1445.59"/><line class="cls-26" x1="1073.88" y1="1418.97" x2="1073.88" y2="1418.97"/><line class="cls-27" x1="1072.47" y1="1410.94" x2="1072.47" y2="1410.94"/><line class="cls-28" x1="1065.87" y1="1373.57" x2="1065.87" y2="1373.57"/><line class="cls-29" x1="870.27" y1="643.55" x2="870.27" y2="643.55"/><line class="cls-30" x1="862.01" y1="620.85" x2="862.01" y2="620.85"/><line class="cls-31" x1="837.69" y1="554.04" x2="837.69" y2="554.04"/><line class="cls-32" x1="819.25" y1="503.36" x2="773.13" y2="376.67"/><line class="cls-33" x1="763.91" y1="351.33" x2="763.91" y2="351.33"/><line class="cls-34" x1="751.75" y1="317.92" x2="751.75" y2="317.92"/><line class="cls-35" x1="743.49" y1="295.23" x2="743.49" y2="295.23"/><line class="cls-36" x1="1256.52" y1="1704.77" x2="1256.52" y2="1704.77"/><line class="cls-37" x1="1245.64" y1="1674.9" x2="1245.64" y2="1674.9"/><line class="cls-38" x1="1233.59" y1="1641.79" x2="1233.59" y2="1641.79"/><line class="cls-39" x1="1211.86" y1="1582.06" x2="1157.5" y2="1432.74"/><line class="cls-40" x1="1146.64" y1="1402.88" x2="1146.64" y2="1402.88"/><line class="cls-41" x1="1140.61" y1="1386.33" x2="1140.61" y2="1386.33"/><line class="cls-42" x1="1129.74" y1="1356.45" x2="1129.74" y2="1356.45"/><line class="cls-43" x1="810.35" y1="671.49" x2="810.35" y2="671.49"/><line class="cls-44" x1="797.13" y1="648.6" x2="797.13" y2="648.6"/><line class="cls-45" x1="764.13" y1="591.45" x2="764.13" y2="591.45"/><line class="cls-46" x1="736.78" y1="544.07" x2="668.39" y2="425.63"/><line class="cls-47" x1="654.72" y1="401.95" x2="654.72" y2="401.95"/><line class="cls-48" x1="638.22" y1="373.37" x2="638.22" y2="373.37"/><line class="cls-49" x1="625" y1="350.48" x2="625" y2="350.48"/><line class="cls-50" x1="1375" y1="1649.52" x2="1375" y2="1649.52"/><line class="cls-51" x1="1361.95" y1="1626.9" x2="1361.95" y2="1626.9"/><line class="cls-52" x1="1324.82" y1="1562.6" x2="1324.82" y2="1562.6"/><line class="cls-53" x1="1290.31" y1="1502.83" x2="1238.54" y2="1413.16"/><line class="cls-54" x1="1221.29" y1="1383.28" x2="1221.29" y2="1383.28"/><line class="cls-55" x1="1202.72" y1="1351.13" x2="1202.72" y2="1351.13"/><line class="cls-56" x1="1189.67" y1="1328.51" x2="1189.67" y2="1328.51"/><line class="cls-57" x1="756.18" y1="709.41" x2="756.18" y2="709.41"/><line class="cls-58" x1="744.73" y1="695.77" x2="744.73" y2="695.77"/><line class="cls-59" x1="690.65" y1="631.32" x2="690.65" y2="631.32"/><line class="cls-60" x1="657.09" y1="591.32" x2="573.18" y2="491.33"/><line class="cls-61" x1="556.4" y1="471.34" x2="556.4" y2="471.34"/><line class="cls-62" x1="529.36" y1="439.11" x2="529.36" y2="439.11"/><line class="cls-63" x1="517.91" y1="425.47" x2="517.91" y2="425.47"/><line class="cls-64" x1="1482.1" y1="1574.53" x2="1482.1" y2="1574.53"/><line class="cls-65" x1="1478" y1="1569.65" x2="1478" y2="1569.65"/><line class="cls-66" x1="1452.42" y1="1539.16" x2="1452.42" y2="1539.16"/><line class="cls-67" x1="1414.08" y1="1493.47" x2="1279.88" y2="1333.55"/><line class="cls-68" x1="1260.71" y1="1310.71" x2="1260.71" y2="1310.71"/><line class="cls-69" x1="1247.92" y1="1295.46" x2="1247.92" y2="1295.46"/><line class="cls-70" x1="1243.83" y1="1290.59" x2="1243.83" y2="1290.59"/><line class="cls-71" x1="709.43" y1="756.16" x2="709.43" y2="756.16"/><line class="cls-72" x1="689.58" y1="739.51" x2="689.58" y2="739.51"/><line class="cls-73" x1="657.35" y1="712.47" x2="657.35" y2="712.47"/><line class="cls-74" x1="608.37" y1="671.37" x2="485.93" y2="568.64"/><line class="cls-75" x1="461.44" y1="548.09" x2="461.44" y2="548.09"/><line class="cls-76" x1="445.32" y1="534.57" x2="445.32" y2="534.57"/><line class="cls-77" x1="425.47" y1="517.91" x2="425.47" y2="517.91"/><line class="cls-78" x1="1574.54" y1="1482.09" x2="1574.54" y2="1482.09"/><line class="cls-79" x1="1546.39" y1="1458.47" x2="1546.39" y2="1458.47"/><line class="cls-80" x1="1499.75" y1="1419.34" x2="1499.75" y2="1419.34"/><line class="cls-81" x1="1447.18" y1="1375.23" x2="1368.33" y2="1309.07"/><line class="cls-82" x1="1342.04" y1="1287.02" x2="1342.04" y2="1287.02"/><line class="cls-83" x1="1318.73" y1="1267.45" x2="1318.73" y2="1267.45"/><line class="cls-84" x1="1290.58" y1="1243.84" x2="1290.58" y2="1243.84"/><line class="cls-85" x1="671.5" y1="810.32" x2="671.5" y2="810.32"/><line class="cls-86" x1="646.45" y1="795.86" x2="646.45" y2="795.86"/><line class="cls-87" x1="587.93" y1="762.08" x2="587.93" y2="762.08"/><line class="cls-88" x1="542.14" y1="735.65" x2="427.69" y2="669.58"/><line class="cls-89" x1="404.79" y1="656.36" x2="404.79" y2="656.36"/><line class="cls-90" x1="375.53" y1="639.47" x2="375.53" y2="639.47"/><line class="cls-91" x1="350.48" y1="625.01" x2="350.48" y2="625.01"/><line class="cls-92" x1="1649.52" y1="1374.99" x2="1649.52" y2="1374.99"/><line class="cls-93" x1="1638.27" y1="1368.5" x2="1638.27" y2="1368.5"/><line class="cls-94" x1="1628.89" y1="1363.08" x2="1628.89" y2="1363.08"/><line class="cls-95" x1="1572" y1="1330.24" x2="1372.89" y2="1215.3"/><line class="cls-96" x1="1344.44" y1="1198.88" x2="1344.44" y2="1198.88"/><line class="cls-97" x1="1339.75" y1="1196.17" x2="1339.75" y2="1196.17"/><line class="cls-98" x1="1328.5" y1="1189.67" x2="1328.5" y2="1189.67"/><line class="cls-99" x1="643.56" y1="870.25" x2="643.56" y2="870.25"/><line class="cls-100" x1="632" y1="866.05" x2="632" y2="866.05"/><line class="cls-101" x1="585.33" y1="849.07" x2="585.33" y2="849.07"/><line class="cls-102" x1="534.29" y1="830.49" x2="355.64" y2="765.48"/><line class="cls-103" x1="330.12" y1="756.19" x2="330.12" y2="756.19"/><line class="cls-104" x1="306.79" y1="747.7" x2="306.79" y2="747.7"/><line class="cls-105" x1="295.23" y1="743.49" x2="295.23" y2="743.49"/><line class="cls-106" x1="1704.77" y1="1256.51" x2="1704.77" y2="1256.51"/><line class="cls-107" x1="1695.2" y1="1253.03" x2="1695.2" y2="1253.03"/><line class="cls-108" x1="1656.9" y1="1239.09" x2="1656.9" y2="1239.09"/><line class="cls-109" x1="1602.55" y1="1219.31" x2="1412.34" y2="1150.09"/><line class="cls-110" x1="1385.17" y1="1140.2" x2="1385.17" y2="1140.2"/><line class="cls-111" x1="1366.02" y1="1133.23" x2="1366.02" y2="1133.23"/><line class="cls-112" x1="1356.45" y1="1129.75" x2="1356.45" y2="1129.75"/><line class="cls-113" x1="626.44" y1="934.13" x2="626.44" y2="934.13"/><line class="cls-114" x1="588.59" y1="927.46" x2="588.59" y2="927.46"/><line class="cls-115" x1="537.07" y1="918.37" x2="537.07" y2="918.37"/><line class="cls-116" x1="484.05" y1="909.03" x2="351.51" y2="885.66"/><line class="cls-117" x1="325" y1="880.99" x2="325" y2="880.99"/><line class="cls-118" x1="299.24" y1="876.45" x2="299.24" y2="876.45"/><line class="cls-119" x1="261.39" y1="869.78" x2="261.39" y2="869.78"/><line class="cls-120" x1="1738.61" y1="1130.23" x2="1738.61" y2="1130.23"/><line class="cls-121" x1="1720.96" y1="1127.12" x2="1720.96" y2="1127.12"/><line class="cls-122" x1="1679.99" y1="1119.9" x2="1679.99" y2="1119.9"/><line class="cls-123" x1="1626.33" y1="1110.44" x2="1438.52" y2="1077.34"/><line class="cls-124" x1="1411.69" y1="1072.61" x2="1411.69" y2="1072.61"/><line class="cls-125" x1="1391.2" y1="1068.99" x2="1391.2" y2="1068.99"/><line class="cls-126" x1="1373.56" y1="1065.88" x2="1373.56" y2="1065.88"/><line class="cls-127" x1="620.67" y1="999.99" x2="620.67" y2="999.99"/><line class="cls-128" x1="602.75" y1="999.99" x2="602.75" y2="999.99"/><line class="cls-129" x1="561.15" y1="1000" x2="561.15" y2="1000"/><line class="cls-130" x1="506.66" y1="1000" x2="315.96" y2="1000.01"/><line class="cls-131" x1="288.72" y1="1000.01" x2="288.72" y2="1000.01"/><line class="cls-132" x1="267.92" y1="1000.01" x2="267.92" y2="1000.01"/><line class="cls-133" x1="250" y1="1000.01" x2="250" y2="1000.01"/><line class="cls-134" x1="1750" y1="999.99" x2="1750" y2="999.99"/><line class="cls-135" x1="1711.22" y1="999.99" x2="1711.22" y2="999.99"/><line class="cls-136" x1="1613.7" y1="1000" x2="1613.7" y2="1000"/><line class="cls-137" x1="1540.28" y1="1000" x2="1503.57" y2="1000.01"/><line class="cls-138" x1="1466.86" y1="1000.01" x2="1466.86" y2="1000.01"/><line class="cls-139" x1="1418.1" y1="1000.01" x2="1418.1" y2="1000.01"/><line class="cls-140" x1="1379.32" y1="1000.01" x2="1379.32" y2="1000.01"/><line class="cls-141" x1="626.44" y1="1065.86" x2="626.44" y2="1065.86"/><line class="cls-142" x1="618.92" y1="1067.19" x2="618.92" y2="1067.19"/><line class="cls-143" x1="572.16" y1="1075.43" x2="572.16" y2="1075.43"/><line class="cls-144" x1="516.18" y1="1085.31" x2="320.28" y2="1119.87"/><line class="cls-145" x1="292.29" y1="1124.8" x2="292.29" y2="1124.8"/><line class="cls-146" x1="268.91" y1="1128.93" x2="268.91" y2="1128.93"/><line class="cls-147" x1="261.39" y1="1130.25" x2="261.39" y2="1130.25"/><line class="cls-148" x1="1738.61" y1="869.75" x2="1738.61" y2="869.75"/><line class="cls-149" x1="1700.74" y1="876.43" x2="1700.74" y2="876.43"/><line class="cls-150" x1="1602.36" y1="893.78" x2="1602.36" y2="893.78"/><line class="cls-151" x1="1531.49" y1="906.29" x2="1496.06" y2="912.54"/><line class="cls-152" x1="1460.63" y1="918.79" x2="1460.63" y2="918.79"/><line class="cls-153" x1="1411.43" y1="927.46" x2="1411.43" y2="927.46"/><line class="cls-154" x1="1373.57" y1="934.14" x2="1373.57" y2="934.14"/><line class="cls-155" x1="643.55" y1="1129.73" x2="643.55" y2="1129.73"/><line class="cls-156" x1="622.37" y1="1137.44" x2="622.37" y2="1137.44"/><line class="cls-157" x1="573.99" y1="1155.05" x2="573.99" y2="1155.05"/><line class="cls-158" x1="515.64" y1="1176.29" x2="369.77" y2="1229.4"/><line class="cls-159" x1="340.6" y1="1240.02" x2="340.6" y2="1240.02"/><line class="cls-160" x1="316.41" y1="1248.82" x2="316.41" y2="1248.82"/><line class="cls-161" x1="295.23" y1="1256.53" x2="295.23" y2="1256.53"/><line class="cls-162" x1="1704.77" y1="743.47" x2="1704.77" y2="743.47"/><line class="cls-163" x1="1691.27" y1="748.38" x2="1691.27" y2="748.38"/><line class="cls-164" x1="1629.44" y1="770.9" x2="1629.44" y2="770.9"/><line class="cls-165" x1="1572.3" y1="791.7" x2="1429.44" y2="843.7"/><line class="cls-166" x1="1400.87" y1="854.1" x2="1400.87" y2="854.1"/><line class="cls-167" x1="1369.96" y1="865.36" x2="1369.96" y2="865.36"/><line class="cls-168" x1="1356.45" y1="870.28" x2="1356.45" y2="870.28"/><line class="cls-169" x1="671.49" y1="1189.66" x2="671.49" y2="1189.66"/><line class="cls-170" x1="653.24" y1="1200.2" x2="653.24" y2="1200.2"/><line class="cls-171" x1="610.53" y1="1224.86" x2="610.53" y2="1224.86"/><line class="cls-172" x1="555.42" y1="1256.68" x2="417.64" y2="1336.24"/><line class="cls-173" x1="390.09" y1="1352.15" x2="390.09" y2="1352.15"/><line class="cls-174" x1="368.73" y1="1364.48" x2="368.73" y2="1364.48"/><line class="cls-175" x1="350.48" y1="1375.02" x2="350.48" y2="1375.02"/><line class="cls-176" x1="1649.52" y1="624.98" x2="1649.52" y2="624.98"/><line class="cls-177" x1="1633.38" y1="634.3" x2="1633.38" y2="634.3"/><line class="cls-178" x1="1586.55" y1="661.34" x2="1586.55" y2="661.34"/><line class="cls-179" x1="1531.93" y1="692.88" x2="1395.38" y2="771.74"/><line class="cls-180" x1="1368.07" y1="787.51" x2="1368.07" y2="787.51"/><line class="cls-181" x1="1344.65" y1="801.03" x2="1344.65" y2="801.03"/><line class="cls-182" x1="1328.51" y1="810.35" x2="1328.51" y2="810.35"/><line class="cls-183" x1="709.42" y1="1243.82" x2="709.42" y2="1243.82"/><line class="cls-184" x1="700.2" y1="1251.55" x2="700.2" y2="1251.55"/><line class="cls-185" x1="663.07" y1="1282.72" x2="663.07" y2="1282.72"/><line class="cls-186" x1="621.1" y1="1317.94" x2="474.23" y2="1441.19"/><line class="cls-187" x1="453.25" y1="1458.8" x2="453.25" y2="1458.8"/><line class="cls-188" x1="434.68" y1="1474.38" x2="434.68" y2="1474.38"/><line class="cls-189" x1="425.47" y1="1482.12" x2="425.47" y2="1482.12"/><line class="cls-190" x1="1574.54" y1="517.89" x2="1574.54" y2="517.89"/><line class="cls-191" x1="1552.67" y1="536.24" x2="1552.67" y2="536.24"/><line class="cls-192" x1="1503.16" y1="577.79" x2="1503.16" y2="577.79"/><line class="cls-193" x1="1461.67" y1="612.61" x2="1357.95" y2="699.65"/><line class="cls-194" x1="1337.2" y1="717.06" x2="1337.2" y2="717.06"/><line class="cls-195" x1="1312.45" y1="737.84" x2="1312.45" y2="737.84"/><line class="cls-196" x1="1290.59" y1="756.19" x2="1290.59" y2="756.19"/><line class="cls-197" x1="756.17" y1="1290.58" x2="756.17" y2="1290.58"/><line class="cls-198" x1="743.33" y1="1305.88" x2="743.33" y2="1305.88"/><line class="cls-199" x1="709.52" y1="1346.18" x2="709.52" y2="1346.18"/><line class="cls-200" x1="669.05" y1="1394.41" x2="567.89" y2="1514.99"/><line class="cls-201" x1="547.66" y1="1539.1" x2="547.66" y2="1539.1"/><line class="cls-202" x1="530.76" y1="1559.25" x2="530.76" y2="1559.25"/><line class="cls-203" x1="517.91" y1="1574.56" x2="517.91" y2="1574.56"/><line class="cls-204" x1="1482.09" y1="425.44" x2="1482.09" y2="425.44"/><line class="cls-205" x1="1457.73" y1="454.47" x2="1457.73" y2="454.47"/><line class="cls-206" x1="1420.86" y1="498.42" x2="1420.86" y2="498.42"/><line class="cls-207" x1="1387.3" y1="538.42" x2="1303.41" y2="638.42"/><line class="cls-208" x1="1286.63" y1="658.42" x2="1286.63" y2="658.42"/><line class="cls-209" x1="1268.19" y1="680.4" x2="1268.19" y2="680.4"/><line class="cls-210" x1="1243.83" y1="709.43" x2="1243.83" y2="709.43"/><line class="cls-211" x1="810.33" y1="1328.5" x2="810.33" y2="1328.5"/><line class="cls-212" x1="795.33" y1="1354.49" x2="795.33" y2="1354.49"/><line class="cls-213" x1="760.28" y1="1415.21" x2="760.28" y2="1415.21"/><line class="cls-214" x1="726.03" y1="1474.54" x2="674.65" y2="1563.53"/><line class="cls-215" x1="657.53" y1="1593.2" x2="657.53" y2="1593.2"/><line class="cls-216" x1="640.01" y1="1623.56" x2="640.01" y2="1623.56"/><line class="cls-217" x1="625" y1="1649.55" x2="625" y2="1649.55"/><line class="cls-218" x1="1375" y1="350.46" x2="1375" y2="350.46"/><line class="cls-219" x1="1368.94" y1="360.94" x2="1368.94" y2="360.94"/><line class="cls-220" x1="1344.74" y1="402.88" x2="1344.74" y2="402.88"/><line class="cls-221" x1="1317.36" y1="450.31" x2="1221.52" y2="616.34"/><line class="cls-222" x1="1207.83" y1="640.06" x2="1207.83" y2="640.06"/><line class="cls-223" x1="1195.73" y1="661.02" x2="1195.73" y2="661.02"/><line class="cls-224" x1="1189.67" y1="671.51" x2="1189.67" y2="671.51"/><line class="cls-225" x1="870.26" y1="1356.45" x2="870.26" y2="1356.45"/><line class="cls-226" x1="864.13" y1="1373.28" x2="864.13" y2="1373.28"/><line class="cls-227" x1="857.93" y1="1390.32" x2="857.93" y2="1390.32"/><line class="cls-228" x1="836.89" y1="1448.15" x2="763.24" y2="1650.53"/><line class="cls-229" x1="752.71" y1="1679.45" x2="752.71" y2="1679.45"/><line class="cls-230" x1="749.61" y1="1687.97" x2="749.61" y2="1687.97"/><line class="cls-231" x1="743.49" y1="1704.8" x2="743.49" y2="1704.8"/><line class="cls-232" x1="1256.51" y1="295.2" x2="1256.51" y2="295.2"/><line class="cls-233" x1="1244.92" y1="327.07" x2="1244.92" y2="327.07"/><line class="cls-234" x1="1235.98" y1="351.62" x2="1235.98" y2="351.62"/><line class="cls-235" x1="1213.44" y1="413.57" x2="1157.08" y2="568.45"/><line class="cls-236" x1="1145.81" y1="599.43" x2="1145.81" y2="599.43"/><line class="cls-237" x1="1141.34" y1="611.71" x2="1141.34" y2="611.71"/><line class="cls-238" x1="1129.74" y1="643.57" x2="1129.74" y2="643.57"/><line class="cls-239" x1="934.12" y1="1373.57" x2="934.12" y2="1373.57"/><line class="cls-240" x1="929.18" y1="1401.6" x2="929.18" y2="1401.6"/><line class="cls-241" x1="918.74" y1="1460.83" x2="918.74" y2="1460.83"/><line class="cls-242" x1="909.04" y1="1515.87" x2="884.78" y2="1653.47"/><line class="cls-243" x1="879.93" y1="1680.99" x2="879.93" y2="1680.99"/><line class="cls-244" x1="874.71" y1="1710.6" x2="874.71" y2="1710.6"/><line class="cls-245" x1="869.77" y1="1738.63" x2="869.77" y2="1738.63"/><line class="cls-246" x1="1130.23" y1="261.37" x2="1130.23" y2="261.37"/><line class="cls-247" x1="1125.42" y1="288.68" x2="1125.42" y2="288.68"/><line class="cls-248" x1="1114.77" y1="349.11" x2="1114.77" y2="349.11"/><line class="cls-249" x1="1105.08" y1="404.07" x2="1080.86" y2="541.45"/><line class="cls-250" x1="1076.02" y1="568.93" x2="1076.02" y2="568.93"/><line class="cls-251" x1="1070.7" y1="599.14" x2="1070.7" y2="599.14"/><line class="cls-252" x1="1065.88" y1="626.45" x2="1065.88" y2="626.45"/><line class="cls-253" x1="731.78" y1="731.77" x2="469.68" y2="469.67"/><line class="cls-254" x1="1530.33" y1="1530.33" x2="1268.23" y2="1268.22"/><line class="cls-255" x1="689.28" y1="782.42" x2="385.64" y2="569.82"/><line class="cls-256" x1="1614.36" y1="1430.18" x2="1310.73" y2="1217.57"/><line class="cls-257" x1="656.22" y1="839.68" x2="320.27" y2="683.04"/><line class="cls-258" x1="1679.73" y1="1316.96" x2="1343.79" y2="1160.32"/><line class="cls-259" x1="633.6" y1="901.82" x2="275.56" y2="805.89"/><line class="cls-260" x1="1724.44" y1="1194.11" x2="1366.41" y2="1098.18"/><line class="cls-261" x1="622.12" y1="966.93" x2="252.86" y2="934.64"/><line class="cls-262" x1="1747.14" y1="1065.36" x2="1377.89" y2="1033.06"/><line class="cls-263" x1="622.12" y1="1033.05" x2="252.86" y2="1065.38"/><line class="cls-264" x1="1747.15" y1="934.62" x2="1377.89" y2="966.95"/><line class="cls-265" x1="633.6" y1="1098.17" x2="275.57" y2="1194.12"/><line class="cls-266" x1="1724.44" y1="805.88" x2="1366.41" y2="901.83"/><line class="cls-267" x1="656.21" y1="1160.3" x2="320.28" y2="1316.98"/><line class="cls-268" x1="1679.73" y1="683.02" x2="1343.79" y2="839.7"/><line class="cls-269" x1="689.28" y1="1217.57" x2="385.64" y2="1430.2"/><line class="cls-270" x1="1614.36" y1="569.81" x2="1310.73" y2="782.44"/><line class="cls-271" x1="731.77" y1="1268.22" x2="469.68" y2="1530.35"/><line class="cls-272" x1="1530.32" y1="469.65" x2="1268.23" y2="731.79"/><line class="cls-273" x1="782.43" y1="1310.72" x2="569.83" y2="1614.38"/><line class="cls-274" x1="1430.18" y1="385.62" x2="1217.59" y2="689.28"/><line class="cls-275" x1="839.68" y1="1343.78" x2="683.05" y2="1679.75"/><line class="cls-276" x1="1316.96" y1="320.25" x2="1160.32" y2="656.22"/><line class="cls-277" x1="901.82" y1="1366.4" x2="805.9" y2="1724.46"/><line class="cls-278" x1="1194.1" y1="275.54" x2="1098.19" y2="633.6"/><line class="cls-279" x1="966.93" y1="1377.89" x2="934.65" y2="1747.17"/><line class="cls-280" x1="1065.36" y1="252.84" x2="1033.08" y2="622.12"/><line class="cls-281" x1="1033.05" y1="1377.89" x2="1065.38" y2="1747.17"/><line class="cls-282" x1="934.62" y1="252.84" x2="966.96" y2="622.13"/><line class="cls-283" x1="1098.17" y1="1366.41" x2="1194.13" y2="1724.47"/><line class="cls-284" x1="805.87" y1="275.54" x2="901.84" y2="633.6"/><line class="cls-285" x1="1160.31" y1="1343.79" x2="1316.98" y2="1679.75"/><line class="cls-286" x1="683.02" y1="320.25" x2="839.71" y2="656.22"/><line class="cls-287" x1="1217.57" y1="1310.74" x2="1430.2" y2="1614.38"/><line class="cls-288" x1="569.8" y1="385.62" x2="782.45" y2="689.28"/></svg>