<svg id="Circular_element" data-name="Circular element" xmlns="http://www.w3.org/2000/svg" viewBox="0 0 2000 2000"><defs><style>.cls-1,.cls-2,.cls-3{fill:none;}.cls-1,.cls-2{stroke:#fff;}.cls-1{stroke-miterlimit:10;stroke-width:6.25px;}.cls-2,.cls-3{stroke-linecap:round;stroke-linejoin:round;}.cls-2{stroke-width:3px;}.cls-3{stroke:#dd1920;stroke-width:10px;}</style></defs><ellipse class="cls-1" cx="1000" cy="1000" rx="749.74" ry="750"/><polygon class="cls-2" points="1000 1019.83 1000 1165.76 1135.18 1158.08 1121.66 1012.91 1000 1019.83"/><polygon class="cls-2" points="878.34 1012.91 864.82 1158.08 1000 1165.76 1000 1019.83 878.34 1012.91"/><polygon class="cls-2" points="1000 873.13 1000 1019.83 1121.66 1012.91 1103.46 867.24 1000 873.13"/><polygon class="cls-2" points="896.54 867.24 878.34 1012.91 1000 1019.83 1000 873.13 896.54 867.24"/><polygon class="cls-2" points="1121.66 1012.91 1135.18 1158.08 1265.17 1135.3 1238.64 992.41 1121.66 1012.91"/><polygon class="cls-2" points="761.36 992.41 734.84 1135.3 864.82 1158.08 878.34 1012.91 761.36 992.41"/><polygon class="cls-2" points="1103.46 867.24 1121.66 1012.91 1238.64 992.41 1202.95 849.82 1103.46 867.24"/><polygon class="cls-2" points="797.05 849.82 761.36 992.41 878.34 1012.91 896.54 867.24 797.05 849.82"/><polygon class="cls-2" points="1000 731.3 1000 873.13 1103.46 867.24 1081.29 726.68 1000 731.3"/><polygon class="cls-2" points="918.71 726.68 896.54 867.24 1000 873.13 1000 731.3 918.71 726.68"/><polygon class="cls-2" points="1000 1165.76 1000 1305.33 1143.51 1297.17 1135.18 1158.08 1000 1165.76"/><polygon class="cls-2" points="864.82 1158.08 856.5 1297.17 1000 1305.33 1000 1165.76 864.82 1158.08"/><polygon class="cls-2" points="1081.29 726.68 1103.46 867.24 1202.95 849.82 1159.45 712.99 1081.29 726.68"/><polygon class="cls-2" points="840.54 712.99 797.05 849.82 896.54 867.24 918.71 726.68 840.54 712.99"/><polygon class="cls-2" points="1135.18 1158.08 1143.51 1297.17 1281.5 1272.99 1265.17 1135.3 1135.18 1158.08"/><polygon class="cls-2" points="734.84 1135.3 718.5 1272.99 856.5 1297.17 864.82 1158.08 734.84 1135.3"/><polygon class="cls-2" points="1238.64 992.41 1265.17 1135.3 1384.96 1098.32 1346.46 959.13 1238.64 992.41"/><polygon class="cls-2" points="1202.95 849.82 1238.64 992.41 1346.46 959.13 1294.64 821.51 1202.95 849.82"/><polygon class="cls-2" points="653.54 959.13 615.04 1098.32 734.84 1135.3 761.36 992.41 653.54 959.13"/><polygon class="cls-2" points="705.36 821.51 653.54 959.13 761.36 992.41 797.05 849.82 705.36 821.51"/><polygon class="cls-2" points="1159.45 712.99 1202.95 849.82 1294.64 821.51 1231.5 690.75 1159.45 712.99"/><polygon class="cls-2" points="768.5 690.75 705.36 821.51 797.05 849.82 840.54 712.99 768.5 690.75"/><polygon class="cls-2" points="1000 599.81 1000 731.3 1081.29 726.68 1055.99 596.62 1000 599.81"/><polygon class="cls-2" points="944.01 596.62 918.71 726.68 1000 731.3 1000 599.81 944.01 596.62"/><polygon class="cls-2" points="1055.99 596.62 1081.29 726.68 1159.45 712.99 1109.84 587.19 1055.99 596.62"/><polygon class="cls-2" points="890.16 587.19 840.54 712.99 918.71 726.68 944.01 596.62 890.16 587.19"/><polygon class="cls-2" points="1265.17 1135.3 1281.5 1272.99 1408.67 1233.73 1384.96 1098.32 1265.17 1135.3"/><polygon class="cls-2" points="615.04 1098.32 591.33 1233.73 718.5 1272.99 734.84 1135.3 615.04 1098.32"/><polygon class="cls-2" points="1000 1305.33 1000 1433.16 1146.32 1424.84 1143.51 1297.17 1000 1305.33"/><polygon class="cls-2" points="856.5 1297.17 853.68 1424.84 1000 1433.16 1000 1305.33 856.5 1297.17"/><polygon class="cls-2" points="1109.84 587.19 1159.45 712.99 1231.5 690.75 1159.45 571.87 1109.84 587.19"/><polygon class="cls-2" points="840.54 571.87 768.5 690.75 840.54 712.99 890.16 587.19 840.54 571.87"/><polygon class="cls-2" points="1143.51 1297.17 1146.32 1424.84 1287.01 1400.19 1281.5 1272.99 1143.51 1297.17"/><polygon class="cls-2" points="718.5 1272.99 712.99 1400.19 853.68 1424.84 856.5 1297.17 718.5 1272.99"/><polygon class="cls-2" points="1294.64 821.51 1346.46 959.13 1440.96 914.34 1375 783.42 1294.64 821.51"/><polygon class="cls-2" points="1231.5 690.75 1294.64 821.51 1375 783.42 1294.64 660.82 1231.5 690.75"/><polygon class="cls-2" points="625 783.42 559.04 914.34 653.54 959.13 705.36 821.51 625 783.42"/><polygon class="cls-2" points="705.36 660.82 625 783.42 705.36 821.51 768.5 690.75 705.36 660.82"/><polygon class="cls-2" points="1346.46 959.13 1384.96 1098.32 1489.96 1048.55 1440.96 914.34 1346.46 959.13"/><polygon class="cls-2" points="559.04 914.34 510.04 1048.55 615.04 1098.32 653.54 959.13 559.04 914.34"/><polygon class="cls-2" points="1159.45 571.87 1231.5 690.75 1294.64 660.82 1202.95 551.26 1159.45 571.87"/><polygon class="cls-2" points="797.05 551.26 705.36 660.82 768.5 690.75 840.54 571.87 797.05 551.26"/><polygon class="cls-2" points="1281.5 1272.99 1287.01 1400.19 1416.68 1360.16 1408.67 1233.73 1281.5 1272.99"/><polygon class="cls-2" points="591.33 1233.73 583.32 1360.16 712.99 1400.19 718.5 1272.99 591.33 1233.73"/><polygon class="cls-2" points="1384.96 1098.32 1408.67 1233.73 1520.14 1180.9 1489.96 1048.55 1384.96 1098.32"/><polygon class="cls-2" points="510.04 1048.55 479.86 1180.9 591.33 1233.73 615.04 1098.32 510.04 1048.55"/><polygon class="cls-2" points="1000 483.69 1000 599.81 1055.99 596.62 1028.55 482.07 1000 483.69"/><polygon class="cls-2" points="971.46 482.07 944.01 596.62 1000 599.81 1000 483.69 971.46 482.07"/><polygon class="cls-2" points="1028.55 482.07 1055.99 596.62 1109.84 587.19 1055.99 477.26 1028.55 482.07"/><polygon class="cls-2" points="944.01 477.26 890.16 587.19 944.01 596.62 971.46 482.07 944.01 477.26"/><polygon class="cls-2" points="1055.99 477.26 1109.84 587.19 1159.45 571.87 1081.29 469.45 1055.99 477.26"/><polygon class="cls-2" points="918.71 469.45 840.54 571.87 890.16 587.19 944.01 477.26 918.71 469.45"/><polygon class="cls-2" points="1000 1433.16 1000 1544.35 1143.51 1536.19 1146.32 1424.84 1000 1433.16"/><polygon class="cls-2" points="853.68 1424.84 856.5 1536.19 1000 1544.35 1000 1433.16 853.68 1424.84"/><polygon class="cls-2" points="1375 783.42 1440.96 914.34 1518.51 859.76 1440.96 737 1375 783.42"/><polygon class="cls-2" points="1294.64 660.82 1375 783.42 1440.96 737 1346.46 624.35 1294.64 660.82"/><polygon class="cls-2" points="559.04 737 481.49 859.76 559.04 914.34 625 783.42 559.04 737"/><polygon class="cls-2" points="653.54 624.35 559.04 737 625 783.42 705.36 660.82 653.54 624.35"/><polygon class="cls-2" points="1440.96 914.34 1489.96 1048.55 1576.13 987.91 1518.51 859.76 1440.96 914.34"/><polygon class="cls-2" points="1146.32 1424.84 1143.51 1536.19 1281.5 1512.01 1287.01 1400.19 1146.32 1424.84"/><polygon class="cls-2" points="712.99 1400.19 718.5 1512.01 856.5 1536.19 853.68 1424.84 712.99 1400.19"/><polygon class="cls-2" points="481.49 859.76 423.87 987.91 510.04 1048.55 559.04 914.34 481.49 859.76"/><polygon class="cls-2" points="1202.95 551.26 1294.64 660.82 1346.46 624.35 1238.64 526.14 1202.95 551.26"/><polygon class="cls-2" points="761.36 526.14 653.54 624.35 705.36 660.82 797.05 551.26 761.36 526.14"/><polygon class="cls-2" points="1081.29 469.45 1159.45 571.87 1202.95 551.26 1103.46 458.94 1081.29 469.45"/><polygon class="cls-2" points="896.54 458.94 797.05 551.26 840.54 571.87 918.71 469.45 896.54 458.94"/><polygon class="cls-2" points="1408.67 1233.73 1416.68 1360.16 1530.33 1306.29 1520.14 1180.9 1408.67 1233.73"/><polygon class="cls-2" points="479.86 1180.9 469.67 1306.29 583.32 1360.16 591.33 1233.73 479.86 1180.9"/><polygon class="cls-2" points="1287.01 1400.19 1281.5 1512.01 1408.67 1472.75 1416.68 1360.16 1287.01 1400.19"/><polygon class="cls-2" points="1489.96 1048.55 1520.14 1180.9 1611.62 1116.52 1576.13 987.91 1489.96 1048.55"/><polygon class="cls-2" points="1103.46 458.94 1202.95 551.26 1238.64 526.14 1121.66 446.13 1103.46 458.94"/><polygon class="cls-2" points="583.32 1360.16 591.33 1472.75 718.5 1512.01 712.99 1400.19 583.32 1360.16"/><polygon class="cls-2" points="423.87 987.91 388.38 1116.52 479.86 1180.9 510.04 1048.55 423.87 987.91"/><polygon class="cls-2" points="878.34 446.13 761.36 526.14 797.05 551.26 896.54 458.94 878.34 446.13"/><polygon class="cls-2" points="1346.46 624.35 1440.96 737 1489.96 684.05 1384.96 582.75 1346.46 624.35"/><polygon class="cls-2" points="1238.64 526.14 1346.46 624.35 1384.96 582.75 1265.17 497.48 1238.64 526.14"/><polygon class="cls-2" points="615.04 582.75 510.04 684.05 559.04 737 653.54 624.35 615.04 582.75"/><polygon class="cls-2" points="734.84 497.48 615.04 582.75 653.54 624.35 761.36 526.14 734.84 497.48"/><polygon class="cls-2" points="1440.96 737 1518.51 859.76 1576.13 797.49 1489.96 684.05 1440.96 737"/><polygon class="cls-2" points="510.04 684.05 423.87 797.49 481.49 859.76 559.04 737 510.04 684.05"/><polygon class="cls-2" points="1000 387.41 1000 483.69 1028.55 482.07 1000 387.41"/><polygon class="cls-2" points="1000 387.41 971.46 482.07 1000 483.69 1000 387.41"/><polygon class="cls-2" points="1000 387.41 1028.55 482.07 1055.99 477.26 1000 387.41"/><polygon class="cls-2" points="1000 387.41 944.01 477.26 971.46 482.07 1000 387.41"/><polygon class="cls-2" points="1000 387.41 1055.99 477.26 1081.29 469.45 1000 387.41"/><polygon class="cls-2" points="1000 387.41 918.71 469.45 944.01 477.26 1000 387.41"/><polygon class="cls-2" points="1121.66 446.13 1238.64 526.14 1265.17 497.48 1135.18 431.52 1121.66 446.13"/><polygon class="cls-2" points="864.82 431.52 734.84 497.48 761.36 526.14 878.34 446.13 864.82 431.52"/><polygon class="cls-2" points="1000 387.41 1081.29 469.45 1103.46 458.94 1000 387.41"/><polygon class="cls-2" points="1000 387.41 896.54 458.94 918.71 469.45 1000 387.41"/><polygon class="cls-2" points="1518.51 859.76 1576.13 987.91 1640.17 918.72 1576.13 797.49 1518.51 859.76"/><polygon class="cls-2" points="423.87 797.49 359.83 918.72 423.87 987.91 481.49 859.76 423.87 797.49"/><polygon class="cls-2" points="1000 1544.35 1000 1634.62 1135.18 1626.93 1143.51 1536.19 1000 1544.35"/><polygon class="cls-2" points="856.5 1536.19 864.82 1626.93 1000 1634.62 1000 1544.35 856.5 1536.19"/><polygon class="cls-2" points="1416.68 1360.16 1408.67 1472.75 1520.14 1419.92 1530.33 1306.29 1416.68 1360.16"/><polygon class="cls-2" points="1520.14 1180.9 1530.33 1306.29 1623.61 1240.65 1611.62 1116.52 1520.14 1180.9"/><polygon class="cls-2" points="1000 387.41 1103.46 458.94 1121.66 446.13 1000 387.41"/><polygon class="cls-2" points="469.67 1306.29 479.86 1419.92 591.33 1472.75 583.32 1360.16 469.67 1306.29"/><polygon class="cls-2" points="1000 387.41 878.34 446.13 896.54 458.94 1000 387.41"/><polygon class="cls-2" points="388.38 1116.52 376.4 1240.65 469.67 1306.29 479.86 1180.9 388.38 1116.52"/><polygon class="cls-2" points="1143.51 1536.19 1135.18 1626.93 1265.17 1604.16 1281.5 1512.01 1143.51 1536.19"/><polygon class="cls-2" points="718.5 1512.01 734.84 1604.16 864.82 1626.93 856.5 1536.19 718.5 1512.01"/><polygon class="cls-2" points="1000 387.41 1121.66 446.13 1135.18 431.52 1000 387.41"/><polygon class="cls-2" points="1000 387.41 864.82 431.52 878.34 446.13 1000 387.41"/><polygon class="cls-2" points="591.33 537.6 479.86 626.59 510.04 684.05 615.04 582.75 591.33 537.6"/><polygon class="cls-2" points="718.5 466.38 591.33 537.6 615.04 582.75 734.84 497.48 718.5 466.38"/><polygon class="cls-2" points="1384.96 582.75 1489.96 684.05 1520.14 626.59 1408.67 537.6 1384.96 582.75"/><polygon class="cls-2" points="1265.17 497.48 1384.96 582.75 1408.67 537.6 1281.5 466.38 1265.17 497.48"/><polygon class="cls-2" points="1135.18 431.52 1265.17 497.48 1281.5 466.38 1143.51 415.67 1135.18 431.52"/><polygon class="cls-2" points="856.5 415.67 718.5 466.38 734.84 497.48 864.82 431.52 856.5 415.67"/><polygon class="cls-2" points="1576.13 987.91 1611.62 1116.52 1679.6 1043.07 1640.17 918.72 1576.13 987.91"/><polygon class="cls-2" points="359.83 918.72 320.4 1043.07 388.38 1116.52 423.87 987.91 359.83 918.72"/><polygon class="cls-2" points="1489.96 684.05 1576.13 797.49 1611.62 729.93 1520.14 626.59 1489.96 684.05"/><polygon class="cls-2" points="479.86 626.59 388.38 729.93 423.87 797.49 510.04 684.05 479.86 626.59"/><polygon class="cls-2" points="1281.5 1512.01 1265.17 1604.16 1384.96 1567.17 1408.67 1472.75 1281.5 1512.01"/><polygon class="cls-2" points="1000 387.41 856.5 415.67 864.82 431.52 1000 387.41"/><polygon class="cls-2" points="1000 387.41 1135.18 431.52 1143.51 415.67 1000 387.41"/><polygon class="cls-2" points="591.33 1472.75 615.04 1567.17 734.84 1604.16 718.5 1512.01 591.33 1472.75"/><polygon class="cls-2" points="1000 387.41 1143.51 415.67 1146.32 399.18 1000 387.41"/><polygon class="cls-2" points="1143.51 415.67 1281.5 466.38 1287.01 434.04 1146.32 399.18 1143.51 415.67"/><polygon class="cls-2" points="1000 387.41 853.68 399.18 856.5 415.67 1000 387.41"/><polygon class="cls-2" points="853.68 399.18 712.99 434.04 718.5 466.38 856.5 415.67 853.68 399.18"/><polygon class="cls-2" points="1281.5 466.38 1408.67 537.6 1416.68 490.65 1287.01 434.04 1281.5 466.38"/><polygon class="cls-2" points="712.99 434.04 583.32 490.65 591.33 537.6 718.5 466.38 712.99 434.04"/><polygon class="cls-2" points="1576.13 797.49 1640.17 918.72 1679.6 843.65 1611.62 729.93 1576.13 797.49"/><polygon class="cls-2" points="388.38 729.93 320.4 843.65 359.83 918.72 423.87 797.49 388.38 729.93"/><polygon class="cls-2" points="1530.33 1306.29 1520.14 1419.92 1611.62 1355.54 1623.61 1240.65 1530.33 1306.29"/><polygon class="cls-2" points="1000 387.41 1121.66 352.24 1103.46 339.43 1000 387.41"/><polygon class="cls-2" points="1000 387.41 1135.18 366.85 1121.66 352.24 1000 387.41"/><polygon class="cls-2" points="1000 387.41 1143.51 382.7 1135.18 366.85 1000 387.41"/><polygon class="cls-2" points="1000 387.41 1146.32 399.18 1143.51 382.7 1000 387.41"/><polygon class="cls-2" points="1000 387.41 856.5 382.7 853.68 399.18 1000 387.41"/><polygon class="cls-2" points="1000 387.41 864.82 366.85 856.5 382.7 1000 387.41"/><polygon class="cls-2" points="1000 387.41 878.34 352.24 864.82 366.85 1000 387.41"/><polygon class="cls-2" points="1000 387.41 896.54 339.43 878.34 352.24 1000 387.41"/><polygon class="cls-2" points="1000 387.41 918.71 328.92 896.54 339.43 1000 387.41"/><polygon class="cls-2" points="1000 387.41 944.01 321.11 918.71 328.92 1000 387.41"/><polygon class="cls-2" points="1000 387.41 971.46 316.3 944.01 321.11 1000 387.41"/><polygon class="cls-2" points="1000 387.41 1000 314.68 971.46 316.3 1000 387.41"/><polygon class="cls-2" points="1000 387.41 1028.55 316.3 1000 314.68 1000 387.41"/><polygon class="cls-2" points="1000 387.41 1055.99 321.11 1028.55 316.3 1000 387.41"/><polygon class="cls-2" points="1000 387.41 1081.29 328.92 1055.99 321.11 1000 387.41"/><polygon class="cls-2" points="1000 387.41 1103.46 339.43 1081.29 328.92 1000 387.41"/><polygon class="cls-2" points="376.4 1240.65 388.38 1355.54 479.86 1419.92 469.67 1306.29 376.4 1240.65"/><polygon class="cls-2" points="1408.67 537.6 1520.14 626.59 1530.33 566.84 1416.68 490.65 1408.67 537.6"/><polygon class="cls-2" points="583.32 490.65 469.67 566.84 479.86 626.59 591.33 537.6 583.32 490.65"/><polygon class="cls-2" points="1146.32 399.18 1287.01 434.04 1281.5 401.7 1143.51 382.7 1146.32 399.18"/><polygon class="cls-2" points="856.5 382.7 718.5 401.7 712.99 434.04 853.68 399.18 856.5 382.7"/><polygon class="cls-2" points="1611.62 1116.52 1623.61 1240.65 1692.91 1165.76 1679.6 1043.07 1611.62 1116.52"/><polygon class="cls-2" points="320.4 1043.07 307.09 1165.76 376.4 1240.65 388.38 1116.52 320.4 1043.07"/><polygon class="cls-2" points="1408.67 1472.75 1384.96 1567.17 1489.96 1517.41 1520.14 1419.92 1408.67 1472.75"/><polygon class="cls-2" points="479.86 1419.92 510.04 1517.41 615.04 1567.17 591.33 1472.75 479.86 1419.92"/><polygon class="cls-2" points="1143.51 382.7 1281.5 401.7 1265.17 370.61 1135.18 366.85 1143.51 382.7"/><polygon class="cls-2" points="864.82 366.85 734.84 370.61 718.5 401.7 856.5 382.7 864.82 366.85"/><polygon class="cls-2" points="1000 1634.62 1000 1700.5 1121.66 1693.58 1135.18 1626.93 1000 1634.62"/><polygon class="cls-2" points="864.82 1626.93 878.34 1693.58 1000 1700.5 1000 1634.62 864.82 1626.93"/><polygon class="cls-2" points="1287.01 434.04 1416.68 490.65 1408.67 443.7 1281.5 401.7 1287.01 434.04"/><polygon class="cls-2" points="718.5 401.7 591.33 443.7 583.32 490.65 712.99 434.04 718.5 401.7"/><polygon class="cls-2" points="1520.14 626.59 1611.62 729.93 1623.61 659.67 1530.33 566.84 1520.14 626.59"/><polygon class="cls-2" points="469.67 566.84 376.4 659.67 388.38 729.93 479.86 626.59 469.67 566.84"/><polygon class="cls-2" points="1135.18 1626.93 1121.66 1693.58 1238.64 1673.08 1265.17 1604.16 1135.18 1626.93"/><polygon class="cls-2" points="734.84 1604.16 761.36 1673.08 878.34 1693.58 864.82 1626.93 734.84 1604.16"/><polygon class="cls-2" points="1640.17 918.72 1679.6 1043.07 1721.46 963.37 1679.6 843.65 1640.17 918.72"/><polygon class="cls-2" points="320.4 843.65 278.54 963.37 320.4 1043.07 359.83 918.72 320.4 843.65"/><polygon class="cls-2" points="1135.18 366.85 1265.17 370.61 1238.64 341.95 1121.66 352.24 1135.18 366.85"/><polygon class="cls-2" points="878.34 352.24 761.36 341.95 734.84 370.61 864.82 366.85 878.34 352.24"/><polygon class="cls-2" points="1416.68 490.65 1530.33 566.84 1520.14 507.08 1408.67 443.7 1416.68 490.65"/><polygon class="cls-2" points="591.33 443.7 479.86 507.08 469.67 566.84 583.32 490.65 591.33 443.7"/><polygon class="cls-2" points="1121.66 352.24 1238.64 341.95 1202.95 316.83 1103.46 339.43 1121.66 352.24"/><polygon class="cls-2" points="896.54 339.43 797.05 316.83 761.36 341.95 878.34 352.24 896.54 339.43"/><polygon class="cls-2" points="1265.17 1604.16 1238.64 1673.08 1346.46 1639.8 1384.96 1567.17 1265.17 1604.16"/><polygon class="cls-2" points="615.04 1567.17 653.54 1639.8 761.36 1673.08 734.84 1604.16 615.04 1567.17"/><polygon class="cls-2" points="1281.5 401.7 1408.67 443.7 1384.96 398.56 1265.17 370.61 1281.5 401.7"/><polygon class="cls-2" points="734.84 370.61 615.04 398.56 591.33 443.7 718.5 401.7 734.84 370.61"/><polygon class="cls-2" points="1520.14 1419.92 1489.96 1517.41 1576.13 1456.76 1611.62 1355.54 1520.14 1419.92"/><polygon class="cls-2" points="1623.61 1240.65 1611.62 1355.54 1679.6 1282.09 1692.91 1165.76 1623.61 1240.65"/><polygon class="cls-2" points="918.71 328.92 840.54 296.22 797.05 316.83 896.54 339.43 918.71 328.92"/><polygon class="cls-2" points="1103.46 339.43 1202.95 316.83 1159.45 296.22 1081.29 328.92 1103.46 339.43"/><polygon class="cls-2" points="388.38 1355.54 423.87 1456.76 510.04 1517.41 479.86 1419.92 388.38 1355.54"/><polygon class="cls-2" points="307.09 1165.76 320.4 1282.09 388.38 1355.54 376.4 1240.65 307.09 1165.76"/><polygon class="cls-2" points="1611.62 729.93 1679.6 843.65 1692.91 765.57 1623.61 659.67 1611.62 729.93"/><polygon class="cls-2" points="376.4 659.67 307.09 765.57 320.4 843.65 388.38 729.93 376.4 659.67"/><polygon class="cls-2" points="944.01 321.11 890.16 280.9 840.54 296.22 918.71 328.92 944.01 321.11"/><polygon class="cls-2" points="1081.29 328.92 1159.45 296.22 1109.84 280.9 1055.99 321.11 1081.29 328.92"/><polygon class="cls-2" points="971.46 316.3 944.01 271.46 890.16 280.9 944.01 321.11 971.46 316.3"/><polygon class="cls-2" points="1055.99 321.11 1109.84 280.9 1055.99 271.46 1028.55 316.3 1055.99 321.11"/><polygon class="cls-2" points="1679.6 1043.07 1692.91 1165.76 1735.59 1084.51 1721.46 963.37 1679.6 1043.07"/><polygon class="cls-2" points="278.54 963.37 264.41 1084.51 307.09 1165.76 320.4 1043.07 278.54 963.37"/><polygon class="cls-2" points="1265.17 370.61 1384.96 398.56 1346.46 356.95 1238.64 341.95 1265.17 370.61"/><polygon class="cls-2" points="761.36 341.95 653.54 356.95 615.04 398.56 734.84 370.61 761.36 341.95"/><polygon class="cls-2" points="1000 314.68 1000 268.28 944.01 271.46 971.46 316.3 1000 314.68"/><polygon class="cls-2" points="1028.55 316.3 1055.99 271.46 1000 268.28 1000 314.68 1028.55 316.3"/><polygon class="cls-2" points="1530.33 566.84 1623.61 659.67 1611.62 589.4 1520.14 507.08 1530.33 566.84"/><polygon class="cls-2" points="479.86 507.08 388.38 589.4 376.4 659.67 469.67 566.84 479.86 507.08"/><polygon class="cls-2" points="1384.96 1567.17 1346.46 1639.8 1440.96 1595.01 1489.96 1517.41 1384.96 1567.17"/><polygon class="cls-2" points="510.04 1517.41 559.04 1595.01 653.54 1639.8 615.04 1567.17 510.04 1517.41"/><polygon class="cls-2" points="1408.67 443.7 1520.14 507.08 1489.96 449.62 1384.96 398.56 1408.67 443.7"/><polygon class="cls-2" points="615.04 398.56 510.04 449.62 479.86 507.08 591.33 443.7 615.04 398.56"/><polygon class="cls-2" points="1679.6 843.65 1721.46 963.37 1735.59 880.49 1692.91 765.57 1679.6 843.65"/><polygon class="cls-2" points="307.09 765.57 264.41 880.49 278.54 963.37 320.4 843.65 307.09 765.57"/><polygon class="cls-2" points="1238.64 341.95 1346.46 356.95 1294.64 320.49 1202.95 316.83 1238.64 341.95"/><polygon class="cls-2" points="797.05 316.83 705.36 320.49 653.54 356.95 761.36 341.95 797.05 316.83"/><polygon class="cls-2" points="1000 1700.5 1000 1739.46 1103.46 1733.57 1121.66 1693.58 1000 1700.5"/><polygon class="cls-2" points="878.34 1693.58 896.54 1733.57 1000 1739.46 1000 1700.5 878.34 1693.58"/><polygon class="cls-2" points="1121.66 1693.58 1103.46 1733.57 1202.95 1716.14 1238.64 1673.08 1121.66 1693.58"/><polygon class="cls-2" points="761.36 1673.08 797.05 1716.14 896.54 1733.57 878.34 1693.58 761.36 1673.08"/><polygon class="cls-2" points="1611.62 1355.54 1576.13 1456.76 1640.17 1387.57 1679.6 1282.09 1611.62 1355.54"/><polygon class="cls-2" points="320.4 1282.09 359.83 1387.57 423.87 1456.76 388.38 1355.54 320.4 1282.09"/><polygon class="cls-2" points="1623.61 659.67 1692.91 765.57 1679.6 687.5 1611.62 589.4 1623.61 659.67"/><polygon class="cls-2" points="388.38 589.4 320.4 687.5 307.09 765.57 376.4 659.67 388.38 589.4"/><polygon class="cls-2" points="1489.96 1517.41 1440.96 1595.01 1518.51 1540.43 1576.13 1456.76 1489.96 1517.41"/><polygon class="cls-2" points="1202.95 316.83 1294.64 320.49 1231.5 290.56 1159.45 296.22 1202.95 316.83"/><polygon class="cls-2" points="423.87 1456.76 481.49 1540.43 559.04 1595.01 510.04 1517.41 423.87 1456.76"/><polygon class="cls-2" points="1692.91 1165.76 1679.6 1282.09 1721.46 1202.39 1735.59 1084.51 1692.91 1165.76"/><polygon class="cls-2" points="264.41 1084.51 278.54 1202.39 320.4 1282.09 307.09 1165.76 264.41 1084.51"/><polygon class="cls-2" points="840.54 296.22 768.5 290.56 705.36 320.49 797.05 316.83 840.54 296.22"/><polygon class="cls-2" points="1238.64 1673.08 1202.95 1716.14 1294.64 1687.84 1346.46 1639.8 1238.64 1673.08"/><polygon class="cls-2" points="1384.96 398.56 1489.96 449.62 1440.96 396.67 1346.46 356.95 1384.96 398.56"/><polygon class="cls-2" points="653.54 1639.8 705.36 1687.84 797.05 1716.14 761.36 1673.08 653.54 1639.8"/><polygon class="cls-2" points="653.54 356.95 559.04 396.67 510.04 449.62 615.04 398.56 653.54 356.95"/><polygon class="cls-2" points="1520.14 507.08 1611.62 589.4 1576.13 521.84 1489.96 449.62 1520.14 507.08"/><polygon class="cls-2" points="510.04 449.62 423.87 521.84 388.38 589.4 479.86 507.08 510.04 449.62"/><polygon class="cls-2" points="1159.45 296.22 1231.5 290.56 1159.45 268.32 1109.84 280.9 1159.45 296.22"/><polygon class="cls-2" points="890.16 280.9 840.54 268.32 768.5 290.56 840.54 296.22 890.16 280.9"/><polygon class="cls-2" points="1721.46 963.37 1735.59 1084.51 1750 1000 1735.59 880.49 1721.46 963.37"/><polygon class="cls-2" points="264.41 880.49 250 1000 264.41 1084.51 278.54 963.37 264.41 880.49"/><polygon class="cls-2" points="1109.84 280.9 1159.45 268.32 1081.29 254.62 1055.99 271.46 1109.84 280.9"/><polygon class="cls-2" points="944.01 271.46 918.71 254.62 840.54 268.32 890.16 280.9 944.01 271.46"/><polygon class="cls-2" points="1346.46 1639.8 1294.64 1687.84 1375 1649.75 1440.96 1595.01 1346.46 1639.8"/><polygon class="cls-2" points="559.04 1595.01 625 1649.75 705.36 1687.84 653.54 1639.8 559.04 1595.01"/><polygon class="cls-2" points="1346.46 356.95 1440.96 396.67 1375 350.25 1294.64 320.49 1346.46 356.95"/><polygon class="cls-2" points="705.36 320.49 625 350.25 559.04 396.67 653.54 356.95 705.36 320.49"/><polygon class="cls-2" points="1000 268.28 1000 250 918.71 254.62 944.01 271.46 1000 268.28"/><polygon class="cls-2" points="1055.99 271.46 1081.29 254.62 1000 250 1000 268.28 1055.99 271.46"/><polygon class="cls-2" points="1692.91 765.57 1735.59 880.49 1721.46 797.61 1679.6 687.5 1692.91 765.57"/><polygon class="cls-2" points="320.4 687.5 278.54 797.61 264.41 880.49 307.09 765.57 320.4 687.5"/><polygon class="cls-2" points="1576.13 1456.76 1518.51 1540.43 1576.13 1478.16 1640.17 1387.57 1576.13 1456.76"/><polygon class="cls-2" points="359.83 1387.57 423.87 1478.16 481.49 1540.43 423.87 1456.76 359.83 1387.57"/><polygon class="cls-2" points="1679.6 1282.09 1640.17 1387.57 1679.6 1312.5 1721.46 1202.39 1679.6 1282.09"/><polygon class="cls-2" points="278.54 1202.39 320.4 1312.5 359.83 1387.57 320.4 1282.09 278.54 1202.39"/><polygon class="cls-2" points="1611.62 589.4 1679.6 687.5 1640.17 612.43 1576.13 521.84 1611.62 589.4"/><polygon class="cls-2" points="423.87 521.84 359.83 612.43 320.4 687.5 388.38 589.4 423.87 521.84"/><polygon class="cls-2" points="1489.96 449.62 1576.13 521.84 1518.51 459.57 1440.96 396.67 1489.96 449.62"/><polygon class="cls-2" points="559.04 396.67 481.49 459.57 423.87 521.84 510.04 449.62 559.04 396.67"/><polygon class="cls-2" points="1000 1739.46 1000 1750 1081.29 1745.38 1103.46 1733.57 1000 1739.46"/><polygon class="cls-2" points="896.54 1733.57 918.71 1745.38 1000 1750 1000 1739.46 896.54 1733.57"/><polygon class="cls-2" points="1735.59 1084.51 1721.46 1202.39 1735.59 1119.51 1750 1000 1735.59 1084.51"/><polygon class="cls-2" points="1440.96 1595.01 1375 1649.75 1440.96 1603.33 1518.51 1540.43 1440.96 1595.01"/><polygon class="cls-2" points="481.49 1540.43 559.04 1603.33 625 1649.75 559.04 1595.01 481.49 1540.43"/><polygon class="cls-2" points="250 1000 264.41 1119.51 278.54 1202.39 264.41 1084.51 250 1000"/><polygon class="cls-2" points="1294.64 320.49 1375 350.25 1294.64 312.16 1231.5 290.56 1294.64 320.49"/><polygon class="cls-2" points="768.5 290.56 705.36 312.16 625 350.25 705.36 320.49 768.5 290.56"/><polygon class="cls-2" points="1103.46 1733.57 1081.29 1745.38 1159.45 1731.68 1202.95 1716.14 1103.46 1733.57"/><polygon class="cls-2" points="797.05 1716.14 840.54 1731.68 918.71 1745.38 896.54 1733.57 797.05 1716.14"/><polygon class="cls-2" points="1202.95 1716.14 1159.45 1731.68 1231.5 1709.44 1294.64 1687.84 1202.95 1716.14"/><polygon class="cls-2" points="705.36 1687.84 768.5 1709.44 840.54 1731.68 797.05 1716.14 705.36 1687.84"/><polygon class="cls-2" points="278.54 797.61 264.41 915.5 250 1000 264.41 880.49 278.54 797.61"/><polygon class="cls-2" points="840.54 268.32 797.05 283.86 705.36 312.16 768.5 290.56 840.54 268.32"/><circle class="cls-3" cx="1000" cy="1000" r="750"/></svg>