<svg id="Circular_element" data-name="Circular element" xmlns="http://www.w3.org/2000/svg" viewBox="0 0 2000 2000"><defs><style>.cls-1,.cls-10,.cls-11,.cls-12,.cls-13,.cls-14,.cls-15,.cls-16,.cls-17,.cls-18,.cls-2,.cls-20,.cls-21,.cls-22,.cls-23,.cls-24,.cls-25,.cls-26,.cls-28,.cls-3,.cls-30,.cls-31,.cls-32,.cls-34,.cls-35,.cls-4,.cls-5,.cls-6,.cls-7,.cls-8,.cls-9{fill:none;stroke-linecap:round;stroke-miterlimit:10;}.cls-1,.cls-2,.cls-3{stroke:#dd1920;}.cls-1,.cls-14,.cls-15,.cls-16,.cls-17,.cls-18,.cls-2,.cls-20,.cls-21,.cls-22,.cls-23,.cls-24,.cls-25,.cls-26,.cls-28,.cls-3,.cls-30,.cls-31,.cls-32,.cls-34,.cls-35{stroke-width:21.43px;}.cls-1{opacity:0.8;}.cls-2{opacity:0.98;}.cls-3{opacity:0.53;}.cls-10,.cls-11,.cls-12,.cls-13,.cls-14,.cls-15,.cls-16,.cls-17,.cls-18,.cls-20,.cls-21,.cls-22,.cls-23,.cls-24,.cls-25,.cls-26,.cls-28,.cls-30,.cls-31,.cls-32,.cls-34,.cls-35,.cls-4,.cls-5,.cls-6,.cls-7,.cls-8,.cls-9{stroke:#fff;}.cls-10,.cls-11,.cls-12,.cls-13,.cls-4,.cls-5,.cls-6,.cls-7,.cls-8,.cls-9{stroke-width:3.9px;}.cls-4{opacity:0.44;}.cls-5{opacity:0.74;}.cls-6{opacity:0.43;}.cls-7{opacity:0.63;}.cls-8{opacity:0.1;}.cls-9{opacity:0.73;}.cls-10{opacity:0.1;}.cls-11{opacity:0.79;}.cls-12{opacity:0.76;}.cls-13{opacity:0.65;}.cls-14{opacity:0.05;}.cls-15{opacity:0.25;}.cls-16{opacity:0.49;}.cls-17{opacity:0.99;}.cls-18{opacity:0.19;}.cls-19{opacity:0.85;}.cls-21{stroke-dasharray:0 49.05;}.cls-22{opacity:0.25;}.cls-23{opacity:0.42;}.cls-24{opacity:0.65;}.cls-25{opacity:0.84;}.cls-26{opacity:0.83;}.cls-27{opacity:0.93;}.cls-28{stroke-dasharray:0 47.14;}.cls-29{opacity:0.25;}.cls-30{stroke-dasharray:0 47.14;}.cls-31{opacity:0.07;}.cls-32{opacity:0.56;}.cls-33{opacity:0.3;}.cls-34{stroke-dasharray:0 47.66;}.cls-35{opacity:0.52;}</style></defs><path class="cls-1" d="M850.23,824.45a230.77,230.77,0,0,1,348.53,58.29"/><path class="cls-2" d="M1516.23,691a601.68,601.68,0,0,1-390.16,897.34"/><path class="cls-3" d="M483.76,1309A601.69,601.69,0,0,1,873.93,411.7"/><path class="cls-4" d="M926.94,961.82a82.43,82.43,0,1,0,111.24-34.88A82.43,82.43,0,0,0,926.94,961.82Z"/><path class="cls-5" d="M853.43,944.91a156.58,156.58,0,1,0,201.65-91.48A156.59,156.59,0,0,0,853.43,944.91Z"/><path class="cls-6" d="M850.23,824.45c-97,82.72-108.5,228.37-25.78,325.32s228.37,108.5,325.32,25.78,108.5-228.37,25.78-325.32S947.18,741.73,850.23,824.45Z"/><path class="cls-7" d="M876.24,721.29c-153.92,68.35-223.3,248.54-155,402.47s248.54,223.3,402.47,155,223.3-248.54,155-402.47S1030.17,652.94,876.24,721.29Z"/><circle class="cls-8" cx="1000" cy="1000" r="379.12" transform="translate(-414.21 1000) rotate(-45)"/><path class="cls-9" d="M856.3,570.08c-237.44,79.35-365.6,336.17-286.24,573.61s336.17,365.59,573.61,286.24,365.6-336.17,286.24-573.62S1093.74,490.72,856.3,570.08Z"/><circle class="cls-10" cx="1000" cy="1000" r="527.48" transform="translate(-414.21 1000) rotate(-45)"/><circle class="cls-11" cx="1000" cy="1000" r="601.65" transform="translate(-414.21 1000) rotate(-45)"/><circle class="cls-12" cx="1000" cy="1000" r="675.83" transform="translate(-414.21 1000) rotate(-45)"/><circle class="cls-13" cx="1000" cy="1000" r="750" transform="translate(-414.21 1000) rotate(-45)"/><path class="cls-14" d="M975.31,1078.63a82.45,82.45,0,0,1-48.37-116.81"/><path class="cls-15" d="M1024.69,921.37a82.45,82.45,0,0,1,48.37,116.81"/><path class="cls-16" d="M882.9,1104a156.6,156.6,0,0,1-29.47-159.06"/><path class="cls-17" d="M1117.1,896a156.57,156.57,0,0,1,29.47,159.06"/><path class="cls-18" d="M1149.77,1175.55a230.77,230.77,0,0,1-348.53-58.29"/><g class="cls-19"><line class="cls-20" x1="876.24" y1="721.29" x2="876.24" y2="721.29"/><path class="cls-21" d="M922.48,705.06A305,305,0,0,1,1291.37,910"/><line class="cls-20" x1="1297.66" y1="933.7" x2="1297.66" y2="933.7"/></g><path class="cls-22" d="M1123.76,1278.71A305,305,0,0,1,702.34,1066.3"/><path class="cls-23" d="M1283.65,1251.54A379.13,379.13,0,0,1,622.52,964.59"/><path class="cls-24" d="M716.35,748.46a379.13,379.13,0,0,1,661.13,287"/><path class="cls-25" d="M1155.08,574.06a453.29,453.29,0,0,1-11.41,855.87"/><path class="cls-26" d="M844.92,1425.94A453.3,453.3,0,0,1,856.3,570.07"/><g class="cls-27"><line class="cls-20" x1="1197.24" y1="1489.2" x2="1197.24" y2="1489.2"/><path class="cls-28" d="M1152.79,1504.86a527.48,527.48,0,0,1-668.52-394.15"/><line class="cls-20" x1="479.84" y1="1087.56" x2="479.84" y2="1087.56"/></g><g class="cls-29"><line class="cls-20" x1="802.76" y1="510.8" x2="802.76" y2="510.8"/><path class="cls-30" d="M847.21,495.14a527.49,527.49,0,0,1,668.52,394.15"/><line class="cls-20" x1="1520.16" y1="912.44" x2="1520.16" y2="912.44"/></g><path class="cls-31" d="M1378.56,440.15c290.34,196.32,382.42,582,212.08,888.3"/><path class="cls-32" d="M621.44,1559.85C331.1,1363.53,239,977.85,409.35,671.55"/><g class="cls-33"><line class="cls-20" x1="250.03" y1="1006.3" x2="250.03" y2="1006.3"/><path class="cls-34" d="M251.14,958.65a750,750,0,0,1,967.3-676.13"/><line class="cls-20" x1="1241.13" y1="289.82" x2="1241.13" y2="289.82"/></g><path class="cls-35" d="M1750,993.7a750,750,0,0,1-991.09,716.48"/></svg>