<svg id="Circular_element" data-name="Circular element" xmlns="http://www.w3.org/2000/svg" viewBox="0 0 2000 2000"><defs><style>.cls-1{opacity:0.1;}.cls-2,.cls-3,.cls-4,.cls-5,.cls-6,.cls-7,.cls-8,.cls-9{fill:none;stroke-miterlimit:10;}.cls-2,.cls-3,.cls-4,.cls-5,.cls-6,.cls-7,.cls-8{stroke:#fff;}.cls-2{stroke-width:12.12px;}.cls-3{stroke-width:20.78px;}.cls-4{stroke-width:29.44px;}.cls-5{stroke-width:38.1px;}.cls-6{stroke-width:46.76px;}.cls-7,.cls-9{stroke-width:55.42px;}.cls-8{stroke-width:64.08px;}.cls-9{stroke:#dd1920;}</style></defs><g class="cls-1"><circle class="cls-2" cx="1000" cy="1000" r="218.21" transform="translate(-414.21 1000) rotate(-45)"/><circle class="cls-3" cx="1000" cy="1000" r="306.82" transform="translate(-414.21 1000) rotate(-45)"/><circle class="cls-4" cx="1000" cy="1000" r="395.43"/><circle class="cls-5" cx="1000" cy="1000" r="484.04" transform="translate(-414.21 1000) rotate(-45)"/><circle class="cls-6" cx="1000" cy="1000" r="572.65" transform="translate(-414.21 1000) rotate(-45)"/><circle class="cls-7" cx="1000" cy="1000" r="661.26"/><circle class="cls-8" cx="1000" cy="1000" r="749.87"/></g><path class="cls-2" d="M811,890.9C871.28,786.53,1004.74,750.77,1109.1,811s140.13,193.71,79.87,298.07"/><path class="cls-3" d="M846.59,734.29c146.75-84.73,334.4-34.45,419.12,112.3s34.45,334.4-112.3,419.12"/><path class="cls-4" d="M1000,604.57c218.39,0,395.43,177,395.43,395.43s-177,395.43-395.43,395.43"/><path class="cls-5" d="M1242,580.81c231.51,133.66,310.84,429.7,177.17,661.21S989.49,1552.86,758,1419.19"/><path class="cls-6" d="M1495.93,713.67c158.13,273.9,64.29,624.13-209.6,782.26s-624.13,64.29-782.26-209.6"/><path class="cls-9" d="M1661.26,1000c0,365.21-296,661.26-661.26,661.26s-661.26-296-661.26-661.26"/><path class="cls-8" d="M1649.41,1374.94c-207.07,358.66-665.69,481.54-1024.35,274.47S143.52,983.72,350.59,625.06"/></svg>