<svg id="Circular_element" data-name="Circular element" xmlns="http://www.w3.org/2000/svg" viewBox="0 0 2000 2000"><defs><style>.cls-1,.cls-2,.cls-3,.cls-4{fill:none;stroke-linecap:round;stroke-linejoin:round;}.cls-1,.cls-2{stroke:#fff;stroke-width:5px;}.cls-2,.cls-4{stroke-dasharray:0 187.5;}.cls-3,.cls-4{stroke:#dd1920;stroke-width:15px;}</style></defs><line class="cls-1" x1="967.29" y1="250.71" x2="967.29" y2="250.71"/><line class="cls-2" x1="975.46" y1="438.04" x2="1028.63" y2="1655.63"/><line class="cls-1" x1="1032.71" y1="1749.29" x2="1032.71" y2="1749.29"/><line class="cls-1" x1="934.63" y1="252.85" x2="934.63" y2="252.85"/><line class="cls-2" x1="950.97" y1="439.64" x2="1057.2" y2="1653.75"/><line class="cls-1" x1="1065.37" y1="1747.15" x2="1065.37" y2="1747.15"/><line class="cls-1" x1="902.11" y1="256.42" x2="902.11" y2="256.42"/><line class="cls-2" x1="926.58" y1="442.31" x2="1085.66" y2="1650.64"/><line class="cls-1" x1="1097.89" y1="1743.58" x2="1097.89" y2="1743.58"/><line class="cls-1" x1="869.76" y1="261.39" x2="869.76" y2="261.39"/><line class="cls-2" x1="902.32" y1="446.05" x2="1113.96" y2="1646.28"/><line class="cls-1" x1="1130.24" y1="1738.61" x2="1130.24" y2="1738.61"/><line class="cls-1" x1="837.67" y1="267.78" x2="837.67" y2="267.78"/><line class="cls-2" x1="878.25" y1="450.83" x2="1142.04" y2="1640.69"/><line class="cls-1" x1="1162.33" y1="1732.22" x2="1162.33" y2="1732.22"/><line class="cls-1" x1="805.89" y1="275.56" x2="805.89" y2="275.56"/><line class="cls-2" x1="854.41" y1="456.67" x2="1169.85" y2="1633.89"/><line class="cls-1" x1="1194.11" y1="1724.44" x2="1194.11" y2="1724.44"/><line class="cls-1" x1="774.47" y1="284.71" x2="774.47" y2="284.71"/><line class="cls-2" x1="830.85" y1="463.53" x2="1197.34" y2="1625.88"/><line class="cls-1" x1="1225.53" y1="1715.29" x2="1225.53" y2="1715.29"/><line class="cls-1" x1="743.49" y1="295.23" x2="743.49" y2="295.23"/><line class="cls-2" x1="807.61" y1="471.42" x2="1224.45" y2="1616.67"/><line class="cls-1" x1="1256.51" y1="1704.77" x2="1256.51" y2="1704.77"/><line class="cls-1" x1="712.99" y1="307.09" x2="712.99" y2="307.09"/><line class="cls-2" x1="784.74" y1="480.32" x2="1251.14" y2="1606.3"/><line class="cls-1" x1="1287.01" y1="1692.91" x2="1287.01" y2="1692.91"/><line class="cls-1" x1="683.04" y1="320.27" x2="683.04" y2="320.27"/><line class="cls-2" x1="762.28" y1="490.2" x2="1277.34" y2="1594.76"/><line class="cls-1" x1="1316.96" y1="1679.73" x2="1316.96" y2="1679.73"/><line class="cls-1" x1="653.69" y1="334.74" x2="653.69" y2="334.74"/><line class="cls-2" x1="740.27" y1="501.06" x2="1303.02" y2="1582.1"/><line class="cls-1" x1="1346.31" y1="1665.26" x2="1346.31" y2="1665.26"/><line class="cls-1" x1="625" y1="350.48" x2="625" y2="350.48"/><line class="cls-2" x1="718.75" y1="512.86" x2="1328.13" y2="1568.33"/><line class="cls-1" x1="1375" y1="1649.52" x2="1375" y2="1649.52"/><line class="cls-1" x1="597.03" y1="367.46" x2="597.03" y2="367.46"/><line class="cls-2" x1="697.77" y1="525.59" x2="1352.6" y2="1553.48"/><line class="cls-1" x1="1402.97" y1="1632.54" x2="1402.97" y2="1632.54"/><line class="cls-1" x1="569.82" y1="385.64" x2="569.82" y2="385.64"/><line class="cls-2" x1="677.36" y1="539.23" x2="1376.41" y2="1537.57"/><line class="cls-1" x1="1430.18" y1="1614.36" x2="1430.18" y2="1614.36"/><line class="cls-1" x1="543.43" y1="404.99" x2="543.43" y2="404.99"/><line class="cls-2" x1="657.57" y1="553.74" x2="1399.5" y2="1520.64"/><line class="cls-1" x1="1456.57" y1="1595.01" x2="1456.57" y2="1595.01"/><line class="cls-1" x1="517.91" y1="425.47" x2="517.91" y2="425.47"/><line class="cls-2" x1="638.43" y1="569.1" x2="1421.83" y2="1502.72"/><line class="cls-1" x1="1482.09" y1="1574.53" x2="1482.09" y2="1574.53"/><line class="cls-1" x1="493.31" y1="447.04" x2="493.31" y2="447.04"/><line class="cls-2" x1="619.98" y1="585.28" x2="1443.36" y2="1483.84"/><line class="cls-1" x1="1506.69" y1="1552.96" x2="1506.69" y2="1552.96"/><line class="cls-1" x1="447.04" y1="493.31" x2="447.04" y2="493.31"/><line class="cls-2" x1="585.28" y1="619.98" x2="1483.84" y2="1443.36"/><line class="cls-1" x1="1552.96" y1="1506.69" x2="1552.96" y2="1506.69"/><line class="cls-1" x1="425.47" y1="517.91" x2="425.47" y2="517.91"/><line class="cls-2" x1="569.1" y1="638.43" x2="1502.72" y2="1421.83"/><line class="cls-1" x1="1574.53" y1="1482.09" x2="1574.53" y2="1482.09"/><line class="cls-1" x1="404.99" y1="543.43" x2="404.99" y2="543.43"/><line class="cls-2" x1="553.74" y1="657.57" x2="1520.64" y2="1399.5"/><line class="cls-1" x1="1595.01" y1="1456.57" x2="1595.01" y2="1456.57"/><line class="cls-1" x1="385.64" y1="569.82" x2="385.64" y2="569.82"/><line class="cls-2" x1="539.23" y1="677.36" x2="1537.57" y2="1376.41"/><line class="cls-1" x1="1614.36" y1="1430.18" x2="1614.36" y2="1430.18"/><line class="cls-1" x1="367.46" y1="597.03" x2="367.46" y2="597.03"/><line class="cls-2" x1="525.59" y1="697.77" x2="1553.48" y2="1352.6"/><line class="cls-1" x1="1632.54" y1="1402.97" x2="1632.54" y2="1402.97"/><line class="cls-1" x1="350.48" y1="625" x2="350.48" y2="625"/><line class="cls-2" x1="512.86" y1="718.75" x2="1568.33" y2="1328.13"/><line class="cls-1" x1="1649.52" y1="1375" x2="1649.52" y2="1375"/><line class="cls-1" x1="334.74" y1="653.69" x2="334.74" y2="653.69"/><line class="cls-2" x1="501.06" y1="740.27" x2="1582.1" y2="1303.02"/><line class="cls-1" x1="1665.26" y1="1346.31" x2="1665.26" y2="1346.31"/><line class="cls-1" x1="320.27" y1="683.04" x2="320.27" y2="683.04"/><line class="cls-2" x1="490.2" y1="762.28" x2="1594.76" y2="1277.34"/><line class="cls-1" x1="1679.73" y1="1316.96" x2="1679.73" y2="1316.96"/><line class="cls-1" x1="307.09" y1="712.99" x2="307.09" y2="712.99"/><line class="cls-2" x1="480.32" y1="784.74" x2="1606.3" y2="1251.14"/><line class="cls-1" x1="1692.91" y1="1287.01" x2="1692.91" y2="1287.01"/><line class="cls-1" x1="295.23" y1="743.49" x2="295.23" y2="743.49"/><line class="cls-2" x1="471.42" y1="807.61" x2="1616.67" y2="1224.45"/><line class="cls-1" x1="1704.77" y1="1256.51" x2="1704.77" y2="1256.51"/><line class="cls-1" x1="284.71" y1="774.47" x2="284.71" y2="774.47"/><line class="cls-2" x1="463.53" y1="830.85" x2="1625.88" y2="1197.34"/><line class="cls-1" x1="1715.29" y1="1225.53" x2="1715.29" y2="1225.53"/><line class="cls-1" x1="275.56" y1="805.89" x2="275.56" y2="805.89"/><line class="cls-2" x1="456.67" y1="854.41" x2="1633.89" y2="1169.85"/><line class="cls-1" x1="1724.44" y1="1194.11" x2="1724.44" y2="1194.11"/><line class="cls-1" x1="267.78" y1="837.67" x2="267.78" y2="837.67"/><line class="cls-2" x1="450.83" y1="878.25" x2="1640.69" y2="1142.04"/><line class="cls-1" x1="1732.22" y1="1162.33" x2="1732.22" y2="1162.33"/><line class="cls-1" x1="261.39" y1="869.76" x2="261.39" y2="869.76"/><line class="cls-2" x1="446.05" y1="902.32" x2="1646.28" y2="1113.96"/><line class="cls-1" x1="1738.61" y1="1130.24" x2="1738.61" y2="1130.24"/><line class="cls-1" x1="256.42" y1="902.11" x2="256.42" y2="902.11"/><line class="cls-2" x1="442.31" y1="926.58" x2="1650.64" y2="1085.66"/><line class="cls-1" x1="1743.58" y1="1097.89" x2="1743.58" y2="1097.89"/><line class="cls-1" x1="252.85" y1="934.63" x2="252.85" y2="934.63"/><line class="cls-2" x1="439.64" y1="950.97" x2="1653.75" y2="1057.2"/><line class="cls-1" x1="1747.15" y1="1065.37" x2="1747.15" y2="1065.37"/><line class="cls-1" x1="250.71" y1="967.29" x2="250.71" y2="967.29"/><line class="cls-2" x1="438.04" y1="975.46" x2="1655.63" y2="1028.63"/><line class="cls-1" x1="1749.29" y1="1032.71" x2="1749.29" y2="1032.71"/><line class="cls-1" x1="250.71" y1="1032.71" x2="250.71" y2="1032.71"/><line class="cls-2" x1="438.04" y1="1024.54" x2="1655.63" y2="971.38"/><line class="cls-1" x1="1749.29" y1="967.29" x2="1749.29" y2="967.29"/><line class="cls-1" x1="252.85" y1="1065.37" x2="252.85" y2="1065.37"/><line class="cls-2" x1="439.64" y1="1049.03" x2="1653.75" y2="942.8"/><line class="cls-1" x1="1747.15" y1="934.63" x2="1747.15" y2="934.63"/><line class="cls-1" x1="256.42" y1="1097.89" x2="256.42" y2="1097.89"/><line class="cls-2" x1="442.31" y1="1073.42" x2="1650.64" y2="914.34"/><line class="cls-1" x1="1743.58" y1="902.11" x2="1743.58" y2="902.11"/><line class="cls-1" x1="261.39" y1="1130.24" x2="261.39" y2="1130.24"/><line class="cls-2" x1="446.05" y1="1097.68" x2="1646.28" y2="886.04"/><line class="cls-1" x1="1738.61" y1="869.76" x2="1738.61" y2="869.76"/><line class="cls-1" x1="267.78" y1="1162.33" x2="267.78" y2="1162.33"/><line class="cls-2" x1="450.83" y1="1121.75" x2="1640.69" y2="857.96"/><line class="cls-1" x1="1732.22" y1="837.67" x2="1732.22" y2="837.67"/><line class="cls-1" x1="275.56" y1="1194.11" x2="275.56" y2="1194.11"/><line class="cls-2" x1="456.67" y1="1145.59" x2="1633.89" y2="830.15"/><line class="cls-1" x1="1724.44" y1="805.89" x2="1724.44" y2="805.89"/><line class="cls-1" x1="284.71" y1="1225.53" x2="284.71" y2="1225.53"/><line class="cls-2" x1="463.53" y1="1169.15" x2="1625.88" y2="802.66"/><line class="cls-1" x1="1715.29" y1="774.47" x2="1715.29" y2="774.47"/><line class="cls-1" x1="295.23" y1="1256.51" x2="295.23" y2="1256.51"/><line class="cls-2" x1="471.42" y1="1192.39" x2="1616.67" y2="775.55"/><line class="cls-1" x1="1704.77" y1="743.49" x2="1704.77" y2="743.49"/><line class="cls-1" x1="307.09" y1="1287.01" x2="307.09" y2="1287.01"/><line class="cls-2" x1="480.32" y1="1215.26" x2="1606.3" y2="748.86"/><line class="cls-1" x1="1692.91" y1="712.99" x2="1692.91" y2="712.99"/><line class="cls-1" x1="320.27" y1="1316.96" x2="320.27" y2="1316.96"/><line class="cls-2" x1="490.2" y1="1237.72" x2="1594.76" y2="722.66"/><line class="cls-1" x1="1679.73" y1="683.04" x2="1679.73" y2="683.04"/><line class="cls-1" x1="334.74" y1="1346.31" x2="334.74" y2="1346.31"/><line class="cls-2" x1="501.06" y1="1259.73" x2="1582.1" y2="696.98"/><line class="cls-1" x1="1665.26" y1="653.69" x2="1665.26" y2="653.69"/><line class="cls-1" x1="350.48" y1="1375" x2="350.48" y2="1375"/><line class="cls-2" x1="512.86" y1="1281.25" x2="1568.33" y2="671.88"/><line class="cls-1" x1="1649.52" y1="625" x2="1649.52" y2="625"/><line class="cls-1" x1="367.46" y1="1402.97" x2="367.46" y2="1402.97"/><line class="cls-2" x1="525.59" y1="1302.23" x2="1553.48" y2="647.4"/><line class="cls-1" x1="1632.54" y1="597.03" x2="1632.54" y2="597.03"/><line class="cls-1" x1="385.64" y1="1430.18" x2="385.64" y2="1430.18"/><line class="cls-2" x1="539.23" y1="1322.64" x2="1537.57" y2="623.59"/><line class="cls-1" x1="1614.36" y1="569.82" x2="1614.36" y2="569.82"/><line class="cls-1" x1="404.99" y1="1456.57" x2="404.99" y2="1456.57"/><line class="cls-2" x1="553.74" y1="1342.43" x2="1520.64" y2="600.5"/><line class="cls-1" x1="1595.01" y1="543.43" x2="1595.01" y2="543.43"/><line class="cls-1" x1="425.47" y1="1482.09" x2="425.47" y2="1482.09"/><line class="cls-2" x1="569.1" y1="1361.57" x2="1502.72" y2="578.17"/><line class="cls-1" x1="1574.53" y1="517.91" x2="1574.53" y2="517.91"/><line class="cls-1" x1="447.04" y1="1506.69" x2="447.04" y2="1506.69"/><line class="cls-2" x1="585.28" y1="1380.02" x2="1483.84" y2="556.64"/><line class="cls-1" x1="1552.96" y1="493.31" x2="1552.96" y2="493.31"/><line class="cls-1" x1="493.31" y1="1552.96" x2="493.31" y2="1552.96"/><line class="cls-2" x1="619.98" y1="1414.72" x2="1443.36" y2="516.16"/><line class="cls-1" x1="1506.69" y1="447.04" x2="1506.69" y2="447.04"/><line class="cls-1" x1="517.91" y1="1574.53" x2="517.91" y2="1574.53"/><line class="cls-2" x1="638.43" y1="1430.9" x2="1421.83" y2="497.28"/><line class="cls-1" x1="1482.09" y1="425.47" x2="1482.09" y2="425.47"/><line class="cls-1" x1="543.43" y1="1595.01" x2="543.43" y2="1595.01"/><line class="cls-2" x1="657.57" y1="1446.26" x2="1399.5" y2="479.36"/><line class="cls-1" x1="1456.57" y1="404.99" x2="1456.57" y2="404.99"/><line class="cls-1" x1="569.82" y1="1614.36" x2="569.82" y2="1614.36"/><line class="cls-2" x1="677.36" y1="1460.77" x2="1376.41" y2="462.43"/><line class="cls-1" x1="1430.18" y1="385.64" x2="1430.18" y2="385.64"/><line class="cls-1" x1="597.03" y1="1632.54" x2="597.03" y2="1632.54"/><line class="cls-2" x1="697.77" y1="1474.41" x2="1352.6" y2="446.52"/><line class="cls-1" x1="1402.97" y1="367.46" x2="1402.97" y2="367.46"/><line class="cls-1" x1="625" y1="1649.52" x2="625" y2="1649.52"/><line class="cls-2" x1="718.75" y1="1487.14" x2="1328.13" y2="431.67"/><line class="cls-1" x1="1375" y1="350.48" x2="1375" y2="350.48"/><line class="cls-1" x1="653.69" y1="1665.26" x2="653.69" y2="1665.26"/><line class="cls-2" x1="740.27" y1="1498.94" x2="1303.02" y2="417.9"/><line class="cls-1" x1="1346.31" y1="334.74" x2="1346.31" y2="334.74"/><line class="cls-1" x1="683.04" y1="1679.73" x2="683.04" y2="1679.73"/><line class="cls-2" x1="762.28" y1="1509.8" x2="1277.34" y2="405.24"/><line class="cls-1" x1="1316.96" y1="320.27" x2="1316.96" y2="320.27"/><line class="cls-1" x1="712.99" y1="1692.91" x2="712.99" y2="1692.91"/><line class="cls-2" x1="784.74" y1="1519.68" x2="1251.14" y2="393.7"/><line class="cls-1" x1="1287.01" y1="307.09" x2="1287.01" y2="307.09"/><line class="cls-1" x1="743.49" y1="1704.77" x2="743.49" y2="1704.77"/><line class="cls-2" x1="807.61" y1="1528.58" x2="1224.45" y2="383.33"/><line class="cls-1" x1="1256.51" y1="295.23" x2="1256.51" y2="295.23"/><line class="cls-1" x1="774.47" y1="1715.29" x2="774.47" y2="1715.29"/><line class="cls-2" x1="830.85" y1="1536.47" x2="1197.34" y2="374.12"/><line class="cls-1" x1="1225.53" y1="284.71" x2="1225.53" y2="284.71"/><line class="cls-1" x1="805.89" y1="1724.44" x2="805.89" y2="1724.44"/><line class="cls-2" x1="854.41" y1="1543.33" x2="1169.85" y2="366.11"/><line class="cls-1" x1="1194.11" y1="275.56" x2="1194.11" y2="275.56"/><line class="cls-1" x1="837.67" y1="1732.22" x2="837.67" y2="1732.22"/><line class="cls-2" x1="878.25" y1="1549.17" x2="1142.04" y2="359.31"/><line class="cls-1" x1="1162.33" y1="267.78" x2="1162.33" y2="267.78"/><line class="cls-1" x1="869.76" y1="1738.61" x2="869.76" y2="1738.61"/><line class="cls-2" x1="902.32" y1="1553.95" x2="1113.96" y2="353.72"/><line class="cls-1" x1="1130.24" y1="261.39" x2="1130.24" y2="261.39"/><line class="cls-1" x1="902.11" y1="1743.58" x2="902.11" y2="1743.58"/><line class="cls-2" x1="926.58" y1="1557.69" x2="1085.66" y2="349.36"/><line class="cls-1" x1="1097.89" y1="256.42" x2="1097.89" y2="256.42"/><line class="cls-1" x1="934.63" y1="1747.15" x2="934.63" y2="1747.15"/><line class="cls-2" x1="950.97" y1="1560.36" x2="1057.2" y2="346.25"/><line class="cls-1" x1="1065.37" y1="252.85" x2="1065.37" y2="252.85"/><line class="cls-1" x1="967.29" y1="1749.29" x2="967.29" y2="1749.29"/><line class="cls-2" x1="975.46" y1="1561.96" x2="1028.63" y2="344.38"/><line class="cls-1" x1="1032.71" y1="250.71" x2="1032.71" y2="250.71"/><line class="cls-3" x1="1000" y1="250" x2="1000" y2="250"/><line class="cls-4" x1="1000" y1="437.5" x2="1000" y2="1656.25"/><line class="cls-3" x1="1000" y1="1750" x2="1000" y2="1750"/><line class="cls-3" x1="250" y1="1000" x2="250" y2="1000"/><line class="cls-4" x1="437.5" y1="1000" x2="1656.25" y2="1000"/><line class="cls-3" x1="1750" y1="1000" x2="1750" y2="1000"/><line class="cls-3" x1="469.67" y1="469.67" x2="469.67" y2="469.67"/><line class="cls-4" x1="602.25" y1="602.25" x2="1464.04" y2="1464.04"/><line class="cls-3" x1="1530.33" y1="1530.33" x2="1530.33" y2="1530.33"/><line class="cls-3" x1="469.67" y1="1530.33" x2="469.67" y2="1530.33"/><line class="cls-4" x1="602.25" y1="1397.75" x2="1464.04" y2="535.96"/><line class="cls-3" x1="1530.33" y1="469.67" x2="1530.33" y2="469.67"/></svg>