<svg id="Circular_element" data-name="Circular element" xmlns="http://www.w3.org/2000/svg" viewBox="0 0 2000 2000"><defs><style>.cls-1,.cls-2,.cls-3{fill:none;}.cls-1,.cls-4{stroke:#dd1920;}.cls-1,.cls-2,.cls-3,.cls-4{stroke-miterlimit:10;}.cls-1,.cls-3{stroke-width:3.13px;}.cls-2,.cls-3{stroke:#fff;}.cls-2{stroke-width:12.5px;}.cls-4{fill:#dd1920;stroke-width:4.33px;}</style></defs><line class="cls-1" x1="1000" y1="1000" x2="1000" y2="250"/><line class="cls-1" x1="1000" y1="1000" x2="1530.33" y2="469.67"/><line class="cls-1" x1="1000" y1="1000" x2="1750" y2="1000"/><line class="cls-1" x1="1000" y1="1000" x2="1530.33" y2="1530.33"/><line class="cls-1" x1="1000" y1="1000" x2="1000" y2="1750"/><line class="cls-1" x1="1000" y1="1000" x2="469.67" y2="1530.33"/><line class="cls-1" x1="1000" y1="1000" x2="250" y2="1000"/><line class="cls-1" x1="1000" y1="1000" x2="469.67" y2="469.67"/><circle class="cls-2" cx="1000" cy="1000" r="750"/><circle class="cls-3" cx="1000" cy="1000" r="642.86"/><circle class="cls-2" cx="1000" cy="1000" r="535.71"/><circle class="cls-3" cx="1000" cy="1000" r="428.57"/><circle class="cls-2" cx="1000" cy="1000" r="321.43"/><circle class="cls-3" cx="1000" cy="1000" r="214.29"/><circle class="cls-2" cx="1000" cy="1000" r="107.14"/><circle class="cls-4" cx="464.29" cy="1000" r="25"/><circle class="cls-4" cx="1000" cy="357.14" r="25"/><circle class="cls-4" cx="1214.29" cy="1000" r="25"/><circle class="cls-4" cx="1453.57" cy="1453.57" r="25"/><circle class="cls-4" cx="772.66" cy="1227.34" r="25"/><circle class="cls-4" cx="696.88" cy="696.88" r="25"/><circle class="cls-4" cx="1378.9" cy="621.1" r="25"/><circle class="cls-4" cx="1000" cy="1535.71" r="25"/></svg>