<svg id="Circular_element" data-name="Circular element" xmlns="http://www.w3.org/2000/svg" viewBox="0 0 2000 2000"><defs><style>.cls-1,.cls-10,.cls-100,.cls-101,.cls-102,.cls-103,.cls-104,.cls-105,.cls-106,.cls-107,.cls-108,.cls-109,.cls-11,.cls-110,.cls-111,.cls-112,.cls-113,.cls-114,.cls-115,.cls-116,.cls-117,.cls-118,.cls-119,.cls-12,.cls-120,.cls-121,.cls-122,.cls-123,.cls-124,.cls-125,.cls-126,.cls-127,.cls-128,.cls-129,.cls-13,.cls-130,.cls-131,.cls-132,.cls-133,.cls-134,.cls-135,.cls-136,.cls-137,.cls-138,.cls-139,.cls-14,.cls-140,.cls-141,.cls-142,.cls-143,.cls-144,.cls-145,.cls-146,.cls-147,.cls-148,.cls-149,.cls-15,.cls-150,.cls-151,.cls-152,.cls-153,.cls-154,.cls-155,.cls-156,.cls-157,.cls-158,.cls-159,.cls-16,.cls-160,.cls-161,.cls-162,.cls-163,.cls-164,.cls-165,.cls-166,.cls-167,.cls-168,.cls-169,.cls-17,.cls-170,.cls-171,.cls-172,.cls-173,.cls-174,.cls-175,.cls-176,.cls-177,.cls-178,.cls-179,.cls-18,.cls-180,.cls-181,.cls-182,.cls-183,.cls-184,.cls-185,.cls-186,.cls-187,.cls-188,.cls-189,.cls-19,.cls-190,.cls-191,.cls-192,.cls-193,.cls-194,.cls-195,.cls-196,.cls-197,.cls-198,.cls-199,.cls-2,.cls-20,.cls-200,.cls-201,.cls-202,.cls-203,.cls-204,.cls-205,.cls-206,.cls-207,.cls-208,.cls-209,.cls-21,.cls-210,.cls-211,.cls-212,.cls-213,.cls-214,.cls-215,.cls-216,.cls-217,.cls-218,.cls-219,.cls-22,.cls-220,.cls-221,.cls-222,.cls-223,.cls-224,.cls-225,.cls-226,.cls-227,.cls-228,.cls-229,.cls-23,.cls-230,.cls-231,.cls-232,.cls-233,.cls-234,.cls-235,.cls-236,.cls-237,.cls-238,.cls-239,.cls-24,.cls-240,.cls-241,.cls-242,.cls-25,.cls-26,.cls-27,.cls-28,.cls-29,.cls-3,.cls-30,.cls-31,.cls-32,.cls-33,.cls-34,.cls-35,.cls-36,.cls-37,.cls-38,.cls-39,.cls-4,.cls-40,.cls-41,.cls-42,.cls-43,.cls-44,.cls-45,.cls-46,.cls-47,.cls-48,.cls-49,.cls-5,.cls-50,.cls-51,.cls-52,.cls-53,.cls-54,.cls-55,.cls-56,.cls-57,.cls-58,.cls-59,.cls-6,.cls-60,.cls-61,.cls-62,.cls-63,.cls-64,.cls-65,.cls-66,.cls-67,.cls-68,.cls-69,.cls-7,.cls-70,.cls-71,.cls-72,.cls-73,.cls-74,.cls-75,.cls-76,.cls-77,.cls-78,.cls-79,.cls-8,.cls-80,.cls-81,.cls-82,.cls-83,.cls-84,.cls-85,.cls-86,.cls-87,.cls-88,.cls-89,.cls-9,.cls-90,.cls-91,.cls-92,.cls-93,.cls-94,.cls-95,.cls-96,.cls-97,.cls-98,.cls-99{fill:none;stroke-linecap:round;stroke-miterlimit:10;stroke-width:10px;}.cls-1,.cls-10,.cls-100,.cls-101,.cls-102,.cls-103,.cls-104,.cls-105,.cls-106,.cls-107,.cls-108,.cls-109,.cls-11,.cls-110,.cls-111,.cls-112,.cls-113,.cls-114,.cls-115,.cls-116,.cls-117,.cls-118,.cls-119,.cls-12,.cls-120,.cls-121,.cls-122,.cls-123,.cls-124,.cls-125,.cls-126,.cls-127,.cls-128,.cls-129,.cls-13,.cls-130,.cls-131,.cls-132,.cls-133,.cls-134,.cls-135,.cls-136,.cls-137,.cls-138,.cls-139,.cls-14,.cls-140,.cls-141,.cls-142,.cls-143,.cls-144,.cls-145,.cls-146,.cls-147,.cls-148,.cls-149,.cls-15,.cls-150,.cls-151,.cls-152,.cls-153,.cls-154,.cls-155,.cls-156,.cls-157,.cls-158,.cls-159,.cls-160,.cls-161,.cls-162,.cls-163,.cls-164,.cls-165,.cls-166,.cls-167,.cls-168,.cls-169,.cls-17,.cls-170,.cls-171,.cls-172,.cls-173,.cls-174,.cls-175,.cls-176,.cls-177,.cls-178,.cls-179,.cls-18,.cls-180,.cls-181,.cls-182,.cls-183,.cls-184,.cls-185,.cls-186,.cls-187,.cls-188,.cls-189,.cls-19,.cls-190,.cls-191,.cls-192,.cls-193,.cls-194,.cls-195,.cls-196,.cls-197,.cls-198,.cls-199,.cls-2,.cls-20,.cls-200,.cls-201,.cls-202,.cls-203,.cls-204,.cls-205,.cls-206,.cls-207,.cls-208,.cls-209,.cls-21,.cls-210,.cls-211,.cls-212,.cls-213,.cls-214,.cls-215,.cls-216,.cls-217,.cls-218,.cls-219,.cls-22,.cls-220,.cls-221,.cls-222,.cls-223,.cls-224,.cls-225,.cls-226,.cls-227,.cls-228,.cls-229,.cls-23,.cls-230,.cls-231,.cls-232,.cls-233,.cls-234,.cls-235,.cls-236,.cls-237,.cls-238,.cls-239,.cls-24,.cls-240,.cls-241,.cls-242,.cls-25,.cls-26,.cls-27,.cls-28,.cls-29,.cls-3,.cls-30,.cls-31,.cls-32,.cls-33,.cls-34,.cls-35,.cls-36,.cls-37,.cls-38,.cls-39,.cls-4,.cls-40,.cls-41,.cls-42,.cls-43,.cls-44,.cls-45,.cls-46,.cls-47,.cls-48,.cls-49,.cls-5,.cls-50,.cls-51,.cls-52,.cls-53,.cls-54,.cls-55,.cls-56,.cls-57,.cls-58,.cls-59,.cls-6,.cls-60,.cls-61,.cls-62,.cls-63,.cls-64,.cls-65,.cls-66,.cls-67,.cls-68,.cls-69,.cls-7,.cls-70,.cls-71,.cls-72,.cls-73,.cls-74,.cls-75,.cls-76,.cls-77,.cls-78,.cls-79,.cls-8,.cls-80,.cls-81,.cls-82,.cls-83,.cls-84,.cls-85,.cls-86,.cls-87,.cls-88,.cls-89,.cls-9,.cls-90,.cls-91,.cls-92,.cls-93,.cls-94,.cls-95,.cls-96,.cls-97,.cls-98,.cls-99{stroke:#fff;}.cls-1{opacity:0.44;}.cls-2{opacity:0.24;}.cls-3{opacity:0.59;}.cls-4{opacity:0.73;}.cls-5{opacity:0.64;}.cls-6{opacity:0.38;}.cls-7{opacity:0.67;}.cls-8{opacity:0.13;}.cls-9{opacity:0.21;}.cls-10{opacity:0.48;}.cls-11{opacity:0.43;}.cls-12{opacity:0.19;}.cls-13{opacity:0.13;}.cls-14{opacity:0.7;}.cls-15{opacity:0.14;}.cls-16{stroke:#dd1920;}.cls-17{opacity:0.4;}.cls-18{opacity:0.8;}.cls-19{opacity:0.41;}.cls-20{opacity:0.61;}.cls-21{opacity:0.84;}.cls-22{opacity:0.5;}.cls-23{opacity:0.34;}.cls-24{opacity:0.12;}.cls-25{opacity:0.63;}.cls-26{opacity:0.11;}.cls-27{opacity:0.35;}.cls-28{opacity:0.77;}.cls-29{opacity:0.14;}.cls-30{opacity:0.53;}.cls-31{opacity:0.47;}.cls-32{opacity:0.15;}.cls-33{opacity:0.32;}.cls-34{opacity:0.41;}.cls-35{opacity:0.82;}.cls-36{opacity:0.68;}.cls-37{opacity:0.21;}.cls-38{opacity:0.32;}.cls-39{opacity:0.54;}.cls-40{opacity:0.96;}.cls-41{opacity:0.84;}.cls-42{opacity:0.7;}.cls-43{opacity:0.13;}.cls-44{opacity:0.62;}.cls-45{opacity:0.75;}.cls-46{opacity:0.27;}.cls-47{opacity:0.64;}.cls-48{opacity:0.75;}.cls-49{opacity:0.74;}.cls-50{opacity:0.44;}.cls-51{opacity:0.94;}.cls-52{opacity:0.63;}.cls-53{opacity:0.47;}.cls-54{opacity:0.26;}.cls-55{opacity:0.26;}.cls-56{opacity:0.37;}.cls-57{opacity:0.48;}.cls-58{opacity:0.35;}.cls-59{opacity:0.96;}.cls-60{opacity:0.71;}.cls-61{opacity:0.8;}.cls-62{opacity:0.69;}.cls-63{opacity:0.47;}.cls-64{opacity:0.3;}.cls-65{opacity:0.97;}.cls-66{opacity:0.46;}.cls-67{opacity:0.5;}.cls-68{opacity:0.74;}.cls-69{opacity:0.32;}.cls-70{opacity:0.26;}.cls-71{opacity:0.49;}.cls-72{opacity:0.54;}.cls-73{opacity:0.51;}.cls-74{opacity:0.15;}.cls-75{opacity:0.76;}.cls-76{opacity:0.79;}.cls-77{opacity:0.2;}.cls-78{opacity:0.24;}.cls-79{opacity:0.8;}.cls-80{opacity:0.92;}.cls-81{opacity:0.33;}.cls-82{opacity:0.2;}.cls-83{opacity:0.35;}.cls-84{opacity:0.5;}.cls-85{opacity:0.77;}.cls-86{opacity:0.67;}.cls-87{opacity:0.17;}.cls-88{opacity:0.29;}.cls-89{opacity:0.35;}.cls-90{opacity:0.26;}.cls-91{opacity:0.29;}.cls-92{opacity:0.71;}.cls-93{opacity:0.51;}.cls-94{opacity:0.42;}.cls-95{opacity:0.81;}.cls-96{opacity:0.63;}.cls-97{opacity:0.41;}.cls-98{opacity:0.57;}.cls-99{opacity:0.84;}.cls-100{opacity:0.29;}.cls-101{opacity:0.43;}.cls-102{opacity:0.54;}.cls-103{opacity:0.5;}.cls-104{opacity:0.77;}.cls-105{opacity:0.52;}.cls-106{opacity:0.5;}.cls-107{opacity:0.9;}.cls-108{opacity:0.6;}.cls-109{opacity:0.28;}.cls-110{opacity:0.14;}.cls-111{opacity:0.93;}.cls-112{opacity:0.85;}.cls-113{opacity:0.55;}.cls-114{opacity:0.22;}.cls-115{opacity:0.22;}.cls-116{opacity:0.96;}.cls-117{opacity:0.47;}.cls-118{opacity:0.42;}.cls-119{opacity:0.96;}.cls-120{opacity:0.46;}.cls-121{opacity:0.5;}.cls-122{opacity:0.14;}.cls-123{opacity:0.44;}.cls-124{opacity:0.35;}.cls-125{opacity:0.66;}.cls-126{opacity:0.56;}.cls-127{opacity:0.94;}.cls-128{opacity:0.8;}.cls-129{opacity:0.64;}.cls-130{opacity:0.95;}.cls-131{opacity:0.97;}.cls-132{opacity:0.78;}.cls-133{opacity:0.49;}.cls-134{opacity:0.62;}.cls-135{opacity:0.79;}.cls-136{opacity:0.98;}.cls-137{opacity:0.99;}.cls-138{opacity:0.33;}.cls-139{opacity:0.85;}.cls-140{opacity:0.97;}.cls-141{opacity:0.58;}.cls-142{opacity:0.59;}.cls-143{opacity:0.15;}.cls-144{opacity:0.97;}.cls-145{opacity:0.12;}.cls-146{opacity:0.74;}.cls-147{opacity:0.96;}.cls-148{opacity:0.15;}.cls-149{opacity:0.59;}.cls-150{opacity:0.19;}.cls-151{opacity:0.46;}.cls-152{opacity:0.36;}.cls-153{opacity:0.31;}.cls-154{opacity:0.17;}.cls-155{opacity:0.96;}.cls-156{opacity:0.22;}.cls-157{opacity:0.87;}.cls-158{opacity:0.41;}.cls-159{opacity:0.43;}.cls-160{opacity:0.94;}.cls-161{opacity:0.67;}.cls-162{opacity:0.27;}.cls-163{opacity:0.5;}.cls-164{opacity:0.71;}.cls-165{opacity:0.39;}.cls-166{opacity:0.18;}.cls-167{opacity:0.16;}.cls-168{opacity:0.85;}.cls-169{opacity:0.49;}.cls-170{opacity:0.86;}.cls-171{opacity:0.92;}.cls-172{opacity:0.89;}.cls-173{opacity:0.35;}.cls-174{opacity:0.24;}.cls-175{opacity:0.41;}.cls-176{opacity:0.51;}.cls-177{opacity:0.13;}.cls-178{opacity:0.24;}.cls-179{opacity:0.56;}.cls-180{opacity:0.17;}.cls-181{opacity:0.11;}.cls-182{opacity:0.29;}.cls-183{opacity:0.94;}.cls-184{opacity:0.31;}.cls-185{opacity:0.51;}.cls-186{opacity:0.18;}.cls-187{opacity:0.75;}.cls-188{opacity:0.31;}.cls-189{opacity:0.34;}.cls-190{opacity:0.76;}.cls-191{opacity:0.39;}.cls-192{opacity:0.98;}.cls-193{opacity:0.69;}.cls-194{opacity:0.39;}.cls-195{opacity:0.52;}.cls-196{opacity:0.16;}.cls-197{opacity:0.67;}.cls-198{opacity:0.95;}.cls-199{opacity:0.6;}.cls-200{opacity:0.7;}.cls-201{opacity:0.34;}.cls-202{opacity:0.51;}.cls-203{opacity:0.34;}.cls-204{opacity:0.97;}.cls-205{opacity:0.84;}.cls-206{opacity:0.55;}.cls-207{opacity:0.44;}.cls-208{opacity:0.67;}.cls-209{opacity:0.22;}.cls-210{opacity:0.8;}.cls-211{opacity:0.37;}.cls-212{opacity:0.27;}.cls-213{opacity:0.79;}.cls-214{opacity:0.92;}.cls-215{opacity:0.61;}.cls-216{opacity:0.61;}.cls-217{opacity:0.55;}.cls-218{opacity:0.86;}.cls-219{opacity:0.99;}.cls-220{opacity:0.65;}.cls-221{opacity:0.75;}.cls-222{opacity:0.23;}.cls-223{opacity:0.34;}.cls-224{opacity:0.43;}.cls-225{opacity:0.38;}.cls-226{opacity:0.64;}.cls-227{opacity:0.37;}.cls-228{opacity:0.63;}.cls-229{opacity:0.46;}.cls-230{opacity:0.38;}.cls-231{opacity:0.22;}.cls-232{opacity:0.59;}.cls-233{opacity:0.49;}.cls-234{opacity:0.47;}.cls-235{opacity:0.71;}.cls-236{opacity:0.75;}.cls-237{opacity:0.29;}.cls-238{opacity:0.92;}.cls-239{opacity:0.95;}.cls-240{opacity:0.4;}.cls-241{opacity:0.2;}.cls-242{opacity:0.41;}</style></defs><path class="cls-1" d="M1214.29,1000c0-118.35-95.94-214.29-214.29-214.29"/><path class="cls-2" d="M1000,1214.29c118.35,0,214.29-95.94,214.29-214.29"/><path class="cls-3" d="M785.71,1000c0,118.35,95.94,214.29,214.29,214.29"/><path class="cls-4" d="M1000,785.71c-118.35,0-214.29,95.94-214.29,214.29"/><path class="cls-5" d="M772.72,772.72A320.39,320.39,0,0,1,1000,678.57"/><path class="cls-6" d="M678.57,1000a320.39,320.39,0,0,1,94.15-227.28"/><path class="cls-7" d="M772.72,1227.28A320.39,320.39,0,0,1,678.57,1000"/><path class="cls-8" d="M1000,1321.43a320.39,320.39,0,0,1-227.28-94.15"/><path class="cls-9" d="M1227.28,1227.28A320.39,320.39,0,0,1,1000,1321.43"/><path class="cls-10" d="M1321.43,1000a320.39,320.39,0,0,1-94.15,227.28"/><path class="cls-11" d="M1227.28,772.72A320.39,320.39,0,0,1,1321.43,1000"/><path class="cls-12" d="M1000,678.57a320.39,320.39,0,0,1,227.28,94.15"/><path class="cls-13" d="M833.18,605.11A427.17,427.17,0,0,1,1000,571.43"/><path class="cls-14" d="M697,697a429.34,429.34,0,0,1,136.23-91.84"/><path class="cls-15" d="M605.11,833.18A429.34,429.34,0,0,1,697,697"/><path class="cls-16" d="M571.43,1000a427.17,427.17,0,0,1,33.68-166.82"/><path class="cls-17" d="M605.11,1166.82A427.17,427.17,0,0,1,571.43,1000"/><path class="cls-18" d="M697,1303.05a429.34,429.34,0,0,1-91.84-136.23"/><path class="cls-19" d="M833.18,1394.89A429.34,429.34,0,0,1,697,1303.05"/><path class="cls-20" d="M1000,1428.57a427.17,427.17,0,0,1-166.82-33.68"/><path class="cls-21" d="M1166.82,1394.89A427.17,427.17,0,0,1,1000,1428.57"/><path class="cls-16" d="M1303.05,1303.05a429.34,429.34,0,0,1-136.23,91.84"/><path class="cls-22" d="M1394.89,1166.82a429.34,429.34,0,0,1-91.84,136.23"/><path class="cls-23" d="M1428.57,1000a427.17,427.17,0,0,1-33.68,166.82"/><path class="cls-24" d="M1394.89,833.18A427.17,427.17,0,0,1,1428.57,1000"/><path class="cls-25" d="M1303.05,697a429.34,429.34,0,0,1,91.84,136.23"/><path class="cls-26" d="M1166.82,605.11A429.34,429.34,0,0,1,1303.05,697"/><path class="cls-27" d="M1000,571.43a427.17,427.17,0,0,1,166.82,33.68"/><path class="cls-28" d="M1108,475.17a538,538,0,0,0-108-10.88"/><path class="cls-29" d="M1208.52,506.38A532.09,532.09,0,0,0,1108,475.17"/><path class="cls-30" d="M1299.52,555.78a534.4,534.4,0,0,0-91-49.4"/><path class="cls-31" d="M1378.81,621.19a538.71,538.71,0,0,0-79.29-65.41"/><path class="cls-32" d="M1444.22,700.48a538.71,538.71,0,0,0-65.41-79.29"/><path class="cls-33" d="M1493.62,791.48a534.4,534.4,0,0,0-49.4-91"/><path class="cls-34" d="M1524.83,892a532.09,532.09,0,0,0-31.21-100.55"/><path class="cls-35" d="M1535.71,1000a538,538,0,0,0-10.88-108"/><path class="cls-36" d="M1524.83,1108a538,538,0,0,0,10.88-108"/><path class="cls-37" d="M1493.62,1208.52A532.09,532.09,0,0,0,1524.83,1108"/><path class="cls-38" d="M1444.22,1299.52a534.4,534.4,0,0,0,49.4-91"/><path class="cls-39" d="M1378.81,1378.81a538.71,538.71,0,0,0,65.41-79.29"/><path class="cls-40" d="M1299.52,1444.22a538.71,538.71,0,0,0,79.29-65.41"/><path class="cls-41" d="M1208.52,1493.62a534.4,534.4,0,0,0,91-49.4"/><path class="cls-42" d="M1108,1524.83a532.09,532.09,0,0,0,100.55-31.21"/><path class="cls-43" d="M1000,1535.71a538,538,0,0,0,108-10.88"/><path class="cls-44" d="M892,1524.83a538,538,0,0,0,108,10.88"/><path class="cls-45" d="M791.48,1493.62A532.09,532.09,0,0,0,892,1524.83"/><path class="cls-46" d="M700.48,1444.22a534.4,534.4,0,0,0,91,49.4"/><path class="cls-47" d="M621.19,1378.81a538.71,538.71,0,0,0,79.29,65.41"/><path class="cls-48" d="M555.78,1299.52a538.71,538.71,0,0,0,65.41,79.29"/><path class="cls-49" d="M506.38,1208.52a534.4,534.4,0,0,0,49.4,91"/><path class="cls-50" d="M475.17,1108a532.09,532.09,0,0,0,31.21,100.55"/><path class="cls-51" d="M464.29,1000a538,538,0,0,0,10.88,108"/><path class="cls-52" d="M475.17,892a538,538,0,0,0-10.88,108"/><path class="cls-53" d="M506.38,791.48A532.09,532.09,0,0,0,475.17,892"/><path class="cls-54" d="M555.78,700.48a534.4,534.4,0,0,0-49.4,91"/><path class="cls-55" d="M621.19,621.19a538.71,538.71,0,0,0-65.41,79.29"/><path class="cls-56" d="M700.48,555.78a538.71,538.71,0,0,0-79.29,65.41"/><path class="cls-57" d="M791.48,506.38a534.4,534.4,0,0,0-91,49.4"/><path class="cls-58" d="M892,475.17a532.09,532.09,0,0,0-100.55,31.21"/><path class="cls-59" d="M1000,464.29a538,538,0,0,0-108,10.88"/><path class="cls-60" d="M1065.73,360.46a651.8,651.8,0,0,0-65.73-3.32"/><path class="cls-61" d="M1129.56,370.2a644.14,644.14,0,0,0-63.83-9.74"/><path class="cls-62" d="M1191.17,386q-30.2-9.39-61.61-15.84"/><path class="cls-63" d="M1250.23,407.66q-28.85-12.2-59.06-21.62"/><path class="cls-64" d="M1306.42,434.73q-27.32-14.84-56.19-27.07"/><path class="cls-65" d="M1359.43,466.93q-25.65-17.32-53-32.2"/><path class="cls-66" d="M1408.92,503.94q-23.82-19.65-49.49-37"/><path class="cls-67" d="M1454.57,545.43q-21.81-21.81-45.65-41.49"/><path class="cls-68" d="M1496.06,591.08q-19.65-23.8-41.49-45.65"/><path class="cls-69" d="M1533.07,640.57q-17.34-25.65-37-49.49"/><path class="cls-16" d="M1565.27,693.58q-14.85-27.33-32.2-53"/><path class="cls-70" d="M1592.34,749.77q-12.19-28.85-27.07-56.19"/><path class="cls-71" d="M1614,808.83q-9.4-30.2-21.62-59.06"/><path class="cls-72" d="M1629.8,870.44q-6.43-31.38-15.84-61.61"/><path class="cls-73" d="M1639.54,934.27a644.14,644.14,0,0,0-9.74-63.83"/><path class="cls-74" d="M1642.86,1000a651.8,651.8,0,0,0-3.32-65.73"/><path class="cls-75" d="M1639.54,1065.73a651.8,651.8,0,0,0,3.32-65.73"/><path class="cls-76" d="M1629.8,1129.56a644.14,644.14,0,0,0,9.74-63.83"/><path class="cls-77" d="M1614,1191.17q9.39-30.2,15.84-61.61"/><path class="cls-16" d="M1592.34,1250.23q12.2-28.85,21.62-59.06"/><path class="cls-78" d="M1565.27,1306.42q14.84-27.32,27.07-56.19"/><path class="cls-79" d="M1533.07,1359.43q17.33-25.65,32.2-53"/><path class="cls-80" d="M1496.06,1408.92q19.65-23.82,37-49.49"/><path class="cls-81" d="M1454.57,1454.57q21.81-21.81,41.49-45.65"/><path class="cls-82" d="M1408.92,1496.06q23.8-19.65,45.65-41.49"/><path class="cls-83" d="M1359.43,1533.07q25.65-17.34,49.49-37"/><path class="cls-84" d="M1306.42,1565.27q27.33-14.85,53-32.2"/><path class="cls-85" d="M1250.23,1592.34q28.85-12.19,56.19-27.07"/><path class="cls-86" d="M1191.17,1614q30.19-9.4,59.06-21.62"/><path class="cls-87" d="M1129.56,1629.8q31.38-6.43,61.61-15.84"/><path class="cls-88" d="M1065.73,1639.54a644.14,644.14,0,0,0,63.83-9.74"/><path class="cls-89" d="M1000,1642.86a651.8,651.8,0,0,0,65.73-3.32"/><path class="cls-90" d="M934.27,1639.54a651.8,651.8,0,0,0,65.73,3.32"/><path class="cls-91" d="M870.44,1629.8a644.14,644.14,0,0,0,63.83,9.74"/><path class="cls-92" d="M808.83,1614q30.2,9.39,61.61,15.84"/><path class="cls-93" d="M749.77,1592.34q28.85,12.2,59.06,21.62"/><path class="cls-94" d="M693.58,1565.27q27.31,14.84,56.19,27.07"/><path class="cls-95" d="M640.57,1533.07q25.65,17.33,53,32.2"/><path class="cls-96" d="M591.08,1496.06q23.82,19.65,49.49,37"/><path class="cls-16" d="M545.43,1454.57q21.81,21.81,45.65,41.49"/><path class="cls-97" d="M503.94,1408.92q19.65,23.8,41.49,45.65"/><path class="cls-98" d="M466.93,1359.43q17.34,25.65,37,49.49"/><path class="cls-99" d="M434.73,1306.42q14.85,27.33,32.2,53"/><path class="cls-100" d="M407.66,1250.23q12.19,28.85,27.07,56.19"/><path class="cls-101" d="M386,1191.17q9.4,30.19,21.62,59.06"/><path class="cls-102" d="M370.2,1129.56q6.44,31.38,15.84,61.61"/><path class="cls-103" d="M360.46,1065.73a644.14,644.14,0,0,0,9.74,63.83"/><path class="cls-104" d="M357.14,1000a651.8,651.8,0,0,0,3.32,65.73"/><path class="cls-105" d="M360.46,934.27a651.8,651.8,0,0,0-3.32,65.73"/><path class="cls-106" d="M370.2,870.44a644.14,644.14,0,0,0-9.74,63.83"/><path class="cls-107" d="M386,808.83q-9.39,30.2-15.84,61.61"/><path class="cls-108" d="M407.66,749.77q-12.2,28.85-21.62,59.06"/><path class="cls-109" d="M434.73,693.58q-14.84,27.31-27.07,56.19"/><path class="cls-110" d="M466.93,640.57q-17.32,25.65-32.2,53"/><path class="cls-111" d="M503.94,591.08q-19.65,23.82-37,49.49"/><path class="cls-112" d="M545.43,545.43q-21.81,21.81-41.49,45.65"/><path class="cls-113" d="M591.08,503.94q-23.8,19.65-45.65,41.49"/><path class="cls-114" d="M640.57,466.93q-25.65,17.34-49.49,37"/><path class="cls-115" d="M693.58,434.73q-27.33,14.85-53,32.2"/><path class="cls-116" d="M749.77,407.66q-28.85,12.19-56.19,27.07"/><path class="cls-117" d="M808.83,386q-30.2,9.4-59.06,21.62"/><path class="cls-118" d="M870.44,370.2q-31.38,6.44-61.61,15.84"/><path class="cls-119" d="M934.27,360.46a644.14,644.14,0,0,0-63.83,9.74"/><path class="cls-120" d="M1000,357.14a651.8,651.8,0,0,0-65.73,3.32"/><path class="cls-121" d="M1038.59,251q-19.17-1-38.59-1"/><path class="cls-122" d="M1076.68,253.87q-18.9-1.92-38.09-2.89"/><path class="cls-123" d="M1114.22,258.64q-18.63-2.85-37.54-4.77"/><path class="cls-124" d="M1151.15,265.24q-18.3-3.75-36.93-6.6"/><path class="cls-125" d="M1187.44,273.61q-18-4.62-36.29-8.37"/><path class="cls-126" d="M1223,283.72q-17.62-5.48-35.59-10.11"/><path class="cls-127" d="M1257.88,295.51q-17.24-6.31-34.85-11.79"/><path class="cls-128" d="M1291.93,308.94q-16.82-7.12-34-13.43"/><path class="cls-129" d="M1325.16,324q-16.4-7.9-33.23-15"/><path class="cls-130" d="M1357.49,340.52q-15.93-8.65-32.33-16.56"/><path class="cls-131" d="M1388.9,358.58q-15.47-9.39-31.41-18.06"/><path class="cls-132" d="M1419.33,378.09q-15-10.11-30.43-19.51"/><path class="cls-133" d="M1448.74,399q-14.45-10.8-29.41-20.91"/><path class="cls-134" d="M1477.07,421.26q-13.89-11.46-28.33-22.26"/><path class="cls-135" d="M1504.28,444.84q-13.32-12.1-27.21-23.58"/><path class="cls-136" d="M1530.33,469.67q-12.72-12.72-26-24.83"/><path class="cls-137" d="M1555.16,495.72q-12.11-13.32-24.83-26.05"/><path class="cls-138" d="M1578.74,522.93q-11.48-13.89-23.58-27.21"/><path class="cls-139" d="M1601,551.26q-10.8-14.43-22.26-28.33"/><path class="cls-140" d="M1621.91,580.67q-10.11-15-20.91-29.41"/><path class="cls-141" d="M1641.42,611.1q-9.39-15.47-19.51-30.43"/><path class="cls-142" d="M1659.48,642.51q-8.65-15.94-18.06-31.41"/><path class="cls-143" d="M1676,674.84q-7.89-16.4-16.56-32.33"/><path class="cls-144" d="M1691.06,708.07q-7.11-16.83-15-33.23"/><path class="cls-145" d="M1704.49,742.12q-6.32-17.22-13.43-34"/><path class="cls-146" d="M1716.28,777q-5.47-17.61-11.79-34.85"/><path class="cls-147" d="M1726.39,812.56q-4.62-18-10.11-35.59"/><path class="cls-148" d="M1734.76,848.85q-3.73-18.32-8.37-36.29"/><path class="cls-149" d="M1741.36,885.78q-2.85-18.62-6.6-36.93"/><path class="cls-150" d="M1746.13,923.32q-1.92-18.92-4.77-37.54"/><path class="cls-151" d="M1749,961.41q-1-19.18-2.89-38.09"/><path class="cls-16" d="M1750,1000q0-19.41-1-38.59"/><path class="cls-152" d="M1749,1038.59q1-19.17,1-38.59"/><path class="cls-153" d="M1746.13,1076.68q1.92-18.9,2.89-38.09"/><path class="cls-154" d="M1741.36,1114.22q2.85-18.63,4.77-37.54"/><path class="cls-155" d="M1734.76,1151.15q3.75-18.3,6.6-36.93"/><path class="cls-156" d="M1726.39,1187.44q4.62-18,8.37-36.29"/><path class="cls-157" d="M1716.28,1223q5.48-17.62,10.11-35.59"/><path class="cls-158" d="M1704.49,1257.88q6.32-17.24,11.79-34.85"/><path class="cls-159" d="M1691.06,1291.93q7.13-16.82,13.43-34"/><path class="cls-160" d="M1676,1325.16q7.9-16.4,15-33.23"/><path class="cls-161" d="M1659.48,1357.49q8.65-15.93,16.56-32.33"/><path class="cls-162" d="M1641.42,1388.9q9.39-15.47,18.06-31.41"/><path class="cls-163" d="M1621.91,1419.33q10.11-15,19.51-30.43"/><path class="cls-164" d="M1601,1448.74q10.8-14.45,20.91-29.41"/><path class="cls-165" d="M1578.74,1477.07q11.46-13.89,22.26-28.33"/><path class="cls-166" d="M1555.16,1504.28q12.1-13.32,23.58-27.21"/><path class="cls-16" d="M1530.33,1530.33q12.72-12.72,24.83-26"/><path class="cls-167" d="M1504.28,1555.16q13.32-12.11,26-24.83"/><path class="cls-168" d="M1477.07,1578.74q13.89-11.48,27.21-23.58"/><path class="cls-169" d="M1448.74,1601q14.43-10.8,28.33-22.26"/><path class="cls-170" d="M1419.33,1621.91q15-10.11,29.41-20.91"/><path class="cls-171" d="M1388.9,1641.42q15.46-9.39,30.43-19.51"/><path class="cls-172" d="M1357.49,1659.48q15.94-8.65,31.41-18.06"/><path class="cls-173" d="M1325.16,1676q16.39-7.89,32.33-16.56"/><path class="cls-174" d="M1291.93,1691.06q16.83-7.11,33.23-15"/><path class="cls-175" d="M1257.88,1704.49q17.22-6.32,34-13.43"/><path class="cls-176" d="M1223,1716.28q17.61-5.47,34.85-11.79"/><path class="cls-177" d="M1187.44,1726.39q18-4.62,35.59-10.11"/><path class="cls-16" d="M1151.15,1734.76q18.31-3.75,36.29-8.37"/><path class="cls-178" d="M1114.22,1741.36q18.62-2.85,36.93-6.6"/><path class="cls-179" d="M1076.68,1746.13q18.91-1.92,37.54-4.77"/><path class="cls-180" d="M1038.59,1749q19.19-1,38.09-2.89"/><path class="cls-181" d="M1000,1750q19.41,0,38.59-1"/><path class="cls-182" d="M961.41,1749q19.17,1,38.59,1"/><path class="cls-183" d="M923.32,1746.13q18.9,1.92,38.09,2.89"/><path class="cls-184" d="M885.78,1741.36q18.63,2.85,37.54,4.77"/><path class="cls-185" d="M848.85,1734.76q18.3,3.75,36.93,6.6"/><path class="cls-186" d="M812.56,1726.39q18,4.62,36.29,8.37"/><path class="cls-187" d="M777,1716.28q17.63,5.48,35.59,10.11"/><path class="cls-188" d="M742.12,1704.49q17.24,6.32,34.85,11.79"/><path class="cls-189" d="M708.07,1691.06q16.81,7.13,34,13.43"/><path class="cls-190" d="M674.84,1676q16.39,7.9,33.23,15"/><path class="cls-191" d="M642.51,1659.48q15.93,8.65,32.33,16.56"/><path class="cls-192" d="M611.1,1641.42q15.46,9.39,31.41,18.06"/><path class="cls-193" d="M580.67,1621.91q15,10.11,30.43,19.51"/><path class="cls-16" d="M551.26,1601q14.44,10.8,29.41,20.91"/><path class="cls-194" d="M522.93,1578.74q13.89,11.46,28.33,22.26"/><path class="cls-195" d="M495.72,1555.16q13.32,12.1,27.21,23.58"/><path class="cls-196" d="M469.67,1530.33q12.72,12.72,26.05,24.83"/><path class="cls-197" d="M444.84,1504.28q12.11,13.32,24.83,26"/><path class="cls-198" d="M421.26,1477.07q11.48,13.89,23.58,27.21"/><path class="cls-199" d="M399,1448.74q10.8,14.43,22.26,28.33"/><path class="cls-200" d="M378.09,1419.33q10.11,15,20.91,29.41"/><path class="cls-201" d="M358.58,1388.9q9.39,15.46,19.51,30.43"/><path class="cls-202" d="M340.52,1357.49q8.66,15.94,18.06,31.41"/><path class="cls-203" d="M324,1325.16q7.89,16.39,16.56,32.33"/><path class="cls-204" d="M308.94,1291.93q7.11,16.83,15,33.23"/><path class="cls-205" d="M295.51,1257.88q6.32,17.22,13.43,34"/><path class="cls-206" d="M283.72,1223q5.47,17.61,11.79,34.85"/><path class="cls-207" d="M273.61,1187.44q4.62,18,10.11,35.59"/><path class="cls-208" d="M265.24,1151.15q3.74,18.31,8.37,36.29"/><path class="cls-209" d="M258.64,1114.22q2.85,18.62,6.6,36.93"/><path class="cls-210" d="M253.87,1076.68q1.92,18.91,4.77,37.54"/><path class="cls-211" d="M251,1038.59q1,19.19,2.89,38.09"/><path class="cls-212" d="M250,1000q0,19.41,1,38.59"/><path class="cls-213" d="M251,961.41q-1,19.17-1,38.59"/><path class="cls-214" d="M253.87,923.32Q252,942.22,251,961.41"/><path class="cls-215" d="M258.64,885.78q-2.85,18.63-4.77,37.54"/><path class="cls-216" d="M265.24,848.85q-3.75,18.3-6.6,36.93"/><path class="cls-217" d="M273.61,812.56q-4.62,18-8.37,36.29"/><path class="cls-16" d="M283.72,777q-5.48,17.63-10.11,35.59"/><path class="cls-218" d="M295.51,742.12Q289.2,759.36,283.72,777"/><path class="cls-219" d="M308.94,708.07q-7.12,16.81-13.43,34"/><path class="cls-220" d="M324,674.84q-7.9,16.39-15,33.23"/><path class="cls-221" d="M340.52,642.51q-8.65,15.93-16.56,32.33"/><path class="cls-222" d="M358.58,611.1q-9.39,15.46-18.06,31.41"/><path class="cls-223" d="M378.09,580.67q-10.11,15-19.51,30.43"/><path class="cls-224" d="M399,551.26q-10.8,14.44-20.91,29.41"/><path class="cls-225" d="M421.26,522.93Q409.8,536.82,399,551.26"/><path class="cls-226" d="M444.84,495.72q-12.1,13.32-23.58,27.21"/><path class="cls-227" d="M469.67,469.67Q457,482.39,444.84,495.72"/><path class="cls-228" d="M495.72,444.84q-13.32,12.11-26.05,24.83"/><path class="cls-229" d="M522.93,421.26Q509,432.74,495.72,444.84"/><path class="cls-230" d="M551.26,399q-14.43,10.8-28.33,22.26"/><path class="cls-231" d="M580.67,378.09q-15,10.11-29.41,20.91"/><path class="cls-232" d="M611.1,358.58q-15.47,9.39-30.43,19.51"/><path class="cls-233" d="M642.51,340.52q-15.94,8.66-31.41,18.06"/><path class="cls-234" d="M674.84,324q-16.4,7.89-32.33,16.56"/><path class="cls-235" d="M708.07,308.94q-16.83,7.11-33.23,15"/><path class="cls-236" d="M742.12,295.51q-17.22,6.32-34,13.43"/><path class="cls-237" d="M777,283.72q-17.61,5.47-34.85,11.79"/><path class="cls-238" d="M812.56,273.61q-18,4.62-35.59,10.11"/><path class="cls-16" d="M848.85,265.24q-18.32,3.75-36.29,8.37"/><path class="cls-239" d="M885.78,258.64q-18.62,2.85-36.93,6.6"/><path class="cls-240" d="M923.32,253.87q-18.92,1.92-37.54,4.77"/><path class="cls-241" d="M961.41,251q-19.18,1-38.09,2.89"/><path class="cls-242" d="M1000,250q-19.41,0-38.59,1"/></svg>