<svg id="Circular_element" data-name="Circular element" xmlns="http://www.w3.org/2000/svg" viewBox="0 0 2000 2000"><defs><style>.cls-1,.cls-2,.cls-3{fill:none;}.cls-1,.cls-3{stroke:#dd1920;}.cls-1,.cls-2{stroke-width:5px;}.cls-2{stroke:#fff;}.cls-3{stroke-width:10px;}</style></defs><g id="g21409"><g id="g21371"><path id="path21347" class="cls-1" d="M1000,1750s0-143,0-375,0-517.95,0-750,0-375,0-375"/><path id="path21349" class="cls-2" d="M1000,1750c-69.35,0-133.45-143-168.13-375s-34.67-517.95,0-750S930.66,250,1000,250"/><path id="path21351" class="cls-2" d="M1000,1750c-134,0-257.78-143-324.77-375s-67-517.95,0-750S866,250,1000,250"/><path id="path21353" class="cls-2" d="M1000,1750c-189.47,0-364.55-143-459.29-375s-94.74-517.95,0-750S810.54,250,1000,250"/><path id="path21355" class="cls-2" d="M1000,1750c-232,0-446.48-143-562.51-375s-116-517.95,0-750S768,250,1000,250"/><path id="path21357" class="cls-2" d="M1000,1750c-258.82,0-498-143-627.4-375s-129.41-517.95,0-750S741.19,250,1000,250"/><path id="path21359" class="cls-2" d="M1000,1750a750,750,0,1,1,0-1500"/><path id="path21361" class="cls-2" d="M1000,250c400.11,0,724.46,335.79,724.46,750S1400.12,1750,1000,1750"/><path id="path21363" class="cls-2" d="M1000,250c358.73,0,649.54,335.79,649.54,750S1358.74,1750,1000,1750"/><path id="path21365" class="cls-2" d="M1000,250c292.91,0,530.35,335.79,530.35,750S1292.92,1750,1000,1750"/><path id="path21367" class="cls-2" d="M1000,250c207.12,0,375,335.79,375,750s-167.91,750-375,750"/><path id="path21369" class="cls-2" d="M1000,250c107.22,0,194.14,335.79,194.14,750s-86.92,750-194.14,750"/></g><g id="g21405"><path id="path21373" class="cls-2" d="M1137.82,1737.23s-26.27,0-68.9,0H931.11c-42.64,0-68.9,0-68.91,0"/><path id="path21375" class="cls-2" d="M1270.94,1699.35l-135.46,0H864.55l-135.46,0"/><path id="path21377" class="cls-2" d="M1394.83,1637.66l-197.41,0H802.61l-197.41,0"/><path id="path21379" class="cls-2" d="M1505.28,1554.26s-96.32,0-252.63,0H747.38c-156.31,0-252.61,0-252.63,0"/><path id="path21381" class="cls-2" d="M1598.52,1452s-114.09,0-299.26,0H700.76c-185.16,0-299.23,0-299.25,0"/><path id="path21383" class="cls-2" d="M1671.37,1334.3l-335.68,0H664.33l-335.68,0"/><path id="path21385" class="cls-2" d="M1721.37,1205.25s-137.51,0-360.68,0H639.34c-223.17,0-360.66,0-360.68,0"/><path id="path21387" class="cls-2" d="M1746.8,1069.2l-373.39,0H626.62l-373.39,0"/><path id="path21389" class="cls-2" d="M1746.8,930.8s-142.36,0-373.39,0H626.62c-231,0-373.37,0-373.39,0"/><path id="path21391" class="cls-2" d="M1721.37,794.75l-360.68,0H639.34l-360.68,0"/><path id="path21393" class="cls-2" d="M1671.37,665.7s-128,0-335.68,0H664.33c-207.7,0-335.65,0-335.68,0"/><path id="path21395" class="cls-2" d="M1598.52,548l-299.26,0H700.76l-299.25,0"/><path id="path21397" class="cls-2" d="M1505.28,445.74l-252.63,0H747.38l-252.63,0"/><path id="path21399" class="cls-2" d="M1394.83,362.34s-75.26,0-197.41,0H802.61c-122.15,0-197.4,0-197.41,0"/><path id="path21401" class="cls-2" d="M1270.94,300.65s-51.65,0-135.46,0H729.1"/><path id="path21403" class="cls-2" d="M1137.82,262.77s-26.27,0-68.9,0H931.11c-42.64,0-68.9,0-68.91,0"/></g><circle id="path21407" class="cls-3" cx="1000.01" cy="1000" r="749.99"/></g></svg>