<svg id="Circular_element" data-name="Circular element" xmlns="http://www.w3.org/2000/svg" viewBox="0 0 2000 2000"><defs><style>.cls-1,.cls-10,.cls-11,.cls-12,.cls-13,.cls-14,.cls-15,.cls-16,.cls-17,.cls-18,.cls-19,.cls-2,.cls-20,.cls-21,.cls-22,.cls-23,.cls-24,.cls-25,.cls-26,.cls-27,.cls-28,.cls-29,.cls-3,.cls-30,.cls-31,.cls-32,.cls-33,.cls-34,.cls-35,.cls-36,.cls-4,.cls-5,.cls-6,.cls-7,.cls-8,.cls-9{fill:#fff;}.cls-2{fill-opacity:0.97;}.cls-3{fill-opacity:0.95;}.cls-4{fill-opacity:0.93;}.cls-5{fill-opacity:0.9;}.cls-6{fill-opacity:0.88;}.cls-7{fill-opacity:0.85;}.cls-8{fill-opacity:0.83;}.cls-9{fill-opacity:0.8;}.cls-10{fill-opacity:0.78;}.cls-11{fill-opacity:0.75;}.cls-12{fill-opacity:0.72;}.cls-13{fill-opacity:0.7;}.cls-14{fill-opacity:0.68;}.cls-15{fill-opacity:0.65;}.cls-16{fill-opacity:0.63;}.cls-17{fill-opacity:0.6;}.cls-18{fill-opacity:0.58;}.cls-19{fill-opacity:0.55;}.cls-20{fill-opacity:0.53;}.cls-21{fill-opacity:0.5;}.cls-22{fill-opacity:0.48;}.cls-23{fill-opacity:0.45;}.cls-24{fill-opacity:0.42;}.cls-25{fill-opacity:0.4;}.cls-26{fill-opacity:0.38;}.cls-27{fill-opacity:0.35;}.cls-28{fill-opacity:0.33;}.cls-29{fill-opacity:0.3;}.cls-30{fill-opacity:0.28;}.cls-31{fill-opacity:0.25;}.cls-32{fill-opacity:0.23;}.cls-33{fill-opacity:0.2;}.cls-34{fill-opacity:0.18;}.cls-35{fill-opacity:0.15;}.cls-36{fill-opacity:0.13;}</style></defs><g id="Artboard_layers" data-name="Artboard layers"><g id="Middle_layer" data-name="Middle layer"><g id="Radial_group" data-name="Radial group"><path id="Rectangle_0" data-name="Rectangle 0" class="cls-1" d="M981.48,250h37V416.67h-37Z"/><path id="Rectangle_1" data-name="Rectangle 1" class="cls-2" d="M1112,258.18l36.48,6.43-28.94,164.13-36.48-6.43Z"/><path id="Rectangle_2" data-name="Rectangle 2" class="cls-3" d="M1239.11,288.9l34.82,12.66-57,156.62-34.8-12.67Z"/><path id="Rectangle_3" data-name="Rectangle 3" class="cls-4" d="M1359,341.22,1391,359.74,1307.7,504.08l-32.07-18.52Z"/><path id="Rectangle_4" data-name="Rectangle 4" class="cls-5" d="M1467.91,413.56l28.37,23.81L1389.15,565l-28.37-23.8Z"/><path id="Rectangle_5" data-name="Rectangle 5" class="cls-6" d="M1562.63,503.72l23.81,28.37L1458.76,639.23,1435,610.85Z"/><path id="Rectangle_6" data-name="Rectangle 6" class="cls-7" d="M1640.26,609,1658.78,641l-144.34,83.33-18.51-32.07Z"/><path id="Rectangle_7" data-name="Rectangle 7" class="cls-8" d="M1698.44,726.08l12.67,34.81-156.63,57-12.67-34.8Z"/><path id="Rectangle_8" data-name="Rectangle 8" class="cls-9" d="M1735.39,851.53l6.42,36.47-164.12,28.94-6.43-36.47Z"/><path id="Rectangle_9" data-name="Rectangle 9" class="cls-10" d="M1750,981.48v37H1583.33v-37Z"/><path id="Rectangle_10" data-name="Rectangle 10" class="cls-11" d="M1741.81,1112l-6.42,36.48-164.13-28.94,6.43-36.48Z"/><path id="Rectangle_11" data-name="Rectangle 11" class="cls-12" d="M1711.11,1239.11l-12.67,34.82-156.63-57,12.67-34.8Z"/><path id="Rectangle_12" data-name="Rectangle 12" class="cls-13" d="M1658.78,1359,1640.26,1391l-144.33-83.34,18.51-32.07Z"/><path id="Rectangle_13" data-name="Rectangle 13" class="cls-14" d="M1586.44,1467.91l-23.81,28.37L1435,1389.15l23.8-28.37Z"/><path id="Rectangle_14" data-name="Rectangle 14" class="cls-15" d="M1496.28,1562.63l-28.37,23.81-107.13-127.68,28.37-23.8Z"/><path id="Rectangle_15" data-name="Rectangle 15" class="cls-16" d="M1391,1640.26,1359,1658.78l-83.33-144.34,32.07-18.51Z"/><path id="Rectangle_16" data-name="Rectangle 16" class="cls-17" d="M1273.93,1698.44l-34.82,12.67-57-156.63,34.8-12.67Z"/><path id="Rectangle_17" data-name="Rectangle 17" class="cls-18" d="M1148.48,1735.39l-36.48,6.42-28.94-164.12,36.48-6.43Z"/><path id="Rectangle_18" data-name="Rectangle 18" class="cls-19" d="M1018.52,1750h-37V1583.33h37Z"/><path id="Rectangle_19" data-name="Rectangle 19" class="cls-20" d="M888,1741.81l-36.47-6.42,28.94-164.13,36.47,6.43Z"/><path id="Rectangle_20" data-name="Rectangle 20" class="cls-21" d="M760.89,1711.11l-34.81-12.67,57-156.63,34.8,12.67Z"/><path id="Rectangle_21" data-name="Rectangle 21" class="cls-22" d="M641,1658.78,609,1640.26l83.34-144.33,32.07,18.51Z"/><path id="Rectangle_22" data-name="Rectangle 22" class="cls-23" d="M532.09,1586.44l-28.37-23.81L610.85,1435l28.38,23.8Z"/><path id="Rectangle_23" data-name="Rectangle 23" class="cls-24" d="M437.37,1496.28l-23.81-28.37,127.68-107.13,23.8,28.37Z"/><path id="Rectangle_24" data-name="Rectangle 24" class="cls-25" d="M359.74,1391,341.22,1359l144.34-83.33,18.52,32.07Z"/><path id="Rectangle_25" data-name="Rectangle 25" class="cls-26" d="M301.56,1273.93l-12.66-34.82,156.61-57,12.67,34.8Z"/><path id="Rectangle_26" data-name="Rectangle 26" class="cls-27" d="M264.61,1148.48,258.18,1112l164.13-28.94,6.43,36.48Z"/><path id="Rectangle_27" data-name="Rectangle 27" class="cls-28" d="M250,1018.52v-37H416.67v37Z"/><path id="Rectangle_28" data-name="Rectangle 28" class="cls-29" d="M258.18,888l6.43-36.47,164.13,28.94-6.43,36.47Z"/><path id="Rectangle_29" data-name="Rectangle 29" class="cls-30" d="M288.9,760.89l12.66-34.81,156.62,57-12.67,34.8Z"/><path id="Rectangle_30" data-name="Rectangle 30" class="cls-31" d="M341.22,641,359.74,609,504.08,692.3l-18.52,32.07Z"/><path id="Rectangle_31" data-name="Rectangle 31" class="cls-32" d="M413.56,532.09l23.81-28.37L565,610.85l-23.8,28.38Z"/><path id="Rectangle_32" data-name="Rectangle 32" class="cls-33" d="M503.72,437.37l28.37-23.81L639.23,541.24,610.85,565Z"/><path id="Rectangle_33" data-name="Rectangle 33" class="cls-34" d="M609,359.74,641,341.22l83.33,144.34L692.3,504.08Z"/><path id="Rectangle_34" data-name="Rectangle 34" class="cls-35" d="M726.08,301.56l34.81-12.66,57,156.61-34.8,12.67Z"/><path id="Rectangle_35" data-name="Rectangle 35" class="cls-36" d="M851.53,264.61,888,258.18l28.94,164.13-36.47,6.43Z"/></g></g></g></svg>