<svg id="Circular_element" data-name="Circular element" xmlns="http://www.w3.org/2000/svg" viewBox="0 0 2000 2000"><defs><style>.cls-1,.cls-10,.cls-11,.cls-12,.cls-13,.cls-14,.cls-15,.cls-16,.cls-17,.cls-18,.cls-19,.cls-2,.cls-20,.cls-21,.cls-22,.cls-23,.cls-24,.cls-25,.cls-26,.cls-27,.cls-28,.cls-29,.cls-3,.cls-30,.cls-31,.cls-32,.cls-33,.cls-34,.cls-35,.cls-36,.cls-37,.cls-38,.cls-39,.cls-4,.cls-40,.cls-41,.cls-42,.cls-43,.cls-44,.cls-45,.cls-46,.cls-47,.cls-48,.cls-49,.cls-5,.cls-50,.cls-51,.cls-52,.cls-53,.cls-54,.cls-6,.cls-7,.cls-8,.cls-9{fill:none;stroke:#fff;stroke-linecap:round;stroke-linejoin:round;stroke-width:10px;}.cls-2{stroke-dasharray:0 74.99;}.cls-3{stroke-dasharray:0 75.03;}.cls-4{stroke-dasharray:0 75.02;}.cls-5{stroke-dasharray:0 75.06;}.cls-6{stroke-dasharray:0 75.01;}.cls-7{stroke-dasharray:0 75.05;}.cls-8{stroke-dasharray:0 75.02;}.cls-9{stroke-dasharray:0 75.02;}.cls-10{stroke-dasharray:0 75.02;}.cls-11{stroke-dasharray:0 75.02;}.cls-12{stroke-dasharray:0 75;}.cls-13{stroke-dasharray:0 75;}.cls-14{stroke-dasharray:0 75.02;}.cls-15{stroke-dasharray:0 74.98;}.cls-16{stroke-dasharray:0 75;}.cls-17{stroke-dasharray:0 75;}.cls-18{stroke-dasharray:0 74.99;}.cls-19{stroke-dasharray:0 74.99;}.cls-20{stroke-dasharray:0 75;}.cls-21{stroke-dasharray:0 75;}.cls-22{stroke-dasharray:0 74.99;}.cls-23{stroke-dasharray:0 75;}.cls-24{stroke-dasharray:0 75.03;}.cls-25{stroke-dasharray:0 75.01;}.cls-26{stroke-dasharray:0 74.98;}.cls-27{stroke-dasharray:0 75.03;}.cls-28{stroke-dasharray:0 75;}.cls-29{stroke-dasharray:0 74.95;}.cls-30{stroke-dasharray:0 75;}.cls-31{stroke-dasharray:0 74.99;}.cls-32{stroke-dasharray:0 75.01;}.cls-33{stroke-dasharray:0 75;}.cls-34{stroke-dasharray:0 75;}.cls-35{stroke-dasharray:0 75.02;}.cls-36{stroke-dasharray:0 75.03;}.cls-37{stroke-dasharray:0 75.03;}.cls-38{stroke-dasharray:0 75.05;}.cls-39{stroke-dasharray:0 75;}.cls-40{stroke-dasharray:0 75.02;}.cls-41{stroke-dasharray:0 75.04;}.cls-42{stroke-dasharray:0 75.02;}.cls-43{stroke-dasharray:0 74.99;}.cls-44{stroke-dasharray:0 75;}.cls-45{stroke-dasharray:0 75.03;}.cls-46{stroke-dasharray:0 75.03;}.cls-47{stroke-dasharray:0 74.98;}.cls-48{stroke-dasharray:0 74.99;}.cls-49{stroke-dasharray:0 75.05;}.cls-50{stroke-dasharray:0 75.02;}.cls-51{stroke-dasharray:0 75.03;}.cls-52{stroke-dasharray:0 75.02;}.cls-53{stroke-dasharray:0 75.07;}.cls-54{stroke-dasharray:0 75;}</style></defs><line class="cls-1" x1="1000" y1="1750" x2="1000" y2="1750"/><line class="cls-2" x1="1000" y1="1675.01" x2="1000" y2="1412.54"/><line class="cls-1" x1="1000" y1="1375.05" x2="1000" y2="1375.05"/><line class="cls-1" x1="1000" y1="625.14" x2="1000" y2="625.14"/><line class="cls-3" x1="1000" y1="550.12" x2="1000" y2="287.51"/><line class="cls-1" x1="1000" y1="250" x2="1000" y2="250"/><line class="cls-1" x1="1016.31" y1="1374.47" x2="1016.31" y2="1374.47"/><line class="cls-4" x1="1019.57" y1="1449.42" x2="1030.99" y2="1711.76"/><line class="cls-1" x1="1032.63" y1="1749.23" x2="1032.63" y2="1749.23"/><line class="cls-1" x1="967.37" y1="250.77" x2="967.37" y2="250.77"/><line class="cls-5" x1="970.64" y1="325.76" x2="982.07" y2="588.22"/><line class="cls-1" x1="983.69" y1="625.72" x2="983.69" y2="625.72"/><line class="cls-1" x1="1065.44" y1="1747.12" x2="1065.44" y2="1747.12"/><line class="cls-6" x1="1058.88" y1="1672.4" x2="1035.91" y2="1410.87"/><line class="cls-1" x1="1032.63" y1="1373.51" x2="1032.63" y2="1373.51"/><line class="cls-1" x1="934.56" y1="252.88" x2="934.56" y2="252.88"/><line class="cls-7" x1="941.12" y1="327.64" x2="964.11" y2="589.3"/><line class="cls-1" x1="967.37" y1="626.68" x2="967.37" y2="626.68"/><line class="cls-1" x1="1097.88" y1="1743.67" x2="1097.88" y2="1743.67"/><line class="cls-8" x1="1088.09" y1="1669.29" x2="1053.83" y2="1408.97"/><line class="cls-1" x1="1048.94" y1="1371.79" x2="1048.94" y2="1371.79"/><line class="cls-1" x1="902.12" y1="256.52" x2="902.12" y2="256.52"/><line class="cls-9" x1="911.92" y1="330.9" x2="946.19" y2="591.22"/><line class="cls-1" x1="951.06" y1="628.41" x2="951.06" y2="628.41"/><line class="cls-1" x1="1130.31" y1="1738.68" x2="1130.31" y2="1738.68"/><line class="cls-10" x1="1117.26" y1="1664.8" x2="1071.58" y2="1406.23"/><line class="cls-1" x1="1065.06" y1="1369.29" x2="1065.06" y2="1369.29"/><line class="cls-1" x1="869.69" y1="261.51" x2="869.69" y2="261.51"/><line class="cls-11" x1="882.75" y1="335.39" x2="928.45" y2="593.96"/><line class="cls-1" x1="934.94" y1="630.9" x2="934.94" y2="630.9"/><line class="cls-1" x1="1081.18" y1="1366.03" x2="1081.18" y2="1366.03"/><line class="cls-12" x1="1097.38" y1="1439.26" x2="1154.24" y2="1695.54"/><line class="cls-1" x1="1162.36" y1="1732.15" x2="1162.36" y2="1732.15"/><line class="cls-1" x1="918.82" y1="633.97" x2="918.82" y2="633.97"/><line class="cls-13" x1="902.58" y1="560.75" x2="845.76" y2="304.46"/><line class="cls-1" x1="837.64" y1="267.85" x2="837.64" y2="267.85"/><line class="cls-1" x1="1194.22" y1="1724.48" x2="1194.22" y2="1724.48"/><line class="cls-14" x1="1174.8" y1="1652.02" x2="1106.82" y2="1398.42"/><line class="cls-1" x1="1097.11" y1="1362.19" x2="1097.11" y2="1362.19"/><line class="cls-1" x1="902.89" y1="637.81" x2="902.89" y2="637.81"/><line class="cls-15" x1="883.47" y1="565.39" x2="815.49" y2="311.92"/><line class="cls-1" x1="805.78" y1="275.71" x2="805.78" y2="275.71"/><line class="cls-1" x1="1225.5" y1="1715.27" x2="1225.5" y2="1715.27"/><line class="cls-16" x1="1202.96" y1="1643.73" x2="1124.06" y2="1393.36"/><line class="cls-1" x1="1112.85" y1="1357.59" x2="1112.85" y2="1357.59"/><line class="cls-1" x1="887.15" y1="642.41" x2="887.15" y2="642.41"/><line class="cls-17" x1="864.62" y1="570.88" x2="785.77" y2="320.5"/><line class="cls-1" x1="774.5" y1="284.73" x2="774.5" y2="284.73"/><line class="cls-1" x1="1256.59" y1="1704.71" x2="1256.59" y2="1704.71"/><line class="cls-18" x1="1230.91" y1="1634.25" x2="1141.04" y2="1387.64"/><line class="cls-1" x1="1128.2" y1="1352.41" x2="1128.2" y2="1352.41"/><line class="cls-1" x1="871.8" y1="647.6" x2="871.8" y2="647.6"/><line class="cls-18" x1="846.12" y1="577.13" x2="756.25" y2="330.52"/><line class="cls-1" x1="743.41" y1="295.29" x2="743.41" y2="295.29"/><line class="cls-1" x1="1287.1" y1="1692.82" x2="1287.1" y2="1692.82"/><line class="cls-19" x1="1258.39" y1="1623.54" x2="1157.91" y2="1381.09"/><line class="cls-1" x1="1143.55" y1="1346.46" x2="1143.55" y2="1346.46"/><line class="cls-1" x1="856.45" y1="653.54" x2="856.45" y2="653.54"/><line class="cls-19" x1="827.74" y1="584.27" x2="727.25" y2="341.82"/><line class="cls-1" x1="712.9" y1="307.18" x2="712.9" y2="307.18"/><line class="cls-1" x1="1317.04" y1="1679.77" x2="1317.04" y2="1679.77"/><line class="cls-20" x1="1285.34" y1="1611.8" x2="1174.37" y2="1373.92"/><line class="cls-1" x1="1158.52" y1="1339.93" x2="1158.52" y2="1339.93"/><line class="cls-1" x1="841.48" y1="660.26" x2="841.48" y2="660.26"/><line class="cls-20" x1="809.77" y1="592.29" x2="698.81" y2="354.41"/><line class="cls-1" x1="682.96" y1="320.42" x2="682.96" y2="320.42"/><line class="cls-1" x1="1346.4" y1="1665.18" x2="1346.4" y2="1665.18"/><line class="cls-21" x1="1311.75" y1="1598.68" x2="1190.44" y2="1365.89"/><line class="cls-1" x1="1173.11" y1="1332.64" x2="1173.11" y2="1332.64"/><line class="cls-1" x1="826.89" y1="667.36" x2="826.89" y2="667.36"/><line class="cls-21" x1="792.23" y1="600.85" x2="670.92" y2="368.07"/><line class="cls-1" x1="653.6" y1="334.82" x2="653.6" y2="334.82"/><line class="cls-1" x1="1375" y1="1649.45" x2="1375" y2="1649.45"/><line class="cls-22" x1="1337.5" y1="1584.51" x2="1206.25" y2="1357.24"/><line class="cls-1" x1="1187.5" y1="1324.77" x2="1187.5" y2="1324.77"/><line class="cls-1" x1="812.5" y1="675.23" x2="812.5" y2="675.23"/><line class="cls-22" x1="775" y1="610.29" x2="643.75" y2="383.02"/><line class="cls-1" x1="625" y1="350.55" x2="625" y2="350.55"/><line class="cls-1" x1="1403.02" y1="1632.56" x2="1403.02" y2="1632.56"/><line class="cls-23" x1="1362.72" y1="1569.32" x2="1221.66" y2="1347.95"/><line class="cls-1" x1="1201.51" y1="1316.33" x2="1201.51" y2="1316.33"/><line class="cls-1" x1="798.49" y1="683.86" x2="798.49" y2="683.86"/><line class="cls-24" x1="758.19" y1="620.58" x2="617.13" y2="399.08"/><line class="cls-1" x1="596.98" y1="367.44" x2="596.98" y2="367.44"/><line class="cls-1" x1="1430.27" y1="1614.33" x2="1430.27" y2="1614.33"/><line class="cls-25" x1="1387.24" y1="1552.89" x2="1236.65" y2="1337.84"/><line class="cls-1" x1="1215.14" y1="1307.12" x2="1215.14" y2="1307.12"/><line class="cls-1" x1="784.86" y1="692.88" x2="784.86" y2="692.88"/><line class="cls-25" x1="741.84" y1="631.44" x2="591.24" y2="416.39"/><line class="cls-1" x1="569.73" y1="385.67" x2="569.73" y2="385.67"/><line class="cls-1" x1="1456.56" y1="1594.95" x2="1456.56" y2="1594.95"/><line class="cls-26" x1="1410.93" y1="1535.47" x2="1251.2" y2="1327.27"/><line class="cls-1" x1="1228.38" y1="1297.52" x2="1228.38" y2="1297.52"/><line class="cls-1" x1="543.44" y1="405.05" x2="543.44" y2="405.05"/><line class="cls-27" x1="589.11" y1="464.58" x2="748.95" y2="672.93"/><line class="cls-1" x1="771.81" y1="702.67" x2="771.81" y2="702.67"/><line class="cls-1" x1="1482.09" y1="1574.61" x2="1482.09" y2="1574.61"/><line class="cls-28" x1="1433.88" y1="1517.16" x2="1265.15" y2="1316.08"/><line class="cls-1" x1="1241.04" y1="1287.35" x2="1241.04" y2="1287.35"/><line class="cls-1" x1="758.96" y1="712.84" x2="758.96" y2="712.84"/><line class="cls-28" x1="710.75" y1="655.39" x2="542.02" y2="454.3"/><line class="cls-1" x1="517.91" y1="425.58" x2="517.91" y2="425.58"/><line class="cls-1" x1="1506.65" y1="1552.93" x2="1506.65" y2="1552.93"/><line class="cls-29" x1="1456.03" y1="1497.67" x2="1278.83" y2="1304.24"/><line class="cls-1" x1="1253.52" y1="1276.61" x2="1253.52" y2="1276.61"/><line class="cls-1" x1="746.67" y1="723.58" x2="746.67" y2="723.58"/><line class="cls-30" x1="696.01" y1="668.28" x2="518.68" y2="474.72"/><line class="cls-1" x1="493.35" y1="447.07" x2="493.35" y2="447.07"/><line class="cls-1" x1="1530.45" y1="1530.29" x2="1530.45" y2="1530.29"/><line class="cls-31" x1="1477.41" y1="1477.29" x2="1291.75" y2="1291.79"/><line class="cls-1" x1="1265.23" y1="1265.29" x2="1265.23" y2="1265.29"/><line class="cls-1" x1="1265.23" y1="1265.1" x2="1265.23" y2="1265.1"/><line class="cls-1" x1="734.77" y1="734.9" x2="734.77" y2="734.9"/><line class="cls-32" x1="681.73" y1="681.87" x2="496.07" y2="496.23"/><line class="cls-1" x1="469.55" y1="469.71" x2="469.55" y2="469.71"/><line class="cls-1" x1="1553.1" y1="1506.68" x2="1553.1" y2="1506.68"/><line class="cls-33" x1="1497.79" y1="1456.03" x2="1304.2" y2="1278.72"/><line class="cls-1" x1="1276.55" y1="1253.39" x2="1276.55" y2="1253.39"/><line class="cls-1" x1="723.45" y1="746.61" x2="723.45" y2="746.61"/><line class="cls-33" x1="668.14" y1="695.95" x2="474.56" y2="518.65"/><line class="cls-1" x1="446.9" y1="493.32" x2="446.9" y2="493.32"/><line class="cls-1" x1="1574.59" y1="1482.12" x2="1574.59" y2="1482.12"/><line class="cls-34" x1="1517.13" y1="1433.92" x2="1316.02" y2="1265.21"/><line class="cls-1" x1="1287.3" y1="1241.11" x2="1287.3" y2="1241.11"/><line class="cls-1" x1="712.7" y1="759.08" x2="712.7" y2="759.08"/><line class="cls-35" x1="655.25" y1="710.84" x2="454.14" y2="542"/><line class="cls-1" x1="425.41" y1="517.88" x2="425.41" y2="517.88"/><line class="cls-1" x1="1595.13" y1="1456.6" x2="1595.13" y2="1456.6"/><line class="cls-36" x1="1535.59" y1="1410.93" x2="1327.23" y2="1251.09"/><line class="cls-1" x1="1297.47" y1="1228.25" x2="1297.47" y2="1228.25"/><line class="cls-1" x1="702.53" y1="771.75" x2="702.53" y2="771.75"/><line class="cls-36" x1="643" y1="726.08" x2="434.64" y2="566.23"/><line class="cls-1" x1="404.87" y1="543.4" x2="404.87" y2="543.4"/><line class="cls-1" x1="1307.06" y1="1215.2" x2="1307.06" y2="1215.2"/><line class="cls-37" x1="1368.58" y1="1258.1" x2="1583.77" y2="1408.62"/><line class="cls-1" x1="1614.51" y1="1430.12" x2="1614.51" y2="1430.12"/><line class="cls-1" x1="385.49" y1="569.88" x2="385.49" y2="569.88"/><line class="cls-38" x1="446.97" y1="612.92" x2="662.16" y2="763.58"/><line class="cls-1" x1="692.94" y1="784.99" x2="692.94" y2="784.99"/><line class="cls-1" x1="1632.55" y1="1403.06" x2="1632.55" y2="1403.06"/><line class="cls-39" x1="1569.29" y1="1362.77" x2="1347.9" y2="1221.73"/><line class="cls-1" x1="1316.27" y1="1201.58" x2="1316.27" y2="1201.58"/><line class="cls-1" x1="683.73" y1="798.61" x2="683.73" y2="798.61"/><line class="cls-39" x1="620.47" y1="758.32" x2="399.08" y2="617.28"/><line class="cls-1" x1="367.45" y1="597.13" x2="367.45" y2="597.13"/><line class="cls-1" x1="1649.63" y1="1375.05" x2="1649.63" y2="1375.05"/><line class="cls-40" x1="1584.65" y1="1337.55" x2="1357.21" y2="1206.32"/><line class="cls-1" x1="1324.72" y1="1187.57" x2="1324.72" y2="1187.57"/><line class="cls-1" x1="675.28" y1="812.62" x2="675.28" y2="812.62"/><line class="cls-41" x1="610.3" y1="775.09" x2="382.86" y2="643.72"/><line class="cls-1" x1="350.37" y1="624.95" x2="350.37" y2="624.95"/><line class="cls-1" x1="1665.37" y1="1346.26" x2="1665.37" y2="1346.26"/><line class="cls-42" x1="1598.81" y1="1311.65" x2="1365.86" y2="1190.49"/><line class="cls-1" x1="1332.59" y1="1173.18" x2="1332.59" y2="1173.18"/><line class="cls-1" x1="667.41" y1="826.82" x2="667.41" y2="826.82"/><line class="cls-42" x1="600.86" y1="792.2" x2="367.91" y2="671.04"/><line class="cls-1" x1="334.63" y1="653.74" x2="334.63" y2="653.74"/><line class="cls-1" x1="1679.76" y1="1316.91" x2="1679.76" y2="1316.91"/><line class="cls-43" x1="1611.78" y1="1285.24" x2="1373.87" y2="1174.43"/><line class="cls-1" x1="1339.88" y1="1158.6" x2="1339.88" y2="1158.6"/><line class="cls-1" x1="660.12" y1="841.6" x2="660.12" y2="841.6"/><line class="cls-44" x1="592.14" y1="809.9" x2="354.23" y2="698.94"/><line class="cls-1" x1="320.24" y1="683.09" x2="320.24" y2="683.09"/><line class="cls-1" x1="1693" y1="1286.97" x2="1693" y2="1286.97"/><line class="cls-45" x1="1623.68" y1="1258.26" x2="1381.06" y2="1157.79"/><line class="cls-1" x1="1346.4" y1="1143.44" x2="1346.4" y2="1143.44"/><line class="cls-1" x1="653.6" y1="856.56" x2="653.6" y2="856.56"/><line class="cls-45" x1="584.28" y1="827.86" x2="341.66" y2="727.38"/><line class="cls-1" x1="307" y1="713.03" x2="307" y2="713.03"/><line class="cls-1" x1="1704.9" y1="1256.46" x2="1704.9" y2="1256.46"/><line class="cls-46" x1="1634.39" y1="1230.82" x2="1387.61" y2="1141.1"/><line class="cls-1" x1="1352.35" y1="1128.28" x2="1352.35" y2="1128.28"/><line class="cls-1" x1="647.65" y1="871.72" x2="647.65" y2="871.72"/><line class="cls-46" x1="577.14" y1="846.09" x2="330.35" y2="756.36"/><line class="cls-1" x1="295.1" y1="743.54" x2="295.1" y2="743.54"/><line class="cls-1" x1="1715.26" y1="1225.57" x2="1715.26" y2="1225.57"/><line class="cls-47" x1="1643.76" y1="1203" x2="1393.48" y2="1124.02"/><line class="cls-1" x1="1357.73" y1="1112.74" x2="1357.73" y2="1112.74"/><line class="cls-1" x1="642.27" y1="887.26" x2="642.27" y2="887.26"/><line class="cls-47" x1="570.77" y1="864.7" x2="320.49" y2="785.72"/><line class="cls-1" x1="284.74" y1="774.43" x2="284.74" y2="774.43"/><line class="cls-1" x1="1724.48" y1="1194.1" x2="1724.48" y2="1194.1"/><line class="cls-48" x1="1652.05" y1="1174.68" x2="1398.55" y2="1106.71"/><line class="cls-1" x1="1362.33" y1="1097" x2="1362.33" y2="1097"/><line class="cls-1" x1="275.52" y1="805.9" x2="275.52" y2="805.9"/><line class="cls-35" x1="347.99" y1="825.33" x2="601.62" y2="893.34"/><line class="cls-1" x1="637.86" y1="903" x2="637.86" y2="903"/><line class="cls-1" x1="1365.98" y1="1081.27" x2="1365.98" y2="1081.27"/><line class="cls-49" x1="1439.26" y1="1097.47" x2="1695.71" y2="1154.31"/><line class="cls-1" x1="1732.34" y1="1162.43" x2="1732.34" y2="1162.43"/><line class="cls-1" x1="267.66" y1="837.76" x2="267.66" y2="837.76"/><line class="cls-49" x1="340.93" y1="854" x2="597.38" y2="910.85"/><line class="cls-1" x1="634.02" y1="918.93" x2="634.02" y2="918.93"/><line class="cls-1" x1="1738.68" y1="1130.2" x2="1738.68" y2="1130.2"/><line class="cls-50" x1="1664.79" y1="1117.19" x2="1406.19" y2="1071.65"/><line class="cls-1" x1="1369.24" y1="1065.15" x2="1369.24" y2="1065.15"/><line class="cls-1" x1="630.76" y1="934.85" x2="630.76" y2="934.85"/><line class="cls-50" x1="556.87" y1="921.84" x2="298.27" y2="876.31"/><line class="cls-1" x1="261.32" y1="869.8" x2="261.32" y2="869.8"/><line class="cls-1" x1="1743.67" y1="1097.96" x2="1743.67" y2="1097.96"/><line class="cls-51" x1="1669.28" y1="1088.17" x2="1408.93" y2="1053.92"/><line class="cls-1" x1="1371.74" y1="1049.03" x2="1371.74" y2="1049.03"/><line class="cls-1" x1="628.26" y1="951.16" x2="628.26" y2="951.16"/><line class="cls-51" x1="553.88" y1="941.38" x2="293.53" y2="907.13"/><line class="cls-1" x1="256.33" y1="902.23" x2="256.33" y2="902.23"/><line class="cls-1" x1="1373.46" y1="1032.72" x2="1373.46" y2="1032.72"/><line class="cls-52" x1="1448.2" y1="1039.23" x2="1709.76" y2="1062.07"/><line class="cls-1" x1="1747.12" y1="1065.34" x2="1747.12" y2="1065.34"/><line class="cls-1" x1="252.88" y1="934.66" x2="252.88" y2="934.66"/><line class="cls-52" x1="327.61" y1="941.19" x2="589.17" y2="964.04"/><line class="cls-1" x1="626.54" y1="967.28" x2="626.54" y2="967.28"/><line class="cls-1" x1="1374.42" y1="1016.41" x2="1374.42" y2="1016.41"/><line class="cls-53" x1="1449.42" y1="1019.66" x2="1711.92" y2="1031.09"/><line class="cls-1" x1="1749.42" y1="1032.72" x2="1749.42" y2="1032.72"/><line class="cls-1" x1="250.58" y1="967.28" x2="250.58" y2="967.28"/><line class="cls-53" x1="325.58" y1="970.55" x2="588.08" y2="981.97"/><line class="cls-1" x1="625.58" y1="983.59" x2="625.58" y2="983.59"/><line class="cls-1" x1="1750" y1="1000.1" x2="1750" y2="1000.1"/><line class="cls-54" x1="1675" y1="1000.1" x2="1412.5" y2="1000.1"/><line class="cls-1" x1="1375" y1="1000.1" x2="1375" y2="1000.1"/><line class="cls-1" x1="625" y1="1000.1" x2="625" y2="1000.1"/><line class="cls-54" x1="550" y1="1000.1" x2="287.5" y2="1000.1"/><line class="cls-1" x1="250" y1="1000.1" x2="250" y2="1000.1"/><line class="cls-1" x1="1374.42" y1="983.59" x2="1374.42" y2="983.59"/><line class="cls-53" x1="1449.42" y1="980.34" x2="1711.92" y2="968.91"/><line class="cls-1" x1="1749.42" y1="967.28" x2="1749.42" y2="967.28"/><line class="cls-1" x1="250.58" y1="1032.72" x2="250.58" y2="1032.72"/><line class="cls-53" x1="325.58" y1="1029.45" x2="588.08" y2="1018.03"/><line class="cls-1" x1="625.58" y1="1016.41" x2="625.58" y2="1016.41"/><line class="cls-1" x1="1373.46" y1="967.28" x2="1373.46" y2="967.28"/><line class="cls-52" x1="1448.2" y1="960.77" x2="1709.76" y2="937.93"/><line class="cls-1" x1="1747.12" y1="934.66" x2="1747.12" y2="934.66"/><line class="cls-1" x1="252.88" y1="1065.34" x2="252.88" y2="1065.34"/><line class="cls-52" x1="327.61" y1="1058.81" x2="589.17" y2="1035.96"/><line class="cls-1" x1="626.54" y1="1032.72" x2="626.54" y2="1032.72"/><line class="cls-1" x1="1743.67" y1="902.23" x2="1743.67" y2="902.23"/><line class="cls-51" x1="1669.28" y1="912.02" x2="1408.93" y2="946.27"/><line class="cls-1" x1="1371.74" y1="951.16" x2="1371.74" y2="951.16"/><line class="cls-1" x1="628.26" y1="1049.03" x2="628.26" y2="1049.03"/><line class="cls-51" x1="553.88" y1="1058.81" x2="293.53" y2="1093.07"/><line class="cls-1" x1="256.33" y1="1097.96" x2="256.33" y2="1097.96"/><line class="cls-1" x1="1738.68" y1="869.8" x2="1738.68" y2="869.8"/><line class="cls-50" x1="1664.79" y1="882.81" x2="1406.19" y2="928.35"/><line class="cls-1" x1="1369.24" y1="934.85" x2="1369.24" y2="934.85"/><line class="cls-1" x1="630.76" y1="1065.15" x2="630.76" y2="1065.15"/><line class="cls-50" x1="556.87" y1="1078.16" x2="298.27" y2="1123.69"/><line class="cls-1" x1="261.32" y1="1130.2" x2="261.32" y2="1130.2"/><line class="cls-1" x1="1365.98" y1="918.93" x2="1365.98" y2="918.93"/><line class="cls-49" x1="1439.26" y1="902.73" x2="1695.71" y2="845.88"/><line class="cls-1" x1="1732.34" y1="837.76" x2="1732.34" y2="837.76"/><line class="cls-1" x1="267.66" y1="1162.43" x2="267.66" y2="1162.43"/><line class="cls-49" x1="340.93" y1="1146.19" x2="597.38" y2="1089.34"/><line class="cls-1" x1="634.02" y1="1081.27" x2="634.02" y2="1081.27"/><line class="cls-1" x1="1362.14" y1="903" x2="1362.14" y2="903"/><line class="cls-35" x1="1434.61" y1="883.62" x2="1688.24" y2="815.62"/><line class="cls-1" x1="1724.48" y1="805.9" x2="1724.48" y2="805.9"/><line class="cls-1" x1="637.67" y1="1097" x2="637.67" y2="1097"/><line class="cls-48" x1="565.24" y1="1116.42" x2="311.74" y2="1184.39"/><line class="cls-1" x1="275.52" y1="1194.1" x2="275.52" y2="1194.1"/><line class="cls-1" x1="1715.26" y1="774.43" x2="1715.26" y2="774.43"/><line class="cls-47" x1="1643.76" y1="797" x2="1393.48" y2="875.98"/><line class="cls-1" x1="1357.73" y1="887.26" x2="1357.73" y2="887.26"/><line class="cls-1" x1="642.27" y1="1112.74" x2="642.27" y2="1112.74"/><line class="cls-47" x1="570.77" y1="1135.3" x2="320.49" y2="1214.28"/><line class="cls-1" x1="284.74" y1="1225.57" x2="284.74" y2="1225.57"/><line class="cls-1" x1="1704.9" y1="743.54" x2="1704.9" y2="743.54"/><line class="cls-46" x1="1634.39" y1="769.18" x2="1387.61" y2="858.9"/><line class="cls-1" x1="1352.35" y1="871.72" x2="1352.35" y2="871.72"/><line class="cls-1" x1="647.65" y1="1128.28" x2="647.65" y2="1128.28"/><line class="cls-46" x1="577.14" y1="1153.91" x2="330.35" y2="1243.64"/><line class="cls-1" x1="295.1" y1="1256.46" x2="295.1" y2="1256.46"/><line class="cls-1" x1="1693" y1="713.03" x2="1693" y2="713.03"/><line class="cls-45" x1="1623.68" y1="741.74" x2="1381.06" y2="842.21"/><line class="cls-1" x1="1346.4" y1="856.56" x2="1346.4" y2="856.56"/><line class="cls-1" x1="653.6" y1="1143.44" x2="653.6" y2="1143.44"/><line class="cls-45" x1="584.28" y1="1172.14" x2="341.66" y2="1272.62"/><line class="cls-1" x1="307" y1="1286.97" x2="307" y2="1286.97"/><line class="cls-1" x1="1679.76" y1="683.09" x2="1679.76" y2="683.09"/><line class="cls-44" x1="1611.78" y1="714.79" x2="1373.87" y2="825.75"/><line class="cls-1" x1="1339.88" y1="841.6" x2="1339.88" y2="841.6"/><line class="cls-1" x1="660.12" y1="1158.6" x2="660.12" y2="1158.6"/><line class="cls-43" x1="592.14" y1="1190.26" x2="354.23" y2="1301.07"/><line class="cls-1" x1="320.24" y1="1316.91" x2="320.24" y2="1316.91"/><line class="cls-1" x1="1665.37" y1="653.74" x2="1665.37" y2="653.74"/><line class="cls-42" x1="1598.81" y1="688.35" x2="1365.86" y2="809.51"/><line class="cls-1" x1="1332.59" y1="826.82" x2="1332.59" y2="826.82"/><line class="cls-1" x1="667.41" y1="1173.18" x2="667.41" y2="1173.18"/><line class="cls-42" x1="600.86" y1="1207.8" x2="367.91" y2="1328.96"/><line class="cls-1" x1="334.63" y1="1346.26" x2="334.63" y2="1346.26"/><line class="cls-1" x1="1649.63" y1="625.14" x2="1649.63" y2="625.14"/><line class="cls-40" x1="1584.65" y1="662.64" x2="1357.21" y2="793.87"/><line class="cls-1" x1="1324.72" y1="812.62" x2="1324.72" y2="812.62"/><line class="cls-1" x1="675.28" y1="1187.57" x2="675.28" y2="1187.57"/><line class="cls-40" x1="610.3" y1="1225.07" x2="382.86" y2="1356.3"/><line class="cls-1" x1="350.37" y1="1375.05" x2="350.37" y2="1375.05"/><line class="cls-1" x1="1632.55" y1="597.13" x2="1632.55" y2="597.13"/><line class="cls-39" x1="1569.29" y1="637.42" x2="1347.9" y2="778.46"/><line class="cls-1" x1="1316.27" y1="798.61" x2="1316.27" y2="798.61"/><line class="cls-1" x1="683.73" y1="1201.58" x2="683.73" y2="1201.58"/><line class="cls-39" x1="620.47" y1="1241.88" x2="399.08" y2="1382.92"/><line class="cls-1" x1="367.45" y1="1403.06" x2="367.45" y2="1403.06"/><line class="cls-1" x1="1307.06" y1="784.99" x2="1307.06" y2="784.99"/><line class="cls-38" x1="1368.58" y1="742.05" x2="1583.77" y2="591.4"/><line class="cls-1" x1="1614.51" y1="569.88" x2="1614.51" y2="569.88"/><line class="cls-1" x1="385.49" y1="1430.12" x2="385.49" y2="1430.12"/><line class="cls-37" x1="446.97" y1="1387.11" x2="662.16" y2="1236.6"/><line class="cls-1" x1="692.94" y1="1215.2" x2="692.94" y2="1215.2"/><line class="cls-1" x1="1595.13" y1="543.4" x2="1595.13" y2="543.4"/><line class="cls-36" x1="1535.59" y1="589.07" x2="1327.23" y2="748.91"/><line class="cls-1" x1="1297.47" y1="771.75" x2="1297.47" y2="771.75"/><line class="cls-1" x1="702.53" y1="1228.25" x2="702.53" y2="1228.25"/><line class="cls-36" x1="643" y1="1273.92" x2="434.64" y2="1433.77"/><line class="cls-1" x1="404.87" y1="1456.6" x2="404.87" y2="1456.6"/><line class="cls-1" x1="1574.59" y1="517.88" x2="1574.59" y2="517.88"/><line class="cls-35" x1="1517.13" y1="566.12" x2="1316.02" y2="734.96"/><line class="cls-1" x1="1287.3" y1="759.08" x2="1287.3" y2="759.08"/><line class="cls-1" x1="712.7" y1="1241.11" x2="712.7" y2="1241.11"/><line class="cls-34" x1="655.25" y1="1289.31" x2="454.14" y2="1458.02"/><line class="cls-1" x1="425.41" y1="1482.12" x2="425.41" y2="1482.12"/><line class="cls-1" x1="1553.1" y1="493.32" x2="1553.1" y2="493.32"/><line class="cls-33" x1="1497.79" y1="543.97" x2="1304.2" y2="721.28"/><line class="cls-1" x1="1276.55" y1="746.61" x2="1276.55" y2="746.61"/><line class="cls-1" x1="723.45" y1="1253.39" x2="723.45" y2="1253.39"/><line class="cls-33" x1="668.14" y1="1304.05" x2="474.56" y2="1481.35"/><line class="cls-1" x1="446.9" y1="1506.68" x2="446.9" y2="1506.68"/><line class="cls-1" x1="1530.45" y1="469.71" x2="1530.45" y2="469.71"/><line class="cls-32" x1="1477.41" y1="522.75" x2="1291.75" y2="708.39"/><line class="cls-1" x1="1265.23" y1="734.9" x2="1265.23" y2="734.9"/><line class="cls-1" x1="734.77" y1="1265.1" x2="734.77" y2="1265.1"/><line class="cls-1" x1="734.77" y1="1265.29" x2="734.77" y2="1265.29"/><line class="cls-31" x1="681.73" y1="1318.29" x2="496.07" y2="1503.79"/><line class="cls-1" x1="469.55" y1="1530.29" x2="469.55" y2="1530.29"/><line class="cls-1" x1="1506.65" y1="447.07" x2="1506.65" y2="447.07"/><line class="cls-30" x1="1455.99" y1="502.37" x2="1278.66" y2="695.93"/><line class="cls-1" x1="1253.33" y1="723.58" x2="1253.33" y2="723.58"/><line class="cls-1" x1="746.48" y1="1276.61" x2="746.48" y2="1276.61"/><line class="cls-29" x1="695.85" y1="1331.87" x2="518.66" y2="1525.3"/><line class="cls-1" x1="493.35" y1="1552.93" x2="493.35" y2="1552.93"/><line class="cls-1" x1="1482.09" y1="425.58" x2="1482.09" y2="425.58"/><line class="cls-28" x1="1433.88" y1="483.03" x2="1265.15" y2="684.11"/><line class="cls-1" x1="1241.04" y1="712.84" x2="1241.04" y2="712.84"/><line class="cls-1" x1="758.96" y1="1287.35" x2="758.96" y2="1287.35"/><line class="cls-28" x1="710.75" y1="1344.81" x2="542.02" y2="1545.89"/><line class="cls-1" x1="517.91" y1="1574.61" x2="517.91" y2="1574.61"/><line class="cls-1" x1="1228.19" y1="702.67" x2="1228.19" y2="702.67"/><line class="cls-27" x1="1273.88" y1="643.16" x2="1433.73" y2="434.81"/><line class="cls-1" x1="1456.56" y1="405.05" x2="1456.56" y2="405.05"/><line class="cls-1" x1="771.62" y1="1297.52" x2="771.62" y2="1297.52"/><line class="cls-26" x1="725.99" y1="1357.01" x2="566.25" y2="1565.21"/><line class="cls-1" x1="543.44" y1="1594.95" x2="543.44" y2="1594.95"/><line class="cls-1" x1="1430.27" y1="385.67" x2="1430.27" y2="385.67"/><line class="cls-25" x1="1387.24" y1="447.11" x2="1236.65" y2="662.16"/><line class="cls-1" x1="1215.14" y1="692.88" x2="1215.14" y2="692.88"/><line class="cls-1" x1="784.86" y1="1307.12" x2="784.86" y2="1307.12"/><line class="cls-25" x1="741.84" y1="1368.56" x2="591.24" y2="1583.61"/><line class="cls-1" x1="569.73" y1="1614.33" x2="569.73" y2="1614.33"/><line class="cls-1" x1="1403.02" y1="367.44" x2="1403.02" y2="367.44"/><line class="cls-24" x1="1362.72" y1="430.72" x2="1221.66" y2="652.22"/><line class="cls-1" x1="1201.51" y1="683.86" x2="1201.51" y2="683.86"/><line class="cls-1" x1="798.49" y1="1316.33" x2="798.49" y2="1316.33"/><line class="cls-23" x1="758.19" y1="1379.58" x2="617.13" y2="1600.94"/><line class="cls-1" x1="596.98" y1="1632.56" x2="596.98" y2="1632.56"/><line class="cls-1" x1="1375" y1="350.55" x2="1375" y2="350.55"/><line class="cls-22" x1="1337.5" y1="415.49" x2="1206.25" y2="642.76"/><line class="cls-1" x1="1187.5" y1="675.23" x2="1187.5" y2="675.23"/><line class="cls-1" x1="812.5" y1="1324.77" x2="812.5" y2="1324.77"/><line class="cls-22" x1="775" y1="1389.71" x2="643.75" y2="1616.98"/><line class="cls-1" x1="625" y1="1649.45" x2="625" y2="1649.45"/><line class="cls-1" x1="1346.4" y1="334.82" x2="1346.4" y2="334.82"/><line class="cls-21" x1="1311.75" y1="401.32" x2="1190.44" y2="634.11"/><line class="cls-1" x1="1173.11" y1="667.36" x2="1173.11" y2="667.36"/><line class="cls-1" x1="826.89" y1="1332.64" x2="826.89" y2="1332.64"/><line class="cls-21" x1="792.23" y1="1399.15" x2="670.92" y2="1631.93"/><line class="cls-1" x1="653.6" y1="1665.18" x2="653.6" y2="1665.18"/><line class="cls-1" x1="1317.04" y1="320.42" x2="1317.04" y2="320.42"/><line class="cls-20" x1="1285.34" y1="388.39" x2="1174.37" y2="626.28"/><line class="cls-1" x1="1158.52" y1="660.26" x2="1158.52" y2="660.26"/><line class="cls-1" x1="841.48" y1="1339.93" x2="841.48" y2="1339.93"/><line class="cls-20" x1="809.77" y1="1407.9" x2="698.81" y2="1645.78"/><line class="cls-1" x1="682.96" y1="1679.77" x2="682.96" y2="1679.77"/><line class="cls-1" x1="1287.1" y1="307.18" x2="1287.1" y2="307.18"/><line class="cls-19" x1="1258.39" y1="376.46" x2="1157.91" y2="618.91"/><line class="cls-1" x1="1143.55" y1="653.54" x2="1143.55" y2="653.54"/><line class="cls-1" x1="856.45" y1="1346.46" x2="856.45" y2="1346.46"/><line class="cls-19" x1="827.74" y1="1415.73" x2="727.25" y2="1658.18"/><line class="cls-1" x1="712.9" y1="1692.82" x2="712.9" y2="1692.82"/><line class="cls-1" x1="1256.59" y1="295.29" x2="1256.59" y2="295.29"/><line class="cls-18" x1="1230.91" y1="365.75" x2="1141.04" y2="612.36"/><line class="cls-1" x1="1128.2" y1="647.6" x2="1128.2" y2="647.6"/><line class="cls-1" x1="871.8" y1="1352.41" x2="871.8" y2="1352.41"/><line class="cls-18" x1="846.12" y1="1422.87" x2="756.25" y2="1669.48"/><line class="cls-1" x1="743.41" y1="1704.71" x2="743.41" y2="1704.71"/><line class="cls-1" x1="1225.5" y1="284.73" x2="1225.5" y2="284.73"/><line class="cls-17" x1="1202.97" y1="356.27" x2="1124.11" y2="606.65"/><line class="cls-1" x1="1112.85" y1="642.41" x2="1112.85" y2="642.41"/><line class="cls-1" x1="887.15" y1="1357.59" x2="887.15" y2="1357.59"/><line class="cls-16" x1="864.67" y1="1429.13" x2="785.77" y2="1679.5"/><line class="cls-1" x1="774.5" y1="1715.27" x2="774.5" y2="1715.27"/><line class="cls-1" x1="1194.22" y1="275.71" x2="1194.22" y2="275.71"/><line class="cls-15" x1="1174.8" y1="348.13" x2="1106.82" y2="601.6"/><line class="cls-1" x1="1097.11" y1="637.81" x2="1097.11" y2="637.81"/><line class="cls-1" x1="902.89" y1="1362.19" x2="902.89" y2="1362.19"/><line class="cls-14" x1="883.47" y1="1434.65" x2="815.49" y2="1688.25"/><line class="cls-1" x1="805.78" y1="1724.48" x2="805.78" y2="1724.48"/><line class="cls-1" x1="1162.36" y1="267.85" x2="1162.36" y2="267.85"/><line class="cls-13" x1="1146.12" y1="341.07" x2="1089.3" y2="597.36"/><line class="cls-1" x1="1081.18" y1="633.97" x2="1081.18" y2="633.97"/><line class="cls-1" x1="918.82" y1="1366.03" x2="918.82" y2="1366.03"/><line class="cls-12" x1="902.62" y1="1439.26" x2="845.76" y2="1695.54"/><line class="cls-1" x1="837.64" y1="1732.15" x2="837.64" y2="1732.15"/><line class="cls-1" x1="1065.06" y1="630.9" x2="1065.06" y2="630.9"/><line class="cls-11" x1="1078.08" y1="557.02" x2="1123.78" y2="298.45"/><line class="cls-1" x1="1130.31" y1="261.51" x2="1130.31" y2="261.51"/><line class="cls-1" x1="934.94" y1="1369.29" x2="934.94" y2="1369.29"/><line class="cls-10" x1="921.89" y1="1443.17" x2="876.22" y2="1701.74"/><line class="cls-1" x1="869.69" y1="1738.68" x2="869.69" y2="1738.68"/><line class="cls-1" x1="1048.94" y1="628.41" x2="1048.94" y2="628.41"/><line class="cls-9" x1="1058.71" y1="554.03" x2="1092.98" y2="293.71"/><line class="cls-1" x1="1097.88" y1="256.52" x2="1097.88" y2="256.52"/><line class="cls-1" x1="951.06" y1="1371.79" x2="951.06" y2="1371.79"/><line class="cls-8" x1="941.27" y1="1446.16" x2="907.02" y2="1706.48"/><line class="cls-1" x1="902.12" y1="1743.67" x2="902.12" y2="1743.67"/><line class="cls-1" x1="1032.63" y1="626.68" x2="1032.63" y2="626.68"/><line class="cls-7" x1="1039.18" y1="551.92" x2="1062.16" y2="290.26"/><line class="cls-1" x1="1065.44" y1="252.88" x2="1065.44" y2="252.88"/><line class="cls-1" x1="967.37" y1="1373.51" x2="967.37" y2="1373.51"/><line class="cls-6" x1="960.81" y1="1448.23" x2="937.84" y2="1709.76"/><line class="cls-1" x1="934.56" y1="1747.12" x2="934.56" y2="1747.12"/><line class="cls-1" x1="1016.31" y1="625.72" x2="1016.31" y2="625.72"/><line class="cls-5" x1="1019.56" y1="550.73" x2="1030.99" y2="288.26"/><line class="cls-1" x1="1032.63" y1="250.77" x2="1032.63" y2="250.77"/><line class="cls-1" x1="983.69" y1="1374.47" x2="983.69" y2="1374.47"/><line class="cls-4" x1="980.43" y1="1449.42" x2="969.01" y2="1711.76"/><line class="cls-1" x1="967.37" y1="1749.23" x2="967.37" y2="1749.23"/></svg>