<svg id="Circular_element" data-name="Circular element" xmlns="http://www.w3.org/2000/svg" viewBox="0 0 2000 2000"><defs><style>.cls-1{fill:#fff;}</style></defs><polygon class="cls-1" points="456.12 679.78 397.35 638.63 461.27 671.21 465.73 673.48 460.22 682.65 456.12 679.78"/><polygon class="cls-1" points="467.37 661.65 399.99 612.04 472.81 653.26 477.17 655.73 471.4 664.62 467.37 661.65"/><polygon class="cls-1" points="479.11 643.84 382.09 570.14 484.83 635.64 489.05 638.33 483.09 646.87 479.11 643.84"/><polygon class="cls-1" points="491.33 626.35 399.02 551.04 497.32 618.34 501.45 621.17 495.21 629.51 491.33 626.35"/><polygon class="cls-1" points="504.4 609.47 426.72 540.76 510.65 601.67 514.71 604.61 508.15 612.79 504.4 609.47"/><polygon class="cls-1" points="517.92 592.97 460.96 537.45 524.43 585.38 528.43 588.4 521.5 596.46 517.92 592.97"/><polygon class="cls-1" points="531.88 576.83 477.74 520.28 538.65 569.46 542.55 572.61 535.35 580.44 531.88 576.83"/><polygon class="cls-1" points="546.49 561.26 533.04 541.02 553.5 554.13 557.81 556.89 549.32 565.52 546.49 561.26"/><polygon class="cls-1" points="561.65 546.23 540.46 516.7 568.89 539.34 572.84 542.49 564.59 550.34 561.65 546.23"/><polygon class="cls-1" points="577.2 531.62 540.13 482.4 584.67 524.98 588.3 528.44 580.22 535.63 577.2 531.62"/><polygon class="cls-1" points="593.22 517.51 521.82 423.73 600.91 511.12 604.27 514.83 596.25 521.5 593.22 517.51"/><polygon class="cls-1" points="609.84 504.13 594.69 476.42 617.75 498 621.44 501.46 612.27 508.57 609.84 504.13"/><polygon class="cls-1" points="626.82 491.2 565.12 397.3 634.92 485.35 638.03 489.27 629.57 495.39 626.82 491.2"/><polygon class="cls-1" points="644.14 478.74 603.15 408.83 652.44 473.16 655.48 477.14 646.67 483.06 644.14 478.74"/><polygon class="cls-1" points="662.01 467.09 653.89 444.65 670.5 461.8 674.05 465.47 663.75 471.9 662.01 467.09"/><polygon class="cls-1" points="680.23 456 640.84 377.93 688.88 450.99 691.63 455.18 682.48 460.47 680.23 456"/><polygon class="cls-1" points="698.73 445.4 671.67 384.13 707.55 440.69 710.24 444.92 700.76 449.98 698.73 445.4"/><polygon class="cls-1" points="717.64 435.53 712.25 413.21 726.61 431.12 729.82 435.11 718.84 440.5 717.64 435.53"/><polygon class="cls-1" points="736.9 426.38 732.3 403.99 746.01 422.28 749.09 426.38 737.92 431.4 736.9 426.38"/><polygon class="cls-1" points="756.39 417.76 722.93 322.88 765.64 413.97 767.77 418.5 758.06 422.48 756.39 417.76"/><polygon class="cls-1" points="776.16 409.78 740.96 300.33 785.54 406.3 787.48 410.92 777.69 414.54 776.16 409.78"/><polygon class="cls-1" points="796.26 402.69 774.44 321.13 805.75 399.54 807.61 404.19 797.55 407.53 796.26 402.69"/><polygon class="cls-1" points="816.54 396.13 793.51 300.29 826.13 393.31 827.79 398.03 817.71 401 816.54 396.13"/><polygon class="cls-1" points="836.99 390.13 836.33 367.54 846.68 387.63 849.02 392.19 837.15 395.26 836.99 390.13"/><polygon class="cls-1" points="857.73 385.17 844.87 304.2 867.49 383 868.87 387.82 858.51 390.12 857.73 385.17"/><polygon class="cls-1" points="878.58 380.74 864.23 276.59 888.41 378.91 889.56 383.78 879.26 385.7 878.58 380.74"/><polygon class="cls-1" points="899.55 376.85 898.84 338.87 909.43 375.35 910.84 380.19 899.64 381.89 899.55 376.85"/><polygon class="cls-1" points="920.69 374 914.9 281.76 930.62 372.84 931.47 377.77 921 379 920.69 374"/><polygon class="cls-1" points="941.9 371.73 937.02 252.88 951.87 370.9 952.49 375.86 942.11 376.73 941.9 371.73"/><polygon class="cls-1" points="963.18 369.96 966.9 343.94 973.17 369.46 974.38 374.41 962.46 375 963.18 369.96"/><polygon class="cls-1" points="984.54 369.27 988.59 311.04 994.53 369.11 995.05 374.1 984.19 374.27 984.54 369.27"/><polygon class="cls-1" points="450.71 1310.76 385.75 1341.2 445.85 1302.02 450.05 1299.28 455.25 1308.63 450.71 1310.76"/><polygon class="cls-1" points="440.57 1292 363.97 1325.68 436 1283.11 440.32 1280.56 445.15 1289.99 440.57 1292"/><polygon class="cls-1" points="430.94 1272.98 318.67 1320.32 426.68 1263.93 431.11 1261.62 435.55 1271.04 430.94 1272.98"/><polygon class="cls-1" points="422 1253.62 310.68 1296.05 418.04 1244.44 422.56 1242.27 426.67 1251.84 422 1253.62"/><polygon class="cls-1" points="413.86 1233.92 315.54 1266.92 410.22 1224.61 414.79 1222.57 418.61 1232.33 413.86 1233.92"/><polygon class="cls-1" points="406.25 1214.01 329.7 1235.62 402.94 1204.58 407.55 1202.63 411.07 1212.65 406.25 1214.01"/><polygon class="cls-1" points="399.25 1193.88 323.2 1212.49 396.25 1184.34 400.93 1182.54 404.11 1192.69 399.25 1193.88"/><polygon class="cls-1" points="393.2 1173.44 368.95 1174.96 390.54 1163.8 395.08 1161.45 398.3 1173.12 393.2 1173.44"/><polygon class="cls-1" points="387.7 1152.85 351.52 1156.4 385.36 1143.13 390.06 1141.28 392.72 1152.36 387.7 1152.85"/><polygon class="cls-1" points="382.72 1132.12 321.55 1139.53 380.72 1122.32 385.54 1120.92 387.7 1131.51 382.72 1132.12"/><polygon class="cls-1" points="378.82 1111.15 261.88 1125.9 377.15 1101.29 382.05 1100.25 383.79 1110.53 378.82 1111.15"/><polygon class="cls-1" points="375.46 1090.1 343.89 1089.31 374.13 1080.18 378.98 1078.72 380.52 1090.22 375.46 1090.1"/><polygon class="cls-1" points="372.62 1068.95 260.44 1075.2 371.62 1059 376.57 1058.28 377.62 1068.67 372.62 1068.95"/><polygon class="cls-1" points="370.85 1047.67 289.81 1048.07 370.18 1037.7 375.15 1037.06 375.86 1047.65 370.85 1047.67"/><polygon class="cls-1" points="369.63 1026.36 346.14 1022.14 369.3 1016.36 374.26 1015.13 374.66 1027.26 369.63 1026.36"/><polygon class="cls-1" points="368.9 1005 281.6 1000 368.9 995 373.9 994.71 373.9 1005.29 368.9 1005"/><polygon class="cls-1" points="369.3 983.64 302.71 976.42 369.63 973.64 374.64 973.43 374.28 984.18 369.3 983.64"/><polygon class="cls-1" points="370.18 962.3 348.16 955.82 370.85 952.33 375.91 951.54 375.1 963.75 370.18 962.3"/><polygon class="cls-1" points="371.62 941 349.92 933.79 372.62 931.05 377.71 930.44 376.48 942.62 371.62 941"/><polygon class="cls-1" points="374.13 919.82 275.21 901.43 375.46 909.9 380.45 910.33 379.05 920.73 374.13 919.82"/><polygon class="cls-1" points="377.15 898.71 264.74 874.59 378.82 888.85 383.79 889.47 382.05 899.76 377.15 898.71"/><polygon class="cls-1" points="380.72 877.68 299.16 855.89 382.72 867.88 387.68 868.59 385.56 878.97 380.72 877.68"/><polygon class="cls-1" points="385.36 856.87 290.81 829.01 387.7 847.15 392.62 848.07 390.17 858.29 385.36 856.87"/><polygon class="cls-1" points="390.54 836.2 370.62 825.5 393.2 826.56 398.32 826.8 395.06 838.62 390.54 836.2"/><polygon class="cls-1" points="396.25 815.66 319.67 786.4 399.25 806.12 404.11 807.33 400.93 817.45 396.25 815.66"/><polygon class="cls-1" points="402.94 795.42 305.51 755.88 406.25 785.99 411.05 787.42 407.57 797.3 402.94 795.42"/><polygon class="cls-1" points="410.22 775.39 376.97 757.05 413.86 766.08 418.76 767.28 414.64 777.83 410.22 775.39"/><polygon class="cls-1" points="418.04 755.56 335.24 714.51 422 746.38 426.69 748.1 422.53 757.79 418.04 755.56"/><polygon class="cls-1" points="426.68 736.07 321.29 680.91 430.94 727.02 435.55 728.96 431.11 738.39 426.68 736.07"/><polygon class="cls-1" points="436 716.89 415.33 700.67 440.57 708 445.46 709.42 440.01 720.04 436 716.89"/><polygon class="cls-1" points="445.85 697.98 397.47 665.33 450.71 689.24 455.29 691.3 450.01 700.79 445.85 697.98"/><polygon class="cls-1" points="994.53 1630.89 988.37 1702.37 984.54 1630.73 984.27 1625.73 994.97 1625.9 994.53 1630.89"/><polygon class="cls-1" points="973.17 1630.54 964.04 1713.71 963.18 1630.04 963.13 1625.03 973.72 1625.56 973.17 1630.54"/><polygon class="cls-1" points="951.87 1629.1 936.78 1750 941.9 1628.27 942.11 1623.27 952.49 1624.14 951.87 1629.1"/><polygon class="cls-1" points="930.62 1627.16 911.79 1744.79 920.69 1626 921.06 1621.01 931.41 1622.22 930.62 1627.16"/><polygon class="cls-1" points="909.43 1624.65 888.95 1726.32 899.55 1623.15 900.06 1618.17 910.42 1619.75 909.43 1624.65"/><polygon class="cls-1" points="888.41 1621.09 868.93 1698.21 878.58 1619.26 879.19 1614.28 889.63 1616.23 888.41 1621.09"/><polygon class="cls-1" points="867.49 1617 845.67 1692.19 857.73 1614.83 858.5 1609.88 868.88 1612.19 867.49 1617"/><polygon class="cls-1" points="846.68 1612.37 835.89 1634.14 836.99 1609.87 837.23 1604.76 848.94 1607.79 846.68 1612.37"/><polygon class="cls-1" points="826.13 1606.69 811.16 1639.82 816.54 1603.87 817.28 1598.87 828.21 1602.09 826.13 1606.69"/><polygon class="cls-1" points="805.75 1600.46 781.65 1657.18 796.26 1597.31 797.45 1592.44 807.71 1595.85 805.75 1600.46"/><polygon class="cls-1" points="785.54 1593.7 739.95 1702.39 776.16 1590.22 777.7 1585.46 787.47 1589.08 785.54 1593.7"/><polygon class="cls-1" points="765.64 1586.03 749.2 1612.99 756.39 1582.24 757.54 1577.31 768.28 1581.7 765.64 1586.03"/><polygon class="cls-1" points="746.01 1577.72 695.4 1678.03 736.9 1573.62 738.74 1568.96 748.27 1573.25 746.01 1577.72"/><polygon class="cls-1" points="726.61 1568.88 686.45 1639.27 717.64 1564.47 719.57 1559.85 729.1 1564.53 726.61 1568.88"/><polygon class="cls-1" points="707.55 1559.32 692.15 1577.54 698.73 1554.6 700.14 1549.69 710.85 1555.41 707.55 1559.32"/><polygon class="cls-1" points="688.88 1549.01 640.84 1622.07 680.23 1544 682.48 1539.53 691.63 1544.83 688.88 1549.01"/><polygon class="cls-1" points="670.5 1538.2 630.87 1592.2 662.01 1532.91 664.35 1528.47 673.46 1534.16 670.5 1538.2"/><polygon class="cls-1" points="652.44 1526.84 635.78 1542.64 644.14 1521.26 646 1516.49 656.15 1523.31 652.44 1526.84"/><polygon class="cls-1" points="634.92 1514.65 617.8 1529.8 626.82 1508.8 628.84 1504.09 638.76 1511.26 634.92 1514.65"/><polygon class="cls-1" points="617.75 1502 552.22 1578.35 609.84 1495.87 612.71 1491.77 621.01 1498.2 617.75 1502"/><polygon class="cls-1" points="600.91 1488.88 523.67 1574.04 593.22 1482.49 596.25 1478.5 604.27 1485.17 600.91 1488.88"/><polygon class="cls-1" points="584.67 1475.02 524.94 1534.68 577.2 1468.38 580.3 1464.44 588.22 1471.48 584.67 1475.02"/><polygon class="cls-1" points="568.89 1460.66 497.42 1528.54 561.65 1453.77 564.91 1449.97 572.52 1457.21 568.89 1460.66"/><polygon class="cls-1" points="553.5 1445.87 534.28 1457.76 546.49 1438.74 549.26 1434.42 557.87 1443.17 553.5 1445.87"/><polygon class="cls-1" points="538.65 1430.54 475.02 1482.23 531.88 1423.17 535.36 1419.57 542.54 1427.38 538.65 1430.54"/><polygon class="cls-1" points="524.43 1414.62 441.5 1479.25 517.92 1407.04 521.55 1403.6 528.38 1411.54 524.43 1414.62"/><polygon class="cls-1" points="510.65 1398.33 478.15 1417.98 504.4 1390.53 507.88 1386.88 514.97 1395.72 510.65 1398.33"/><polygon class="cls-1" points="497.32 1381.66 420.43 1432.94 491.33 1373.65 495.17 1370.44 501.49 1378.88 497.32 1381.66"/><polygon class="cls-1" points="484.83 1364.36 384.46 1428.2 479.11 1356.16 483.09 1353.13 489.05 1361.68 484.83 1364.36"/><polygon class="cls-1" points="472.81 1346.74 448.43 1356.57 467.37 1338.35 471.04 1334.82 477.53 1344.83 472.81 1346.74"/><polygon class="cls-1" points="461.27 1328.8 408.85 1354.46 456.12 1320.22 460.18 1317.28 465.78 1326.59 461.27 1328.8"/><polygon class="cls-1" points="1543.88 1320.22 1602.65 1361.37 1538.73 1328.8 1534.27 1326.52 1539.78 1317.35 1543.88 1320.22"/><polygon class="cls-1" points="1532.63 1338.35 1600.01 1387.96 1527.19 1346.74 1522.83 1344.27 1528.6 1335.38 1532.63 1338.35"/><polygon class="cls-1" points="1520.89 1356.16 1617.91 1429.86 1515.17 1364.36 1510.95 1361.67 1516.91 1353.13 1520.89 1356.16"/><polygon class="cls-1" points="1508.67 1373.65 1600.97 1448.96 1502.68 1381.66 1498.55 1378.83 1504.79 1370.49 1508.67 1373.65"/><polygon class="cls-1" points="1495.6 1390.53 1573.28 1459.24 1489.35 1398.33 1485.29 1395.39 1491.85 1387.21 1495.6 1390.53"/><polygon class="cls-1" points="1482.08 1407.04 1539.04 1462.55 1475.57 1414.62 1471.57 1411.6 1478.49 1403.54 1482.08 1407.04"/><polygon class="cls-1" points="1468.12 1423.17 1522.26 1479.72 1461.35 1430.54 1457.45 1427.39 1464.65 1419.56 1468.12 1423.17"/><polygon class="cls-1" points="1453.51 1438.74 1466.96 1458.97 1446.5 1445.87 1442.19 1443.11 1450.68 1434.48 1453.51 1438.74"/><polygon class="cls-1" points="1438.35 1453.77 1459.55 1483.3 1431.11 1460.66 1427.16 1457.51 1435.41 1449.66 1438.35 1453.77"/><polygon class="cls-1" points="1422.8 1468.38 1459.87 1517.6 1415.33 1475.02 1411.7 1471.56 1419.78 1464.37 1422.8 1468.38"/><polygon class="cls-1" points="1406.78 1482.49 1478.18 1576.27 1399.09 1488.88 1395.73 1485.17 1403.75 1478.5 1406.78 1482.49"/><polygon class="cls-1" points="1390.16 1495.87 1405.31 1523.58 1382.25 1502 1378.56 1498.54 1387.73 1491.43 1390.16 1495.87"/><polygon class="cls-1" points="1373.18 1508.8 1434.88 1602.7 1365.08 1514.65 1361.97 1510.73 1370.43 1504.61 1373.18 1508.8"/><polygon class="cls-1" points="1355.86 1521.26 1396.86 1591.17 1347.56 1526.84 1344.52 1522.86 1353.33 1516.94 1355.86 1521.26"/><polygon class="cls-1" points="1337.99 1532.91 1346.11 1555.35 1329.51 1538.2 1325.95 1534.53 1336.25 1528.1 1337.99 1532.91"/><polygon class="cls-1" points="1319.77 1544 1359.16 1622.07 1311.12 1549.01 1308.37 1544.83 1317.52 1539.53 1319.77 1544"/><polygon class="cls-1" points="1301.27 1554.6 1328.33 1615.87 1292.45 1559.32 1289.76 1555.08 1299.24 1550.02 1301.27 1554.6"/><polygon class="cls-1" points="1282.36 1564.47 1287.76 1586.79 1273.39 1568.88 1270.18 1564.89 1281.16 1559.49 1282.36 1564.47"/><polygon class="cls-1" points="1263.1 1573.62 1267.7 1596.01 1253.98 1577.72 1250.91 1573.62 1262.08 1568.6 1263.1 1573.62"/><polygon class="cls-1" points="1243.61 1582.24 1277.07 1677.12 1234.36 1586.03 1232.23 1581.5 1241.94 1577.52 1243.61 1582.24"/><polygon class="cls-1" points="1223.84 1590.22 1259.05 1699.67 1214.46 1593.7 1212.52 1589.08 1222.31 1585.46 1223.84 1590.22"/><polygon class="cls-1" points="1203.74 1597.31 1225.56 1678.87 1194.25 1600.46 1192.39 1595.81 1202.45 1592.47 1203.74 1597.31"/><polygon class="cls-1" points="1183.46 1603.87 1206.49 1699.71 1173.87 1606.69 1172.21 1601.97 1182.29 1599 1183.46 1603.87"/><polygon class="cls-1" points="1163.01 1609.87 1163.67 1632.46 1153.32 1612.37 1150.98 1607.81 1162.86 1604.74 1163.01 1609.87"/><polygon class="cls-1" points="1142.27 1614.83 1155.13 1695.8 1132.51 1617 1131.13 1612.18 1141.49 1609.88 1142.27 1614.83"/><polygon class="cls-1" points="1121.42 1619.26 1135.77 1723.41 1111.59 1621.09 1110.44 1616.22 1120.74 1614.3 1121.42 1619.26"/><polygon class="cls-1" points="1100.45 1623.15 1101.16 1661.13 1090.57 1624.65 1089.16 1619.81 1100.36 1618.11 1100.45 1623.15"/><polygon class="cls-1" points="1079.31 1626 1085.1 1718.24 1069.38 1627.16 1068.53 1622.23 1079 1621 1079.31 1626"/><polygon class="cls-1" points="1058.1 1628.27 1062.98 1747.12 1048.13 1629.1 1047.51 1624.14 1057.89 1623.27 1058.1 1628.27"/><polygon class="cls-1" points="1036.82 1630.04 1033.1 1656.06 1026.83 1630.54 1025.62 1625.59 1037.54 1625 1036.82 1630.04"/><polygon class="cls-1" points="1015.46 1630.73 1011.41 1688.96 1005.47 1630.89 1004.95 1625.9 1015.81 1625.72 1015.46 1630.73"/><polygon class="cls-1" points="1549.29 689.24 1614.26 658.8 1554.15 697.98 1549.95 700.72 1544.75 691.37 1549.29 689.24"/><polygon class="cls-1" points="1559.43 708 1636.03 674.32 1563.99 716.89 1559.68 719.44 1554.85 710.01 1559.43 708"/><polygon class="cls-1" points="1569.06 727.02 1681.33 679.68 1573.32 736.07 1568.89 738.38 1564.45 728.96 1569.06 727.02"/><polygon class="cls-1" points="1578.01 746.38 1689.32 703.95 1581.95 755.56 1577.44 757.73 1573.33 748.16 1578.01 746.38"/><polygon class="cls-1" points="1586.14 766.08 1684.46 733.08 1589.78 775.39 1585.21 777.43 1581.4 767.67 1586.14 766.08"/><polygon class="cls-1" points="1593.75 785.99 1670.3 764.38 1597.06 795.42 1592.45 797.38 1588.93 787.35 1593.75 785.99"/><polygon class="cls-1" points="1600.75 806.12 1676.8 787.51 1603.74 815.66 1599.07 817.46 1595.89 807.31 1600.75 806.12"/><polygon class="cls-1" points="1606.8 826.56 1631.05 825.04 1609.46 836.2 1604.92 838.54 1601.7 826.88 1606.8 826.56"/><polygon class="cls-1" points="1612.3 847.15 1648.48 843.6 1614.64 856.87 1609.94 858.72 1607.28 847.64 1612.3 847.15"/><polygon class="cls-1" points="1617.28 867.88 1678.45 860.47 1619.28 877.68 1614.46 879.08 1612.3 868.49 1617.28 867.88"/><polygon class="cls-1" points="1621.17 888.85 1738.12 874.1 1622.85 898.71 1617.95 899.75 1616.21 889.47 1621.17 888.85"/><polygon class="cls-1" points="1624.54 909.9 1656.11 910.69 1625.87 919.82 1621.03 921.28 1619.47 909.78 1624.54 909.9"/><polygon class="cls-1" points="1627.38 931.05 1739.56 924.8 1628.38 941 1623.43 941.72 1622.38 931.33 1627.38 931.05"/><polygon class="cls-1" points="1629.15 952.33 1710.19 951.93 1629.82 962.3 1624.85 962.95 1624.14 952.35 1629.15 952.33"/><polygon class="cls-1" points="1630.37 973.64 1653.86 977.86 1630.7 983.64 1625.74 984.87 1625.34 972.74 1630.37 973.64"/><polygon class="cls-1" points="1631.1 995 1718.4 1000 1631.1 1005 1626.1 1005.29 1626.1 994.71 1631.1 995"/><polygon class="cls-1" points="1630.7 1016.36 1697.29 1023.58 1630.37 1026.36 1625.36 1026.57 1625.72 1015.82 1630.7 1016.36"/><polygon class="cls-1" points="1629.82 1037.7 1651.84 1044.18 1629.15 1047.67 1624.09 1048.45 1624.9 1036.25 1629.82 1037.7"/><polygon class="cls-1" points="1628.38 1059 1650.08 1066.21 1627.38 1068.95 1622.29 1069.56 1623.52 1057.38 1628.38 1059"/><polygon class="cls-1" points="1625.87 1080.18 1724.79 1098.57 1624.54 1090.1 1619.55 1089.67 1620.95 1079.27 1625.87 1080.18"/><polygon class="cls-1" points="1622.85 1101.29 1735.26 1125.41 1621.17 1111.15 1616.21 1110.53 1617.95 1100.24 1622.85 1101.29"/><polygon class="cls-1" points="1619.28 1122.32 1700.84 1144.11 1617.28 1132.12 1612.32 1131.41 1614.44 1121.03 1619.28 1122.32"/><polygon class="cls-1" points="1614.64 1143.13 1709.19 1170.99 1612.3 1152.85 1607.38 1151.93 1609.84 1141.71 1614.64 1143.13"/><polygon class="cls-1" points="1609.46 1163.8 1629.38 1174.5 1606.8 1173.44 1601.67 1173.2 1604.94 1161.38 1609.46 1163.8"/><polygon class="cls-1" points="1603.74 1184.34 1680.33 1213.6 1600.75 1193.88 1595.89 1192.67 1599.07 1182.55 1603.74 1184.34"/><polygon class="cls-1" points="1597.06 1204.58 1694.48 1244.12 1593.75 1214.01 1588.95 1212.58 1592.43 1202.7 1597.06 1204.58"/><polygon class="cls-1" points="1589.78 1224.61 1623.03 1242.95 1586.14 1233.92 1581.24 1232.72 1585.36 1222.17 1589.78 1224.61"/><polygon class="cls-1" points="1581.95 1244.44 1664.76 1285.49 1578.01 1253.62 1573.31 1251.9 1577.47 1242.21 1581.95 1244.44"/><polygon class="cls-1" points="1573.32 1263.93 1678.71 1319.09 1569.06 1272.98 1564.45 1271.04 1568.89 1261.61 1573.32 1263.93"/><polygon class="cls-1" points="1563.99 1283.11 1584.67 1299.33 1559.43 1292 1554.54 1290.58 1559.99 1279.96 1563.99 1283.11"/><polygon class="cls-1" points="1554.15 1302.02 1602.53 1334.67 1549.29 1310.76 1544.71 1308.7 1549.99 1299.21 1554.15 1302.02"/><polygon class="cls-1" points="1005.47 369.11 1011.63 297.63 1015.46 369.27 1015.73 374.27 1005.03 374.1 1005.47 369.11"/><polygon class="cls-1" points="1026.83 369.46 1035.96 286.29 1036.82 369.96 1036.87 374.97 1026.29 374.44 1026.83 369.46"/><polygon class="cls-1" points="1048.13 370.9 1063.22 250 1058.1 371.73 1057.89 376.73 1047.51 375.86 1048.13 370.9"/><polygon class="cls-1" points="1069.38 372.84 1088.21 255.21 1079.31 374 1078.94 378.99 1068.59 377.78 1069.38 372.84"/><polygon class="cls-1" points="1090.57 375.35 1111.05 273.68 1100.45 376.85 1099.94 381.82 1089.58 380.25 1090.57 375.35"/><polygon class="cls-1" points="1111.59 378.91 1131.07 301.79 1121.42 380.74 1120.81 385.72 1110.36 383.77 1111.59 378.91"/><polygon class="cls-1" points="1132.51 383 1154.32 307.81 1142.27 385.17 1141.5 390.12 1131.12 387.81 1132.51 383"/><polygon class="cls-1" points="1153.32 387.63 1164.11 365.86 1163.01 390.13 1162.77 395.24 1151.06 392.21 1153.32 387.63"/><polygon class="cls-1" points="1173.87 393.31 1188.84 360.18 1183.46 396.13 1182.71 401.13 1171.79 397.91 1173.87 393.31"/><polygon class="cls-1" points="1194.25 399.54 1218.35 342.82 1203.74 402.69 1202.55 407.56 1192.29 404.15 1194.25 399.54"/><polygon class="cls-1" points="1214.46 406.3 1260.05 297.61 1223.84 409.78 1222.3 414.54 1212.53 410.92 1214.46 406.3"/><polygon class="cls-1" points="1234.36 413.97 1250.8 387.01 1243.61 417.76 1242.46 422.69 1231.72 418.3 1234.36 413.97"/><polygon class="cls-1" points="1253.98 422.28 1304.6 321.97 1263.1 426.38 1261.26 431.04 1251.73 426.75 1253.98 422.28"/><polygon class="cls-1" points="1273.39 431.12 1313.55 360.73 1282.36 435.53 1280.43 440.15 1270.9 435.47 1273.39 431.12"/><polygon class="cls-1" points="1292.45 440.69 1307.86 422.46 1301.27 445.4 1299.86 450.31 1289.15 444.59 1292.45 440.69"/><polygon class="cls-1" points="1311.12 450.99 1359.16 377.93 1319.77 456 1317.52 460.47 1308.37 455.18 1311.12 450.99"/><polygon class="cls-1" points="1329.51 461.8 1369.13 407.8 1337.99 467.09 1335.65 471.53 1326.54 465.84 1329.51 461.8"/><polygon class="cls-1" points="1347.56 473.16 1364.22 457.36 1355.86 478.74 1354 483.51 1343.85 476.69 1347.56 473.16"/><polygon class="cls-1" points="1365.08 485.35 1382.2 470.2 1373.18 491.2 1371.16 495.91 1361.24 488.74 1365.08 485.35"/><polygon class="cls-1" points="1382.25 498 1447.78 421.65 1390.16 504.13 1387.29 508.23 1378.99 501.8 1382.25 498"/><polygon class="cls-1" points="1399.09 511.12 1476.33 425.96 1406.78 517.51 1403.75 521.5 1395.72 514.83 1399.09 511.12"/><polygon class="cls-1" points="1415.33 524.98 1475.06 465.32 1422.8 531.62 1419.7 535.56 1411.78 528.52 1415.33 524.98"/><polygon class="cls-1" points="1431.11 539.34 1502.58 471.46 1438.35 546.23 1435.09 550.03 1427.48 542.79 1431.11 539.34"/><polygon class="cls-1" points="1446.5 554.13 1465.72 542.24 1453.51 561.26 1450.73 565.58 1442.13 556.83 1446.5 554.13"/><polygon class="cls-1" points="1461.35 569.46 1524.98 517.77 1468.12 576.83 1464.64 580.43 1457.46 572.62 1461.35 569.46"/><polygon class="cls-1" points="1475.57 585.38 1558.49 520.75 1482.08 592.97 1478.44 596.4 1471.62 588.46 1475.57 585.38"/><polygon class="cls-1" points="1489.35 601.67 1521.85 582.02 1495.6 609.47 1492.12 613.12 1485.03 604.28 1489.35 601.67"/><polygon class="cls-1" points="1502.68 618.34 1579.57 567.06 1508.67 626.35 1504.83 629.56 1498.51 621.12 1502.68 618.34"/><polygon class="cls-1" points="1515.17 635.64 1615.54 571.79 1520.89 643.84 1516.91 646.87 1510.95 638.32 1515.17 635.64"/><polygon class="cls-1" points="1527.19 653.26 1551.57 643.43 1532.63 661.65 1528.96 665.18 1522.47 655.17 1527.19 653.26"/><polygon class="cls-1" points="1538.73 671.21 1591.15 645.54 1543.88 679.78 1539.82 682.72 1534.22 673.41 1538.73 671.21"/></svg>