<svg id="Circular_element" data-name="Circular element" xmlns="http://www.w3.org/2000/svg" viewBox="0 0 2000 2000"><defs><style>.cls-1{fill:#fff;}.cls-2,.cls-3{fill:none;stroke-miterlimit:10;stroke-width:12.5px;}.cls-2{stroke:#dd1920;}.cls-3{stroke:#fff;}</style></defs><path class="cls-1" d="M993.53,1750q-4.9,0-9.81-.14l3.65-176.46c2.57.06,5.14.09,7.72.12Zm49.68-1.21-10.13-176.2c2.57-.14,5.13-.31,7.7-.49L1053,1748.17C1049.75,1748.39,1046.49,1748.6,1043.21,1748.79Zm-109.11-1.61q-5-.43-9.93-.93l17.72-175.6c2.5.25,5,.49,7.53.71Zm168.37-4.13-23.91-174.86q3.75-.51,7.48-1.07l26.31,174.51C1109.06,1742.13,1105.77,1742.61,1102.47,1743.05ZM875,1739.68q-4.93-.84-9.84-1.72l31.5-173.66c2.48.45,5,.89,7.45,1.3Zm286.27-7.08-38-172.37c2.49-.54,5-1.11,7.47-1.69l40.11,171.87Q1166.12,1731.54,1161.29,1732.6Zm-344.65-5.13q-4.87-1.23-9.72-2.51l45.31-170.58c2.42.65,4.84,1.27,7.27,1.88Zm402.33-10-51.52-168.8q3.6-1.1,7.2-2.25l53.94,168Q1223.79,1716,1219,1717.49ZM759.3,1710.6q-4.72-1.59-9.42-3.26L808.73,1541q3.57,1.26,7.17,2.48Zm516.06-12.8-64.75-164.19c2.32-.91,4.64-1.84,6.94-2.79l67.2,163.2Q1280.07,1695.94,1275.36,1697.8Zm-571.8-8.58q-4.48-1.93-8.95-3.93l71.85-161.2c2.34,1,4.68,2.07,7,3.08Zm626.51-15.61-77.79-158.42c2.27-1.12,4.53-2.24,6.78-3.39l80,157.34Q1334.56,1671.41,1330.07,1673.61Zm-680.16-10.06q-4.38-2.31-8.73-4.69l84.52-154.93c2.22,1.2,4.44,2.4,6.67,3.58Zm732.61-18.34-90-151.79q3.23-1.92,6.42-3.88L1391.15,1640Q1386.86,1642.64,1382.52,1645.21ZM598.4,1633.66c-2.78-1.77-5.55-3.54-8.3-5.35l96.45-147.8q3.19,2.09,6.42,4.13Zm834.18-21-101.82-144.15c2-1.44,4.06-2.9,6.08-4.37l103.94,142.64C1438.06,1608.82,1435.33,1610.77,1432.58,1612.71Zm-883.28-13c-2.6-2-5.2-3.94-7.77-5.93L649.42,1454.1c2,1.57,4.09,3.14,6.15,4.69Zm930.61-23.35-113-135.58q2.92-2.44,5.8-4.9l114.81,134.06C1485,1572.08,1482.46,1574.23,1479.91,1576.35Zm-976.67-14.23q-3.74-3.3-7.42-6.65l118.67-130.64q2.81,2.55,5.64,5.05Zm1020.92-25.72-123.37-126.22c1.8-1.77,3.6-3.54,5.38-5.33l125.07,124.53Q1527.72,1532.92,1524.16,1536.4Zm-1064-15.49q-3.44-3.57-6.82-7.15l128.52-121q2.63,2.79,5.29,5.55Zm1104.92-27.82-133-116.06q2.52-2.88,5-5.79l134.43,114.36Q1568.36,1489.35,1565.1,1493.09ZM420.48,1476.41q-3.14-3.81-6.22-7.66L552,1358.34q2.4,3,4.84,6Zm1182-29.69-141.7-105.23c1.51-2,3-4.1,4.51-6.16l143,103.42Q1605.42,1442.74,1602.47,1446.72ZM384.46,1429q-2.82-4-5.61-8.15l146-99.21c1.43,2.11,2.88,4.22,4.34,6.31Zm1251.63-31.47-149.65-93.59c1.35-2.16,2.69-4.32,4-6.5l150.82,91.68Q1638.71,1393.3,1636.09,1397.48ZM352.2,1378.61c-1.65-2.82-3.29-5.67-4.91-8.52l153.44-87.22c1.28,2.24,2.57,4.47,3.87,6.71Zm1313.47-32.83-156.6-81.43q1.77-3.4,3.51-6.84l157.55,79.55Q1667.93,1341.44,1665.67,1345.78ZM324.18,1326.1c-1.46-3-2.9-6-4.32-9.09l159.94-74.65c1.06,2.27,2.14,4.54,3.23,6.79ZM1691,1291.9l-162.56-68.73c1-2.32,2-4.66,2.9-7l163.46,66.58Q1693,1287.35,1691,1291.9ZM300.31,1271.22q-1.81-4.65-3.56-9.35l165.41-61.6c.88,2.38,1.79,4.75,2.7,7.11ZM1712.06,1236l-167.57-55.42,2.4-7.4,168.18,53.54Q1713.6,1231.41,1712.06,1236ZM281,1214.74q-1.41-4.73-2.77-9.49L448,1156.91c.7,2.45,1.41,4.91,2.15,7.36Zm1447.58-36-171.46-41.88q.9-3.66,1.74-7.34l172,39.49Q1729.73,1173.87,1728.54,1178.71ZM266.19,1156.88q-1-4.82-2-9.66l173.08-34.57c.5,2.52,1,5,1.55,7.52Zm1474.19-36.61-174.24-28.13q.6-3.72,1.15-7.46l174.62,25.72Q1741.18,1115.35,1740.38,1120.27ZM256.1,1098.13q-.65-4.94-1.23-9.9l175.31-20.52c.29,2.51.61,5,.93,7.51Zm1491.44-37-175.93-14.31c.21-2.52.39-5,.56-7.57l176.1,12C1748.05,1054.52,1747.8,1057.83,1747.54,1061.14ZM250.71,1038.71c-.17-3.27-.31-6.54-.44-9.81l176.38-6.76c.09,2.58.21,5.15.34,7.72Zm1322.78-37.3v-2.25c0-1.75,0-4.29,0-6.82L1749.94,990c0,3.3.06,6.62.06,9.94ZM426.44,984,250,979.33c.09-3.32.2-6.62.33-9.93l176.37,7.06C426.59,979,426.51,981.49,426.44,984Zm1145.27-29.74q-.3-3.78-.64-7.56l175.76-16.14q.45,4.95.85,9.92ZM429.47,938.56,254,919.86q.53-5,1.12-9.91L430.32,931C430,933.54,429.73,936,429.47,938.56ZM1566.35,909c-.41-2.54-.83-5.08-1.26-7.6l174-29.91c.55,3.24,1.09,6.47,1.6,9.71ZM436.1,893.39,262.6,860.93c.62-3.28,1.25-6.55,1.91-9.81l173,34.86Q436.8,889.67,436.1,893.39Zm1121.29-29c-.59-2.45-1.19-4.89-1.82-7.32l170.94-44q1.24,4.85,2.42,9.7ZM446.26,849,275.94,802.74q1.32-4.83,2.69-9.63l169.66,48.65Q447.26,845.39,446.26,849ZM1544.9,820.52q-1.17-3.57-2.39-7.11l166.84-57.6q1.65,4.79,3.22,9.6Zm-1085-14.81-166-60q1.67-4.62,3.38-9.21l165.28,62Q461.24,802.07,459.92,805.71Zm1069-27.92q-1.48-3.52-3-7l161.8-70.53q2,4.57,3.92,9.16ZM477.09,763.42,316.31,690.6c1.37-3,2.74-6,4.15-9l159.8,74.93Q478.66,760,477.09,763.42Zm1032.47-26.94c-1.16-2.24-2.34-4.48-3.53-6.7l155.57-83.36q2.37,4.41,4.67,8.86ZM497.41,722.94,343.14,637.2c1.57-2.82,3.14-5.64,4.74-8.44l153.37,87.37ZM1487,696.83c-1.34-2.15-2.7-4.29-4.06-6.42L1631.37,595q2.7,4.18,5.34,8.42Zm-965.85-13L373.93,586.42q2.73-4.12,5.51-8.2l145.93,99.27Q523.23,680.66,521.11,683.83Zm940.16-24.75c-1.52-2.06-3-4.1-4.6-6.14l140.55-106.76c2,2.63,4,5.27,5.94,7.92ZM547.8,646.79,408.72,538.13q3.09-4,6.24-7.87l137.5,110.67Q550.11,643.84,547.8,646.79Zm884.9-23.27q-2.52-2.89-5.08-5.76l131.64-117.58q3.29,3.69,6.53,7.41ZM577.31,612l-130-119.36q3.38-3.66,6.79-7.28L582.46,606.47C580.74,608.31,579,610.16,577.31,612Zm824-21.78c-1.8-1.76-3.62-3.52-5.44-5.26L1517.8,457.35q3.6,3.43,7.16,6.93ZM609.41,579.73l-120-129.39q3.63-3.36,7.29-6.68l118.4,130.89Q612.21,577.12,609.41,579.73Zm758.11-20.1c-1.93-1.61-3.87-3.22-5.83-4.81l111.4-136.9q3.87,3.15,7.69,6.35ZM644,550,534.62,411.52q3.84-3,7.72-6L650.15,545.23C648.1,546.81,646.06,548.41,644,550Zm687.38-18.23c-2.06-1.46-4.12-2.9-6.2-4.33l100.24-145.27q4.1,2.83,8.15,5.71ZM681,523.05,582.73,376.44q4.14-2.78,8.32-5.5l96.29,147.92Q684.15,520.93,681,523.05Zm612.19-16.15q-3.26-1.95-6.53-3.84l88.49-152.71q4.29,2.49,8.55,5Zm-573.33-7.7-86.23-154q4.32-2.42,8.67-4.78l84.28,155.06Q723.21,497.32,719.86,499.2Zm533.37-14q-3.37-1.67-6.77-3.28l75.9-159.34q4.5,2.15,9,4.35Zm-492.69-6.69-73.7-160.37q4.51-2.07,9.07-4.09L767.5,475.34Q764,476.89,760.54,478.48Zm451.07-11.81q-3.46-1.38-6.94-2.71L1267.53,299q4.73,1.8,9.41,3.67Zm-409-5.53L742.22,295.3q4.6-1.68,9.22-3.3L810,458.5Zm366.14-9.55c-2.44-.75-4.89-1.49-7.34-2.2L1211.09,280q4.74,1.39,9.46,2.84Zm-322.66-4.42L799,277.08c3.18-.88,6.35-1.74,9.54-2.58l44.94,170.67Q849.78,446.15,846.08,447.17Zm278.56-7.23q-3.67-.81-7.37-1.58l35.86-172.81q4.89,1,9.78,2.1Zm-234.19-3.19L857.09,263.44q4.85-.93,9.72-1.8L898,435.35C895.46,435.81,893,436.27,890.45,436.75Zm189.43-4.87c-2.53-.35-5.08-.69-7.62-1l22.08-175.1c3.27.4,6.52.84,9.77,1.29Zm-144.34-2L916,254.5c3.3-.37,6.6-.71,9.91-1l17.15,175.66C940.57,429.36,938.05,429.63,935.54,429.91Zm98.9-2.54c-2.53-.14-5-.28-7.59-.39l8.05-176.31c3.32.15,6.64.33,9.95.52Zm-53.32-.72-5.72-176.4c3.31-.1,6.62-.19,9.94-.25l3.38,176.46C986.18,426.51,983.66,426.57,981.12,426.65Z"/><ellipse class="cls-2" cx="999.86" cy="999.94" rx="441.26" ry="441.22"/><line class="cls-3" x1="779.23" y1="999.94" x2="1220.49" y2="999.94"/><line class="cls-3" x1="999.86" y1="1220.56" x2="999.86" y2="779.33"/></svg>