<svg id="Circular_element" data-name="Circular element" xmlns="http://www.w3.org/2000/svg" viewBox="0 0 2000 2000"><defs><style>.cls-1{fill:#dd1920;}.cls-2{fill:#fff;}</style></defs><circle class="cls-1" cx="1000" cy="1000" r="7.38"/><circle class="cls-1" cx="1198.73" cy="1371.31" r="7.38" transform="translate(-618.57 1249.28) rotate(-45)"/><circle class="cls-1" cx="1124.91" cy="563.54" r="7.38"/><circle class="cls-1" cx="527.39" cy="770.58" r="7.38"/><circle class="cls-1" cx="569.67" cy="1371.36" r="7.38" transform="translate(-481.43 322.39) rotate(-22.5)"/><circle class="cls-1" cx="1504.14" cy="697.95" r="7.38"/><circle class="cls-1" cx="1597.51" cy="1077.63" r="7.38"/><circle class="cls-1" cx="667.5" cy="448.18" r="7.38" transform="translate(-121.4 603.27) rotate(-45)"/><circle class="cls-1" cx="325.3" cy="1077.63" r="7.38"/><circle class="cls-1" cx="906.68" cy="1678.46" r="7.38" transform="translate(-921.29 1132.73) rotate(-45)"/><circle class="cls-2" cx="1000" cy="1742.62" r="7.38"/><circle class="cls-2" cx="1000" cy="257.38" r="7.38"/><circle class="cls-2" cx="922.37" cy="1000" r="7.38"/><circle class="cls-2" cx="1000" cy="922.37" r="7.38" transform="translate(-70.64 1761.71) rotate(-80.78)"/><circle class="cls-2" cx="1077.63" cy="1000.05" r="7.38"/><circle class="cls-2" cx="1000" cy="1077.63" r="7.38"/><circle class="cls-2" cx="922.82" cy="922.37" r="7.38" transform="translate(-135.46 1685.52) rotate(-80.78)"/><circle class="cls-2" cx="922.82" cy="1077.63" r="7.38"/><circle class="cls-2" cx="1077.18" cy="922.37" r="7.38" transform="matrix(0.16, -0.99, 0.99, 0.16, -5.82, 1837.9)"/><circle class="cls-2" cx="1077.18" cy="1077.63" r="7.38"/><circle class="cls-2" cx="845.58" cy="1000.05" r="7.38"/><circle class="cls-2" cx="1000" cy="845.6" r="7.38"/><circle class="cls-2" cx="1154.39" cy="1000.05" r="7.38"/><circle class="cls-2" cx="1000" cy="1154.42" r="7.38"/><circle class="cls-2" cx="924.06" cy="845.59" r="7.38" transform="translate(-253.25 417.99) rotate(-22.5)"/><circle class="cls-2" cx="846.43" cy="922.42" r="7.38" transform="matrix(0.16, -0.99, 0.99, 0.16, -199.67, 1610.16)"/><circle class="cls-2" cx="846.43" cy="1077.63" r="7.38" transform="translate(-347.96 405.94) rotate(-22.5)"/><circle class="cls-2" cx="1075.95" cy="845.6" r="7.38"/><circle class="cls-2" cx="1153.55" cy="922.42" r="7.38" transform="translate(-314.38 1085.85) rotate(-45)"/><circle class="cls-2" cx="1153.55" cy="1077.68" r="7.38"/><circle class="cls-2" cx="924.06" cy="1154.42" r="7.38"/><circle class="cls-2" cx="1075.95" cy="1154.42" r="7.38"/><circle class="cls-2" cx="848.95" cy="845.58" r="7.38" transform="translate(-169.06 1477.55) rotate(-76.72)"/><circle class="cls-2" cx="1151" cy="845.6" r="7.38"/><circle class="cls-2" cx="848.95" cy="1154.46" r="7.38" transform="translate(-469.68 1715.46) rotate(-76.72)"/><circle class="cls-2" cx="1151" cy="1154.42" r="7.38"/><circle class="cls-2" cx="770.53" cy="1000.05" r="7.38"/><circle class="cls-2" cx="1000" cy="770.53" r="7.38"/><circle class="cls-2" cx="1229.47" cy="1000" r="7.38"/><circle class="cls-2" cx="1000" cy="1229.47" r="7.38"/><circle class="cls-2" cx="771.77" cy="922.42" r="7.38" transform="translate(-426.2 815.89) rotate(-45)"/><circle class="cls-2" cx="771.77" cy="1077.68" r="7.38"/><circle class="cls-2" cx="926.18" cy="770.58" r="7.38"/><circle class="cls-2" cx="1073.82" cy="770.53" r="7.38"/><circle class="cls-2" cx="1228.23" cy="922.37" r="7.38" transform="translate(48.35 1905.83) rotate(-76.72)"/><circle class="cls-2" cx="1228.23" cy="1077.68" r="7.38"/><circle class="cls-2" cx="926.18" cy="1229.52" r="7.38" transform="matrix(0.16, -0.99, 0.99, 0.16, -435.82, 1946.8)"/><circle class="cls-2" cx="1073.82" cy="1229.47" r="7.38"/><circle class="cls-2" cx="853.16" cy="770.53" r="7.38"/><circle class="cls-2" cx="775.53" cy="845.64" r="7.38" transform="translate(-183.42 1475.7) rotate(-80.78)"/><circle class="cls-2" cx="853.16" cy="1229.47" r="7.38"/><circle class="cls-2" cx="1224.47" cy="845.67" r="7.38" transform="translate(-230.41 532.96) rotate(-22.5)"/><circle class="cls-2" cx="775.53" cy="1154.46" r="7.38" transform="translate(-488.25 1735.06) rotate(-80.78)"/><circle class="cls-2" cx="1146.84" cy="770.58" r="7.38"/><circle class="cls-2" cx="1224.47" cy="1154.41" r="7.38"/><circle class="cls-2" cx="1146.84" cy="1229.53" r="7.38"/><circle class="cls-2" cx="697.95" cy="1000" r="7.38" transform="translate(-502.68 786.42) rotate(-45)"/><circle class="cls-2" cx="1000" cy="697.95" r="7.38" transform="translate(-190.97 435.81) rotate(-22.5)"/><circle class="cls-2" cx="1000" cy="1302.05" r="7.38" transform="translate(-422.15 481.79) rotate(-22.5)"/><circle class="cls-2" cx="1302.05" cy="1000.05" r="7.38"/><circle class="cls-2" cx="929.08" cy="697.95" r="7.38"/><circle class="cls-2" cx="699.59" cy="922.37" r="7.38"/><circle class="cls-2" cx="699.59" cy="1077.63" r="7.38" transform="translate(-359.14 349.75) rotate(-22.5)"/><circle class="cls-2" cx="1070.9" cy="698" r="7.38" transform="translate(-185.59 462.95) rotate(-22.5)"/><circle class="cls-2" cx="929.08" cy="1302.05" r="7.38"/><circle class="cls-2" cx="1070.9" cy="1302.1" r="7.38" transform="translate(-416.77 508.93) rotate(-22.5)"/><circle class="cls-2" cx="1300.37" cy="922.42" r="7.38" transform="translate(103.86 1976.07) rotate(-76.72)"/><circle class="cls-2" cx="1300.37" cy="1077.68" r="7.38"/><circle class="cls-2" cx="781.77" cy="770.58" r="7.38"/><circle class="cls-2" cx="781.77" cy="1229.52" r="7.38" transform="matrix(0.16, -0.99, 0.99, 0.16, -557.1, 1804.25)"/><circle class="cls-2" cx="1218.23" cy="770.58" r="7.38"/><circle class="cls-2" cx="1218.23" cy="1229.47" r="7.38"/><circle class="cls-2" cx="858.95" cy="697.95" r="7.38" transform="translate(-201.71 381.83) rotate(-22.5)"/><circle class="cls-2" cx="704.54" cy="845.6" r="7.38"/><circle class="cls-2" cx="704.54" cy="1154.46" r="7.38" transform="translate(-609.98 836.32) rotate(-45)"/><circle class="cls-2" cx="858.95" cy="1302.05" r="7.38" transform="translate(-432.89 427.82) rotate(-22.5)"/><circle class="cls-2" cx="1141.05" cy="698" r="7.38" transform="translate(-180.25 489.79) rotate(-22.5)"/><circle class="cls-2" cx="1295.42" cy="845.65" r="7.38" transform="translate(-225.01 560.1) rotate(-22.5)"/><circle class="cls-2" cx="1141.05" cy="1302.1" r="7.38" transform="translate(-411.43 535.78) rotate(-22.5)"/><circle class="cls-2" cx="1295.42" cy="1154.46" r="7.38" transform="matrix(0.16, -0.99, 0.99, 0.16, -51.64, 2248.23)"/><circle class="cls-2" cx="790.33" cy="698" r="7.38" transform="translate(-70.57 1306.82) rotate(-76.72)"/><circle class="cls-2" cx="1209.62" cy="697.95" r="7.38" transform="translate(-175.02 516.03) rotate(-22.5)"/><circle class="cls-2" cx="712.75" cy="770.53" r="7.38"/><circle class="cls-2" cx="712.75" cy="1229.47" r="7.38"/><circle class="cls-2" cx="790.33" cy="1302.1" r="7.38" transform="translate(-658.51 1772.13) rotate(-76.72)"/><circle class="cls-2" cx="1209.62" cy="1302.05" r="7.38" transform="translate(-406.2 562.01) rotate(-22.5)"/><circle class="cls-2" cx="1287.25" cy="770.53" r="7.38"/><circle class="cls-2" cx="1287.25" cy="1229.47" r="7.38"/><circle class="cls-2" cx="628.69" cy="1000" r="7.38"/><circle class="cls-2" cx="1000" cy="628.69" r="7.38" transform="translate(-164.47 430.54) rotate(-22.5)"/><circle class="cls-2" cx="1000" cy="1371.31" r="7.38" transform="translate(-513.79 2138.74) rotate(-80.78)"/><circle class="cls-2" cx="1371.31" cy="1000" r="7.38"/><circle class="cls-2" cx="630.72" cy="922.37" r="7.38" transform="translate(-411.89 1324.3) rotate(-76.72)"/><circle class="cls-2" cx="630.72" cy="1077.63" r="7.38"/><circle class="cls-2" cx="932.77" cy="628.74" r="7.38"/><circle class="cls-2" cx="1067.23" cy="628.74" r="7.38"/><circle class="cls-2" cx="932.77" cy="1371.36" r="7.38" transform="translate(-453.79 461.34) rotate(-22.5)"/><circle class="cls-2" cx="1067.23" cy="1371.36" r="7.38" transform="translate(-443.56 512.8) rotate(-22.5)"/><circle class="cls-2" cx="1369.28" cy="922.37" r="7.38"/><circle class="cls-2" cx="1369.28" cy="1077.63" r="7.38" transform="translate(-360.94 1283.86) rotate(-45)"/><circle class="cls-2" cx="636.81" cy="845.64" r="7.38" transform="translate(-332.52 1271.12) rotate(-76.72)"/><circle class="cls-2" cx="636.81" cy="1154.46" r="7.38" transform="translate(-633.08 1508.99) rotate(-76.72)"/><circle class="cls-2" cx="866.28" cy="628.69" r="7.38" transform="translate(-190.82 796.69) rotate(-45)"/><circle class="cls-2" cx="1133.72" cy="628.69" r="7.38" transform="translate(261.38 1587.64) rotate(-76.72)"/><circle class="cls-2" cx="866.28" cy="1371.31" r="7.38"/><circle class="cls-2" cx="1133.72" cy="1371.31" r="7.38" transform="translate(-461.38 2159.64) rotate(-76.72)"/><circle class="cls-2" cx="1363.19" cy="845.6" r="7.38"/><circle class="cls-2" cx="1363.19" cy="1154.42" r="7.38"/><circle class="cls-2" cx="724.04" cy="697.95" r="7.38"/><circle class="cls-2" cx="724.04" cy="1302.05" r="7.38"/><circle class="cls-2" cx="1275.91" cy="698" r="7.38" transform="translate(303.44 1779.41) rotate(-76.72)"/><circle class="cls-2" cx="1275.91" cy="1302.05" r="7.38" transform="translate(-284.45 2244.68) rotate(-76.72)"/><circle class="cls-2" cx="646.86" cy="770.58" r="7.38"/><circle class="cls-2" cx="646.86" cy="1229.52" r="7.38" transform="matrix(0.16, -0.99, 0.99, 0.16, -670.4, 1671.08)"/><circle class="cls-2" cx="801.28" cy="628.69" r="7.38" transform="translate(-179.59 354.49) rotate(-22.5)"/><circle class="cls-2" cx="1198.73" cy="628.69" r="7.38" transform="translate(311.45 1650.91) rotate(-76.72)"/><circle class="cls-2" cx="801.28" cy="1371.31" r="7.38" transform="translate(-680.68 1942.58) rotate(-80.78)"/><circle class="cls-2" cx="1353.14" cy="770.53" r="7.38"/><circle class="cls-2" cx="1353.14" cy="1229.54" r="7.38"/><circle class="cls-2" cx="563.49" cy="1000" r="7.38"/><circle class="cls-2" cx="1000" cy="563.5" r="7.38"/><circle class="cls-2" cx="1436.52" cy="1000.05" r="7.38"/><circle class="cls-2" cx="1000" cy="1436.51" r="7.38"/><circle class="cls-2" cx="565.89" cy="922.42" r="7.38" transform="matrix(0.16, -0.99, 0.99, 0.16, -435.27, 1333.24)"/><circle class="cls-2" cx="565.89" cy="1077.68" r="7.38"/><circle class="cls-2" cx="937.17" cy="563.53" r="7.38" transform="translate(-144.32 401.54) rotate(-22.5)"/><circle class="cls-2" cx="937.17" cy="1436.56" r="7.38" transform="translate(-478.41 467.99) rotate(-22.5)"/><circle class="cls-2" cx="1062.78" cy="563.5" r="7.38"/><circle class="cls-2" cx="1434.09" cy="922.37" r="7.38" transform="translate(293.91 2190.19) rotate(-80.78)"/><circle class="cls-2" cx="1434.09" cy="1077.63" r="7.38"/><circle class="cls-2" cx="1062.78" cy="1436.51" r="7.38"/><circle class="cls-2" cx="573.04" cy="845.59" r="7.38"/><circle class="cls-2" cx="875.09" cy="563.53" r="7.38" transform="translate(-142.17 783.84) rotate(-45)"/><circle class="cls-2" cx="573.04" cy="1154.41" r="7.38"/><circle class="cls-2" cx="875.09" cy="1436.56" r="7.38" transform="translate(-759.49 1039.54) rotate(-45)"/><circle class="cls-2" cx="1426.96" cy="845.65" r="7.38" transform="translate(-215 610.44) rotate(-22.5)"/><circle class="cls-2" cx="1124.91" cy="1436.56" r="7.38" transform="translate(-531.67 2201.33) rotate(-76.72)"/><circle class="cls-2" cx="1426.96" cy="1154.46" r="7.38" transform="translate(58.83 2378.07) rotate(-80.78)"/><circle class="cls-2" cx="660.77" cy="698" r="7.38" transform="translate(-216.81 306) rotate(-22.5)"/><circle class="cls-2" cx="660.77" cy="1302.05" r="7.38" transform="translate(-447.97 351.98) rotate(-22.5)"/><circle class="cls-2" cx="738.4" cy="628.69" r="7.38" transform="translate(-0.45 1256.85) rotate(-80.78)"/><circle class="cls-2" cx="738.4" cy="1371.31" r="7.38"/><circle class="cls-2" cx="1261.55" cy="628.74" r="7.38"/><circle class="cls-2" cx="1339.23" cy="698" r="7.38" transform="translate(-165.17 565.63) rotate(-22.5)"/><circle class="cls-2" cx="1339.23" cy="1302.1" r="7.38" transform="translate(-396.35 611.62) rotate(-22.5)"/><circle class="cls-2" cx="1261.55" cy="1371.31" r="7.38" transform="translate(-600.16 1293.7) rotate(-45)"/><circle class="cls-2" cx="814.34" cy="563.53" r="7.38" transform="translate(-153.67 354.53) rotate(-22.5)"/><circle class="cls-2" cx="584.88" cy="770.58" r="7.38"/><circle class="cls-2" cx="584.88" cy="1229.52" r="7.38" transform="translate(-746.13 1516.26) rotate(-76.72)"/><circle class="cls-2" cx="814.34" cy="1436.56" r="7.38" transform="translate(-487.76 420.99) rotate(-22.5)"/><circle class="cls-2" cx="1185.66" cy="563.48" r="7.38"/><circle class="cls-2" cx="1415.13" cy="770.58" r="7.38"/><circle class="cls-2" cx="1415.13" cy="1229.52" r="7.38" transform="translate(-106.63 2324.3) rotate(-76.72)"/><circle class="cls-2" cx="1185.66" cy="1436.51" r="7.38"/><circle class="cls-2" cx="678.45" cy="628.74" r="7.38"/><circle class="cls-2" cx="678.45" cy="1371.31" r="7.38" transform="matrix(0.16, -0.99, 0.99, 0.16, -783.83, 1821.34)"/><circle class="cls-2" cx="1321.56" cy="628.69" r="7.38" transform="translate(-139.99 553.59) rotate(-22.5)"/><circle class="cls-2" cx="1321.56" cy="1371.31" r="7.38" transform="translate(-243.74 2456.14) rotate(-80.78)"/><circle class="cls-2" cx="503.09" cy="1000.05" r="7.38"/><circle class="cls-2" cx="1000" cy="503.09" r="7.38" transform="translate(343.23 1409.59) rotate(-80.78)"/><circle class="cls-2" cx="1000" cy="1496.91" r="7.38"/><circle class="cls-2" cx="1496.92" cy="1000" r="7.38" transform="translate(-268.74 648.96) rotate(-22.5)"/><circle class="cls-2" cx="505.81" cy="922.42" r="7.38" transform="translate(-485.72 1273.94) rotate(-80.78)"/><circle class="cls-2" cx="505.81" cy="1077.63" r="7.38"/><circle class="cls-2" cx="942.32" cy="503.13" r="7.38"/><circle class="cls-2" cx="1057.68" cy="503.08" r="7.38" transform="translate(-45.95 895.24) rotate(-45)"/><circle class="cls-2" cx="755.63" cy="563.54" r="7.38"/><circle class="cls-2" cx="601.21" cy="698" r="7.38" transform="translate(-221.35 283.21) rotate(-22.5)"/><circle class="cls-2" cx="601.21" cy="1302.05" r="7.38" transform="translate(-452.51 329.19) rotate(-22.5)"/><circle class="cls-2" cx="755.63" cy="1436.56" r="7.38" transform="translate(-492.23 398.52) rotate(-22.5)"/><circle class="cls-2" cx="942.32" cy="1496.96" r="7.38"/><circle class="cls-2" cx="1398.74" cy="698" r="7.38" transform="translate(398.05 1898.95) rotate(-76.72)"/><circle class="cls-2" cx="1057.68" cy="1496.91" r="7.38"/><circle class="cls-2" cx="1398.74" cy="1302.1" r="7.38" transform="translate(-189.89 2364.26) rotate(-76.72)"/><circle class="cls-2" cx="1244.37" cy="563.48" r="7.38"/><circle class="cls-2" cx="1494.19" cy="922.37" r="7.38" transform="matrix(0.16, -0.99, 0.99, 0.16, 344.39, 2249.52)"/><circle class="cls-2" cx="1494.19" cy="1077.63" r="7.38"/><circle class="cls-2" cx="1244.37" cy="1436.51" r="7.38"/><circle class="cls-2" cx="513.93" cy="845.6" r="7.38"/><circle class="cls-2" cx="885.24" cy="503.13" r="7.38"/><circle class="cls-2" cx="513.93" cy="1154.42" r="7.38"/><circle class="cls-2" cx="885.24" cy="1496.96" r="7.38"/><circle class="cls-2" cx="1114.76" cy="503.09" r="7.38" transform="translate(439.61 1522.87) rotate(-80.78)"/><circle class="cls-2" cx="1114.76" cy="1496.91" r="7.38"/><circle class="cls-2" cx="1486.05" cy="845.6" r="7.38"/><circle class="cls-2" cx="1486.05" cy="1154.42" r="7.38"/><circle class="cls-2" cx="527.39" cy="1229.52" r="7.38" transform="translate(-714.93 733.04) rotate(-45)"/><circle class="cls-2" cx="829.45" cy="503.09" r="7.38" transform="translate(199.99 1241.24) rotate(-80.78)"/><circle class="cls-2" cx="1170.51" cy="503.13" r="7.38"/><circle class="cls-2" cx="829.45" cy="1496.91" r="7.38"/><circle class="cls-2" cx="1170.51" cy="1496.96" r="7.38"/><circle class="cls-2" cx="1472.61" cy="770.58" r="7.38"/><circle class="cls-2" cx="1472.61" cy="1229.53" r="7.38"/><circle class="cls-2" cx="699.59" cy="563.48" r="7.38"/><circle class="cls-2" cx="699.59" cy="1436.51" r="7.38"/><circle class="cls-2" cx="621.98" cy="628.69" r="7.38" transform="matrix(0.16, -0.99, 0.99, 0.16, -98.22, 1141.93)"/><circle class="cls-2" cx="621.98" cy="1371.31" r="7.38"/><circle class="cls-2" cx="1378.05" cy="628.69" r="7.38" transform="translate(-135.69 575.21) rotate(-22.5)"/><circle class="cls-2" cx="1378.05" cy="1371.31" r="7.38" transform="translate(-196.3 2511.9) rotate(-80.78)"/><circle class="cls-2" cx="1300.37" cy="563.54" r="7.38"/><circle class="cls-2" cx="1300.37" cy="1436.56" r="7.38" transform="translate(-634.93 1340.26) rotate(-45)"/><circle class="cls-2" cx="546.06" cy="697.95" r="7.38" transform="translate(-258.68 1069.05) rotate(-76.72)"/><circle class="cls-2" cx="775.53" cy="503.13" r="7.38"/><circle class="cls-2" cx="546.06" cy="1302.05" r="7.38" transform="translate(-846.62 1534.35) rotate(-76.72)"/><circle class="cls-2" cx="775.53" cy="1496.96" r="7.38"/><circle class="cls-2" cx="1224.47" cy="503.09" r="7.38" transform="translate(531.74 1631.16) rotate(-80.78)"/><circle class="cls-2" cx="1453.94" cy="698" r="7.38" transform="translate(-67.71 1232.53) rotate(-45)"/><circle class="cls-2" cx="1453.94" cy="1302.1" r="7.38" transform="translate(-494.87 1409.47) rotate(-45)"/><circle class="cls-2" cx="1224.47" cy="1496.91" r="7.38"/><circle class="cls-2" cx="448.13" cy="1000" r="7.38" transform="translate(-575.85 609.77) rotate(-45)"/><circle class="cls-2" cx="1000" cy="448.13" r="7.38" transform="translate(-95.37 416.79) rotate(-22.5)"/><circle class="cls-2" cx="1000" cy="1551.87" r="7.38" transform="translate(-517.75 500.81) rotate(-22.5)"/><circle class="cls-2" cx="1551.87" cy="1000.05" r="7.38"/><circle class="cls-2" cx="451.15" cy="922.37" r="7.38" transform="matrix(0.16, -0.99, 0.99, 0.16, -531.58, 1219.95)"/><circle class="cls-2" cx="451.15" cy="1077.63" r="7.38"/><circle class="cls-2" cx="948.07" cy="448.13" r="7.38" transform="translate(-99.33 396.92) rotate(-22.5)"/><circle class="cls-2" cx="948.07" cy="1551.92" r="7.38" transform="translate(-521.72 480.94) rotate(-22.5)"/><circle class="cls-2" cx="1051.94" cy="448.13" r="7.38" transform="translate(-91.42 436.67) rotate(-22.5)"/><circle class="cls-2" cx="1051.94" cy="1551.87" r="7.38" transform="translate(-513.8 520.69) rotate(-22.5)"/><circle class="cls-2" cx="1548.85" cy="922.37" r="7.38" transform="translate(390.29 2303.47) rotate(-80.78)"/><circle class="cls-2" cx="1548.85" cy="1077.63" r="7.38"/><circle class="cls-2" cx="460.16" cy="845.67" r="7.38" transform="translate(-288.59 240.47) rotate(-22.5)"/><circle class="cls-2" cx="460.16" cy="1154.46" r="7.38" transform="translate(-753.11 1423.76) rotate(-80.78)"/><circle class="cls-2" cx="896.68" cy="448.18" r="7.38" transform="translate(-103.25 377.26) rotate(-22.5)"/><circle class="cls-2" cx="896.68" cy="1551.87" r="7.38"/><circle class="cls-2" cx="1103.3" cy="448.13" r="7.38" transform="translate(413.67 1418.96) rotate(-76.72)"/><circle class="cls-2" cx="646.86" cy="563.55" r="7.38" transform="translate(-13.03 1111.79) rotate(-80.78)"/><circle class="cls-2" cx="646.86" cy="1436.56" r="7.38" transform="translate(-500.51 356.89) rotate(-22.5)"/><circle class="cls-2" cx="1103.3" cy="1551.87" r="7.38"/><circle class="cls-2" cx="1353.14" cy="563.49" r="7.38" transform="translate(-112.63 560.72) rotate(-22.5)"/><circle class="cls-2" cx="1353.14" cy="1436.51" r="7.38"/><circle class="cls-2" cx="1539.84" cy="845.65" r="7.38" transform="translate(-206.4 653.64) rotate(-22.5)"/><circle class="cls-2" cx="1539.84" cy="1154.42" r="7.38"/><circle class="cls-2" cx="724.04" cy="503.08" r="7.38" transform="translate(-137.41 315.37) rotate(-22.5)"/><circle class="cls-2" cx="569.67" cy="628.74" r="7.38"/><circle class="cls-2" cx="724.04" cy="1496.91" r="7.38"/><circle class="cls-2" cx="1275.91" cy="503.13" r="7.38"/><circle class="cls-2" cx="1430.33" cy="628.74" r="7.38"/><circle class="cls-2" cx="1275.91" cy="1496.96" r="7.38"/><circle class="cls-2" cx="1430.33" cy="1371.36" r="7.38" transform="translate(-232.97 2448.35) rotate(-76.72)"/><circle class="cls-2" cx="475.14" cy="770.53" r="7.38"/><circle class="cls-2" cx="475.14" cy="1229.47" r="7.38"/><circle class="cls-2" cx="846.43" cy="448.13" r="7.38"/><circle class="cls-2" cx="846.43" cy="1551.87" r="7.38"/><circle class="cls-2" cx="1153.55" cy="448.18" r="7.38" transform="translate(452.33 1467.9) rotate(-76.72)"/><circle class="cls-2" cx="1153.55" cy="1551.92" r="7.38" transform="translate(-621.88 2318.05) rotate(-76.72)"/><circle class="cls-2" cx="1524.84" cy="770.53" r="7.38"/><circle class="cls-2" cx="1524.84" cy="1229.52" r="7.38" transform="translate(-422.79 1438.34) rotate(-45)"/><circle class="cls-2" cx="495.86" cy="698" r="7.38" transform="translate(-229.37 242.89) rotate(-22.5)"/><circle class="cls-2" cx="495.86" cy="1302.05" r="7.38"/><circle class="cls-2" cx="797.91" cy="448.13" r="7.38"/><circle class="cls-2" cx="797.91" cy="1551.87" r="7.38" transform="translate(-895.77 1971.89) rotate(-76.72)"/><circle class="cls-2" cx="1202.09" cy="448.13" r="7.38"/><circle class="cls-2" cx="1202.09" cy="1551.87" r="7.38"/><circle class="cls-2" cx="1504.14" cy="1302.05" r="7.38"/><circle class="cls-2" cx="597.99" cy="563.49" r="7.38" transform="translate(-223.3 587.89) rotate(-45)"/><circle class="cls-2" cx="597.99" cy="1436.51" r="7.38"/><circle class="cls-2" cx="675.62" cy="503.13" r="7.38"/><circle class="cls-2" cx="1324.38" cy="503.13" r="7.38"/><circle class="cls-2" cx="675.62" cy="1496.91" r="7.38"/><circle class="cls-2" cx="1324.38" cy="1496.96" r="7.38"/><circle class="cls-2" cx="1402.01" cy="563.48" r="7.38"/><circle class="cls-2" cx="1402.01" cy="1436.56" r="7.38" transform="translate(-318.24 2471.01) rotate(-76.72)"/><circle class="cls-2" cx="1000" cy="399.22" r="7.38"/><circle class="cls-2" cx="399.22" cy="1000.05" r="7.38"/><circle class="cls-2" cx="1000" cy="1600.78" r="7.38" transform="translate(-536.47 504.53) rotate(-22.5)"/><circle class="cls-2" cx="1600.78" cy="1000" r="7.38" transform="translate(259.75 2328.21) rotate(-76.72)"/><circle class="cls-2" cx="954.35" cy="399.22" r="7.38"/><circle class="cls-2" cx="402.49" cy="922.42" r="7.38" transform="matrix(0.16, -0.99, 0.99, 0.16, -572.49, 1171.95)"/><circle class="cls-2" cx="402.49" cy="1077.68" r="7.38"/><circle class="cls-2" cx="954.35" cy="1600.78" r="7.38" transform="translate(-822.87 2161.83) rotate(-76.72)"/><circle class="cls-2" cx="1045.6" cy="399.27" r="7.38" transform="translate(484 1367.41) rotate(-80.78)"/><circle class="cls-2" cx="1045.6" cy="1600.83" r="7.38"/><circle class="cls-2" cx="1597.51" cy="922.37" r="7.38" transform="translate(431.16 2351.51) rotate(-80.78)"/><circle class="cls-2" cx="522.05" cy="628.74" r="7.38"/><circle class="cls-2" cx="522.05" cy="1371.36" r="7.38" transform="translate(-816.79 770.81) rotate(-45)"/><circle class="cls-2" cx="751.54" cy="448.13" r="7.38"/><circle class="cls-2" cx="751.54" cy="1551.87" r="7.38"/><circle class="cls-2" cx="1248.43" cy="448.13" r="7.38"/><circle class="cls-2" cx="1248.43" cy="1551.92" r="7.38" transform="translate(-498.86 595.89) rotate(-22.5)"/><circle class="cls-2" cx="1477.95" cy="628.69" r="7.38" transform="translate(526.52 1922.66) rotate(-76.72)"/><circle class="cls-2" cx="1477.95" cy="1371.36" r="7.38" transform="translate(-196.28 2494.7) rotate(-76.72)"/><circle class="cls-2" cx="909.25" cy="399.27" r="7.38" transform="translate(369.5 1232.82) rotate(-80.78)"/><circle class="cls-2" cx="412.34" cy="845.6" r="7.38"/><circle class="cls-2" cx="909.25" cy="1600.83" r="7.38"/><circle class="cls-2" cx="1090.75" cy="399.27" r="7.38" transform="translate(37.15 888.22) rotate(-45)"/><circle class="cls-2" cx="412.34" cy="1154.41" r="7.38"/><circle class="cls-2" cx="1090.75" cy="1600.83" r="7.38"/><circle class="cls-2" cx="1587.66" cy="845.59" r="7.38" transform="translate(399.93 2196.5) rotate(-76.72)"/><circle class="cls-2" cx="1587.66" cy="1154.46" r="7.38" transform="translate(-351.31 1460.78) rotate(-45)"/><circle class="cls-2" cx="865.09" cy="399.22" r="7.38"/><circle class="cls-2" cx="865.09" cy="1600.78" r="7.38" transform="translate(-546.74 452.91) rotate(-22.5)"/><circle class="cls-2" cx="1134.89" cy="399.22" r="7.38"/><circle class="cls-2" cx="428.63" cy="770.53" r="7.38"/><circle class="cls-2" cx="428.63" cy="1229.47" r="7.38"/><circle class="cls-2" cx="1134.89" cy="1600.78" r="7.38" transform="translate(-683.82 2337.53) rotate(-76.72)"/><circle class="cls-2" cx="1571.38" cy="770.53" r="7.38"/><circle class="cls-2" cx="1571.38" cy="1229.54" r="7.38"/><circle class="cls-2" cx="630.72" cy="503.09" r="7.38" transform="translate(-3.82 1001.35) rotate(-76.72)"/><circle class="cls-2" cx="630.72" cy="1496.91" r="7.38"/><circle class="cls-2" cx="1369.28" cy="503.08" r="7.38" transform="translate(45.32 1115.58) rotate(-45)"/><circle class="cls-2" cx="1369.28" cy="1496.91" r="7.38"/><circle class="cls-2" cx="553.54" cy="563.5" r="7.38" transform="translate(-122.06 972.76) rotate(-76.72)"/><circle class="cls-2" cx="553.54" cy="1436.51" r="7.38"/><circle class="cls-2" cx="707.9" cy="448.18" r="7.38" transform="translate(-109.57 631.83) rotate(-45)"/><circle class="cls-2" cx="707.9" cy="1551.87" r="7.38" transform="translate(-890 955.09) rotate(-45)"/><circle class="cls-2" cx="1292.1" cy="448.18" r="7.38" transform="translate(559.05 1602.74) rotate(-76.72)"/><circle class="cls-2" cx="1292.1" cy="1551.92" r="7.38" transform="translate(-515.16 2452.9) rotate(-76.72)"/><circle class="cls-2" cx="1446.47" cy="563.49" r="7.38" transform="translate(658.56 1901.02) rotate(-80.78)"/><circle class="cls-2" cx="1446.47" cy="1436.56" r="7.38" transform="translate(-439.64 662.89) rotate(-22.5)"/><circle class="cls-2" cx="822.46" cy="399.27" r="7.38" transform="translate(244.92 1107.99) rotate(-76.72)"/><circle class="cls-2" cx="451.15" cy="697.95" r="7.38" transform="translate(-232.75 225.78) rotate(-22.5)"/><circle class="cls-2" cx="822.46" cy="1600.84" r="7.38" transform="translate(-924.52 2033.5) rotate(-76.72)"/><circle class="cls-2" cx="451.15" cy="1302.05" r="7.38" transform="translate(-463.93 271.76) rotate(-22.5)"/><circle class="cls-2" cx="1177.54" cy="399.22" r="7.38"/><circle class="cls-2" cx="1548.85" cy="697.95" r="7.38" transform="translate(-149.19 645.85) rotate(-22.5)"/><circle class="cls-2" cx="1177.54" cy="1600.84" r="7.38" transform="translate(-651.02 2379.08) rotate(-76.72)"/><circle class="cls-2" cx="1548.85" cy="1302.05" r="7.38" transform="translate(-380.37 691.83) rotate(-22.5)"/><circle class="cls-2" cx="781.77" cy="399.27" r="7.38" transform="translate(262.43 1106.98) rotate(-80.78)"/><circle class="cls-2" cx="781.77" cy="1600.83" r="7.38"/><circle class="cls-2" cx="479.72" cy="628.69" r="7.38" transform="translate(-304.04 523.35) rotate(-45)"/><circle class="cls-2" cx="479.72" cy="1371.31" r="7.38"/><circle class="cls-2" cx="1520.31" cy="628.74" r="7.38"/><circle class="cls-2" cx="1218.23" cy="399.27" r="7.38" transform="translate(628.98 1537.81) rotate(-80.78)"/><circle class="cls-2" cx="1218.23" cy="1600.78" r="7.38" transform="translate(-557.02 2546.87) rotate(-80.78)"/><circle class="cls-2" cx="1520.31" cy="1371.36" r="7.38" transform="translate(-163.66 2535.93) rotate(-76.72)"/><circle class="cls-2" cx="356.89" cy="1000" r="7.38"/><circle class="cls-2" cx="1000" cy="356.89" r="7.38" transform="translate(487.54 1286.81) rotate(-80.78)"/><circle class="cls-2" cx="1000" cy="1643.12" r="7.38"/><circle class="cls-2" cx="1643.11" cy="1000.05" r="7.38"/><circle class="cls-2" cx="589.87" cy="503.08" r="7.38" transform="translate(-35.28 961.59) rotate(-76.72)"/><circle class="cls-2" cx="589.87" cy="1496.91" r="7.38"/><circle class="cls-2" cx="961.19" cy="356.89" r="7.38" transform="translate(454.94 1248.5) rotate(-80.78)"/><circle class="cls-2" cx="360.4" cy="922.37" r="7.38" transform="translate(-620.1 1061.21) rotate(-76.72)"/><circle class="cls-2" cx="360.4" cy="1077.63" r="7.38"/><circle class="cls-2" cx="667.5" cy="1551.92" r="7.38" transform="translate(-901.86 926.54) rotate(-45)"/><circle class="cls-2" cx="1038.82" cy="356.94" r="7.38" transform="translate(520.09 1325.16) rotate(-80.78)"/><circle class="cls-2" cx="961.19" cy="1643.17" r="7.38"/><circle class="cls-2" cx="1332.5" cy="448.13" r="7.38"/><circle class="cls-2" cx="1410.13" cy="503.13" r="7.38"/><circle class="cls-2" cx="1332.5" cy="1551.87" r="7.38"/><circle class="cls-2" cx="1038.82" cy="1643.16" r="7.38"/><circle class="cls-2" cx="1639.6" cy="922.42" r="7.38" transform="translate(-172.02 1429.54) rotate(-45)"/><circle class="cls-2" cx="1639.6" cy="1077.63" r="7.38"/><circle class="cls-2" cx="1410.13" cy="1496.96" r="7.38"/><circle class="cls-2" cx="922.82" cy="356.89" r="7.38" transform="translate(422.72 1210.62) rotate(-80.78)"/><circle class="cls-2" cx="370.95" cy="845.58" r="7.38" transform="translate(-489.27 509.97) rotate(-45)"/><circle class="cls-2" cx="370.95" cy="1154.41" r="7.38"/><circle class="cls-2" cx="1077.18" cy="356.89" r="7.38" transform="translate(552.36 1363) rotate(-80.78)"/><circle class="cls-2" cx="922.82" cy="1643.11" r="7.38"/><circle class="cls-2" cx="1077.18" cy="1643.11" r="7.38"/><circle class="cls-2" cx="1629.05" cy="845.62" r="7.38"/><circle class="cls-2" cx="1629.05" cy="1154.41" r="7.38"/><circle class="cls-2" cx="885.24" cy="356.94" r="7.38" transform="matrix(0.16, -0.99, 0.99, 0.16, 391.11, 1173.57)"/><circle class="cls-2" cx="388.33" cy="770.53" r="7.38" transform="translate(-434.45 1030.41) rotate(-80.78)"/><circle class="cls-2" cx="388.33" cy="1229.47" r="7.38"/><circle class="cls-2" cx="1114.76" cy="356.89" r="7.38" transform="translate(583.92 1400.09) rotate(-80.78)"/><circle class="cls-2" cx="743.4" cy="399.27" r="7.38" transform="translate(230.21 1069.11) rotate(-80.78)"/><circle class="cls-2" cx="707.9" cy="399.22" r="7.38"/><circle class="cls-2" cx="707.9" cy="1600.84" r="7.38" transform="translate(-1012.76 1922) rotate(-76.72)"/><circle class="cls-2" cx="743.4" cy="1600.83" r="7.38"/><circle class="cls-2" cx="513.93" cy="563.49" r="7.38" transform="translate(-247.92 528.44) rotate(-45)"/><circle class="cls-2" cx="513.93" cy="1436.51" r="7.38"/><circle class="cls-2" cx="1292.1" cy="399.27" r="7.38" transform="translate(96.12 1030.59) rotate(-45)"/><circle class="cls-2" cx="1256.55" cy="399.22" r="7.38"/><circle class="cls-2" cx="1256.55" cy="1600.78" r="7.38" transform="translate(-590.1 2455.93) rotate(-76.72)"/><circle class="cls-2" cx="1292.1" cy="1600.83" r="7.38"/><circle class="cls-2" cx="885.24" cy="1643.18" r="7.38" transform="translate(-878.52 2253.78) rotate(-80.78)"/><circle class="cls-2" cx="1486.05" cy="563.49" r="7.38" transform="translate(691.8 1940.09) rotate(-80.78)"/><circle class="cls-2" cx="1486.05" cy="1436.56" r="7.38" transform="translate(-436.63 678.04) rotate(-22.5)"/><circle class="cls-2" cx="1114.76" cy="1643.11" r="7.38"/><circle class="cls-2" cx="1611.63" cy="770.58" r="7.38"/><circle class="cls-2" cx="1611.63" cy="1229.53" r="7.38"/><circle class="cls-2" cx="412.49" cy="698" r="7.38" transform="translate(-361.61 939.08) rotate(-76.72)"/><circle class="cls-2" cx="848.95" cy="356.89" r="7.38"/><circle class="cls-2" cx="412.49" cy="1302.1" r="7.38" transform="translate(-949.55 1404.39) rotate(-76.72)"/><circle class="cls-2" cx="1151" cy="356.89" r="7.38" transform="translate(614.35 1435.86) rotate(-80.78)"/><circle class="cls-2" cx="848.95" cy="1643.11" r="7.38" transform="translate(-945.25 2091.84) rotate(-76.72)"/><circle class="cls-2" cx="1587.52" cy="697.95" r="7.38" transform="translate(-28.55 1326.97) rotate(-45)"/><circle class="cls-2" cx="1151" cy="1643.12" r="7.38" transform="translate(-541.18 565.54) rotate(-22.5)"/><circle class="cls-2" cx="1587.52" cy="1302.05" r="7.38" transform="translate(-455.72 1503.91) rotate(-45)"/><circle class="cls-2" cx="630.72" cy="448.13" r="7.38" transform="translate(-132.14 577.24) rotate(-45)"/><circle class="cls-2" cx="630.72" cy="1551.87" r="7.38" transform="translate(-912.6 900.52) rotate(-45)"/><circle class="cls-2" cx="1369.28" cy="448.13" r="7.38"/><circle class="cls-2" cx="1369.28" cy="1551.87" r="7.38"/><circle class="cls-2" cx="675.62" cy="399.27" r="7.38" transform="translate(173.29 1002.21) rotate(-80.78)"/><circle class="cls-2" cx="675.62" cy="1600.83" r="7.38"/><circle class="cls-2" cx="553.54" cy="503.09" r="7.38" transform="translate(-193.61 538.76) rotate(-45)"/><circle class="cls-2" cx="553.54" cy="1496.91" r="7.38"/><circle class="cls-2" cx="1446.47" cy="503.09" r="7.38" transform="translate(718.18 1850.29) rotate(-80.78)"/><circle class="cls-2" cx="1324.38" cy="399.27" r="7.38" transform="translate(718.13 1642.59) rotate(-80.78)"/><circle class="cls-2" cx="1446.47" cy="1496.96" r="7.38"/><circle class="cls-2" cx="1324.38" cy="1600.84" r="7.38" transform="matrix(0.16, -0.99, 0.99, 0.16, -467.93, 2651.69)"/><circle class="cls-2" cx="814.34" cy="356.94" r="7.38" transform="matrix(0.16, -0.99, 0.99, 0.16, 331.57, 1103.59)"/><circle class="cls-2" cx="781.77" cy="356.94" r="7.38" transform="matrix(0.16, -0.99, 0.99, 0.16, 304.22, 1071.44)"/><circle class="cls-2" cx="443.03" cy="628.74" r="7.38"/><circle class="cls-2" cx="443.03" cy="1371.36" r="7.38" transform="translate(-839.94 714.93) rotate(-45)"/><circle class="cls-2" cx="1218.23" cy="356.94" r="7.38" transform="translate(670.77 1502.26) rotate(-80.78)"/><circle class="cls-2" cx="1185.66" cy="356.89" r="7.38"/><circle class="cls-2" cx="781.77" cy="1643.2" r="7.38" transform="translate(-569.32 424.25) rotate(-22.5)"/><circle class="cls-2" cx="814.34" cy="1643.18" r="7.38" transform="translate(-938.06 2183.8) rotate(-80.78)"/><circle class="cls-2" cx="1556.97" cy="628.74" r="7.38"/><circle class="cls-2" cx="1185.66" cy="1643.11" r="7.38" transform="matrix(0.16, -0.99, 0.99, 0.16, -626.16, 2550.26)"/><circle class="cls-2" cx="1218.23" cy="1643.18" r="7.38" transform="translate(-598.87 2582.47) rotate(-80.78)"/><circle class="cls-2" cx="1556.97" cy="1371.36" r="7.38" transform="translate(-135.42 2571.61) rotate(-76.72)"/><circle class="cls-2" cx="321.59" cy="1000" r="7.38"/><circle class="cls-2" cx="1000" cy="321.59" r="7.38" transform="translate(-46.95 407.16) rotate(-22.5)"/><circle class="cls-2" cx="1000" cy="1678.41" r="7.38" transform="translate(-566.18 510.44) rotate(-22.5)"/><circle class="cls-2" cx="1678.41" cy="1000" r="7.38"/><circle class="cls-2" cx="325.3" cy="922.37" r="7.38" transform="matrix(0.16, -0.99, 0.99, 0.16, -637.27, 1095.73)"/><circle class="cls-2" cx="751.54" cy="356.89" r="7.38"/><circle class="cls-2" cx="479.72" cy="563.48" r="7.38"/><circle class="cls-2" cx="479.72" cy="1436.51" r="7.38"/><circle class="cls-2" cx="1248.43" cy="356.89" r="7.38" transform="translate(696.18 1532.03) rotate(-80.78)"/><circle class="cls-2" cx="968.41" cy="321.59" r="7.38" transform="translate(-49.35 395.07) rotate(-22.5)"/><circle class="cls-2" cx="1031.59" cy="321.64" r="7.38" transform="translate(-44.56 419.25) rotate(-22.5)"/><circle class="cls-2" cx="751.54" cy="1643.11" r="7.38" transform="translate(-990.73 2121.75) rotate(-80.78)"/><circle class="cls-2" cx="968.41" cy="1678.41" r="7.38" transform="translate(-568.58 498.36) rotate(-22.5)"/><circle class="cls-2" cx="1248.43" cy="1643.17" r="7.38"/><circle class="cls-2" cx="1031.59" cy="1678.46" r="7.38" transform="translate(-563.79 522.54) rotate(-22.5)"/><circle class="cls-2" cx="1520.31" cy="563.54" r="7.38"/><circle class="cls-2" cx="1520.31" cy="1436.56" r="7.38" transform="translate(-227.12 2586.15) rotate(-76.72)"/><circle class="cls-2" cx="1674.7" cy="922.37" r="7.38" transform="translate(-161.71 1454.35) rotate(-45)"/><circle class="cls-2" cx="1674.7" cy="1077.63" r="7.38"/><circle class="cls-2" cx="336.39" cy="845.59" r="7.38"/><circle class="cls-2" cx="336.39" cy="1154.42" r="7.38"/><circle class="cls-2" cx="937.17" cy="321.64" r="7.38" transform="translate(-51.75 383.12) rotate(-22.5)"/><circle class="cls-2" cx="1062.78" cy="321.59" r="7.38" transform="translate(505.62 1282.05) rotate(-76.72)"/><circle class="cls-2" cx="937.17" cy="1678.46" r="7.38" transform="translate(-570.98 486.4) rotate(-22.5)"/><circle class="cls-2" cx="1062.78" cy="1678.41" r="7.38" transform="translate(-814.91 2327.14) rotate(-76.72)"/><circle class="cls-2" cx="1663.56" cy="845.67" r="7.38"/><circle class="cls-2" cx="1663.56" cy="1154.46" r="7.38" transform="matrix(0.16, -0.99, 0.99, 0.16, 257.53, 2611.62)"/><circle class="cls-2" cx="646.86" cy="399.27" r="7.38" transform="translate(149.13 973.82) rotate(-80.78)"/><circle class="cls-2" cx="597.99" cy="448.13" r="7.38"/><circle class="cls-2" cx="597.99" cy="1551.87" r="7.38"/><circle class="cls-2" cx="646.86" cy="1600.83" r="7.38"/><circle class="cls-2" cx="1402.01" cy="448.18" r="7.38" transform="translate(643.7 1709.71) rotate(-76.72)"/><circle class="cls-2" cx="1402.01" cy="1551.92" r="7.38" transform="translate(-430.51 2559.86) rotate(-76.72)"/><circle class="cls-2" cx="1353.14" cy="399.22" r="7.38"/><circle class="cls-2" cx="1353.14" cy="1600.78" r="7.38" transform="translate(-509.59 639.68) rotate(-22.5)"/><circle class="cls-2" cx="354.76" cy="770.53" r="7.38"/><circle class="cls-2" cx="354.76" cy="1229.52" r="7.38" transform="translate(-923.38 1292.3) rotate(-76.72)"/><circle class="cls-2" cx="906.68" cy="321.64" r="7.38" transform="translate(38.13 735.32) rotate(-45)"/><circle class="cls-2" cx="877.15" cy="321.64" r="7.38" transform="translate(362.59 1101.42) rotate(-76.72)"/><circle class="cls-2" cx="1122.88" cy="321.59" r="7.38" transform="translate(101.49 888.19) rotate(-45)"/><circle class="cls-2" cx="1093.32" cy="321.64" r="7.38" transform="translate(92.8 867.3) rotate(-45)"/><circle class="cls-2" cx="877.15" cy="1678.41" r="7.38"/><circle class="cls-2" cx="1093.32" cy="1678.46" r="7.38" transform="translate(-866.62 1264.71) rotate(-45)"/><circle class="cls-2" cx="1122.88" cy="1678.46" r="7.38" transform="translate(-857.97 1285.61) rotate(-45)"/><circle class="cls-2" cx="1645.24" cy="770.53" r="7.38"/><circle class="cls-2" cx="1645.24" cy="1229.52" r="7.38" transform="translate(70.61 2548.26) rotate(-76.72)"/><circle class="cls-2" cx="380.26" cy="697.95" r="7.38" transform="translate(-386.39 907.68) rotate(-76.72)"/><circle class="cls-2" cx="380.26" cy="1302.1" r="7.38" transform="translate(-974.37 1373.02) rotate(-76.72)"/><circle class="cls-2" cx="724.04" cy="356.89" r="7.38"/><circle class="cls-2" cx="569.67" cy="448.18" r="7.38" transform="translate(-128.15 252.12) rotate(-22.5)"/><circle class="cls-2" cx="522.05" cy="503.13" r="7.38"/><circle class="cls-2" cx="522.05" cy="1496.96" r="7.38"/><circle class="cls-2" cx="569.67" cy="1551.92" r="7.38" transform="translate(-550.53 336.14) rotate(-22.5)"/><circle class="cls-2" cx="848.95" cy="321.59" r="7.38"/><circle class="cls-2" cx="1275.91" cy="356.89" r="7.38" transform="translate(121.35 1006.73) rotate(-45)"/><circle class="cls-2" cx="724.04" cy="1643.12" r="7.38" transform="translate(-573.68 402.15) rotate(-22.5)"/><circle class="cls-2" cx="1151" cy="321.64" r="7.38" transform="translate(-35.47 464.95) rotate(-22.5)"/><circle class="cls-2" cx="848.95" cy="1678.46" r="7.38" transform="translate(-938.2 1091.91) rotate(-45)"/><circle class="cls-2" cx="1477.95" cy="503.13" r="7.38"/><circle class="cls-2" cx="1430.33" cy="448.18" r="7.38" transform="translate(665.52 1737.27) rotate(-76.72)"/><circle class="cls-2" cx="1430.33" cy="1551.92" r="7.38" transform="translate(-408.69 2587.43) rotate(-76.72)"/><circle class="cls-2" cx="1477.95" cy="1496.96" r="7.38"/><circle class="cls-2" cx="1275.91" cy="1643.12" r="7.38" transform="translate(-616.4 2507.39) rotate(-76.72)"/><circle class="cls-2" cx="1151" cy="1678.46" r="7.38" transform="translate(-554.7 568.23) rotate(-22.5)"/><circle class="cls-2" cx="1619.75" cy="698" r="7.38" transform="translate(-143.82 672.98) rotate(-22.5)"/><circle class="cls-2" cx="1619.75" cy="1302.1" r="7.38" transform="translate(-374.99 718.96) rotate(-22.5)"/><circle class="cls-2" cx="412.49" cy="628.74" r="7.38"/><circle class="cls-2" cx="412.49" cy="1371.36" r="7.38" transform="translate(-1016.96 1457.74) rotate(-76.72)"/><circle class="cls-2" cx="822.46" cy="321.64" r="7.38" transform="translate(13.46 675.77) rotate(-45)"/><circle class="cls-2" cx="822.46" cy="1678.46" r="7.38" transform="translate(-945.96 1073.18) rotate(-45)"/><circle class="cls-2" cx="1177.54" cy="321.64" r="7.38" transform="translate(117.46 926.85) rotate(-45)"/><circle class="cls-2" cx="1177.54" cy="1678.46" r="7.38" transform="translate(-841.96 1324.25) rotate(-45)"/><circle class="cls-2" cx="1587.52" cy="628.69" r="7.38" transform="translate(20.42 1306.68) rotate(-45)"/><circle class="cls-2" cx="1587.52" cy="1371.31" r="7.38" transform="translate(-111.85 2601.3) rotate(-76.72)"/><circle class="cls-2" cx="699.59" cy="356.89" r="7.38"/><circle class="cls-2" cx="621.98" cy="399.27" r="7.38" transform="translate(128.24 949.26) rotate(-80.78)"/><circle class="cls-2" cx="621.98" cy="1600.78" r="7.38" transform="matrix(0.16, -0.99, 0.99, 0.16, -1057.76, 1958.31)"/><circle class="cls-2" cx="699.59" cy="1643.12" r="7.38" transform="translate(-575.54 392.79) rotate(-22.5)"/><circle class="cls-2" cx="1300.37" cy="356.94" r="7.38" transform="translate(654.22 1540.51) rotate(-76.72)"/><circle class="cls-2" cx="1378.05" cy="399.22" r="7.38"/><circle class="cls-2" cx="1378.05" cy="1600.78" r="7.38" transform="translate(-507.69 649.21) rotate(-22.5)"/><circle class="cls-2" cx="1300.37" cy="1643.18" r="7.38" transform="translate(-597.62 2531.23) rotate(-76.72)"/><circle class="cls-2" cx="451.15" cy="563.49" r="7.38" transform="translate(-181.29 215.54) rotate(-22.5)"/><circle class="cls-2" cx="451.15" cy="1436.51" r="7.38"/><circle class="cls-2" cx="797.91" cy="321.59" r="7.38"/><circle class="cls-2" cx="1202.09" cy="321.59" r="7.38" transform="translate(124.69 944.2) rotate(-45)"/><circle class="cls-2" cx="797.91" cy="1678.41" r="7.38" transform="translate(-1018.93 2069.36) rotate(-76.72)"/><circle class="cls-2" cx="1202.09" cy="1678.41" r="7.38" transform="translate(-834.73 1341.6) rotate(-45)"/><circle class="cls-2" cx="1548.85" cy="563.49" r="7.38" transform="translate(744.54 2002.08) rotate(-80.78)"/><circle class="cls-2" cx="1548.85" cy="1436.51" r="7.38"/><circle class="cls-2" cx="293.72" cy="1000.05" r="7.38"/><circle class="cls-2" cx="1000" cy="293.71" r="7.38" transform="translate(-36.28 405.04) rotate(-22.5)"/><circle class="cls-2" cx="1000" cy="1706.28" r="7.38"/><circle class="cls-2" cx="1706.29" cy="1000" r="7.38"/><circle class="cls-2" cx="297.58" cy="922.42" r="7.38" transform="translate(-668.53 1000.11) rotate(-76.72)"/><circle class="cls-2" cx="297.58" cy="1077.68" r="7.38"/><circle class="cls-2" cx="975.99" cy="293.71" r="7.38"/><circle class="cls-2" cx="975.99" cy="1706.28" r="7.38" transform="translate(-864.6 2396.35) rotate(-80.78)"/><circle class="cls-2" cx="1023.96" cy="293.76" r="7.38" transform="translate(92.19 810.09) rotate(-45)"/><circle class="cls-2" cx="1023.96" cy="1706.33" r="7.38"/><circle class="cls-2" cx="1702.43" cy="922.37" r="7.38" transform="translate(413.59 2367.34) rotate(-76.72)"/><circle class="cls-2" cx="1702.43" cy="1077.63" r="7.38"/><circle class="cls-2" cx="546.06" cy="448.13" r="7.38" transform="translate(-15.54 876.62) rotate(-76.72)"/><circle class="cls-2" cx="495.86" cy="503.13" r="7.38"/><circle class="cls-2" cx="495.86" cy="1496.91" r="7.38"/><circle class="cls-2" cx="546.06" cy="1551.87" r="7.38" transform="translate(-1089.75 1726.78) rotate(-76.72)"/><circle class="cls-2" cx="775.53" cy="321.64" r="7.38" transform="translate(-64.05 321.26) rotate(-22.5)"/><circle class="cls-2" cx="309.16" cy="845.64" r="7.38" transform="translate(-575.08 1015.35) rotate(-80.78)"/><circle class="cls-2" cx="309.16" cy="1154.46" r="7.38" transform="translate(-879.92 1274.71) rotate(-80.78)"/><circle class="cls-2" cx="775.53" cy="1678.46" r="7.38" transform="translate(-583.28 424.55) rotate(-22.5)"/><circle class="cls-2" cx="952.28" cy="293.72" r="7.38" transform="matrix(0.16, -0.99, 0.99, 0.16, 509.81, 1186.65)"/><circle class="cls-2" cx="929.08" cy="293.71" r="7.38"/><circle class="cls-2" cx="929.08" cy="1706.28" r="7.38" transform="translate(-945.02 2218.48) rotate(-76.72)"/><circle class="cls-2" cx="952.28" cy="1706.28" r="7.38"/><circle class="cls-2" cx="1224.47" cy="321.64" r="7.38" transform="translate(-29.88 493.07) rotate(-22.5)"/><circle class="cls-2" cx="1070.9" cy="293.76" r="7.38" transform="translate(609.39 1303.78) rotate(-80.78)"/><circle class="cls-2" cx="1047.73" cy="293.71" r="7.38"/><circle class="cls-2" cx="1047.73" cy="1706.28" r="7.38" transform="translate(-899.65 1240.61) rotate(-45)"/><circle class="cls-2" cx="1070.9" cy="1706.33" r="7.38"/><circle class="cls-2" cx="1690.84" cy="845.64" r="7.38" transform="translate(585.27 2379.19) rotate(-80.78)"/><circle class="cls-2" cx="1224.47" cy="1678.41" r="7.38"/><circle class="cls-2" cx="1690.84" cy="1154.46" r="7.38" transform="translate(280.44 2638.54) rotate(-80.78)"/><circle class="cls-2" cx="1504.14" cy="503.09" r="7.38" transform="translate(766.62 1907.22) rotate(-80.78)"/><circle class="cls-2" cx="1453.94" cy="448.18" r="7.38" transform="translate(108.94 1159.36) rotate(-45)"/><circle class="cls-2" cx="1453.94" cy="1551.92" r="7.38" transform="translate(-671.52 1482.64) rotate(-45)"/><circle class="cls-2" cx="1504.14" cy="1496.91" r="7.38"/><circle class="cls-2" cx="678.45" cy="356.94" r="7.38" transform="matrix(0.16, -0.99, 0.99, 0.16, 217.44, 969.45)"/><circle class="cls-2" cx="328.27" cy="770.53" r="7.38" transform="translate(-497.06 912.99) rotate(-76.72)"/><circle class="cls-2" cx="328.27" cy="1229.47" r="7.38"/><circle class="cls-2" cx="906.68" cy="293.76" r="7.38" transform="translate(412.46 1108.69) rotate(-76.72)"/><circle class="cls-2" cx="906.68" cy="1706.33" r="7.38"/><circle class="cls-2" cx="1093.32" cy="293.77" r="7.38" transform="translate(556.21 1290.35) rotate(-76.72)"/><circle class="cls-2" cx="678.45" cy="1643.16" r="7.38"/><circle class="cls-2" cx="1093.32" cy="1706.33" r="7.38"/><circle class="cls-2" cx="1321.56" cy="356.89" r="7.38" transform="translate(757.59 1604.21) rotate(-80.78)"/><circle class="cls-2" cx="1321.56" cy="1643.12" r="7.38"/><circle class="cls-2" cx="1671.68" cy="770.58" r="7.38"/><circle class="cls-2" cx="1671.68" cy="1229.52" r="7.38" transform="translate(190.26 2682.67) rotate(-80.78)"/><circle class="cls-2" cx="354.76" cy="697.95" r="7.38" transform="translate(-389.62 455.28) rotate(-45)"/><circle class="cls-2" cx="354.76" cy="1302.05" r="7.38" transform="translate(-816.78 632.22) rotate(-45)"/><circle class="cls-2" cx="885.24" cy="293.72" r="7.38" transform="matrix(0.16, -0.99, 0.99, 0.16, 453.51, 1120.49)"/><circle class="cls-2" cx="885.24" cy="1706.28" r="7.38"/><circle class="cls-2" cx="1114.76" cy="293.71" r="7.38" transform="translate(-27.54 448.96) rotate(-22.5)"/><circle class="cls-2" cx="1114.76" cy="1706.28" r="7.38"/><circle class="cls-2" cx="1645.24" cy="698" r="7.38" transform="translate(-11.68 1367.8) rotate(-45)"/><circle class="cls-2" cx="1645.24" cy="1302.1" r="7.38" transform="translate(-438.84 1544.74) rotate(-45)"/><circle class="cls-2" cx="601.21" cy="399.22" r="7.38"/><circle class="cls-2" cx="601.21" cy="1600.83" r="7.38"/><circle class="cls-2" cx="755.63" cy="321.64" r="7.38" transform="translate(-65.57 313.65) rotate(-22.5)"/><circle class="cls-2" cx="755.63" cy="1678.46" r="7.38" transform="translate(-584.8 416.93) rotate(-22.5)"/><circle class="cls-2" cx="1244.37" cy="321.59" r="7.38"/><circle class="cls-2" cx="1244.37" cy="1678.41" r="7.38" transform="translate(-547.58 603.96) rotate(-22.5)"/><circle class="cls-2" cx="1398.74" cy="399.27" r="7.38" transform="translate(127.36 1106) rotate(-45)"/><circle class="cls-2" cx="1398.74" cy="1600.84" r="7.38" transform="translate(-722.28 1457.93) rotate(-45)"/><circle class="cls-2" cx="388.33" cy="628.69" r="7.38" transform="matrix(0.16, -0.99, 0.99, 0.16, -294.45, 911.29)"/><circle class="cls-2" cx="865.09" cy="293.71" r="7.38" transform="translate(-46.55 353.41) rotate(-22.5)"/><circle class="cls-2" cx="388.33" cy="1371.31" r="7.38"/><circle class="cls-2" cx="865.09" cy="1706.28" r="7.38" transform="translate(-957.73 2286.89) rotate(-80.78)"/><circle class="cls-2" cx="1134.89" cy="293.71" r="7.38" transform="translate(588.29 1330.76) rotate(-76.72)"/><circle class="cls-2" cx="1134.89" cy="1706.28" r="7.38" transform="translate(-874.12 1302.24) rotate(-45)"/><circle class="cls-2" cx="1611.63" cy="628.74" r="7.38"/><circle class="cls-2" cx="1611.63" cy="1371.36" r="7.38" transform="translate(-497.66 1541.25) rotate(-45)"/><circle class="cls-2" cx="428.63" cy="563.49" r="7.38" transform="translate(-183.01 206.92) rotate(-22.5)"/><circle class="cls-2" cx="428.63" cy="1436.51" r="7.38"/><circle class="cls-2" cx="846.43" cy="293.71" r="7.38"/><circle class="cls-2" cx="846.43" cy="1706.33" r="7.38"/><circle class="cls-2" cx="1153.55" cy="293.77" r="7.38" transform="translate(130.14 901.73) rotate(-45)"/><circle class="cls-2" cx="1153.55" cy="1706.33" r="7.38"/><circle class="cls-2" cx="1571.38" cy="563.53" r="7.38" transform="translate(-96.04 644.23) rotate(-22.5)"/><circle class="cls-2" cx="1571.38" cy="1436.51" r="7.38"/><circle class="cls-2" cx="660.77" cy="356.94" r="7.38" transform="matrix(0.16, -0.99, 0.99, 0.16, 202.6, 952)"/><circle class="cls-2" cx="660.77" cy="1643.12" r="7.38"/><circle class="cls-2" cx="738.4" cy="321.59" r="7.38"/><circle class="cls-2" cx="1261.55" cy="321.64" r="7.38" transform="translate(658.68 1475.54) rotate(-76.72)"/><circle class="cls-2" cx="738.4" cy="1678.41" r="7.38"/><circle class="cls-2" cx="1261.55" cy="1678.41" r="7.38" transform="translate(-661.8 2520.6) rotate(-76.72)"/><circle class="cls-2" cx="1339.23" cy="356.89" r="7.38" transform="translate(772.43 1621.66) rotate(-80.78)"/><circle class="cls-2" cx="1339.23" cy="1643.17" r="7.38"/><circle class="cls-2" cx="527.39" cy="448.18" r="7.38" transform="translate(-29.96 858.5) rotate(-76.72)"/><circle class="cls-2" cx="475.14" cy="503.09" r="7.38" transform="translate(-97.56 891.5) rotate(-80.78)"/><circle class="cls-2" cx="829.45" cy="293.71" r="7.38" transform="translate(-49.26 339.77) rotate(-22.5)"/><circle class="cls-2" cx="475.14" cy="1496.91" r="7.38"/><circle class="cls-2" cx="527.39" cy="1551.92" r="7.38" transform="translate(-1104.18 1708.65) rotate(-76.72)"/><circle class="cls-2" cx="829.45" cy="1706.28" r="7.38"/><circle class="cls-2" cx="1170.51" cy="293.76" r="7.38" transform="translate(615.67 1365.46) rotate(-76.72)"/><circle class="cls-2" cx="1524.84" cy="503.13" r="7.38"/><circle class="cls-2" cx="1472.61" cy="448.18" r="7.38" transform="translate(114.41 1172.56) rotate(-45)"/><circle class="cls-2" cx="1170.51" cy="1706.33" r="7.38"/><circle class="cls-2" cx="1472.61" cy="1551.92" r="7.38" transform="translate(-666.05 1495.84) rotate(-45)"/><circle class="cls-2" cx="1524.84" cy="1496.91" r="7.38"/><circle class="cls-2" cx="273.62" cy="1000" r="7.38"/><circle class="cls-2" cx="1000" cy="273.61" r="7.38"/><circle class="cls-2" cx="1000" cy="1726.39" r="7.38" transform="translate(-864.28 2436.94) rotate(-80.78)"/><circle class="cls-2" cx="1726.39" cy="1000" r="7.38"/><circle class="cls-2" cx="277.58" cy="922.42" r="7.38" transform="translate(-570.95 466.45) rotate(-45)"/><circle class="cls-2" cx="277.58" cy="1077.63" r="7.38"/><circle class="cls-2" cx="983.86" cy="273.66" r="7.38"/><circle class="cls-2" cx="967.87" cy="273.61" r="7.38"/><circle class="cls-2" cx="1032.08" cy="273.66" r="7.38"/><circle class="cls-2" cx="1016.14" cy="273.66" r="7.38"/><circle class="cls-2" cx="814.34" cy="293.76" r="7.38" transform="matrix(0.16, -0.99, 0.99, 0.16, 393.93, 1050.54)"/><circle class="cls-2" cx="814.34" cy="1706.33" r="7.38"/><circle class="cls-2" cx="584.88" cy="399.27" r="7.38" transform="translate(61.91 876.76) rotate(-76.72)"/><circle class="cls-2" cx="584.88" cy="1600.83" r="7.38"/><circle class="cls-2" cx="967.87" cy="1726.38" r="7.38"/><circle class="cls-2" cx="983.86" cy="1726.44" r="7.38"/><circle class="cls-2" cx="1016.14" cy="1726.43" r="7.38" transform="translate(-897.57 2318.74) rotate(-76.72)"/><circle class="cls-2" cx="1032.08" cy="1726.43" r="7.38" transform="translate(-885.29 2334.25) rotate(-76.72)"/><circle class="cls-2" cx="1415.13" cy="399.27" r="7.38" transform="translate(701.41 1684.8) rotate(-76.72)"/><circle class="cls-2" cx="1415.13" cy="1600.78" r="7.38" transform="translate(-717.44 1469.5) rotate(-45)"/><circle class="cls-2" cx="1185.66" cy="293.71" r="7.38"/><circle class="cls-2" cx="1185.66" cy="1706.28" r="7.38" transform="translate(-688.52 2603.31) rotate(-80.78)"/><circle class="cls-2" cx="1722.43" cy="922.37" r="7.38" transform="matrix(0.16, -0.99, 0.99, 0.16, 536.06, 2474.81)"/><circle class="cls-2" cx="1722.43" cy="1077.63" r="7.38"/><circle class="cls-2" cx="289.46" cy="845.65" r="7.38" transform="translate(-600.07 933.08) rotate(-76.72)"/><circle class="cls-2" cx="289.46" cy="1154.46" r="7.38" transform="translate(-731.55 542.81) rotate(-45)"/><circle class="cls-2" cx="952.28" cy="273.61" r="7.38"/><circle class="cls-2" cx="1047.73" cy="273.61" r="7.38" transform="translate(113.4 820.99) rotate(-45)"/><circle class="cls-2" cx="724.04" cy="321.59" r="7.38" transform="translate(-67.95 301.56) rotate(-22.5)"/><circle class="cls-2" cx="724.04" cy="1678.41" r="7.38"/><circle class="cls-2" cx="952.28" cy="1726.39" r="7.38" transform="matrix(0.16, -0.99, 0.99, 0.16, -904.36, 2389.83)"/><circle class="cls-2" cx="1047.73" cy="1726.38" r="7.38"/><circle class="cls-2" cx="1275.91" cy="321.64" r="7.38" transform="translate(669.74 1489.52) rotate(-76.72)"/><circle class="cls-2" cx="1275.91" cy="1678.41" r="7.38" transform="translate(-650.75 2534.57) rotate(-76.72)"/><circle class="cls-2" cx="1710.54" cy="845.67" r="7.38" transform="translate(-96.97 1457.23) rotate(-45)"/><circle class="cls-2" cx="1710.54" cy="1154.46" r="7.38" transform="translate(193.96 2554) rotate(-76.72)"/><circle class="cls-2" cx="309.16" cy="770.58" r="7.38"/><circle class="cls-2" cx="309.16" cy="1229.53" r="7.38"/><circle class="cls-2" cx="937.17" cy="273.66" r="7.38"/><circle class="cls-2" cx="1062.78" cy="273.61" r="7.38"/><circle class="cls-2" cx="937.17" cy="1726.43" r="7.38" transform="matrix(0.16, -0.99, 0.99, 0.16, -917.09, 2374.96)"/><circle class="cls-2" cx="1062.78" cy="1726.39" r="7.38" transform="translate(-909.46 1257.14) rotate(-45)"/><circle class="cls-2" cx="1690.84" cy="770.58" r="7.38"/><circle class="cls-2" cx="1690.84" cy="1229.54" r="7.38"/><circle class="cls-2" cx="336.39" cy="697.95" r="7.38"/><circle class="cls-2" cx="336.39" cy="1302.05" r="7.38" transform="translate(-822.16 619.23) rotate(-45)"/><circle class="cls-2" cx="922.82" cy="273.61" r="7.38"/><circle class="cls-2" cx="1077.18" cy="273.61" r="7.38"/><circle class="cls-2" cx="922.82" cy="1726.39" r="7.38" transform="translate(-929.09 2360.75) rotate(-80.78)"/><circle class="cls-2" cx="1077.18" cy="1726.39" r="7.38" transform="matrix(0.16, -0.99, 0.99, 0.16, -799.45, 2513.12)"/><circle class="cls-2" cx="1663.56" cy="698" r="7.38" transform="translate(-140.48 689.75) rotate(-22.5)"/><circle class="cls-2" cx="1663.56" cy="1302.1" r="7.38" transform="translate(-371.66 735.73) rotate(-22.5)"/><circle class="cls-2" cx="646.86" cy="356.94" r="7.38" transform="matrix(0.16, -0.99, 0.99, 0.16, 190.92, 938.27)"/><circle class="cls-2" cx="646.86" cy="1643.18" r="7.38" transform="translate(-1078.72 2018.48) rotate(-80.78)"/><circle class="cls-2" cx="801.28" cy="293.72" r="7.38" transform="translate(382.99 1037.6) rotate(-80.78)"/><circle class="cls-2" cx="801.28" cy="1706.28" r="7.38"/><circle class="cls-2" cx="1198.73" cy="293.71" r="7.38" transform="translate(637.46 1392.89) rotate(-76.72)"/><circle class="cls-2" cx="1198.73" cy="1706.28" r="7.38"/><circle class="cls-2" cx="1353.14" cy="356.89" r="7.38" transform="translate(784.11 1635.39) rotate(-80.78)"/><circle class="cls-2" cx="1353.14" cy="1643.12" r="7.38"/><circle class="cls-2" cx="370.95" cy="628.74" r="7.38"/><circle class="cls-2" cx="370.95" cy="1371.31" r="7.38"/><circle class="cls-2" cx="909.25" cy="273.66" r="7.38"/><circle class="cls-2" cx="1090.75" cy="273.61" r="7.38"/><circle class="cls-2" cx="909.25" cy="1726.43" r="7.38" transform="translate(-940.53 2347.4) rotate(-80.78)"/><circle class="cls-2" cx="1090.75" cy="1726.39" r="7.38" transform="translate(-901.27 1276.92) rotate(-45)"/><circle class="cls-2" cx="1629.05" cy="628.69" r="7.38" transform="translate(642.9 2069.72) rotate(-76.72)"/><circle class="cls-2" cx="1629.05" cy="1371.31" r="7.38"/><circle class="cls-2" cx="412.34" cy="563.48" r="7.38"/><circle class="cls-2" cx="412.34" cy="1436.51" r="7.38"/><circle class="cls-2" cx="896.68" cy="273.66" r="7.38"/><circle class="cls-2" cx="1103.3" cy="273.61" r="7.38"/><circle class="cls-2" cx="896.68" cy="1726.43" r="7.38" transform="matrix(0.16, -0.99, 0.99, 0.16, -951.09, 2334.99)"/><circle class="cls-2" cx="1103.3" cy="1726.39" r="7.38" transform="translate(-897.59 1285.8) rotate(-45)"/><circle class="cls-2" cx="1587.66" cy="563.54" r="7.38"/><circle class="cls-2" cx="1587.66" cy="1436.56" r="7.38" transform="translate(-175.24 2651.7) rotate(-76.72)"/><circle class="cls-2" cx="513.93" cy="448.13" r="7.38" transform="translate(-40.29 845.35) rotate(-76.72)"/><circle class="cls-2" cx="460.16" cy="503.09" r="7.38" transform="translate(-110.14 876.72) rotate(-80.78)"/><circle class="cls-2" cx="460.16" cy="1496.91" r="7.38"/><circle class="cls-2" cx="513.93" cy="1551.87" r="7.38" transform="translate(-1114.5 1695.51) rotate(-76.72)"/><circle class="cls-2" cx="885.24" cy="273.61" r="7.38"/><circle class="cls-2" cx="1114.76" cy="273.61" r="7.38"/><circle class="cls-2" cx="712.75" cy="321.59" r="7.38" transform="translate(-18.64 598.18) rotate(-45)"/><circle class="cls-2" cx="885.24" cy="1726.43" r="7.38" transform="matrix(0.16, -0.99, 0.99, 0.16, -960.7, 2323.7)"/><circle class="cls-2" cx="790.33" cy="293.76" r="7.38" transform="translate(23.76 644.89) rotate(-45)"/><circle class="cls-2" cx="790.33" cy="1706.33" r="7.38"/><circle class="cls-2" cx="712.75" cy="1678.41" r="7.38" transform="translate(-978.06 995.59) rotate(-45)"/><circle class="cls-2" cx="1287.25" cy="321.59" r="7.38" transform="translate(678.51 1500.52) rotate(-76.72)"/><circle class="cls-2" cx="1114.76" cy="1726.39" r="7.38" transform="matrix(0.16, -0.99, 0.99, 0.16, -767.9, 2550.21)"/><circle class="cls-2" cx="1209.62" cy="293.71" r="7.38" transform="translate(-20.32 485.26) rotate(-22.5)"/><circle class="cls-2" cx="1209.62" cy="1706.28" r="7.38"/><circle class="cls-2" cx="1287.25" cy="1678.41" r="7.38" transform="translate(-642.01 2545.61) rotate(-76.72)"/><circle class="cls-2" cx="1539.84" cy="503.09" r="7.38" transform="translate(796.59 1942.45) rotate(-80.78)"/><circle class="cls-2" cx="1486.05" cy="448.13" r="7.38" transform="translate(-58.37 602.8) rotate(-22.5)"/><circle class="cls-2" cx="1486.05" cy="1551.87" r="7.38" transform="translate(-480.75 686.81) rotate(-22.5)"/><circle class="cls-2" cx="1539.84" cy="1496.96" r="7.38"/><circle class="cls-2" cx="573.04" cy="399.22" r="7.38"/><circle class="cls-2" cx="573.04" cy="1600.78" r="7.38" transform="matrix(0.16, -0.99, 0.99, 0.16, -1098.86, 1910.01)"/><circle class="cls-2" cx="875.09" cy="273.66" r="7.38"/><circle class="cls-2" cx="875.09" cy="1726.43" r="7.38" transform="translate(-1006.21 2181.46) rotate(-76.72)"/><circle class="cls-2" cx="1124.91" cy="273.66" r="7.38"/><circle class="cls-2" cx="1124.91" cy="1726.39" r="7.38" transform="translate(-891.26 1301.08) rotate(-45)"/><circle class="cls-2" cx="1426.96" cy="399.27" r="7.38" transform="translate(804.28 1743.84) rotate(-80.78)"/><circle class="cls-2" cx="1426.96" cy="1600.83" r="7.38"/><circle class="cls-2" cx="781.77" cy="293.76" r="7.38" transform="matrix(0.16, -0.99, 0.99, 0.16, 366.57, 1018.38)"/><circle class="cls-2" cx="781.77" cy="1706.33" r="7.38"/><circle class="cls-2" cx="1218.23" cy="293.76" r="7.38" transform="translate(733.12 1449.21) rotate(-80.78)"/><circle class="cls-2" cx="1218.23" cy="1706.28" r="7.38" transform="translate(-661.16 2635.47) rotate(-80.78)"/><circle class="cls-2" cx="636.81" cy="356.89" r="7.38" transform="translate(143.16 894.66) rotate(-76.72)"/><circle class="cls-2" cx="636.81" cy="1643.17" r="7.38"/><circle class="cls-2" cx="866.28" cy="273.61" r="7.38"/><circle class="cls-2" cx="1133.72" cy="273.61" r="7.38"/><circle class="cls-2" cx="866.28" cy="1726.43" r="7.38" transform="translate(-967.05 1118.21) rotate(-45)"/><circle class="cls-2" cx="1133.72" cy="1726.39" r="7.38" transform="translate(-806.96 2433.14) rotate(-76.72)"/><circle class="cls-2" cx="1363.19" cy="356.89" r="7.38" transform="translate(146.91 1068.45) rotate(-45)"/><circle class="cls-2" cx="1363.19" cy="1643.12" r="7.38"/><circle class="cls-2" cx="261.44" cy="1000.05" r="7.38"/><circle class="cls-2" cx="257.38" cy="1000.05" r="7.38"/><circle class="cls-2" cx="991.88" cy="261.48" r="7.38"/><circle class="cls-2" cx="1008.12" cy="261.48" r="7.38"/><circle class="cls-2" cx="1000" cy="261.44" r="7.38" transform="translate(581.76 1206.65) rotate(-80.78)"/><circle class="cls-2" cx="991.88" cy="1738.61" r="7.38"/><circle class="cls-2" cx="1000" cy="1738.56" r="7.38"/><circle class="cls-2" cx="1008.12" cy="1738.61" r="7.38"/><circle class="cls-2" cx="1738.52" cy="1000" r="7.38" transform="translate(-197.91 1522.21) rotate(-45)"/><circle class="cls-2" cx="1742.62" cy="1000" r="7.38" transform="translate(-250.03 742.99) rotate(-22.5)"/><circle class="cls-2" cx="261.44" cy="922.37" r="7.38" transform="matrix(0.16, -0.99, 0.99, 0.16, -690.9, 1032.68)"/><circle class="cls-2" cx="265.5" cy="922.42" r="7.38" transform="translate(-687.54 1036.73) rotate(-80.78)"/><circle class="cls-2" cx="265.5" cy="1077.68" r="7.38"/><circle class="cls-2" cx="261.44" cy="1077.68" r="7.38"/><circle class="cls-2" cx="704.54" cy="321.59" r="7.38" transform="translate(229.68 933.39) rotate(-76.72)"/><circle class="cls-2" cx="858.95" cy="273.66" r="7.38"/><circle class="cls-2" cx="704.54" cy="1678.41" r="7.38" transform="translate(-1090.85 1978.48) rotate(-76.72)"/><circle class="cls-2" cx="983.86" cy="261.44" r="7.38" transform="translate(503.37 1158.91) rotate(-76.72)"/><circle class="cls-2" cx="1016.14" cy="261.48" r="7.38"/><circle class="cls-2" cx="858.95" cy="1726.43" r="7.38" transform="translate(-982.78 2297.75) rotate(-80.78)"/><circle class="cls-2" cx="1141.05" cy="273.66" r="7.38"/><circle class="cls-2" cx="1141.05" cy="1726.43" r="7.38" transform="translate(-745.87 2576.2) rotate(-80.78)"/><circle class="cls-2" cx="983.86" cy="1738.56" r="7.38"/><circle class="cls-2" cx="1016.14" cy="1738.61" r="7.38"/><circle class="cls-2" cx="1295.42" cy="321.64" r="7.38" transform="translate(-24.48 520.22) rotate(-22.5)"/><circle class="cls-2" cx="1295.42" cy="1678.46" r="7.38" transform="translate(-543.71 623.5) rotate(-22.5)"/><circle class="cls-2" cx="1734.51" cy="922.37" r="7.38"/><circle class="cls-2" cx="1738.52" cy="922.37" r="7.38"/><circle class="cls-2" cx="1738.52" cy="1077.63" r="7.38" transform="translate(-252.8 1544.95) rotate(-45)"/><circle class="cls-2" cx="1734.51" cy="1077.63" r="7.38"/><circle class="cls-2" cx="273.62" cy="845.62" r="7.38" transform="translate(-517.8 441.15) rotate(-45)"/><circle class="cls-2" cx="277.58" cy="845.65" r="7.38" transform="translate(-609.23 921.51) rotate(-76.72)"/><circle class="cls-2" cx="277.58" cy="1154.42" r="7.38"/><circle class="cls-2" cx="273.62" cy="1154.42" r="7.38"/><circle class="cls-2" cx="975.99" cy="261.43" r="7.38"/><circle class="cls-2" cx="1023.96" cy="261.48" r="7.38"/><circle class="cls-2" cx="975.99" cy="1738.56" r="7.38" transform="translate(-591.03 505.83) rotate(-22.5)"/><circle class="cls-2" cx="1023.96" cy="1738.61" r="7.38"/><circle class="cls-2" cx="1722.43" cy="845.6" r="7.38"/><circle class="cls-2" cx="1726.39" cy="845.59" r="7.38" transform="translate(-192.18 725.02) rotate(-22.5)"/><circle class="cls-2" cx="1726.39" cy="1154.42" r="7.38"/><circle class="cls-2" cx="1722.43" cy="1154.42" r="7.38"/><circle class="cls-2" cx="293.72" cy="770.58" r="7.38"/><circle class="cls-2" cx="297.58" cy="770.58" r="7.38"/><circle class="cls-2" cx="297.58" cy="1229.52" r="7.38" transform="translate(-967.42 1236.65) rotate(-76.72)"/><circle class="cls-2" cx="293.72" cy="1229.53" r="7.38"/><circle class="cls-2" cx="968.41" cy="261.44" r="7.38" transform="translate(555.23 1175.47) rotate(-80.78)"/><circle class="cls-2" cx="1031.59" cy="261.48" r="7.38"/><circle class="cls-2" cx="968.41" cy="1738.61" r="7.38"/><circle class="cls-2" cx="1031.59" cy="1738.61" r="7.38"/><circle class="cls-2" cx="1702.43" cy="770.53" r="7.38"/><circle class="cls-2" cx="1706.29" cy="770.53" r="7.38"/><circle class="cls-2" cx="1706.29" cy="1229.47" r="7.38"/><circle class="cls-2" cx="1702.43" cy="1229.47" r="7.38"/><circle class="cls-2" cx="321.59" cy="697.95" r="7.38" transform="translate(-399.33 431.82) rotate(-45)"/><circle class="cls-2" cx="325.3" cy="697.95" r="7.38" transform="translate(-242.33 177.62) rotate(-22.5)"/><circle class="cls-2" cx="325.3" cy="1302.05" r="7.38" transform="translate(-473.51 223.6) rotate(-22.5)"/><circle class="cls-2" cx="321.59" cy="1302.05" r="7.38"/><circle class="cls-2" cx="961.19" cy="261.49" r="7.38" transform="matrix(0.16, -0.99, 0.99, 0.16, 549.1, 1168.38)"/><circle class="cls-2" cx="1038.82" cy="261.48" r="7.38"/><circle class="cls-2" cx="961.19" cy="1738.56" r="7.38"/><circle class="cls-2" cx="1038.82" cy="1738.61" r="7.38"/><circle class="cls-2" cx="1674.7" cy="697.95" r="7.38" transform="translate(610.66 2167.5) rotate(-76.72)"/><circle class="cls-2" cx="1678.41" cy="697.95" r="7.38" transform="translate(-1.93 1391.24) rotate(-45)"/><circle class="cls-2" cx="1678.41" cy="1302.05" r="7.38" transform="translate(-429.09 1568.18) rotate(-45)"/><circle class="cls-2" cx="1674.7" cy="1302.05" r="7.38" transform="translate(22.72 2632.8) rotate(-76.72)"/><circle class="cls-2" cx="356.89" cy="628.69" r="7.38" transform="translate(-340.02 436.5) rotate(-45)"/><circle class="cls-2" cx="360.4" cy="628.69" r="7.38" transform="translate(-338.99 438.98) rotate(-45)"/><circle class="cls-2" cx="360.4" cy="1371.31" r="7.38" transform="translate(-1057.03 1407.01) rotate(-76.72)"/><circle class="cls-2" cx="356.89" cy="1371.31" r="7.38" transform="translate(-1059.74 1403.59) rotate(-76.72)"/><circle class="cls-2" cx="954.35" cy="261.44" r="7.38" transform="translate(94.66 751.4) rotate(-45)"/><circle class="cls-2" cx="1045.6" cy="261.48" r="7.38"/><circle class="cls-2" cx="954.35" cy="1738.56" r="7.38"/><circle class="cls-2" cx="1045.6" cy="1738.61" r="7.38"/><circle class="cls-2" cx="1639.6" cy="628.74" r="7.38"/><circle class="cls-2" cx="1643.11" cy="628.74" r="7.38"/><circle class="cls-2" cx="1643.11" cy="1371.36" r="7.38" transform="translate(-488.44 1563.52) rotate(-45)"/><circle class="cls-2" cx="1639.6" cy="1371.36" r="7.38" transform="translate(-71.78 2652.02) rotate(-76.72)"/><circle class="cls-2" cx="399.22" cy="563.54" r="7.38"/><circle class="cls-2" cx="402.49" cy="563.55" r="7.38" transform="translate(-218.26 870.57) rotate(-80.78)"/><circle class="cls-2" cx="402.49" cy="1436.56" r="7.38" transform="translate(-519.11 263.38) rotate(-22.5)"/><circle class="cls-2" cx="399.22" cy="1436.56" r="7.38" transform="translate(-519.36 262.13) rotate(-22.5)"/><circle class="cls-2" cx="853.16" cy="273.61" r="7.38" transform="translate(56.41 683.41) rotate(-45)"/><circle class="cls-2" cx="775.53" cy="293.77" r="7.38" transform="translate(361.32 1012.23) rotate(-80.78)"/><circle class="cls-2" cx="775.53" cy="1706.33" r="7.38"/><circle class="cls-2" cx="853.16" cy="1726.38" r="7.38"/><circle class="cls-2" cx="948.07" cy="261.45" r="7.38"/><circle class="cls-2" cx="1051.94" cy="261.44" r="7.38" transform="matrix(0.16, -0.99, 0.99, 0.16, 625.37, 1257.91)"/><circle class="cls-2" cx="1146.84" cy="273.66" r="7.38"/><circle class="cls-2" cx="948.07" cy="1738.56" r="7.38"/><circle class="cls-2" cx="1051.94" cy="1738.56" r="7.38"/><circle class="cls-2" cx="1146.84" cy="1726.43" r="7.38" transform="translate(-741 2581.92) rotate(-80.78)"/><circle class="cls-2" cx="1224.47" cy="293.71" r="7.38"/><circle class="cls-2" cx="1224.47" cy="1706.33" r="7.38"/><circle class="cls-2" cx="1597.51" cy="563.49" r="7.38" transform="translate(-94.03 654.23) rotate(-22.5)"/><circle class="cls-2" cx="1600.78" cy="563.5" r="7.38"/><circle class="cls-2" cx="1600.78" cy="1436.56" r="7.38" transform="translate(-165.13 2664.47) rotate(-76.72)"/><circle class="cls-2" cx="1597.51" cy="1436.51" r="7.38"/><circle class="cls-2" cx="505.81" cy="448.18" r="7.38" transform="translate(-133.01 227.68) rotate(-22.5)"/><circle class="cls-2" cx="448.13" cy="503.08" r="7.38" transform="translate(-224.48 464.23) rotate(-45)"/><circle class="cls-2" cx="451.15" cy="503.09" r="7.38" transform="translate(-117.7 867.83) rotate(-80.78)"/><circle class="cls-2" cx="451.15" cy="1496.91" r="7.38"/><circle class="cls-2" cx="448.13" cy="1496.91" r="7.38"/><circle class="cls-2" cx="505.81" cy="1551.92" r="7.38" transform="translate(-555.39 311.7) rotate(-22.5)"/><circle class="cls-2" cx="942.32" cy="261.48" r="7.38"/><circle class="cls-2" cx="1057.68" cy="261.43" r="7.38"/><circle class="cls-2" cx="942.32" cy="1738.61" r="7.38"/><circle class="cls-2" cx="1057.68" cy="1738.56" r="7.38" transform="translate(-919.56 1257.11) rotate(-45)"/><circle class="cls-2" cx="1548.85" cy="503.09" r="7.38" transform="translate(804.16 1951.35) rotate(-80.78)"/><circle class="cls-2" cx="1551.87" cy="503.13" r="7.38"/><circle class="cls-2" cx="1494.19" cy="448.13" r="7.38"/><circle class="cls-2" cx="1494.19" cy="1551.87" r="7.38" transform="translate(-480.13 689.93) rotate(-22.5)"/><circle class="cls-2" cx="1551.87" cy="1496.96" r="7.38"/><circle class="cls-2" cx="1548.85" cy="1496.91" r="7.38"/><circle class="cls-2" cx="565.89" cy="399.27" r="7.38" transform="translate(81.13 893.89) rotate(-80.78)"/><circle class="cls-2" cx="503.09" cy="448.18" r="7.38" transform="translate(-133.22 226.64) rotate(-22.5)"/><circle class="cls-2" cx="503.09" cy="1551.92" r="7.38" transform="translate(-555.6 310.65) rotate(-22.5)"/><circle class="cls-2" cx="565.89" cy="1600.83" r="7.38"/><circle class="cls-2" cx="937.17" cy="261.48" r="7.38"/><circle class="cls-2" cx="1062.78" cy="261.44" r="7.38" transform="translate(126.42 828.07) rotate(-45)"/><circle class="cls-2" cx="937.17" cy="1738.61" r="7.38"/><circle class="cls-2" cx="1062.78" cy="1738.56" r="7.38" transform="translate(-873.45 2373.47) rotate(-76.72)"/><circle class="cls-2" cx="1496.92" cy="448.13" r="7.38"/><circle class="cls-2" cx="1434.09" cy="399.22" r="7.38"/><circle class="cls-2" cx="1434.09" cy="1600.78" r="7.38" transform="translate(-375.74 2759.94) rotate(-80.78)"/><circle class="cls-2" cx="1496.92" cy="1551.87" r="7.38"/><circle class="cls-2" cx="848.95" cy="273.61" r="7.38" transform="translate(387.61 1036.99) rotate(-76.72)"/><circle class="cls-2" cx="848.95" cy="1726.43" r="7.38" transform="translate(-1026.35 2156.02) rotate(-76.72)"/><circle class="cls-2" cx="1151" cy="273.61" r="7.38"/><circle class="cls-2" cx="1151" cy="1726.39" r="7.38" transform="translate(-737.46 2585.99) rotate(-80.78)"/><circle class="cls-2" cx="630.72" cy="356.89" r="7.38" transform="translate(138.47 888.74) rotate(-76.72)"/><circle class="cls-2" cx="563.49" cy="399.22" r="7.38"/><circle class="cls-2" cx="563.49" cy="1600.78" r="7.38" transform="translate(-1123.94 1781.41) rotate(-76.72)"/><circle class="cls-2" cx="630.72" cy="1643.12" r="7.38"/><circle class="cls-2" cx="932.77" cy="261.5" r="7.38"/><circle class="cls-2" cx="1067.23" cy="261.48" r="7.38"/><circle class="cls-2" cx="932.77" cy="1738.61" r="7.38"/><circle class="cls-2" cx="1067.23" cy="1738.61" r="7.38"/><circle class="cls-2" cx="1436.52" cy="399.27" r="7.38" transform="translate(812.3 1753.28) rotate(-80.78)"/><circle class="cls-2" cx="1369.28" cy="356.89" r="7.38"/><circle class="cls-2" cx="1369.28" cy="1643.13" r="7.38"/><circle class="cls-2" cx="1436.52" cy="1600.83" r="7.38"/><circle class="cls-2" cx="699.59" cy="321.59" r="7.38"/><circle class="cls-2" cx="628.69" cy="356.89" r="7.38" transform="translate(-68.22 549.08) rotate(-45)"/><circle class="cls-2" cx="628.69" cy="1643.15" r="7.38"/><circle class="cls-2" cx="699.59" cy="1678.41" r="7.38"/><circle class="cls-2" cx="929.08" cy="261.43" r="7.38"/><circle class="cls-2" cx="1070.9" cy="261.48" r="7.38"/><circle class="cls-2" cx="929.08" cy="1738.56" r="7.38" transform="translate(-957.23 1166.17) rotate(-45)"/><circle class="cls-2" cx="1070.9" cy="1738.61" r="7.38"/><circle class="cls-2" cx="1371.31" cy="356.89" r="7.38" transform="translate(708.91 1609.52) rotate(-76.72)"/><circle class="cls-2" cx="1300.37" cy="321.64" r="7.38" transform="translate(153.44 1013.7) rotate(-45)"/><circle class="cls-2" cx="1300.37" cy="1678.46" r="7.38" transform="translate(-805.98 1411.11) rotate(-45)"/><circle class="cls-2" cx="1371.31" cy="1643.11" r="7.38"/><circle class="cls-2" cx="771.77" cy="293.76" r="7.38" transform="translate(18.32 631.76) rotate(-45)"/><circle class="cls-2" cx="697.95" cy="321.59" r="7.38"/><circle class="cls-2" cx="697.95" cy="1678.41" r="7.38"/><circle class="cls-2" cx="771.77" cy="1706.33" r="7.38"/><circle class="cls-2" cx="926.18" cy="261.5" r="7.38"/><circle class="cls-2" cx="926.18" cy="1738.61" r="7.38"/><circle class="cls-2" cx="1073.82" cy="261.44" r="7.38" transform="translate(643.75 1279.51) rotate(-80.78)"/><circle class="cls-2" cx="1073.82" cy="1738.56" r="7.38"/><circle class="cls-2" cx="1302.05" cy="321.64" r="7.38" transform="translate(153.93 1014.89) rotate(-45)"/><circle class="cls-2" cx="1228.23" cy="293.72" r="7.38" transform="translate(152.05 954.52) rotate(-45)"/><circle class="cls-2" cx="1228.23" cy="1706.33" r="7.38"/><circle class="cls-2" cx="1302.05" cy="1678.46" r="7.38" transform="translate(-805.49 1412.3) rotate(-45)"/><circle class="cls-2" cx="846.43" cy="273.61" r="7.38" transform="matrix(0.16, -0.99, 0.99, 0.16, 440.76, 1065.28)"/><circle class="cls-2" cx="770.53" cy="293.76" r="7.38" transform="translate(17.96 630.89) rotate(-45)"/><circle class="cls-2" cx="770.53" cy="1706.33" r="7.38"/><circle class="cls-2" cx="846.43" cy="1726.38" r="7.38"/><circle class="cls-2" cx="924.06" cy="261.44" r="7.38" transform="matrix(0.16, -0.99, 0.99, 0.16, 517.98, 1131.68)"/><circle class="cls-2" cx="1075.95" cy="261.49" r="7.38" transform="translate(645.48 1281.66) rotate(-80.78)"/><circle class="cls-2" cx="924.06" cy="1738.56" r="7.38"/><circle class="cls-2" cx="1075.95" cy="1738.61" r="7.38"/><circle class="cls-2" cx="1229.47" cy="293.71" r="7.38" transform="translate(-18.81 492.85) rotate(-22.5)"/><circle class="cls-2" cx="1153.55" cy="273.66" r="7.38"/><circle class="cls-2" cx="1153.55" cy="1726.43" r="7.38" transform="translate(-882.91 1321.34) rotate(-45)"/><circle class="cls-2" cx="1229.47" cy="1706.28" r="7.38"/><circle class="cls-2" cx="845.58" cy="273.66" r="7.38"/><circle class="cls-2" cx="845.58" cy="1726.43" r="7.38" transform="translate(-994 2284.55) rotate(-80.78)"/><circle class="cls-2" cx="922.82" cy="261.44" r="7.38" transform="translate(516.94 1130.46) rotate(-80.78)"/><circle class="cls-2" cx="922.82" cy="1738.56" r="7.38"/><circle class="cls-2" cx="1154.39" cy="273.66" r="7.38"/><circle class="cls-2" cx="1077.18" cy="261.44" r="7.38"/><circle class="cls-2" cx="1077.18" cy="1738.56" r="7.38"/><circle class="cls-2" cx="1154.39" cy="1726.44" r="7.38"/><circle class="cls-2" cx="922.37" cy="261.44" r="7.38" transform="matrix(0.16, -0.99, 0.99, 0.16, 516.56, 1130.02)"/><circle class="cls-2" cx="922.37" cy="1738.56" r="7.38"/><circle class="cls-2" cx="1077.63" cy="261.49" r="7.38" transform="matrix(0.16, -0.99, 0.99, 0.16, 646.9, 1283.32)"/><circle class="cls-2" cx="1077.63" cy="1738.61" r="7.38"/></svg>