<svg id="Circular_element" data-name="Circular element" xmlns="http://www.w3.org/2000/svg" viewBox="0 0 2000 2000"><defs><style>.cls-1{fill:none;stroke:#fff;stroke-miterlimit:10;stroke-width:5px;}</style></defs><path class="cls-1" d="M1000,1750c-362.44,0-656.25-387.56-656.25-750S637.56,250,1000,250"/><path class="cls-1" d="M1000,1750c-310.66,0-562.5-439.34-562.5-750S689.34,250,1000,250"/><path class="cls-1" d="M1000,1750c-258.88,0-468.75-491.12-468.75-750S741.12,250,1000,250"/><path class="cls-1" d="M1000,1750c-207.11,0-375-542.89-375-750s167.89-750,375-750"/><path class="cls-1" d="M1000,1750c-155.33,0-281.25-594.67-281.25-750S844.67,250,1000,250"/><path class="cls-1" d="M1000,1750c-103.55,0-187.5-646.45-187.5-750s84-750,187.5-750"/><path class="cls-1" d="M1000,1750c-51.78,0-93.75-698.22-93.75-750s42-750,93.75-750"/><polyline class="cls-1" points="1000 1750 1000 1000 1000 250"/><path class="cls-1" d="M1000,1750c51.78,0,93.75-698.22,93.75-750s-42-750-93.75-750"/><path class="cls-1" d="M1000,1750c103.55,0,187.5-646.45,187.5-750s-84-750-187.5-750"/><path class="cls-1" d="M1000,1750c155.33,0,281.25-594.67,281.25-750S1155.33,250,1000,250"/><path class="cls-1" d="M1000,1750c207.11,0,375-542.89,375-750s-167.89-750-375-750"/><path class="cls-1" d="M1000,1750c258.88,0,468.75-491.12,468.75-750S1258.88,250,1000,250"/><path class="cls-1" d="M1000,1750c310.66,0,562.5-439.34,562.5-750S1310.66,250,1000,250"/><path class="cls-1" d="M1000,1750c362.44,0,656.25-387.56,656.25-750S1362.44,250,1000,250"/><circle class="cls-1" cx="1000" cy="1000" r="750"/></svg>