<svg id="Circular_element" data-name="Circular element" xmlns="http://www.w3.org/2000/svg" viewBox="0 0 2000 2000"><defs><style>.cls-1,.cls-2,.cls-3{fill:none;stroke-linecap:round;stroke-linejoin:round;}.cls-1,.cls-2{stroke:#fff;}.cls-1{stroke-width:5px;}.cls-3{stroke:#dd1920;}</style></defs><circle class="cls-1" cx="1000" cy="1000" r="750"/><polygon class="cls-2" points="941.26 1010.46 808.84 884.08 821.51 976.91 941.26 1010.46"/><polygon class="cls-2" points="941.26 1010.46 932.72 823.59 808.84 884.08 941.26 1010.46"/><polygon class="cls-2" points="1046.83 1151.69 941.26 1010.46 953.39 1196.63 1046.83 1151.69"/><polygon class="cls-2" points="1052.91 1058.31 1058.13 964 941.26 1010.46 1052.91 1058.31"/><polygon class="cls-2" points="953.39 1196.63 941.26 1010.46 836.99 1070.09 953.39 1196.63"/><polygon class="cls-2" points="1046.83 1151.69 1052.91 1058.31 941.26 1010.46 1046.83 1151.69"/><polygon class="cls-2" points="1058.13 964 932.72 823.59 941.26 1010.46 1058.13 964"/><polygon class="cls-2" points="941.26 1010.46 821.51 976.91 836.99 1070.09 941.26 1010.46"/><polygon class="cls-2" points="1151.2 1115.53 1058.13 964 1052.91 1058.31 1151.2 1115.53"/><polygon class="cls-2" points="1058.13 964 1062.4 870.24 932.72 823.59 1058.13 964"/><polygon class="cls-2" points="1151.2 1115.53 1182.08 929.77 1058.13 964 1151.2 1115.53"/><polygon class="cls-2" points="1182.08 929.77 1062.4 870.24 1058.13 964 1182.08 929.77"/><polygon class="cls-2" points="1151.2 1115.53 1052.91 1058.31 1046.83 1151.69 1151.2 1115.53"/><polygon class="cls-2" points="1182.08 929.77 1065.67 778.52 1062.4 870.24 1182.08 929.77"/><polygon class="cls-2" points="1062.4 870.24 1065.67 778.52 932.72 823.59 1062.4 870.24"/><polygon class="cls-2" points="1039.99 1242.66 1046.83 1151.69 953.39 1196.63 1039.99 1242.66"/><polygon class="cls-2" points="1039.99 1242.66 1151.2 1115.53 1046.83 1151.69 1039.99 1242.66"/><polygon class="cls-2" points="953.39 1196.63 836.99 1070.09 865.13 1206.91 953.39 1196.63"/><polygon class="cls-2" points="836.99 1070.09 699.63 956.11 749.87 1137.43 836.99 1070.09"/><polygon class="cls-2" points="836.99 1070.09 821.51 976.91 699.63 956.11 836.99 1070.09"/><polygon class="cls-2" points="865.13 1206.91 836.99 1070.09 749.87 1137.43 865.13 1206.91"/><polygon class="cls-2" points="821.51 976.91 808.84 884.08 699.63 956.11 821.51 976.91"/><polygon class="cls-2" points="1065.67 778.52 975.27 688.6 932.72 823.59 1065.67 778.52"/><polygon class="cls-2" points="932.72 823.59 975.27 688.6 792.61 705.31 932.72 823.59"/><polygon class="cls-2" points="932.72 823.59 799.15 793.07 808.84 884.08 932.72 823.59"/><polygon class="cls-2" points="932.72 823.59 792.61 705.31 799.15 793.07 932.72 823.59"/><polygon class="cls-3" points="1261.19 1093.25 1182.08 929.77 1151.2 1115.53 1261.19 1093.25"/><polygon class="cls-2" points="1215.38 1226.03 1261.19 1093.25 1151.2 1115.53 1215.38 1226.03"/><polygon class="cls-2" points="1215.38 1226.03 1151.2 1115.53 1039.99 1242.66 1215.38 1226.03"/><polygon class="cls-2" points="1306.99 911.27 1240.42 801.08 1182.08 929.77 1306.99 911.27"/><polygon class="cls-2" points="1182.08 929.77 1240.42 801.08 1065.67 778.52 1182.08 929.77"/><polygon class="cls-2" points="1286.36 1002.28 1306.99 911.27 1182.08 929.77 1286.36 1002.28"/><polygon class="cls-2" points="1261.19 1093.25 1286.36 1002.28 1182.08 929.77 1261.19 1093.25"/><polygon class="cls-2" points="1032.5 1329.8 953.39 1196.63 897.49 1337.17 1032.5 1329.8"/><polygon class="cls-2" points="897.49 1337.17 953.39 1196.63 865.13 1206.91 897.49 1337.17"/><polygon class="cls-2" points="1032.5 1329.8 1039.99 1242.66 953.39 1196.63 1032.5 1329.8"/><polygon class="cls-2" points="808.84 884.08 799.15 793.07 668.17 777.5 808.84 884.08"/><polygon class="cls-2" points="808.84 884.08 668.17 777.5 699.63 956.11 808.84 884.08"/><polygon class="cls-2" points="1240.42 801.08 1115.02 651.14 1065.67 778.52 1240.42 801.08"/><polygon class="cls-2" points="1065.67 778.52 1115.02 651.14 975.27 688.6 1065.67 778.52"/><polygon class="cls-2" points="1162.72 1351.65 1039.99 1242.66 1032.5 1329.8 1162.72 1351.65"/><polygon class="cls-2" points="1162.72 1351.65 1215.38 1226.03 1039.99 1242.66 1162.72 1351.65"/><polygon class="cls-2" points="865.13 1206.91 749.87 1137.43 727.85 1295.03 865.13 1206.91"/><polygon class="cls-2" points="897.49 1337.17 865.13 1206.91 727.85 1295.03 897.49 1337.17"/><polygon class="cls-2" points="1291.89 1253.42 1261.19 1093.25 1215.38 1226.03 1291.89 1253.42"/><polygon class="cls-2" points="1370.88 1082.54 1286.36 1002.28 1261.19 1093.25 1370.88 1082.54"/><polygon class="cls-2" points="1291.89 1253.42 1370.88 1082.54 1261.19 1093.25 1291.89 1253.42"/><polygon class="cls-2" points="749.87 1137.43 609.75 1039.22 643.74 1126.95 749.87 1137.43"/><polygon class="cls-2" points="749.87 1137.43 643.74 1126.95 683.31 1212.67 749.87 1137.43"/><polygon class="cls-2" points="749.87 1137.43 699.63 956.11 609.75 1039.22 749.87 1137.43"/><polygon class="cls-3" points="727.85 1295.03 749.87 1137.43 683.31 1212.67 727.85 1295.03"/><polygon class="cls-2" points="799.15 793.07 792.61 705.31 668.17 777.5 799.15 793.07"/><polygon class="cls-2" points="1370.88 1082.54 1306.99 911.27 1286.36 1002.28 1370.88 1082.54"/><polygon class="cls-2" points="699.63 956.11 668.17 777.5 560.62 863.25 699.63 956.11"/><polygon class="cls-2" points="699.63 956.11 560.62 863.25 581.9 950.85 699.63 956.11"/><polygon class="cls-2" points="699.63 956.11 581.9 950.85 609.75 1039.22 699.63 956.11"/><polygon class="cls-2" points="975.27 688.6 834.6 575.99 792.61 705.31 975.27 688.6"/><polygon class="cls-2" points="975.27 688.6 974.9 605.21 834.6 575.99 975.27 688.6"/><polygon class="cls-3" points="1115.02 651.14 974.9 605.21 975.27 688.6 1115.02 651.14"/><polygon class="cls-2" points="1368.78 790.21 1248.37 713.58 1240.42 801.08 1368.78 790.21"/><polygon class="cls-2" points="1240.42 801.08 1248.37 713.58 1115.02 651.14 1240.42 801.08"/><polygon class="cls-2" points="1306.99 911.27 1368.78 790.21 1240.42 801.08 1306.99 911.27"/><polygon class="cls-2" points="1162.72 1351.65 1291.89 1253.42 1215.38 1226.03 1162.72 1351.65"/><polygon class="cls-2" points="1370.88 1082.54 1447.89 966.56 1306.99 911.27 1370.88 1082.54"/><polygon class="cls-2" points="1447.89 966.56 1368.78 790.21 1306.99 911.27 1447.89 966.56"/><polygon class="cls-2" points="1024.47 1411.73 1032.5 1329.8 897.49 1337.17 1024.47 1411.73"/><polygon class="cls-2" points="1123.97 1428.42 1162.72 1351.65 1032.5 1329.8 1123.97 1428.42"/><polygon class="cls-3" points="1123.97 1428.42 1032.5 1329.8 1024.47 1411.73 1123.97 1428.42"/><polygon class="cls-2" points="897.49 1337.17 727.85 1295.03 776.67 1372.72 897.49 1337.17"/><polygon class="cls-2" points="1024.47 1411.73 897.49 1337.17 921.3 1417.36 1024.47 1411.73"/><polygon class="cls-2" points="921.3 1417.36 897.49 1337.17 776.67 1372.72 921.3 1417.36"/><polygon class="cls-2" points="792.61 705.31 834.6 575.99 700.73 640.59 792.61 705.31"/><polygon class="cls-2" points="792.61 705.31 700.73 640.59 668.17 777.5 792.61 705.31"/><polygon class="cls-2" points="1252.37 630.58 1161.97 538.24 1115.02 651.14 1252.37 630.58"/><polygon class="cls-2" points="1115.02 651.14 1161.97 538.24 974.9 528.03 1115.02 651.14"/><polygon class="cls-2" points="1248.37 713.58 1252.37 630.58 1115.02 651.14 1248.37 713.58"/><polygon class="cls-2" points="1115.02 651.14 974.9 528.03 974.9 605.21 1115.02 651.14"/><polygon class="cls-2" points="643.74 1126.95 609.75 1039.22 542.63 1127.74 643.74 1126.95"/><polygon class="cls-2" points="683.31 1212.67 643.74 1126.95 542.63 1127.74 683.31 1212.67"/><polygon class="cls-2" points="683.31 1212.67 542.63 1127.74 639.31 1289.04 683.31 1212.67"/><polygon class="cls-2" points="727.85 1295.03 683.31 1212.67 639.31 1289.04 727.85 1295.03"/><polygon class="cls-2" points="1368.78 790.21 1252.37 630.58 1248.37 713.58 1368.78 790.21"/><polygon class="cls-2" points="1384.13 1250.93 1370.88 1082.54 1291.89 1253.42 1384.13 1250.93"/><polygon class="cls-2" points="1432.56 1170.01 1505.33 1053.16 1370.88 1082.54 1432.56 1170.01"/><polygon class="cls-2" points="1384.13 1250.93 1432.56 1170.01 1370.88 1082.54 1384.13 1250.93"/><polygon class="cls-2" points="1505.33 1053.16 1447.89 966.56 1370.88 1082.54 1505.33 1053.16"/><polygon class="cls-2" points="1269.87 1399.64 1291.89 1253.42 1162.72 1351.65 1269.87 1399.64"/><polygon class="cls-2" points="1205.85 1465.1 1162.72 1351.65 1123.97 1428.42 1205.85 1465.1"/><polygon class="cls-2" points="1205.85 1465.1 1269.87 1399.64 1162.72 1351.65 1205.85 1465.1"/><polygon class="cls-2" points="1329.61 1327.88 1384.13 1250.93 1291.89 1253.42 1329.61 1327.88"/><polygon class="cls-2" points="1269.87 1399.64 1329.61 1327.88 1291.89 1253.42 1269.87 1399.64"/><polygon class="cls-2" points="609.75 1039.22 581.9 950.85 474.6 958.38 609.75 1039.22"/><polygon class="cls-2" points="609.75 1039.22 474.6 958.38 542.63 1127.74 609.75 1039.22"/><polygon class="cls-2" points="974.9 605.21 974.9 528.03 834.6 575.99 974.9 605.21"/><polygon class="cls-2" points="668.17 777.5 546.24 777.79 560.62 863.25 668.17 777.5"/><polygon class="cls-2" points="668.17 777.5 700.73 640.59 539 695.83 668.17 777.5"/><polygon class="cls-3" points="668.17 777.5 539 695.83 546.24 777.79 668.17 777.5"/><polygon class="cls-2" points="776.67 1372.72 727.85 1295.03 639.31 1289.04 776.67 1372.72"/><polygon class="cls-2" points="1083.25 1498.43 1024.47 1411.73 921.3 1417.36 1083.25 1498.43"/><polygon class="cls-2" points="1083.25 1498.43 1123.97 1428.42 1024.47 1411.73 1083.25 1498.43"/><polygon class="cls-2" points="581.9 950.85 560.62 863.25 474.6 958.38 581.9 950.85"/><polygon class="cls-2" points="1083.25 1498.43 921.3 1417.36 946.33 1490.95 1083.25 1498.43"/><polygon class="cls-2" points="921.3 1417.36 776.67 1372.72 828.98 1444.52 921.3 1417.36"/><polygon class="cls-2" points="946.33 1490.95 921.3 1417.36 828.98 1444.52 946.33 1490.95"/><polygon class="cls-2" points="1486.36 794.85 1419.8 679.84 1368.78 790.21 1486.36 794.85"/><polygon class="cls-2" points="1368.78 790.21 1419.8 679.84 1252.37 630.58 1368.78 790.21"/><polygon class="cls-2" points="1470.85 879.76 1486.36 794.85 1368.78 790.21 1470.85 879.76"/><polygon class="cls-2" points="1447.89 966.56 1470.85 879.76 1368.78 790.21 1447.89 966.56"/><polygon class="cls-2" points="776.67 1372.72 639.31 1289.04 686.99 1431.46 776.67 1372.72"/><polygon class="cls-2" points="828.98 1444.52 776.67 1372.72 686.99 1431.46 828.98 1444.52"/><polygon class="cls-2" points="1174.2 1557.99 1123.97 1428.42 1083.25 1498.43 1174.2 1557.99"/><polygon class="cls-2" points="1174.2 1557.99 1205.85 1465.1 1123.97 1428.42 1174.2 1557.99"/><polygon class="cls-2" points="1419.8 679.84 1338.77 574.99 1252.37 630.58 1419.8 679.84"/><polygon class="cls-2" points="1252.37 630.58 1338.77 574.99 1161.97 538.24 1252.37 630.58"/><polygon class="cls-2" points="1505.33 1053.16 1470.85 879.76 1447.89 966.56 1505.33 1053.16"/><polygon class="cls-2" points="834.6 575.99 700.73 563.41 700.73 640.59 834.6 575.99"/><polygon class="cls-2" points="834.6 575.99 883.03 463.31 748.03 482.46 834.6 575.99"/><polygon class="cls-2" points="974.9 528.03 883.03 463.31 834.6 575.99 974.9 528.03"/><polygon class="cls-2" points="834.6 575.99 748.03 482.46 700.73 563.41 834.6 575.99"/><polygon class="cls-2" points="560.62 863.25 439.48 791.58 474.6 958.38 560.62 863.25"/><polygon class="cls-2" points="560.62 863.25 546.24 777.79 439.48 791.58 560.62 863.25"/><polygon class="cls-2" points="1469.73 1258.2 1432.56 1170.01 1384.13 1250.93 1469.73 1258.2"/><polygon class="cls-2" points="1329.61 1327.88 1469.73 1258.2 1384.13 1250.93 1329.61 1327.88"/><polygon class="cls-2" points="639.31 1289.04 542.63 1127.74 500.3 1220.89 639.31 1289.04"/><polygon class="cls-2" points="639.31 1289.04 500.3 1220.89 555.88 1296.13 639.31 1289.04"/><polygon class="cls-2" points="686.99 1431.46 639.31 1289.04 618.44 1366.69 686.99 1431.46"/><polygon class="cls-2" points="639.31 1289.04 555.88 1296.13 618.44 1366.69 639.31 1289.04"/><polygon class="cls-2" points="1448.02 1378.4 1469.73 1258.2 1329.61 1327.88 1448.02 1378.4"/><polygon class="cls-2" points="1338.9 1467.04 1329.61 1327.88 1269.87 1399.64 1338.9 1467.04"/><polygon class="cls-2" points="1338.9 1467.04 1448.02 1378.4 1329.61 1327.88 1338.9 1467.04"/><polygon class="cls-2" points="1469.73 1258.2 1505.33 1053.16 1432.56 1170.01 1469.73 1258.2"/><polygon class="cls-2" points="700.73 640.59 576.26 601.96 539 695.83 700.73 640.59"/><polygon class="cls-2" points="700.73 640.59 700.73 563.41 576.26 601.96 700.73 640.59"/><polygon class="cls-2" points="974.9 528.03 1067.88 459.96 883.03 463.31 974.9 528.03"/><polygon class="cls-2" points="1161.97 538.24 1067.88 459.96 974.9 528.03 1161.97 538.24"/><polygon class="cls-2" points="542.63 1127.74 413.47 1061.17 452.58 1142.16 542.63 1127.74"/><polygon class="cls-2" points="542.63 1127.74 474.6 958.38 413.47 1061.17 542.63 1127.74"/><polygon class="cls-2" points="542.63 1127.74 452.58 1142.16 500.3 1220.89 542.63 1127.74"/><polygon class="cls-2" points="946.33 1490.95 828.98 1444.52 883.96 1509.31 946.33 1490.95"/><polygon class="cls-2" points="828.98 1444.52 686.99 1431.46 760.45 1489.41 828.98 1444.52"/><polygon class="cls-2" points="883.96 1509.31 828.98 1444.52 760.45 1489.41 883.96 1509.31"/><polygon class="cls-2" points="1258.6 1516.6 1269.87 1399.64 1205.85 1465.1 1258.6 1516.6"/><polygon class="cls-2" points="1258.6 1516.6 1338.9 1467.04 1269.87 1399.64 1258.6 1516.6"/><polygon class="cls-2" points="1573.3 894.32 1486.36 794.85 1470.85 879.76 1573.3 894.32"/><polygon class="cls-2" points="1505.33 1053.16 1573.3 894.32 1470.85 879.76 1505.33 1053.16"/><polygon class="cls-2" points="1161.97 538.24 1201.41 443.31 1067.88 459.96 1161.97 538.24"/><polygon class="cls-2" points="1338.77 574.99 1201.41 443.31 1161.97 538.24 1338.77 574.99"/><polygon class="cls-2" points="1055.12 1566.8 946.33 1490.95 956.46 1561.42 1055.12 1566.8"/><polygon class="cls-2" points="956.46 1561.42 946.33 1490.95 883.96 1509.31 956.46 1561.42"/><polygon class="cls-2" points="1055.12 1566.8 1083.25 1498.43 946.33 1490.95 1055.12 1566.8"/><polygon class="cls-2" points="546.24 777.79 539 695.83 439.48 791.58 546.24 777.79"/><polygon class="cls-2" points="1055.12 1566.8 1174.2 1557.99 1083.25 1498.43 1055.12 1566.8"/><polygon class="cls-2" points="1174.2 1557.99 1258.6 1516.6 1205.85 1465.1 1174.2 1557.99"/><polygon class="cls-2" points="1563.5 1162.32 1603.99 1082.77 1505.33 1053.16 1563.5 1162.32"/><polygon class="cls-2" points="1469.73 1258.2 1563.5 1162.32 1505.33 1053.16 1469.73 1258.2"/><polygon class="cls-2" points="1603.99 1082.77 1573.3 894.32 1505.33 1053.16 1603.99 1082.77"/><polygon class="cls-2" points="883.96 1509.31 725.35 1545.7 813.95 1577.66 883.96 1509.31"/><polygon class="cls-2" points="883.96 1509.31 760.45 1489.41 725.35 1545.7 883.96 1509.31"/><polygon class="cls-2" points="956.46 1561.42 883.96 1509.31 813.95 1577.66 956.46 1561.42"/><polygon class="cls-2" points="474.6 958.38 383.58 979.2 413.47 1061.17 474.6 958.38"/><polygon class="cls-2" points="474.6 958.38 439.48 791.58 363.39 897.55 474.6 958.38"/><polygon class="cls-2" points="474.6 958.38 363.39 897.55 383.58 979.2 474.6 958.38"/><polygon class="cls-2" points="618.44 1366.69 555.88 1296.13 547.98 1378.22 618.44 1366.69"/><polygon class="cls-2" points="686.99 1431.46 618.44 1366.69 547.98 1378.22 686.99 1431.46"/><polygon class="cls-2" points="700.73 563.41 748.03 482.46 622.88 517.4 700.73 563.41"/><polygon class="cls-2" points="700.73 563.41 622.88 517.4 576.26 601.96 700.73 563.41"/><polygon class="cls-2" points="1419.8 679.84 1455.17 582.39 1338.77 574.99 1419.8 679.84"/><polygon class="cls-2" points="1486.36 794.85 1529.56 731.17 1419.8 679.84 1486.36 794.85"/><polygon class="cls-2" points="1529.56 731.17 1455.17 582.39 1419.8 679.84 1529.56 731.17"/><polygon class="cls-2" points="1573.3 894.32 1529.56 731.17 1486.36 794.85 1573.3 894.32"/><polygon class="cls-2" points="760.45 1489.41 686.99 1431.46 641.05 1505.13 760.45 1489.41"/><polygon class="cls-2" points="686.99 1431.46 547.98 1378.22 641.05 1505.13 686.99 1431.46"/><polygon class="cls-2" points="555.88 1296.13 500.3 1220.89 426.71 1240.93 555.88 1296.13"/><polygon class="cls-2" points="555.88 1296.13 426.71 1240.93 547.98 1378.22 555.88 1296.13"/><polygon class="cls-3" points="1542.97 1277.81 1563.5 1162.32 1469.73 1258.2 1542.97 1277.81"/><polygon class="cls-2" points="1448.02 1378.4 1542.97 1277.81 1469.73 1258.2 1448.02 1378.4"/><polygon class="cls-2" points="760.45 1489.41 641.05 1505.13 725.35 1545.7 760.45 1489.41"/><polygon class="cls-2" points="1201.41 443.31 1065.67 398.69 1067.88 459.96 1201.41 443.31"/><polygon class="cls-2" points="1067.88 459.96 932.72 372 883.03 463.31 1067.88 459.96"/><polygon class="cls-2" points="1067.88 459.96 1065.67 398.69 932.72 372 1067.88 459.96"/><polygon class="cls-2" points="1455.17 582.39 1333.4 504.5 1338.77 574.99 1455.17 582.39"/><polygon class="cls-2" points="1338.77 574.99 1333.4 504.5 1201.41 443.31 1338.77 574.99"/><polygon class="cls-2" points="500.3 1220.89 452.58 1142.16 426.71 1240.93 500.3 1220.89"/><polygon class="cls-2" points="883.03 463.31 799.15 413.24 748.03 482.46 883.03 463.31"/><polygon class="cls-2" points="883.03 463.31 932.72 372 799.15 413.24 883.03 463.31"/><polygon class="cls-2" points="539 695.83 468.38 654.59 439.48 791.58 539 695.83"/><polygon class="cls-2" points="539 695.83 576.26 601.96 468.38 654.59 539 695.83"/><polygon class="cls-2" points="956.46 1561.42 813.95 1577.66 913.3 1625.11 956.46 1561.42"/><polygon class="cls-2" points="998.45 1613.84 1055.12 1566.8 956.46 1561.42 998.45 1613.84"/><polygon class="cls-2" points="998.45 1613.84 956.46 1561.42 913.3 1625.11 998.45 1613.84"/><polygon class="cls-2" points="452.58 1142.16 413.47 1061.17 341.37 1088.46 452.58 1142.16"/><polygon class="cls-2" points="452.58 1142.16 341.37 1088.46 426.71 1240.93 452.58 1142.16"/><polygon class="cls-2" points="1088.69 1620.64 1174.2 1557.99 1055.12 1566.8 1088.69 1620.64"/><polygon class="cls-2" points="998.45 1613.84 1088.69 1620.64 1055.12 1566.8 998.45 1613.84"/><polygon class="cls-2" points="748.03 482.46 799.15 413.24 634.82 454.3 748.03 482.46"/><polygon class="cls-2" points="748.03 482.46 634.82 454.3 622.88 517.4 748.03 482.46"/><polygon class="cls-2" points="1360.11 1544.38 1471.32 1428.62 1338.9 1467.04 1360.11 1544.38"/><polygon class="cls-2" points="1274.81 1575.69 1338.9 1467.04 1258.6 1516.6 1274.81 1575.69"/><polygon class="cls-2" points="1338.9 1467.04 1471.32 1428.62 1448.02 1378.4 1338.9 1467.04"/><polygon class="cls-2" points="1274.81 1575.69 1360.11 1544.38 1338.9 1467.04 1274.81 1575.69"/><polygon class="cls-2" points="1185.15 1597.92 1258.6 1516.6 1174.2 1557.99 1185.15 1597.92"/><polygon class="cls-2" points="1185.15 1597.92 1274.81 1575.69 1258.6 1516.6 1185.15 1597.92"/><polygon class="cls-2" points="576.26 601.96 622.88 517.4 476.74 582.85 576.26 601.96"/><polygon class="cls-2" points="576.26 601.96 476.74 582.85 468.38 654.59 576.26 601.96"/><polygon class="cls-2" points="1088.69 1620.64 1185.15 1597.92 1174.2 1557.99 1088.69 1620.64"/><polygon class="cls-2" points="1655.83 921.01 1618.43 794.55 1573.3 894.32 1655.83 921.01"/><polygon class="cls-2" points="1573.3 894.32 1618.43 794.55 1529.56 731.17 1573.3 894.32"/><polygon class="cls-2" points="1634.94 1001.91 1655.83 921.01 1573.3 894.32 1634.94 1001.91"/><polygon class="cls-2" points="1603.99 1082.77 1634.94 1001.91 1573.3 894.32 1603.99 1082.77"/><polygon class="cls-2" points="1542.97 1277.81 1630.52 1188.72 1563.5 1162.32 1542.97 1277.81"/><polygon class="cls-2" points="1630.52 1188.72 1603.99 1082.77 1563.5 1162.32 1630.52 1188.72"/><polygon class="cls-2" points="413.47 1061.17 383.58 979.2 341.37 1088.46 413.47 1061.17"/><polygon class="cls-2" points="547.98 1378.22 490.61 1400.82 562.39 1456.59 547.98 1378.22"/><polygon class="cls-2" points="547.98 1378.22 426.83 1338.73 490.61 1400.82 547.98 1378.22"/><polygon class="cls-2" points="547.98 1378.22 426.71 1240.93 426.83 1338.73 547.98 1378.22"/><polygon class="cls-2" points="641.05 1505.13 547.98 1378.22 562.39 1456.59 641.05 1505.13"/><polygon class="cls-2" points="1471.32 1428.62 1542.97 1277.81 1448.02 1378.4 1471.32 1428.62"/><polygon class="cls-2" points="1201.41 443.31 1062.4 346.89 1065.67 398.69 1201.41 443.31"/><polygon class="cls-2" points="1201.41 443.31 1182.08 338.8 1062.4 346.89 1201.41 443.31"/><polygon class="cls-2" points="1333.4 504.5 1322.75 441.82 1201.41 443.31 1333.4 504.5"/><polygon class="cls-2" points="1322.75 441.82 1182.08 338.8 1201.41 443.31 1322.75 441.82"/><polygon class="cls-3" points="1529.56 731.17 1560.75 674.42 1455.17 582.39 1529.56 731.17"/><polygon class="cls-2" points="1618.43 794.55 1560.75 674.42 1529.56 731.17 1618.43 794.55"/><polygon class="cls-2" points="439.48 791.58 353.21 817.51 363.39 897.55 439.48 791.58"/><polygon class="cls-2" points="439.48 791.58 468.38 654.59 353.21 740.33 439.48 791.58"/><polygon class="cls-2" points="439.48 791.58 353.21 740.33 353.21 817.51 439.48 791.58"/><polygon class="cls-2" points="1455.17 582.39 1322.75 441.82 1333.4 504.5 1455.17 582.39"/><polygon class="cls-2" points="1065.67 398.69 1062.4 346.89 932.72 372 1065.67 398.69"/><polygon class="cls-2" points="813.95 1577.66 728.6 1605.51 816.15 1618.06 813.95 1577.66"/><polygon class="cls-2" points="813.95 1577.66 725.35 1545.7 728.6 1605.51 813.95 1577.66"/><polygon class="cls-2" points="913.3 1625.11 813.95 1577.66 816.15 1618.06 913.3 1625.11"/><polygon class="cls-2" points="725.35 1545.7 645.31 1583.4 728.6 1605.51 725.35 1545.7"/><polygon class="cls-2" points="725.35 1545.7 641.05 1505.13 645.31 1583.4 725.35 1545.7"/><polygon class="cls-2" points="622.88 517.4 634.82 454.3 525.11 499.32 622.88 517.4"/><polygon class="cls-2" points="622.88 517.4 525.11 499.32 476.74 582.85 622.88 517.4"/><polygon class="cls-2" points="1471.32 1428.62 1574.62 1359.56 1542.97 1277.81 1471.32 1428.62"/><polygon class="cls-2" points="1574.62 1359.56 1630.52 1188.72 1542.97 1277.81 1574.62 1359.56"/><polygon class="cls-2" points="1630.52 1188.72 1634.94 1001.91 1603.99 1082.77 1630.52 1188.72"/><polygon class="cls-2" points="998.45 1613.84 913.3 1625.11 1017.2 1657.44 998.45 1613.84"/><polygon class="cls-2" points="998.45 1613.84 1017.2 1657.44 1088.69 1620.64 998.45 1613.84"/><polygon class="cls-2" points="383.58 979.2 297.32 930.38 341.37 1088.46 383.58 979.2"/><polygon class="cls-2" points="383.58 979.2 363.39 897.55 297.32 930.38 383.58 979.2"/><polygon class="cls-2" points="641.05 1505.13 519.91 1480.55 645.31 1583.4 641.05 1505.13"/><polygon class="cls-2" points="641.05 1505.13 562.39 1456.59 519.91 1480.55 641.05 1505.13"/><polygon class="cls-2" points="1455.17 582.39 1426.47 454.83 1322.75 441.82 1455.17 582.39"/><polygon class="cls-2" points="1560.75 674.42 1551.88 602.36 1455.17 582.39 1560.75 674.42"/><polygon class="cls-2" points="1551.88 602.36 1426.47 454.83 1455.17 582.39 1551.88 602.36"/><polygon class="cls-2" points="799.15 413.24 808.84 360.73 699.63 365.13 799.15 413.24"/><polygon class="cls-2" points="799.15 413.24 699.63 365.13 634.82 454.3 799.15 413.24"/><polygon class="cls-3" points="932.72 372 808.84 360.73 799.15 413.24 932.72 372"/><polygon class="cls-3" points="426.71 1240.93 341.37 1088.46 327.19 1199.54 426.71 1240.93"/><polygon class="cls-2" points="426.71 1240.93 372.07 1271.28 426.83 1338.73 426.71 1240.93"/><polygon class="cls-2" points="426.71 1240.93 327.19 1199.54 372.07 1271.28 426.71 1240.93"/><polygon class="cls-2" points="1130.53 1670.8 1274.81 1575.69 1185.15 1597.92 1130.53 1670.8"/><polygon class="cls-2" points="1088.69 1620.64 1130.53 1670.8 1185.15 1597.92 1088.69 1620.64"/><polygon class="cls-2" points="1017.2 1657.44 1130.53 1670.8 1088.69 1620.64 1017.2 1657.44"/><polygon class="cls-2" points="913.3 1625.11 893.45 1683.74 1017.2 1657.44 913.3 1625.11"/><polygon class="cls-2" points="913.3 1625.11 816.15 1618.06 893.45 1683.74 913.3 1625.11"/><polygon class="cls-2" points="932.72 372 959.46 289.08 821.51 318.3 932.72 372"/><polygon class="cls-2" points="932.72 372 821.51 318.3 808.84 360.73 932.72 372"/><polygon class="cls-2" points="1062.4 346.89 959.46 289.08 932.72 372 1062.4 346.89"/><polygon class="cls-2" points="562.39 1456.59 490.61 1400.82 519.91 1480.55 562.39 1456.59"/><polygon class="cls-2" points="468.38 654.59 476.74 582.85 363.39 667.23 468.38 654.59"/><polygon class="cls-2" points="468.38 654.59 363.39 667.23 353.21 740.33 468.38 654.59"/><polygon class="cls-2" points="1630.52 1188.72 1697.06 1034.6 1634.94 1001.91 1630.52 1188.72"/><polygon class="cls-2" points="1697.06 1034.6 1655.83 921.01 1634.94 1001.91 1697.06 1034.6"/><polygon class="cls-2" points="1252.2 1634.09 1360.11 1544.38 1274.81 1575.69 1252.2 1634.09"/><polygon class="cls-3" points="1130.53 1670.8 1252.2 1634.09 1274.81 1575.69 1130.53 1670.8"/><polygon class="cls-2" points="1544.06 1439.56 1574.62 1359.56 1471.32 1428.62 1544.06 1439.56"/><polygon class="cls-2" points="1439.72 1504.47 1544.06 1439.56 1471.32 1428.62 1439.72 1504.47"/><polygon class="cls-2" points="1360.11 1544.38 1439.72 1504.47 1471.32 1428.62 1360.11 1544.38"/><polygon class="cls-2" points="363.39 897.55 353.21 817.51 297.32 930.38 363.39 897.55"/><polygon class="cls-2" points="816.15 1618.06 843.03 1702.73 893.45 1683.74 816.15 1618.06"/><polygon class="cls-2" points="816.15 1618.06 769.76 1660.42 843.03 1702.73 816.15 1618.06"/><polygon class="cls-3" points="816.15 1618.06 728.6 1605.51 769.76 1660.42 816.15 1618.06"/><polygon class="cls-2" points="1322.75 441.82 1306.99 387.92 1182.08 338.8 1322.75 441.82"/><polygon class="cls-2" points="1426.47 454.83 1306.99 387.92 1322.75 441.82 1426.47 454.83"/><polygon class="cls-2" points="490.61 1400.82 391.09 1370.81 519.91 1480.55 490.61 1400.82"/><polygon class="cls-2" points="490.61 1400.82 426.83 1338.73 391.09 1370.81 490.61 1400.82"/><polygon class="cls-2" points="1639.84 703.35 1551.88 602.36 1560.75 674.42 1639.84 703.35"/><polygon class="cls-2" points="1618.43 794.55 1639.84 703.35 1560.75 674.42 1618.43 794.55"/><polygon class="cls-2" points="1330.53 1620.8 1439.72 1504.47 1360.11 1544.38 1330.53 1620.8"/><polygon class="cls-2" points="1252.2 1634.09 1330.53 1620.8 1360.11 1544.38 1252.2 1634.09"/><polygon class="cls-2" points="1655.83 921.01 1687.79 865.6 1618.43 794.55 1655.83 921.01"/><polygon class="cls-2" points="1687.79 865.6 1639.84 703.35 1618.43 794.55 1687.79 865.6"/><polygon class="cls-2" points="634.82 454.3 699.63 365.13 581.9 427.5 634.82 454.3"/><polygon class="cls-2" points="634.82 454.3 581.9 427.5 525.11 499.32 634.82 454.3"/><polygon class="cls-2" points="1182.08 338.8 1058.13 305.38 1062.4 346.89 1182.08 338.8"/><polygon class="cls-2" points="1062.4 346.89 1058.13 305.38 959.46 289.08 1062.4 346.89"/><polygon class="cls-2" points="1017.2 1657.44 1027.67 1701.06 1130.53 1670.8 1017.2 1657.44"/><polygon class="cls-2" points="1017.2 1657.44 893.45 1683.74 1027.67 1701.06 1017.2 1657.44"/><polygon class="cls-2" points="1675.04 1224 1697.06 1034.6 1630.52 1188.72 1675.04 1224"/><polygon class="cls-2" points="1629.8 1294.11 1675.04 1224 1630.52 1188.72 1629.8 1294.11"/><polygon class="cls-2" points="1574.62 1359.56 1629.8 1294.11 1630.52 1188.72 1574.62 1359.56"/><polygon class="cls-3" points="1697.06 1034.6 1687.79 865.6 1655.83 921.01 1697.06 1034.6"/><polygon class="cls-2" points="728.6 1605.51 699.17 1655.26 769.76 1660.42 728.6 1605.51"/><polygon class="cls-2" points="728.6 1605.51 645.31 1583.4 699.17 1655.26 728.6 1605.51"/><polygon class="cls-2" points="341.37 1088.46 297.32 930.38 269.73 1047.78 341.37 1088.46"/><polygon class="cls-2" points="341.37 1088.46 292.9 1124.65 327.19 1199.54 341.37 1088.46"/><polygon class="cls-2" points="341.37 1088.46 269.73 1047.78 292.9 1124.65 341.37 1088.46"/><polygon class="cls-2" points="426.83 1338.73 372.07 1271.28 391.09 1370.81 426.83 1338.73"/><polygon class="cls-2" points="808.84 360.73 821.51 318.3 699.63 365.13 808.84 360.73"/><polygon class="cls-2" points="476.74 582.85 525.11 499.32 434 556.53 476.74 582.85"/><polygon class="cls-2" points="476.74 582.85 434 556.53 363.39 667.23 476.74 582.85"/><polygon class="cls-2" points="1403.62 1597.71 1492.19 1530.1 1439.72 1504.47 1403.62 1597.71"/><polygon class="cls-2" points="1439.72 1504.47 1492.19 1530.1 1544.06 1439.56 1439.72 1504.47"/><polygon class="cls-2" points="1330.53 1620.8 1403.62 1597.71 1439.72 1504.47 1330.53 1620.8"/><polygon class="cls-3" points="353.21 817.51 353.21 740.33 278.59 839.91 353.21 817.51"/><polygon class="cls-2" points="353.21 817.51 278.59 839.91 297.32 930.38 353.21 817.51"/><polygon class="cls-2" points="519.91 1480.55 496.66 1512.04 567.59 1552.08 519.91 1480.55"/><polygon class="cls-2" points="519.91 1480.55 391.09 1370.81 433.65 1463.91 519.91 1480.55"/><polygon class="cls-2" points="645.31 1583.4 519.91 1480.55 567.59 1552.08 645.31 1583.4"/><polygon class="cls-2" points="519.91 1480.55 433.65 1463.91 496.66 1512.04 519.91 1480.55"/><polygon class="cls-2" points="1544.06 1439.56 1629.8 1294.11 1574.62 1359.56 1544.06 1439.56"/><polygon class="cls-2" points="1551.88 602.36 1534.28 536.56 1426.47 454.83 1551.88 602.36"/><polygon class="cls-2" points="1639.84 703.35 1534.28 536.56 1551.88 602.36 1639.84 703.35"/><polygon class="cls-2" points="645.31 1583.4 559.05 1581.66 699.17 1655.26 645.31 1583.4"/><polygon class="cls-2" points="645.31 1583.4 567.59 1552.08 559.05 1581.66 645.31 1583.4"/><polygon class="cls-2" points="1139.2 1708.11 1330.53 1620.8 1252.2 1634.09 1139.2 1708.11"/><polygon class="cls-2" points="1130.53 1670.8 1139.2 1708.11 1252.2 1634.09 1130.53 1670.8"/><polygon class="cls-2" points="372.07 1271.28 327.19 1199.54 300.43 1237.72 372.07 1271.28"/><polygon class="cls-2" points="372.07 1271.28 300.43 1237.72 391.09 1370.81 372.07 1271.28"/><polygon class="cls-2" points="1027.67 1701.06 1139.2 1708.11 1130.53 1670.8 1027.67 1701.06"/><polygon class="cls-3" points="1306.99 387.92 1286.36 343.67 1182.08 338.8 1306.99 387.92"/><polygon class="cls-2" points="1426.47 454.83 1286.36 343.67 1306.99 387.92 1426.47 454.83"/><polygon class="cls-2" points="1182.08 338.8 1051.89 265.35 1058.13 305.38 1182.08 338.8"/><polygon class="cls-2" points="1182.08 338.8 1194.49 293.09 1051.89 265.35 1182.08 338.8"/><polygon class="cls-2" points="1286.36 343.67 1194.49 293.09 1182.08 338.8 1286.36 343.67"/><polygon class="cls-3" points="525.11 499.32 581.9 427.5 461.44 497.06 525.11 499.32"/><polygon class="cls-2" points="525.11 499.32 461.44 497.06 434 556.53 525.11 499.32"/><polygon class="cls-2" points="893.45 1683.74 1041.7 1728.38 1027.67 1701.06 893.45 1683.74"/><polygon class="cls-2" points="893.45 1683.74 938.13 1726.5 1041.7 1728.38 893.45 1683.74"/><polygon class="cls-2" points="893.45 1683.74 843.03 1702.73 938.13 1726.5 893.45 1683.74"/><polygon class="cls-2" points="1426.47 454.83 1384.54 368.43 1286.36 343.67 1426.47 454.83"/><polygon class="cls-2" points="1534.28 536.56 1508.24 478.06 1426.47 454.83 1534.28 536.56"/><polygon class="cls-2" points="1508.24 478.06 1384.54 368.43 1426.47 454.83 1508.24 478.06"/><polygon class="cls-2" points="353.21 740.33 363.39 667.23 302.89 739.5 353.21 740.33"/><polygon class="cls-2" points="353.21 740.33 302.89 739.5 278.59 839.91 353.21 740.33"/><polygon class="cls-2" points="1058.13 305.38 1051.89 265.35 959.46 289.08 1058.13 305.38"/><polygon class="cls-2" points="1653.73 1330.52 1675.04 1224 1629.8 1294.11 1653.73 1330.52"/><polygon class="cls-2" points="1544.06 1439.56 1653.73 1330.52 1629.8 1294.11 1544.06 1439.56"/><polygon class="cls-2" points="769.76 1660.42 795.06 1710.63 843.03 1702.73 769.76 1660.42"/><polygon class="cls-2" points="769.76 1660.42 699.17 1655.26 795.06 1710.63 769.76 1660.42"/><polygon class="cls-2" points="1697.06 1034.6 1730.01 943.43 1687.79 865.6 1697.06 1034.6"/><polygon class="cls-2" points="1709.63 1150.36 1732.97 1074.33 1697.06 1034.6 1709.63 1150.36"/><polygon class="cls-2" points="1675.04 1224 1709.63 1150.36 1697.06 1034.6 1675.04 1224"/><polygon class="cls-2" points="1732.97 1074.33 1730.01 943.43 1697.06 1034.6 1732.97 1074.33"/><polygon class="cls-2" points="567.59 1552.08 496.66 1512.04 559.05 1581.66 567.59 1552.08"/><polygon class="cls-2" points="327.19 1199.54 292.9 1124.65 300.43 1237.72 327.19 1199.54"/><polygon class="cls-2" points="1687.79 865.6 1703.74 814.05 1639.84 703.35 1687.79 865.6"/><polygon class="cls-2" points="1730.01 943.43 1703.74 814.05 1687.79 865.6 1730.01 943.43"/><polygon class="cls-2" points="1027.67 1701.06 1041.7 1728.38 1139.2 1708.11 1027.67 1701.06"/><polygon class="cls-2" points="699.63 365.13 768.6 300.82 665.13 329.34 699.63 365.13"/><polygon class="cls-2" points="699.63 365.13 665.13 329.34 609.75 380.6 699.63 365.13"/><polygon class="cls-2" points="821.51 318.3 768.6 300.82 699.63 365.13 821.51 318.3"/><polygon class="cls-2" points="699.63 365.13 609.75 380.6 581.9 427.5 699.63 365.13"/><polygon class="cls-2" points="1554.2 1484.24 1653.73 1330.52 1544.06 1439.56 1554.2 1484.24"/><polygon class="cls-2" points="1492.19 1530.1 1554.2 1484.24 1544.06 1439.56 1492.19 1530.1"/><polygon class="cls-2" points="821.51 318.3 847.94 276.04 768.6 300.82 821.51 318.3"/><polygon class="cls-2" points="959.46 289.08 847.94 276.04 821.51 318.3 959.46 289.08"/><polygon class="cls-2" points="1254.31 1685.57 1347.29 1652.71 1330.53 1620.8 1254.31 1685.57"/><polygon class="cls-2" points="1330.53 1620.8 1347.29 1652.71 1403.62 1597.71 1330.53 1620.8"/><polygon class="cls-2" points="1139.2 1708.11 1254.31 1685.57 1330.53 1620.8 1139.2 1708.11"/><polygon class="cls-2" points="297.32 930.38 278.59 839.91 258.05 970.14 297.32 930.38"/><polygon class="cls-2" points="297.32 930.38 258.05 970.14 269.73 1047.78 297.32 930.38"/><polygon class="cls-2" points="1639.84 703.35 1599.56 568.19 1534.28 536.56 1639.84 703.35"/><polygon class="cls-2" points="1703.74 814.05 1692.64 739.79 1639.84 703.35 1703.74 814.05"/><polygon class="cls-2" points="1692.64 739.79 1599.56 568.19 1639.84 703.35 1692.64 739.79"/><polygon class="cls-2" points="581.9 427.5 609.75 380.6 555.51 399.26 581.9 427.5"/><polygon class="cls-2" points="581.9 427.5 555.51 399.26 461.44 497.06 581.9 427.5"/><polygon class="cls-2" points="1599.56 568.19 1508.24 478.06 1534.28 536.56 1599.56 568.19"/><polygon class="cls-2" points="959.46 289.08 1051.89 265.35 918.01 258.01 959.46 289.08"/><polygon class="cls-2" points="959.46 289.08 918.01 258.01 847.94 276.04 959.46 289.08"/><polygon class="cls-2" points="391.09 1370.81 300.43 1237.72 335.19 1346.54 391.09 1370.81"/><polygon class="cls-2" points="391.09 1370.81 335.19 1346.54 379.54 1408.45 391.09 1370.81"/><polygon class="cls-2" points="391.09 1370.81 379.54 1408.45 433.65 1463.91 391.09 1370.81"/><polygon class="cls-2" points="1653.73 1330.52 1709.63 1150.36 1675.04 1224 1653.73 1330.52"/><polygon class="cls-2" points="1286.36 343.67 1248.34 298.77 1194.49 293.09 1286.36 343.67"/><polygon class="cls-2" points="1384.54 368.43 1248.34 298.77 1286.36 343.67 1384.54 368.43"/><polygon class="cls-2" points="292.9 1124.65 269.73 1047.78 253.63 1089.65 292.9 1124.65"/><polygon class="cls-2" points="292.9 1124.65 253.63 1089.65 300.43 1237.72 292.9 1124.65"/><polygon class="cls-2" points="363.39 667.23 434 556.53 342.85 645.53 363.39 667.23"/><polygon class="cls-2" points="363.39 667.23 342.85 645.53 302.89 739.5 363.39 667.23"/><polygon class="cls-2" points="496.66 1512.04 440.77 1499.14 559.05 1581.66 496.66 1512.04"/><polygon class="cls-2" points="496.66 1512.04 433.65 1463.91 440.77 1499.14 496.66 1512.04"/><polygon class="cls-2" points="434 556.53 422.14 521.31 342.85 645.53 434 556.53"/><polygon class="cls-2" points="434 556.53 461.44 497.06 422.14 521.31 434 556.53"/><polygon class="cls-2" points="843.03 1702.73 919.51 1741.73 938.13 1726.5 843.03 1702.73"/><polygon class="cls-2" points="843.03 1702.73 795.06 1710.63 919.51 1741.73 843.03 1702.73"/><polygon class="cls-2" points="699.17 1655.26 750.29 1707.31 795.06 1710.63 699.17 1655.26"/><polygon class="cls-2" points="699.17 1655.26 603.24 1626.95 750.29 1707.31 699.17 1655.26"/><polygon class="cls-2" points="699.17 1655.26 559.05 1581.66 603.24 1626.95 699.17 1655.26"/><polygon class="cls-2" points="1041.7 1728.38 1182.64 1717.67 1139.2 1708.11 1041.7 1728.38"/><polygon class="cls-2" points="1139.2 1708.11 1182.64 1717.67 1254.31 1685.57 1139.2 1708.11"/><polygon class="cls-2" points="1347.29 1652.71 1486.3 1562.67 1403.62 1597.71 1347.29 1652.71"/><polygon class="cls-2" points="1403.62 1597.71 1486.3 1562.67 1492.19 1530.1 1403.62 1597.71"/><polygon class="cls-2" points="1486.3 1562.67 1554.2 1484.24 1492.19 1530.1 1486.3 1562.67"/><polygon class="cls-2" points="1722.72 1191.33 1732.97 1074.33 1709.63 1150.36 1722.72 1191.33"/><polygon class="cls-2" points="1653.73 1330.52 1722.72 1191.33 1709.63 1150.36 1653.73 1330.52"/><polygon class="cls-2" points="938.13 1726.5 1055.05 1744.19 1041.7 1728.38 938.13 1726.5"/><polygon class="cls-2" points="938.13 1726.5 919.51 1741.73 1055.05 1744.19 938.13 1726.5"/><polygon class="cls-2" points="1508.24 478.06 1474.15 427.78 1384.54 368.43 1508.24 478.06"/><polygon class="cls-2" points="1599.56 568.19 1474.15 427.78 1508.24 478.06 1599.56 568.19"/><polygon class="cls-2" points="1041.7 1728.38 1055.05 1744.19 1182.64 1717.67 1041.7 1728.38"/><polygon class="cls-2" points="1730.01 943.43 1734.46 855.07 1703.74 814.05 1730.01 943.43"/><polygon class="cls-2" points="1734.46 855.07 1692.64 739.79 1703.74 814.05 1734.46 855.07"/><polygon class="cls-2" points="559.05 1581.66 519.78 1578.85 603.24 1626.95 559.05 1581.66"/><polygon class="cls-2" points="559.05 1581.66 440.77 1499.14 519.78 1578.85 559.05 1581.66"/><polygon class="cls-2" points="609.75 380.6 665.13 329.34 555.51 399.26 609.75 380.6"/><polygon class="cls-2" points="269.73 1047.78 258.05 970.14 253.63 1089.65 269.73 1047.78"/><polygon class="cls-2" points="433.65 1463.91 379.54 1408.45 440.77 1499.14 433.65 1463.91"/><polygon class="cls-2" points="1182.64 1717.67 1347.29 1652.71 1254.31 1685.57 1182.64 1717.67"/><polygon class="cls-2" points="1194.49 293.09 1248.34 298.77 1110.61 261.51 1194.49 293.09"/><polygon class="cls-2" points="1194.49 293.09 1110.61 261.51 1051.89 265.35 1194.49 293.09"/><polygon class="cls-2" points="1732.97 1074.33 1749.19 1024.23 1730.01 943.43 1732.97 1074.33"/><polygon class="cls-2" points="1749.19 1024.23 1734.46 855.07 1730.01 943.43 1749.19 1024.23"/><polygon class="cls-2" points="1607.43 1430.73 1651.08 1370.42 1653.73 1330.52 1607.43 1430.73"/><polygon class="cls-2" points="1554.2 1484.24 1607.43 1430.73 1653.73 1330.52 1554.2 1484.24"/><polygon class="cls-2" points="1651.08 1370.42 1722.72 1191.33 1653.73 1330.52 1651.08 1370.42"/><polygon class="cls-2" points="768.6 300.82 847.94 276.04 736.71 295.7 768.6 300.82"/><polygon class="cls-2" points="768.6 300.82 736.71 295.7 665.13 329.34 768.6 300.82"/><polygon class="cls-2" points="461.44 497.06 555.51 399.26 422.14 521.31 461.44 497.06"/><polygon class="cls-2" points="1110.61 261.51 1039.99 248.26 1051.89 265.35 1110.61 261.51"/><polygon class="cls-2" points="1051.89 265.35 1039.99 248.26 918.01 258.01 1051.89 265.35"/><polygon class="cls-2" points="1486.3 1562.67 1607.43 1430.73 1554.2 1484.24 1486.3 1562.67"/><polygon class="cls-2" points="278.59 839.91 302.89 739.5 269.73 817.46 278.59 839.91"/><polygon class="cls-2" points="258.05 970.14 278.59 839.91 249.19 947.08 258.05 970.14"/><polygon class="cls-2" points="278.59 839.91 269.73 817.46 249.19 947.08 278.59 839.91"/><polygon class="cls-2" points="300.43 1237.72 278.41 1207.36 301.31 1279.16 300.43 1237.72"/><polygon class="cls-2" points="300.43 1237.72 253.63 1089.65 278.41 1207.36 300.43 1237.72"/><polygon class="cls-2" points="300.43 1237.72 301.31 1279.16 335.19 1346.54 300.43 1237.72"/><polygon class="cls-2" points="1722.72 1191.33 1749.19 1024.23 1732.97 1074.33 1722.72 1191.33"/><polygon class="cls-2" points="795.06 1710.63 902.14 1745.26 919.51 1741.73 795.06 1710.63"/><polygon class="cls-2" points="795.06 1710.63 750.29 1707.31 902.14 1745.26 795.06 1710.63"/><polygon class="cls-2" points="847.94 276.04 875.27 257.25 736.71 295.7 847.94 276.04"/><polygon class="cls-2" points="918.01 258.01 875.27 257.25 847.94 276.04 918.01 258.01"/><polygon class="cls-2" points="1599.56 568.19 1529.75 469.49 1474.15 427.78 1599.56 568.19"/><polygon class="cls-2" points="1670.56 669.62 1637.88 604.65 1599.56 568.19 1670.56 669.62"/><polygon class="cls-2" points="1692.64 739.79 1670.56 669.62 1599.56 568.19 1692.64 739.79"/><polygon class="cls-2" points="1637.88 604.65 1529.75 469.49 1599.56 568.19 1637.88 604.65"/><polygon class="cls-2" points="1223.18 1715.89 1360.54 1656.3 1347.29 1652.71 1223.18 1715.89"/><polygon class="cls-2" points="1347.29 1652.71 1404.72 1629.24 1486.3 1562.67 1347.29 1652.71"/><polygon class="cls-2" points="1347.29 1652.71 1360.54 1656.3 1404.72 1629.24 1347.29 1652.71"/><polygon class="cls-2" points="1182.64 1717.67 1223.18 1715.89 1347.29 1652.71 1182.64 1717.67"/><polygon class="cls-2" points="1384.54 368.43 1409.69 371.59 1287.45 305.69 1384.54 368.43"/><polygon class="cls-2" points="1474.15 427.78 1409.69 371.59 1384.54 368.43 1474.15 427.78"/><polygon class="cls-2" points="1384.54 368.43 1287.45 305.69 1248.34 298.77 1384.54 368.43"/><polygon class="cls-2" points="1055.05 1744.19 1223.18 1715.89 1182.64 1717.67 1055.05 1744.19"/><polygon class="cls-2" points="302.89 739.5 292.9 744.82 269.73 817.46 302.89 739.5"/><polygon class="cls-2" points="302.89 739.5 342.85 645.53 292.9 744.82 302.89 739.5"/><polygon class="cls-2" points="258.05 970.14 249.19 947.08 253.63 1089.65 258.05 970.14"/><polygon class="cls-2" points="1734.46 855.07 1670.56 669.62 1692.64 739.79 1734.46 855.07"/><polygon class="cls-2" points="379.54 1408.45 335.19 1346.54 357.52 1385.21 379.54 1408.45"/><polygon class="cls-2" points="379.54 1408.45 357.52 1385.21 440.77 1499.14 379.54 1408.45"/><polygon class="cls-2" points="603.24 1626.95 611.28 1642.7 750.29 1707.31 603.24 1626.95"/><polygon class="cls-2" points="603.24 1626.95 519.78 1578.85 611.28 1642.7 603.24 1626.95"/><polygon class="cls-2" points="1529.75 469.49 1409.69 371.59 1474.15 427.78 1529.75 469.49"/><polygon class="cls-2" points="1248.34 298.77 1198.88 274.91 1110.61 261.51 1248.34 298.77"/><polygon class="cls-2" points="1287.45 305.69 1198.88 274.91 1248.34 298.77 1287.45 305.69"/><polygon class="cls-2" points="918.01 258.01 1039.99 248.26 875.27 257.25 918.01 258.01"/><polygon class="cls-2" points="342.85 645.53 422.14 521.31 345.81 628.1 342.85 645.53"/><polygon class="cls-2" points="342.85 645.53 345.81 628.1 292.9 744.82 342.85 645.53"/><polygon class="cls-2" points="1486.3 1562.67 1584.9 1467.3 1607.43 1430.73 1486.3 1562.67"/><polygon class="cls-2" points="1404.72 1629.24 1455.74 1595.83 1486.3 1562.67 1404.72 1629.24"/><polygon class="cls-2" points="1455.74 1595.83 1584.9 1467.3 1486.3 1562.67 1455.74 1595.83"/><polygon class="cls-2" points="1110.61 261.51 1198.88 274.91 1039.99 248.26 1110.61 261.51"/><polygon class="cls-2" points="919.51 1741.73 1067.51 1748.26 1055.05 1744.19 919.51 1741.73"/><polygon class="cls-2" points="919.51 1741.73 902.14 1745.26 1067.51 1748.26 919.51 1741.73"/><polygon class="cls-2" points="1055.05 1744.19 1067.51 1748.26 1223.18 1715.89 1055.05 1744.19"/><polygon class="cls-2" points="1584.9 1467.3 1651.08 1370.42 1607.43 1430.73 1584.9 1467.3"/><polygon class="cls-2" points="555.51 399.26 665.13 329.34 592.18 369.28 555.51 399.26"/><polygon class="cls-2" points="555.51 399.26 592.18 369.28 529.13 417.75 555.51 399.26"/><polygon class="cls-2" points="555.51 399.26 529.13 417.75 422.14 521.31 555.51 399.26"/><polygon class="cls-2" points="335.19 1346.54 301.31 1279.16 357.52 1385.21 335.19 1346.54"/><polygon class="cls-2" points="1734.46 855.07 1688.21 710.38 1670.56 669.62 1734.46 855.07"/><polygon class="cls-2" points="1688.21 710.38 1637.88 604.65 1670.56 669.62 1688.21 710.38"/><polygon class="cls-2" points="1360.54 1656.3 1455.74 1595.83 1404.72 1629.24 1360.54 1656.3"/><polygon class="cls-2" points="440.77 1499.14 357.52 1385.21 436.35 1481.52 440.77 1499.14"/><polygon class="cls-2" points="440.77 1499.14 473.93 1534.4 519.78 1578.85 440.77 1499.14"/><polygon class="cls-2" points="440.77 1499.14 436.35 1481.52 473.93 1534.4 440.77 1499.14"/><polygon class="cls-2" points="736.71 295.7 727.85 300.62 665.13 329.34 736.71 295.7"/><polygon class="cls-2" points="665.13 329.34 727.85 300.62 592.18 369.28 665.13 329.34"/><polygon class="cls-2" points="750.29 1707.31 781 1709.3 902.14 1745.26 750.29 1707.31"/><polygon class="cls-2" points="750.29 1707.31 709.44 1692.83 781 1709.3 750.29 1707.31"/><polygon class="cls-2" points="750.29 1707.31 611.28 1642.7 709.44 1692.83 750.29 1707.31"/><polygon class="cls-2" points="1706.95 1233.28 1738.83 1105.56 1722.72 1191.33 1706.95 1233.28"/><polygon class="cls-2" points="1722.72 1191.33 1738.83 1105.56 1749.19 1024.23 1722.72 1191.33"/><polygon class="cls-2" points="1684.42 1304.26 1706.95 1233.28 1722.72 1191.33 1684.42 1304.26"/><polygon class="cls-2" points="1651.08 1370.42 1684.42 1304.26 1722.72 1191.33 1651.08 1370.42"/><polygon class="cls-2" points="422.14 521.31 529.13 417.75 467.31 474.8 422.14 521.31"/><polygon class="cls-2" points="422.14 521.31 467.31 474.8 389.45 567.79 422.14 521.31"/><polygon class="cls-2" points="422.14 521.31 389.45 567.79 345.81 628.1 422.14 521.31"/><polygon class="cls-2" points="1749.19 1024.23 1747.71 974.27 1734.46 855.07 1749.19 1024.23"/><polygon class="cls-2" points="1738.83 1105.56 1747.71 974.27 1749.19 1024.23 1738.83 1105.56"/><polygon class="cls-2" points="736.71 295.7 875.27 257.25 727.85 300.62 736.71 295.7"/><polygon class="cls-2" points="1067.51 1748.26 1183.92 1716.61 1223.18 1715.89 1067.51 1748.26"/><polygon class="cls-2" points="1223.18 1715.89 1260.18 1702.82 1360.54 1656.3 1223.18 1715.89"/><polygon class="cls-2" points="1223.18 1715.89 1183.92 1716.61 1260.18 1702.82 1223.18 1715.89"/><polygon class="cls-2" points="1747.71 974.27 1735.89 897.48 1734.46 855.07 1747.71 974.27"/><polygon class="cls-2" points="1735.89 897.48 1688.21 710.38 1734.46 855.07 1735.89 897.48"/><polygon class="cls-2" points="253.63 1089.65 249.19 947.08 256.59 1028.52 253.63 1089.65"/><polygon class="cls-2" points="253.63 1089.65 266.88 1132.28 278.41 1207.36 253.63 1089.65"/><polygon class="cls-2" points="253.63 1089.65 256.59 1028.52 266.88 1132.28 253.63 1089.65"/><polygon class="cls-2" points="1287.45 305.69 1329.61 333.47 1198.88 274.91 1287.45 305.69"/><polygon class="cls-2" points="1409.69 371.59 1329.61 333.47 1287.45 305.69 1409.69 371.59"/><polygon class="cls-2" points="1584.9 1467.3 1684.42 1304.26 1651.08 1370.42 1584.9 1467.3"/><polygon class="cls-2" points="269.73 817.46 283.04 822.33 263.92 924.19 269.73 817.46"/><polygon class="cls-2" points="269.73 817.46 292.9 744.82 283.04 822.33 269.73 817.46"/><polygon class="cls-2" points="249.19 947.08 269.73 817.46 263.92 924.19 249.19 947.08"/><polygon class="cls-2" points="519.78 1578.85 473.93 1534.4 533.03 1563.5 519.78 1578.85"/><polygon class="cls-2" points="519.78 1578.85 533.03 1563.5 611.28 1642.7 519.78 1578.85"/><polygon class="cls-2" points="1039.99 248.26 1121.02 264.11 987.08 251.86 1039.99 248.26"/><polygon class="cls-2" points="1198.88 274.91 1121.02 264.11 1039.99 248.26 1198.88 274.91"/><polygon class="cls-2" points="1039.99 248.26 987.08 251.86 875.27 257.25 1039.99 248.26"/><polygon class="cls-2" points="301.31 1279.16 278.41 1207.36 314.55 1247.03 301.31 1279.16"/><polygon class="cls-2" points="301.31 1279.16 314.55 1247.03 357.52 1385.21 301.31 1279.16"/><polygon class="cls-2" points="1637.88 604.65 1595.13 545.91 1529.75 469.49 1637.88 604.65"/><polygon class="cls-2" points="1688.21 710.38 1595.13 545.91 1637.88 604.65 1688.21 710.38"/></svg>