<svg id="Circular_element" data-name="Circular element" xmlns="http://www.w3.org/2000/svg" viewBox="0 0 2000 2000"><defs><style>.cls-1,.cls-10,.cls-100,.cls-101,.cls-102,.cls-103,.cls-104,.cls-105,.cls-106,.cls-107,.cls-108,.cls-109,.cls-11,.cls-110,.cls-111,.cls-112,.cls-113,.cls-114,.cls-115,.cls-116,.cls-117,.cls-118,.cls-119,.cls-12,.cls-120,.cls-121,.cls-122,.cls-123,.cls-124,.cls-125,.cls-126,.cls-127,.cls-128,.cls-129,.cls-13,.cls-130,.cls-131,.cls-132,.cls-133,.cls-134,.cls-135,.cls-136,.cls-137,.cls-138,.cls-139,.cls-14,.cls-140,.cls-141,.cls-142,.cls-143,.cls-144,.cls-145,.cls-146,.cls-147,.cls-148,.cls-149,.cls-15,.cls-150,.cls-151,.cls-152,.cls-153,.cls-154,.cls-155,.cls-156,.cls-157,.cls-158,.cls-159,.cls-16,.cls-160,.cls-161,.cls-162,.cls-163,.cls-164,.cls-165,.cls-166,.cls-167,.cls-168,.cls-169,.cls-17,.cls-170,.cls-171,.cls-172,.cls-173,.cls-174,.cls-175,.cls-176,.cls-177,.cls-178,.cls-179,.cls-18,.cls-180,.cls-181,.cls-182,.cls-183,.cls-184,.cls-185,.cls-186,.cls-187,.cls-188,.cls-189,.cls-19,.cls-190,.cls-191,.cls-192,.cls-193,.cls-194,.cls-195,.cls-196,.cls-197,.cls-198,.cls-199,.cls-2,.cls-20,.cls-200,.cls-201,.cls-202,.cls-203,.cls-204,.cls-205,.cls-206,.cls-207,.cls-208,.cls-209,.cls-21,.cls-210,.cls-211,.cls-212,.cls-213,.cls-214,.cls-215,.cls-216,.cls-217,.cls-218,.cls-219,.cls-22,.cls-220,.cls-221,.cls-222,.cls-223,.cls-224,.cls-225,.cls-226,.cls-227,.cls-228,.cls-229,.cls-23,.cls-230,.cls-231,.cls-232,.cls-233,.cls-234,.cls-235,.cls-236,.cls-237,.cls-238,.cls-239,.cls-24,.cls-240,.cls-241,.cls-242,.cls-243,.cls-244,.cls-245,.cls-246,.cls-247,.cls-248,.cls-249,.cls-25,.cls-250,.cls-251,.cls-252,.cls-253,.cls-26,.cls-27,.cls-28,.cls-29,.cls-3,.cls-30,.cls-31,.cls-32,.cls-33,.cls-34,.cls-35,.cls-36,.cls-37,.cls-38,.cls-39,.cls-4,.cls-40,.cls-41,.cls-42,.cls-43,.cls-44,.cls-45,.cls-46,.cls-47,.cls-48,.cls-49,.cls-50,.cls-51,.cls-52,.cls-53,.cls-54,.cls-55,.cls-56,.cls-57,.cls-58,.cls-59,.cls-6,.cls-60,.cls-61,.cls-62,.cls-63,.cls-64,.cls-65,.cls-66,.cls-67,.cls-68,.cls-69,.cls-7,.cls-70,.cls-71,.cls-72,.cls-73,.cls-74,.cls-75,.cls-76,.cls-77,.cls-78,.cls-79,.cls-8,.cls-80,.cls-81,.cls-82,.cls-83,.cls-84,.cls-85,.cls-86,.cls-87,.cls-88,.cls-89,.cls-9,.cls-90,.cls-91,.cls-92,.cls-93,.cls-94,.cls-95,.cls-96,.cls-97,.cls-98,.cls-99{fill:#fff;}.cls-1{opacity:0;}.cls-2{opacity:0.07;}.cls-3{opacity:0.32;}.cls-4{opacity:0.07;}.cls-5{fill:#dd1920;}.cls-6{opacity:0.05;}.cls-7{opacity:0.09;}.cls-8{opacity:0.11;}.cls-9{opacity:0.15;}.cls-10{opacity:0.12;}.cls-11{opacity:0.21;}.cls-12{opacity:0.16;}.cls-13{opacity:0.1;}.cls-14{opacity:0.22;}.cls-15{opacity:0.24;}.cls-16{opacity:0.07;}.cls-17{opacity:0.14;}.cls-18{opacity:0.14;}.cls-19{opacity:0.06;}.cls-20{opacity:0.07;}.cls-21{opacity:0.09;}.cls-22{opacity:0.13;}.cls-23{opacity:0.06;}.cls-24{opacity:0.18;}.cls-25{opacity:0.18;}.cls-26{opacity:0.24;}.cls-27{opacity:0.24;}.cls-28{opacity:0.22;}.cls-29{opacity:0.09;}.cls-30{opacity:0.2;}.cls-31{opacity:0.2;}.cls-32{opacity:0.16;}.cls-33{opacity:0.1;}.cls-34{opacity:0.24;}.cls-35{opacity:0.09;}.cls-36{opacity:0.19;}.cls-37{opacity:0.14;}.cls-38{opacity:0.19;}.cls-39{opacity:0.24;}.cls-40{opacity:0.07;}.cls-41{opacity:0.23;}.cls-42{opacity:0.11;}.cls-43{opacity:0.1;}.cls-44{opacity:0.15;}.cls-45{opacity:0.08;}.cls-46{opacity:0.21;}.cls-47{opacity:0.12;}.cls-48{opacity:0.15;}.cls-49{opacity:0.21;}.cls-50{opacity:0.18;}.cls-51{opacity:0.09;}.cls-52{opacity:0.23;}.cls-53{opacity:0.12;}.cls-54{opacity:0.13;}.cls-55{opacity:0.25;}.cls-56{opacity:0.17;}.cls-57{opacity:0.12;}.cls-58{opacity:0.19;}.cls-59{opacity:0.19;}.cls-60{opacity:0.16;}.cls-61{opacity:0.19;}.cls-62{opacity:0.13;}.cls-63{opacity:0.12;}.cls-64{opacity:0.08;}.cls-65{opacity:0.1;}.cls-66{opacity:0.09;}.cls-67{opacity:0.11;}.cls-68{opacity:0.15;}.cls-69{opacity:0.22;}.cls-70{opacity:0.24;}.cls-71{opacity:0.08;}.cls-72{opacity:0.23;}.cls-73{opacity:0.17;}.cls-74{opacity:0.17;}.cls-75{opacity:0.22;}.cls-76{opacity:0.11;}.cls-77{opacity:0.05;}.cls-78{opacity:0.15;}.cls-79{opacity:0.21;}.cls-80{opacity:0.08;}.cls-81{opacity:0.15;}.cls-82{opacity:0.2;}.cls-83{opacity:0.16;}.cls-84{opacity:0.21;}.cls-85{opacity:0.16;}.cls-86{opacity:0.21;}.cls-87{opacity:0.09;}.cls-88{opacity:0.1;}.cls-89{opacity:0.15;}.cls-90{opacity:0.23;}.cls-91{opacity:0.19;}.cls-92{opacity:0.15;}.cls-93{opacity:0.2;}.cls-94{opacity:0.2;}.cls-95{opacity:0.22;}.cls-96{opacity:0.22;}.cls-97{opacity:0.25;}.cls-98{opacity:0.2;}.cls-99{opacity:0.18;}.cls-100{opacity:0.22;}.cls-101{opacity:0.23;}.cls-102{opacity:0.24;}.cls-103{opacity:0.09;}.cls-104{opacity:0.17;}.cls-105{opacity:0.19;}.cls-106{opacity:0.15;}.cls-107{opacity:0.15;}.cls-108{opacity:0.16;}.cls-109{opacity:0.16;}.cls-110{opacity:0.13;}.cls-111{opacity:0.15;}.cls-112{opacity:0.24;}.cls-113{opacity:0.08;}.cls-114{opacity:0.13;}.cls-115{opacity:0.13;}.cls-116{opacity:0.24;}.cls-117{opacity:0.21;}.cls-118{opacity:0.16;}.cls-119{opacity:0.22;}.cls-120{opacity:0.23;}.cls-121{opacity:0.16;}.cls-122{opacity:0.05;}.cls-123{opacity:0.25;}.cls-124{opacity:0.21;}.cls-125{opacity:0.2;}.cls-126{opacity:0.48;}.cls-127{opacity:0.74;}.cls-128{opacity:0.62;}.cls-129{opacity:0.3;}.cls-130{opacity:0.66;}.cls-131{opacity:0.55;}.cls-132{opacity:0.43;}.cls-133{opacity:0.68;}.cls-134{opacity:0.31;}.cls-135{opacity:0.35;}.cls-136{opacity:0.64;}.cls-137{opacity:0.26;}.cls-138{opacity:0.62;}.cls-139{opacity:0.71;}.cls-140{opacity:0.49;}.cls-141{opacity:0.68;}.cls-142{opacity:0.5;}.cls-143{opacity:0.54;}.cls-144{opacity:0.48;}.cls-145{opacity:0.37;}.cls-146{opacity:0.55;}.cls-147{opacity:0.4;}.cls-148{opacity:0.53;}.cls-149{opacity:0.29;}.cls-150{opacity:0.71;}.cls-151{opacity:0.62;}.cls-152{opacity:0.26;}.cls-153{opacity:0.54;}.cls-154{opacity:0.68;}.cls-155{opacity:0.34;}.cls-156{opacity:0.66;}.cls-157{opacity:0.39;}.cls-158{opacity:0.41;}.cls-159{opacity:0.36;}.cls-160{opacity:0.28;}.cls-161{opacity:0.5;}.cls-162{opacity:0.29;}.cls-163{opacity:0.63;}.cls-164{opacity:0.3;}.cls-165{opacity:0.72;}.cls-166{opacity:0.64;}.cls-167{opacity:0.66;}.cls-168{opacity:0.63;}.cls-169{opacity:0.58;}.cls-170{opacity:0.46;}.cls-171{opacity:0.36;}.cls-172{opacity:0.49;}.cls-173{opacity:0.56;}.cls-174{opacity:0.35;}.cls-175{opacity:0.59;}.cls-176{opacity:0.4;}.cls-177{opacity:0.7;}.cls-178{opacity:0.45;}.cls-179{opacity:0.66;}.cls-180{opacity:0.58;}.cls-181{opacity:0.31;}.cls-182{opacity:0.53;}.cls-183{opacity:0.55;}.cls-184{opacity:0.58;}.cls-185{opacity:0.27;}.cls-186{opacity:0.41;}.cls-187{opacity:0.56;}.cls-188{opacity:0.29;}.cls-189{opacity:0.74;}.cls-190{opacity:0.46;}.cls-191{opacity:0.35;}.cls-192{opacity:0.4;}.cls-193{opacity:0.73;}.cls-194{opacity:0.35;}.cls-195{opacity:0.41;}.cls-196{opacity:0.51;}.cls-197{opacity:0.32;}.cls-198{opacity:0.49;}.cls-199{opacity:0.58;}.cls-200{opacity:0.4;}.cls-201{opacity:0.74;}.cls-202{opacity:0.52;}.cls-203{opacity:0.4;}.cls-204{opacity:0.42;}.cls-205{opacity:0.45;}.cls-206{opacity:0.75;}.cls-207{opacity:0.47;}.cls-208{opacity:0.36;}.cls-209{opacity:0.35;}.cls-210{opacity:0.6;}.cls-211{opacity:0.26;}.cls-212{opacity:0.66;}.cls-213{opacity:0.45;}.cls-214{opacity:0.74;}.cls-215{opacity:0.26;}.cls-216{opacity:0.33;}.cls-217{opacity:0.69;}.cls-218{opacity:0.37;}.cls-219{opacity:0.44;}.cls-220{opacity:0.28;}.cls-221{opacity:0.72;}.cls-222{opacity:0.4;}.cls-223{opacity:0.64;}.cls-224{opacity:0.55;}.cls-225{opacity:0.39;}.cls-226{opacity:0.31;}.cls-227{opacity:0.73;}.cls-228{opacity:0.68;}.cls-229{opacity:0.52;}.cls-230{opacity:0.34;}.cls-231{opacity:0.75;}.cls-232{opacity:0.41;}.cls-233{opacity:0.58;}.cls-234{opacity:0.5;}.cls-235{opacity:0.73;}.cls-236{opacity:0.41;}.cls-237{opacity:0.48;}.cls-238{opacity:0.5;}.cls-239{opacity:0.34;}.cls-240{opacity:0.34;}.cls-241{opacity:0.36;}.cls-242{opacity:0.64;}.cls-243{opacity:0.47;}.cls-244{opacity:0.38;}.cls-245{opacity:0.34;}.cls-246{opacity:0.3;}.cls-247{opacity:0.46;}.cls-248{opacity:0.37;}.cls-249{opacity:0.25;}.cls-250{opacity:0.64;}.cls-251{opacity:0.61;}.cls-252{opacity:0.74;}.cls-253{opacity:0.43;}</style></defs><path class="cls-1" d="M1000,853.68c-80.68,0-146.32,65.64-146.32,146.32s65.64,146.32,146.32,146.32,146.32-65.64,146.32-146.32S1080.68,853.68,1000,853.68Z"/><path class="cls-2" d="M1004.76,753.28v91c82.15,2.47,148.53,68.85,151,151h91C1244.21,862.93,1137.06,755.79,1004.76,753.28Z"/><path class="cls-3" d="M1246.72,1004.76h-91c-2.48,82.15-68.86,148.53-151,151v91C1137.06,1244.21,1244.21,1137.07,1246.72,1004.76Z"/><path class="cls-4" d="M995.24,1246.72v-91c-82.15-2.47-148.53-68.85-151-151h-91C755.79,1137.07,862.94,1244.21,995.24,1246.72Z"/><path class="cls-5" d="M753.28,995.24h91c2.48-82.15,68.86-148.53,151-151v-91C862.94,755.79,755.79,862.93,753.28,995.24Z"/><path class="cls-6" d="M777.75,771,822,815.3a254.67,254.67,0,0,1,173.21-71.75V652.62A344.92,344.92,0,0,0,757.73,751Z"/><path class="cls-7" d="M815.3,822,751,757.73a344.92,344.92,0,0,0-98.38,237.51h90.93A254.67,254.67,0,0,1,815.3,822Z"/><path class="cls-8" d="M815.3,1178a254.69,254.69,0,0,1-71.75-173.21H652.62A344.92,344.92,0,0,0,751,1242.27Z"/><path class="cls-9" d="M995.24,1256.45A254.72,254.72,0,0,1,822,1184.7L777.75,1229l-20,20a344.92,344.92,0,0,0,237.51,98.38Z"/><path class="cls-10" d="M1222.25,1229,1178,1184.7a254.72,254.72,0,0,1-173.21,71.75v90.93A344.92,344.92,0,0,0,1242.27,1249Z"/><path class="cls-11" d="M1184.7,1178l64.3,64.3a344.92,344.92,0,0,0,98.38-237.51h-90.93A254.69,254.69,0,0,1,1184.7,1178Z"/><path class="cls-12" d="M1184.7,822a254.67,254.67,0,0,1,71.75,173.21h90.93A344.92,344.92,0,0,0,1249,757.73Z"/><path class="cls-13" d="M1004.76,743.55A254.67,254.67,0,0,1,1178,815.3L1222.25,771l20-20a344.92,344.92,0,0,0-237.51-98.38Z"/><path class="cls-14" d="M865.4,669.08a354.54,354.54,0,0,1,129.84-26.19V552A445.23,445.23,0,0,0,830,585.33Z"/><path class="cls-15" d="M821.21,589a446.39,446.39,0,0,0-134.66,90.78l43.52,43.52,20.78,20.78a355.9,355.9,0,0,1,105.78-71.33l-27.34-64.63Z"/><path class="cls-16" d="M629.92,838.49l42.87,18.14a355.77,355.77,0,0,1,71.33-105.78l-19.21-19.21-45.09-45.09a446.18,446.18,0,0,0-90.77,134.66Z"/><path class="cls-17" d="M642.89,995.24A354.75,354.75,0,0,1,669.08,865.4l-52.26-22.11L585.34,830A445,445,0,0,0,552,995.24Z"/><path class="cls-18" d="M616.82,1156.71l52.26-22.11a354.75,354.75,0,0,1-26.19-129.84H552A445,445,0,0,0,585.34,1170Z"/><path class="cls-19" d="M679.82,1313.45l45.09-45.09,19.21-19.21a355.9,355.9,0,0,1-71.33-105.78l-42.87,18.14-40.87,17.28A446.18,446.18,0,0,0,679.82,1313.45Z"/><path class="cls-20" d="M856.63,1327.21a355.9,355.9,0,0,1-105.78-71.33l-20.78,20.78-43.52,43.52A446.39,446.39,0,0,0,821.21,1411l8.08-19.13Z"/><path class="cls-21" d="M995.24,1448v-90.93a354.75,354.75,0,0,1-129.84-26.19L830,1414.67A445.23,445.23,0,0,0,995.24,1448Z"/><path class="cls-22" d="M1134.6,1330.92a354.75,354.75,0,0,1-129.84,26.19V1448A445.23,445.23,0,0,0,1170,1414.67Z"/><path class="cls-23" d="M1178.79,1411a446.39,446.39,0,0,0,134.66-90.78l-43.52-43.52-20.78-20.78a355.9,355.9,0,0,1-105.78,71.33l27.34,64.62Z"/><path class="cls-24" d="M1370.08,1161.51l-42.87-18.14a355.9,355.9,0,0,1-71.33,105.78l19.21,19.21,45.09,45.09A446.18,446.18,0,0,0,1411,1178.79Z"/><path class="cls-25" d="M1330.92,1134.6l52.26,22.11,31.48,13.32A445,445,0,0,0,1448,1004.76h-90.93A354.75,354.75,0,0,1,1330.92,1134.6Z"/><path class="cls-26" d="M1383.18,843.29l-52.26,22.11a354.75,354.75,0,0,1,26.19,129.84H1448A445,445,0,0,0,1414.66,830Z"/><path class="cls-27" d="M1320.18,686.55l-45.09,45.09-19.21,19.21a355.77,355.77,0,0,1,71.33,105.78l42.87-18.14L1411,821.21A446.18,446.18,0,0,0,1320.18,686.55Z"/><path class="cls-28" d="M1143.37,672.79a355.9,355.9,0,0,1,105.78,71.33l20.78-20.78,43.52-43.52A446.39,446.39,0,0,0,1178.79,589l-8.08,19.12Z"/><path class="cls-29" d="M1004.76,552v90.93a354.54,354.54,0,0,1,129.84,26.19L1170,585.33A445.23,445.23,0,0,0,1004.76,552Z"/><path class="cls-30" d="M1004.76,542.23a461.67,461.67,0,0,1,82.88,8.35l8.77-42.87,9.46-46.21a552.21,552.21,0,0,0-101.11-10.19Z"/><path class="cls-31" d="M1097,552.49a455.08,455.08,0,0,1,76.81,23.85l35.43-83.75a546.28,546.28,0,0,0-94-29.18l-10.89,53.22Z"/><path class="cls-32" d="M1182.55,580.05A457.51,457.51,0,0,1,1252,617.72l25.79-38.17,25.12-37.17A549.87,549.87,0,0,0,1218,496.3Z"/><path class="cls-33" d="M1310.76,547.7l-25.12,37.19-25.78,38.16a461.88,461.88,0,0,1,60.46,49.9l21.38-21.38,42.92-42.92A553,553,0,0,0,1310.76,547.7Z"/><path class="cls-34" d="M1350.9,655.83l-23.84,23.85A461.38,461.38,0,0,1,1377,740.15l32.18-21.75,43.16-29.16a552.17,552.17,0,0,0-60.94-73.86Z"/><path class="cls-35" d="M1414.62,726.19,1382.28,748A457,457,0,0,1,1420,817.45L1503.7,782a549.43,549.43,0,0,0-46.07-84.89Z"/><path class="cls-36" d="M1423.66,826.22A455.71,455.71,0,0,1,1447.51,903l79.6-16.29,9.48-1.94a546.07,546.07,0,0,0-29.18-94Z"/><path class="cls-37" d="M1531.55,895.56l-82.13,16.8a460.94,460.94,0,0,1,8.34,82.88h90.94a553.18,553.18,0,0,0-10.2-101.11Z"/><path class="cls-38" d="M1449.42,1087.64l89.08,18.23a553.18,553.18,0,0,0,10.2-101.11h-90.94A460.94,460.94,0,0,1,1449.42,1087.64Z"/><path class="cls-39" d="M1447.51,1097a455.71,455.71,0,0,1-23.85,76.81l83.75,35.42a546.24,546.24,0,0,0,29.18-94Z"/><path class="cls-40" d="M1503.7,1218,1420,1182.55a457,457,0,0,1-37.67,69.41l32.34,21.85,43,29.06A549.43,549.43,0,0,0,1503.7,1218Z"/><path class="cls-41" d="M1409.13,1281.6,1377,1259.85a462,462,0,0,1-49.89,60.47l23.84,23.85,40.45,40.45a552.17,552.17,0,0,0,60.94-73.86Z"/><path class="cls-42" d="M1384.62,1391.35l-42.92-42.92-21.38-21.38a461.88,461.88,0,0,1-60.46,49.9l28.59,42.32,22.31,33A553,553,0,0,0,1384.62,1391.35Z"/><path class="cls-43" d="M1302.87,1457.62l-22.31-33-28.6-42.32a457.51,457.51,0,0,1-69.41,37.67L1218,1503.7A549,549,0,0,0,1302.87,1457.62Z"/><path class="cls-44" d="M1209.21,1507.41l-35.43-83.75a455.08,455.08,0,0,1-76.81,23.85l7.34,35.86,10.89,53.22A546.28,546.28,0,0,0,1209.21,1507.41Z"/><path class="cls-45" d="M1096.41,1492.29l-8.77-42.87a460.75,460.75,0,0,1-82.88,8.34v90.93a552.21,552.21,0,0,0,101.11-10.19Z"/><path class="cls-46" d="M995.24,1457.76a460.75,460.75,0,0,1-82.88-8.34l-8.77,42.87-9.46,46.21a552.21,552.21,0,0,0,101.11,10.19Z"/><path class="cls-47" d="M903,1447.51a455.08,455.08,0,0,1-76.81-23.85l-35.43,83.75a546.28,546.28,0,0,0,94,29.18l10.89-53.22Z"/><path class="cls-48" d="M817.45,1420A457.51,457.51,0,0,1,748,1382.28l-28.6,42.32-22.31,33A549,549,0,0,0,782,1503.7Z"/><path class="cls-49" d="M711.55,1419.27,740.14,1377a461.88,461.88,0,0,1-60.46-49.9l-21.38,21.38-42.92,42.92a553,553,0,0,0,73.86,61Z"/><path class="cls-50" d="M649.1,1344.17l23.84-23.85a462,462,0,0,1-49.89-60.47l-32.18,21.75-43.16,29.16a552.17,552.17,0,0,0,60.94,73.86Z"/><path class="cls-51" d="M585.38,1273.81,617.72,1252a457,457,0,0,1-37.67-69.41L496.3,1218a549.43,549.43,0,0,0,46.07,84.89Z"/><path class="cls-52" d="M576.34,1173.78A455.71,455.71,0,0,1,552.49,1097l-89.08,18.23a545.63,545.63,0,0,0,29.18,94Z"/><path class="cls-53" d="M550.58,1087.64a460.94,460.94,0,0,1-8.34-82.88H451.31a552.21,552.21,0,0,0,10.19,101.11Z"/><path class="cls-54" d="M542.24,995.24a460.94,460.94,0,0,1,8.34-82.88L461.5,894.13a552.21,552.21,0,0,0-10.19,101.11Z"/><path class="cls-55" d="M472.89,886.74,552.49,903a455.71,455.71,0,0,1,23.85-76.81l-83.75-35.43a545.74,545.74,0,0,0-29.18,94Z"/><path class="cls-56" d="M580.05,817.45A457,457,0,0,1,617.72,748l-32.34-21.85-43-29.06A549.43,549.43,0,0,0,496.3,782Z"/><path class="cls-57" d="M590.87,718.4l32.18,21.75a461.38,461.38,0,0,1,49.89-60.47L649.1,655.83l-40.45-40.45a552.17,552.17,0,0,0-60.94,73.86Z"/><path class="cls-58" d="M615.38,608.65l42.92,42.92L679.68,673a461.88,461.88,0,0,1,60.46-49.9l-25.78-38.16L689.24,547.7A553,553,0,0,0,615.38,608.65Z"/><path class="cls-59" d="M697.13,542.38l25.12,37.17L748,617.72a457.51,457.51,0,0,1,69.41-37.67L782,496.3A549.87,549.87,0,0,0,697.13,542.38Z"/><path class="cls-60" d="M790.79,492.59l35.43,83.75A455.08,455.08,0,0,1,903,552.49l-7.34-35.86L884.8,463.41A546.28,546.28,0,0,0,790.79,492.59Z"/><path class="cls-61" d="M903.59,507.71l8.77,42.87a461.67,461.67,0,0,1,82.88-8.35V451.31A552.21,552.21,0,0,0,894.13,461.5Z"/><path class="cls-62" d="M1004.76,441.58c15.91.13,31.9.94,47.65,2.4l5.65-55.55,3.54-34.91c-18.79-1.77-37.87-2.73-56.84-2.87Z"/><path class="cls-63" d="M1061.89,445c15.41,1.7,30.85,4.05,46,7l12.56-61.37,5.67-27.71c-18.15-3.57-36.64-6.4-55.08-8.41Z"/><path class="cls-64" d="M1135.48,364.8l-12.58,61.48-5.65,27.6c14.87,3.18,29.72,7,44.28,11.39l13.38-43,13.62-43.82C1171.1,373.16,1153.3,368.59,1135.48,364.8Z"/><path class="cls-65" d="M1185,421.77l-14.41,46.32c14.27,4.58,28.48,9.78,42.34,15.5l35.42-83.74c-16.6-6.88-33.63-13.11-50.75-18.58Z"/><path class="cls-66" d="M1245.51,431.09l-23.78,56.21c13.61,5.9,27.11,12.4,40.23,19.38l22.87-42.09,20.53-37.81c-15.7-8.38-31.89-16.18-48.21-23.22Z"/><path class="cls-67" d="M1291.91,471.49l-21.58,39.73c12.89,7.15,25.61,14.88,37.91,23l11.14-16.48,39.76-58.86c-14.72-9.8-30-19.05-45.41-27.6Z"/><path class="cls-68" d="M1348.33,491.93l-32.2,47.66c12.1,8.32,24,17.2,35.39,26.46l57.87-70.13c-13.65-11.1-27.87-21.73-42.36-31.68Z"/><path class="cls-69" d="M1358.86,572.11c11.23,9.43,22.17,19.38,32.64,29.66l22-22,42.28-42.28c-12.5-12.32-25.61-24.24-39.06-35.5Z"/><path class="cls-70" d="M1412.79,594l-14.56,14.55c10.28,10.46,20.23,21.41,29.66,32.64L1498,583.26c-11.28-13.46-23.19-26.56-35.49-39Z"/><path class="cls-71" d="M1434,648.48c9.26,11.42,18.13,23.29,26.46,35.39l47-31.77L1535.75,633c-9.94-14.5-20.57-28.72-31.67-42.36Z"/><path class="cls-72" d="M1465.74,691.76c8.16,12.3,15.89,25,23,37.91L1535,704.56l33.67-18.29c-8.53-15.44-17.79-30.68-27.58-45.41Z"/><path class="cls-73" d="M1549.58,707.48,1493.32,738c7,13.12,13.48,26.61,19.38,40.22l45.43-19.21,38.31-16.21c-7-16.33-14.84-32.5-23.22-48.21Z"/><path class="cls-74" d="M1557.89,769.49,1516.41,787c5.71,13.84,10.91,28.05,15.5,42.34l41.83-13,45-14c-5.48-17.15-11.71-34.18-18.58-50.75Z"/><path class="cls-75" d="M1578.06,825l-43.32,13.48c4.38,14.52,8.2,29.37,11.38,44.27l44.43-9.1,44.65-9.14c-3.79-17.83-8.37-35.63-13.64-53Z"/><path class="cls-76" d="M1593.5,882.77,1548,892.08c3,15.19,5.33,30.63,7,46l45.9-4.66,44.57-4.53c-2-18.43-4.83-36.92-8.41-55.07Z"/><path class="cls-77" d="M1556,947.59c1.47,15.74,2.28,31.72,2.41,47.65h90.93c-.14-19-1.11-38.06-2.87-56.84l-43.58,4.43Z"/><path class="cls-78" d="M1649.35,1004.76h-90.93c-.13,15.93-.94,31.91-2.41,47.65l46.89,4.76,43.58,4.43C1648.24,1042.82,1649.21,1023.74,1649.35,1004.76Z"/><path class="cls-79" d="M1601,1066.55l-45.9-4.66c-1.69,15.4-4,30.84-7,46l43.47,8.9,45.61,9.33c3.58-18.15,6.4-36.64,8.41-55.07Z"/><path class="cls-80" d="M1589.36,1126.1l-43.24-8.85c-3.18,14.9-7,29.75-11.38,44.27l44.41,13.82,42.41,13.19c5.28-17.41,9.85-35.21,13.64-53Z"/><path class="cls-81" d="M1572.66,1183.3l-40.75-12.68c-4.59,14.29-9.79,28.5-15.5,42.34l41.48,17.55,42.26,17.87c6.87-16.57,13.1-33.6,18.58-50.75Z"/><path class="cls-82" d="M1558.13,1241l-45.43-19.21c-5.9,13.61-12.4,27.1-19.38,40.22l56.26,30.56,23.64,12.85c8.38-15.71,16.17-31.88,23.22-48.21Z"/><path class="cls-83" d="M1537.68,1296.9l-48.91-26.57c-7.14,12.89-14.87,25.6-23,37.91l53.33,36,22,14.87c9.8-14.74,19.05-30,27.58-45.41Z"/><path class="cls-84" d="M1495.65,1339.94l-35.24-23.81c-8.33,12.1-17.2,24-26.46,35.39l70.13,57.88c11.1-13.65,21.73-27.87,31.67-42.37Z"/><path class="cls-85" d="M1427.89,1358.86c-9.43,11.23-19.38,22.18-29.66,32.64l14.56,14.55,49.74,49.74c12.3-12.49,24.21-25.59,35.49-39Z"/><path class="cls-86" d="M1391.5,1398.23c-10.47,10.28-21.41,20.23-32.64,29.66l57.87,70.13c13.45-11.27,26.56-23.18,39.06-35.5l-42.28-42.28Z"/><path class="cls-87" d="M1409.39,1504.08,1351.52,1434c-11.42,9.26-23.29,18.13-35.39,26.46l32.2,47.66,18.7,27.68C1381.52,1525.81,1395.74,1515.18,1409.39,1504.08Z"/><path class="cls-88" d="M1313.73,1568.68c15.45-8.55,30.69-17.81,45.41-27.6l-39.76-58.86-11.14-16.48c-12.3,8.15-25,15.88-37.91,23l21.58,39.73Z"/><path class="cls-89" d="M1305.36,1573.22l-21.6-39.77-21.8-40.13c-13.12,7-26.62,13.48-40.23,19.38l22.06,52.16,13.36,31.58C1273.47,1589.4,1289.66,1581.6,1305.36,1573.22Z"/><path class="cls-90" d="M1197.63,1618.73c17.12-5.47,34.15-11.7,50.75-18.58L1213,1516.41c-13.86,5.72-28.06,10.92-42.34,15.5l13.71,44.07Z"/><path class="cls-91" d="M1135.48,1635.2c17.82-3.79,35.62-8.36,53-13.64l-13.62-43.82-13.38-43c-14.56,4.39-29.41,8.21-44.28,11.39l5.65,27.6Z"/><path class="cls-92" d="M1126.15,1637.11l-5.67-27.71L1107.92,1548c-15.18,3-30.62,5.32-46,7l9.18,90.46C1089.51,1643.51,1108,1640.68,1126.15,1637.11Z"/><path class="cls-93" d="M1058.06,1611.57l-5.65-55.56c-15.75,1.47-31.74,2.28-47.65,2.41v90.93c19-.14,38-1.1,56.84-2.87Z"/><path class="cls-94" d="M995.24,1558.42c-15.91-.13-31.9-.94-47.65-2.41l-5.65,55.56-3.54,34.91c18.79,1.77,37.87,2.73,56.84,2.87Z"/><path class="cls-95" d="M938.11,1555.05c-15.41-1.7-30.85-4-46-7l-12.56,61.37-5.67,27.71c18.15,3.57,36.64,6.4,55.08,8.4Z"/><path class="cls-96" d="M864.52,1635.2l12.58-61.48,5.65-27.6c-14.87-3.18-29.72-7-44.28-11.39l-13.38,43-13.62,43.82C828.9,1626.84,846.7,1631.41,864.52,1635.2Z"/><path class="cls-97" d="M815.67,1576l13.71-44.07c-14.28-4.58-28.48-9.78-42.34-15.5l-35.42,83.74c16.6,6.88,33.63,13.11,50.75,18.58Z"/><path class="cls-98" d="M756.21,1564.86l22.06-52.16c-13.61-5.9-27.11-12.4-40.23-19.38l-21.8,40.13-21.6,39.77c15.7,8.38,31.89,16.18,48.21,23.22Z"/><path class="cls-99" d="M729.67,1488.78c-12.89-7.16-25.61-14.89-37.91-23l-11.14,16.48-39.76,58.86c14.72,9.79,30,19.05,45.41,27.6l21.82-40.17Z"/><path class="cls-100" d="M651.67,1508.07l32.2-47.66c-12.1-8.33-24-17.2-35.39-26.46l-57.87,70.13c13.65,11.1,27.87,21.73,42.36,31.67Z"/><path class="cls-101" d="M641.14,1427.89c-11.23-9.43-22.17-19.38-32.64-29.66l-22,22-42.28,42.28c12.5,12.32,25.61,24.23,39.06,35.5Z"/><path class="cls-102" d="M587.21,1406.05l14.56-14.55c-10.28-10.46-20.23-21.41-29.66-32.64L502,1416.74c11.28,13.46,23.19,26.56,35.49,39Z"/><path class="cls-103" d="M566.05,1351.52c-9.26-11.42-18.13-23.29-26.46-35.39L474.7,1360,464.25,1367c9.94,14.5,20.57,28.72,31.67,42.37Z"/><path class="cls-104" d="M458.92,1359.14l17.23-11.64,58.11-39.26c-8.15-12.3-15.88-25-23-37.91l-38.59,21-41.3,22.44C439.88,1329.2,449.13,1344.43,458.92,1359.14Z"/><path class="cls-105" d="M426.78,1305.36l40.91-22.22,39-21.18c-7-13.12-13.48-26.62-19.38-40.22l-39.64,16.76-44.1,18.65C410.61,1273.48,418.4,1289.66,426.78,1305.36Z"/><path class="cls-106" d="M439.29,1231.7l44.3-18.74c-5.73-13.87-10.92-28.08-15.5-42.34l-6.37,2-80.45,25c5.46,17.12,11.7,34.15,18.58,50.76Z"/><path class="cls-107" d="M424.23,1174.29l41-12.76c-4.4-14.57-8.21-29.42-11.39-44.28L411.4,1126l-46.6,9.54c3.78,17.79,8.36,35.59,13.64,53Z"/><path class="cls-108" d="M407.65,1117l44.32-9.08c-3-15.17-5.32-30.61-7-46l-90.47,9.19c2,18.46,4.84,36.94,8.41,55.08Z"/><path class="cls-109" d="M410.38,1055.83l33.61-3.42c-1.47-15.75-2.28-31.73-2.41-47.65H350.65c.14,19,1.11,38,2.87,56.84Z"/><path class="cls-110" d="M444,947.59l-33.61-3.42-56.86-5.77c-1.76,18.79-2.73,37.87-2.87,56.84h90.93C441.71,979.32,442.52,963.34,444,947.59Z"/><path class="cls-111" d="M445,938.12c1.7-15.43,4.05-30.87,7-46L407.65,883l-44.76-9.15c-3.57,18.14-6.39,36.62-8.41,55.08Z"/><path class="cls-112" d="M411.4,874.05l42.48,8.7c3.18-14.87,7-29.73,11.39-44.28l-6.37-2-80.46-25c-5.28,17.45-9.86,35.25-13.64,53Z"/><path class="cls-113" d="M468.09,829.38c4.58-14.27,9.77-28.47,15.5-42.34l-44.3-18.74-39.44-16.68c-6.88,16.61-13.12,33.64-18.58,50.76Z"/><path class="cls-114" d="M467.69,716.86l-40.91-22.22c-8.38,15.7-16.17,31.88-23.22,48.2l44.1,18.66,39.64,16.76c5.9-13.6,12.4-27.1,19.38-40.22Z"/><path class="cls-115" d="M472.63,708.71l38.59,21c7.16-12.9,14.89-25.62,23-37.91l-75.34-50.9c-9.79,14.72-19.05,29.95-27.59,45.41Z"/><path class="cls-116" d="M539.59,683.87c8.33-12.1,17.2-24,26.46-35.39l-70.13-57.87c-11.1,13.64-21.73,27.86-31.67,42.36Z"/><path class="cls-117" d="M572.11,641.14c9.43-11.23,19.38-22.18,29.66-32.64L587.21,594l-49.74-49.74c-12.3,12.49-24.21,25.59-35.49,39Z"/><path class="cls-118" d="M544.21,537.48l42.28,42.28,22,22c10.47-10.28,21.41-20.23,32.64-29.66L583.27,502C569.82,513.24,556.71,525.16,544.21,537.48Z"/><path class="cls-119" d="M590.61,495.92l57.87,70.13c11.42-9.26,23.29-18.14,35.39-26.46l-32.2-47.66L633,464.24C618.48,474.19,604.26,484.82,590.61,495.92Z"/><path class="cls-120" d="M686.27,431.32c-15.45,8.55-30.69,17.8-45.41,27.6l39.76,58.86,11.14,16.48c12.3-8.16,25-15.89,37.91-23l-21.58-39.73Z"/><path class="cls-121" d="M694.64,426.78l20.53,37.81L738,506.68c13.12-7,26.62-13.48,40.23-19.38l-23.78-56.21-11.64-27.53C726.53,410.6,710.34,418.4,694.64,426.78Z"/><path class="cls-122" d="M802.37,381.27c-17.12,5.47-34.15,11.7-50.75,18.58L787,483.59c13.86-5.72,28.07-10.92,42.34-15.5L815,421.77Z"/><path class="cls-123" d="M864.52,364.8c-17.82,3.79-35.62,8.36-53,13.64l13.62,43.82,13.38,43c14.56-4.39,29.41-8.21,44.28-11.39l-5.65-27.6Z"/><path class="cls-124" d="M873.85,362.89l5.67,27.71L892.08,452c15.18-3,30.62-5.32,46-7l-9.18-90.47C910.49,356.49,892,359.32,873.85,362.89Z"/><path class="cls-125" d="M941.94,388.43,947.59,444c15.75-1.46,31.74-2.27,47.65-2.4V350.65c-19,.14-38,1.1-56.84,2.87Z"/><path class="cls-126" d="M1033.8,250.73c-9.63-.42-19.37-.67-29-.73v90.93c8.14.06,16.33.26,24.44.61Z"/><path class="cls-127" d="M1062.71,343.85l9.18-90.46c-9.48-.9-19.06-1.63-28.58-2.17L1039,336.49l-.28,5.54C1046.71,342.49,1054.74,343.1,1062.71,343.85Z"/><path class="cls-128" d="M1072.18,344.81c7.85.86,15.74,1.86,23.54,3l7.9-51.7,5.83-38.19c-9.3-1.36-18.71-2.56-28.08-3.57l-9.18,90.4Z"/><path class="cls-129" d="M1105.14,349.24c7.69,1.23,15.42,2.62,23.07,4.13L1133.4,328l13-63.71c-9.13-1.8-18.37-3.46-27.57-4.92l-6.09,39.83Z"/><path class="cls-130" d="M1144.46,321.46l-6.92,33.81c7.54,1.6,15.11,3.35,22.59,5.22l8.93-34.7,13.73-53.36c-8.94-2.24-18-4.33-27-6.24Z"/><path class="cls-131" d="M1183.52,307.83l-14.16,55c7.38,2,14.78,4.06,22.1,6.28l11.18-35.95,15.82-50.88c-8.75-2.66-17.61-5.18-26.45-7.51Z"/><path class="cls-132" d="M1200.55,372c7.23,2.3,14.46,4.75,21.59,7.3l24.41-66.67,6.85-18.71c-8.52-3.07-17.18-6-25.84-8.75l-15.24,49Z"/><path class="cls-133" d="M1252.84,323.12l-21.76,59.42c7.06,2.64,14.11,5.42,21.06,8.31l12.33-29.15,23.09-54.6c-8.33-3.45-16.78-6.79-25.22-9.94Z"/><path class="cls-134" d="M1283,342.42l-22,52.14c6.87,3,13.74,6.07,20.51,9.27l20.82-43.2,18.65-38.71c-8.1-3.85-16.33-7.57-24.56-11.11Z"/><path class="cls-135" d="M1290,408c6.69,3.29,13.36,6.71,19.94,10.21l19.3-35.52,24.1-44.37c-7.86-4.21-15.86-8.31-23.87-12.23Z"/><path class="cls-136" d="M1342.45,378.27l-24.14,44.45c6.48,3.59,13,7.31,19.34,11.12l23.67-38.94,23.54-38.77c-7.62-4.56-15.37-9-23.15-13.31Z"/><path class="cls-137" d="M1369.34,400l-23.55,38.76c6.29,3.88,12.56,7.9,18.72,12l22.77-33.69,28.14-41.65c-7.37-4.91-14.87-9.72-22.41-14.37Z"/><path class="cls-138" d="M1400,415.28l-27.59,40.85c6.07,4.17,12.13,8.47,18.08,12.85l6.87-9.17L1445,396.17c-7.11-5.25-14.36-10.4-21.64-15.39Z"/><path class="cls-139" d="M1415.54,488.38l31.13-37.72,26.75-32.41c-6.83-5.56-13.81-11-20.84-16.38l-54.46,72.82C1404,479.14,1409.82,483.73,1415.54,488.38Z"/><path class="cls-140" d="M1453.93,456.82l-31,37.62c5.63,4.72,11.23,9.57,16.72,14.49l30.2-33.22,31-34.07c-6.54-5.87-13.24-11.67-20-17.33Z"/><path class="cls-141" d="M1476.64,482.35l-30,33c5.41,5,10.77,10.1,16,15.26L1510,483.24,1527,466.31c-6.27-6.2-12.68-12.31-19.14-18.26Z"/><path class="cls-142" d="M1501.55,505.19l-32.15,32.14c5.17,5.24,10.28,10.6,15.26,16l67.3-61.15c-6-6.47-12.07-12.88-18.26-19.15Z"/><path class="cls-143" d="M1491.07,560.38c4.92,5.5,9.77,11.1,14.49,16.73l70.13-57.87c-5.64-6.74-11.44-13.44-17.33-20Z"/><path class="cls-144" d="M1511.62,584.46c4.65,5.72,9.24,11.56,13.69,17.42l4.62-3.45,68.19-51c-5.31-7-10.8-14-16.37-20.83Z"/><path class="cls-145" d="M1531,609.51c4.39,6,8.69,12,12.86,18.07l38.23-25.81,37.12-25.08c-5-7.28-10.15-14.54-15.39-21.64Z"/><path class="cls-146" d="M1587.39,609.68l-38.18,25.81c4.1,6.17,8.12,12.44,12,18.71l37.13-22.55L1638.91,607c-4.64-7.53-9.45-15-14.36-22.4Z"/><path class="cls-147" d="M1606.6,637.78l-40.44,24.57c3.82,6.39,7.54,12.87,11.11,19.34l41.26-22.4,38.64-21c-4.28-7.75-8.73-15.51-13.3-23.14Z"/><path class="cls-148" d="M1616.72,671.1l-34.89,19c3.51,6.56,6.92,13.24,10.2,19.93l44.82-21.6,37.1-17.87c-3.93-8-8-16-12.22-23.86Z"/><path class="cls-149" d="M1629.58,702.48l-33.41,16.1c3.21,6.8,6.32,13.67,9.27,20.5L1648.15,721l41-17.37c-3.54-8.21-7.26-16.44-11.1-24.55Z"/><path class="cls-150" d="M1651.72,729.85l-42.56,18c2.86,6.93,5.64,14,8.3,21.06l68.47-25.07,16.91-6.2c-3.17-8.48-6.5-16.92-9.94-25.2Z"/><path class="cls-151" d="M1678.89,756.56l-58.16,21.3c2.56,7.15,5,14.38,7.31,21.59l53.88-16.76,32.94-10.25c-2.76-8.67-5.69-17.32-8.75-25.85Z"/><path class="cls-152" d="M1630.86,808.54c2.22,7.31,4.32,14.71,6.28,22.1L1725.2,808c-2.33-8.81-4.84-17.67-7.51-26.44Z"/><path class="cls-153" d="M1639.51,839.87c1.86,7.45,3.61,15,5.22,22.6l33.24-6.81,55.84-11.43c-1.91-9-4-18.07-6.24-27Z"/><path class="cls-154" d="M1646.64,871.79c1.5,7.63,2.88,15.36,4.12,23.07l45.28-6.92,44.6-6.82c-1.48-9.26-3.13-18.5-4.92-27.56Z"/><path class="cls-155" d="M1655.19,927.81l45.61-4.62,44.85-4.56c-1-9.38-2.21-18.79-3.57-28.08l-44.36,6.77-45.52,7C1653.34,912.14,1654.34,920,1655.19,927.81Z"/><path class="cls-156" d="M1658,961.29l90.81-4.6c-.54-9.48-1.26-19.05-2.17-28.57l-45.6,4.62-44.86,4.56C1656.9,945.28,1657.51,953.32,1658,961.29Z"/><path class="cls-157" d="M1658.46,970.8c.35,8.12.56,16.31.61,24.44H1750c-.06-9.68-.31-19.41-.73-29l-5,.25Z"/><path class="cls-158" d="M1658.46,1029.2l85.82,4.35,5,.25c.42-9.63.67-19.36.73-29h-90.93C1659,1012.89,1658.81,1021.08,1658.46,1029.2Z"/><path class="cls-159" d="M1656.15,1062.7l45.61,4.64,44.85,4.54c.91-9.52,1.63-19.09,2.17-28.57l-90.81-4.6C1657.51,1046.68,1656.9,1054.72,1656.15,1062.7Z"/><path class="cls-160" d="M1655.19,1072.19c-.85,7.8-1.85,15.67-3,23.52l44.79,6.86,45.09,6.88c1.36-9.29,2.56-18.7,3.57-28.08l-44.1-4.48Z"/><path class="cls-161" d="M1696,1112.05l-45.28-6.91c-1.24,7.71-2.62,15.44-4.12,23.07l89.08,18.23c1.79-9.06,3.44-18.3,4.92-27.56Z"/><path class="cls-162" d="M1678,1144.34l-33.24-6.81c-1.61,7.58-3.36,15.15-5.22,22.6l88.06,22.66c2.24-9,4.33-18,6.24-27Z"/><path class="cls-163" d="M1637.14,1169.36c-2,7.39-4.06,14.79-6.28,22.1l86.83,27c2.67-8.78,5.18-17.64,7.51-26.45l-52.83-13.59Z"/><path class="cls-164" d="M1681.92,1217.31,1628,1200.55c-2.31,7.21-4.75,14.44-7.31,21.59l58.16,21.3,27.22,10c3.06-8.53,6-17.19,8.75-25.85Z"/><path class="cls-165" d="M1617.46,1231.08c-2.66,7.08-5.44,14.13-8.3,21.06l43.18,18.27,40.56,17.14c3.44-8.28,6.77-16.72,9.94-25.2l-16.91-6.2Z"/><path class="cls-166" d="M1648.15,1279l-42.71-18c-3,6.83-6.06,13.7-9.27,20.5l81.92,39.47c3.84-8.11,7.56-16.34,11.1-24.55Z"/><path class="cls-167" d="M1592,1290c-3.28,6.69-6.69,13.37-10.2,19.93l36.1,19.62,43.8,23.78c4.19-7.85,8.29-15.84,12.22-23.86l-37.1-17.88Z"/><path class="cls-168" d="M1619.18,1341.07l-41.91-22.76c-3.57,6.47-7.29,13-11.11,19.34l40.44,24.57,37.27,22.64c4.57-7.63,9-15.39,13.3-23.14Z"/><path class="cls-169" d="M1597.67,1367.94l-36.46-22.14c-3.88,6.27-7.9,12.54-12,18.71l38.2,25.82,37.14,25.08c4.91-7.36,9.73-14.87,14.36-22.4Z"/><path class="cls-170" d="M1581,1397.49l-37.14-25.07c-4.17,6.07-8.47,12.12-12.86,18.07l72.82,54.46c5.24-7.1,10.39-14.35,15.39-21.64Z"/><path class="cls-171" d="M1529.93,1401.57l-4.62-3.45c-4.45,5.86-9,11.69-13.69,17.42l70.13,57.87c5.57-6.84,11.06-13.82,16.37-20.83Z"/><path class="cls-172" d="M1505.56,1422.89c-4.72,5.63-9.57,11.23-14.49,16.72l67.29,61.15c5.89-6.56,11.69-13.26,17.33-20Z"/><path class="cls-173" d="M1484.66,1446.66c-5,5.41-10.09,10.77-15.26,16l29.4,29.39,34.9,34.9c6.19-6.27,12.31-12.68,18.26-19.15Z"/><path class="cls-174" d="M1462.67,1469.4c-5.24,5.16-10.6,10.27-16,15.26l31,34.09,30.18,33.2c6.46-6,12.88-12.07,19.14-18.26L1510,1516.76Z"/><path class="cls-175" d="M1500.77,1558.36l-31-34.07-30.2-33.22c-5.49,4.92-11.09,9.77-16.72,14.49l30.13,36.51,27.74,33.62C1487.53,1570,1494.23,1564.23,1500.77,1558.36Z"/><path class="cls-176" d="M1473.42,1581.75l-31.09-37.67-26.79-32.46c-5.72,4.65-11.55,9.24-17.42,13.69l54.46,72.82C1459.61,1592.79,1466.59,1587.31,1473.42,1581.75Z"/><path class="cls-177" d="M1445,1603.83l-47.59-63.64-6.87-9.18c-6,4.39-12,8.69-18.08,12.86l28.51,42.21,22.39,33.14C1430.59,1614.23,1437.84,1609.08,1445,1603.83Z"/><path class="cls-178" d="M1415.42,1624.55,1388,1584l-23.48-34.74c-6.16,4.1-12.43,8.12-18.72,12l22.85,37.61,24.37,40.1C1400.55,1634.27,1408.05,1629.46,1415.42,1624.55Z"/><path class="cls-179" d="M1384.86,1643.87l-23.54-38.76-23.67-38.95c-6.37,3.8-12.85,7.53-19.34,11.12l24,44.22,19.38,35.68C1369.49,1652.89,1377.25,1648.43,1384.86,1643.87Z"/><path class="cls-180" d="M1353.34,1661.72l-24.66-45.4-18.74-34.49c-6.57,3.5-13.25,6.92-19.94,10.21l39.47,81.91C1337.49,1670,1345.49,1665.92,1353.34,1661.72Z"/><path class="cls-181" d="M1281.42,1596.17c-6.78,3.21-13.64,6.31-20.51,9.27l35.42,83.75c8.23-3.55,16.46-7.27,24.56-11.11l-5.77-12Z"/><path class="cls-182" d="M1252.14,1609.15c-7,2.88-14,5.66-21.06,8.3l18.8,51.35,12.47,34c8.44-3.15,16.88-6.49,25.21-9.94l-29.27-69.22Z"/><path class="cls-183" d="M1253.4,1706.11l-14.52-39.66-16.74-45.72c-7.13,2.55-14.36,5-21.59,7.3l15.7,50.47,11.31,36.36C1236.21,1712.1,1244.87,1709.18,1253.4,1706.11Z"/><path class="cls-184" d="M1191.46,1630.86c-7.33,2.22-14.73,4.32-22.1,6.28l14.43,56.11,8.22,32c8.84-2.34,17.7-4.85,26.45-7.51l-15.82-50.88Z"/><path class="cls-185" d="M1182.79,1727.57l-13.73-53.36-8.93-34.7c-7.48,1.87-15,3.61-22.59,5.22l10.45,51.08,7.78,38C1164.79,1731.9,1173.85,1729.81,1182.79,1727.57Z"/><path class="cls-186" d="M1128.21,1646.64c-7.65,1.5-15.38,2.88-23.08,4.12l8.16,53.37,5.58,36.51c9.2-1.46,18.44-3.12,27.57-4.92l-4.93-24.1Z"/><path class="cls-187" d="M1095.72,1652.19c-7.8,1.14-15.69,2.14-23.54,3l0,.53,9.14,89.93c9.37-1,18.78-2.21,28.09-3.57l-5.22-34.1Z"/><path class="cls-188" d="M1062.71,1656.15c-8,.75-16,1.36-24,1.82l.3,6,4.3,84.78c9.53-.54,19.11-1.27,28.58-2.17l-9.13-89.93Z"/><path class="cls-189" d="M1004.76,1659.07V1750c9.67-.06,19.41-.31,29-.73l-4.6-90.81C1021.09,1658.81,1012.9,1659,1004.76,1659.07Z"/><path class="cls-190" d="M966.2,1749.27c9.63.42,19.37.67,29,.73v-90.93c-8.14-.06-16.33-.26-24.44-.61Z"/><path class="cls-191" d="M937.29,1656.15l0,.53-9.13,89.93c9.47.9,19,1.63,28.58,2.17L961,1664l.3-6C953.29,1657.51,945.25,1656.9,937.29,1656.15Z"/><path class="cls-192" d="M927.82,1655.19c-7.85-.86-15.74-1.86-23.54-3L895.76,1708l-5.22,34.1c9.31,1.36,18.72,2.56,28.09,3.57l9.14-89.93Z"/><path class="cls-193" d="M894.87,1650.76c-7.7-1.24-15.43-2.62-23.08-4.12l-13.3,65-4.93,24.1c9.13,1.8,18.37,3.46,27.57,4.92l5.58-36.51Z"/><path class="cls-194" d="M862.46,1644.73c-7.55-1.61-15.11-3.35-22.59-5.22l-8.93,34.7-13.73,53.36c8.94,2.24,18,4.33,27,6.24l7.78-38Z"/><path class="cls-195" d="M816.21,1693.25l14.43-56.11c-7.37-2-14.77-4.06-22.1-6.28l-11.18,36-15.82,50.88c8.75,2.66,17.61,5.17,26.45,7.51Z"/><path class="cls-196" d="M799.45,1628c-7.23-2.3-14.46-4.75-21.59-7.3l-16.74,45.72-14.52,39.66c8.53,3.07,17.19,6,25.84,8.75l11.31-36.36Z"/><path class="cls-197" d="M750.12,1668.8l18.8-51.35c-7-2.64-14.11-5.42-21.06-8.3l-6.15,14.53-29.27,69.22c8.33,3.45,16.77,6.79,25.21,9.94Z"/><path class="cls-198" d="M718.58,1596.17l-33.7,69.95-5.77,12c8.1,3.84,16.33,7.56,24.56,11.11l35.42-83.75C732.22,1602.48,725.36,1599.38,718.58,1596.17Z"/><path class="cls-199" d="M710,1592c-6.69-3.29-13.37-6.71-19.94-10.21l-18.74,34.49-24.66,45.4c7.85,4.2,15.85,8.3,23.87,12.23Z"/><path class="cls-200" d="M657.67,1621.5l24-44.22c-6.49-3.59-13-7.32-19.34-11.12l-23.67,38.95-23.54,38.76c7.61,4.56,15.37,9,23.15,13.31Z"/><path class="cls-201" d="M631.36,1598.82l22.85-37.61c-6.29-3.88-12.56-7.9-18.72-12L612,1584l-27.43,40.6c7.37,4.91,14.87,9.72,22.41,14.37Z"/><path class="cls-202" d="M599.08,1586.08l28.51-42.21c-6.07-4.17-12.13-8.47-18.08-12.86l-6.87,9.18-47.59,63.64c7.11,5.25,14.36,10.4,21.64,15.39Z"/><path class="cls-203" d="M584.46,1511.62l-26.79,32.46-31.09,37.67c6.83,5.56,13.81,11,20.84,16.38l54.46-72.82C596,1520.86,590.18,1516.27,584.46,1511.62Z"/><path class="cls-204" d="M547,1542.07l30.13-36.51c-5.63-4.72-11.23-9.57-16.72-14.49l-30.2,33.22-31,34.07c6.54,5.87,13.24,11.67,20,17.33Z"/><path class="cls-205" d="M523.36,1517.65l30-33c-5.41-5-10.77-10.1-16-15.26l-43.27,43.27-21,21c6.24,6.17,12.66,12.28,19.14,18.25Z"/><path class="cls-206" d="M495.57,1497.69l35-35c-5.17-5.24-10.28-10.6-15.26-16l-34.07,31-33.22,30.2c5.94,6.45,12.06,12.87,18.25,19.14Z"/><path class="cls-207" d="M479.69,1466.19l29.24-26.58c-4.9-5.47-9.75-11.07-14.49-16.72l-36.68,30.27-33.45,27.6c5.66,6.77,11.47,13.47,17.33,20Z"/><path class="cls-208" d="M457.92,1440.68l30.46-25.14c-4.66-5.73-9.24-11.56-13.69-17.42l-37.81,28.28-35,26.17c5.31,7,10.8,14,16.38,20.84Z"/><path class="cls-209" d="M432,1418.15l37-27.66c-4.37-5.93-8.68-12-12.86-18.08l-40.72,27.51-34.63,23.39c5,7.29,10.15,14.54,15.39,21.64Z"/><path class="cls-210" d="M407.31,1393.9l43.48-29.39c-4.09-6.15-8.11-12.42-12-18.72L399,1370l-37.87,23c4.65,7.53,9.46,15,14.37,22.41Z"/><path class="cls-211" d="M394.21,1361.73l39.63-24.08c-3.8-6.37-7.53-12.85-11.12-19.35l-59.32,32.23-20.58,11.18c4.29,7.77,8.75,15.53,13.31,23.15Z"/><path class="cls-212" d="M366.21,1338.16l52-28.22c-3.5-6.55-6.91-13.23-10.21-19.94l-40.89,19.7-41,19.78c3.93,8,8,16,12.23,23.86Z"/><path class="cls-213" d="M361.62,1301.76l42.21-20.35c-3.21-6.76-6.31-13.63-9.27-20.5l-43.12,18.24-40.63,17.19c3.55,8.23,7.27,16.46,11.1,24.55Z"/><path class="cls-214" d="M347,1270.69l43.86-18.55c-2.88-7-5.66-14-8.3-21.06l-41.25,15.11-44.13,16.16c3.16,8.46,6.49,16.9,9.94,25.21Z"/><path class="cls-215" d="M364.75,1227.46l14.52-5.32c-2.55-7.12-5-14.35-7.3-21.59l-66.23,20.6-20.6,6.41c2.75,8.64,5.68,17.3,8.75,25.85Z"/><path class="cls-216" d="M303.51,1211.87l65.63-20.41c-2.22-7.33-4.32-14.73-6.28-22.1l-43.15,11.1L274.8,1192c2.33,8.83,4.85,17.69,7.51,26.45Z"/><path class="cls-217" d="M317,1171.32l43.47-11.19c-1.87-7.49-3.62-15.05-5.22-22.59l-26.6,5.44-62.48,12.78c1.9,9,4,18.06,6.24,27Z"/><path class="cls-218" d="M291.31,1140.91l62.05-12.7c-1.5-7.65-2.88-15.37-4.12-23.07l-44.14,6.74-45.74,7c1.47,9.19,3.11,18.42,4.92,27.56Z"/><path class="cls-219" d="M301.2,1102.84l46.6-7.13c-1.13-7.81-2.13-15.69-3-23.53l-44.76,4.54-45.7,4.65c1,9.33,2.21,18.74,3.57,28.08Z"/><path class="cls-220" d="M342,1038.71,296.37,1041l-45.15,2.29c.54,9.53,1.27,19.11,2.17,28.58l45.64-4.63,44.82-4.56C343.1,1054.73,342.49,1046.7,342,1038.71Z"/><path class="cls-221" d="M340.93,1004.76H250c.06,9.67.31,19.4.73,29l44.16-2.24,46.66-2.36C341.19,1021.06,341,1012.88,340.93,1004.76Z"/><path class="cls-222" d="M341.55,970.8l-46.66-2.36-44.16-2.24c-.42,9.64-.67,19.37-.73,29h90.93C341,987.12,341.19,978.94,341.55,970.8Z"/><path class="cls-223" d="M342,961.29c.46-8,1.07-16,1.82-24l-46.33-4.71-44.13-4.48c-.9,9.47-1.63,19-2.17,28.58l45.45,2.3Z"/><path class="cls-224" d="M344.81,927.82c.86-7.84,1.86-15.72,3-23.54l-46.61-7.13-43.27-6.6c-1.36,9.34-2.56,18.75-3.57,28.08l45.7,4.65Z"/><path class="cls-225" d="M303.66,887.9l45.58,7c1.24-7.7,2.62-15.42,4.12-23.07L331,867.21l-66.73-13.65c-1.81,9.15-3.45,18.38-4.92,27.57Z"/><path class="cls-226" d="M360.49,839.87,317,828.68l-44.59-11.46c-2.24,9-4.34,18-6.24,27l89.08,18.22C356.87,854.92,358.62,847.36,360.49,839.87Z"/><path class="cls-227" d="M318.31,819.18l44.55,11.45c2-7.36,4.06-14.76,6.28-22.09l-65.63-20.41-21.2-6.59c-2.66,8.76-5.18,17.62-7.51,26.44Z"/><path class="cls-228" d="M305.74,778.85,372,799.45c2.31-7.24,4.75-14.48,7.3-21.59l-14.52-5.32-70.86-25.95c-3.07,8.55-6,17.21-8.75,25.85Z"/><path class="cls-229" d="M341.29,753.81l41.25,15.11c2.64-7,5.42-14.1,8.3-21.06l-42.7-18.07-41-17.35c-3.45,8.3-6.78,16.75-9.94,25.21Z"/><path class="cls-230" d="M351.44,720.85l43.12,18.24c3-6.89,6.07-13.76,9.27-20.5l-43.55-21-38.37-18.49c-3.83,8.09-7.55,16.31-11.1,24.55Z"/><path class="cls-231" d="M408,710c3.3-6.71,6.71-13.39,10.21-19.94l-52-28.22-27.93-15.18c-4.21,7.86-8.3,15.86-12.23,23.86l42.3,20.39Z"/><path class="cls-232" d="M363.4,649.47l59.32,32.23c3.59-6.5,7.31-13,11.12-19.35L394.2,638.27l-38.07-23.13c-4.56,7.62-9,15.38-13.31,23.15Z"/><path class="cls-233" d="M397.73,629.27l41.06,24.94c3.89-6.3,7.91-12.57,12-18.72L408.57,607l-33.12-22.38c-4.91,7.37-9.72,14.88-14.37,22.41Z"/><path class="cls-234" d="M456.13,627.59c4.18-6.09,8.49-12.15,12.86-18.09l-37-27.65-35.84-26.8c-5.24,7.1-10.4,14.35-15.39,21.64l34.63,23.39Z"/><path class="cls-235" d="M436.88,573.6l37.81,28.28c4.45-5.86,9-11.69,13.69-17.42l-30.46-25.14-39.67-32.74c-5.58,6.86-11.07,13.84-16.38,20.85Z"/><path class="cls-236" d="M494.44,577.11c4.74-5.65,9.59-11.25,14.49-16.72l-29.24-26.58-38.05-34.58c-5.86,6.54-11.67,13.24-17.33,20l33.45,27.6Z"/><path class="cls-237" d="M481.27,522.38l34.07,31c5-5.41,10.09-10.77,15.26-16l-38.47-38.47L466.3,473c-6.19,6.27-12.31,12.68-18.25,19.14Z"/><path class="cls-238" d="M537.33,530.6c5.24-5.16,10.6-10.27,16-15.26l-30-33-31.18-34.3c-6.48,6-12.89,12.08-19.14,18.25l21,21Z"/><path class="cls-239" d="M499.23,441.64l31,34.07,30.2,33.22c5.49-4.92,11.09-9.77,16.72-14.49l-31-37.62-26.83-32.51C512.47,430,505.77,435.77,499.23,441.64Z"/><path class="cls-240" d="M526.58,418.25l26.75,32.41,31.13,37.72c5.72-4.65,11.56-9.24,17.42-13.69l-54.46-72.82C540.39,407.21,533.41,412.69,526.58,418.25Z"/><path class="cls-241" d="M555.05,396.17l47.59,63.64,6.87,9.17c6-4.38,12-8.68,18.08-12.85L600,415.28l-23.31-34.5C569.41,385.77,562.16,390.92,555.05,396.17Z"/><path class="cls-242" d="M584.58,375.45l28.14,41.65,22.77,33.69c6.16-4.1,12.43-8.12,18.72-12L630.66,400,607,361.08C599.45,365.73,592,370.54,584.58,375.45Z"/><path class="cls-243" d="M615.14,356.13l23.54,38.77,23.67,38.94c6.38-3.81,12.86-7.53,19.34-11.12l-24.14-44.45-19.26-35.45C630.51,347.11,622.76,351.57,615.14,356.13Z"/><path class="cls-244" d="M646.66,338.28l24.1,44.37,19.3,35.52c6.58-3.5,13.25-6.92,19.94-10.21l-39.47-81.91C662.52,330,654.52,334.07,646.66,338.28Z"/><path class="cls-245" d="M718.58,403.83c6.77-3.2,13.64-6.31,20.51-9.27L717,342.42l-13.37-31.61c-8.23,3.54-16.46,7.26-24.56,11.11l18.65,38.71Z"/><path class="cls-246" d="M712.44,307.1l23.09,54.6,12.33,29.15c6.95-2.89,14-5.67,21.06-8.31l-21.76-59.42-9.5-26C729.22,300.31,720.77,303.65,712.44,307.1Z"/><path class="cls-247" d="M746.6,293.89l6.85,18.71,24.41,66.67c7.13-2.55,14.36-5,21.59-7.3l-11.77-37.83-15.24-49C763.78,287.9,755.12,290.82,746.6,293.89Z"/><path class="cls-248" d="M808.54,369.14c7.32-2.22,14.72-4.32,22.1-6.28l-14.16-55-8.49-33c-8.84,2.33-17.7,4.85-26.45,7.51l15.82,50.88Z"/><path class="cls-249" d="M817.21,272.43l13.73,53.36,8.93,34.7c7.48-1.87,15-3.62,22.59-5.22l-6.92-33.81-11.31-55.27C835.21,268.1,826.15,270.19,817.21,272.43Z"/><path class="cls-250" d="M853.56,264.28l13,63.71,5.19,25.38c7.65-1.51,15.38-2.9,23.07-4.13l-7.64-50.05-6.09-39.83C871.93,260.82,862.69,262.48,853.56,264.28Z"/><path class="cls-251" d="M904.28,347.81c7.8-1.14,15.69-2.14,23.54-3v-.06l-9.18-90.4c-9.37,1-18.78,2.21-28.08,3.57l5.83,38.19Z"/><path class="cls-252" d="M961.29,342l-.28-5.54-4.32-85.27c-9.52.54-19.1,1.27-28.58,2.17l9.18,90.46C945.26,343.1,953.29,342.49,961.29,342Z"/><path class="cls-253" d="M995.24,340.93V250c-9.67.06-19.41.31-29,.73l4.6,90.81C978.91,341.19,987.1,341,995.24,340.93Z"/></svg>