<svg id="Circular_element" data-name="Circular element" xmlns="http://www.w3.org/2000/svg" viewBox="0 0 2000 2000"><defs><style>.cls-1,.cls-2{fill:none;stroke:#fff;stroke-width:3px;}.cls-2{stroke-linecap:round;stroke-linejoin:round;}</style></defs><g id="g17537"><g id="g17533"><path id="path17473" class="cls-1" d="M1218.35,1717.53c-134.12,40.83-302.58,40.83-436.7,0"/><path id="path17475" class="cls-1" d="M1329.39,1673.82c-183.11,89.52-475.67,89.52-658.78,0"/><path id="path17477" class="cls-1" d="M1414.23,1625.25c-98.07,65-251.43,103.18-414.23,103.18s-316.16-38.2-414.23-103.18"/><path id="path17479" class="cls-1" d="M1484.9,1572.18c-101.24,85.81-285.65,138.47-484.9,138.47S616.34,1658,515.1,1572.18"/><path id="path17481" class="cls-1" d="M1545.26,1515c-99.61,105.48-312,172.77-545.26,172.77S554.35,1620.46,454.74,1515"/><path id="path17483" class="cls-1" d="M1596.93,1454.07C1502.68,1578,1265.13,1659.9,1000,1659.9S497.32,1578,403.07,1454.07"/><path id="path17485" class="cls-1" d="M1640.69,1389.9c-85.8,141-345.92,237.39-640.69,237.39s-554.89-96.38-640.69-237.39"/><path id="path17487" class="cls-1" d="M1676.93,1322.91c-74.74,156.69-354.78,267.25-676.93,267.25S397.81,1479.6,323.07,1322.91"/><path id="path17489" class="cls-1" d="M1705.83,1253.6c-61.38,170.85-358.68,295.18-705.83,295.18S355.55,1424.45,294.17,1253.6"/><path id="path17491" class="cls-1" d="M1727.47,1182.46c-46,183.4-357.83,321-727.47,321s-681.47-137.59-727.47-321"/><path id="path17493" class="cls-1" d="M1741.89,1110c-28.8,194.25-352.37,344.49-741.89,344.49S286.91,1304.25,258.11,1110"/><path id="path17495" class="cls-1" d="M1749.1,1036.76c-10,203.29-342.42,365.5-749.1,365.5s-739.12-162.21-749.1-365.5"/><path id="path17497" class="cls-1" d="M1749.1,963.24c6.67,136-134.63,263.15-369.14,332.14s-525.4,69-759.92,0S244.23,1099.26,250.9,963.24"/><path id="path17499" class="cls-2" d="M1741.89,890c20.62,139.09-116.1,272.27-354.15,345s-537.43,72.69-775.48,0S237.49,1029.09,258.11,890"/><path id="path17501" class="cls-1" d="M1727.47,817.54c35.32,140.83-95.1,279.2-334.81,355.22s-545.62,76-785.32,0S237.21,958.37,272.53,817.54"/><path id="path17503" class="cls-1" d="M1705.83,746.4c50.71,141.16-71.66,283.85-311.12,362.79s-550,78.94-789.42,0S243.46,887.56,294.17,746.4"/><path id="path17505" class="cls-1" d="M1676.93,677.09c66.78,140-45.73,286.14-283,367.62s-550.46,81.47-787.78,0-349.82-227.6-283-367.62"/><path id="path17507" class="cls-1" d="M1640.69,610.1c83.56,137.32-17.18,286-250.45,369.63s-547.2,83.64-780.48,0-334-232.31-250.45-369.63"/><path id="path17509" class="cls-1" d="M1596.93,545.93C1698,678.86,1611.16,829.22,1383.82,914.7s-540.31,85.47-767.64,0S302,678.86,403.07,545.93"/><path id="path17511" class="cls-1" d="M1545.26,485c119.64,126.69,49,277.9-170.5,365s-530,87.08-749.52,0S335.1,611.71,454.74,485"/><path id="path17513" class="cls-1" d="M1484.9,427.82C1624.42,546.07,1573,697.4,1363.24,786s-516.72,88.57-726.48,0S375.58,546.07,515.1,427.82"/><path id="path17515" class="cls-1" d="M1414.23,374.75c161.45,107,133.44,257.84-64.65,348.12s-501.07,90.28-699.16,0-226.1-241.14-64.65-348.12"/><path id="path17517" class="cls-1" d="M1329.39,326.18c136.95,67,179.22,168.71,106.92,257.41S1191.54,730.26,1000,730.26s-364-58-436.31-146.67-30-190.45,106.92-257.41"/><path id="path17519" class="cls-1" d="M1218.35,282.47c160.84,48.95,236.87,145.44,186,236.1S1188.28,671.89,1000,671.89,646.45,609.23,595.61,518.57s25.2-187.15,186-236.1"/><ellipse id="path17521" class="cls-1" cx="1000" cy="432.96" rx="365.77" ry="182.91"/><ellipse id="path17523" class="cls-1" cx="1000" cy="408.14" rx="308.93" ry="154.49"/><ellipse id="path17525" class="cls-1" cx="1000" cy="387.58" rx="249.85" ry="124.96"/><ellipse id="path17527" class="cls-1" cx="1000" cy="371.44" rx="188.98" ry="94.52"/><ellipse id="path17529" class="cls-1" cx="1000" cy="359.82" rx="126.75" ry="63.4"/><ellipse id="path17531" class="cls-1" cx="1000" cy="352.82" rx="63.6" ry="31.83"/></g><circle id="path17535" class="cls-1" cx="1000" cy="1000" r="750"/></g></svg>