<svg id="Circular_element" data-name="Circular element" xmlns="http://www.w3.org/2000/svg" viewBox="0 0 2000 2000"><defs><style>.cls-1{fill:none;stroke:#dd1920;stroke-linecap:round;stroke-linejoin:round;stroke-width:3px;}.cls-2{fill:#fff;}</style></defs><path class="cls-1" d="M609.38,999.93H434.66"/><path class="cls-1" d="M613.69,941.78l-176-.6"/><path class="cls-1" d="M626.19,886.26,460.94,829.13"/><path class="cls-1" d="M646.28,834,480.57,776.41"/><path class="cls-1" d="M673.32,785.67,534.43,679.16"/><path class="cls-1" d="M706.73,741.86,568,635.21"/><path class="cls-1" d="M745.91,703.22l-98.81-145"/><path class="cls-1" d="M790.2,670.38,692,525.78"/><path class="cls-1" d="M839,643.93,791,474.47"/><path class="cls-1" d="M891.7,624.53,844.55,456.26"/><path class="cls-1" d="M947.7,612.8,900.34,443.37"/><path class="cls-1" d="M1006.25,609.36l11-174.52"/><path class="cls-1" d="M1063.92,614.5l11.36-174.94"/><path class="cls-1" d="M1119,627.77l66.87-161.9"/><path class="cls-1" d="M1170.77,648.54l67-161.65"/><path class="cls-1" d="M1218.64,676.21l114.66-133"/><path class="cls-1" d="M1262,710.16,1376.28,578"/><path class="cls-1" d="M1300.09,749.84l151.05-90.68"/><path class="cls-1" d="M1332.39,794.62l150-89.61"/><path class="cls-1" d="M1358.21,843.91l151-89.95"/><path class="cls-1" d="M1376.93,897.09l171-37"/><path class="cls-1" d="M1387.9,953.59l171.33-36.87"/><path class="cls-1" d="M1390.45,1012.29l173.9,21.82"/><path class="cls-1" d="M1384.46,1069.5l173.52,22"/><path class="cls-1" d="M1370.45,1124.13l158.21,76.45"/><path class="cls-1" d="M1349,1175.47l157.25,76.22"/><path class="cls-1" d="M1320.74,1222.91l158.38,77.19"/><path class="cls-1" d="M1286.22,1265.75l125.4,121.74"/><path class="cls-1" d="M1246,1303.37l125.8,122.47"/><path class="cls-1" d="M1200.74,1335.1l80.85,155.2"/><path class="cls-1" d="M1151,1360.3l80.73,155.45"/><path class="cls-1" d="M1097.27,1378.31l26.57,173.3"/><path class="cls-1" d="M1040.26,1388.48l26.16,172.9"/><path class="cls-1" d="M981.65,1390.16l-32.42,172.89"/><path class="cls-1" d="M924.83,1383.34,892.5,1555.1"/><path class="cls-1" d="M870.62,1368.62l-33,173"/><path class="cls-1" d="M819.72,1346.52l-85.2,152.61"/><path class="cls-1" d="M772.73,1317.66,687,1470.72"/><path class="cls-1" d="M730.34,1282.57,601.45,1400.89"/><path class="cls-1" d="M693.24,1241.83,564.15,1360.07"/><path class="cls-1" d="M662.07,1196l-160,71.82"/><path class="cls-1" d="M637.5,1145.75l-159.63,71.31"/><path class="cls-1" d="M620.23,1091.55l-175.29,15.91"/><path class="cls-1" d="M610.85,1034l-174,15.23"/><path class="cls-1" d="M434.66,999.93H259.94"/><path class="cls-1" d="M437.67,941.18l-175.4-.31"/><path class="cls-1" d="M446.53,884.13,280.34,826.72"/><path class="cls-1" d="M460.94,829.13,295.74,772"/><path class="cls-1" d="M480.57,776.41,315.14,719"/><path class="cls-1" d="M505.17,726.32,365.28,619.19"/><path class="cls-1" d="M534.43,679.16,395.65,572.68"/><path class="cls-1" d="M568,635.21,429.38,528.68"/><path class="cls-1" d="M605.68,594.79,466.19,487.34"/><path class="cls-1" d="M647.1,558.22l-98.49-144.8"/><path class="cls-1" d="M692,525.78,593.84,381.21"/><path class="cls-1" d="M740.09,497.74,641.48,352.37"/><path class="cls-1" d="M791,474.47,743.44,305.58"/><path class="cls-1" d="M844.55,456.26,797.39,288"/><path class="cls-1" d="M900.34,443.37l-47.27-168.9"/><path class="cls-1" d="M958.12,436.12,969,260.53"/><path class="cls-1" d="M1017.24,434.84l11-174.46"/><path class="cls-1" d="M1075.28,439.56l11.23-174.69"/><path class="cls-1" d="M1131.59,450l67.33-163.07"/><path class="cls-1" d="M1185.85,465.87l66.88-161.71"/><path class="cls-1" d="M1237.78,486.89l66.91-161.56"/><path class="cls-1" d="M1287,512.8l67.61-162.56"/><path class="cls-1" d="M1333.3,543.25l114.46-132.58"/><path class="cls-1" d="M1376.28,578l114.26-132.19"/><path class="cls-1" d="M1415.65,616.72,1530.6,484"/><path class="cls-1" d="M1451.14,659.16,1601.73,569"/><path class="cls-1" d="M1482.41,705l150-89.63"/><path class="cls-1" d="M1509.18,754l150.51-89.77"/><path class="cls-1" d="M1531.11,805.78,1703,768.25"/><path class="cls-1" d="M1547.9,860.1l170.88-36.9"/><path class="cls-1" d="M1559.23,916.72l171.08-36.88"/><path class="cls-1" d="M1564.8,975.27,1737.47,938"/><path class="cls-1" d="M1564.35,1034.11,1738,1055.89"/><path class="cls-1" d="M1558,1091.46l173.47,21.88"/><path class="cls-1" d="M1546,1147.06l174.58,22.39"/><path class="cls-1" d="M1528.66,1200.58l157.79,76.31"/><path class="cls-1" d="M1506.28,1251.69l157.27,76.19"/><path class="cls-1" d="M1479.12,1300.1,1637,1376.78"/><path class="cls-1" d="M1447.47,1345.44l126.08,122.19"/><path class="cls-1" d="M1411.62,1387.49,1537,1509.19"/><path class="cls-1" d="M1371.82,1425.84l125.59,122.1"/><path class="cls-1" d="M1328.38,1460.21l81.53,156"/><path class="cls-1" d="M1281.59,1490.3l80.74,155.11"/><path class="cls-1" d="M1231.7,1515.75,1312.39,1671"/><path class="cls-1" d="M1179,1536.32l81.28,156.56"/><path class="cls-1" d="M1123.84,1551.61l26.42,173.06"/><path class="cls-1" d="M1066.42,1561.38l26.19,172.81"/><path class="cls-1" d="M1007.41,1565.24l26.14,174"/><path class="cls-1" d="M949.23,1563.05l-32.38,172.36"/><path class="cls-1" d="M892.5,1555.1l-32.3,171.73"/><path class="cls-1" d="M837.61,1541.61,804.91,1714"/><path class="cls-1" d="M784.83,1522.86l-85.54,153.43"/><path class="cls-1" d="M734.52,1499.13l-85.23,152.59"/><path class="cls-1" d="M687,1470.72l-85.51,152.82"/><path class="cls-1" d="M642.5,1437.88,512.93,1557.09"/><path class="cls-1" d="M601.45,1400.89,472.61,1519.13"/><path class="cls-1" d="M564.15,1360.07,435.2,1478.22"/><path class="cls-1" d="M530.91,1315.61l-130,118.92"/><path class="cls-1" d="M502.05,1267.86l-159.83,71.59"/><path class="cls-1" d="M477.87,1217.06l-159.6,71.33"/><path class="cls-1" d="M458.72,1163.51l-160.54,71.67"/><path class="cls-1" d="M444.94,1107.46l-174.71,15.59"/><path class="cls-1" d="M436.82,1049.19l-174.06,15.23"/><path class="cls-1" d="M259.94,999.93H784.09"/><path class="cls-1" d="M262.27,940.87l521.82,59.06"/><path class="cls-1" d="M269.12,883.08l522.47,60.26"/><path class="cls-1" d="M280.34,826.72,791.59,943.34"/><path class="cls-1" d="M295.74,772,791.59,943.34"/><path class="cls-1" d="M315.14,719,791.59,943.34"/><path class="cls-1" d="M338.38,668.05,812.76,892.34"/><path class="cls-1" d="M365.28,619.19,812.76,892.34"/><path class="cls-1" d="M395.65,572.68,812.76,892.34"/><path class="cls-1" d="M429.38,528.68l416.3,320.25"/><path class="cls-1" d="M466.19,487.34,845.68,848.93"/><path class="cls-1" d="M506,448.85,845.68,848.93"/><path class="cls-1" d="M548.61,413.42,888.35,815.07"/><path class="cls-1" d="M593.84,381.21,888.35,815.07"/><path class="cls-1" d="M641.48,352.37l246.87,462.7"/><path class="cls-1" d="M691.42,327.09l196.93,488"/><path class="cls-1" d="M743.44,305.58,938.89,792.8"/><path class="cls-1" d="M797.39,288,938.89,792.8"/><path class="cls-1" d="M853.07,274.47,938.89,792.8"/><path class="cls-1" d="M910.34,265.27l84.94,518.81"/><path class="cls-1" d="M969,260.53l26.27,523.55"/><path class="cls-1" d="M1028.27,260.38l-33,523.7"/><path class="cls-1" d="M1086.51,264.87,1052,790.33"/><path class="cls-1" d="M1143.44,273.76,1052,790.33"/><path class="cls-1" d="M1198.92,286.92,1052,790.33"/><path class="cls-1" d="M1252.73,304.16,1052,790.33"/><path class="cls-1" d="M1304.69,325.33,1103.47,810.38"/><path class="cls-1" d="M1354.63,350.24,1103.47,810.38"/><path class="cls-1" d="M1402.39,378.76,1103.47,810.38"/><path class="cls-1" d="M1447.76,410.67,1147.59,842.34"/><path class="cls-1" d="M1490.54,445.81l-343,396.53"/><path class="cls-1" d="M1530.6,484l-383,358.32"/><path class="cls-1" d="M1567.73,525.13,1147.59,842.34"/><path class="cls-1" d="M1601.73,569,1182.36,884.28"/><path class="cls-1" d="M1632.44,615.38l-450.08,268.9"/><path class="cls-1" d="M1659.69,664.19,1182.36,884.28"/><path class="cls-1" d="M1683.3,715.18,1205.74,934.3"/><path class="cls-1" d="M1703,768.25l-497.3,166"/><path class="cls-1" d="M1718.78,823.2l-513,111.1"/><path class="cls-1" d="M1730.31,879.84,1215.71,990.5"/><path class="cls-1" d="M1737.47,938,1215.71,990.5"/><path class="cls-1" d="M1740.06,997.32l-524.35-6.82"/><path class="cls-1" d="M1738,1055.89l-522.3-65.39"/><path class="cls-1" d="M1731.45,1113.34l-520.77-66"/><path class="cls-1" d="M1720.57,1169.45l-509.89-122.08"/><path class="cls-1" d="M1705.51,1224l-494.83-176.65"/><path class="cls-1" d="M1686.45,1276.89l-494.69-177.64"/><path class="cls-1" d="M1663.55,1327.88l-471.79-228.63"/><path class="cls-1" d="M1637,1376.78l-445.23-277.53"/><path class="cls-1" d="M1606.93,1423.42l-446.16-279.37"/><path class="cls-1" d="M1573.55,1467.63l-412.78-323.58"/><path class="cls-1" d="M1537,1509.19l-376.22-365.14"/><path class="cls-1" d="M1497.41,1547.94l-336.64-403.89"/><path class="cls-1" d="M1455,1583.68l-335.4-404"/><path class="cls-1" d="M1409.91,1616.24,1119.6,1179.73"/><path class="cls-1" d="M1362.33,1645.41,1119.6,1179.73"/><path class="cls-1" d="M1312.39,1671l-242.3-466.82"/><path class="cls-1" d="M1260.31,1692.88l-190.22-488.69"/><path class="cls-1" d="M1206.19,1710.84l-136.1-506.65"/><path class="cls-1" d="M1150.26,1724.67l-80.17-520.48"/><path class="cls-1" d="M1092.61,1734.19l-78.49-518.81"/><path class="cls-1" d="M1033.55,1739.22l-19.43-523.84"/><path class="cls-1" d="M974.69,1739.62l39.43-524.24"/><path class="cls-1" d="M916.85,1735.41l40.34-523.8"/><path class="cls-1" d="M860.2,1726.83l97-515.22"/><path class="cls-1" d="M804.91,1714l152.28-502.38"/><path class="cls-1" d="M751.22,1697.09l153.69-503.3"/><path class="cls-1" d="M699.29,1676.29l205.62-482.5"/><path class="cls-1" d="M649.29,1651.72l255.62-457.93"/><path class="cls-1" d="M601.45,1623.54l303.46-429.75"/><path class="cls-1" d="M555.91,1592l303.52-428.16"/><path class="cls-1" d="M512.93,1557.09l346.5-393.3"/><path class="cls-1" d="M472.61,1519.13l386.82-355.34"/><path class="cls-1" d="M435.2,1478.22l387.64-354.8"/><path class="cls-1" d="M400.88,1434.53l422-311.11"/><path class="cls-1" d="M369.83,1388.22l453-264.8"/><path class="cls-1" d="M342.22,1339.45l455.08-265"/><path class="cls-1" d="M318.27,1288.39l479-213.94"/><path class="cls-1" d="M298.18,1235.18,797.3,1074.45"/><path class="cls-1" d="M282.07,1180,797.3,1074.45"/><path class="cls-1" d="M270.23,1123.05,784.09,999.93"/><path class="cls-1" d="M262.76,1064.42l521.33-64.49"/><path class="cls-2" d="M794,999.93a9.94,9.94,0,1,1-9.94-9.94A10,10,0,0,1,794,999.93Z"/><path class="cls-2" d="M801.53,943.34a9.94,9.94,0,1,1-9.94-10A9.93,9.93,0,0,1,801.53,943.34Z"/><path class="cls-2" d="M822.7,892.34a9.95,9.95,0,1,1-9.94-9.94A9.92,9.92,0,0,1,822.7,892.34Z"/><path class="cls-2" d="M855.62,848.93a9.94,9.94,0,1,1-9.94-9.94A10,10,0,0,1,855.62,848.93Z"/><path class="cls-2" d="M898.3,815.07a9.95,9.95,0,1,1-9.95-9.94A9.92,9.92,0,0,1,898.3,815.07Z"/><path class="cls-2" d="M948.84,792.8a9.95,9.95,0,1,1-10-9.94A10,10,0,0,1,948.84,792.8Z"/><path class="cls-2" d="M1005.23,784.08a9.95,9.95,0,1,1-10-10A9.94,9.94,0,0,1,1005.23,784.08Z"/><path class="cls-2" d="M1062,790.33a9.95,9.95,0,1,1-9.94-10A10,10,0,0,1,1062,790.33Z"/><path class="cls-2" d="M1113.41,810.38a9.95,9.95,0,1,1-9.94-9.94A10,10,0,0,1,1113.41,810.38Z"/><path class="cls-2" d="M1157.53,842.34a9.95,9.95,0,1,1-9.94-9.94A9.94,9.94,0,0,1,1157.53,842.34Z"/><path class="cls-2" d="M1192.3,884.28a9.95,9.95,0,1,1-9.94-9.95A9.91,9.91,0,0,1,1192.3,884.28Z"/><path class="cls-2" d="M1215.68,934.3a9.94,9.94,0,1,1-9.94-9.94A9.92,9.92,0,0,1,1215.68,934.3Z"/><path class="cls-2" d="M1225.65,990.5a9.94,9.94,0,1,1-9.94-10A9.93,9.93,0,0,1,1225.65,990.5Z"/><path class="cls-2" d="M1220.62,1047.37a9.94,9.94,0,1,1-9.94-9.94A10,10,0,0,1,1220.62,1047.37Z"/><path class="cls-2" d="M1201.7,1099.25a9.94,9.94,0,1,1-9.94-10A10,10,0,0,1,1201.7,1099.25Z"/><path class="cls-2" d="M1170.71,1144.05a9.95,9.95,0,1,1-9.94-9.94A10,10,0,0,1,1170.71,1144.05Z"/><path class="cls-2" d="M1129.55,1179.73a9.95,9.95,0,1,1-10-9.94A10,10,0,0,1,1129.55,1179.73Z"/><path class="cls-2" d="M1080,1204.19a9.95,9.95,0,1,1-9.94-9.94A9.93,9.93,0,0,1,1080,1204.19Z"/><path class="cls-2" d="M1024.06,1215.38a9.94,9.94,0,1,1-9.94-9.94A10,10,0,0,1,1024.06,1215.38Z"/><path class="cls-2" d="M967.13,1211.61a9.95,9.95,0,1,1-9.94-9.95A10,10,0,0,1,967.13,1211.61Z"/><path class="cls-2" d="M914.86,1193.79a9.95,9.95,0,1,1-10-9.94A9.94,9.94,0,0,1,914.86,1193.79Z"/><path class="cls-2" d="M869.38,1163.79a9.95,9.95,0,1,1-10-9.94A10,10,0,0,1,869.38,1163.79Z"/><path class="cls-2" d="M832.78,1123.42a9.94,9.94,0,1,1-9.94-9.94A9.94,9.94,0,0,1,832.78,1123.42Z"/><path class="cls-2" d="M807.24,1074.45a9.94,9.94,0,1,1-9.94-10A9.91,9.91,0,0,1,807.24,1074.45Z"/><path class="cls-2" d="M619.32,999.93a9.95,9.95,0,1,1-9.94-9.94A10,10,0,0,1,619.32,999.93Z"/><path class="cls-2" d="M623.64,941.78a9.95,9.95,0,1,1-9.95-9.95A10,10,0,0,1,623.64,941.78Z"/><path class="cls-2" d="M636.14,886.26a9.95,9.95,0,1,1-9.95-9.94A10,10,0,0,1,636.14,886.26Z"/><path class="cls-2" d="M656.22,834a9.94,9.94,0,1,1-9.94-9.94A10,10,0,0,1,656.22,834Z"/><path class="cls-2" d="M683.27,785.67a9.95,9.95,0,1,1-9.95-9.95A9.94,9.94,0,0,1,683.27,785.67Z"/><path class="cls-2" d="M716.68,741.86a9.95,9.95,0,1,1-9.95-9.94A9.92,9.92,0,0,1,716.68,741.86Z"/><path class="cls-2" d="M755.85,703.22a9.94,9.94,0,1,1-9.94-9.94A9.94,9.94,0,0,1,755.85,703.22Z"/><path class="cls-2" d="M800.14,670.38a9.94,9.94,0,1,1-9.94-9.94A10,10,0,0,1,800.14,670.38Z"/><path class="cls-2" d="M849,643.93A9.95,9.95,0,1,1,839,634,10,10,0,0,1,849,643.93Z"/><path class="cls-2" d="M901.65,624.53a9.95,9.95,0,1,1-9.95-9.94A10,10,0,0,1,901.65,624.53Z"/><path class="cls-2" d="M957.64,612.8a9.94,9.94,0,1,1-9.94-9.94A10,10,0,0,1,957.64,612.8Z"/><path class="cls-2" d="M1016.19,609.36a9.94,9.94,0,1,1-9.94-9.94A10,10,0,0,1,1016.19,609.36Z"/><path class="cls-2" d="M1073.86,614.5a9.94,9.94,0,1,1-9.94-9.94A10,10,0,0,1,1073.86,614.5Z"/><path class="cls-2" d="M1128.92,627.77a9.95,9.95,0,1,1-9.94-9.94A10,10,0,0,1,1128.92,627.77Z"/><path class="cls-2" d="M1180.71,648.54a9.95,9.95,0,1,1-9.94-9.95A10,10,0,0,1,1180.71,648.54Z"/><path class="cls-2" d="M1228.58,676.21a9.95,9.95,0,1,1-9.94-10A10,10,0,0,1,1228.58,676.21Z"/><path class="cls-2" d="M1271.9,710.16a9.94,9.94,0,1,1-9.94-9.95A9.93,9.93,0,0,1,1271.9,710.16Z"/><path class="cls-2" d="M1310,749.84a9.95,9.95,0,1,1-9.94-9.94A9.94,9.94,0,0,1,1310,749.84Z"/><path class="cls-2" d="M1342.33,794.62a9.95,9.95,0,1,1-9.94-10A9.91,9.91,0,0,1,1342.33,794.62Z"/><path class="cls-2" d="M1368.15,843.91a9.94,9.94,0,1,1-9.94-9.95A9.93,9.93,0,0,1,1368.15,843.91Z"/><path class="cls-2" d="M1386.88,897.09a9.95,9.95,0,1,1-10-10A9.94,9.94,0,0,1,1386.88,897.09Z"/><path class="cls-2" d="M1397.84,953.59a9.95,9.95,0,1,1-9.94-9.94A10,10,0,0,1,1397.84,953.59Z"/><path class="cls-2" d="M1400.4,1012.29a9.95,9.95,0,1,1-10-9.95A10,10,0,0,1,1400.4,1012.29Z"/><path class="cls-2" d="M1394.4,1069.5a9.94,9.94,0,1,1-9.94-9.94A9.94,9.94,0,0,1,1394.4,1069.5Z"/><path class="cls-2" d="M1380.4,1124.13a9.95,9.95,0,1,1-10-9.94A10,10,0,0,1,1380.4,1124.13Z"/><path class="cls-2" d="M1359,1175.47a9.95,9.95,0,1,1-10-9.94A9.94,9.94,0,0,1,1359,1175.47Z"/><path class="cls-2" d="M1330.68,1222.91a9.94,9.94,0,1,1-9.94-9.94A9.94,9.94,0,0,1,1330.68,1222.91Z"/><path class="cls-2" d="M1296.16,1265.75a9.94,9.94,0,1,1-9.94-9.94A10,10,0,0,1,1296.16,1265.75Z"/><path class="cls-2" d="M1256,1303.37a9.95,9.95,0,1,1-10-9.95A9.94,9.94,0,0,1,1256,1303.37Z"/><path class="cls-2" d="M1210.68,1335.1a9.94,9.94,0,1,1-9.94-9.94A9.93,9.93,0,0,1,1210.68,1335.1Z"/><path class="cls-2" d="M1160.91,1360.3a9.95,9.95,0,1,1-9.94-9.94A9.93,9.93,0,0,1,1160.91,1360.3Z"/><path class="cls-2" d="M1107.22,1378.31a9.95,9.95,0,1,1-10-9.94A9.94,9.94,0,0,1,1107.22,1378.31Z"/><path class="cls-2" d="M1050.2,1388.48a9.95,9.95,0,1,1-9.94-9.94A10,10,0,0,1,1050.2,1388.48Z"/><path class="cls-2" d="M991.59,1390.16a9.95,9.95,0,1,1-9.94-10A10,10,0,0,1,991.59,1390.16Z"/><path class="cls-2" d="M934.77,1383.34a9.94,9.94,0,1,1-9.94-9.95A9.93,9.93,0,0,1,934.77,1383.34Z"/><path class="cls-2" d="M880.57,1368.62a9.95,9.95,0,1,1-10-9.94A9.94,9.94,0,0,1,880.57,1368.62Z"/><path class="cls-2" d="M829.66,1346.52a9.95,9.95,0,1,1-9.94-9.94A10,10,0,0,1,829.66,1346.52Z"/><path class="cls-2" d="M782.67,1317.66a9.95,9.95,0,1,1-9.94-10A10,10,0,0,1,782.67,1317.66Z"/><path class="cls-2" d="M740.28,1282.57a9.94,9.94,0,1,1-9.94-9.94A9.93,9.93,0,0,1,740.28,1282.57Z"/><path class="cls-2" d="M703.18,1241.83a9.94,9.94,0,1,1-9.94-9.94A9.94,9.94,0,0,1,703.18,1241.83Z"/><path class="cls-2" d="M672,1196a9.95,9.95,0,1,1-9.95-10A9.94,9.94,0,0,1,672,1196Z"/><path class="cls-2" d="M647.44,1145.75a9.94,9.94,0,1,1-9.94-9.94A9.94,9.94,0,0,1,647.44,1145.75Z"/><path class="cls-2" d="M630.17,1091.55a9.95,9.95,0,1,1-9.94-9.94A10,10,0,0,1,630.17,1091.55Z"/><path class="cls-2" d="M620.8,1034a9.95,9.95,0,1,1-9.95-9.94A9.93,9.93,0,0,1,620.8,1034Z"/><path class="cls-2" d="M444.6,999.93a9.94,9.94,0,1,1-9.94-9.94A10,10,0,0,1,444.6,999.93Z"/><path class="cls-2" d="M447.61,941.18a9.94,9.94,0,1,1-9.94-9.94A9.93,9.93,0,0,1,447.61,941.18Z"/><path class="cls-2" d="M456.48,884.13a9.95,9.95,0,1,1-10-9.94A9.94,9.94,0,0,1,456.48,884.13Z"/><path class="cls-2" d="M470.88,829.13a9.95,9.95,0,1,1-9.94-9.94A10,10,0,0,1,470.88,829.13Z"/><path class="cls-2" d="M490.51,776.41a9.95,9.95,0,1,1-9.94-9.95A9.91,9.91,0,0,1,490.51,776.41Z"/><path class="cls-2" d="M515.11,726.32a9.94,9.94,0,1,1-9.94-9.94A10,10,0,0,1,515.11,726.32Z"/><path class="cls-2" d="M544.38,679.16a9.95,9.95,0,1,1-10-9.94A10,10,0,0,1,544.38,679.16Z"/><path class="cls-2" d="M578,635.21a9.94,9.94,0,1,1-9.94-9.94A9.94,9.94,0,0,1,578,635.21Z"/><path class="cls-2" d="M615.62,594.79a9.94,9.94,0,1,1-9.94-9.95A9.93,9.93,0,0,1,615.62,594.79Z"/><path class="cls-2" d="M657.05,558.22a9.95,9.95,0,1,1-9.95-9.94A9.94,9.94,0,0,1,657.05,558.22Z"/><path class="cls-2" d="M702,525.78a9.95,9.95,0,1,1-9.94-9.94A10,10,0,0,1,702,525.78Z"/><path class="cls-2" d="M750,497.74a9.95,9.95,0,1,1-9.94-9.94A9.93,9.93,0,0,1,750,497.74Z"/><path class="cls-2" d="M801,474.47a9.95,9.95,0,1,1-10-9.94A9.94,9.94,0,0,1,801,474.47Z"/><path class="cls-2" d="M854.49,456.26a9.95,9.95,0,1,1-9.94-9.94A10,10,0,0,1,854.49,456.26Z"/><path class="cls-2" d="M910.28,443.37a9.94,9.94,0,1,1-9.94-9.95A10,10,0,0,1,910.28,443.37Z"/><path class="cls-2" d="M968.07,436.12a9.95,9.95,0,1,1-10-9.94A9.94,9.94,0,0,1,968.07,436.12Z"/><path class="cls-2" d="M1027.19,434.84a9.95,9.95,0,1,1-10-9.94A10,10,0,0,1,1027.19,434.84Z"/><path class="cls-2" d="M1085.23,439.56a9.95,9.95,0,1,1-10-9.94A9.94,9.94,0,0,1,1085.23,439.56Z"/><path class="cls-2" d="M1141.53,450a9.94,9.94,0,1,1-9.94-9.95A9.93,9.93,0,0,1,1141.53,450Z"/><path class="cls-2" d="M1195.8,465.87a9.95,9.95,0,1,1-10-9.95A9.94,9.94,0,0,1,1195.8,465.87Z"/><path class="cls-2" d="M1247.73,486.89a9.95,9.95,0,1,1-10-9.94A10,10,0,0,1,1247.73,486.89Z"/><path class="cls-2" d="M1297,512.8a9.95,9.95,0,1,1-9.94-9.94A10,10,0,0,1,1297,512.8Z"/><path class="cls-2" d="M1343.24,543.25a9.95,9.95,0,1,1-9.94-9.94A10,10,0,0,1,1343.24,543.25Z"/><path class="cls-2" d="M1386.22,578a9.94,9.94,0,1,1-9.94-10A10,10,0,0,1,1386.22,578Z"/><path class="cls-2" d="M1425.6,616.72a9.95,9.95,0,1,1-9.95-9.94A10,10,0,0,1,1425.6,616.72Z"/><path class="cls-2" d="M1461.08,659.16a9.95,9.95,0,1,1-9.94-9.94A9.94,9.94,0,0,1,1461.08,659.16Z"/><path class="cls-2" d="M1492.36,705a9.95,9.95,0,1,1-9.95-9.94A9.94,9.94,0,0,1,1492.36,705Z"/><path class="cls-2" d="M1519.12,754a9.95,9.95,0,1,1-9.94-9.94A10,10,0,0,1,1519.12,754Z"/><path class="cls-2" d="M1541.05,805.78a9.95,9.95,0,1,1-9.94-9.94A10,10,0,0,1,1541.05,805.78Z"/><path class="cls-2" d="M1557.84,860.1a9.95,9.95,0,1,1-9.94-9.94A9.93,9.93,0,0,1,1557.84,860.1Z"/><path class="cls-2" d="M1569.18,916.72a9.95,9.95,0,1,1-10-9.94A10,10,0,0,1,1569.18,916.72Z"/><path class="cls-2" d="M1574.74,975.27a9.94,9.94,0,1,1-9.94-9.94A10,10,0,0,1,1574.74,975.27Z"/><path class="cls-2" d="M1574.29,1034.11a9.95,9.95,0,1,1-9.94-9.95A10,10,0,0,1,1574.29,1034.11Z"/><path class="cls-2" d="M1567.93,1091.46a9.95,9.95,0,1,1-10-9.94A9.94,9.94,0,0,1,1567.93,1091.46Z"/><path class="cls-2" d="M1555.94,1147.06a9.95,9.95,0,1,1-10-9.94A9.94,9.94,0,0,1,1555.94,1147.06Z"/><path class="cls-2" d="M1538.61,1200.58a9.95,9.95,0,1,1-9.95-9.94A9.94,9.94,0,0,1,1538.61,1200.58Z"/><path class="cls-2" d="M1516.22,1251.69a9.94,9.94,0,1,1-9.94-9.94A9.93,9.93,0,0,1,1516.22,1251.69Z"/><path class="cls-2" d="M1489.06,1300.1a9.94,9.94,0,1,1-9.94-9.94A9.93,9.93,0,0,1,1489.06,1300.1Z"/><path class="cls-2" d="M1457.41,1345.44a9.94,9.94,0,1,1-9.94-9.94A9.93,9.93,0,0,1,1457.41,1345.44Z"/><path class="cls-2" d="M1421.56,1387.49a9.94,9.94,0,1,1-9.94-10A10,10,0,0,1,1421.56,1387.49Z"/><path class="cls-2" d="M1381.76,1425.84a9.94,9.94,0,1,1-9.94-9.95A10,10,0,0,1,1381.76,1425.84Z"/><path class="cls-2" d="M1338.32,1460.21a9.94,9.94,0,1,1-9.94-9.94A10,10,0,0,1,1338.32,1460.21Z"/><path class="cls-2" d="M1291.53,1490.3a9.94,9.94,0,1,1-9.94-9.94A10,10,0,0,1,1291.53,1490.3Z"/><path class="cls-2" d="M1241.65,1515.75a9.95,9.95,0,1,1-10-9.94A9.94,9.94,0,0,1,1241.65,1515.75Z"/><path class="cls-2" d="M1189,1536.32a9.95,9.95,0,1,1-10-9.94A10,10,0,0,1,1189,1536.32Z"/><path class="cls-2" d="M1133.78,1551.61a9.95,9.95,0,1,1-9.94-9.95A9.91,9.91,0,0,1,1133.78,1551.61Z"/><path class="cls-2" d="M1076.36,1561.38a9.94,9.94,0,1,1-9.94-10A9.93,9.93,0,0,1,1076.36,1561.38Z"/><path class="cls-2" d="M1017.36,1565.24a9.95,9.95,0,1,1-10-9.94A10,10,0,0,1,1017.36,1565.24Z"/><path class="cls-2" d="M959.18,1563.05a9.95,9.95,0,1,1-9.95-9.94A9.94,9.94,0,0,1,959.18,1563.05Z"/><path class="cls-2" d="M902.44,1555.1a9.94,9.94,0,1,1-9.94-9.94A9.93,9.93,0,0,1,902.44,1555.1Z"/><path class="cls-2" d="M847.56,1541.61a9.95,9.95,0,1,1-9.95-9.95A10,10,0,0,1,847.56,1541.61Z"/><path class="cls-2" d="M794.77,1522.86a9.94,9.94,0,1,1-9.94-9.95A10,10,0,0,1,794.77,1522.86Z"/><path class="cls-2" d="M744.46,1499.13a9.95,9.95,0,1,1-9.94-9.94A10,10,0,0,1,744.46,1499.13Z"/><path class="cls-2" d="M696.9,1470.72a9.94,9.94,0,1,1-9.94-9.94A10,10,0,0,1,696.9,1470.72Z"/><path class="cls-2" d="M652.44,1437.88a9.94,9.94,0,1,1-9.94-9.94A10,10,0,0,1,652.44,1437.88Z"/><path class="cls-2" d="M611.39,1400.89a9.94,9.94,0,1,1-9.94-9.94A9.94,9.94,0,0,1,611.39,1400.89Z"/><path class="cls-2" d="M574.09,1360.07a9.95,9.95,0,1,1-9.94-9.94A10,10,0,0,1,574.09,1360.07Z"/><path class="cls-2" d="M540.85,1315.61a9.94,9.94,0,1,1-9.94-9.94A9.93,9.93,0,0,1,540.85,1315.61Z"/><path class="cls-2" d="M512,1267.86a9.95,9.95,0,1,1-9.94-9.95A9.93,9.93,0,0,1,512,1267.86Z"/><path class="cls-2" d="M487.81,1217.06a9.94,9.94,0,1,1-9.94-9.94A9.93,9.93,0,0,1,487.81,1217.06Z"/><path class="cls-2" d="M468.66,1163.51a9.94,9.94,0,1,1-9.94-9.94A9.93,9.93,0,0,1,468.66,1163.51Z"/><path class="cls-2" d="M454.89,1107.46a9.95,9.95,0,1,1-9.95-10A10,10,0,0,1,454.89,1107.46Z"/><path class="cls-2" d="M446.76,1049.19a9.94,9.94,0,1,1-9.94-9.94A9.93,9.93,0,0,1,446.76,1049.19Z"/><path class="cls-2" d="M269.89,999.93a9.95,9.95,0,1,1-9.95-9.94A10,10,0,0,1,269.89,999.93Z"/><path class="cls-2" d="M272.22,940.87a9.95,9.95,0,1,1-10-10A9.94,9.94,0,0,1,272.22,940.87Z"/><path class="cls-2" d="M279.06,883.08a9.94,9.94,0,1,1-9.94-9.94A10,10,0,0,1,279.06,883.08Z"/><path class="cls-2" d="M290.28,826.72a9.94,9.94,0,1,1-9.94-9.94A9.93,9.93,0,0,1,290.28,826.72Z"/><path class="cls-2" d="M305.68,772a9.94,9.94,0,1,1-9.94-9.94A9.94,9.94,0,0,1,305.68,772Z"/><path class="cls-2" d="M325.09,719a9.95,9.95,0,1,1-9.95-9.94A9.94,9.94,0,0,1,325.09,719Z"/><path class="cls-2" d="M348.32,668.05a9.94,9.94,0,1,1-9.94-9.94A10,10,0,0,1,348.32,668.05Z"/><path class="cls-2" d="M375.23,619.19a9.95,9.95,0,1,1-10-9.94A9.94,9.94,0,0,1,375.23,619.19Z"/><path class="cls-2" d="M405.6,572.68a9.95,9.95,0,1,1-10-9.94A9.94,9.94,0,0,1,405.6,572.68Z"/><path class="cls-2" d="M439.32,528.68a9.95,9.95,0,1,1-9.94-9.94A10,10,0,0,1,439.32,528.68Z"/><path class="cls-2" d="M476.14,487.34a9.95,9.95,0,1,1-9.95-9.94A9.94,9.94,0,0,1,476.14,487.34Z"/><path class="cls-2" d="M516,448.85a9.95,9.95,0,1,1-10-9.94A9.94,9.94,0,0,1,516,448.85Z"/><path class="cls-2" d="M558.55,413.42a9.95,9.95,0,1,1-9.94-9.94A10,10,0,0,1,558.55,413.42Z"/><path class="cls-2" d="M603.78,381.21a9.95,9.95,0,1,1-9.94-9.95A10,10,0,0,1,603.78,381.21Z"/><path class="cls-2" d="M651.42,352.37a9.95,9.95,0,1,1-9.94-9.94A10,10,0,0,1,651.42,352.37Z"/><path class="cls-2" d="M701.36,327.09a9.94,9.94,0,1,1-9.94-9.95A10,10,0,0,1,701.36,327.09Z"/><path class="cls-2" d="M753.38,305.58a9.95,9.95,0,1,1-9.94-9.94A10,10,0,0,1,753.38,305.58Z"/><path class="cls-2" d="M807.33,288a9.95,9.95,0,1,1-9.94-9.94A9.93,9.93,0,0,1,807.33,288Z"/><path class="cls-2" d="M863,274.47a9.95,9.95,0,1,1-9.94-9.94A9.94,9.94,0,0,1,863,274.47Z"/><path class="cls-2" d="M920.28,265.27a9.94,9.94,0,1,1-9.94-9.94A10,10,0,0,1,920.28,265.27Z"/><path class="cls-2" d="M979,260.53a9.95,9.95,0,1,1-9.94-9.95A10,10,0,0,1,979,260.53Z"/><path class="cls-2" d="M1038.21,260.38a9.95,9.95,0,1,1-9.94-9.94A9.94,9.94,0,0,1,1038.21,260.38Z"/><path class="cls-2" d="M1096.45,264.87a9.95,9.95,0,1,1-9.94-9.94A10,10,0,0,1,1096.45,264.87Z"/><path class="cls-2" d="M1153.38,273.76a9.95,9.95,0,1,1-9.94-9.94A9.94,9.94,0,0,1,1153.38,273.76Z"/><path class="cls-2" d="M1208.86,286.92a9.94,9.94,0,1,1-9.94-9.95A10,10,0,0,1,1208.86,286.92Z"/><path class="cls-2" d="M1262.67,304.16a9.95,9.95,0,1,1-9.94-9.94A10,10,0,0,1,1262.67,304.16Z"/><path class="cls-2" d="M1314.63,325.33a9.95,9.95,0,1,1-9.94-9.95A9.93,9.93,0,0,1,1314.63,325.33Z"/><path class="cls-2" d="M1364.57,350.24a9.94,9.94,0,1,1-9.94-9.94A9.91,9.91,0,0,1,1364.57,350.24Z"/><path class="cls-2" d="M1412.33,378.76a9.95,9.95,0,1,1-9.94-9.94A10,10,0,0,1,1412.33,378.76Z"/><path class="cls-2" d="M1457.7,410.67a9.95,9.95,0,1,1-9.94-9.95A10,10,0,0,1,1457.7,410.67Z"/><path class="cls-2" d="M1500.48,445.81a9.94,9.94,0,1,1-9.94-9.94A9.93,9.93,0,0,1,1500.48,445.81Z"/><path class="cls-2" d="M1540.54,484a9.95,9.95,0,1,1-9.94-9.94A10,10,0,0,1,1540.54,484Z"/><path class="cls-2" d="M1577.67,525.13a9.95,9.95,0,1,1-9.94-10A9.93,9.93,0,0,1,1577.67,525.13Z"/><path class="cls-2" d="M1611.68,569a9.95,9.95,0,1,1-10-9.94A10,10,0,0,1,1611.68,569Z"/><path class="cls-2" d="M1642.39,615.38a9.95,9.95,0,1,1-10-9.94A9.94,9.94,0,0,1,1642.39,615.38Z"/><path class="cls-2" d="M1669.63,664.19a9.95,9.95,0,1,1-9.94-9.94A9.93,9.93,0,0,1,1669.63,664.19Z"/><path class="cls-2" d="M1693.24,715.18a9.95,9.95,0,1,1-9.94-9.94A9.94,9.94,0,0,1,1693.24,715.18Z"/><path class="cls-2" d="M1713,768.25a9.94,9.94,0,1,1-9.94-9.94A10,10,0,0,1,1713,768.25Z"/><path class="cls-2" d="M1728.72,823.2a9.94,9.94,0,1,1-9.94-10A10,10,0,0,1,1728.72,823.2Z"/><path class="cls-2" d="M1740.26,879.84a9.95,9.95,0,1,1-10-9.94A9.94,9.94,0,0,1,1740.26,879.84Z"/><path class="cls-2" d="M1747.41,938a9.94,9.94,0,1,1-9.94-9.95A10,10,0,0,1,1747.41,938Z"/><path class="cls-2" d="M1750,997.32a9.95,9.95,0,1,1-9.94-10A9.93,9.93,0,0,1,1750,997.32Z"/><path class="cls-2" d="M1748,1055.89A9.94,9.94,0,1,1,1738,1046,9.94,9.94,0,0,1,1748,1055.89Z"/><path class="cls-2" d="M1741.39,1113.34a9.94,9.94,0,1,1-9.94-9.95A9.93,9.93,0,0,1,1741.39,1113.34Z"/><path class="cls-2" d="M1730.51,1169.45a9.95,9.95,0,1,1-9.94-10A10,10,0,0,1,1730.51,1169.45Z"/><path class="cls-2" d="M1715.45,1224a9.94,9.94,0,1,1-9.94-9.94A9.93,9.93,0,0,1,1715.45,1224Z"/><path class="cls-2" d="M1696.39,1276.89a9.94,9.94,0,1,1-9.94-9.94A9.93,9.93,0,0,1,1696.39,1276.89Z"/><path class="cls-2" d="M1673.49,1327.88a9.94,9.94,0,1,1-9.94-9.94A9.94,9.94,0,0,1,1673.49,1327.88Z"/><path class="cls-2" d="M1646.93,1376.78a9.94,9.94,0,1,1-9.94-10A9.91,9.91,0,0,1,1646.93,1376.78Z"/><path class="cls-2" d="M1616.88,1423.42a9.95,9.95,0,1,1-10-9.94A9.93,9.93,0,0,1,1616.88,1423.42Z"/><path class="cls-2" d="M1583.49,1467.63a9.94,9.94,0,1,1-9.94-10A10,10,0,0,1,1583.49,1467.63Z"/><path class="cls-2" d="M1546.93,1509.19a9.94,9.94,0,1,1-9.94-9.94A10,10,0,0,1,1546.93,1509.19Z"/><path class="cls-2" d="M1507.36,1547.94a9.95,9.95,0,1,1-9.95-9.94A10,10,0,0,1,1507.36,1547.94Z"/><path class="cls-2" d="M1464.94,1583.68a9.94,9.94,0,1,1-9.94-9.94A10,10,0,0,1,1464.94,1583.68Z"/><path class="cls-2" d="M1419.86,1616.24a9.95,9.95,0,1,1-9.95-10A10,10,0,0,1,1419.86,1616.24Z"/><path class="cls-2" d="M1372.27,1645.41a9.94,9.94,0,1,1-9.94-9.94A10,10,0,0,1,1372.27,1645.41Z"/><path class="cls-2" d="M1322.33,1671a9.95,9.95,0,1,1-9.94-9.94A9.91,9.91,0,0,1,1322.33,1671Z"/><path class="cls-2" d="M1270.26,1692.88a9.95,9.95,0,1,1-10-9.94A9.94,9.94,0,0,1,1270.26,1692.88Z"/><path class="cls-2" d="M1216.14,1710.84a9.95,9.95,0,1,1-10-9.95A10,10,0,0,1,1216.14,1710.84Z"/><path class="cls-2" d="M1160.2,1724.67a9.95,9.95,0,1,1-9.94-9.94A10,10,0,0,1,1160.2,1724.67Z"/><path class="cls-2" d="M1102.56,1734.19a9.95,9.95,0,1,1-10-9.94A9.94,9.94,0,0,1,1102.56,1734.19Z"/><path class="cls-2" d="M1043.49,1739.22a9.94,9.94,0,1,1-9.94-9.94A9.93,9.93,0,0,1,1043.49,1739.22Z"/><path class="cls-2" d="M984.63,1739.62a9.95,9.95,0,1,1-9.94-9.95A9.93,9.93,0,0,1,984.63,1739.62Z"/><path class="cls-2" d="M926.79,1735.41a9.95,9.95,0,1,1-9.94-9.94A9.94,9.94,0,0,1,926.79,1735.41Z"/><path class="cls-2" d="M870.14,1726.83a9.94,9.94,0,1,1-9.94-9.94A10,10,0,0,1,870.14,1726.83Z"/><path class="cls-2" d="M814.86,1714a9.95,9.95,0,1,1-10-9.94A9.92,9.92,0,0,1,814.86,1714Z"/><path class="cls-2" d="M761.16,1697.09a9.94,9.94,0,1,1-9.94-9.95A9.93,9.93,0,0,1,761.16,1697.09Z"/><path class="cls-2" d="M709.23,1676.29a9.94,9.94,0,1,1-9.94-9.94A10,10,0,0,1,709.23,1676.29Z"/><path class="cls-2" d="M659.23,1651.72a9.94,9.94,0,1,1-9.94-9.94A9.93,9.93,0,0,1,659.23,1651.72Z"/><path class="cls-2" d="M611.39,1623.54a9.94,9.94,0,1,1-9.94-10A9.93,9.93,0,0,1,611.39,1623.54Z"/><path class="cls-2" d="M565.85,1592a9.94,9.94,0,1,1-9.94-10A9.91,9.91,0,0,1,565.85,1592Z"/><path class="cls-2" d="M522.87,1557.09a9.95,9.95,0,1,1-9.94-9.95A10,10,0,0,1,522.87,1557.09Z"/><path class="cls-2" d="M482.56,1519.13a9.95,9.95,0,1,1-9.95-9.94A10,10,0,0,1,482.56,1519.13Z"/><path class="cls-2" d="M445.14,1478.22a9.94,9.94,0,1,1-9.94-9.94A10,10,0,0,1,445.14,1478.22Z"/><path class="cls-2" d="M410.82,1434.53a9.94,9.94,0,1,1-9.94-9.94A10,10,0,0,1,410.82,1434.53Z"/><path class="cls-2" d="M379.77,1388.22a9.94,9.94,0,1,1-9.94-9.94A10,10,0,0,1,379.77,1388.22Z"/><path class="cls-2" d="M352.16,1339.45a9.95,9.95,0,1,1-9.94-10A9.93,9.93,0,0,1,352.16,1339.45Z"/><path class="cls-2" d="M328.21,1288.39a9.95,9.95,0,1,1-9.94-9.94A9.94,9.94,0,0,1,328.21,1288.39Z"/><path class="cls-2" d="M308.12,1235.18a9.94,9.94,0,1,1-9.94-9.94A9.94,9.94,0,0,1,308.12,1235.18Z"/><path class="cls-2" d="M292,1180a9.95,9.95,0,1,1-9.95-9.94A9.92,9.92,0,0,1,292,1180Z"/><path class="cls-2" d="M280.17,1123.05a9.95,9.95,0,1,1-9.94-9.94A10,10,0,0,1,280.17,1123.05Z"/><path class="cls-2" d="M272.7,1064.42a9.95,9.95,0,1,1-9.94-10A9.93,9.93,0,0,1,272.7,1064.42Z"/></svg>