<svg id="Circular_element" data-name="Circular element" xmlns="http://www.w3.org/2000/svg" viewBox="0 0 2000 2000"><defs><style>.cls-1,.cls-2,.cls-3{fill:none;}.cls-1,.cls-2{stroke:#fff;}.cls-1{stroke-linecap:round;stroke-linejoin:round;stroke-width:5px;}.cls-2,.cls-3{stroke-miterlimit:10;}.cls-2{stroke-width:1.25px;}.cls-3{stroke:#dd1920;stroke-width:10px;}</style></defs><circle class="cls-1" cx="1000" cy="1000" r="750"/><polygon class="cls-2" points="900.11 1059.86 933.4 1115.95 1000 1114.08 1000 1000 900.11 1059.86"/><polygon class="cls-2" points="900.11 940.14 866.81 1000 900.11 1059.86 1000 1000 900.11 940.14"/><polygon class="cls-2" points="1000 885.92 933.4 884.04 900.11 940.14 1000 1000 1000 885.92"/><polygon class="cls-2" points="1099.89 1059.86 1133.19 1000 1099.89 940.14 1000 1000 1099.89 1059.86"/><polygon class="cls-2" points="1000 1114.08 1066.6 1115.95 1099.89 1059.86 1000 1000 1000 1114.08"/><polygon class="cls-2" points="1000 885.92 1000 1000 1099.89 940.14 1066.6 884.04 1000 885.92"/><polygon class="cls-2" points="1000 1114.08 933.4 1115.95 901.63 1172.99 1000 1223.16 1000 1114.08"/><polygon class="cls-2" points="1000 885.92 1000 776.84 901.63 827.01 933.4 884.04 1000 885.92"/><polygon class="cls-2" points="1000 1114.08 1000 1223.16 1098.37 1172.99 1066.6 1115.95 1000 1114.08"/><polygon class="cls-2" points="1000 885.92 1066.6 884.04 1098.37 827.01 1000 776.84 1000 885.92"/><polygon class="cls-2" points="900.11 1059.86 801.97 1120.3 901.63 1172.99 933.4 1115.95 900.11 1059.86"/><polygon class="cls-2" points="866.81 1000 800.22 1000 801.97 1120.3 900.11 1059.86 866.81 1000"/><polygon class="cls-2" points="900.11 940.14 801.97 879.7 800.22 1000 866.81 1000 900.11 940.14"/><polygon class="cls-2" points="933.4 884.04 901.63 827.01 801.97 879.7 900.11 940.14 933.4 884.04"/><polygon class="cls-2" points="1099.89 1059.86 1198.04 1120.3 1199.79 1000 1133.19 1000 1099.89 1059.86"/><polygon class="cls-2" points="1099.89 940.14 1133.19 1000 1199.79 1000 1198.04 879.7 1099.89 940.14"/><polygon class="cls-2" points="1066.6 1115.95 1098.37 1172.99 1198.04 1120.3 1099.89 1059.86 1066.6 1115.95"/><polygon class="cls-2" points="1099.89 940.14 1198.04 879.7 1098.37 827.01 1066.6 884.04 1099.89 940.14"/><polygon class="cls-2" points="901.63 1172.99 801.97 1120.3 809.45 1229.96 872.89 1228.15 901.63 1172.99"/><polygon class="cls-2" points="901.63 1172.99 872.89 1228.15 907.71 1277.33 1000 1223.16 901.63 1172.99"/><polygon class="cls-2" points="901.63 827.01 872.89 771.85 809.45 770.04 801.97 879.7 901.63 827.01"/><polygon class="cls-2" points="907.71 722.67 872.89 771.85 901.63 827.01 1000 776.84 907.71 722.67"/><polygon class="cls-2" points="1092.29 1277.33 1127.11 1228.15 1098.37 1172.99 1000 1223.16 1092.29 1277.33"/><polygon class="cls-2" points="1098.37 1172.99 1127.11 1228.15 1190.55 1229.96 1198.04 1120.3 1098.37 1172.99"/><polygon class="cls-2" points="1098.37 827.01 1198.04 879.7 1190.55 770.04 1127.11 771.85 1098.37 827.01"/><polygon class="cls-2" points="1098.37 827.01 1127.11 771.85 1092.29 722.67 1000 776.84 1098.37 827.01"/><polygon class="cls-2" points="800.22 1000 801.97 879.7 701.95 939.27 733.62 1000 800.22 1000"/><polygon class="cls-2" points="800.22 1000 733.62 1000 701.95 1060.73 801.97 1120.3 800.22 1000"/><polygon class="cls-2" points="1199.79 1000 1266.38 1000 1298.05 939.27 1198.04 879.7 1199.79 1000"/><polygon class="cls-2" points="1199.79 1000 1198.04 1120.3 1298.05 1060.73 1266.38 1000 1199.79 1000"/><polygon class="cls-2" points="907.71 1277.33 939.49 1320.18 1000 1316.08 1000 1223.16 907.71 1277.33"/><polygon class="cls-2" points="1000 683.92 939.49 679.82 907.71 722.67 1000 776.84 1000 683.92"/><polygon class="cls-2" points="1000 1316.08 1060.51 1320.18 1092.29 1277.33 1000 1223.16 1000 1316.08"/><polygon class="cls-2" points="1092.29 722.67 1060.51 679.82 1000 683.92 1000 776.84 1092.29 722.67"/><polygon class="cls-2" points="709.99 1177.36 746.22 1231.64 809.45 1229.96 801.97 1120.3 709.99 1177.36"/><polygon class="cls-2" points="701.95 1060.73 673.54 1119.44 709.99 1177.36 801.97 1120.3 701.95 1060.73"/><polygon class="cls-2" points="709.99 822.64 673.54 880.55 701.95 939.27 801.97 879.7 709.99 822.64"/><polygon class="cls-2" points="809.45 770.04 746.22 768.36 709.99 822.64 801.97 879.7 809.45 770.04"/><polygon class="cls-2" points="1290.01 1177.36 1326.46 1119.44 1298.05 1060.73 1198.04 1120.3 1290.01 1177.36"/><polygon class="cls-2" points="1190.55 1229.96 1253.78 1231.64 1290.01 1177.36 1198.04 1120.3 1190.55 1229.96"/><polygon class="cls-2" points="1298.05 939.27 1326.46 880.55 1290.01 822.64 1198.04 879.7 1298.05 939.27"/><polygon class="cls-2" points="1290.01 822.64 1253.78 768.36 1190.55 770.04 1198.04 879.7 1290.01 822.64"/><polygon class="cls-2" points="872.89 1228.15 809.45 1229.96 821.89 1333.23 907.71 1277.33 872.89 1228.15"/><polygon class="cls-2" points="907.71 722.67 821.89 666.76 809.45 770.04 872.89 771.85 907.71 722.67"/><polygon class="cls-2" points="1092.29 1277.33 1178.11 1333.23 1190.55 1229.96 1127.11 1228.15 1092.29 1277.33"/><polygon class="cls-2" points="1127.11 771.85 1190.55 770.04 1178.11 666.76 1092.29 722.67 1127.11 771.85"/><polygon class="cls-2" points="701.95 939.27 607.31 1000 701.95 1060.73 733.62 1000 701.95 939.27"/><polygon class="cls-2" points="1266.38 1000 1298.05 1060.73 1392.69 1000 1298.05 939.27 1266.38 1000"/><polygon class="cls-2" points="907.71 1277.33 821.89 1333.23 915.01 1368.61 939.49 1320.18 907.71 1277.33"/><polygon class="cls-2" points="939.49 679.82 915.01 631.39 821.89 666.76 907.71 722.67 939.49 679.82"/><polygon class="cls-2" points="1060.51 1320.18 1084.99 1368.61 1178.11 1333.23 1092.29 1277.33 1060.51 1320.18"/><polygon class="cls-2" points="1092.29 722.67 1178.11 666.76 1084.99 631.39 1060.51 679.82 1092.29 722.67"/><polygon class="cls-2" points="809.45 1229.96 746.22 1231.64 722.43 1285.62 821.89 1333.23 809.45 1229.96"/><polygon class="cls-2" points="809.45 770.04 821.89 666.76 722.43 714.38 746.22 768.36 809.45 770.04"/><polygon class="cls-2" points="1190.55 1229.96 1178.11 1333.23 1277.57 1285.62 1253.78 1231.64 1190.55 1229.96"/><polygon class="cls-2" points="1190.55 770.04 1253.78 768.36 1277.57 714.38 1178.11 666.76 1190.55 770.04"/><polygon class="cls-2" points="701.95 1060.73 607.31 1000 613.14 1117.5 673.54 1119.44 701.95 1060.73"/><polygon class="cls-2" points="701.95 939.27 673.54 880.55 613.14 882.5 607.31 1000 701.95 939.27"/><polygon class="cls-2" points="1298.05 1060.73 1326.46 1119.44 1386.86 1117.5 1392.69 1000 1298.05 1060.73"/><polygon class="cls-2" points="1298.05 939.27 1392.69 1000 1386.86 882.5 1326.46 880.55 1298.05 939.27"/><polygon class="cls-2" points="1000 1316.08 939.49 1320.18 915.01 1368.61 1000 1395.3 1000 1316.08"/><polygon class="cls-2" points="1000 683.92 1000 604.7 915.01 631.39 939.49 679.82 1000 683.92"/><polygon class="cls-2" points="1000 1316.08 1000 1395.3 1084.99 1368.61 1060.51 1320.18 1000 1316.08"/><polygon class="cls-2" points="1000 683.92 1060.51 679.82 1084.99 631.39 1000 604.7 1000 683.92"/><polygon class="cls-2" points="709.99 1177.36 625 1231.76 722.43 1285.62 746.22 1231.64 709.99 1177.36"/><polygon class="cls-2" points="673.54 1119.44 613.14 1117.5 625 1231.76 709.99 1177.36 673.54 1119.44"/><polygon class="cls-2" points="709.99 822.64 625 768.24 613.14 882.5 673.54 880.55 709.99 822.64"/><polygon class="cls-2" points="746.22 768.36 722.43 714.38 625 768.24 709.99 822.64 746.22 768.36"/><polygon class="cls-2" points="1290.01 1177.36 1374.99 1231.76 1386.86 1117.5 1326.46 1119.44 1290.01 1177.36"/><polygon class="cls-2" points="1253.78 1231.64 1277.57 1285.62 1374.99 1231.76 1290.01 1177.36 1253.78 1231.64"/><polygon class="cls-2" points="1326.46 880.55 1386.86 882.5 1374.99 768.24 1290.01 822.64 1326.46 880.55"/><polygon class="cls-2" points="1290.01 822.64 1374.99 768.24 1277.57 714.38 1253.78 768.36 1290.01 822.64"/><polygon class="cls-2" points="748.65 1389.13 794.34 1433.81 850.67 1426.65 821.89 1333.23 748.65 1389.13"/><polygon class="cls-2" points="722.43 1285.62 705.06 1339.39 748.65 1389.13 821.89 1333.23 722.43 1285.62"/><polygon class="cls-2" points="915.01 1368.61 821.89 1333.23 850.67 1426.65 902.09 1418.09 915.01 1368.61"/><polygon class="cls-2" points="1149.33 1426.65 1205.66 1433.81 1251.35 1389.13 1178.11 1333.23 1149.33 1426.65"/><polygon class="cls-2" points="1084.99 1368.61 1097.91 1418.09 1149.33 1426.65 1178.11 1333.23 1084.99 1368.61"/><polygon class="cls-2" points="1251.35 1389.13 1294.94 1339.39 1277.57 1285.62 1178.11 1333.23 1251.35 1389.13"/><polygon class="cls-2" points="748.65 610.87 705.06 660.61 722.43 714.38 821.89 666.76 748.65 610.87"/><polygon class="cls-2" points="850.67 573.34 794.34 566.18 748.65 610.87 821.89 666.76 850.67 573.34"/><polygon class="cls-2" points="915.01 631.39 902.09 581.91 850.67 573.34 821.89 666.76 915.01 631.39"/><polygon class="cls-2" points="1277.57 714.38 1294.94 660.61 1251.35 610.87 1178.11 666.76 1277.57 714.38"/><polygon class="cls-2" points="1251.35 610.87 1205.66 566.18 1149.33 573.34 1178.11 666.76 1251.35 610.87"/><polygon class="cls-2" points="1084.99 631.39 1178.11 666.76 1149.33 573.34 1097.91 581.91 1084.99 631.39"/><polygon class="cls-2" points="915.01 1368.61 902.09 1418.09 947.47 1453.6 1000 1395.3 915.01 1368.61"/><polygon class="cls-2" points="1052.53 1453.6 1097.91 1418.09 1084.99 1368.61 1000 1395.3 1052.53 1453.6"/><polygon class="cls-2" points="947.47 546.4 902.09 581.91 915.01 631.39 1000 604.7 947.47 546.4"/><polygon class="cls-2" points="1084.99 631.39 1097.91 581.91 1052.53 546.4 1000 604.7 1084.99 631.39"/><polygon class="cls-2" points="947.47 1453.6 1000 1478.61 1052.53 1453.6 1000 1395.3 947.47 1453.6"/><polygon class="cls-2" points="1052.53 546.4 1000 521.39 947.47 546.4 1000 604.7 1052.53 546.4"/><polygon class="cls-2" points="529.54 1056.97 558.6 1115.68 613.14 1117.5 607.31 1000 529.54 1056.97"/><polygon class="cls-2" points="529.54 943.03 503.74 1000 529.54 1056.97 607.31 1000 529.54 943.03"/><polygon class="cls-2" points="613.14 882.5 558.6 884.31 529.54 943.03 607.31 1000 613.14 882.5"/><polygon class="cls-2" points="1470.46 1056.97 1496.26 1000 1470.46 943.03 1392.69 1000 1470.46 1056.97"/><polygon class="cls-2" points="1386.86 1117.5 1441.4 1115.68 1470.46 1056.97 1392.69 1000 1386.86 1117.5"/><polygon class="cls-2" points="1386.86 882.5 1392.69 1000 1470.46 943.03 1441.4 884.31 1386.86 882.5"/><polygon class="cls-2" points="722.43 1285.62 625 1231.76 648.26 1338.98 705.06 1339.39 722.43 1285.62"/><polygon class="cls-2" points="1277.57 1285.62 1294.94 1339.39 1351.75 1338.98 1374.99 1231.76 1277.57 1285.62"/><polygon class="cls-2" points="722.43 714.38 705.06 660.61 648.26 661.01 625 768.24 722.43 714.38"/><polygon class="cls-2" points="1277.57 714.38 1374.99 768.24 1351.75 661.01 1294.94 660.61 1277.57 714.38"/><polygon class="cls-2" points="613.14 882.5 625 768.24 537.86 828.45 558.6 884.31 613.14 882.5"/><polygon class="cls-2" points="613.14 1117.5 558.6 1115.68 537.86 1171.55 625 1231.76 613.14 1117.5"/><polygon class="cls-2" points="1386.86 1117.5 1374.99 1231.76 1462.15 1171.55 1441.4 1115.68 1386.86 1117.5"/><polygon class="cls-2" points="1386.86 882.5 1441.4 884.31 1462.15 828.45 1374.99 768.24 1386.86 882.5"/><polygon class="cls-2" points="947.47 546.4 889.92 488.65 850.67 573.34 902.09 581.91 947.47 546.4"/><polygon class="cls-2" points="1097.91 581.91 1149.33 573.34 1110.08 488.65 1052.53 546.4 1097.91 581.91"/><polygon class="cls-2" points="902.09 1418.09 850.67 1426.65 889.92 1511.35 947.47 1453.6 902.09 1418.09"/><polygon class="cls-2" points="1052.53 1453.6 1110.08 1511.35 1149.33 1426.65 1097.91 1418.09 1052.53 1453.6"/><polygon class="cls-2" points="551.4 1279.13 591.23 1334.95 648.26 1338.98 625 1231.76 551.4 1279.13"/><polygon class="cls-2" points="537.86 1171.55 517.44 1223.44 551.4 1279.13 625 1231.76 537.86 1171.55"/><polygon class="cls-2" points="1351.75 1338.98 1408.77 1334.95 1448.6 1279.13 1374.99 1231.76 1351.75 1338.98"/><polygon class="cls-2" points="1448.6 1279.13 1482.56 1223.44 1462.15 1171.55 1374.99 1231.76 1448.6 1279.13"/><polygon class="cls-2" points="551.4 720.87 517.44 776.56 537.86 828.45 625 768.24 551.4 720.87"/><polygon class="cls-2" points="648.26 661.01 591.23 665.05 551.4 720.87 625 768.24 648.26 661.01"/><polygon class="cls-2" points="1462.15 828.45 1482.56 776.56 1448.6 720.87 1374.99 768.24 1462.15 828.45"/><polygon class="cls-2" points="1448.6 720.87 1408.77 665.05 1351.75 661.01 1374.99 768.24 1448.6 720.87"/><polygon class="cls-2" points="705.06 1339.39 648.26 1338.98 679.57 1440.73 748.65 1389.13 705.06 1339.39"/><polygon class="cls-2" points="1251.35 1389.13 1320.43 1440.73 1351.75 1338.98 1294.94 1339.39 1251.35 1389.13"/><polygon class="cls-2" points="748.65 610.87 679.57 559.27 648.26 661.01 705.06 660.61 748.65 610.87"/><polygon class="cls-2" points="1294.94 660.61 1351.75 661.01 1320.43 559.27 1251.35 610.87 1294.94 660.61"/><polygon class="cls-2" points="850.67 1426.65 794.34 1433.81 783.86 1481.31 889.92 1511.35 850.67 1426.65"/><polygon class="cls-2" points="1149.33 1426.65 1110.08 1511.35 1216.14 1481.31 1205.66 1433.81 1149.33 1426.65"/><polygon class="cls-2" points="850.67 573.34 889.92 488.65 783.86 518.69 794.34 566.18 850.67 573.34"/><polygon class="cls-2" points="1149.33 573.34 1205.66 566.18 1216.14 518.69 1110.08 488.65 1149.33 573.34"/><polygon class="cls-2" points="1000 1478.61 1000 1518.94 1110.08 1511.35 1052.53 1453.6 1000 1478.61"/><polygon class="cls-2" points="947.47 1453.6 889.92 1511.35 1000 1518.94 1000 1478.61 947.47 1453.6"/><polygon class="cls-2" points="1052.53 546.4 1110.08 488.65 1000 481.06 1000 521.39 1052.53 546.4"/><polygon class="cls-2" points="1000 521.39 1000 481.06 889.92 488.65 947.47 546.4 1000 521.39"/><polygon class="cls-2" points="558.6 884.31 537.86 828.45 460.81 889.92 529.54 943.03 558.6 884.31"/><polygon class="cls-2" points="529.54 1056.97 460.81 1110.08 537.86 1171.55 558.6 1115.68 529.54 1056.97"/><polygon class="cls-2" points="1441.4 1115.68 1462.15 1171.55 1539.19 1110.08 1470.46 1056.97 1441.4 1115.68"/><polygon class="cls-2" points="1470.46 943.03 1539.19 889.92 1462.15 828.45 1441.4 884.31 1470.46 943.03"/><polygon class="cls-2" points="748.65 1389.13 679.57 1440.73 783.86 1481.31 794.34 1433.81 748.65 1389.13"/><polygon class="cls-2" points="1205.66 1433.81 1216.14 1481.31 1320.43 1440.73 1251.35 1389.13 1205.66 1433.81"/><polygon class="cls-2" points="794.34 566.18 783.86 518.69 679.57 559.27 748.65 610.87 794.34 566.18"/><polygon class="cls-2" points="1251.35 610.87 1320.43 559.27 1216.14 518.69 1205.66 566.18 1251.35 610.87"/><polygon class="cls-2" points="503.74 1000 458.99 1000 460.81 1110.08 529.54 1056.97 503.74 1000"/><polygon class="cls-2" points="529.54 943.03 460.81 889.92 458.99 1000 503.74 1000 529.54 943.03"/><polygon class="cls-2" points="1470.46 1056.97 1539.19 1110.08 1541.01 1000 1496.26 1000 1470.46 1056.97"/><polygon class="cls-2" points="1470.46 943.03 1496.26 1000 1541.01 1000 1539.19 889.92 1470.46 943.03"/><polygon class="cls-2" points="648.26 1338.98 591.23 1334.95 578.48 1383.99 679.57 1440.73 648.26 1338.98"/><polygon class="cls-2" points="1351.75 1338.98 1320.43 1440.73 1421.53 1383.99 1408.77 1334.95 1351.75 1338.98"/><polygon class="cls-2" points="648.26 661.01 679.57 559.27 578.48 616.01 591.23 665.05 648.26 661.01"/><polygon class="cls-2" points="1351.75 661.01 1408.77 665.05 1421.53 616.01 1320.43 559.27 1351.75 661.01"/><polygon class="cls-2" points="537.86 1171.55 460.81 1110.08 468.74 1216.14 517.44 1223.44 537.86 1171.55"/><polygon class="cls-2" points="1462.15 1171.55 1482.56 1223.44 1531.25 1216.14 1539.19 1110.08 1462.15 1171.55"/><polygon class="cls-2" points="537.86 828.45 517.44 776.56 468.74 783.86 460.81 889.92 537.86 828.45"/><polygon class="cls-2" points="1462.15 828.45 1539.19 889.92 1531.25 783.86 1482.56 776.56 1462.15 828.45"/><polygon class="cls-2" points="889.92 1511.35 943.03 1579.68 1000 1560.92 1000 1518.94 889.92 1511.35"/><polygon class="cls-2" points="1000 1518.94 1000 1560.92 1056.97 1579.68 1110.08 1511.35 1000 1518.94"/><polygon class="cls-2" points="1000 481.06 1000 439.08 943.03 420.32 889.92 488.65 1000 481.06"/><polygon class="cls-2" points="1110.08 488.65 1056.97 420.32 1000 439.08 1000 481.06 1110.08 488.65"/><polygon class="cls-2" points="783.86 1481.31 776.56 1526.58 828.45 1563.18 889.92 1511.35 783.86 1481.31"/><polygon class="cls-2" points="1056.97 1579.68 1115.69 1593.17 1171.55 1563.18 1110.08 1511.35 1056.97 1579.68"/><polygon class="cls-2" points="828.45 1563.18 884.31 1593.17 943.03 1579.68 889.92 1511.35 828.45 1563.18"/><polygon class="cls-2" points="1171.55 1563.18 1223.44 1526.58 1216.14 1481.31 1110.08 1511.35 1171.55 1563.18"/><polygon class="cls-2" points="828.45 436.81 776.56 473.42 783.86 518.69 889.92 488.65 828.45 436.81"/><polygon class="cls-2" points="943.03 420.32 884.31 406.83 828.45 436.81 889.92 488.65 943.03 420.32"/><polygon class="cls-2" points="1171.55 436.81 1115.69 406.83 1056.97 420.32 1110.08 488.65 1171.55 436.81"/><polygon class="cls-2" points="1216.14 518.69 1223.44 473.42 1171.55 436.81 1110.08 488.65 1216.14 518.69"/><polygon class="cls-2" points="783.86 1481.31 679.57 1440.73 720.87 1529.1 776.56 1526.58 783.86 1481.31"/><polygon class="cls-2" points="1216.14 1481.31 1223.44 1526.58 1279.13 1529.1 1320.43 1440.73 1216.14 1481.31"/><polygon class="cls-2" points="783.86 518.69 776.56 473.42 720.87 470.9 679.57 559.27 783.86 518.69"/><polygon class="cls-2" points="1216.14 518.69 1320.43 559.27 1279.13 470.9 1223.44 473.42 1216.14 518.69"/><polygon class="cls-2" points="551.4 1279.13 484.92 1320.42 578.48 1383.99 591.23 1334.95 551.4 1279.13"/><polygon class="cls-2" points="517.44 1223.44 468.74 1216.14 484.92 1320.42 551.4 1279.13 517.44 1223.44"/><polygon class="cls-2" points="1408.77 1334.95 1421.53 1383.99 1515.09 1320.42 1448.6 1279.13 1408.77 1334.95"/><polygon class="cls-2" points="1448.6 1279.13 1515.09 1320.42 1531.25 1216.14 1482.56 1223.44 1448.6 1279.13"/><polygon class="cls-2" points="551.4 720.87 484.92 679.57 468.74 783.86 517.44 776.56 551.4 720.87"/><polygon class="cls-2" points="591.23 665.05 578.48 616.01 484.92 679.57 551.4 720.87 591.23 665.05"/><polygon class="cls-2" points="1482.56 776.56 1531.25 783.86 1515.09 679.57 1448.6 720.87 1482.56 776.56"/><polygon class="cls-2" points="1448.6 720.87 1515.09 679.57 1421.53 616.01 1408.77 665.05 1448.6 720.87"/><polygon class="cls-2" points="458.99 1000 460.81 889.92 403.58 947.47 421.42 1000 458.99 1000"/><polygon class="cls-2" points="458.99 1000 421.42 1000 403.58 1052.53 460.81 1110.08 458.99 1000"/><polygon class="cls-2" points="1541.01 1000 1578.58 1000 1596.42 947.47 1539.19 889.92 1541.01 1000"/><polygon class="cls-2" points="1541.01 1000 1539.19 1110.08 1596.42 1052.53 1578.58 1000 1541.01 1000"/><polygon class="cls-2" points="616.01 1482.25 665.05 1528.21 720.87 1529.1 679.57 1440.73 616.01 1482.25"/><polygon class="cls-2" points="578.48 1383.99 568.99 1431.01 616.01 1482.25 679.57 1440.73 578.48 1383.99"/><polygon class="cls-2" points="1279.13 1529.1 1334.95 1528.21 1383.98 1482.25 1320.43 1440.73 1279.13 1529.1"/><polygon class="cls-2" points="1383.98 1482.25 1431.01 1431.01 1421.53 1383.99 1320.43 1440.73 1383.98 1482.25"/><polygon class="cls-2" points="616.01 517.75 568.99 568.99 578.48 616.01 679.57 559.27 616.01 517.75"/><polygon class="cls-2" points="720.87 470.9 665.05 471.78 616.01 517.75 679.57 559.27 720.87 470.9"/><polygon class="cls-2" points="1421.53 616.01 1431.01 568.99 1383.98 517.75 1320.43 559.27 1421.53 616.01"/><polygon class="cls-2" points="1383.98 517.75 1334.95 471.78 1279.13 470.9 1320.43 559.27 1383.98 517.75"/><polygon class="cls-2" points="401.95 1149.33 425.18 1205.66 468.74 1216.14 460.81 1110.08 401.95 1149.33"/><polygon class="cls-2" points="403.58 1052.53 384.02 1097.91 401.95 1149.33 460.81 1110.08 403.58 1052.53"/><polygon class="cls-2" points="1531.25 1216.14 1574.82 1205.66 1598.05 1149.33 1539.19 1110.08 1531.25 1216.14"/><polygon class="cls-2" points="1598.05 1149.33 1615.98 1097.91 1596.42 1052.53 1539.19 1110.08 1598.05 1149.33"/><polygon class="cls-2" points="401.95 850.67 384.02 902.09 403.58 947.47 460.81 889.92 401.95 850.67"/><polygon class="cls-2" points="468.74 783.86 425.18 794.34 401.95 850.67 460.81 889.92 468.74 783.86"/><polygon class="cls-2" points="1596.42 947.47 1615.98 902.09 1598.05 850.67 1539.19 889.92 1596.42 947.47"/><polygon class="cls-2" points="1598.05 850.67 1574.82 794.34 1531.25 783.86 1539.19 889.92 1598.05 850.67"/><polygon class="cls-2" points="1000 1560.92 943.03 1579.68 1000 1638.76 1056.97 1579.68 1000 1560.92"/><polygon class="cls-2" points="1000 439.08 1056.97 420.32 1000 361.24 943.03 420.32 1000 439.08"/><polygon class="cls-2" points="776.56 1526.58 720.87 1529.1 768.24 1606.76 828.45 1563.18 776.56 1526.58"/><polygon class="cls-2" points="1171.55 1563.18 1231.76 1606.76 1279.13 1529.1 1223.44 1526.58 1171.55 1563.18"/><polygon class="cls-2" points="828.45 436.81 768.24 393.24 720.87 470.9 776.56 473.42 828.45 436.81"/><polygon class="cls-2" points="1223.44 473.42 1279.13 470.9 1231.76 393.24 1171.55 436.81 1223.44 473.42"/><polygon class="cls-2" points="578.48 1383.99 484.92 1320.42 517.75 1421.52 568.99 1431.01 578.48 1383.99"/><polygon class="cls-2" points="1421.53 1383.99 1431.01 1431.01 1482.26 1421.52 1515.09 1320.42 1421.53 1383.99"/><polygon class="cls-2" points="578.48 616.01 568.99 568.99 517.75 578.48 484.92 679.57 578.48 616.01"/><polygon class="cls-2" points="1421.53 616.01 1515.09 679.57 1482.26 578.48 1431.01 568.99 1421.53 616.01"/><polygon class="cls-2" points="468.74 1216.14 425.18 1205.66 411.77 1251.35 484.92 1320.42 468.74 1216.14"/><polygon class="cls-2" points="1531.25 1216.14 1515.09 1320.42 1588.23 1251.35 1574.82 1205.66 1531.25 1216.14"/><polygon class="cls-2" points="468.74 783.86 484.92 679.57 411.77 748.65 425.18 794.34 468.74 783.86"/><polygon class="cls-2" points="1531.25 783.86 1574.82 794.34 1588.23 748.65 1515.09 679.57 1531.25 783.86"/><polygon class="cls-2" points="403.58 947.47 360.39 1000 403.58 1052.53 421.42 1000 403.58 947.47"/><polygon class="cls-2" points="1578.58 1000 1596.42 1052.53 1639.61 1000 1596.42 947.47 1578.58 1000"/><polygon class="cls-2" points="1056.97 1579.68 1000 1638.76 1117.5 1628.99 1115.69 1593.17 1056.97 1579.68"/><polygon class="cls-2" points="884.31 1593.17 882.5 1628.99 1000 1638.76 943.03 1579.68 884.31 1593.17"/><polygon class="cls-2" points="943.03 420.32 1000 361.24 882.5 371.01 884.31 406.83 943.03 420.32"/><polygon class="cls-2" points="1115.69 406.83 1117.5 371.01 1000 361.24 1056.97 420.32 1115.69 406.83"/><polygon class="cls-2" points="1115.69 1593.17 1117.5 1628.99 1231.76 1606.76 1171.55 1563.18 1115.69 1593.17"/><polygon class="cls-2" points="828.45 1563.18 768.24 1606.76 882.5 1628.99 884.31 1593.17 828.45 1563.18"/><polygon class="cls-2" points="884.31 406.83 882.5 371.01 768.24 393.24 828.45 436.81 884.31 406.83"/><polygon class="cls-2" points="1171.55 436.81 1231.76 393.24 1117.5 371.01 1115.69 406.83 1171.55 436.81"/><polygon class="cls-2" points="403.58 1052.53 360.39 1000 351.05 1084.99 384.02 1097.91 403.58 1052.53"/><polygon class="cls-2" points="1596.42 1052.53 1615.98 1097.91 1648.96 1084.99 1639.61 1000 1596.42 1052.53"/><polygon class="cls-2" points="403.58 947.47 384.02 902.09 351.05 915.01 360.39 1000 403.58 947.47"/><polygon class="cls-2" points="1596.42 947.47 1639.61 1000 1648.96 915.01 1615.98 902.09 1596.42 947.47"/><polygon class="cls-2" points="720.87 1529.1 665.05 1528.21 661.01 1566.09 768.24 1606.76 720.87 1529.1"/><polygon class="cls-2" points="1279.13 1529.1 1231.76 1606.76 1338.98 1566.09 1334.95 1528.21 1279.13 1529.1"/><polygon class="cls-2" points="720.87 470.9 768.24 393.24 661.01 433.91 665.05 471.78 720.87 470.9"/><polygon class="cls-2" points="1279.13 470.9 1334.95 471.78 1338.98 433.91 1231.76 393.24 1279.13 470.9"/><polygon class="cls-2" points="433.91 1351.74 471.78 1408.77 517.75 1421.52 484.92 1320.42 433.91 1351.74"/><polygon class="cls-2" points="411.77 1251.35 401.76 1294.93 433.91 1351.74 484.92 1320.42 411.77 1251.35"/><polygon class="cls-2" points="1482.26 1421.52 1528.22 1408.77 1566.09 1351.74 1515.09 1320.42 1482.26 1421.52"/><polygon class="cls-2" points="1566.09 1351.74 1598.24 1294.93 1588.23 1251.35 1515.09 1320.42 1566.09 1351.74"/><polygon class="cls-2" points="433.91 648.26 401.76 705.06 411.77 748.65 484.92 679.57 433.91 648.26"/><polygon class="cls-2" points="517.75 578.48 471.78 591.23 433.91 648.26 484.92 679.57 517.75 578.48"/><polygon class="cls-2" points="1588.23 748.65 1598.24 705.06 1566.09 648.26 1515.09 679.57 1588.23 748.65"/><polygon class="cls-2" points="1566.09 648.26 1528.22 591.23 1482.26 578.48 1515.09 679.57 1566.09 648.26"/><polygon class="cls-2" points="401.95 1149.33 350.73 1178.11 411.77 1251.35 425.18 1205.66 401.95 1149.33"/><polygon class="cls-2" points="1574.82 1205.66 1588.23 1251.35 1649.28 1178.11 1598.05 1149.33 1574.82 1205.66"/><polygon class="cls-2" points="425.18 794.34 411.77 748.65 350.73 821.89 401.95 850.67 425.18 794.34"/><polygon class="cls-2" points="1598.05 850.67 1649.28 821.89 1588.23 748.65 1574.82 794.34 1598.05 850.67"/><polygon class="cls-2" points="568.99 1431.01 517.75 1421.52 559.27 1515.08 616.01 1482.25 568.99 1431.01"/><polygon class="cls-2" points="1383.98 1482.25 1440.72 1515.08 1482.26 1421.52 1431.01 1431.01 1383.98 1482.25"/><polygon class="cls-2" points="616.01 517.75 559.27 484.92 517.75 578.48 568.99 568.99 616.01 517.75"/><polygon class="cls-2" points="1431.01 568.99 1482.26 578.48 1440.72 484.92 1383.98 517.75 1431.01 568.99"/><polygon class="cls-2" points="384.02 1097.91 351.05 1084.99 350.73 1178.11 401.95 1149.33 384.02 1097.91"/><polygon class="cls-2" points="1598.05 1149.33 1649.28 1178.11 1648.96 1084.99 1615.98 1097.91 1598.05 1149.33"/><polygon class="cls-2" points="401.95 850.67 350.73 821.89 351.05 915.01 384.02 902.09 401.95 850.67"/><polygon class="cls-2" points="1615.98 902.09 1648.96 915.01 1649.28 821.89 1598.05 850.67 1615.98 902.09"/><polygon class="cls-2" points="616.01 1482.25 559.27 1515.08 661.01 1566.09 665.05 1528.21 616.01 1482.25"/><polygon class="cls-2" points="1334.95 1528.21 1338.98 1566.09 1440.72 1515.08 1383.98 1482.25 1334.95 1528.21"/><polygon class="cls-2" points="665.05 471.78 661.01 433.91 559.27 484.92 616.01 517.75 665.05 471.78"/><polygon class="cls-2" points="1383.98 517.75 1440.72 484.92 1338.98 433.91 1334.95 471.78 1383.98 517.75"/><polygon class="cls-2" points="318.59 1000 323.51 1060.51 351.05 1084.99 360.39 1000 318.59 1000"/><polygon class="cls-2" points="1648.96 1084.99 1676.49 1060.51 1681.4 1000 1639.61 1000 1648.96 1084.99"/><polygon class="cls-2" points="351.05 915.01 323.51 939.49 318.59 1000 360.39 1000 351.05 915.01"/><polygon class="cls-2" points="1639.61 1000 1681.4 1000 1676.49 939.49 1648.96 915.01 1639.61 1000"/><polygon class="cls-2" points="1000 361.24 939.27 317.96 880.55 338.59 882.5 371.01 1000 361.24"/><polygon class="cls-2" points="1117.5 371.01 1119.44 338.59 1060.73 317.96 1000 361.24 1117.5 371.01"/><polygon class="cls-2" points="1060.73 317.96 1000 302.61 939.27 317.96 1000 361.24 1060.73 317.96"/><polygon class="cls-2" points="1000 1638.76 1060.73 1682.03 1119.44 1661.4 1117.5 1628.99 1000 1638.76"/><polygon class="cls-2" points="939.27 1682.03 1000 1697.39 1060.73 1682.03 1000 1638.76 939.27 1682.03"/><polygon class="cls-2" points="882.5 1628.99 880.55 1661.4 939.27 1682.03 1000 1638.76 882.5 1628.99"/><polygon class="cls-2" points="411.77 1251.35 350.73 1178.11 366.31 1277.57 401.76 1294.93 411.77 1251.35"/><polygon class="cls-2" points="1588.23 1251.35 1598.24 1294.93 1633.69 1277.57 1649.28 1178.11 1588.23 1251.35"/><polygon class="cls-2" points="411.77 748.65 401.76 705.06 366.31 722.43 350.73 821.89 411.77 748.65"/><polygon class="cls-2" points="1588.23 748.65 1649.28 821.89 1633.69 722.43 1598.24 705.06 1588.23 748.65"/><polygon class="cls-2" points="1117.5 1628.99 1119.44 1661.4 1177.35 1665.98 1231.76 1606.76 1117.5 1628.99"/><polygon class="cls-2" points="768.24 1606.76 822.65 1665.98 880.55 1661.4 882.5 1628.99 768.24 1606.76"/><polygon class="cls-2" points="882.5 371.01 880.55 338.59 822.65 334.01 768.24 393.24 882.5 371.01"/><polygon class="cls-2" points="1231.76 393.24 1177.35 334.01 1119.44 338.59 1117.5 371.01 1231.76 393.24"/><polygon class="cls-2" points="517.75 1421.52 471.78 1408.77 470.9 1448.59 559.27 1515.08 517.75 1421.52"/><polygon class="cls-2" points="1482.26 1421.52 1440.72 1515.08 1529.1 1448.59 1528.22 1408.77 1482.26 1421.52"/><polygon class="cls-2" points="517.75 578.48 559.27 484.92 470.9 551.4 471.78 591.23 517.75 578.48"/><polygon class="cls-2" points="1482.26 578.48 1528.22 591.23 1529.1 551.4 1440.72 484.92 1482.26 578.48"/><polygon class="cls-2" points="661.01 1566.09 660.61 1598.24 714.38 1633.69 768.24 1606.76 661.01 1566.09"/><polygon class="cls-2" points="1177.35 1665.98 1231.64 1664.84 1285.62 1633.69 1231.76 1606.76 1177.35 1665.98"/><polygon class="cls-2" points="714.38 1633.69 768.36 1664.84 822.65 1665.98 768.24 1606.76 714.38 1633.69"/><polygon class="cls-2" points="1285.62 1633.69 1339.39 1598.24 1338.98 1566.09 1231.76 1606.76 1285.62 1633.69"/><polygon class="cls-2" points="714.38 366.31 660.61 401.76 661.01 433.91 768.24 393.24 714.38 366.31"/><polygon class="cls-2" points="822.65 334.01 768.36 335.17 714.38 366.31 768.24 393.24 822.65 334.01"/><polygon class="cls-2" points="1285.62 366.31 1231.64 335.17 1177.35 334.01 1231.76 393.24 1285.62 366.31"/><polygon class="cls-2" points="1338.98 433.91 1339.39 401.76 1285.62 366.31 1231.76 393.24 1338.98 433.91"/><polygon class="cls-2" points="351.05 1084.99 323.51 1060.51 309.66 1092.29 350.73 1178.11 351.05 1084.99"/><polygon class="cls-2" points="1648.96 1084.99 1649.28 1178.11 1690.35 1092.29 1676.49 1060.51 1648.96 1084.99"/><polygon class="cls-2" points="351.05 915.01 350.73 821.89 309.66 907.71 323.51 939.49 351.05 915.01"/><polygon class="cls-2" points="1648.96 915.01 1676.49 939.49 1690.35 907.71 1649.28 821.89 1648.96 915.01"/><polygon class="cls-2" points="661.01 1566.09 559.27 1515.08 610.87 1588.23 660.61 1598.24 661.01 1566.09"/><polygon class="cls-2" points="1338.98 1566.09 1339.39 1598.24 1389.13 1588.23 1440.72 1515.08 1338.98 1566.09"/><polygon class="cls-2" points="661.01 433.91 660.61 401.76 610.87 411.77 559.27 484.92 661.01 433.91"/><polygon class="cls-2" points="1338.98 433.91 1440.72 484.92 1389.13 411.77 1339.39 401.76 1338.98 433.91"/><polygon class="cls-2" points="401.76 1294.93 366.31 1277.57 393.24 1375 433.91 1351.74 401.76 1294.93"/><polygon class="cls-2" points="1566.09 1351.74 1606.76 1375 1633.69 1277.57 1598.24 1294.93 1566.09 1351.74"/><polygon class="cls-2" points="433.91 648.26 393.24 625 366.31 722.43 401.76 705.06 433.91 648.26"/><polygon class="cls-2" points="1598.24 705.06 1633.69 722.43 1606.76 625 1566.09 648.26 1598.24 705.06"/><polygon class="cls-2" points="433.91 1351.74 393.24 1375 470.9 1448.59 471.78 1408.77 433.91 1351.74"/><polygon class="cls-2" points="1528.22 1408.77 1529.1 1448.59 1606.76 1375 1566.09 1351.74 1528.22 1408.77"/><polygon class="cls-2" points="471.78 591.23 470.9 551.4 393.24 625 433.91 648.26 471.78 591.23"/><polygon class="cls-2" points="1566.09 648.26 1606.76 625 1529.1 551.4 1528.22 591.23 1566.09 648.26"/><polygon class="cls-2" points="313.4 1190.55 335.17 1253.78 366.31 1277.57 350.73 1178.11 313.4 1190.55"/><polygon class="cls-2" points="309.66 1092.29 298.07 1127.11 313.4 1190.55 350.73 1178.11 309.66 1092.29"/><polygon class="cls-2" points="1633.69 1277.57 1664.84 1253.78 1686.59 1190.55 1649.28 1178.11 1633.69 1277.57"/><polygon class="cls-2" points="1686.59 1190.55 1701.92 1127.11 1690.35 1092.29 1649.28 1178.11 1686.59 1190.55"/><polygon class="cls-2" points="313.4 809.45 298.07 872.89 309.66 907.71 350.73 821.89 313.4 809.45"/><polygon class="cls-2" points="366.31 722.43 335.17 746.22 313.4 809.45 350.73 821.89 366.31 722.43"/><polygon class="cls-2" points="1690.35 907.71 1701.92 872.89 1686.59 809.45 1649.28 821.89 1690.35 907.71"/><polygon class="cls-2" points="1686.59 809.45 1664.84 746.22 1633.69 722.43 1649.28 821.89 1686.59 809.45"/><polygon class="cls-2" points="1119.44 1661.4 1060.73 1682.03 1120.3 1713.12 1177.35 1665.98 1119.44 1661.4"/><polygon class="cls-2" points="880.55 1661.4 822.65 1665.98 879.7 1713.12 939.27 1682.03 880.55 1661.4"/><polygon class="cls-2" points="880.55 338.59 939.27 317.96 879.7 286.88 822.65 334.01 880.55 338.59"/><polygon class="cls-2" points="1119.44 338.59 1177.35 334.01 1120.3 286.88 1060.73 317.96 1119.44 338.59"/><polygon class="cls-2" points="518.69 1531.26 566.18 1574.82 610.87 1588.23 559.27 1515.08 518.69 1531.26"/><polygon class="cls-2" points="470.9 1448.59 473.42 1482.56 518.69 1531.26 559.27 1515.08 470.9 1448.59"/><polygon class="cls-2" points="1389.13 1588.23 1433.8 1574.82 1481.32 1531.26 1440.72 1515.08 1389.13 1588.23"/><polygon class="cls-2" points="1481.32 1531.26 1526.58 1482.56 1529.1 1448.59 1440.72 1515.08 1481.32 1531.26"/><polygon class="cls-2" points="518.69 468.74 473.42 517.44 470.9 551.4 559.27 484.92 518.69 468.74"/><polygon class="cls-2" points="610.87 411.77 566.18 425.18 518.69 468.74 559.27 484.92 610.87 411.77"/><polygon class="cls-2" points="1529.1 551.4 1526.58 517.44 1481.32 468.74 1440.72 484.92 1529.1 551.4"/><polygon class="cls-2" points="1481.32 468.74 1433.8 425.18 1389.13 411.77 1440.72 484.92 1481.32 468.74"/><polygon class="cls-2" points="318.59 1000 282.7 1000 309.66 1092.29 323.51 1060.51 318.59 1000"/><polygon class="cls-2" points="1676.49 1060.51 1690.35 1092.29 1717.31 1000 1681.4 1000 1676.49 1060.51"/><polygon class="cls-2" points="323.51 939.49 309.66 907.71 282.7 1000 318.59 1000 323.51 939.49"/><polygon class="cls-2" points="1676.49 939.49 1681.4 1000 1717.31 1000 1690.35 907.71 1676.49 939.49"/><polygon class="cls-2" points="1000 1697.39 1000 1719.57 1120.3 1713.12 1060.73 1682.03 1000 1697.39"/><polygon class="cls-2" points="939.27 1682.03 879.7 1713.12 1000 1719.57 1000 1697.39 939.27 1682.03"/><polygon class="cls-2" points="1060.73 317.96 1120.3 286.88 1000 280.43 1000 302.61 1060.73 317.96"/><polygon class="cls-2" points="1000 302.61 1000 280.43 879.7 286.88 939.27 317.96 1000 302.61"/><polygon class="cls-2" points="660.61 1598.24 610.87 1588.23 666.76 1649.27 714.38 1633.69 660.61 1598.24"/><polygon class="cls-2" points="1285.62 1633.69 1333.24 1649.27 1389.13 1588.23 1339.39 1598.24 1285.62 1633.69"/><polygon class="cls-2" points="714.38 366.31 666.76 350.73 610.87 411.77 660.61 401.76 714.38 366.31"/><polygon class="cls-2" points="1339.39 401.76 1389.13 411.77 1333.24 350.73 1285.62 366.31 1339.39 401.76"/><polygon class="cls-2" points="1177.35 1665.98 1120.3 1713.12 1229.96 1686.6 1231.64 1664.84 1177.35 1665.98"/><polygon class="cls-2" points="768.36 1664.84 770.04 1686.6 879.7 1713.12 822.65 1665.98 768.36 1664.84"/><polygon class="cls-2" points="822.65 334.01 879.7 286.88 770.04 313.4 768.36 335.17 822.65 334.01"/><polygon class="cls-2" points="1231.64 335.17 1229.96 313.4 1120.3 286.88 1177.35 334.01 1231.64 335.17"/><polygon class="cls-2" points="366.31 1277.57 335.17 1253.78 334.01 1290.01 393.24 1375 366.31 1277.57"/><polygon class="cls-2" points="1633.69 1277.57 1606.76 1375 1665.99 1290.01 1664.84 1253.78 1633.69 1277.57"/><polygon class="cls-2" points="366.31 722.43 393.24 625 334.01 709.99 335.17 746.22 366.31 722.43"/><polygon class="cls-2" points="1633.69 722.43 1664.84 746.22 1665.99 709.99 1606.76 625 1633.69 722.43"/><polygon class="cls-2" points="470.9 1448.59 393.24 1375 436.81 1462.14 473.42 1482.56 470.9 1448.59"/><polygon class="cls-2" points="1529.1 1448.59 1526.58 1482.56 1563.19 1462.14 1606.76 1375 1529.1 1448.59"/><polygon class="cls-2" points="470.9 551.4 473.42 517.44 436.81 537.86 393.24 625 470.9 551.4"/><polygon class="cls-2" points="1529.1 551.4 1606.76 625 1563.19 537.86 1526.58 517.44 1529.1 551.4"/><polygon class="cls-2" points="1231.64 1664.84 1229.96 1686.6 1333.24 1649.27 1285.62 1633.69 1231.64 1664.84"/><polygon class="cls-2" points="714.38 1633.69 666.76 1649.27 770.04 1686.6 768.36 1664.84 714.38 1633.69"/><polygon class="cls-2" points="768.36 335.17 770.04 313.4 666.76 350.73 714.38 366.31 768.36 335.17"/><polygon class="cls-2" points="1285.62 366.31 1333.24 350.73 1229.96 313.4 1231.64 335.17 1285.62 366.31"/><polygon class="cls-2" points="309.66 1092.29 282.7 1000 278.19 1098.37 298.07 1127.11 309.66 1092.29"/><polygon class="cls-2" points="1690.35 1092.29 1701.92 1127.11 1721.81 1098.37 1717.31 1000 1690.35 1092.29"/><polygon class="cls-2" points="309.66 907.71 298.07 872.89 278.19 901.63 282.7 1000 309.66 907.71"/><polygon class="cls-2" points="1690.35 907.71 1717.31 1000 1721.81 901.63 1701.92 872.89 1690.35 907.71"/><polygon class="cls-2" points="610.87 1588.23 566.18 1574.82 573.35 1598.05 666.76 1649.27 610.87 1588.23"/><polygon class="cls-2" points="1389.13 1588.23 1333.24 1649.27 1426.65 1598.05 1433.8 1574.82 1389.13 1588.23"/><polygon class="cls-2" points="610.87 411.77 666.76 350.73 573.35 401.95 566.18 425.18 610.87 411.77"/><polygon class="cls-2" points="1389.13 411.77 1433.8 425.18 1426.65 401.95 1333.24 350.73 1389.13 411.77"/><polygon class="cls-2" points="371.01 1386.86 406.83 1441.4 436.81 1462.14 393.24 1375 371.01 1386.86"/><polygon class="cls-2" points="334.01 1290.01 338.59 1326.45 371.01 1386.86 393.24 1375 334.01 1290.01"/><polygon class="cls-2" points="1563.19 1462.14 1593.18 1441.4 1629 1386.86 1606.76 1375 1563.19 1462.14"/><polygon class="cls-2" points="1629 1386.86 1661.4 1326.45 1665.99 1290.01 1606.76 1375 1629 1386.86"/><polygon class="cls-2" points="371.01 613.14 338.59 673.54 334.01 709.99 393.24 625 371.01 613.14"/><polygon class="cls-2" points="436.81 537.86 406.83 558.6 371.01 613.14 393.24 625 436.81 537.86"/><polygon class="cls-2" points="1665.99 709.99 1661.4 673.54 1629 613.14 1606.76 625 1665.99 709.99"/><polygon class="cls-2" points="1629 613.14 1593.18 558.6 1563.19 537.86 1606.76 625 1629 613.14"/><polygon class="cls-2" points="313.4 1190.55 286.88 1198.03 334.01 1290.01 335.17 1253.78 313.4 1190.55"/><polygon class="cls-2" points="1664.84 1253.78 1665.99 1290.01 1713.13 1198.03 1686.59 1190.55 1664.84 1253.78"/><polygon class="cls-2" points="335.17 746.22 334.01 709.99 286.88 801.96 313.4 809.45 335.17 746.22"/><polygon class="cls-2" points="1686.59 809.45 1713.13 801.96 1665.99 709.99 1664.84 746.22 1686.59 809.45"/><polygon class="cls-2" points="298.07 1127.11 278.19 1098.37 286.88 1198.03 313.4 1190.55 298.07 1127.11"/><polygon class="cls-2" points="1686.59 1190.55 1713.13 1198.03 1721.81 1098.37 1701.92 1127.11 1686.59 1190.55"/><polygon class="cls-2" points="313.4 809.45 286.88 801.96 278.19 901.63 298.07 872.89 313.4 809.45"/><polygon class="cls-2" points="1701.92 872.89 1721.81 901.63 1713.13 801.96 1686.59 809.45 1701.92 872.89"/><polygon class="cls-2" points="518.69 468.74 488.65 460.81 436.81 537.86 473.42 517.44 518.69 468.74"/><polygon class="cls-2" points="1526.58 517.44 1563.19 537.86 1511.36 460.81 1481.32 468.74 1526.58 517.44"/><polygon class="cls-2" points="473.42 1482.56 436.81 1462.14 488.65 1539.19 518.69 1531.26 473.42 1482.56"/><polygon class="cls-2" points="1481.32 1531.26 1511.36 1539.19 1563.19 1462.14 1526.58 1482.56 1481.32 1531.26"/><polygon class="cls-2" points="260.29 1000 263.67 1066.59 278.19 1098.37 282.7 1000 260.29 1000"/><polygon class="cls-2" points="1721.81 1098.37 1736.33 1066.59 1739.7 1000 1717.31 1000 1721.81 1098.37"/><polygon class="cls-2" points="278.19 901.63 263.67 933.4 260.29 1000 282.7 1000 278.19 901.63"/><polygon class="cls-2" points="1721.81 901.63 1717.31 1000 1739.7 1000 1736.33 933.4 1721.81 901.63"/><polygon class="cls-2" points="566.18 425.18 573.35 401.95 488.65 460.81 518.69 468.74 566.18 425.18"/><polygon class="cls-2" points="1481.32 468.74 1511.36 460.81 1426.65 401.95 1433.8 425.18 1481.32 468.74"/><polygon class="cls-2" points="518.69 1531.26 488.65 1539.19 573.35 1598.05 566.18 1574.82 518.69 1531.26"/><polygon class="cls-2" points="1433.8 1574.82 1426.65 1598.05 1511.36 1539.19 1481.32 1531.26 1433.8 1574.82"/><polygon class="cls-2" points="879.7 1713.12 940.14 1738.6 1000 1735.23 1000 1719.57 879.7 1713.12"/><polygon class="cls-2" points="1000 1719.57 1000 1735.23 1059.86 1738.6 1120.3 1713.12 1000 1719.57"/><polygon class="cls-2" points="1000 280.43 1000 264.77 940.14 261.4 879.7 286.88 1000 280.43"/><polygon class="cls-2" points="1120.3 286.88 1059.86 261.4 1000 264.77 1000 280.43 1120.3 286.88"/><polygon class="cls-2" points="1120.3 1713.12 1172.99 1721.81 1228.15 1701.92 1229.96 1686.6 1120.3 1713.12"/><polygon class="cls-2" points="1059.86 1738.6 1115.95 1736.33 1172.99 1721.81 1120.3 1713.12 1059.86 1738.6"/><polygon class="cls-2" points="827.01 1721.81 884.04 1736.33 940.14 1738.6 879.7 1713.12 827.01 1721.81"/><polygon class="cls-2" points="770.04 1686.6 771.85 1701.92 827.01 1721.81 879.7 1713.12 770.04 1686.6"/><polygon class="cls-2" points="879.7 286.88 827.01 278.19 771.85 298.07 770.04 313.4 879.7 286.88"/><polygon class="cls-2" points="940.14 261.4 884.04 263.67 827.01 278.19 879.7 286.88 940.14 261.4"/><polygon class="cls-2" points="1229.96 313.4 1228.15 298.07 1172.99 278.19 1120.3 286.88 1229.96 313.4"/><polygon class="cls-2" points="1172.99 278.19 1115.95 263.67 1059.86 261.4 1120.3 286.88 1172.99 278.19"/><polygon class="cls-2" points="1229.96 1686.6 1228.15 1701.92 1277.33 1690.34 1333.24 1649.27 1229.96 1686.6"/><polygon class="cls-2" points="666.76 1649.27 722.67 1690.34 771.85 1701.92 770.04 1686.6 666.76 1649.27"/><polygon class="cls-2" points="770.04 313.4 771.85 298.07 722.67 309.66 666.76 350.73 770.04 313.4"/><polygon class="cls-2" points="1333.24 350.73 1277.33 309.66 1228.15 298.07 1229.96 313.4 1333.24 350.73"/><polygon class="cls-2" points="573.35 1598.05 581.91 1615.97 631.39 1648.95 666.76 1649.27 573.35 1598.05"/><polygon class="cls-2" points="1277.33 1690.34 1320.18 1676.49 1368.61 1648.95 1333.24 1649.27 1277.33 1690.34"/><polygon class="cls-2" points="631.39 1648.95 679.82 1676.49 722.67 1690.34 666.76 1649.27 631.39 1648.95"/><polygon class="cls-2" points="1368.61 1648.95 1418.09 1615.97 1426.65 1598.05 1333.24 1649.27 1368.61 1648.95"/><polygon class="cls-2" points="631.39 351.05 581.91 384.02 573.35 401.95 666.76 350.73 631.39 351.05"/><polygon class="cls-2" points="722.67 309.66 679.82 323.51 631.39 351.05 666.76 350.73 722.67 309.66"/><polygon class="cls-2" points="1368.61 351.05 1320.18 323.51 1277.33 309.66 1333.24 350.73 1368.61 351.05"/><polygon class="cls-2" points="1426.65 401.95 1418.09 384.02 1368.61 351.05 1333.24 350.73 1426.65 401.95"/><polygon class="cls-2" points="334.01 1290.01 286.88 1198.03 317.96 1298.05 338.59 1326.45 334.01 1290.01"/><polygon class="cls-2" points="1665.99 1290.01 1661.4 1326.45 1682.04 1298.05 1713.13 1198.03 1665.99 1290.01"/><polygon class="cls-2" points="334.01 709.99 338.59 673.54 317.96 701.95 286.88 801.96 334.01 709.99"/><polygon class="cls-2" points="1665.99 709.99 1713.13 801.96 1682.04 701.95 1661.4 673.54 1665.99 709.99"/><polygon class="cls-2" points="278.19 1098.37 263.67 1066.59 261.4 1099.89 286.88 1198.03 278.19 1098.37"/><polygon class="cls-2" points="1721.81 1098.37 1713.13 1198.03 1738.61 1099.89 1736.33 1066.59 1721.81 1098.37"/><polygon class="cls-2" points="278.19 901.63 286.88 801.96 261.4 900.11 263.67 933.4 278.19 901.63"/><polygon class="cls-2" points="1721.81 901.63 1736.33 933.4 1738.61 900.11 1713.13 801.96 1721.81 901.63"/><polygon class="cls-2" points="436.81 1462.14 406.83 1441.4 420.32 1470.46 488.65 1539.19 436.81 1462.14"/><polygon class="cls-2" points="1563.19 1462.14 1511.36 1539.19 1579.69 1470.46 1593.18 1441.4 1563.19 1462.14"/><polygon class="cls-2" points="436.81 537.86 488.65 460.81 420.32 529.54 406.83 558.6 436.81 537.86"/><polygon class="cls-2" points="1563.19 537.86 1593.18 558.6 1579.69 529.54 1511.36 460.81 1563.19 537.86"/><polygon class="cls-2" points="573.35 1598.05 488.65 1539.19 546.4 1596.42 581.91 1615.97 573.35 1598.05"/><polygon class="cls-2" points="1426.65 1598.05 1418.09 1615.97 1453.59 1596.42 1511.36 1539.19 1426.65 1598.05"/><polygon class="cls-2" points="573.35 401.95 581.91 384.02 546.4 403.58 488.65 460.81 573.35 401.95"/><polygon class="cls-2" points="1426.65 401.95 1511.36 460.81 1453.59 403.58 1418.09 384.02 1426.65 401.95"/><polygon class="cls-2" points="1000 1735.23 940.14 1738.6 1000 1750 1059.86 1738.6 1000 1735.23"/><polygon class="cls-2" points="1000 264.77 1059.86 261.4 1000 250 940.14 261.4 1000 264.77"/><polygon class="cls-2" points="1228.15 1701.92 1172.99 1721.81 1223.16 1717.3 1277.33 1690.34 1228.15 1701.92"/><polygon class="cls-2" points="771.85 1701.92 722.67 1690.34 776.84 1717.3 827.01 1721.81 771.85 1701.92"/><polygon class="cls-2" points="771.85 298.07 827.01 278.19 776.84 282.7 722.67 309.66 771.85 298.07"/><polygon class="cls-2" points="1228.15 298.07 1277.33 309.66 1223.16 282.7 1172.99 278.19 1228.15 298.07"/><polygon class="cls-2" points="280.43 1199.78 302.61 1266.38 317.96 1298.05 286.88 1198.03 280.43 1199.78"/><polygon class="cls-2" points="261.4 1099.89 264.77 1133.19 280.43 1199.78 286.88 1198.03 261.4 1099.89"/><polygon class="cls-2" points="1682.04 1298.05 1697.39 1266.38 1719.57 1199.78 1713.13 1198.03 1682.04 1298.05"/><polygon class="cls-2" points="1719.57 1199.78 1735.22 1133.19 1738.61 1099.89 1713.13 1198.03 1719.57 1199.78"/><polygon class="cls-2" points="280.43 800.21 264.77 866.81 261.4 900.11 286.88 801.96 280.43 800.21"/><polygon class="cls-2" points="317.96 701.95 302.61 733.62 280.43 800.21 286.88 801.96 317.96 701.95"/><polygon class="cls-2" points="1738.61 900.11 1735.22 866.81 1719.57 800.21 1713.13 801.96 1738.61 900.11"/><polygon class="cls-2" points="1719.57 800.21 1697.39 733.62 1682.04 701.95 1713.13 801.96 1719.57 800.21"/><polygon class="cls-2" points="338.59 1326.45 317.96 1298.05 361.24 1392.69 371.01 1386.86 338.59 1326.45"/><polygon class="cls-2" points="1629 1386.86 1638.77 1392.69 1682.04 1298.05 1661.4 1326.45 1629 1386.86"/><polygon class="cls-2" points="371.01 613.14 361.24 607.31 317.96 701.95 338.59 673.54 371.01 613.14"/><polygon class="cls-2" points="1661.4 673.54 1682.04 701.95 1638.77 607.31 1629 613.14 1661.4 673.54"/><polygon class="cls-2" points="371.01 1386.86 361.24 1392.69 420.32 1470.46 406.83 1441.4 371.01 1386.86"/><polygon class="cls-2" points="1593.18 1441.4 1579.69 1470.46 1638.77 1392.69 1629 1386.86 1593.18 1441.4"/><polygon class="cls-2" points="406.83 558.6 420.32 529.54 361.24 607.31 371.01 613.14 406.83 558.6"/><polygon class="cls-2" points="1629 613.14 1638.77 607.31 1579.69 529.54 1593.18 558.6 1629 613.14"/><polygon class="cls-2" points="260.29 1000 250 1000 261.4 1099.89 263.67 1066.59 260.29 1000"/><polygon class="cls-2" points="1739.7 1000 1736.33 1066.59 1738.61 1099.89 1749.99 1000 1739.7 1000"/><polygon class="cls-2" points="263.67 933.4 261.4 900.11 250 1000 260.29 1000 263.67 933.4"/><polygon class="cls-2" points="1739.7 1000 1749.99 1000 1738.61 900.11 1736.33 933.4 1739.7 1000"/><polygon class="cls-2" points="1453.59 1596.42 1478.61 1578.58 1518.93 1541.01 1511.36 1539.19 1453.59 1596.42"/><polygon class="cls-2" points="1518.93 1541.01 1560.92 1496.26 1579.69 1470.46 1511.36 1539.19 1518.93 1541.01"/><polygon class="cls-2" points="1579.69 529.54 1560.92 503.74 1518.93 458.98 1511.36 460.81 1579.69 529.54"/><polygon class="cls-2" points="1518.93 458.98 1478.61 421.42 1453.59 403.58 1511.36 460.81 1518.93 458.98"/><polygon class="cls-2" points="481.06 1541.01 521.4 1578.58 546.4 1596.42 488.65 1539.19 481.06 1541.01"/><polygon class="cls-2" points="420.32 1470.46 439.08 1496.26 481.06 1541.01 488.65 1539.19 420.32 1470.46"/><polygon class="cls-2" points="481.06 458.98 439.08 503.74 420.32 529.54 488.65 460.81 481.06 458.98"/><polygon class="cls-2" points="546.4 403.58 521.4 421.42 481.06 458.98 488.65 460.81 546.4 403.58"/><polygon class="cls-2" points="1059.86 1738.6 1000 1750 1114.08 1739.71 1115.95 1736.33 1059.86 1738.6"/><polygon class="cls-2" points="884.04 1736.33 885.93 1739.71 1000 1750 940.14 1738.6 884.04 1736.33"/><polygon class="cls-2" points="940.14 261.4 1000 250 885.93 260.29 884.04 263.67 940.14 261.4"/><polygon class="cls-2" points="1115.95 263.67 1114.08 260.29 1000 250 1059.86 261.4 1115.95 263.67"/><polygon class="cls-2" points="1115.95 1736.33 1114.08 1739.71 1223.16 1717.3 1172.99 1721.81 1115.95 1736.33"/><polygon class="cls-2" points="827.01 1721.81 776.84 1717.3 885.93 1739.71 884.04 1736.33 827.01 1721.81"/><polygon class="cls-2" points="884.04 263.67 885.93 260.29 776.84 282.7 827.01 278.19 884.04 263.67"/><polygon class="cls-2" points="1172.99 278.19 1223.16 282.7 1114.08 260.29 1115.95 263.67 1172.99 278.19"/><polygon class="cls-2" points="581.91 1615.97 546.4 1596.42 604.7 1639.61 631.39 1648.95 581.91 1615.97"/><polygon class="cls-2" points="1368.61 1648.95 1395.3 1639.61 1453.59 1596.42 1418.09 1615.97 1368.61 1648.95"/><polygon class="cls-2" points="631.39 351.05 604.7 360.39 546.4 403.58 581.91 384.02 631.39 351.05"/><polygon class="cls-2" points="1418.09 384.02 1453.59 403.58 1395.3 360.39 1368.61 351.05 1418.09 384.02"/><polygon class="cls-2" points="1277.33 1690.34 1223.16 1717.3 1316.08 1681.41 1320.18 1676.49 1277.33 1690.34"/><polygon class="cls-2" points="679.82 1676.49 683.92 1681.41 776.84 1717.3 722.67 1690.34 679.82 1676.49"/><polygon class="cls-2" points="722.67 309.66 776.84 282.7 683.92 318.59 679.82 323.51 722.67 309.66"/><polygon class="cls-2" points="1320.18 323.51 1316.08 318.59 1223.16 282.7 1277.33 309.66 1320.18 323.51"/><polygon class="cls-2" points="1320.18 1676.49 1316.08 1681.41 1395.3 1639.61 1368.61 1648.95 1320.18 1676.49"/><polygon class="cls-2" points="631.39 1648.95 604.7 1639.61 683.92 1681.41 679.82 1676.49 631.39 1648.95"/><polygon class="cls-2" points="679.82 323.51 683.92 318.59 604.7 360.39 631.39 351.05 679.82 323.51"/><polygon class="cls-2" points="1368.61 351.05 1395.3 360.39 1316.08 318.59 1320.18 323.51 1368.61 351.05"/><circle class="cls-3" cx="1000" cy="1000" r="750"/></svg>