<svg width="338" height="338" viewBox="0 0 338 338" fill="none" xmlns="http://www.w3.org/2000/svg">
<path d="M275.083 206.045C272.816 205.925 270.563 205.925 268.35 206.032C259.136 206.458 250.203 202.778 243.67 196.245L233.43 186.005C223.763 176.338 223.763 160.672 233.43 151.005L243.67 140.765C250.203 134.232 259.136 130.552 268.35 130.978C270.563 131.085 272.816 131.085 275.083 130.965C307.496 129.218 334.096 103.485 336.79 71.1384C340.163 30.5384 306.51 -3.12826 265.923 0.231742C233.563 2.89841 207.816 29.4984 206.056 61.9117C205.936 64.1917 205.923 66.445 206.03 68.6717C206.47 77.885 202.776 86.8184 196.256 93.3384L186.003 103.592C176.337 113.258 160.67 113.258 151.016 103.592L140.763 93.3384C134.243 86.8184 130.55 77.885 130.99 68.6717C131.096 66.445 131.083 64.1917 130.963 61.9117C129.203 29.4984 103.456 2.91174 71.1096 0.231742C30.5362 -3.12826 -3.11677 30.5118 0.229895 71.0851C2.89656 103.432 29.4832 129.192 61.8966 130.965C64.1899 131.085 66.443 131.085 68.683 130.978C77.883 130.552 86.8167 134.245 93.3367 140.765L103.59 151.005C113.256 160.672 113.256 176.338 103.59 186.005L93.3367 196.245C86.8167 202.778 77.883 206.472 68.683 206.032C66.443 205.925 64.1899 205.925 61.8966 206.058C29.4832 207.818 2.89656 233.578 0.229895 265.925C-3.11677 306.498 30.5362 340.138 71.1096 336.792C103.456 334.112 129.203 307.512 130.963 275.112C131.083 272.818 131.096 270.565 130.99 268.338C130.55 259.125 134.243 250.192 140.763 243.672L151.016 233.418C160.67 223.765 176.337 223.765 186.003 233.418L196.256 243.672C202.776 250.192 206.47 259.125 206.03 268.338C205.923 270.565 205.936 272.818 206.056 275.098C207.816 307.525 233.563 334.125 265.923 336.792C306.51 340.138 340.163 306.472 336.79 265.872C334.096 233.525 307.496 207.805 275.083 206.045Z" fill="white"/>
</svg>
