<svg width="766" height="762" viewBox="0 0 766 762" fill="none" xmlns="http://www.w3.org/2000/svg">
<path d="M3.24134 582.161L110.611 644.148L217.976 582.161V458.188L110.611 396.201L3.24134 458.188V582.161ZM110.611 647.895L109.799 647.428L0 584.041V456.321L110.611 392.455L111.424 392.921L221.217 456.321V584.041L110.611 647.895Z" fill="white"/>
<path d="M112.234 542.535H108.992V505.029H112.234V542.535Z" fill="white"/>
<path d="M116.943 695.866L224.307 757.853L331.676 695.866V571.893L224.307 509.893L116.943 571.893V695.866ZM224.307 761.586L223.493 761.119L113.701 697.733V570.013L224.307 506.159L225.12 506.626L334.917 570.013V697.733L224.307 761.586Z" fill="white"/>
<path d="M225.927 656.242H222.686V618.722H225.927V656.242Z" fill="white"/>
<path d="M436.671 695.866L544.035 757.853L651.4 695.866V571.893L544.035 509.893L436.671 571.893V695.866ZM544.035 761.586L543.222 761.119L433.43 697.733V570.013L544.035 506.159L544.848 506.626L654.642 570.013V697.733L544.035 761.586Z" fill="white"/>
<path d="M436.671 360.175L544.035 422.162L651.4 360.175V236.2L544.035 174.21L436.671 236.2V360.175ZM544.035 425.908L543.222 425.442L433.43 362.041V234.326L544.035 170.466L544.848 170.934L654.642 234.326V362.041L544.035 425.908Z" fill="white"/>
<path d="M327.734 251.237L435.098 313.228L542.467 251.237V127.268L435.098 65.268L327.734 127.268V251.237ZM435.098 316.975L434.284 316.508L324.492 253.112V125.388L435.098 61.5347L435.911 62.0013L545.708 125.388V253.112L435.098 316.975Z" fill="white"/>
<path d="M436.671 189.705L544.035 251.693L651.4 189.705V65.7348L544.035 3.73478L436.671 65.7348V189.705ZM544.035 255.438L543.222 254.969L433.43 191.579V63.8548L544.035 0.00144752L544.848 0.468114L654.642 63.8548V191.579L544.035 255.438Z" fill="white"/>
<path d="M547.276 295.642L654.647 357.628L762.011 295.642V171.667L654.647 109.682L547.276 171.667V295.642ZM654.647 361.375L653.834 360.908L544.035 297.522V169.794L654.647 105.935L655.459 106.402L765.252 169.794V297.522L654.647 361.375Z" fill="white"/>
<path d="M547.276 582.161L654.647 644.148L762.011 582.161V458.188L654.647 396.201L547.276 458.188V582.161ZM654.647 647.895L653.834 647.428L544.035 584.041V456.321L654.647 392.455L655.459 392.921L765.252 456.321V584.041L654.647 647.895Z" fill="white"/>
<path d="M156.952 540.802L264.322 602.802L371.686 540.802V416.829L264.322 354.842L156.952 416.829V540.802ZM264.322 606.535L263.508 606.068L153.711 542.682V414.962L264.322 351.095L265.135 351.562L374.927 414.962V542.682L264.322 606.535Z" fill="white"/>
<path d="M156.952 468.923L264.322 530.91L371.686 468.923V344.95L264.322 282.963L156.952 344.95V468.923ZM264.322 534.656L263.508 534.19L153.711 470.79V343.07L264.322 279.218L265.135 279.684L374.927 343.07V470.79L264.322 534.656Z" fill="white"/>
<path d="M545.655 656.242H542.414V618.722H545.655V656.242Z" fill="white"/>
<path d="M544.035 293.455C541.427 293.455 539.306 295.575 539.306 298.189C539.306 300.789 541.427 302.922 544.035 302.922C546.643 302.922 548.766 300.789 548.766 298.189C548.766 295.575 546.643 293.455 544.035 293.455ZM544.035 306.162C539.638 306.162 536.064 302.575 536.064 298.189C536.064 293.789 539.638 290.215 544.035 290.215C548.432 290.215 552.007 293.789 552.007 298.189C552.007 302.575 548.432 306.162 544.035 306.162Z" fill="white"/>
<path d="M264.322 474.096C261.714 474.096 259.592 476.216 259.592 478.816C259.592 481.429 261.714 483.549 264.322 483.549C266.93 483.549 269.052 481.429 269.052 478.816C269.052 476.216 266.93 474.096 264.322 474.096ZM264.322 486.789C259.924 486.789 256.35 483.216 256.35 478.816C256.35 474.429 259.924 470.842 264.322 470.842C268.719 470.842 272.294 474.429 272.294 478.816C272.294 483.216 268.719 486.789 264.322 486.789Z" fill="white"/>
</svg>
