<svg width="798" height="707" viewBox="0 0 798 707" fill="none" xmlns="http://www.w3.org/2000/svg">
<g opacity="0.13">
<path d="M428.919 392.355H307.746V271.182H343.226V273.369H349.892V271.182H382.333H388.999H428.919V342.476H428.133V349.142H428.919V392.355ZM327.319 290.755V372.782H409.346V290.755H327.319Z" fill="white"/>
<path d="M428.919 392.355H307.746V271.182H343.226V273.369H349.892V271.182H382.333H388.999H428.919V342.476H428.133V349.142H428.919V392.355ZM327.319 290.755V372.782H409.346V290.755H327.319Z" fill="white"/>
</g>
<g opacity="0.13">
<path d="M469.214 302.543H428.92V295.876H466.453L564.293 198.05H797.667V204.716H567.04L469.214 302.543Z" fill="white"/>
<path d="M469.214 302.543H428.92V295.876H466.453L564.293 198.05H797.667V204.716H567.04L469.214 302.543Z" fill="white"/>
</g>
<g opacity="0.13">
<path d="M797.666 412.902H728.853L665.08 349.142H428.133V342.476H428.919H667.84L731.613 406.236H797.666V412.902Z" fill="white"/>
<path d="M797.666 412.902H728.853L665.08 349.142H428.133V342.476H428.919H667.84L731.613 406.236H797.666V412.902Z" fill="white"/>
</g>
<g opacity="0.13">
<path d="M263.667 706.223H257V543.583L343.227 457.37V392.356H349.893V460.129L263.667 546.343V706.223Z" fill="white"/>
<path d="M263.667 706.223H257V543.583L343.227 457.37V392.356H349.893V460.129L263.667 546.343V706.223Z" fill="white"/>
</g>
<g opacity="0.13">
<path d="M413.373 690.742H406.706V569.982L373.439 536.716V392.355H380.106V533.955L413.373 567.222V690.742Z" fill="white"/>
<path d="M413.373 690.742H406.706V569.982L373.439 536.716V392.355H380.106V533.955L413.373 567.222V690.742Z" fill="white"/>
</g>
<g opacity="0.13">
<path d="M132.733 404.57H67.4395V397.904H129.973L188.733 339.143H307.746V345.81H191.493L132.733 404.57Z" fill="white"/>
<path d="M132.733 404.57H67.4395V397.904H129.973L188.733 339.143H307.746V345.81H191.493L132.733 404.57Z" fill="white"/>
</g>
<g opacity="0.13">
<path d="M307.747 306.184H154.947L96.0135 247.237H0.773438V240.57H98.7734L157.72 299.517H307.747V306.184Z" fill="white"/>
<path d="M307.747 306.184H154.947L96.0135 247.237H0.773438V240.57H98.7734L157.72 299.517H307.747V306.184Z" fill="white"/>
</g>
<g opacity="0.13">
<path d="M388.999 271.184H382.332V161.37L448.559 95.1435V0.970298H455.225V97.9036L388.999 164.13V271.184Z" fill="white"/>
<path d="M388.999 271.184H382.332V161.37L448.559 95.1435V0.970298H455.225V97.9036L388.999 164.13V271.184Z" fill="white"/>
</g>
<g opacity="0.13">
<path d="M349.893 273.371H343.226V213.024L263.666 133.464V16.9711H270.333V130.704L349.893 210.251V271.184V273.371Z" fill="white"/>
<path d="M349.893 273.371H343.226V213.024L263.666 133.464V16.9711H270.333V130.704L349.893 210.251V271.184V273.371Z" fill="white"/>
</g>
</svg>
