<svg width="154" height="462" viewBox="0 0 154 462" fill="none" xmlns="http://www.w3.org/2000/svg">
<path d="M77.2246 342.86L136.254 244.787H18.207L77.2246 342.86Z" stroke="white" stroke-width="20"/>
<path d="M124.958 381.893H104.025L77.2245 426.426L50.4245 381.893H29.4912L77.2245 461.199L124.958 381.893Z" fill="white"/>
<path d="M153.945 288.746H128.545L77.2252 374.013L25.9186 288.746H0.518555L77.2252 416.213L153.945 288.746Z" fill="white"/>
<path d="M77.2793 118.341L136.309 216.414H18.2617L77.2793 118.341Z" stroke="white" stroke-width="20"/>
<path d="M125.013 79.3066H104.079L77.2792 34.7733L50.4792 79.3066H29.5459L77.2792 -0.000125481L125.013 79.3066Z" fill="white"/>
<path d="M154 172.453H128.6L77.2799 87.1865L25.9732 172.453H0.573242L77.2799 44.9865L154 172.453Z" fill="white"/>
</svg>
