<svg width="799" height="77" viewBox="0 0 799 77" fill="none" xmlns="http://www.w3.org/2000/svg">
<path d="M185.267 -0.00028971H70.6L39.6935 44.133H7.72005L0 54.6797H32.3068H74.5734H86.9867L117.893 10.5464H179.52L185.267 -0.00028971Z" fill="white"/>
<path d="M117.307 27.3322L90.5333 65.5588H7.72005L0 76.1055H83.1602H118.214H119.133L153.28 27.3322H117.307Z" fill="white"/>
<path d="M338.547 -0.00028971H223.88L192.974 44.133H161L153.28 54.6797H185.587H227.854H240.267L271.173 10.5464H332.8L338.547 -0.00028971Z" fill="white"/>
<path d="M270.573 27.3322L243.814 65.5588H161L153.28 76.1055H236.44H271.493H272.414L306.56 27.3322H270.573Z" fill="white"/>
<path d="M491.826 -0.00028971H377.16L346.253 44.133H314.28L306.56 54.6797H338.866H381.133H393.547L424.453 10.5464H486.08L491.826 -0.00028971Z" fill="white"/>
<path d="M423.853 27.3322L397.093 65.5588H314.28L306.56 76.1055H389.72H424.773H425.693L459.84 27.3322H423.853Z" fill="white"/>
<path d="M645.106 -0.00028971H530.44L499.533 44.133H467.56L459.84 54.6797H492.147H534.413H546.826L577.733 10.5464H639.36L645.106 -0.00028971Z" fill="white"/>
<path d="M577.133 27.3322L550.373 65.5588H467.56L459.84 76.1055H543H578.053H578.973L613.12 27.3322H577.133Z" fill="white"/>
<path d="M798.387 -0.00028971H683.72L652.813 44.133H620.84L613.12 54.6797H645.426H687.693H700.107L731.013 10.5464H791.253L798.387 -0.00028971Z" fill="white"/>
<path d="M730.413 27.3322L703.653 65.5588H620.84L613.12 76.1055H696.28H731.333H732.253L766.4 27.3322H730.413Z" fill="white"/>
</svg>
