<svg width="244" height="260" viewBox="0 0 244 260" fill="none" xmlns="http://www.w3.org/2000/svg">
<mask id="path-1-inside-1_938_22" fill="white">
<path d="M24.6314 135C26.0317 135 27.1832 136.103 27.2922 137.499C30.9221 183.986 68.0135 221.077 114.501 224.707C115.897 224.816 117 225.968 117 227.368C117 228.822 115.822 230 114.368 230H32C26.4772 230 22 225.523 22 220V137.631C22 136.178 23.1781 135 24.6314 135ZM222 220C222 225.523 217.523 230 212 230H129.632C128.178 230 127 228.822 127 227.368C127 225.968 128.103 224.816 129.499 224.707C175.986 221.077 213.078 183.986 216.708 137.499C216.817 136.103 217.968 135 219.369 135C220.822 135 222 136.178 222 137.631V220ZM114.369 30C115.822 30 117 31.1781 117 32.6314C117 34.0317 115.897 35.1832 114.501 35.2922C68.0137 38.9222 30.9222 76.0137 27.2922 122.501C27.1832 123.897 26.0317 125 24.6314 125C23.1781 125 22 123.822 22 122.369V40C22 34.4772 26.4772 30 32 30H114.369ZM222 122.369C222 123.822 220.822 125 219.369 125C217.968 125 216.817 123.897 216.708 122.501C213.078 76.0137 175.986 38.9222 129.499 35.2922C128.103 35.1832 127 34.0317 127 32.6314C127 31.1781 128.178 30 129.631 30H212C217.523 30 222 34.4772 222 40V122.369Z"/>
</mask>
<path d="M24.6314 135C26.0317 135 27.1832 136.103 27.2922 137.499C30.9221 183.986 68.0135 221.077 114.501 224.707C115.897 224.816 117 225.968 117 227.368C117 228.822 115.822 230 114.368 230H32C26.4772 230 22 225.523 22 220V137.631C22 136.178 23.1781 135 24.6314 135ZM222 220C222 225.523 217.523 230 212 230H129.632C128.178 230 127 228.822 127 227.368C127 225.968 128.103 224.816 129.499 224.707C175.986 221.077 213.078 183.986 216.708 137.499C216.817 136.103 217.968 135 219.369 135C220.822 135 222 136.178 222 137.631V220ZM114.369 30C115.822 30 117 31.1781 117 32.6314C117 34.0317 115.897 35.1832 114.501 35.2922C68.0137 38.9222 30.9222 76.0137 27.2922 122.501C27.1832 123.897 26.0317 125 24.6314 125C23.1781 125 22 123.822 22 122.369V40C22 34.4772 26.4772 30 32 30H114.369ZM222 122.369C222 123.822 220.822 125 219.369 125C217.968 125 216.817 123.897 216.708 122.501C213.078 76.0137 175.986 38.9222 129.499 35.2922C128.103 35.1832 127 34.0317 127 32.6314C127 31.1781 128.178 30 129.631 30H212C217.523 30 222 34.4772 222 40V122.369Z" fill="white" fill-opacity="0.2"/>
<path d="M216.708 122.501L215.711 122.579L216.708 122.501ZM216.708 137.499L217.705 137.577L216.708 137.499ZM129.499 224.707L129.421 223.71L129.499 224.707ZM114.501 224.707L114.423 225.704L114.501 224.707ZM27.2922 137.499L26.2952 137.577C29.9635 184.555 67.4448 222.035 114.423 225.704L114.501 224.707L114.579 223.71C68.5822 220.118 31.8808 183.417 28.2891 137.421L27.2922 137.499ZM114.368 230V229H32V230V231H114.368V230ZM22 220H23V137.631H22H21V220H22ZM212 230V229H129.632V230V231H212V230ZM129.499 224.707L129.577 225.704C176.555 222.035 214.036 184.555 217.705 137.577L216.708 137.499L215.711 137.421C212.119 183.417 175.418 220.118 129.421 223.71L129.499 224.707ZM222 137.631H221V220H222H223V137.631H222ZM114.501 35.2922L114.423 34.2952C67.445 37.9635 29.9635 75.445 26.2952 122.423L27.2922 122.501L28.2891 122.579C31.8808 76.5825 68.5825 39.8808 114.579 36.2891L114.501 35.2922ZM22 122.369H23V40H22H21V122.369H22ZM32 30V31H114.369V30V29H32V30ZM216.708 122.501L217.705 122.423C214.036 75.445 176.555 37.9635 129.577 34.2952L129.499 35.2922L129.421 36.2891C175.418 39.8808 212.119 76.5825 215.711 122.579L216.708 122.501ZM129.631 30V31H212V30V29H129.631V30ZM222 40H221V122.369H222H223V40H222ZM212 30V31C216.971 31 221 35.0294 221 40H222H223C223 33.9249 218.075 29 212 29V30ZM127 32.6314H128C128 31.7304 128.73 31 129.631 31V30V29C127.626 29 126 30.6258 126 32.6314H127ZM129.499 35.2922L129.577 34.2952C128.682 34.2253 128 33.4906 128 32.6314H127H126C126 34.5728 127.523 36.141 129.421 36.2891L129.499 35.2922ZM219.369 125V124C218.509 124 217.775 123.318 217.705 122.423L216.708 122.501L215.711 122.579C215.859 124.477 217.427 126 219.369 126V125ZM219.369 125V126C221.374 126 223 124.374 223 122.369H222H221C221 123.27 220.27 124 219.369 124V125ZM22 40H23C23 35.0294 27.0294 31 32 31V30V29C25.9249 29 21 33.9249 21 40H22ZM24.6314 125V124C23.7304 124 23 123.27 23 122.369H22H21C21 124.374 22.6258 126 24.6314 126V125ZM27.2922 122.501L26.2952 122.423C26.2253 123.318 25.4906 124 24.6314 124V125V126C26.5728 126 28.141 124.477 28.2891 122.579L27.2922 122.501ZM117 32.6314H116C116 33.4906 115.318 34.2253 114.423 34.2952L114.501 35.2922L114.579 36.2891C116.477 36.141 118 34.5728 118 32.6314H117ZM117 32.6314H118C118 30.6258 116.374 29 114.369 29V30V31C115.27 31 116 31.7304 116 32.6314H117ZM219.369 135V136C220.27 136 221 136.73 221 137.631H222H223C223 135.626 221.374 134 219.369 134V135ZM216.708 137.499L217.705 137.577C217.775 136.682 218.509 136 219.369 136V135V134C217.427 134 215.859 135.523 215.711 137.421L216.708 137.499ZM127 227.368H128C128 226.509 128.682 225.774 129.577 225.704L129.499 224.707L129.421 223.71C127.524 223.858 126 225.426 126 227.368H127ZM129.632 230V229C128.731 229 128 228.269 128 227.368H127H126C126 229.374 127.626 231 129.632 231V230ZM212 230V231C218.075 231 223 226.075 223 220H222H221C221 224.971 216.971 229 212 229V230ZM22 137.631H23C23 136.73 23.7304 136 24.6314 136V135V134C22.6258 134 21 135.626 21 137.631H22ZM32 230V229C27.0294 229 23 224.971 23 220H22H21C21 226.075 25.9249 231 32 231V230ZM117 227.368H116C116 228.269 115.269 229 114.368 229V230V231C116.374 231 118 229.374 118 227.368H117ZM114.501 224.707L114.423 225.704C115.318 225.774 116 226.509 116 227.368H117H118C118 225.426 116.476 223.858 114.579 223.71L114.501 224.707ZM27.2922 137.499L28.2891 137.421C28.141 135.523 26.5728 134 24.6314 134V135V136C25.4906 136 26.2253 136.682 26.2952 137.577L27.2922 137.499Z" fill="white" fill-opacity="0.2" mask="url(#path-1-inside-1_938_22)"/>
<g filter="url(#filter0_f_938_22)">
<path d="M122 65L178.292 97.5V162.5L122 195L65.7083 162.5V97.5L122 65Z" fill="#21E86F"/>
</g>
<defs>
<filter id="filter0_f_938_22" x="0.708496" y="0" width="242.583" height="260" filterUnits="userSpaceOnUse" color-interpolation-filters="sRGB">
<feFlood flood-opacity="0" result="BackgroundImageFix"/>
<feBlend mode="normal" in="SourceGraphic" in2="BackgroundImageFix" result="shape"/>
<feGaussianBlur stdDeviation="32.5" result="effect1_foregroundBlur_938_22"/>
</filter>
</defs>
</svg>
