<svg width="600" height="400" viewBox="0 0 600 400" fill="none" xmlns="http://www.w3.org/2000/svg">
<path d="M577.521 2.32458e-05H483L483.897 1.11487L487.483 5.57389H529.58L534.063 11.134H573.813L582.392 21.8001L590.96 32.4523V81.8739L595.443 87.4478V139.801L599.018 144.246L599.915 145.361V93.0078V2.32458e-05H577.521Z" fill="white" fill-opacity="0.2"/>
<path d="M599.415 0.500488H484.044L484.286 0.80127L487.723 5.07373H529.819L529.969 5.26025L534.303 10.6343H574.053L574.203 10.8208L582.781 21.4868L591.35 32.1392L591.46 32.2759V81.6978L595.832 87.1343L595.942 87.272V139.625L599.407 143.933L599.415 143.943V0.500488Z" stroke="white" stroke-opacity="0.2"/>
<path d="M577.5 400H483.5L483.896 399.246L487.483 394.787H529.58L534.063 389.227H573.813L582.392 378.561L590.959 367.909V318.487L595.442 312.913V260.56L599.018 256.115L599.915 255V307.353L600 400H577.5Z" fill="white" fill-opacity="0.2"/>
<path d="M599.414 307.354L599.5 399.5H484.334L487.722 395.287H529.819L529.969 395.101L534.303 389.727H574.053L574.202 389.54L582.781 378.874L591.349 368.222L591.459 368.085V318.663L595.832 313.227L595.942 313.089V260.735L599.407 256.428L599.414 256.419V307.354Z" stroke="white" stroke-opacity="0.2"/>
<path d="M22.5 400H69.6649H116.5L116.018 399.246L112.431 394.787H70.3346L65.8515 389.227H26.1014L17.5227 378.561L8.95496 367.909V318.487L4.47186 312.913V260.56L0.896584 256.115L-0.000198364 255V307.353V400H22.5Z" fill="white" fill-opacity="0.2"/>
<path d="M0.5 399.5H115.58L112.192 395.287H70.0957L69.9453 395.101L65.6113 389.727H25.8623L25.7119 389.54L17.1328 378.874L8.56543 368.222L8.45508 368.085V318.663L4.08203 313.227L3.97168 313.089V260.735L0.506836 256.428L0.5 256.419V399.5Z" stroke="white" stroke-opacity="0.2"/>
<path d="M22.3932 2.32458e-05H116.915L116.018 1.11487L112.431 5.57389H70.3346L65.8515 11.134H26.1014L17.5227 21.8001L8.95496 32.4523V81.8739L4.47186 87.4478V139.801L0.896581 144.246L-0.000202179 145.361V93.0078V2.32458e-05H22.3932Z" fill="white" fill-opacity="0.2"/>
<path d="M0.499512 0.500488H115.871L115.628 0.80127L112.192 5.07373H70.0952L69.9458 5.26025L65.6118 10.6343H25.8618L25.7114 10.8208L17.1333 21.4868L8.56494 32.1392L8.45459 32.2759V81.6978L4.08252 87.1343L3.97217 87.272V139.625L0.507324 143.933L0.499512 143.943V0.500488Z" stroke="white" stroke-opacity="0.2"/>
</svg>
