<svg width="601" height="400" viewBox="0 0 601 400" fill="none" xmlns="http://www.w3.org/2000/svg">
<path d="M313.3 31.0777L303.623 19.0476H297.388L287.7 31.0777H313.3Z" fill="white"/>
<path d="M287.7 369.925L297.388 380.952H303.623L313.3 369.925H287.7Z" fill="white"/>
<path d="M281.3 17.0426H278.085L266.1 31.0777H269.315L281.3 17.0426Z" fill="white"/>
<path d="M275.548 31.0777L286.9 17.0426H283.852L272.5 31.0777H275.548Z" fill="white"/>
<path d="M281.946 31.0777L293.3 17.0426H290.254L278.9 31.0777H281.946Z" fill="white"/>
<path d="M266.1 369.925L278.085 383.96H281.3L269.315 369.925H266.1Z" fill="white"/>
<path d="M272.5 369.925L283.852 383.96H286.9L275.548 369.925H272.5Z" fill="white"/>
<path d="M278.9 369.925L290.254 383.96H293.3L281.946 369.925H278.9Z" fill="white"/>
<path d="M595.201 290.773L591.669 295.088V329.137L587.264 334.547V363.079L581.834 369.718L570.365 383.784H547.076L542.661 389.18H514.87L511.348 393.495H447.207L441.178 386.121H422.883H421.324H414.237H415.785H412.646H411.087H403.956H405.515H402.375H400.816H393.686H395.245H392.105H390.546H383.415H384.974H381.834H380.275H373.145H374.704H371.586L364.674 377.652V377.5H331.5L331.398 377.652H331.409L324.497 386.121H276.492L269.58 377.652H236.315L229.414 386.121H226.285H219.155H216.015H215.13H208H208.884H201.754H198.614H191.484H188.343H181.246H178.106H159.811L153.782 393.495H89.6408L86.1193 389.18H58.3282L53.9126 383.784H30.6244L19.1546 369.718L13.736 363.079V334.547L9.32036 329.137V295.088L5.78783 290.773V109.227L9.32036 104.899V70.8499L13.736 65.44V36.9078L19.1546 30.2689L30.6244 16.2165H53.9126L58.3282 10.8065H86.1193L89.6408 6.49197H153.782L159.811 13.8788H178.106L185.018 22.3343H192.116L185.203 13.8788H188.343L195.256 22.3343H202.386L195.474 13.8788H198.614L205.526 22.3343H212.657L205.744 13.8788H208.884L215.797 22.3343H222.927L216.015 13.8788H219.155L226.067 22.3343H233.197L226.285 13.8788H229.414L236.315 22.3477H269.58L276.492 13.8788H324.497L331.409 22.3477H364.674L371.586 13.8788H374.704L367.792 22.3343H374.922L381.834 13.8788H384.974L378.062 22.3343H385.192L392.105 13.8788H395.245L388.333 22.3343H395.463L402.375 13.8788H405.515L398.603 22.3343H405.733L412.646 13.8788H415.785L408.884 22.3343H415.971L422.883 13.8788H441.178L447.207 6.49197H511.348L514.87 10.8065H542.661L547.076 16.2165H570.365L581.834 30.2689L587.264 36.9078V65.44L591.669 70.8499V104.899L595.201 109.227V290.773ZM331.398 377.652L331.5 377.5L364.674 377.652V377.5L331.398 377.652ZM238.452 376.57H244.5H262.689H267.465H238.452ZM251.437 393.495L254 390.356H346.989L349.562 393.495H251.437ZM269.58 22.3477H269.591H236.315H269.58ZM364.674 22.3477H345.943H331.409H364.674ZM349.562 6.49197L346.989 9.64438H254L251.437 6.49197H349.562ZM600.5 65.961V0H575.849H537.122H532H510.465H502H96.5H90.5241H69.5H63.8669H25.1402H0.5L0.5 65.961L0.5 74.5L0.5 327V334.026V400H25.1402H63.8669H69.5H90.5241H103.5H504H511.348H531H537.122H575.849H600.5L600.5 334.026L600.5 329.137V79.5L600.5 65.961Z" fill="white"/>
<path d="M319.7 17.0426L331.685 31.0777H334.9L322.927 17.0426H319.7Z" fill="white"/>
<path d="M328.5 31.0777L317.148 17.0426H314.1L325.452 31.0777H328.5Z" fill="white"/>
<path d="M322.1 31.0777L310.757 17.0426H307.7L319.054 31.0777H322.1Z" fill="white"/>
<path d="M319.7 383.96H322.927L334.9 369.925H331.685L319.7 383.96Z" fill="white"/>
<path d="M325.452 369.925L314.1 383.96H317.148L328.5 369.925H325.452Z" fill="white"/>
<path d="M319.054 369.925L307.7 383.96H310.757L322.1 369.925H319.054Z" fill="white"/>
</svg>
