<svg width="600" height="401" viewBox="0 0 600 401" fill="none" xmlns="http://www.w3.org/2000/svg">
<path d="M22.3934 0.245003L0 0.24494V93.2528V145.606L0.896575 144.491L4.47207 140.046V87.6927L8.95516 82.1189V32.6972L17.5229 22.045L26.1016 11.379H65.8517L70.3238 5.81887H112.432L116.018 1.35985L116.915 0.245003H74.8068H22.3934Z" fill="white"/>
<path d="M139.587 6.43054H263.87L259.956 1.39685L259.06 0.244975H134.777L135.672 1.39685L139.587 6.43054Z" fill="white"/>
<path d="M270.331 6.34124H291.749L296.241 12.017L299.099 15.6048L300 16.7399L300.901 15.6048L303.748 12.017L308.251 6.34124H329.669L333.605 1.38026L334.506 0.245021H305.771L304.871 1.38026L300.901 6.38325L300 7.51849L299.099 6.38325L295.129 1.38026L294.229 0.245021H265.494L266.395 1.38026L270.331 6.34124Z" fill="white"/>
<path d="M577.607 0.245003H483.085L483.982 1.35985L487.568 5.81887H529.665L534.148 11.379H573.898L582.477 22.045L591.045 32.6972V82.1189L595.528 87.6927V140.046L599.103 144.491L600 145.606V93.2528V0.245003H577.607Z" fill="white"/>
<path d="M340.044 1.39685L336.13 6.43054H460.413L464.327 1.39685L465.223 0.244975H340.94L340.044 1.39685Z" fill="white"/>
<path d="M595.94 147.668V252.822L599.186 248.383L600 247.273V200.238V153.203L599.186 152.093L595.94 147.668Z" fill="white"/>
<path d="M112.432 394.671H70.3238L65.8517 389.097H26.1016L17.5229 378.445L8.95516 367.779V318.357L4.47207 312.797V260.444L0.896575 255.985L0 254.884V307.224V400.245L22.3934 400.245H74.8068H116.915L116.018 399.13L112.432 394.671Z" fill="white"/>
<path d="M135.672 399.285L134.777 400.245H259.06L259.956 399.285L263.87 395.09H139.587L135.672 399.285Z" fill="white"/>
<path d="M4.05954 252.822V147.668L0.813871 152.093L0 153.203V200.238V247.273L0.813871 248.383L4.05954 252.822Z" fill="white"/>
<path d="M595.528 260.444V312.797L591.045 318.357V367.779L582.477 378.445L573.898 389.097H534.148L529.665 394.671H487.568L483.982 399.13L483.085 400.245H525.193H577.607L600 399.214V307.224V254.884L599.103 255.985L595.528 260.444Z" fill="white"/>
<path d="M460.413 395.09H336.13L340.044 399.285L340.94 400.245H465.223L464.327 399.285L460.413 395.09Z" fill="white"/>
<path d="M329.669 394.53H308.251L303.748 389.209L300.901 385.832L300 384.781L299.099 385.832L296.241 389.209L291.749 394.53H270.331L266.395 399.181L265.494 400.245H294.229L295.129 399.181L299.099 394.49L300 393.426L300.901 394.49L304.871 399.181L305.771 400.245H334.506L333.605 399.181L329.669 394.53Z" fill="white"/>
</svg>
