<svg width="600" height="401" viewBox="0 0 600 401" fill="none" xmlns="http://www.w3.org/2000/svg">
<path d="M22.3934 0.245018L0 0.244955V93.2528V145.606L0.896575 144.491L4.47207 140.046V87.6928L8.95516 82.1189V32.6973L17.5229 22.0451L26.1016 11.379H65.8517L70.3238 5.81888H112.432L116.018 1.35987L116.915 0.245018H74.8068H22.3934Z" fill="white"/>
<path d="M577.607 0.245018H483.085L483.982 1.35987L487.568 5.81888H529.665L534.148 11.379H573.898L582.477 22.0451L591.045 32.6973V82.1189L595.528 87.6928V140.046L599.103 144.491L600 145.606V93.2528V0.245018H577.607Z" fill="white"/>
<path d="M112.432 394.671H70.3238L65.8517 389.097H26.1016L17.5229 378.445L8.95516 367.779V318.357L4.47207 312.797V260.444L0.896575 255.985L0 254.884V307.224V400.245L22.3934 400.245H74.8068H116.915L116.018 399.13L112.432 394.671Z" fill="white"/>
<path d="M4.05954 252.822V147.668L0.813871 152.093L0 153.203V200.238V247.273L0.813871 248.383L4.05954 252.822Z" fill="white"/>
<path d="M595.528 260.444V312.797L591.045 318.357V367.779L582.477 378.445L573.898 389.097H534.148L529.665 394.671H487.568L483.982 399.13L483.085 400.245H525.193H577.607L600 399.214V307.224V254.884L599.103 255.985L595.528 260.444Z" fill="white"/>
</svg>
