<svg width="600" height="400" viewBox="0 0 600 400" fill="none" xmlns="http://www.w3.org/2000/svg">
<path d="M140.81 6.17784H265.093L261.179 1.15044L260.283 -2.97278e-06H136L136.896 1.15044L140.81 6.17784Z" fill="white"/>
<path d="M271.555 6.08865H292.972H295.452H297.465H301.223L304.5 6.08865L306.995 6.08865H309.475H330.892L334.829 1.13387L335.729 5.05154e-05H306.995H306H303.5H301.223L300 8.60608e-06L297 5.05154e-05H295.452H266.717L267.618 1.13387L271.555 6.08865Z" fill="white"/>
<path d="M341.267 1.15044L337.353 6.17784H461.637L465.551 1.15044L466.447 -2.97278e-06H342.163L341.267 1.15044Z" fill="white"/>
<path d="M140.81 393.817H265.093L261.179 398.844L260.283 399.995H136L136.896 398.844L140.81 393.817Z" fill="white"/>
<path d="M271.555 393.906H292.972H299H303.5L306 393.906L308 393.906L309.475 393.906L330.892 393.906L334.829 398.861L335.729 399.995H306.995H306.5L305.5 400L301 399.995L299.5 400H296.5L295.452 399.995H266.717L267.618 398.861L271.555 393.906Z" fill="white"/>
<path d="M341.267 398.844L337.353 393.817H461.637L465.551 398.844L466.447 399.995H342.163L341.267 398.844Z" fill="white"/>
<path d="M595.94 147.483V252.507L599.186 248.073L600 246.965V199.988V153.012L599.186 151.903L595.94 147.483Z" fill="white"/>
<path d="M22.3934 0.244693L0 0.24463V93.1363V145.424L0.896575 144.311L4.47207 139.871V87.5832L8.95516 82.0163V32.6564L17.5229 22.0175L26.1016 11.3648H65.8517L70.3238 5.8116H112.432L116.018 1.35815L116.915 0.244693H74.8068H22.3934Z" fill="white"/>
<path d="M577.607 0.244693H483.085L483.982 1.35815L487.568 5.8116H529.665L534.148 11.3648H573.898L582.477 22.0175L591.045 32.6564V82.0163L595.528 87.5832V139.871L599.103 144.311L600 145.424V93.1363V0.244693H577.607Z" fill="white"/>
<path d="M112.432 394.178H70.3238L65.8517 388.611H26.1016L17.5229 377.973L8.95516 367.32V317.96L4.47207 312.407V260.119L0.896575 255.666L0 254.566V306.84V399.745L22.3934 399.745H74.8068H116.915L116.018 398.632L112.432 394.178Z" fill="white"/>
<path d="M4.05954 252.507V147.483L0.813871 151.903L0 153.012V199.988V246.965L0.813871 248.073L4.05954 252.507Z" fill="white"/>
<path d="M595.528 260.119V312.407L591.045 317.96V367.32L582.477 377.973L573.898 388.611H534.148L529.665 394.178H487.568L483.982 398.632L483.085 399.745H525.193H577.607L600 398.716V306.84V254.566L599.103 255.666L595.528 260.119Z" fill="white"/>
</svg>
