<svg width="500" height="500" viewBox="0 0 500 500" fill="none" xmlns="http://www.w3.org/2000/svg">
<path d="M80.3936 408.849C82.6087 411.308 84.8841 413.732 87.2207 416.116C119.373 448.928 158.67 470.003 200.001 479.345V499.999C153.545 490.369 109.253 467.171 73.2227 430.401C69.6366 426.742 66.1829 422.998 62.8604 419.178L80.3936 408.849ZM437.138 419.177C433.815 422.997 430.362 426.742 426.775 430.401C390.746 467.17 346.455 490.367 300.001 499.998V479.345C341.331 470.002 380.626 448.927 412.777 416.116C415.114 413.731 417.39 411.308 419.605 408.848L437.138 419.177ZM30.3545 179.505C16.2756 225.323 16.2761 274.674 30.3545 320.492L12.8193 330.824C-4.27333 278.452 -4.27391 221.545 12.8193 169.173L30.3545 179.505ZM487.178 169.175C504.27 221.546 504.271 278.451 487.179 330.822L469.644 320.491C483.722 274.674 483.721 225.324 469.643 179.507L487.178 169.175ZM300.001 0.000976562C346.455 9.63155 390.746 32.8304 426.775 69.5986C430.361 73.2579 433.814 77.0012 437.137 80.8213L419.604 91.1514C417.389 88.6918 415.114 86.2683 412.777 83.8838C380.626 51.0731 341.331 29.9965 300.001 20.6543V0.000976562ZM200.001 20.6543C158.67 29.9961 119.373 51.0721 87.2207 83.8838C84.8844 86.268 82.6084 88.6902 80.3936 91.1494L62.8613 80.8203C66.1835 77.0004 69.6371 73.2577 73.2227 69.5986C109.253 32.8293 153.545 9.63009 200.001 0V20.6543Z" fill="white"/>
<circle cx="249.484" cy="250" r="49" fill="white" stroke="white" stroke-width="2"/>
<circle cx="250.484" cy="250" r="142.5" stroke="white" stroke-width="15"/>
<rect x="41.1596" y="141.469" width="24" height="99" transform="rotate(-60 41.1596 141.469)" fill="white" stroke="white"/>
<rect x="238.984" y="15.5" width="24" height="99" fill="white" stroke="white"/>
<rect x="236.984" y="385.5" width="24" height="99" fill="white" stroke="white"/>
<rect x="-0.683013" y="-0.183013" width="24" height="99" transform="matrix(-0.5 -0.866025 -0.866025 0.5 459.411 139.971)" fill="white" stroke="white"/>
<rect x="459.903" y="361.183" width="24" height="99" transform="rotate(120 459.903 361.183)" fill="white" stroke="white"/>
<rect x="0.683013" y="0.183013" width="24" height="99" transform="matrix(0.5 0.866025 0.866025 -0.5 40.6674 356.683)" fill="white" stroke="white"/>
</svg>
