<svg width="694" height="694" viewBox="0 0 694 694" fill="none" xmlns="http://www.w3.org/2000/svg">
<path d="M223.876 541.566C298.933 589.384 395.668 589.384 470.725 541.566L485.185 556.025C401.859 611.231 292.742 611.231 209.416 556.025L223.876 541.566ZM555.896 209.546C611.101 292.872 611.101 401.989 555.896 485.315L541.436 470.855C589.254 395.798 589.254 299.063 541.436 224.006L555.896 209.546ZM153.165 224.005C105.346 299.063 105.347 395.798 153.165 470.855L138.705 485.315C83.5 401.989 83.4993 292.871 138.705 209.545L153.165 224.005ZM209.415 138.835C292.741 83.6291 401.859 83.6299 485.185 138.835L470.725 153.295C395.668 105.477 298.933 105.476 223.875 153.294L209.415 138.835Z" fill="white"/>
<circle cx="347.195" cy="346.711" r="50" transform="rotate(-45 347.195 346.711)" fill="white"/>
<rect x="194.227" y="212.738" width="25" height="100" transform="rotate(-45 194.227 212.738)" fill="white"/>
<rect x="481.312" y="194.352" width="25" height="100" transform="rotate(45 481.312 194.352)" fill="white"/>
<rect x="481.312" y="194.352" width="25" height="100" transform="rotate(45 481.312 194.352)" fill="white"/>
<rect x="264.938" y="410.729" width="25" height="100" transform="rotate(45 264.938 410.729)" fill="white"/>
<rect x="410.602" y="429.113" width="25" height="100" transform="rotate(-45 410.602 429.113)" fill="white"/>
</svg>
