<svg width="501" height="495" viewBox="0 0 501 495" fill="none" xmlns="http://www.w3.org/2000/svg">
<path d="M437.621 410.756C434.299 414.499 430.846 418.168 427.261 421.754C329.63 519.385 171.338 519.385 73.707 421.754C70.122 418.169 66.6694 414.501 63.3477 410.759L81.0605 400.532C83.2634 402.928 85.5256 405.289 87.8486 407.612C177.669 497.433 323.298 497.433 413.118 407.612C415.442 405.288 417.705 402.926 419.908 400.529L437.621 410.756ZM200.478 20.4502C159.202 29.602 119.959 50.2325 87.8486 82.3428C25.1768 145.015 6.23422 234.857 31.0205 313.953L13.3047 324.181C-15.6681 237.195 4.46568 137.443 73.707 68.2012C109.735 32.1728 154.025 9.44052 200.478 0.00292969V20.4502ZM300.478 0C346.935 9.43607 391.229 32.1696 427.261 68.2012C496.501 137.442 516.634 237.193 487.663 324.178L469.946 313.948C494.731 234.853 475.789 145.014 413.118 82.3428C381.005 50.2294 341.757 29.5987 300.478 20.4482V0Z" fill="white"/>
<rect x="431.903" y="334.183" width="24" height="99" transform="rotate(120 431.903 334.183)" fill="white" stroke="white"/>
<rect x="237.984" y="50.5" width="24" height="99" fill="white" stroke="white"/>
<rect x="0.683013" y="0.183013" width="24" height="99" transform="matrix(0.5 0.866025 0.866025 -0.5 67.6674 333.683)" fill="white" stroke="white"/>
<circle cx="250.195" cy="246.711" r="49" transform="rotate(-45 250.195 246.711)" fill="white" stroke="white" stroke-width="2"/>
</svg>
