<svg width="1933" height="1192" viewBox="0 0 1933 1192" fill="none" xmlns="http://www.w3.org/2000/svg">
<path fill-rule="evenodd" clip-rule="evenodd" d="M0.0387501 0.572313C-0.22025 0.991313 0.846766 3.21231 2.41177 5.50731C3.97677 7.80131 6.34876 11.6203 7.68276 13.9933C9.01776 16.3663 11.1268 20.1083 12.3688 22.3083C13.6108 24.5083 15.4738 27.5023 16.5098 28.9623C17.5458 30.4223 18.3928 31.8593 18.3928 32.1553C18.3928 32.6003 33.0967 56.8153 36.3997 61.8083C36.9457 62.6333 38.8548 65.7103 40.6428 68.6463C42.4298 71.5823 44.5678 75.0383 45.3928 76.3263C47.0158 78.8603 63.6057 105.368 69.9747 115.605C72.1297 119.068 74.5678 122.957 75.3928 124.247C76.2178 125.537 78.4678 129.165 80.3928 132.308C82.3178 135.451 84.6758 139.212 85.6318 140.666C86.5878 142.119 87.6828 143.983 88.0638 144.808C88.4448 145.633 90.1997 148.558 91.9637 151.308C93.7277 154.058 105.684 173.111 118.532 193.649C131.381 214.187 142.568 232.042 143.393 233.327C144.218 234.613 146.876 238.96 149.3 242.986C151.723 247.013 156.502 254.583 159.919 259.808C168.36 272.715 201.14 325.04 209.913 339.613C211.12 341.617 214.766 347.324 221.857 358.308C228.893 369.206 228.69 368.809 227.202 368.799C226.482 368.794 218.154 363.732 208.696 357.549C199.237 351.367 185.813 342.708 178.864 338.308C171.915 333.908 160.183 326.258 152.793 321.308C135.857 309.964 129.096 305.772 128.576 306.292C128.161 306.707 131.182 310.667 153.259 338.64C160.06 347.257 165.839 354.854 166.102 355.522C166.364 356.189 165.169 362.489 163.445 369.522C157.76 392.709 153.326 410.211 153.108 410.316C152.99 410.373 149.916 412.748 146.276 415.594C139.647 420.778 129.992 430.534 124.954 437.139C122.339 440.568 122.311 440.748 123.91 443.841C129.003 453.689 141.367 474.15 146.191 480.714C161.013 500.879 184.066 527.847 193.047 535.529C199.05 540.663 198.803 540.222 211.374 568.308C221.995 592.037 226.126 596.656 244.185 604.999C252.111 608.661 272.419 614.786 276.683 614.802C279.027 614.81 283.403 617.934 291.4 625.308C312.801 645.043 346.622 668.021 379.157 684.932C386.939 688.977 388.827 689.593 390.958 688.783C392.353 688.253 405.924 685.339 421.116 682.308C436.307 679.278 448.869 676.665 449.031 676.503C449.194 676.341 443.379 668.994 436.11 660.177C417.514 637.621 413.893 632.954 413.893 631.545C413.893 629.943 412.958 629.751 434.393 635.753C444.568 638.603 457.843 642.312 463.893 643.996C469.943 645.68 479.843 648.564 485.893 650.404C499.415 654.519 518.955 659.923 522.587 660.552C525.796 661.108 520.472 663.985 592.393 622.83C646.936 591.619 668.615 579.468 749.582 534.726C792.064 511.25 799.393 507.412 799.393 508.64C799.393 509.114 792.98 516.463 785.143 524.971C698.748 618.761 682.388 636.916 689.466 631.144C690.251 630.504 701.238 623.635 713.881 615.88L736.869 601.779L744.289 591.544C748.37 585.914 757.76 572.758 765.156 562.308L778.603 543.308L795.903 530.808C805.418 523.933 825.733 509.11 841.048 497.869C872.471 474.804 868.308 476.64 892.17 475.318C907.579 474.464 904.835 475.803 927.893 457.875C936.143 451.46 948.743 441.774 955.893 436.349C963.043 430.925 969.118 426.275 969.393 426.015C970.123 425.326 960.928 426.38 922.792 431.357C904.036 433.805 886.859 435.808 884.621 435.808C881.479 435.808 878.714 434.668 872.49 430.808C868.056 428.058 864.211 425.808 863.945 425.808C863.427 425.808 855.775 421.325 814.393 396.774C772.127 371.699 750.185 358.808 749.771 358.808C749.559 358.808 731.5 348.082 709.639 334.973C667.108 309.467 651.968 300.49 646.393 297.471C644.468 296.429 637.043 292.07 629.893 287.784C622.743 283.498 604.068 272.469 588.393 263.274C572.718 254.08 542.343 236.101 520.893 223.321C499.443 210.541 466.143 190.734 446.893 179.305C427.643 167.876 408.518 156.415 404.393 153.836C400.268 151.257 396.218 148.756 395.393 148.278C394.568 147.8 395.065 148.961 396.496 150.858C403.244 159.799 435.393 207.706 435.393 208.821C435.393 210.987 431.577 209.469 418.039 201.921C410.258 197.583 389.043 185.82 370.893 175.781C352.743 165.743 331.368 153.829 323.393 149.306C315.418 144.784 305.743 139.393 301.893 137.327C276.674 123.796 249.185 108.603 231.572 98.4623C224.599 94.4463 215.068 89.0393 210.393 86.4453C205.718 83.8523 201.218 81.3083 200.393 80.7943C192.904 76.1213 118.891 34.8083 118.01 34.8083C117.722 34.8083 111.052 31.0383 103.189 26.4313C95.3258 21.8243 86.4178 16.7103 83.3928 15.0673C80.3678 13.4233 76.3178 11.1983 74.3928 10.1223C72.4678 9.0453 68.4178 6.86832 65.3928 5.28432C62.3678 3.70032 59.1048 1.75031 58.1428 0.951311C56.8008 -0.162689 56.3928 -0.201698 56.3928 0.786302C56.3928 1.4943 64.0837 9.84532 73.4847 19.3443C84.4467 30.4203 90.4537 37.2113 90.2347 38.2793C90.0467 39.1953 88.6767 40.6803 87.1907 41.5793C84.5597 43.1703 84.2567 43.0923 75.6907 38.6073C70.8517 36.0743 58.7928 29.8573 48.8928 24.7913C38.9928 19.7263 24.3417 12.0333 16.3357 7.6953C1.18375 -0.513701 0.81075 -0.676687 0.0387501 0.572313ZM1823.89 91.2053C1820.04 93.5773 1803.84 102.829 1787.89 111.765C1771.94 120.702 1755.52 129.935 1751.39 132.284C1715.6 152.666 1701.54 160.16 1636.89 193.287C1624.24 199.77 1611.5 206.412 1608.58 208.048C1605.66 209.684 1603.01 210.76 1602.69 210.438C1602.2 209.952 1610.71 199.692 1623.52 185.308C1632.3 175.444 1654.39 149.689 1654.39 149.311C1654.39 149.063 1652.26 150.123 1649.64 151.667C1647.03 153.212 1633.64 161.16 1619.89 169.33C1606.14 177.5 1591.07 186.395 1586.39 189.097C1575.68 195.288 1574.57 195.951 1499.89 240.512C1439.68 276.446 1408.12 295.151 1345.89 331.79C1311.7 351.924 1302.01 357.669 1269.89 376.839C1242.07 393.449 1184.72 427.411 1178.15 431.169L1173.41 433.881L1162.15 432.395C1155.96 431.577 1135.59 428.834 1116.89 426.3C1098.19 423.766 1080.42 421.432 1077.39 421.113L1071.89 420.534L1074.39 422.488C1080.28 427.086 1143.52 470.907 1149.9 474.804C1156.9 479.084 1166.12 485.981 1191.39 505.833C1198.82 511.667 1213.22 522.96 1223.39 530.93C1233.57 538.9 1256.52 556.886 1274.39 570.9C1306.69 596.221 1365.87 642.345 1376.39 650.392C1380.74 653.717 1436.72 684.358 1459.39 695.821C1462.8 697.545 1447.44 681.752 1395.89 630.559C1358.49 593.414 1328.19 562.717 1328.55 562.344C1329.71 561.135 1387.24 587.218 1452.89 618.727C1505.5 643.976 1587.78 685.098 1588.12 686.311C1588.27 686.863 1576.13 699.202 1561.14 713.732C1546.16 728.262 1526.24 747.617 1516.89 756.742C1488.44 784.51 1430.51 839.53 1416.39 852.19C1410.33 857.625 1411.08 857.245 1427.39 846.574C1461.63 824.179 1505.32 795.815 1534.39 777.104C1550.62 766.662 1573.6 751.818 1585.45 744.117C1619.18 722.214 1705.49 664.207 1720 653.69L1733.1 644.19L1796.5 570.233C1871.15 483.138 1886.39 465.156 1886.39 464.153C1886.39 463.947 1883.76 465.11 1880.53 466.737C1874.75 469.654 1871.02 469.897 1870.07 467.418C1869.82 466.761 1870.04 459.943 1870.55 452.266C1871.46 438.777 1871.71 437.67 1878.03 419.308C1884.79 399.676 1895.12 370.654 1904.84 343.986L1910.42 328.663L1909.76 319.236C1909.4 314.05 1908.9 309.808 1908.65 309.808C1908.4 309.808 1905.43 312.19 1902.05 315.102C1890.62 324.932 1877.98 334.322 1857.39 348.282C1846.12 355.926 1834.21 364.122 1830.94 366.495C1819.66 374.673 1820.37 372.778 1839.22 344.254C1882.64 278.565 1927.39 207.917 1927.39 205.065C1927.39 204.414 1922.9 195.764 1917.41 185.842C1911.92 175.921 1906.5 165.977 1905.36 163.745L1903.29 159.688L1907.92 152.669C1913.46 144.25 1928.4 119.657 1930.82 114.965C1931.76 113.126 1932.29 111.376 1931.99 111.074C1931.69 110.773 1924.8 112.143 1916.67 114.119C1893.95 119.642 1862.14 127.007 1816.5 137.314C1793.62 142.481 1770.42 147.851 1764.96 149.246C1759.5 150.642 1754.86 151.609 1754.65 151.396C1754.31 151.057 1767.29 140.112 1813.42 101.864C1819.75 96.6083 1826.5 91.0753 1828.42 89.5693C1833.27 85.7443 1832.03 86.1933 1823.89 91.2053ZM1632.57 257.402C1634.18 271.308 1634.74 320.666 1633.43 333.308C1632.34 343.932 1629.5 357.559 1626.88 364.808C1619.93 384.052 1612.33 399.924 1604.4 411.744C1584.77 440.999 1558.13 464.277 1527.2 479.2C1520.98 482.2 1513.19 485.393 1509.89 486.295C1488.77 492.07 1484.1 493.04 1463.39 495.956C1450.57 497.762 1429.92 496.356 1410.23 492.337C1400.69 490.391 1391.09 488.146 1388.89 487.347C1386.69 486.549 1384.36 485.876 1383.72 485.852C1383.07 485.828 1379.24 484.292 1375.22 482.44C1371.19 480.587 1364.68 477.669 1360.76 475.954C1353.77 472.901 1342.36 465.986 1337.39 461.794C1336.02 460.634 1331.96 457.304 1328.38 454.394C1318.54 446.397 1300.37 425.967 1300.42 422.963C1300.46 421.095 1302.69 417.808 1303.92 417.808C1304.37 417.808 1305.6 417.02 1306.66 416.058C1308.57 414.312 1314.32 410.792 1321.89 406.719C1324.09 405.536 1328.03 403.047 1330.64 401.188C1333.26 399.329 1335.67 397.808 1336 397.808C1336.33 397.808 1338.59 396.466 1341.02 394.827C1345.34 391.912 1355.38 386.808 1356.8 386.808C1357.19 386.808 1361.2 389.902 1365.7 393.685C1387.58 412.05 1409.69 422.283 1435.39 425.935C1444.59 427.241 1468.66 426.227 1472.32 424.378C1473.73 423.662 1477.35 422.497 1480.36 421.789C1501.84 416.738 1528.16 397.95 1542.89 377.151C1547.02 371.319 1553.39 360.575 1553.39 359.436C1553.39 358.785 1554 357.365 1554.75 356.281C1556.6 353.582 1559.89 343.22 1562.52 331.808C1564.42 323.536 1564.69 319.581 1564.6 301.212L1564.5 280.117L1568.7 277.829C1571 276.571 1575.1 274.162 1577.79 272.476C1583.66 268.8 1585.78 267.617 1596.58 261.958C1604.92 257.593 1606.95 256.404 1619.89 248.281L1626.89 243.887L1629.21 246.192C1631.08 248.041 1631.74 250.253 1632.57 257.402ZM427.165 248.818C431.415 251.023 437.593 254.606 440.893 256.78C444.193 258.954 447.884 261.18 449.094 261.727C450.305 262.274 453.005 263.794 455.094 265.106C457.184 266.417 461.143 268.734 463.893 270.254C482.556 280.572 481.62 279.889 480.945 282.695C480.599 284.132 479.795 291.069 479.159 298.11C478.265 307.988 478.277 312.669 479.21 318.61C481.61 333.895 483.341 341.998 484.853 345.028C485.7 346.726 486.393 348.732 486.393 349.487C486.393 351.694 493.199 364.646 498.91 373.308C505.143 382.76 518.09 396.278 527.893 403.566C536.214 409.754 552.325 417.782 561.393 420.26C564.968 421.237 571.043 422.969 574.893 424.109C584.555 426.97 607.451 427.155 618.393 424.462C627.945 422.11 638.972 418.307 647.893 414.286C656.092 410.591 673.743 398.87 680.893 392.371C686.882 386.927 688.954 386.1 691.293 388.218C692.26 389.092 693.383 389.808 693.79 389.808C694.197 389.808 701.587 393.673 710.212 398.398C729.074 408.73 744.311 418.743 744.358 420.837C744.404 422.86 731.691 437.752 722.893 445.981C701.923 465.594 683.459 477.046 658.393 485.984C641.577 491.981 613.35 496.754 594.512 496.787C562.389 496.842 521.311 485.198 496.393 468.974C476.198 455.825 461.776 442.371 444.765 420.808C433.897 407.032 419.075 377.896 416.771 365.776C416.408 363.869 415.672 361.452 415.136 360.406C414.599 359.36 413.092 351.71 411.787 343.406C409.762 330.522 409.416 324.715 409.424 303.808C409.429 290.333 409.876 276.383 410.418 272.808C410.959 269.233 411.819 262.117 412.328 256.994C413.708 243.118 414.907 242.457 427.165 248.818ZM1002.89 559.572C976.281 579.512 908.346 629.602 867.393 659.477C837.784 681.078 778.906 724.497 773.393 728.797C771.384 730.364 772.072 730.238 776.893 728.153C780.193 726.726 793.408 721.337 806.259 716.177C827.938 707.472 837.393 704.471 837.393 706.294C837.393 706.702 835.255 710.463 832.643 714.652C830.031 718.841 825.613 726.249 822.825 731.115C818.164 739.252 816.85 740.675 806.458 748.844L795.159 757.726L786.276 772.732C781.39 780.985 777.393 788.383 777.393 789.172C777.393 790.674 787.894 800.808 789.451 800.808C791.346 800.808 793.915 806.452 794.393 811.668L794.893 817.119L800.893 819.412C804.193 820.673 808.986 821.728 811.544 821.756L816.194 821.808L842.025 848.558C856.232 863.271 874.687 882.283 883.036 890.808C895.872 903.914 898.613 907.261 900.784 912.48C902.197 915.874 911.187 935.899 920.763 956.98C939.922 999.157 960.979 1045.95 985.934 1101.81C994.903 1121.88 1005.42 1145.41 1009.32 1154.09C1013.21 1162.77 1016.39 1170.04 1016.39 1170.24C1016.39 1170.44 1018.12 1174.37 1020.23 1178.96C1022.33 1183.55 1024.64 1188.78 1025.36 1190.59C1026.65 1193.84 1026.75 1193.65 1042.12 1157.59C1057.43 1121.69 1062.98 1108.83 1111.56 996.808C1145.87 917.684 1146.29 916.747 1149.26 913.241C1150.71 911.531 1167.61 892.484 1186.82 870.914L1221.74 831.697L1233.32 826.201L1244.89 820.705L1258.18 800.653L1271.47 780.602L1268.81 777.109C1267.34 775.188 1259.29 766.572 1250.92 757.962C1236.92 743.565 1235.27 741.471 1230.37 731.893C1227.02 725.345 1223.29 719.718 1220.32 716.739C1215.3 711.686 1215.18 711.419 1210.36 693.808L1207.21 682.308L1194.55 671.887C1187.59 666.156 1150.39 637.85 1111.89 608.985C1073.39 580.12 1038.23 553.647 1033.75 550.156C1029.27 546.664 1025.22 543.814 1024.75 543.822C1024.28 543.83 1014.44 550.917 1002.89 559.572Z" fill="white"/>
</svg>
