<svg width="338" height="338" viewBox="0 0 338 338" fill="none" xmlns="http://www.w3.org/2000/svg">
<path d="M254.668 153.2H322.748C330.628 153.2 337.015 146.813 337.015 138.92V43.6135V0.000198364H293.415H198.095C190.215 0.000198364 183.828 6.38682 183.828 14.2802V82.3602C183.828 121.48 215.548 153.2 254.668 153.2Z" fill="white"/>
<path d="M153.187 82.3602V14.2802C153.187 6.38682 146.8 0.000198364 138.92 0.000198364H43.6H0V43.6135V138.92C0 146.813 6.38667 153.2 14.2667 153.2H82.3466C121.467 153.2 153.187 121.48 153.187 82.3602Z" fill="white"/>
<path d="M183.828 254.666V322.76C183.828 330.64 190.215 337.026 198.095 337.026H293.415H337.015V293.426V198.106C337.015 190.226 330.628 183.84 322.748 183.84H254.668C215.548 183.84 183.828 215.546 183.828 254.666Z" fill="white"/>
<path d="M82.3466 184H14.2667C6.38667 184 0 190.386 0 198.266V293.587V337.187H43.6H138.92C146.8 337.187 153.187 330.8 153.187 322.92V254.826C153.187 215.706 121.467 184 82.3466 184Z" fill="white"/>
</svg>
