<svg width="1854" height="810" viewBox="0 0 1854 810" fill="none" xmlns="http://www.w3.org/2000/svg">
<path d="M1747.3 116.115C1673.45 38.008 1583.6 -1.01882 1480.32 0.0211817C1375.81 1.11452 1260.36 43.9278 1137.14 127.288C1078.78 166.781 1023.42 210.768 971.943 258.888C920.103 307.328 876.249 361.021 830.476 414.835C763.863 493.155 686.77 566.128 597.996 618.875C479.756 689.141 372.743 700.915 279.93 653.861C203.37 615.035 148.076 536.688 132.023 444.275C116.116 352.795 140.37 265.048 198.556 203.515C270.823 127.088 361.743 108.328 476.516 146.155C596.996 185.875 712.756 277.541 788.65 347.448L874.823 253.888C789.703 175.475 658.41 72.1812 516.33 25.3545C354.556 -27.9788 212.703 3.40801 106.13 116.115C20.1029 207.101 -16.1503 334.648 6.68974 466.048C29.5831 597.808 110.236 710.435 222.41 767.315C277.69 795.341 336.436 809.301 397.516 809.301C482.623 809.301 572.21 782.181 662.983 728.221C769.903 664.688 861.93 576.915 940.716 481.275C1031.17 371.501 1136.13 272.301 1259.61 200.368C1326.61 161.341 1402.82 128.035 1481.64 127.221C1482.56 127.208 1483.48 127.208 1484.4 127.208C1550.56 127.208 1606.34 152.181 1654.88 203.515C1713.06 265.048 1737.32 352.795 1721.42 444.275C1705.36 536.688 1650.06 615.035 1573.5 653.861C1495.45 693.435 1410.69 692.008 1314.38 649.461C1211.25 603.915 1120.76 521.088 1063.01 459.635L970.303 546.741C1036.13 616.781 1140.33 711.648 1262.98 765.821C1329.33 795.128 1393.72 809.781 1455.69 809.781C1516.6 809.781 1575.2 795.621 1631.02 767.315C1743.21 710.435 1823.85 597.808 1846.74 466.048C1869.58 334.648 1833.33 207.101 1747.3 116.115Z" fill="white"/>
</svg>
