<svg width="338" height="338" viewBox="0 0 338 338" fill="none" xmlns="http://www.w3.org/2000/svg">
<path d="M254.667 153.2H322.747C330.627 153.2 337.014 146.813 337.014 138.92V43.6135V0.000198364H293.414H198.094C190.214 0.000198364 183.827 6.38682 183.827 14.2802V82.3602C183.827 121.48 215.547 153.2 254.667 153.2Z" fill="black"/>
<path d="M153.187 82.3602V14.2802C153.187 6.38682 146.8 0.000198364 138.92 0.000198364H43.6H0V43.6135V138.92C0 146.813 6.38667 153.2 14.2667 153.2H82.3466C121.467 153.2 153.187 121.48 153.187 82.3602Z" fill="black"/>
<path d="M183.827 254.666V322.76C183.827 330.64 190.214 337.026 198.094 337.026H293.414H337.014V293.426V198.106C337.014 190.226 330.627 183.84 322.747 183.84H254.667C215.547 183.84 183.827 215.546 183.827 254.666Z" fill="black"/>
<path d="M82.3466 184H14.2667C6.38667 184 0 190.386 0 198.266V293.587V337.187H43.6H138.92C146.8 337.187 153.187 330.8 153.187 322.92V254.826C153.187 215.706 121.467 184 82.3466 184Z" fill="black"/>
</svg>
